{"ticks_per_beat": 192, "tracks": [[{"type": "track_name", "name": "Melody", "time": 0}, {"type": "set_tempo", "tempo": 222222, "time": 0}, {"type": "time_signature", "numerator": 4, "denominator": 4, "clocks_per_click": 24, "notated_32nd_notes_per_beat": 8, "time": 0}, {"type": "note_on", "time": 4411, "note": 66, "velocity": 124, "channel": 0}, {"type": "note_off", "time": 275, "note": 66, "velocity": 124, "channel": 0}, {"type": "note_on", "time": 15, "note": 61, "velocity": 120, "channel": 0}, {"type": "note_off", "time": 253, "note": 61, "velocity": 120, "channel": 0}, {"type": "note_on", "time": 44, "note": 66, "velocity": 113, "channel": 0}, {"type": "note_off", "time": 112, "note": 66, "velocity": 113, "channel": 0}, {"type": "note_on", "time": 19, "note": 65, "velocity": 116, "channel": 0}, {"type": "note_off", "time": 419, "note": 65, "velocity": 116, "channel": 0}, {"type": "note_on", "time": 278, "note": 61, "velocity": 111, "channel": 0}, {"type": "note_off", "time": 834, "note": 61, "velocity": 111, "channel": 0}, {"type": "note_on", "time": 29, "note": 60, "velocity": 112, "channel": 0}, {"type": "note_off", "time": 610, "note": 60, "velocity": 112, "channel": 0}, {"type": "note_on", "time": 24, "note": 67, "velocity": 113, "channel": 0}, {"type": "note_off", "time": 893, "note": 67, "velocity": 113, "channel": 0}, {"type": "note_on", "time": 6, "note": 65, "velocity": 108, "channel": 0}, {"type": "note_off", "time": 58, "note": 65, "velocity": 108, "channel": 0}, {"type": "note_on", "time": 7, "note": 67, "velocity": 111, "channel": 0}, {"type": "note_off", "time": 135, "note": 67, "velocity": 111, "channel": 0}, {"type": "note_on", "time": 7, "note": 65, "velocity": 115, "channel": 0}, {"type": "note_off", "time": 46, "note": 65, "velocity": 115, "channel": 0}, {"type": "note_on", "time": 8, "note": 63, "velocity": 114, "channel": 0}, {"type": "note_off", "time": 100, "note": 63, "velocity": 114, "channel": 0}, {"type": "note_on", "time": 16, "note": 58, "velocity": 104, "channel": 0}, {"type": "note_off", "time": 73, "note": 58, "velocity": 104, "channel": 0}, {"type": "note_on", "time": 760, "note": 56, "velocity": 110, "channel": 0}, {"type": "note_off", "time": 83, "note": 56, "velocity": 110, "channel": 0}, {"type": "note_on", "time": 25, "note": 58, "velocity": 102, "channel": 0}, {"type": "note_off", "time": 55, "note": 58, "velocity": 102, "channel": 0}, {"type": "note_on", "time": 12, "note": 59, "velocity": 108, "channel": 0}, {"type": "note_off", "time": 95, "note": 59, "velocity": 108, "channel": 0}, {"type": "note_on", "time": 40, "note": 62, "velocity": 102, "channel": 0}, {"type": "note_off", "time": 46, "note": 62, "velocity": 102, "channel": 0}, {"type": "note_on", "time": 27, "note": 63, "velocity": 90, "channel": 0}, {"type": "note_off", "time": 145, "note": 63, "velocity": 90, "channel": 0}, {"type": "note_on", "time": 169, "note": 66, "velocity": 123, "channel": 0}, {"type": "note_off", "time": 78, "note": 66, "velocity": 123, "channel": 0}, {"type": "note_on", "time": 8, "note": 65, "velocity": 121, "channel": 0}, {"type": "note_off", "time": 89, "note": 65, "velocity": 121, "channel": 0}, {"type": "note_on", "time": 32, "note": 62, "velocity": 122, "channel": 0}, {"type": "note_off", "time": 59, "note": 62, "velocity": 122, "channel": 0}, {"type": "note_on", "time": 35, "note": 58, "velocity": 116, "channel": 0}, {"type": "note_off", "time": 89, "note": 58, "velocity": 116, "channel": 0}, {"type": "note_on", "time": 19, "note": 55, "velocity": 98, "channel": 0}, {"type": "note_off", "time": 59, "note": 55, "velocity": 98, "channel": 0}, {"type": "note_on", "time": 17, "note": 62, "velocity": 122, "channel": 0}, {"type": "note_off", "time": 93, "note": 62, "velocity": 122, "channel": 0}, {"type": "note_on", "time": 14, "note": 60, "velocity": 121, "channel": 0}, {"type": "note_off", "time": 63, "note": 60, "velocity": 121, "channel": 0}, {"type": "note_on", "time": 12, "note": 56, "velocity": 120, "channel": 0}, {"type": "note_off", "time": 111, "note": 56, "velocity": 120, "channel": 0}, {"type": "note_on", "time": 13, "note": 53, "velocity": 105, "channel": 0}, {"type": "note_off", "time": 52, "note": 53, "velocity": 105, "channel": 0}, {"type": "note_on", "time": 17, "note": 58, "velocity": 111, "channel": 0}, {"type": "note_off", "time": 114, "note": 58, "velocity": 111, "channel": 0}, {"type": "note_on", "time": 9, "note": 53, "velocity": 97, "channel": 0}, {"type": "note_off", "time": 41, "note": 53, "velocity": 97, "channel": 0}, {"type": "note_on", "time": 9, "note": 56, "velocity": 115, "channel": 0}, {"type": "note_off", "time": 117, "note": 56, "velocity": 115, "channel": 0}, {"type": "note_on", "time": 19, "note": 58, "velocity": 116, "channel": 0}, {"type": "note_off", "time": 67, "note": 58, "velocity": 116, "channel": 0}, {"type": "note_on", "time": 23, "note": 55, "velocity": 106, "channel": 0}, {"type": "note_off", "time": 97, "note": 55, "velocity": 106, "channel": 0}, {"type": "note_on", "time": 14, "note": 58, "velocity": 117, "channel": 0}, {"type": "note_off", "time": 67, "note": 58, "velocity": 117, "channel": 0}, {"type": "note_on", "time": 28, "note": 62, "velocity": 106, "channel": 0}, {"type": "note_off", "time": 56, "note": 62, "velocity": 106, "channel": 0}, {"type": "note_on", "time": 29, "note": 65, "velocity": 121, "channel": 0}, {"type": "note_off", "time": 78, "note": 65, "velocity": 121, "channel": 0}, {"type": "note_on", "time": 73, "note": 60, "velocity": 98, "channel": 0}, {"type": "note_off", "time": 80, "note": 60, "velocity": 98, "channel": 0}, {"type": "note_on", "time": 180, "note": 67, "velocity": 120, "channel": 0}, {"type": "note_off", "time": 76, "note": 67, "velocity": 120, "channel": 0}, {"type": "note_on", "time": 30, "note": 61, "velocity": 111, "channel": 0}, {"type": "note_off", "time": 72, "note": 61, "velocity": 111, "channel": 0}, {"type": "note_on", "time": 203, "note": 67, "velocity": 118, "channel": 0}, {"type": "note_off", "time": 69, "note": 67, "velocity": 118, "channel": 0}, {"type": "note_on", "time": 23, "note": 63, "velocity": 121, "channel": 0}, {"type": "note_off", "time": 86, "note": 63, "velocity": 121, "channel": 0}, {"type": "note_on", "time": 232, "note": 67, "velocity": 117, "channel": 0}, {"type": "note_off", "time": 67, "note": 67, "velocity": 117, "channel": 0}, {"type": "note_on", "time": 444, "note": 67, "velocity": 126, "channel": 0}, {"type": "note_off", "time": 62, "note": 67, "velocity": 126, "channel": 0}, {"type": "note_on", "time": 7, "note": 68, "velocity": 124, "channel": 0}, {"type": "note_off", "time": 76, "note": 68, "velocity": 124, "channel": 0}, {"type": "note_on", "time": 4, "note": 70, "velocity": 125, "channel": 0}, {"type": "note_off", "time": 122, "note": 70, "velocity": 125, "channel": 0}, {"type": "note_on", "time": 29, "note": 72, "velocity": 123, "channel": 0}, {"type": "note_off", "time": 128, "note": 72, "velocity": 123, "channel": 0}, {"type": "note_on", "time": 286, "note": 72, "velocity": 126, "channel": 0}, {"type": "note_off", "time": 235, "note": 72, "velocity": 126, "channel": 0}, {"type": "note_on", "time": 35, "note": 70, "velocity": 112, "channel": 0}, {"type": "note_off", "time": 56, "note": 70, "velocity": 112, "channel": 0}, {"type": "note_on", "time": 14, "note": 68, "velocity": 119, "channel": 0}, {"type": "note_off", "time": 73, "note": 68, "velocity": 119, "channel": 0}, {"type": "note_on", "time": 22, "note": 67, "velocity": 107, "channel": 0}, {"type": "note_off", "time": 109, "note": 67, "velocity": 107, "channel": 0}, {"type": "note_on", "time": 374, "note": 68, "velocity": 115, "channel": 0}, {"type": "note_off", "time": 68, "note": 68, "velocity": 115, "channel": 0}, {"type": "note_on", "time": 3, "note": 70, "velocity": 115, "channel": 0}, {"type": "note_off", "time": 114, "note": 70, "velocity": 115, "channel": 0}, {"type": "note_on", "time": 7, "note": 72, "velocity": 125, "channel": 0}, {"type": "note_off", "time": 181, "note": 72, "velocity": 125, "channel": 0}, {"type": "note_on", "time": 16, "note": 70, "velocity": 115, "channel": 0}, {"type": "note_off", "time": 40, "note": 70, "velocity": 115, "channel": 0}, {"type": "note_on", "time": 13, "note": 68, "velocity": 113, "channel": 0}, {"type": "note_off", "time": 49, "note": 68, "velocity": 113, "channel": 0}, {"type": "note_on", "time": 9, "note": 67, "velocity": 108, "channel": 0}, {"type": "note_off", "time": 69, "note": 67, "velocity": 108, "channel": 0}, {"type": "note_on", "time": 23, "note": 84, "velocity": 100, "channel": 0}, {"type": "note_off", "time": 50, "note": 84, "velocity": 100, "channel": 0}, {"type": "note_on", "time": 60, "note": 65, "velocity": 105, "channel": 0}, {"type": "note_off", "time": 74, "note": 65, "velocity": 105, "channel": 0}, {"type": "note_on", "time": 13, "note": 64, "velocity": 105, "channel": 0}, {"type": "note_off", "time": 28, "note": 64, "velocity": 105, "channel": 0}, {"type": "note_on", "time": 10, "note": 63, "velocity": 108, "channel": 0}, {"type": "note_off", "time": 127, "note": 63, "velocity": 108, "channel": 0}, {"type": "note_on", "time": 379, "note": 72, "velocity": 125, "channel": 0}, {"type": "note_off", "time": 382, "note": 72, "velocity": 125, "channel": 0}, {"type": "note_on", "time": 10, "note": 70, "velocity": 116, "channel": 0}, {"type": "note_off", "time": 43, "note": 70, "velocity": 116, "channel": 0}, {"type": "note_on", "time": 5, "note": 68, "velocity": 116, "channel": 0}, {"type": "note_off", "time": 51, "note": 68, "velocity": 116, "channel": 0}, {"type": "note_on", "time": 5, "note": 67, "velocity": 110, "channel": 0}, {"type": "note_off", "time": 119, "note": 67, "velocity": 110, "channel": 0}, {"type": "note_on", "time": 8, "note": 66, "velocity": 114, "channel": 0}, {"type": "note_off", "time": 38, "note": 66, "velocity": 114, "channel": 0}, {"type": "note_on", "time": 7, "note": 65, "velocity": 114, "channel": 0}, {"type": "note_off", "time": 96, "note": 65, "velocity": 114, "channel": 0}, {"type": "note_on", "time": 10, "note": 64, "velocity": 113, "channel": 0}, {"type": "note_off", "time": 61, "note": 64, "velocity": 113, "channel": 0}, {"type": "note_on", "time": 20, "note": 63, "velocity": 114, "channel": 0}, {"type": "note_off", "time": 101, "note": 63, "velocity": 114, "channel": 0}, {"type": "note_on", "time": 30, "note": 62, "velocity": 112, "channel": 0}, {"type": "note_off", "time": 75, "note": 62, "velocity": 112, "channel": 0}, {"type": "note_on", "time": 16, "note": 61, "velocity": 105, "channel": 0}, {"type": "note_off", "time": 78, "note": 61, "velocity": 105, "channel": 0}, {"type": "note_on", "time": 19, "note": 60, "velocity": 111, "channel": 0}, {"type": "note_off", "time": 69, "note": 60, "velocity": 111, "channel": 0}, {"type": "note_on", "time": 18, "note": 59, "velocity": 108, "channel": 0}, {"type": "note_off", "time": 85, "note": 59, "velocity": 108, "channel": 0}, {"type": "note_on", "time": 266, "note": 53, "velocity": 104, "channel": 0}, {"type": "note_off", "time": 48, "note": 53, "velocity": 104, "channel": 0}, {"type": "note_on", "time": 25, "note": 57, "velocity": 113, "channel": 0}, {"type": "note_off", "time": 89, "note": 57, "velocity": 113, "channel": 0}, {"type": "note_on", "time": 50, "note": 53, "velocity": 103, "channel": 0}, {"type": "note_off", "time": 149, "note": 53, "velocity": 103, "channel": 0}, {"type": "note_on", "time": 3, "note": 56, "velocity": 110, "channel": 0}, {"type": "note_off", "time": 34, "note": 56, "velocity": 110, "channel": 0}, {"type": "note_on", "time": 10, "note": 55, "velocity": 122, "channel": 0}, {"type": "note_off", "time": 91, "note": 55, "velocity": 122, "channel": 0}, {"type": "note_on", "time": 31, "note": 53, "velocity": 106, "channel": 0}, {"type": "note_off", "time": 88, "note": 53, "velocity": 106, "channel": 0}, {"type": "note_on", "time": 29, "note": 51, "velocity": 105, "channel": 0}, {"type": "note_off", "time": 101, "note": 51, "velocity": 105, "channel": 0}, {"type": "note_on", "time": 11, "note": 55, "velocity": 106, "channel": 0}, {"type": "note_off", "time": 60, "note": 55, "velocity": 106, "channel": 0}, {"type": "note_on", "time": 13, "note": 53, "velocity": 104, "channel": 0}, {"type": "note_off", "time": 94, "note": 53, "velocity": 104, "channel": 0}, {"type": "note_on", "time": 8, "note": 55, "velocity": 103, "channel": 0}, {"type": "note_off", "time": 52, "note": 55, "velocity": 103, "channel": 0}, {"type": "note_on", "time": 8, "note": 56, "velocity": 124, "channel": 0}, {"type": "note_off", "time": 104, "note": 56, "velocity": 124, "channel": 0}, {"type": "note_on", "time": 19, "note": 58, "velocity": 100, "channel": 0}, {"type": "note_off", "time": 73, "note": 58, "velocity": 100, "channel": 0}, {"type": "note_on", "time": 27, "note": 60, "velocity": 111, "channel": 0}, {"type": "note_off", "time": 92, "note": 60, "velocity": 111, "channel": 0}, {"type": "note_on", "time": 293, "note": 58, "velocity": 105, "channel": 0}, {"type": "note_off", "time": 110, "note": 58, "velocity": 105, "channel": 0}, {"type": "note_on", "time": 288, "note": 56, "velocity": 105, "channel": 0}, {"type": "note_off", "time": 88, "note": 56, "velocity": 105, "channel": 0}, {"type": "note_on", "time": 218, "note": 61, "velocity": 108, "channel": 0}, {"type": "note_off", "time": 60, "note": 61, "velocity": 108, "channel": 0}, {"type": "note_on", "time": 402, "note": 59, "velocity": 107, "channel": 0}, {"type": "note_off", "time": 62, "note": 59, "velocity": 107, "channel": 0}, {"type": "note_on", "time": 304, "note": 63, "velocity": 108, "channel": 0}, {"type": "note_off", "time": 66, "note": 63, "velocity": 108, "channel": 0}, {"type": "note_on", "time": 347, "note": 65, "velocity": 123, "channel": 0}, {"type": "note_off", "time": 309, "note": 65, "velocity": 123, "channel": 0}, {"type": "note_on", "time": 9, "note": 70, "velocity": 106, "channel": 0}, {"type": "note_off", "time": 134, "note": 70, "velocity": 106, "channel": 0}, {"type": "note_on", "time": 337, "note": 65, "velocity": 102, "channel": 0}, {"type": "note_off", "time": 50, "note": 65, "velocity": 102, "channel": 0}, {"type": "note_on", "time": 337, "note": 68, "velocity": 120, "channel": 0}, {"type": "note_off", "time": 59, "note": 68, "velocity": 120, "channel": 0}, {"type": "note_on", "time": 252, "note": 66, "velocity": 115, "channel": 0}, {"type": "note_off", "time": 50, "note": 66, "velocity": 115, "channel": 0}, {"type": "note_on", "time": 337, "note": 71, "velocity": 113, "channel": 0}, {"type": "note_off", "time": 57, "note": 71, "velocity": 113, "channel": 0}, {"type": "note_on", "time": 219, "note": 64, "velocity": 117, "channel": 0}, {"type": "note_off", "time": 52, "note": 64, "velocity": 117, "channel": 0}, {"type": "note_on", "time": 260, "note": 72, "velocity": 113, "channel": 0}, {"type": "note_off", "time": 54, "note": 72, "velocity": 113, "channel": 0}, {"type": "note_on", "time": 222, "note": 62, "velocity": 115, "channel": 0}, {"type": "note_off", "time": 72, "note": 62, "velocity": 115, "channel": 0}, {"type": "note_on", "time": 208, "note": 73, "velocity": 125, "channel": 0}, {"type": "note_off", "time": 61, "note": 73, "velocity": 125, "channel": 0}, {"type": "note_on", "time": 195, "note": 61, "velocity": 123, "channel": 0}, {"type": "note_off", "time": 74, "note": 61, "velocity": 123, "channel": 0}, {"type": "note_on", "time": 242, "note": 74, "velocity": 97, "channel": 0}, {"type": "note_off", "time": 278, "note": 74, "velocity": 97, "channel": 0}, {"type": "note_on", "time": 777, "note": 73, "velocity": 126, "channel": 0}, {"type": "note_off", "time": 161, "note": 73, "velocity": 126, "channel": 0}, {"type": "note_on", "time": 22, "note": 68, "velocity": 118, "channel": 0}, {"type": "note_off", "time": 87, "note": 68, "velocity": 118, "channel": 0}, {"type": "note_on", "time": 125, "note": 66, "velocity": 114, "channel": 0}, {"type": "note_off", "time": 181, "note": 66, "velocity": 114, "channel": 0}, {"type": "note_on", "time": 11, "note": 61, "velocity": 115, "channel": 0}, {"type": "note_off", "time": 114, "note": 61, "velocity": 115, "channel": 0}, {"type": "note_on", "time": 20, "note": 60, "velocity": 102, "channel": 0}, {"type": "note_off", "time": 771, "note": 60, "velocity": 102, "channel": 0}, {"type": "note_on", "time": 25, "note": 60, "velocity": 114, "channel": 0}, {"type": "note_off", "time": 38, "note": 60, "velocity": 114, "channel": 0}, {"type": "note_on", "time": 6, "note": 61, "velocity": 113, "channel": 0}, {"type": "note_off", "time": 121, "note": 61, "velocity": 113, "channel": 0}, {"type": "note_on", "time": 25, "note": 56, "velocity": 119, "channel": 0}, {"type": "note_off", "time": 97, "note": 56, "velocity": 119, "channel": 0}, {"type": "note_on", "time": 6, "note": 54, "velocity": 115, "channel": 0}, {"type": "note_off", "time": 108, "note": 54, "velocity": 115, "channel": 0}, {"type": "note_on", "time": 634, "note": 55, "velocity": 111, "channel": 0}, {"type": "note_off", "time": 77, "note": 55, "velocity": 111, "channel": 0}, {"type": "note_on", "time": 13, "note": 58, "velocity": 111, "channel": 0}, {"type": "note_off", "time": 64, "note": 58, "velocity": 111, "channel": 0}, {"type": "note_on", "time": 8, "note": 62, "velocity": 113, "channel": 0}, {"type": "note_off", "time": 41, "note": 62, "velocity": 113, "channel": 0}, {"type": "note_on", "time": 16, "note": 65, "velocity": 110, "channel": 0}, {"type": "note_off", "time": 70, "note": 65, "velocity": 110, "channel": 0}, {"type": "note_on", "time": 35, "note": 60, "velocity": 113, "channel": 0}, {"type": "note_off", "time": 61, "note": 60, "velocity": 113, "channel": 0}, {"type": "note_on", "time": 3, "note": 61, "velocity": 109, "channel": 0}, {"type": "note_off", "time": 111, "note": 61, "velocity": 109, "channel": 0}, {"type": "note_on", "time": 33, "note": 64, "velocity": 113, "channel": 0}, {"type": "note_off", "time": 45, "note": 64, "velocity": 113, "channel": 0}, {"type": "note_on", "time": 84, "note": 66, "velocity": 113, "channel": 0}, {"type": "note_off", "time": 38, "note": 66, "velocity": 113, "channel": 0}, {"type": "note_on", "time": 137, "note": 70, "velocity": 90, "channel": 0}, {"type": "note_off", "time": 49, "note": 70, "velocity": 90, "channel": 0}, {"type": "note_on", "time": 27, "note": 72, "velocity": 123, "channel": 0}, {"type": "note_off", "time": 178, "note": 72, "velocity": 123, "channel": 0}, {"type": "note_on", "time": 18, "note": 70, "velocity": 119, "channel": 0}, {"type": "note_off", "time": 69, "note": 70, "velocity": 119, "channel": 0}, {"type": "note_on", "time": 9, "note": 68, "velocity": 114, "channel": 0}, {"type": "note_off", "time": 73, "note": 68, "velocity": 114, "channel": 0}, {"type": "note_on", "time": 7, "note": 67, "velocity": 109, "channel": 0}, {"type": "note_off", "time": 74, "note": 67, "velocity": 109, "channel": 0}, {"type": "note_on", "time": 13, "note": 65, "velocity": 110, "channel": 0}, {"type": "note_off", "time": 54, "note": 65, "velocity": 110, "channel": 0}, {"type": "note_on", "time": 13, "note": 63, "velocity": 115, "channel": 0}, {"type": "note_off", "time": 123, "note": 63, "velocity": 115, "channel": 0}, {"type": "note_on", "time": 18, "note": 61, "velocity": 111, "channel": 0}, {"type": "note_off", "time": 50, "note": 61, "velocity": 111, "channel": 0}, {"type": "note_on", "time": 9, "note": 60, "velocity": 108, "channel": 0}, {"type": "note_off", "time": 95, "note": 60, "velocity": 108, "channel": 0}, {"type": "note_on", "time": 25, "note": 58, "velocity": 105, "channel": 0}, {"type": "note_off", "time": 64, "note": 58, "velocity": 105, "channel": 0}, {"type": "note_on", "time": 4, "note": 56, "velocity": 111, "channel": 0}, {"type": "note_off", "time": 75, "note": 56, "velocity": 111, "channel": 0}, {"type": "note_on", "time": 7, "note": 55, "velocity": 107, "channel": 0}, {"type": "note_off", "time": 97, "note": 55, "velocity": 107, "channel": 0}, {"type": "note_on", "time": 29, "note": 58, "velocity": 105, "channel": 0}, {"type": "note_off", "time": 111, "note": 58, "velocity": 105, "channel": 0}, {"type": "note_on", "time": 73, "note": 56, "velocity": 110, "channel": 0}, {"type": "note_off", "time": 77, "note": 56, "velocity": 110, "channel": 0}, {"type": "note_on", "time": 28, "note": 58, "velocity": 109, "channel": 0}, {"type": "note_off", "time": 72, "note": 58, "velocity": 109, "channel": 0}, {"type": "note_on", "time": 10, "note": 59, "velocity": 109, "channel": 0}, {"type": "note_off", "time": 78, "note": 59, "velocity": 109, "channel": 0}, {"type": "note_on", "time": 21, "note": 61, "velocity": 102, "channel": 0}, {"type": "note_off", "time": 49, "note": 61, "velocity": 102, "channel": 0}, {"type": "note_on", "time": 15, "note": 63, "velocity": 107, "channel": 0}, {"type": "note_off", "time": 93, "note": 63, "velocity": 107, "channel": 0}, {"type": "note_on", "time": 24, "note": 66, "velocity": 117, "channel": 0}, {"type": "note_off", "time": 75, "note": 66, "velocity": 117, "channel": 0}, {"type": "note_on", "time": 6, "note": 65, "velocity": 110, "channel": 0}, {"type": "note_off", "time": 78, "note": 65, "velocity": 110, "channel": 0}, {"type": "note_on", "time": 26, "note": 60, "velocity": 105, "channel": 0}, {"type": "note_off", "time": 73, "note": 60, "velocity": 105, "channel": 0}, {"type": "note_on", "time": 24, "note": 58, "velocity": 115, "channel": 0}, {"type": "note_off", "time": 141, "note": 58, "velocity": 115, "channel": 0}, {"type": "note_on", "time": 40, "note": 60, "velocity": 116, "channel": 0}, {"type": "note_off", "time": 107, "note": 60, "velocity": 116, "channel": 0}, {"type": "note_on", "time": 319, "note": 58, "velocity": 114, "channel": 0}, {"type": "note_off", "time": 57, "note": 58, "velocity": 114, "channel": 0}, {"type": "note_on", "time": 143, "note": 51, "velocity": 110, "channel": 0}, {"type": "note_off", "time": 107, "note": 51, "velocity": 110, "channel": 0}, {"type": "note_on", "time": 19, "note": 55, "velocity": 114, "channel": 0}, {"type": "note_off", "time": 113, "note": 55, "velocity": 114, "channel": 0}, {"type": "note_on", "time": 11, "note": 61, "velocity": 117, "channel": 0}, {"type": "note_off", "time": 93, "note": 61, "velocity": 117, "channel": 0}, {"type": "note_on", "time": 0, "note": 60, "velocity": 121, "channel": 0}, {"type": "note_off", "time": 50, "note": 60, "velocity": 121, "channel": 0}, {"type": "note_on", "time": 14, "note": 60, "velocity": 114, "channel": 0}, {"type": "note_off", "time": 53, "note": 60, "velocity": 114, "channel": 0}, {"type": "note_on", "time": 10, "note": 56, "velocity": 113, "channel": 0}, {"type": "note_off", "time": 74, "note": 56, "velocity": 113, "channel": 0}, {"type": "note_on", "time": 466, "note": 56, "velocity": 104, "channel": 0}, {"type": "note_off", "time": 87, "note": 56, "velocity": 104, "channel": 0}, {"type": "note_on", "time": 13, "note": 58, "velocity": 111, "channel": 0}, {"type": "note_off", "time": 94, "note": 58, "velocity": 111, "channel": 0}, {"type": "note_on", "time": 18, "note": 60, "velocity": 115, "channel": 0}, {"type": "note_on", "time": 77, "note": 63, "velocity": 119, "channel": 0}, {"type": "note_off", "time": 0, "note": 60, "velocity": 115, "channel": 0}, {"type": "note_off", "time": 82, "note": 63, "velocity": 119, "channel": 0}, {"type": "note_on", "time": 337, "note": 67, "velocity": 120, "channel": 0}, {"type": "note_off", "time": 60, "note": 67, "velocity": 120, "channel": 0}, {"type": "note_on", "time": 8, "note": 67, "velocity": 125, "channel": 0}, {"type": "note_off", "time": 72, "note": 67, "velocity": 125, "channel": 0}, {"type": "note_on", "time": 10, "note": 65, "velocity": 113, "channel": 0}, {"type": "note_off", "time": 118, "note": 65, "velocity": 113, "channel": 0}, {"type": "note_on", "time": 561, "note": 67, "velocity": 120, "channel": 0}, {"type": "note_off", "time": 79, "note": 67, "velocity": 120, "channel": 0}, {"type": "note_on", "time": 110, "note": 62, "velocity": 118, "channel": 0}, {"type": "note_off", "time": 109, "note": 62, "velocity": 118, "channel": 0}, {"type": "note_on", "time": 116, "note": 57, "velocity": 115, "channel": 0}, {"type": "note_off", "time": 98, "note": 57, "velocity": 115, "channel": 0}, {"type": "note_on", "time": 22, "note": 56, "velocity": 113, "channel": 0}, {"type": "note_off", "time": 87, "note": 56, "velocity": 113, "channel": 0}, {"type": "note_on", "time": 247, "note": 63, "velocity": 104, "channel": 0}, {"type": "note_off", "time": 63, "note": 63, "velocity": 104, "channel": 0}, {"type": "note_on", "time": 80, "note": 66, "velocity": 123, "channel": 0}, {"type": "note_off", "time": 90, "note": 66, "velocity": 123, "channel": 0}, {"type": "note_on", "time": 10, "note": 65, "velocity": 122, "channel": 0}, {"type": "note_off", "time": 103, "note": 65, "velocity": 122, "channel": 0}, {"type": "note_on", "time": 298, "note": 60, "velocity": 117, "channel": 0}, {"type": "note_off", "time": 77, "note": 60, "velocity": 117, "channel": 0}, {"type": "note_on", "time": 147, "note": 55, "velocity": 120, "channel": 0}, {"type": "note_off", "time": 100, "note": 55, "velocity": 120, "channel": 0}, {"type": "note_on", "time": 5, "note": 59, "velocity": 116, "channel": 0}, {"type": "note_off", "time": 81, "note": 59, "velocity": 116, "channel": 0}, {"type": "note_on", "time": 931, "note": 73, "velocity": 122, "channel": 0}, {"type": "note_off", "time": 80, "note": 73, "velocity": 122, "channel": 0}, {"type": "note_on", "time": 13, "note": 72, "velocity": 127, "channel": 0}, {"type": "note_off", "time": 131, "note": 72, "velocity": 127, "channel": 0}, {"type": "note_on", "time": 30, "note": 67, "velocity": 114, "channel": 0}, {"type": "note_off", "time": 168, "note": 67, "velocity": 114, "channel": 0}, {"type": "note_on", "time": 40, "note": 62, "velocity": 115, "channel": 0}, {"type": "note_off", "time": 151, "note": 62, "velocity": 115, "channel": 0}, {"type": "note_on", "time": 3, "note": 61, "velocity": 112, "channel": 0}, {"type": "note_off", "time": 235, "note": 61, "velocity": 112, "channel": 0}, {"type": "note_on", "time": 11, "note": 66, "velocity": 113, "channel": 0}, {"type": "note_off", "time": 143, "note": 66, "velocity": 113, "channel": 0}, {"type": "note_on", "time": 42, "note": 71, "velocity": 117, "channel": 0}, {"type": "note_off", "time": 123, "note": 71, "velocity": 117, "channel": 0}, {"type": "note_on", "time": 72, "note": 70, "velocity": 116, "channel": 0}, {"type": "note_off", "time": 347, "note": 70, "velocity": 116, "channel": 0}, {"type": "note_on", "time": 35, "note": 65, "velocity": 101, "channel": 0}, {"type": "note_off", "time": 120, "note": 65, "velocity": 101, "channel": 0}, {"type": "note_on", "time": 421, "note": 60, "velocity": 113, "channel": 0}, {"type": "note_off", "time": 75, "note": 60, "velocity": 113, "channel": 0}, {"type": "note_on", "time": 13, "note": 59, "velocity": 111, "channel": 0}, {"type": "note_off", "time": 275, "note": 59, "velocity": 111, "channel": 0}, {"type": "note_on", "time": 45, "note": 64, "velocity": 123, "channel": 0}, {"type": "note_off", "time": 76, "note": 64, "velocity": 123, "channel": 0}, {"type": "note_on", "time": 23, "note": 69, "velocity": 126, "channel": 0}, {"type": "note_off", "time": 63, "note": 69, "velocity": 126, "channel": 0}, {"type": "note_on", "time": 9, "note": 68, "velocity": 113, "channel": 0}, {"type": "note_off", "time": 391, "note": 68, "velocity": 113, "channel": 0}, {"type": "note_on", "time": 32, "note": 63, "velocity": 113, "channel": 0}, {"type": "note_off", "time": 63, "note": 63, "velocity": 113, "channel": 0}, {"type": "note_on", "time": 15, "note": 58, "velocity": 100, "channel": 0}, {"type": "note_off", "time": 36, "note": 58, "velocity": 100, "channel": 0}, {"type": "note_on", "time": 33, "note": 55, "velocity": 105, "channel": 0}, {"type": "note_off", "time": 176, "note": 55, "velocity": 105, "channel": 0}, {"type": "note_on", "time": 427, "note": 55, "velocity": 104, "channel": 0}, {"type": "note_off", "time": 71, "note": 55, "velocity": 104, "channel": 0}, {"type": "note_on", "time": 35, "note": 62, "velocity": 106, "channel": 0}, {"type": "note_off", "time": 60, "note": 62, "velocity": 106, "channel": 0}, {"type": "note_on", "time": 4, "note": 67, "velocity": 112, "channel": 0}, {"type": "note_off", "time": 104, "note": 67, "velocity": 112, "channel": 0}, {"type": "note_on", "time": 14, "note": 66, "velocity": 117, "channel": 0}, {"type": "note_off", "time": 88, "note": 66, "velocity": 117, "channel": 0}, {"type": "note_on", "time": 402, "note": 62, "velocity": 115, "channel": 0}, {"type": "note_off", "time": 95, "note": 62, "velocity": 115, "channel": 0}, {"type": "note_on", "time": 42, "note": 55, "velocity": 112, "channel": 0}, {"type": "note_off", "time": 60, "note": 55, "velocity": 112, "channel": 0}, {"type": "note_on", "time": 15, "note": 54, "velocity": 116, "channel": 0}, {"type": "note_off", "time": 462, "note": 54, "velocity": 116, "channel": 0}, {"type": "note_on", "time": 20, "note": 49, "velocity": 110, "channel": 0}, {"type": "note_off", "time": 67, "note": 49, "velocity": 110, "channel": 0}, {"type": "note_on", "time": 10, "note": 54, "velocity": 118, "channel": 0}, {"type": "note_off", "time": 107, "note": 54, "velocity": 118, "channel": 0}, {"type": "note_on", "time": 10, "note": 59, "velocity": 118, "channel": 0}, {"type": "note_off", "time": 66, "note": 59, "velocity": 118, "channel": 0}, {"type": "note_on", "time": 42, "note": 64, "velocity": 119, "channel": 0}, {"type": "note_off", "time": 68, "note": 64, "velocity": 119, "channel": 0}, {"type": "note_on", "time": 801, "note": 61, "velocity": 106, "channel": 0}, {"type": "note_off", "time": 65, "note": 61, "velocity": 106, "channel": 0}, {"type": "note_on", "time": 19, "note": 61, "velocity": 122, "channel": 0}, {"type": "note_off", "time": 141, "note": 61, "velocity": 122, "channel": 0}, {"type": "note_on", "time": 14, "note": 66, "velocity": 119, "channel": 0}, {"type": "note_off", "time": 119, "note": 66, "velocity": 119, "channel": 0}, {"type": "note_on", "time": 119, "note": 66, "velocity": 123, "channel": 0}, {"type": "note_off", "time": 171, "note": 66, "velocity": 123, "channel": 0}, {"type": "note_on", "time": 22, "note": 61, "velocity": 117, "channel": 0}, {"type": "note_off", "time": 89, "note": 61, "velocity": 117, "channel": 0}, {"type": "note_on", "time": 10, "note": 60, "velocity": 115, "channel": 0}, {"type": "note_off", "time": 82, "note": 60, "velocity": 115, "channel": 0}, {"type": "note_on", "time": 754, "note": 60, "velocity": 110, "channel": 0}, {"type": "note_off", "time": 82, "note": 60, "velocity": 110, "channel": 0}, {"type": "note_on", "time": 3, "note": 61, "velocity": 112, "channel": 0}, {"type": "note_off", "time": 102, "note": 61, "velocity": 112, "channel": 0}, {"type": "note_on", "time": 56, "note": 63, "velocity": 116, "channel": 0}, {"type": "note_off", "time": 82, "note": 63, "velocity": 116, "channel": 0}, {"type": "note_on", "time": 88, "note": 68, "velocity": 121, "channel": 0}, {"type": "note_off", "time": 184, "note": 68, "velocity": 121, "channel": 0}, {"type": "note_on", "time": 28, "note": 73, "velocity": 125, "channel": 0}, {"type": "note_off", "time": 105, "note": 73, "velocity": 125, "channel": 0}, {"type": "note_on", "time": 15, "note": 72, "velocity": 119, "channel": 0}, {"type": "note_off", "time": 1793, "note": 72, "velocity": 119, "channel": 0}, {"type": "note_on", "time": 19, "note": 72, "velocity": 121, "channel": 0}, {"type": "note_off", "time": 76, "note": 72, "velocity": 121, "channel": 0}, {"type": "note_on", "time": 14, "note": 70, "velocity": 119, "channel": 0}, {"type": "note_off", "time": 87, "note": 70, "velocity": 119, "channel": 0}, {"type": "note_on", "time": 13, "note": 72, "velocity": 126, "channel": 0}, {"type": "note_off", "time": 80, "note": 72, "velocity": 126, "channel": 0}, {"type": "note_on", "time": 14, "note": 70, "velocity": 122, "channel": 0}, {"type": "note_off", "time": 81, "note": 70, "velocity": 122, "channel": 0}, {"type": "note_on", "time": 13, "note": 68, "velocity": 112, "channel": 0}, {"type": "note_off", "time": 73, "note": 68, "velocity": 112, "channel": 0}, {"type": "note_on", "time": 15, "note": 67, "velocity": 106, "channel": 0}, {"type": "note_off", "time": 76, "note": 67, "velocity": 106, "channel": 0}, {"type": "note_on", "time": 29, "note": 70, "velocity": 124, "channel": 0}, {"type": "note_off", "time": 94, "note": 70, "velocity": 124, "channel": 0}, {"type": "note_on", "time": 7, "note": 68, "velocity": 118, "channel": 0}, {"type": "note_off", "time": 53, "note": 68, "velocity": 118, "channel": 0}, {"type": "note_on", "time": 8, "note": 67, "velocity": 113, "channel": 0}, {"type": "note_off", "time": 72, "note": 67, "velocity": 113, "channel": 0}, {"type": "note_on", "time": 13, "note": 68, "velocity": 114, "channel": 0}, {"type": "note_off", "time": 95, "note": 68, "velocity": 114, "channel": 0}, {"type": "note_on", "time": 18, "note": 65, "velocity": 107, "channel": 0}, {"type": "note_off", "time": 100, "note": 65, "velocity": 107, "channel": 0}, {"type": "note_on", "time": 16, "note": 61, "velocity": 118, "channel": 0}, {"type": "note_off", "time": 49, "note": 61, "velocity": 118, "channel": 0}, {"type": "note_on", "time": 33, "note": 58, "velocity": 103, "channel": 0}, {"type": "note_off", "time": 117, "note": 58, "velocity": 103, "channel": 0}, {"type": "note_on", "time": 8, "note": 55, "velocity": 93, "channel": 0}, {"type": "note_off", "time": 30, "note": 55, "velocity": 93, "channel": 0}, {"type": "note_on", "time": 21, "note": 63, "velocity": 121, "channel": 0}, {"type": "note_off", "time": 98, "note": 63, "velocity": 121, "channel": 0}, {"type": "note_on", "time": 21, "note": 60, "velocity": 110, "channel": 0}, {"type": "note_off", "time": 54, "note": 60, "velocity": 110, "channel": 0}, {"type": "note_on", "time": 11, "note": 56, "velocity": 106, "channel": 0}, {"type": "note_off", "time": 145, "note": 56, "velocity": 106, "channel": 0}, {"type": "note_on", "time": 16, "note": 53, "velocity": 109, "channel": 0}, {"type": "note_off", "time": 44, "note": 53, "velocity": 109, "channel": 0}, {"type": "note_on", "time": 20, "note": 58, "velocity": 108, "channel": 0}, {"type": "note_off", "time": 77, "note": 58, "velocity": 108, "channel": 0}, {"type": "note_on", "time": 49, "note": 53, "velocity": 106, "channel": 0}, {"type": "note_off", "time": 40, "note": 53, "velocity": 106, "channel": 0}, {"type": "note_on", "time": 23, "note": 56, "velocity": 111, "channel": 0}, {"type": "note_off", "time": 63, "note": 56, "velocity": 111, "channel": 0}, {"type": "note_on", "time": 20, "note": 58, "velocity": 112, "channel": 0}, {"type": "note_off", "time": 65, "note": 58, "velocity": 112, "channel": 0}, {"type": "note_on", "time": 36, "note": 53, "velocity": 116, "channel": 0}, {"type": "note_off", "time": 65, "note": 53, "velocity": 116, "channel": 0}, {"type": "note_on", "time": 12, "note": 51, "velocity": 114, "channel": 0}, {"type": "note_off", "time": 77, "note": 51, "velocity": 114, "channel": 0}, {"type": "note_on", "time": 14, "note": 49, "velocity": 118, "channel": 0}, {"type": "note_off", "time": 87, "note": 49, "velocity": 118, "channel": 0}, {"type": "note_on", "time": 25, "note": 53, "velocity": 110, "channel": 0}, {"type": "note_off", "time": 60, "note": 53, "velocity": 110, "channel": 0}, {"type": "note_on", "time": 7, "note": 51, "velocity": 113, "channel": 0}, {"type": "note_off", "time": 86, "note": 51, "velocity": 113, "channel": 0}, {"type": "note_on", "time": 4, "note": 49, "velocity": 109, "channel": 0}, {"type": "note_off", "time": 99, "note": 49, "velocity": 109, "channel": 0}, {"type": "note_on", "time": 11, "note": 46, "velocity": 117, "channel": 0}, {"type": "note_off", "time": 49, "note": 46, "velocity": 117, "channel": 0}, {"type": "note_on", "time": 6, "note": 44, "velocity": 119, "channel": 0}, {"type": "note_off", "time": 47, "note": 44, "velocity": 119, "channel": 0}, {"type": "note_on", "time": 907, "note": 52, "velocity": 124, "channel": 0}, {"type": "note_off", "time": 78, "note": 52, "velocity": 124, "channel": 0}, {"type": "note_on", "time": 13, "note": 57, "velocity": 118, "channel": 0}, {"type": "note_off", "time": 54, "note": 57, "velocity": 118, "channel": 0}, {"type": "note_on", "time": 16, "note": 54, "velocity": 109, "channel": 0}, {"type": "note_off", "time": 96, "note": 54, "velocity": 109, "channel": 0}, {"type": "note_on", "time": 17, "note": 62, "velocity": 116, "channel": 0}, {"type": "note_off", "time": 99, "note": 62, "velocity": 116, "channel": 0}, {"type": "note_on", "time": 15, "note": 59, "velocity": 108, "channel": 0}, {"type": "note_off", "time": 103, "note": 59, "velocity": 108, "channel": 0}, {"type": "note_on", "time": 169, "note": 64, "velocity": 125, "channel": 0}, {"type": "note_off", "time": 95, "note": 64, "velocity": 125, "channel": 0}, {"type": "note_on", "time": 21, "note": 60, "velocity": 111, "channel": 0}, {"type": "note_off", "time": 67, "note": 60, "velocity": 111, "channel": 0}, {"type": "note_on", "time": 210, "note": 66, "velocity": 123, "channel": 0}, {"type": "note_off", "time": 71, "note": 66, "velocity": 123, "channel": 0}, {"type": "note_on", "time": 13, "note": 62, "velocity": 117, "channel": 0}, {"type": "note_off", "time": 103, "note": 62, "velocity": 117, "channel": 0}, {"type": "note_on", "time": 10, "note": 67, "velocity": 115, "channel": 0}, {"type": "note_off", "time": 60, "note": 67, "velocity": 115, "channel": 0}, {"type": "note_on", "time": 270, "note": 63, "velocity": 122, "channel": 0}, {"type": "note_off", "time": 63, "note": 63, "velocity": 122, "channel": 0}, {"type": "note_on", "time": 14, "note": 68, "velocity": 111, "channel": 0}, {"type": "note_off", "time": 111, "note": 68, "velocity": 111, "channel": 0}, {"type": "note_on", "time": 15, "note": 66, "velocity": 114, "channel": 0}, {"type": "note_off", "time": 92, "note": 66, "velocity": 114, "channel": 0}, {"type": "note_on", "time": 319, "note": 61, "velocity": 113, "channel": 0}, {"type": "note_off", "time": 85, "note": 61, "velocity": 113, "channel": 0}, {"type": "note_on", "time": 309, "note": 66, "velocity": 110, "channel": 0}, {"type": "note_off", "time": 258, "note": 66, "velocity": 110, "channel": 0}, {"type": "note_on", "time": 27, "note": 61, "velocity": 107, "channel": 0}, {"type": "note_off", "time": 194, "note": 61, "velocity": 107, "channel": 0}, {"type": "note_on", "time": 1, "note": 60, "velocity": 104, "channel": 0}, {"type": "note_off", "time": 384, "note": 60, "velocity": 104, "channel": 0}, {"type": "note_on", "time": 421, "note": 61, "velocity": 105, "channel": 0}, {"type": "note_off", "time": 273, "note": 61, "velocity": 105, "channel": 0}, {"type": "note_on", "time": 48, "note": 66, "velocity": 102, "channel": 0}, {"type": "note_off", "time": 243, "note": 66, "velocity": 102, "channel": 0}, {"type": "note_on", "time": 38, "note": 61, "velocity": 111, "channel": 0}, {"type": "note_off", "time": 89, "note": 61, "velocity": 111, "channel": 0}, {"type": "note_on", "time": 20, "note": 60, "velocity": 104, "channel": 0}, {"type": "note_off", "time": 280, "note": 60, "velocity": 104, "channel": 0}, {"type": "note_on", "time": 603, "note": 66, "velocity": 119, "channel": 0}, {"type": "note_off", "time": 252, "note": 66, "velocity": 119, "channel": 0}, {"type": "note_on", "time": 28, "note": 61, "velocity": 116, "channel": 0}, {"type": "note_off", "time": 235, "note": 61, "velocity": 116, "channel": 0}, {"type": "note_on", "time": 58, "note": 54, "velocity": 113, "channel": 0}, {"type": "note_off", "time": 130, "note": 54, "velocity": 113, "channel": 0}, {"type": "note_on", "time": 32, "note": 57, "velocity": 99, "channel": 0}, {"type": "note_off", "time": 782, "note": 57, "velocity": 99, "channel": 0}, {"type": "end_of_track", "time": 0}]]}