{"ticks_per_beat": 840, "tracks": [[{"type": "note_on", "time": 0, "note": 71, "velocity": 100, "channel": 0}, {"type": "note_on", "time": 185, "note": 72, "velocity": 121, "channel": 0}, {"type": "note_off", "time": 0, "note": 71, "velocity": 100, "channel": 0}, {"type": "note_off", "time": 824, "note": 72, "velocity": 121, "channel": 0}, {"type": "note_on", "time": 0, "note": 71, "velocity": 119, "channel": 0}, {"type": "note_off", "time": 113, "note": 71, "velocity": 119, "channel": 0}, {"type": "note_on", "time": 11, "note": 69, "velocity": 116, "channel": 0}, {"type": "note_off", "time": 119, "note": 69, "velocity": 116, "channel": 0}, {"type": "note_on", "time": 17, "note": 67, "velocity": 118, "channel": 0}, {"type": "note_off", "time": 119, "note": 67, "velocity": 118, "channel": 0}, {"type": "note_on", "time": 41, "note": 65, "velocity": 118, "channel": 0}, {"type": "note_off", "time": 238, "note": 65, "velocity": 118, "channel": 0}, {"type": "note_on", "time": 89, "note": 62, "velocity": 114, "channel": 0}, {"type": "note_on", "time": 241, "note": 65, "velocity": 112, "channel": 0}, {"type": "note_off", "time": 0, "note": 62, "velocity": 114, "channel": 0}, {"type": "note_off", "time": 100, "note": 65, "velocity": 112, "channel": 0}, {"type": "note_on", "time": 0, "note": 67, "velocity": 112, "channel": 0}, {"type": "note_off", "time": 67, "note": 67, "velocity": 112, "channel": 0}, {"type": "note_on", "time": 0, "note": 69, "velocity": 112, "channel": 0}, {"type": "note_on", "time": 96, "note": 71, "velocity": 115, "channel": 0}, {"type": "note_off", "time": 0, "note": 69, "velocity": 112, "channel": 0}, {"type": "note_off", "time": 83, "note": 71, "velocity": 115, "channel": 0}, {"type": "note_on", "time": 8, "note": 72, "velocity": 118, "channel": 0}, {"type": "note_off", "time": 155, "note": 72, "velocity": 118, "channel": 0}, {"type": "note_on", "time": 12, "note": 71, "velocity": 121, "channel": 0}, {"type": "track_name", "name": "Melody", "time": 310}, {"type": "set_tempo", "tempo": 408163, "time": 0}, {"type": "key_signature", "key": "A", "time": 0}, {"type": "time_signature", "numerator": 4, "denominator": 4, "clocks_per_click": 24, "notated_32nd_notes_per_beat": 8, "time": 0}, {"type": "note_off", "time": 46, "note": 71, "velocity": 121, "channel": 0}, {"type": "note_on", "time": 1280, "note": 70, "velocity": 106, "channel": 0}, {"type": "note_off", "time": 56, "note": 70, "velocity": 106, "channel": 0}, {"type": "note_on", "time": 8, "note": 71, "velocity": 121, "channel": 0}, {"type": "note_off", "time": 848, "note": 71, "velocity": 121, "channel": 0}, {"type": "note_on", "time": 41, "note": 71, "velocity": 114, "channel": 0}, {"type": "note_off", "time": 128, "note": 71, "velocity": 114, "channel": 0}, {"type": "note_on", "time": 32, "note": 69, "velocity": 115, "channel": 0}, {"type": "note_off", "time": 89, "note": 69, "velocity": 115, "channel": 0}, {"type": "note_on", "time": 35, "note": 68, "velocity": 118, "channel": 0}, {"type": "note_off", "time": 179, "note": 68, "velocity": 118, "channel": 0}, {"type": "note_on", "time": 107, "note": 66, "velocity": 112, "channel": 0}, {"type": "note_off", "time": 104, "note": 66, "velocity": 112, "channel": 0}, {"type": "note_on", "time": 14, "note": 65, "velocity": 115, "channel": 0}, {"type": "note_off", "time": 283, "note": 65, "velocity": 115, "channel": 0}, {"type": "note_on", "time": 17, "note": 62, "velocity": 115, "channel": 0}, {"type": "note_off", "time": 164, "note": 62, "velocity": 115, "channel": 0}, {"type": "note_on", "time": 0, "note": 59, "velocity": 108, "channel": 0}, {"type": "note_off", "time": 74, "note": 59, "velocity": 108, "channel": 0}, {"type": "note_on", "time": 2, "note": 61, "velocity": 113, "channel": 0}, {"type": "note_off", "time": 209, "note": 61, "velocity": 113, "channel": 0}, {"type": "note_on", "time": 11, "note": 59, "velocity": 111, "channel": 0}, {"type": "note_off", "time": 161, "note": 59, "velocity": 111, "channel": 0}, {"type": "note_on", "time": 44, "note": 57, "velocity": 103, "channel": 0}, {"type": "note_off", "time": 934, "note": 57, "velocity": 103, "channel": 0}, {"type": "note_on", "time": 32, "note": 59, "velocity": 103, "channel": 0}, {"type": "note_off", "time": 134, "note": 59, "velocity": 103, "channel": 0}, {"type": "note_on", "time": 5, "note": 60, "velocity": 95, "channel": 0}, {"type": "note_off", "time": 104, "note": 60, "velocity": 95, "channel": 0}, {"type": "note_on", "time": 15, "note": 61, "velocity": 103, "channel": 0}, {"type": "note_off", "time": 98, "note": 61, "velocity": 103, "channel": 0}, {"type": "note_on", "time": 31, "note": 64, "velocity": 112, "channel": 0}, {"type": "note_off", "time": 119, "note": 64, "velocity": 112, "channel": 0}, {"type": "note_on", "time": 12, "note": 68, "velocity": 119, "channel": 0}, {"type": "note_off", "time": 259, "note": 68, "velocity": 119, "channel": 0}, {"type": "note_on", "time": 26, "note": 66, "velocity": 115, "channel": 0}, {"type": "note_off", "time": 152, "note": 66, "velocity": 115, "channel": 0}, {"type": "note_on", "time": 17, "note": 64, "velocity": 119, "channel": 0}, {"type": "note_off", "time": 221, "note": 64, "velocity": 119, "channel": 0}, {"type": "note_on", "time": 0, "note": 62, "velocity": 116, "channel": 0}, {"type": "note_off", "time": 168, "note": 62, "velocity": 116, "channel": 0}, {"type": "note_on", "time": 16, "note": 61, "velocity": 109, "channel": 0}, {"type": "note_off", "time": 165, "note": 61, "velocity": 109, "channel": 0}, {"type": "note_on", "time": 65, "note": 59, "velocity": 105, "channel": 0}, {"type": "note_off", "time": 174, "note": 59, "velocity": 105, "channel": 0}, {"type": "note_on", "time": 16, "note": 57, "velocity": 105, "channel": 0}, {"type": "note_off", "time": 130, "note": 57, "velocity": 105, "channel": 0}, {"type": "note_on", "time": 4, "note": 56, "velocity": 107, "channel": 0}, {"type": "note_off", "time": 193, "note": 56, "velocity": 107, "channel": 0}, {"type": "note_on", "time": 104, "note": 54, "velocity": 104, "channel": 0}, {"type": "note_off", "time": 182, "note": 54, "velocity": 104, "channel": 0}, {"type": "note_on", "time": 12, "note": 52, "velocity": 104, "channel": 0}, {"type": "note_off", "time": 161, "note": 52, "velocity": 104, "channel": 0}, {"type": "note_on", "time": 58, "note": 49, "velocity": 102, "channel": 0}, {"type": "note_off", "time": 167, "note": 49, "velocity": 102, "channel": 0}, {"type": "note_on", "time": 134, "note": 45, "velocity": 113, "channel": 0}, {"type": "note_off", "time": 984, "note": 45, "velocity": 113, "channel": 0}, {"type": "note_on", "time": 1608, "note": 68, "velocity": 114, "channel": 0}, {"type": "note_off", "time": 178, "note": 68, "velocity": 114, "channel": 0}, {"type": "note_on", "time": 12, "note": 66, "velocity": 112, "channel": 0}, {"type": "note_off", "time": 126, "note": 66, "velocity": 112, "channel": 0}, {"type": "note_on", "time": 2, "note": 64, "velocity": 121, "channel": 0}, {"type": "note_off", "time": 256, "note": 64, "velocity": 121, "channel": 0}, {"type": "note_on", "time": 4, "note": 62, "velocity": 116, "channel": 0}, {"type": "note_off", "time": 161, "note": 62, "velocity": 116, "channel": 0}, {"type": "note_on", "time": 10, "note": 61, "velocity": 116, "channel": 0}, {"type": "note_off", "time": 132, "note": 61, "velocity": 116, "channel": 0}, {"type": "note_on", "time": 8, "note": 59, "velocity": 112, "channel": 0}, {"type": "note_off", "time": 325, "note": 59, "velocity": 112, "channel": 0}, {"type": "note_on", "time": 0, "note": 61, "velocity": 112, "channel": 0}, {"type": "note_off", "time": 195, "note": 61, "velocity": 112, "channel": 0}, {"type": "note_on", "time": 14, "note": 64, "velocity": 118, "channel": 0}, {"type": "note_off", "time": 220, "note": 64, "velocity": 118, "channel": 0}, {"type": "note_on", "time": 62, "note": 68, "velocity": 119, "channel": 0}, {"type": "note_off", "time": 243, "note": 68, "velocity": 119, "channel": 0}, {"type": "note_on", "time": 25, "note": 66, "velocity": 112, "channel": 0}, {"type": "note_off", "time": 65, "note": 66, "velocity": 112, "channel": 0}, {"type": "note_on", "time": 0, "note": 64, "velocity": 119, "channel": 0}, {"type": "note_on", "time": 222, "note": 62, "velocity": 116, "channel": 0}, {"type": "note_off", "time": 0, "note": 64, "velocity": 119, "channel": 0}, {"type": "note_off", "time": 191, "note": 62, "velocity": 116, "channel": 0}, {"type": "note_on", "time": 2, "note": 61, "velocity": 112, "channel": 0}, {"type": "note_off", "time": 144, "note": 61, "velocity": 112, "channel": 0}, {"type": "note_on", "time": 20, "note": 59, "velocity": 109, "channel": 0}, {"type": "note_on", "time": 149, "note": 57, "velocity": 108, "channel": 0}, {"type": "note_off", "time": 0, "note": 59, "velocity": 109, "channel": 0}, {"type": "note_off", "time": 188, "note": 57, "velocity": 108, "channel": 0}, {"type": "note_on", "time": 1373, "note": 70, "velocity": 118, "channel": 0}, {"type": "note_off", "time": 117, "note": 70, "velocity": 118, "channel": 0}, {"type": "note_on", "time": 8, "note": 71, "velocity": 123, "channel": 0}, {"type": "note_off", "time": 766, "note": 71, "velocity": 123, "channel": 0}, {"type": "note_on", "time": 0, "note": 70, "velocity": 115, "channel": 0}, {"type": "note_off", "time": 176, "note": 70, "velocity": 115, "channel": 0}, {"type": "note_on", "time": 2, "note": 69, "velocity": 117, "channel": 0}, {"type": "note_off", "time": 155, "note": 69, "velocity": 117, "channel": 0}, {"type": "note_on", "time": 8, "note": 68, "velocity": 117, "channel": 0}, {"type": "note_off", "time": 201, "note": 68, "velocity": 117, "channel": 0}, {"type": "note_on", "time": 12, "note": 66, "velocity": 112, "channel": 0}, {"type": "note_off", "time": 140, "note": 66, "velocity": 112, "channel": 0}, {"type": "note_on", "time": 44, "note": 65, "velocity": 115, "channel": 0}, {"type": "note_off", "time": 252, "note": 65, "velocity": 115, "channel": 0}, {"type": "note_on", "time": 12, "note": 62, "velocity": 114, "channel": 0}, {"type": "note_off", "time": 172, "note": 62, "velocity": 114, "channel": 0}, {"type": "note_on", "time": 48, "note": 61, "velocity": 110, "channel": 0}, {"type": "note_off", "time": 170, "note": 61, "velocity": 110, "channel": 0}, {"type": "note_on", "time": 0, "note": 59, "velocity": 111, "channel": 0}, {"type": "note_off", "time": 180, "note": 59, "velocity": 111, "channel": 0}, {"type": "note_on", "time": 29, "note": 58, "velocity": 107, "channel": 0}, {"type": "note_off", "time": 153, "note": 58, "velocity": 107, "channel": 0}, {"type": "note_on", "time": 31, "note": 57, "velocity": 105, "channel": 0}, {"type": "note_off", "time": 172, "note": 57, "velocity": 105, "channel": 0}, {"type": "note_on", "time": 29, "note": 56, "velocity": 106, "channel": 0}, {"type": "note_off", "time": 163, "note": 56, "velocity": 106, "channel": 0}, {"type": "note_on", "time": 63, "note": 55, "velocity": 113, "channel": 0}, {"type": "note_off", "time": 161, "note": 55, "velocity": 113, "channel": 0}, {"type": "note_on", "time": 68, "note": 54, "velocity": 102, "channel": 0}, {"type": "note_off", "time": 407, "note": 54, "velocity": 102, "channel": 0}, {"type": "note_on", "time": 2921, "note": 52, "velocity": 114, "channel": 0}, {"type": "note_off", "time": 226, "note": 52, "velocity": 114, "channel": 0}, {"type": "note_on", "time": 18, "note": 53, "velocity": 111, "channel": 0}, {"type": "note_off", "time": 180, "note": 53, "velocity": 111, "channel": 0}, {"type": "note_on", "time": 18, "note": 55, "velocity": 103, "channel": 0}, {"type": "note_off", "time": 184, "note": 55, "velocity": 103, "channel": 0}, {"type": "note_on", "time": 4, "note": 57, "velocity": 108, "channel": 0}, {"type": "note_off", "time": 168, "note": 57, "velocity": 108, "channel": 0}, {"type": "note_on", "time": 42, "note": 59, "velocity": 107, "channel": 0}, {"type": "note_off", "time": 157, "note": 59, "velocity": 107, "channel": 0}, {"type": "note_on", "time": 73, "note": 60, "velocity": 107, "channel": 0}, {"type": "note_off", "time": 191, "note": 60, "velocity": 107, "channel": 0}, {"type": "note_on", "time": 56, "note": 62, "velocity": 112, "channel": 0}, {"type": "note_on", "time": 146, "note": 64, "velocity": 116, "channel": 0}, {"type": "note_off", "time": 0, "note": 62, "velocity": 112, "channel": 0}, {"type": "note_off", "time": 151, "note": 64, "velocity": 116, "channel": 0}, {"type": "note_on", "time": 25, "note": 66, "velocity": 118, "channel": 0}, {"type": "note_off", "time": 144, "note": 66, "velocity": 118, "channel": 0}, {"type": "note_on", "time": 14, "note": 69, "velocity": 116, "channel": 0}, {"type": "note_off", "time": 285, "note": 69, "velocity": 116, "channel": 0}, {"type": "note_on", "time": 6, "note": 68, "velocity": 114, "channel": 0}, {"type": "note_off", "time": 92, "note": 68, "velocity": 114, "channel": 0}, {"type": "note_on", "time": 12, "note": 67, "velocity": 113, "channel": 0}, {"type": "note_off", "time": 210, "note": 67, "velocity": 113, "channel": 0}, {"type": "note_on", "time": 39, "note": 66, "velocity": 109, "channel": 0}, {"type": "note_off", "time": 170, "note": 66, "velocity": 109, "channel": 0}, {"type": "note_on", "time": 18, "note": 65, "velocity": 113, "channel": 0}, {"type": "note_off", "time": 199, "note": 65, "velocity": 113, "channel": 0}, {"type": "note_on", "time": 58, "note": 64, "velocity": 119, "channel": 0}, {"type": "note_off", "time": 203, "note": 64, "velocity": 119, "channel": 0}, {"type": "note_on", "time": 16, "note": 62, "velocity": 112, "channel": 0}, {"type": "note_off", "time": 178, "note": 62, "velocity": 112, "channel": 0}, {"type": "note_on", "time": 37, "note": 60, "velocity": 101, "channel": 0}, {"type": "note_off", "time": 119, "note": 60, "velocity": 101, "channel": 0}, {"type": "note_on", "time": 12, "note": 59, "velocity": 107, "channel": 0}, {"type": "note_off", "time": 149, "note": 59, "velocity": 107, "channel": 0}, {"type": "note_on", "time": 2, "note": 60, "velocity": 102, "channel": 0}, {"type": "note_off", "time": 241, "note": 60, "velocity": 102, "channel": 0}, {"type": "note_on", "time": 0, "note": 62, "velocity": 102, "channel": 0}, {"type": "note_off", "time": 144, "note": 62, "velocity": 102, "channel": 0}, {"type": "note_on", "time": 0, "note": 64, "velocity": 103, "channel": 0}, {"type": "note_off", "time": 170, "note": 64, "velocity": 103, "channel": 0}, {"type": "note_on", "time": 14, "note": 65, "velocity": 108, "channel": 0}, {"type": "note_off", "time": 231, "note": 65, "velocity": 108, "channel": 0}, {"type": "note_on", "time": 0, "note": 62, "velocity": 106, "channel": 0}, {"type": "note_off", "time": 197, "note": 62, "velocity": 106, "channel": 0}, {"type": "note_on", "time": 23, "note": 57, "velocity": 93, "channel": 0}, {"type": "note_on", "time": 128, "note": 55, "velocity": 105, "channel": 0}, {"type": "note_off", "time": 0, "note": 57, "velocity": 93, "channel": 0}, {"type": "note_off", "time": 174, "note": 55, "velocity": 105, "channel": 0}, {"type": "note_on", "time": 10, "note": 53, "velocity": 101, "channel": 0}, {"type": "note_off", "time": 138, "note": 53, "velocity": 101, "channel": 0}, {"type": "note_on", "time": 0, "note": 60, "velocity": 103, "channel": 0}, {"type": "note_off", "time": 447, "note": 60, "velocity": 103, "channel": 0}, {"type": "note_on", "time": 1089, "note": 60, "velocity": 111, "channel": 0}, {"type": "note_off", "time": 105, "note": 60, "velocity": 111, "channel": 0}, {"type": "note_on", "time": 71, "note": 64, "velocity": 111, "channel": 0}, {"type": "note_off", "time": 168, "note": 64, "velocity": 111, "channel": 0}, {"type": "note_on", "time": 10, "note": 62, "velocity": 108, "channel": 0}, {"type": "note_off", "time": 107, "note": 62, "velocity": 108, "channel": 0}, {"type": "note_on", "time": 37, "note": 62, "velocity": 109, "channel": 0}, {"type": "note_off", "time": 90, "note": 62, "velocity": 109, "channel": 0}, {"type": "note_on", "time": 0, "note": 60, "velocity": 107, "channel": 0}, {"type": "note_off", "time": 136, "note": 60, "velocity": 107, "channel": 0}, {"type": "note_on", "time": 12, "note": 59, "velocity": 109, "channel": 0}, {"type": "note_off", "time": 210, "note": 59, "velocity": 109, "channel": 0}, {"type": "note_on", "time": 52, "note": 60, "velocity": 95, "channel": 0}, {"type": "note_off", "time": 176, "note": 60, "velocity": 95, "channel": 0}, {"type": "note_on", "time": 29, "note": 62, "velocity": 107, "channel": 0}, {"type": "note_off", "time": 193, "note": 62, "velocity": 107, "channel": 0}, {"type": "note_on", "time": 4, "note": 64, "velocity": 107, "channel": 0}, {"type": "note_off", "time": 214, "note": 64, "velocity": 107, "channel": 0}, {"type": "note_on", "time": 0, "note": 67, "velocity": 110, "channel": 0}, {"type": "note_off", "time": 268, "note": 67, "velocity": 110, "channel": 0}, {"type": "note_on", "time": 71, "note": 64, "velocity": 99, "channel": 0}, {"type": "note_off", "time": 134, "note": 64, "velocity": 99, "channel": 0}, {"type": "note_on", "time": 0, "note": 65, "velocity": 99, "channel": 0}, {"type": "note_off", "time": 151, "note": 65, "velocity": 99, "channel": 0}, {"type": "note_on", "time": 33, "note": 67, "velocity": 111, "channel": 0}, {"type": "note_off", "time": 205, "note": 67, "velocity": 111, "channel": 0}, {"type": "note_on", "time": 18, "note": 66, "velocity": 110, "channel": 0}, {"type": "note_off", "time": 222, "note": 66, "velocity": 110, "channel": 0}, {"type": "note_on", "time": 35, "note": 62, "velocity": 110, "channel": 0}, {"type": "note_off", "time": 226, "note": 62, "velocity": 110, "channel": 0}, {"type": "note_on", "time": 10, "note": 59, "velocity": 101, "channel": 0}, {"type": "note_off", "time": 115, "note": 59, "velocity": 101, "channel": 0}, {"type": "note_on", "time": 44, "note": 55, "velocity": 106, "channel": 0}, {"type": "note_off", "time": 121, "note": 55, "velocity": 106, "channel": 0}, {"type": "note_on", "time": 88, "note": 63, "velocity": 115, "channel": 0}, {"type": "note_off", "time": 340, "note": 63, "velocity": 115, "channel": 0}, {"type": "note_on", "time": 12, "note": 61, "velocity": 101, "channel": 0}, {"type": "note_off", "time": 117, "note": 61, "velocity": 101, "channel": 0}, {"type": "note_on", "time": 16, "note": 59, "velocity": 101, "channel": 0}, {"type": "note_off", "time": 163, "note": 59, "velocity": 101, "channel": 0}, {"type": "note_on", "time": 90, "note": 56, "velocity": 102, "channel": 0}, {"type": "note_off", "time": 123, "note": 56, "velocity": 102, "channel": 0}, {"type": "note_on", "time": 2, "note": 59, "velocity": 102, "channel": 0}, {"type": "note_off", "time": 420, "note": 59, "velocity": 102, "channel": 0}, {"type": "note_on", "time": 1350, "note": 52, "velocity": 97, "channel": 0}, {"type": "note_off", "time": 136, "note": 52, "velocity": 97, "channel": 0}, {"type": "note_on", "time": 14, "note": 54, "velocity": 100, "channel": 0}, {"type": "note_off", "time": 157, "note": 54, "velocity": 100, "channel": 0}, {"type": "note_on", "time": 46, "note": 55, "velocity": 101, "channel": 0}, {"type": "note_off", "time": 193, "note": 55, "velocity": 101, "channel": 0}, {"type": "note_on", "time": 50, "note": 57, "velocity": 104, "channel": 0}, {"type": "note_off", "time": 149, "note": 57, "velocity": 104, "channel": 0}, {"type": "note_on", "time": 23, "note": 59, "velocity": 100, "channel": 0}, {"type": "note_off", "time": 147, "note": 59, "velocity": 100, "channel": 0}, {"type": "note_on", "time": 67, "note": 61, "velocity": 104, "channel": 0}, {"type": "note_off", "time": 153, "note": 61, "velocity": 104, "channel": 0}, {"type": "note_on", "time": 0, "note": 62, "velocity": 108, "channel": 0}, {"type": "note_off", "time": 136, "note": 62, "velocity": 108, "channel": 0}, {"type": "note_on", "time": 0, "note": 64, "velocity": 108, "channel": 0}, {"type": "note_off", "time": 144, "note": 64, "velocity": 108, "channel": 0}, {"type": "note_on", "time": 81, "note": 66, "velocity": 111, "channel": 0}, {"type": "note_off", "time": 226, "note": 66, "velocity": 111, "channel": 0}, {"type": "note_on", "time": 31, "note": 62, "velocity": 109, "channel": 0}, {"type": "note_off", "time": 151, "note": 62, "velocity": 109, "channel": 0}, {"type": "note_on", "time": 39, "note": 59, "velocity": 96, "channel": 0}, {"type": "note_off", "time": 130, "note": 59, "velocity": 96, "channel": 0}, {"type": "note_on", "time": 71, "note": 55, "velocity": 109, "channel": 0}, {"type": "note_off", "time": 147, "note": 55, "velocity": 109, "channel": 0}, {"type": "note_on", "time": 35, "note": 64, "velocity": 114, "channel": 0}, {"type": "note_off", "time": 222, "note": 64, "velocity": 114, "channel": 0}, {"type": "note_on", "time": 0, "note": 61, "velocity": 105, "channel": 0}, {"type": "note_off", "time": 163, "note": 61, "velocity": 105, "channel": 0}, {"type": "note_on", "time": 29, "note": 57, "velocity": 103, "channel": 0}, {"type": "note_off", "time": 174, "note": 57, "velocity": 103, "channel": 0}, {"type": "note_on", "time": 0, "note": 54, "velocity": 103, "channel": 0}, {"type": "note_off", "time": 182, "note": 54, "velocity": 103, "channel": 0}, {"type": "note_on", "time": 10, "note": 57, "velocity": 107, "channel": 0}, {"type": "note_off", "time": 193, "note": 57, "velocity": 107, "channel": 0}, {"type": "note_on", "time": 88, "note": 53, "velocity": 106, "channel": 0}, {"type": "note_off", "time": 193, "note": 53, "velocity": 106, "channel": 0}, {"type": "note_on", "time": 2, "note": 55, "velocity": 106, "channel": 0}, {"type": "note_off", "time": 184, "note": 55, "velocity": 106, "channel": 0}, {"type": "note_on", "time": 65, "note": 57, "velocity": 114, "channel": 0}, {"type": "note_off", "time": 84, "note": 57, "velocity": 114, "channel": 0}, {"type": "note_on", "time": 37, "note": 59, "velocity": 102, "channel": 0}, {"type": "note_off", "time": 193, "note": 59, "velocity": 102, "channel": 0}, {"type": "note_on", "time": 54, "note": 60, "velocity": 106, "channel": 0}, {"type": "note_off", "time": 218, "note": 60, "velocity": 106, "channel": 0}, {"type": "note_on", "time": 46, "note": 63, "velocity": 106, "channel": 0}, {"type": "note_off", "time": 86, "note": 63, "velocity": 106, "channel": 0}, {"type": "note_on", "time": 63, "note": 65, "velocity": 109, "channel": 0}, {"type": "note_off", "time": 132, "note": 65, "velocity": 109, "channel": 0}, {"type": "note_on", "time": 2, "note": 69, "velocity": 114, "channel": 0}, {"type": "note_off", "time": 203, "note": 69, "velocity": 114, "channel": 0}, {"type": "note_on", "time": 14, "note": 68, "velocity": 109, "channel": 0}, {"type": "note_off", "time": 191, "note": 68, "velocity": 109, "channel": 0}, {"type": "note_on", "time": 8, "note": 67, "velocity": 112, "channel": 0}, {"type": "note_off", "time": 210, "note": 67, "velocity": 112, "channel": 0}, {"type": "note_on", "time": 27, "note": 66, "velocity": 105, "channel": 0}, {"type": "note_off", "time": 172, "note": 66, "velocity": 105, "channel": 0}, {"type": "note_on", "time": 21, "note": 65, "velocity": 109, "channel": 0}, {"type": "note_off", "time": 182, "note": 65, "velocity": 109, "channel": 0}, {"type": "note_on", "time": 35, "note": 64, "velocity": 105, "channel": 0}, {"type": "note_off", "time": 205, "note": 64, "velocity": 105, "channel": 0}, {"type": "note_on", "time": 16, "note": 62, "velocity": 108, "channel": 0}, {"type": "note_off", "time": 121, "note": 62, "velocity": 108, "channel": 0}, {"type": "note_on", "time": 48, "note": 60, "velocity": 101, "channel": 0}, {"type": "note_off", "time": 201, "note": 60, "velocity": 101, "channel": 0}, {"type": "note_on", "time": 20, "note": 59, "velocity": 102, "channel": 0}, {"type": "note_off", "time": 226, "note": 59, "velocity": 102, "channel": 0}, {"type": "note_on", "time": 44, "note": 61, "velocity": 102, "channel": 0}, {"type": "note_on", "time": 180, "note": 62, "velocity": 109, "channel": 0}, {"type": "note_off", "time": 0, "note": 61, "velocity": 102, "channel": 0}, {"type": "note_off", "time": 174, "note": 62, "velocity": 109, "channel": 0}, {"type": "note_on", "time": 6, "note": 63, "velocity": 105, "channel": 0}, {"type": "note_off", "time": 180, "note": 63, "velocity": 105, "channel": 0}, {"type": "note_on", "time": 6, "note": 66, "velocity": 112, "channel": 0}, {"type": "note_off", "time": 220, "note": 66, "velocity": 112, "channel": 0}, {"type": "note_on", "time": 31, "note": 63, "velocity": 108, "channel": 0}, {"type": "note_off", "time": 147, "note": 63, "velocity": 108, "channel": 0}, {"type": "note_on", "time": 37, "note": 59, "velocity": 103, "channel": 0}, {"type": "note_off", "time": 128, "note": 59, "velocity": 103, "channel": 0}, {"type": "note_on", "time": 8, "note": 56, "velocity": 104, "channel": 0}, {"type": "note_off", "time": 212, "note": 56, "velocity": 104, "channel": 0}, {"type": "note_on", "time": 4, "note": 53, "velocity": 101, "channel": 0}, {"type": "note_off", "time": 81, "note": 53, "velocity": 101, "channel": 0}, {"type": "note_on", "time": 8, "note": 58, "velocity": 105, "channel": 0}, {"type": "note_off", "time": 126, "note": 58, "velocity": 105, "channel": 0}, {"type": "note_on", "time": 71, "note": 56, "velocity": 104, "channel": 0}, {"type": "note_off", "time": 178, "note": 56, "velocity": 104, "channel": 0}, {"type": "note_on", "time": 31, "note": 55, "velocity": 101, "channel": 0}, {"type": "note_off", "time": 151, "note": 55, "velocity": 101, "channel": 0}, {"type": "note_on", "time": 71, "note": 58, "velocity": 103, "channel": 0}, {"type": "note_off", "time": 130, "note": 58, "velocity": 103, "channel": 0}, {"type": "note_on", "time": 37, "note": 56, "velocity": 112, "channel": 0}, {"type": "note_off", "time": 123, "note": 56, "velocity": 112, "channel": 0}, {"type": "note_on", "time": 10, "note": 55, "velocity": 110, "channel": 0}, {"type": "note_off", "time": 94, "note": 55, "velocity": 110, "channel": 0}, {"type": "note_on", "time": 31, "note": 54, "velocity": 111, "channel": 0}, {"type": "note_off", "time": 155, "note": 54, "velocity": 111, "channel": 0}, {"type": "note_on", "time": 23, "note": 53, "velocity": 110, "channel": 0}, {"type": "note_off", "time": 88, "note": 53, "velocity": 110, "channel": 0}, {"type": "note_on", "time": 21, "note": 52, "velocity": 111, "channel": 0}, {"type": "note_off", "time": 113, "note": 52, "velocity": 111, "channel": 0}, {"type": "note_on", "time": 39, "note": 49, "velocity": 107, "channel": 0}, {"type": "note_off", "time": 144, "note": 49, "velocity": 107, "channel": 0}, {"type": "note_on", "time": 17, "note": 47, "velocity": 106, "channel": 0}, {"type": "note_off", "time": 808, "note": 47, "velocity": 106, "channel": 0}, {"type": "note_on", "time": 3855, "note": 69, "velocity": 122, "channel": 0}, {"type": "note_off", "time": 180, "note": 69, "velocity": 122, "channel": 0}, {"type": "note_on", "time": 0, "note": 70, "velocity": 123, "channel": 0}, {"type": "note_on", "time": 58, "note": 71, "velocity": 125, "channel": 0}, {"type": "note_off", "time": 0, "note": 70, "velocity": 123, "channel": 0}, {"type": "note_off", "time": 1488, "note": 71, "velocity": 125, "channel": 0}, {"type": "note_on", "time": 25, "note": 68, "velocity": 121, "channel": 0}, {"type": "note_off", "time": 287, "note": 68, "velocity": 121, "channel": 0}, {"type": "note_on", "time": 165, "note": 70, "velocity": 113, "channel": 0}, {"type": "note_off", "time": 127, "note": 70, "velocity": 113, "channel": 0}, {"type": "note_on", "time": 0, "note": 72, "velocity": 117, "channel": 0}, {"type": "note_off", "time": 113, "note": 72, "velocity": 117, "channel": 0}, {"type": "note_on", "time": 8, "note": 73, "velocity": 110, "channel": 0}, {"type": "note_off", "time": 4187, "note": 73, "velocity": 110, "channel": 0}, {"type": "note_on", "time": 474, "note": 66, "velocity": 93, "channel": 0}, {"type": "note_off", "time": 343, "note": 66, "velocity": 93, "channel": 0}, {"type": "note_on", "time": 259, "note": 66, "velocity": 107, "channel": 0}, {"type": "note_off", "time": 224, "note": 66, "velocity": 107, "channel": 0}, {"type": "note_on", "time": 331, "note": 75, "velocity": 123, "channel": 0}, {"type": "note_off", "time": 498, "note": 75, "velocity": 123, "channel": 0}, {"type": "note_on", "time": 149, "note": 75, "velocity": 127, "channel": 0}, {"type": "note_off", "time": 1206, "note": 75, "velocity": 127, "channel": 0}, {"type": "note_on", "time": 38, "note": 68, "velocity": 111, "channel": 0}, {"type": "note_off", "time": 415, "note": 68, "velocity": 111, "channel": 0}, {"type": "note_on", "time": 38, "note": 73, "velocity": 115, "channel": 0}, {"type": "note_off", "time": 552, "note": 73, "velocity": 115, "channel": 0}, {"type": "note_on", "time": 3431, "note": 76, "velocity": 104, "channel": 0}, {"type": "note_off", "time": 385, "note": 76, "velocity": 104, "channel": 0}, {"type": "note_on", "time": 244, "note": 76, "velocity": 119, "channel": 0}, {"type": "note_off", "time": 1299, "note": 76, "velocity": 119, "channel": 0}, {"type": "note_on", "time": 152, "note": 67, "velocity": 118, "channel": 0}, {"type": "note_off", "time": 570, "note": 67, "velocity": 118, "channel": 0}, {"type": "note_on", "time": 14, "note": 70, "velocity": 112, "channel": 0}, {"type": "note_off", "time": 59, "note": 70, "velocity": 112, "channel": 0}, {"type": "note_on", "time": 2, "note": 72, "velocity": 111, "channel": 0}, {"type": "note_off", "time": 71, "note": 72, "velocity": 111, "channel": 0}, {"type": "note_on", "time": 41, "note": 74, "velocity": 103, "channel": 0}, {"type": "note_off", "time": 1000, "note": 74, "velocity": 103, "channel": 0}, {"type": "note_on", "time": 101, "note": 65, "velocity": 116, "channel": 0}, {"type": "note_off", "time": 319, "note": 65, "velocity": 116, "channel": 0}, {"type": "note_on", "time": 17, "note": 67, "velocity": 115, "channel": 0}, {"type": "note_off", "time": 137, "note": 67, "velocity": 115, "channel": 0}, {"type": "note_on", "time": 0, "note": 71, "velocity": 112, "channel": 0}, {"type": "note_off", "time": 77, "note": 71, "velocity": 112, "channel": 0}, {"type": "note_on", "time": 11, "note": 72, "velocity": 120, "channel": 0}, {"type": "note_off", "time": 232, "note": 72, "velocity": 120, "channel": 0}, {"type": "note_on", "time": 170, "note": 64, "velocity": 114, "channel": 0}, {"type": "note_off", "time": 316, "note": 64, "velocity": 114, "channel": 0}, {"type": "note_on", "time": 62, "note": 71, "velocity": 118, "channel": 0}, {"type": "note_off", "time": 301, "note": 71, "velocity": 118, "channel": 0}, {"type": "note_on", "time": 143, "note": 64, "velocity": 106, "channel": 0}, {"type": "note_off", "time": 164, "note": 64, "velocity": 106, "channel": 0}, {"type": "note_on", "time": 0, "note": 69, "velocity": 115, "channel": 0}, {"type": "note_off", "time": 212, "note": 69, "velocity": 115, "channel": 0}, {"type": "note_on", "time": 11, "note": 66, "velocity": 105, "channel": 0}, {"type": "note_off", "time": 194, "note": 66, "velocity": 105, "channel": 0}, {"type": "note_on", "time": 14, "note": 67, "velocity": 114, "channel": 0}, {"type": "note_off", "time": 256, "note": 67, "velocity": 114, "channel": 0}, {"type": "note_on", "time": 177, "note": 59, "velocity": 107, "channel": 0}, {"type": "note_off", "time": 142, "note": 59, "velocity": 107, "channel": 0}, {"type": "note_on", "time": 52, "note": 64, "velocity": 112, "channel": 0}, {"type": "note_off", "time": 197, "note": 64, "velocity": 112, "channel": 0}, {"type": "note_on", "time": 119, "note": 57, "velocity": 106, "channel": 0}, {"type": "note_off", "time": 163, "note": 57, "velocity": 106, "channel": 0}, {"type": "note_on", "time": 0, "note": 62, "velocity": 114, "channel": 0}, {"type": "note_off", "time": 155, "note": 62, "velocity": 114, "channel": 0}, {"type": "note_on", "time": 178, "note": 54, "velocity": 110, "channel": 0}, {"type": "note_on", "time": 174, "note": 60, "velocity": 101, "channel": 0}, {"type": "note_off", "time": 0, "note": 54, "velocity": 110, "channel": 0}, {"type": "note_off", "time": 188, "note": 60, "velocity": 101, "channel": 0}, {"type": "note_on", "time": 262, "note": 54, "velocity": 109, "channel": 0}, {"type": "note_off", "time": 380, "note": 54, "velocity": 109, "channel": 0}, {"type": "note_on", "time": 2986, "note": 64, "velocity": 111, "channel": 0}, {"type": "note_off", "time": 212, "note": 64, "velocity": 111, "channel": 0}, {"type": "note_on", "time": 14, "note": 66, "velocity": 114, "channel": 0}, {"type": "note_off", "time": 193, "note": 66, "velocity": 114, "channel": 0}, {"type": "note_on", "time": 8, "note": 67, "velocity": 110, "channel": 0}, {"type": "note_off", "time": 193, "note": 67, "velocity": 110, "channel": 0}, {"type": "note_on", "time": 0, "note": 69, "velocity": 112, "channel": 0}, {"type": "note_off", "time": 214, "note": 69, "velocity": 112, "channel": 0}, {"type": "note_on", "time": 10, "note": 71, "velocity": 108, "channel": 0}, {"type": "note_off", "time": 136, "note": 71, "velocity": 108, "channel": 0}, {"type": "note_on", "time": 130, "note": 74, "velocity": 107, "channel": 0}, {"type": "note_off", "time": 144, "note": 74, "velocity": 107, "channel": 0}, {"type": "note_on", "time": 12, "note": 73, "velocity": 108, "channel": 0}, {"type": "note_off", "time": 205, "note": 73, "velocity": 108, "channel": 0}, {"type": "note_on", "time": 16, "note": 71, "velocity": 110, "channel": 0}, {"type": "note_off", "time": 159, "note": 71, "velocity": 110, "channel": 0}, {"type": "note_on", "time": 79, "note": 69, "velocity": 117, "channel": 0}, {"type": "note_off", "time": 201, "note": 69, "velocity": 117, "channel": 0}, {"type": "note_on", "time": 0, "note": 67, "velocity": 115, "channel": 0}, {"type": "note_off", "time": 199, "note": 67, "velocity": 115, "channel": 0}, {"type": "note_on", "time": 2, "note": 66, "velocity": 110, "channel": 0}, {"type": "note_off", "time": 184, "note": 66, "velocity": 110, "channel": 0}, {"type": "note_on", "time": 29, "note": 65, "velocity": 118, "channel": 0}, {"type": "note_off", "time": 228, "note": 65, "velocity": 118, "channel": 0}, {"type": "note_on", "time": 2, "note": 64, "velocity": 115, "channel": 0}, {"type": "note_off", "time": 73, "note": 64, "velocity": 115, "channel": 0}, {"type": "note_on", "time": 44, "note": 62, "velocity": 114, "channel": 0}, {"type": "note_off", "time": 201, "note": 62, "velocity": 114, "channel": 0}, {"type": "note_on", "time": 18, "note": 60, "velocity": 106, "channel": 0}, {"type": "note_off", "time": 140, "note": 60, "velocity": 106, "channel": 0}, {"type": "note_on", "time": 12, "note": 56, "velocity": 101, "channel": 0}, {"type": "note_off", "time": 151, "note": 56, "velocity": 101, "channel": 0}, {"type": "note_on", "time": 71, "note": 53, "velocity": 115, "channel": 0}, {"type": "note_off", "time": 102, "note": 53, "velocity": 115, "channel": 0}, {"type": "note_on", "time": 20, "note": 57, "velocity": 111, "channel": 0}, {"type": "note_off", "time": 151, "note": 57, "velocity": 111, "channel": 0}, {"type": "note_on", "time": 25, "note": 56, "velocity": 109, "channel": 0}, {"type": "note_off", "time": 233, "note": 56, "velocity": 109, "channel": 0}, {"type": "note_on", "time": 1018, "note": 62, "velocity": 108, "channel": 0}, {"type": "note_off", "time": 86, "note": 62, "velocity": 108, "channel": 0}, {"type": "note_on", "time": 25, "note": 67, "velocity": 103, "channel": 0}, {"type": "note_off", "time": 84, "note": 67, "velocity": 103, "channel": 0}, {"type": "note_on", "time": 0, "note": 70, "velocity": 109, "channel": 0}, {"type": "note_off", "time": 86, "note": 70, "velocity": 109, "channel": 0}, {"type": "note_on", "time": 14, "note": 69, "velocity": 118, "channel": 0}, {"type": "note_off", "time": 105, "note": 69, "velocity": 118, "channel": 0}, {"type": "note_on", "time": 27, "note": 68, "velocity": 116, "channel": 0}, {"type": "note_off", "time": 176, "note": 68, "velocity": 116, "channel": 0}, {"type": "note_on", "time": 10, "note": 67, "velocity": 115, "channel": 0}, {"type": "note_off", "time": 153, "note": 67, "velocity": 115, "channel": 0}, {"type": "note_on", "time": 56, "note": 67, "velocity": 114, "channel": 0}, {"type": "note_off", "time": 102, "note": 67, "velocity": 114, "channel": 0}, {"type": "note_on", "time": 6, "note": 66, "velocity": 116, "channel": 0}, {"type": "note_off", "time": 130, "note": 66, "velocity": 116, "channel": 0}, {"type": "note_on", "time": 12, "note": 65, "velocity": 114, "channel": 0}, {"type": "note_off", "time": 128, "note": 65, "velocity": 114, "channel": 0}, {"type": "note_on", "time": 37, "note": 64, "velocity": 115, "channel": 0}, {"type": "note_off", "time": 172, "note": 64, "velocity": 115, "channel": 0}, {"type": "note_on", "time": 16, "note": 65, "velocity": 115, "channel": 0}, {"type": "note_off", "time": 90, "note": 65, "velocity": 115, "channel": 0}, {"type": "note_on", "time": 0, "note": 63, "velocity": 113, "channel": 0}, {"type": "note_off", "time": 92, "note": 63, "velocity": 113, "channel": 0}, {"type": "note_on", "time": 35, "note": 62, "velocity": 112, "channel": 0}, {"type": "note_off", "time": 235, "note": 62, "velocity": 112, "channel": 0}, {"type": "note_on", "time": 46, "note": 61, "velocity": 110, "channel": 0}, {"type": "note_off", "time": 128, "note": 61, "velocity": 110, "channel": 0}, {"type": "note_on", "time": 18, "note": 60, "velocity": 106, "channel": 0}, {"type": "note_off", "time": 113, "note": 60, "velocity": 106, "channel": 0}, {"type": "note_on", "time": 39, "note": 59, "velocity": 104, "channel": 0}, {"type": "note_off", "time": 201, "note": 59, "velocity": 104, "channel": 0}, {"type": "note_on", "time": 44, "note": 61, "velocity": 102, "channel": 0}, {"type": "note_off", "time": 165, "note": 61, "velocity": 102, "channel": 0}, {"type": "note_on", "time": 29, "note": 63, "velocity": 111, "channel": 0}, {"type": "note_off", "time": 210, "note": 63, "velocity": 111, "channel": 0}, {"type": "note_on", "time": 73, "note": 67, "velocity": 115, "channel": 0}, {"type": "note_off", "time": 67, "note": 67, "velocity": 115, "channel": 0}, {"type": "note_on", "time": 2, "note": 68, "velocity": 115, "channel": 0}, {"type": "note_off", "time": 134, "note": 68, "velocity": 115, "channel": 0}, {"type": "note_on", "time": 94, "note": 63, "velocity": 106, "channel": 0}, {"type": "note_off", "time": 174, "note": 63, "velocity": 106, "channel": 0}, {"type": "note_on", "time": 121, "note": 66, "velocity": 111, "channel": 0}, {"type": "note_off", "time": 220, "note": 66, "velocity": 111, "channel": 0}, {"type": "note_on", "time": 2, "note": 63, "velocity": 122, "channel": 0}, {"type": "note_off", "time": 186, "note": 63, "velocity": 122, "channel": 0}, {"type": "note_on", "time": 18, "note": 59, "velocity": 104, "channel": 0}, {"type": "note_off", "time": 123, "note": 59, "velocity": 104, "channel": 0}, {"type": "note_on", "time": 1923, "note": 65, "velocity": 119, "channel": 0}, {"type": "note_off", "time": 212, "note": 65, "velocity": 119, "channel": 0}, {"type": "note_on", "time": 16, "note": 64, "velocity": 124, "channel": 0}, {"type": "note_off", "time": 252, "note": 64, "velocity": 124, "channel": 0}, {"type": "note_on", "time": 0, "note": 63, "velocity": 125, "channel": 0}, {"type": "note_off", "time": 144, "note": 63, "velocity": 125, "channel": 0}, {"type": "note_on", "time": 18, "note": 62, "velocity": 116, "channel": 0}, {"type": "note_off", "time": 176, "note": 62, "velocity": 116, "channel": 0}, {"type": "note_on", "time": 25, "note": 61, "velocity": 116, "channel": 0}, {"type": "note_off", "time": 151, "note": 61, "velocity": 116, "channel": 0}, {"type": "note_on", "time": 52, "note": 60, "velocity": 110, "channel": 0}, {"type": "note_off", "time": 176, "note": 60, "velocity": 110, "channel": 0}, {"type": "note_on", "time": 54, "note": 59, "velocity": 108, "channel": 0}, {"type": "note_off", "time": 226, "note": 59, "velocity": 108, "channel": 0}, {"type": "note_on", "time": 72, "note": 56, "velocity": 106, "channel": 0}, {"type": "note_off", "time": 153, "note": 56, "velocity": 106, "channel": 0}, {"type": "note_on", "time": 28, "note": 58, "velocity": 106, "channel": 0}, {"type": "note_off", "time": 228, "note": 58, "velocity": 106, "channel": 0}, {"type": "note_on", "time": 518, "note": 56, "velocity": 119, "channel": 0}, {"type": "note_off", "time": 144, "note": 56, "velocity": 119, "channel": 0}, {"type": "note_on", "time": 6, "note": 55, "velocity": 112, "channel": 0}, {"type": "note_off", "time": 233, "note": 55, "velocity": 112, "channel": 0}, {"type": "note_on", "time": 42, "note": 58, "velocity": 106, "channel": 0}, {"type": "note_off", "time": 153, "note": 58, "velocity": 106, "channel": 0}, {"type": "note_on", "time": 50, "note": 56, "velocity": 107, "channel": 0}, {"type": "note_off", "time": 157, "note": 56, "velocity": 107, "channel": 0}, {"type": "note_on", "time": 109, "note": 55, "velocity": 115, "channel": 0}, {"type": "note_off", "time": 228, "note": 55, "velocity": 115, "channel": 0}, {"type": "note_on", "time": 21, "note": 53, "velocity": 106, "channel": 0}, {"type": "note_off", "time": 548, "note": 53, "velocity": 106, "channel": 0}, {"type": "note_on", "time": 170, "note": 53, "velocity": 111, "channel": 0}, {"type": "note_off", "time": 415, "note": 53, "velocity": 111, "channel": 0}, {"type": "note_on", "time": 151, "note": 49, "velocity": 122, "channel": 0}, {"type": "note_off", "time": 210, "note": 49, "velocity": 122, "channel": 0}, {"type": "note_on", "time": 29, "note": 48, "velocity": 123, "channel": 0}, {"type": "note_off", "time": 117, "note": 48, "velocity": 123, "channel": 0}, {"type": "note_on", "time": 8, "note": 46, "velocity": 120, "channel": 0}, {"type": "note_off", "time": 142, "note": 46, "velocity": 120, "channel": 0}, {"type": "note_on", "time": 29, "note": 45, "velocity": 114, "channel": 0}, {"type": "note_off", "time": 575, "note": 45, "velocity": 114, "channel": 0}, {"type": "note_on", "time": 4, "note": 45, "velocity": 124, "channel": 0}, {"type": "note_off", "time": 310, "note": 45, "velocity": 124, "channel": 0}, {"type": "note_on", "time": 29, "note": 45, "velocity": 120, "channel": 0}, {"type": "note_off", "time": 315, "note": 45, "velocity": 120, "channel": 0}, {"type": "end_of_track", "time": 0}]]}