{"ticks_per_beat": 192, "tracks": [[{"type": "track_name", "name": "Melody", "time": 0}, {"type": "set_tempo", "tempo": 419580, "time": 0}, {"type": "key_signature", "key": "Eb", "time": 0}, {"type": "time_signature", "numerator": 4, "denominator": 4, "clocks_per_click": 24, "notated_32nd_notes_per_beat": 8, "time": 0}, {"type": "note_on", "time": 2111, "note": 65, "velocity": 125, "channel": 0}, {"type": "note_off", "time": 86, "note": 65, "velocity": 125, "channel": 0}, {"type": "note_on", "time": 0, "note": 67, "velocity": 121, "channel": 0}, {"type": "note_off", "time": 59, "note": 67, "velocity": 121, "channel": 0}, {"type": "note_on", "time": 32, "note": 67, "velocity": 120, "channel": 0}, {"type": "note_off", "time": 69, "note": 67, "velocity": 120, "channel": 0}, {"type": "note_on", "time": 37, "note": 67, "velocity": 113, "channel": 0}, {"type": "note_off", "time": 74, "note": 67, "velocity": 113, "channel": 0}, {"type": "note_on", "time": 36, "note": 67, "velocity": 115, "channel": 0}, {"type": "note_off", "time": 75, "note": 67, "velocity": 115, "channel": 0}, {"type": "note_on", "time": 32, "note": 67, "velocity": 115, "channel": 0}, {"type": "note_off", "time": 77, "note": 67, "velocity": 115, "channel": 0}, {"type": "note_on", "time": 64, "note": 67, "velocity": 120, "channel": 0}, {"type": "note_off", "time": 159, "note": 67, "velocity": 120, "channel": 0}, {"type": "note_on", "time": 34, "note": 65, "velocity": 120, "channel": 0}, {"type": "note_off", "time": 88, "note": 65, "velocity": 120, "channel": 0}, {"type": "note_on", "time": 126, "note": 65, "velocity": 117, "channel": 0}, {"type": "note_off", "time": 136, "note": 65, "velocity": 117, "channel": 0}, {"type": "note_on", "time": 1112, "note": 67, "velocity": 117, "channel": 0}, {"type": "note_off", "time": 71, "note": 67, "velocity": 117, "channel": 0}, {"type": "note_on", "time": 59, "note": 67, "velocity": 115, "channel": 0}, {"type": "note_off", "time": 77, "note": 67, "velocity": 115, "channel": 0}, {"type": "note_on", "time": 100, "note": 69, "velocity": 122, "channel": 0}, {"type": "note_off", "time": 69, "note": 69, "velocity": 122, "channel": 0}, {"type": "note_on", "time": 5, "note": 70, "velocity": 116, "channel": 0}, {"type": "note_off", "time": 78, "note": 70, "velocity": 116, "channel": 0}, {"type": "note_on", "time": 5, "note": 71, "velocity": 108, "channel": 0}, {"type": "note_off", "time": 16, "note": 71, "velocity": 108, "channel": 0}, {"type": "note_on", "time": 2, "note": 72, "velocity": 113, "channel": 0}, {"type": "note_off", "time": 129, "note": 72, "velocity": 113, "channel": 0}, {"type": "note_on", "time": 9, "note": 70, "velocity": 111, "channel": 0}, {"type": "note_off", "time": 478, "note": 70, "velocity": 111, "channel": 0}, {"type": "note_on", "time": 3, "note": 67, "velocity": 110, "channel": 0}, {"type": "note_off", "time": 57, "note": 67, "velocity": 110, "channel": 0}, {"type": "note_on", "time": 4, "note": 65, "velocity": 115, "channel": 0}, {"type": "note_off", "time": 51, "note": 65, "velocity": 115, "channel": 0}, {"type": "note_on", "time": 2, "note": 63, "velocity": 117, "channel": 0}, {"type": "note_off", "time": 66, "note": 63, "velocity": 117, "channel": 0}, {"type": "note_on", "time": 3, "note": 67, "velocity": 112, "channel": 0}, {"type": "note_off", "time": 59, "note": 67, "velocity": 112, "channel": 0}, {"type": "note_on", "time": 1, "note": 65, "velocity": 111, "channel": 0}, {"type": "note_off", "time": 51, "note": 65, "velocity": 111, "channel": 0}, {"type": "note_on", "time": 0, "note": 63, "velocity": 112, "channel": 0}, {"type": "note_off", "time": 75, "note": 63, "velocity": 112, "channel": 0}, {"type": "note_on", "time": 2, "note": 60, "velocity": 95, "channel": 0}, {"type": "note_off", "time": 223, "note": 60, "velocity": 95, "channel": 0}, {"type": "note_on", "time": 1, "note": 58, "velocity": 93, "channel": 0}, {"type": "note_off", "time": 50, "note": 58, "velocity": 93, "channel": 0}, {"type": "note_on", "time": 0, "note": 55, "velocity": 95, "channel": 0}, {"type": "note_off", "time": 70, "note": 55, "velocity": 95, "channel": 0}, {"type": "note_on", "time": 0, "note": 53, "velocity": 100, "channel": 0}, {"type": "note_off", "time": 53, "note": 53, "velocity": 100, "channel": 0}, {"type": "note_on", "time": 1, "note": 51, "velocity": 97, "channel": 0}, {"type": "note_off", "time": 60, "note": 51, "velocity": 97, "channel": 0}, {"type": "note_on", "time": 7, "note": 53, "velocity": 96, "channel": 0}, {"type": "note_off", "time": 55, "note": 53, "velocity": 96, "channel": 0}, {"type": "note_on", "time": 15, "note": 51, "velocity": 98, "channel": 0}, {"type": "note_off", "time": 63, "note": 51, "velocity": 98, "channel": 0}, {"type": "note_on", "time": 7, "note": 48, "velocity": 90, "channel": 0}, {"type": "note_off", "time": 85, "note": 48, "velocity": 90, "channel": 0}, {"type": "note_on", "time": 795, "note": 70, "velocity": 110, "channel": 0}, {"type": "note_off", "time": 17, "note": 70, "velocity": 110, "channel": 0}, {"type": "note_on", "time": 1, "note": 71, "velocity": 110, "channel": 0}, {"type": "note_off", "time": 261, "note": 71, "velocity": 110, "channel": 0}, {"type": "note_on", "time": 3, "note": 74, "velocity": 108, "channel": 0}, {"type": "note_off", "time": 88, "note": 74, "velocity": 108, "channel": 0}, {"type": "note_on", "time": 4, "note": 71, "velocity": 100, "channel": 0}, {"type": "note_off", "time": 59, "note": 71, "velocity": 100, "channel": 0}, {"type": "note_on", "time": 64, "note": 66, "velocity": 106, "channel": 0}, {"type": "note_off", "time": 38, "note": 66, "velocity": 106, "channel": 0}, {"type": "note_on", "time": 0, "note": 67, "velocity": 113, "channel": 0}, {"type": "note_off", "time": 118, "note": 67, "velocity": 113, "channel": 0}, {"type": "note_on", "time": 5, "note": 64, "velocity": 115, "channel": 0}, {"type": "note_off", "time": 77, "note": 64, "velocity": 115, "channel": 0}, {"type": "note_on", "time": 8, "note": 67, "velocity": 111, "channel": 0}, {"type": "note_off", "time": 45, "note": 67, "velocity": 111, "channel": 0}, {"type": "note_on", "time": 7, "note": 69, "velocity": 115, "channel": 0}, {"type": "note_off", "time": 224, "note": 69, "velocity": 115, "channel": 0}, {"type": "note_on", "time": 3, "note": 72, "velocity": 102, "channel": 0}, {"type": "note_off", "time": 87, "note": 72, "velocity": 102, "channel": 0}, {"type": "note_on", "time": 0, "note": 67, "velocity": 109, "channel": 0}, {"type": "note_off", "time": 73, "note": 67, "velocity": 109, "channel": 0}, {"type": "note_on", "time": 65, "note": 65, "velocity": 111, "channel": 0}, {"type": "note_off", "time": 101, "note": 65, "velocity": 111, "channel": 0}, {"type": "note_on", "time": 2, "note": 62, "velocity": 113, "channel": 0}, {"type": "note_off", "time": 63, "note": 62, "velocity": 113, "channel": 0}, {"type": "note_on", "time": 8, "note": 65, "velocity": 109, "channel": 0}, {"type": "note_off", "time": 86, "note": 65, "velocity": 109, "channel": 0}, {"type": "note_on", "time": 4, "note": 63, "velocity": 116, "channel": 0}, {"type": "note_off", "time": 103, "note": 63, "velocity": 116, "channel": 0}, {"type": "note_on", "time": 58, "note": 61, "velocity": 102, "channel": 0}, {"type": "note_off", "time": 38, "note": 61, "velocity": 102, "channel": 0}, {"type": "note_on", "time": 3, "note": 60, "velocity": 103, "channel": 0}, {"type": "note_off", "time": 109, "note": 60, "velocity": 103, "channel": 0}, {"type": "note_on", "time": 8, "note": 58, "velocity": 89, "channel": 0}, {"type": "note_off", "time": 84, "note": 58, "velocity": 89, "channel": 0}, {"type": "note_on", "time": 751, "note": 55, "velocity": 101, "channel": 0}, {"type": "note_off", "time": 24, "note": 55, "velocity": 101, "channel": 0}, {"type": "note_on", "time": 2, "note": 56, "velocity": 109, "channel": 0}, {"type": "note_off", "time": 258, "note": 56, "velocity": 109, "channel": 0}, {"type": "note_on", "time": 2, "note": 55, "velocity": 97, "channel": 0}, {"type": "note_off", "time": 103, "note": 55, "velocity": 97, "channel": 0}, {"type": "note_on", "time": 0, "note": 56, "velocity": 95, "channel": 0}, {"type": "note_off", "time": 165, "note": 56, "velocity": 95, "channel": 0}, {"type": "note_on", "time": 5, "note": 55, "velocity": 100, "channel": 0}, {"type": "note_off", "time": 114, "note": 55, "velocity": 100, "channel": 0}, {"type": "note_on", "time": 3, "note": 53, "velocity": 95, "channel": 0}, {"type": "note_off", "time": 76, "note": 53, "velocity": 95, "channel": 0}, {"type": "note_on", "time": 3, "note": 51, "velocity": 89, "channel": 0}, {"type": "note_off", "time": 95, "note": 51, "velocity": 89, "channel": 0}, {"type": "note_on", "time": 898, "note": 67, "velocity": 120, "channel": 0}, {"type": "note_off", "time": 84, "note": 67, "velocity": 120, "channel": 0}, {"type": "note_on", "time": 6, "note": 72, "velocity": 107, "channel": 0}, {"type": "note_off", "time": 76, "note": 72, "velocity": 107, "channel": 0}, {"type": "note_on", "time": 15, "note": 60, "velocity": 107, "channel": 0}, {"type": "note_off", "time": 78, "note": 60, "velocity": 107, "channel": 0}, {"type": "note_on", "time": 48, "note": 65, "velocity": 118, "channel": 0}, {"type": "note_off", "time": 125, "note": 65, "velocity": 118, "channel": 0}, {"type": "note_on", "time": 363, "note": 67, "velocity": 108, "channel": 0}, {"type": "note_off", "time": 84, "note": 67, "velocity": 108, "channel": 0}, {"type": "note_on", "time": 2, "note": 72, "velocity": 106, "channel": 0}, {"type": "note_off", "time": 81, "note": 72, "velocity": 106, "channel": 0}, {"type": "note_on", "time": 116, "note": 65, "velocity": 118, "channel": 0}, {"type": "note_off", "time": 103, "note": 65, "velocity": 118, "channel": 0}, {"type": "note_on", "time": 64, "note": 67, "velocity": 118, "channel": 0}, {"type": "note_off", "time": 108, "note": 67, "velocity": 118, "channel": 0}, {"type": "note_on", "time": 210, "note": 67, "velocity": 115, "channel": 0}, {"type": "note_off", "time": 83, "note": 67, "velocity": 115, "channel": 0}, {"type": "note_on", "time": 2, "note": 72, "velocity": 112, "channel": 0}, {"type": "note_off", "time": 89, "note": 72, "velocity": 112, "channel": 0}, {"type": "note_on", "time": 40, "note": 62, "velocity": 95, "channel": 0}, {"type": "note_off", "time": 39, "note": 62, "velocity": 95, "channel": 0}, {"type": "note_on", "time": 22, "note": 65, "velocity": 114, "channel": 0}, {"type": "note_off", "time": 121, "note": 65, "velocity": 114, "channel": 0}, {"type": "note_on", "time": 52, "note": 67, "velocity": 113, "channel": 0}, {"type": "note_off", "time": 133, "note": 67, "velocity": 113, "channel": 0}, {"type": "note_on", "time": 78, "note": 68, "velocity": 116, "channel": 0}, {"type": "note_off", "time": 125, "note": 68, "velocity": 116, "channel": 0}, {"type": "note_on", "time": 5, "note": 69, "velocity": 115, "channel": 0}, {"type": "note_off", "time": 89, "note": 69, "velocity": 115, "channel": 0}, {"type": "note_on", "time": 15, "note": 70, "velocity": 112, "channel": 0}, {"type": "note_off", "time": 74, "note": 70, "velocity": 112, "channel": 0}, {"type": "note_on", "time": 5, "note": 71, "velocity": 112, "channel": 0}, {"type": "note_off", "time": 77, "note": 71, "velocity": 112, "channel": 0}, {"type": "note_on", "time": 9, "note": 71, "velocity": 108, "channel": 0}, {"type": "note_off", "time": 38, "note": 71, "velocity": 108, "channel": 0}, {"type": "note_on", "time": 3, "note": 72, "velocity": 108, "channel": 0}, {"type": "note_off", "time": 58, "note": 72, "velocity": 108, "channel": 0}, {"type": "note_on", "time": 3, "note": 73, "velocity": 105, "channel": 0}, {"type": "note_off", "time": 79, "note": 73, "velocity": 105, "channel": 0}, {"type": "note_on", "time": 3, "note": 74, "velocity": 97, "channel": 0}, {"type": "note_off", "time": 124, "note": 74, "velocity": 97, "channel": 0}, {"type": "note_on", "time": 165, "note": 60, "velocity": 108, "channel": 0}, {"type": "note_off", "time": 64, "note": 60, "velocity": 108, "channel": 0}, {"type": "note_on", "time": 35, "note": 65, "velocity": 110, "channel": 0}, {"type": "note_off", "time": 82, "note": 65, "velocity": 110, "channel": 0}, {"type": "note_on", "time": 6, "note": 67, "velocity": 114, "channel": 0}, {"type": "note_off", "time": 76, "note": 67, "velocity": 114, "channel": 0}, {"type": "note_on", "time": 4, "note": 67, "velocity": 115, "channel": 0}, {"type": "note_off", "time": 44, "note": 67, "velocity": 115, "channel": 0}, {"type": "note_on", "time": 0, "note": 68, "velocity": 114, "channel": 0}, {"type": "note_off", "time": 60, "note": 68, "velocity": 114, "channel": 0}, {"type": "note_on", "time": 1, "note": 69, "velocity": 112, "channel": 0}, {"type": "note_off", "time": 63, "note": 69, "velocity": 112, "channel": 0}, {"type": "note_on", "time": 234, "note": 69, "velocity": 113, "channel": 0}, {"type": "note_off", "time": 114, "note": 69, "velocity": 113, "channel": 0}, {"type": "note_on", "time": 256, "note": 69, "velocity": 113, "channel": 0}, {"type": "note_off", "time": 73, "note": 69, "velocity": 113, "channel": 0}, {"type": "note_on", "time": 3, "note": 71, "velocity": 107, "channel": 0}, {"type": "note_off", "time": 114, "note": 71, "velocity": 107, "channel": 0}, {"type": "note_on", "time": 8, "note": 69, "velocity": 115, "channel": 0}, {"type": "note_off", "time": 37, "note": 69, "velocity": 115, "channel": 0}, {"type": "note_on", "time": 0, "note": 70, "velocity": 113, "channel": 0}, {"type": "note_off", "time": 88, "note": 70, "velocity": 113, "channel": 0}, {"type": "note_on", "time": 1, "note": 71, "velocity": 109, "channel": 0}, {"type": "note_off", "time": 33, "note": 71, "velocity": 109, "channel": 0}, {"type": "note_on", "time": 2, "note": 70, "velocity": 109, "channel": 0}, {"type": "note_off", "time": 114, "note": 70, "velocity": 109, "channel": 0}, {"type": "note_on", "time": 0, "note": 67, "velocity": 110, "channel": 0}, {"type": "note_off", "time": 82, "note": 67, "velocity": 110, "channel": 0}, {"type": "note_on", "time": 3, "note": 65, "velocity": 113, "channel": 0}, {"type": "note_off", "time": 102, "note": 65, "velocity": 113, "channel": 0}, {"type": "note_on", "time": 2, "note": 63, "velocity": 110, "channel": 0}, {"type": "note_off", "time": 90, "note": 63, "velocity": 110, "channel": 0}, {"type": "note_on", "time": 26, "note": 67, "velocity": 114, "channel": 0}, {"type": "note_off", "time": 85, "note": 67, "velocity": 114, "channel": 0}, {"type": "note_on", "time": 3, "note": 65, "velocity": 113, "channel": 0}, {"type": "note_off", "time": 82, "note": 65, "velocity": 113, "channel": 0}, {"type": "note_on", "time": 2, "note": 63, "velocity": 113, "channel": 0}, {"type": "note_off", "time": 98, "note": 63, "velocity": 113, "channel": 0}, {"type": "note_on", "time": 27, "note": 67, "velocity": 100, "channel": 0}, {"type": "note_off", "time": 32, "note": 67, "velocity": 100, "channel": 0}, {"type": "note_on", "time": 0, "note": 63, "velocity": 112, "channel": 0}, {"type": "note_off", "time": 61, "note": 63, "velocity": 112, "channel": 0}, {"type": "note_on", "time": 10, "note": 60, "velocity": 102, "channel": 0}, {"type": "note_off", "time": 72, "note": 60, "velocity": 102, "channel": 0}, {"type": "note_on", "time": 21, "note": 58, "velocity": 103, "channel": 0}, {"type": "note_off", "time": 53, "note": 58, "velocity": 103, "channel": 0}, {"type": "note_on", "time": 9, "note": 55, "velocity": 98, "channel": 0}, {"type": "note_off", "time": 100, "note": 55, "velocity": 98, "channel": 0}, {"type": "note_on", "time": 15, "note": 53, "velocity": 94, "channel": 0}, {"type": "note_off", "time": 74, "note": 53, "velocity": 94, "channel": 0}, {"type": "note_on", "time": 777, "note": 74, "velocity": 109, "channel": 0}, {"type": "note_off", "time": 57, "note": 74, "velocity": 109, "channel": 0}, {"type": "note_on", "time": 9, "note": 71, "velocity": 105, "channel": 0}, {"type": "note_off", "time": 22, "note": 71, "velocity": 105, "channel": 0}, {"type": "note_on", "time": 14, "note": 67, "velocity": 114, "channel": 0}, {"type": "note_off", "time": 51, "note": 67, "velocity": 114, "channel": 0}, {"type": "note_on", "time": 14, "note": 64, "velocity": 123, "channel": 0}, {"type": "note_off", "time": 87, "note": 64, "velocity": 123, "channel": 0}, {"type": "note_on", "time": 29, "note": 69, "velocity": 117, "channel": 0}, {"type": "note_off", "time": 87, "note": 69, "velocity": 117, "channel": 0}, {"type": "note_on", "time": 8, "note": 65, "velocity": 113, "channel": 0}, {"type": "note_off", "time": 93, "note": 65, "velocity": 113, "channel": 0}, {"type": "note_on", "time": 3, "note": 62, "velocity": 106, "channel": 0}, {"type": "note_off", "time": 79, "note": 62, "velocity": 106, "channel": 0}, {"type": "note_on", "time": 21, "note": 57, "velocity": 101, "channel": 0}, {"type": "note_off", "time": 86, "note": 57, "velocity": 101, "channel": 0}, {"type": "note_on", "time": 4, "note": 60, "velocity": 107, "channel": 0}, {"type": "note_off", "time": 88, "note": 60, "velocity": 107, "channel": 0}, {"type": "note_on", "time": 16, "note": 63, "velocity": 113, "channel": 0}, {"type": "note_off", "time": 96, "note": 63, "velocity": 113, "channel": 0}, {"type": "note_on", "time": 3, "note": 67, "velocity": 113, "channel": 0}, {"type": "note_off", "time": 87, "note": 67, "velocity": 113, "channel": 0}, {"type": "note_on", "time": 17, "note": 58, "velocity": 98, "channel": 0}, {"type": "note_off", "time": 83, "note": 58, "velocity": 98, "channel": 0}, {"type": "note_on", "time": 5, "note": 61, "velocity": 114, "channel": 0}, {"type": "note_off", "time": 80, "note": 61, "velocity": 114, "channel": 0}, {"type": "note_on", "time": 24, "note": 72, "velocity": 114, "channel": 0}, {"type": "note_off", "time": 87, "note": 72, "velocity": 114, "channel": 0}, {"type": "note_on", "time": 8, "note": 68, "velocity": 104, "channel": 0}, {"type": "note_off", "time": 73, "note": 68, "velocity": 104, "channel": 0}, {"type": "note_on", "time": 26, "note": 72, "velocity": 104, "channel": 0}, {"type": "note_off", "time": 130, "note": 72, "velocity": 104, "channel": 0}, {"type": "note_on", "time": 68, "note": 69, "velocity": 107, "channel": 0}, {"type": "note_off", "time": 184, "note": 69, "velocity": 107, "channel": 0}, {"type": "note_on", "time": 1, "note": 64, "velocity": 114, "channel": 0}, {"type": "note_off", "time": 86, "note": 64, "velocity": 114, "channel": 0}, {"type": "note_on", "time": 1064, "note": 69, "velocity": 116, "channel": 0}, {"type": "note_off", "time": 52, "note": 69, "velocity": 116, "channel": 0}, {"type": "note_on", "time": 3, "note": 64, "velocity": 107, "channel": 0}, {"type": "note_off", "time": 70, "note": 64, "velocity": 107, "channel": 0}, {"type": "note_on", "time": 10, "note": 69, "velocity": 114, "channel": 0}, {"type": "note_off", "time": 45, "note": 69, "velocity": 114, "channel": 0}, {"type": "note_on", "time": 6, "note": 64, "velocity": 112, "channel": 0}, {"type": "note_off", "time": 73, "note": 64, "velocity": 112, "channel": 0}, {"type": "note_on", "time": 1, "note": 61, "velocity": 108, "channel": 0}, {"type": "note_off", "time": 73, "note": 61, "velocity": 108, "channel": 0}, {"type": "note_on", "time": 10, "note": 57, "velocity": 97, "channel": 0}, {"type": "note_off", "time": 46, "note": 57, "velocity": 97, "channel": 0}, {"type": "note_on", "time": 13, "note": 52, "velocity": 97, "channel": 0}, {"type": "note_off", "time": 86, "note": 52, "velocity": 97, "channel": 0}, {"type": "note_on", "time": 27, "note": 57, "velocity": 93, "channel": 0}, {"type": "note_off", "time": 50, "note": 57, "velocity": 93, "channel": 0}, {"type": "note_on", "time": 1100, "note": 62, "velocity": 99, "channel": 0}, {"type": "note_off", "time": 30, "note": 62, "velocity": 99, "channel": 0}, {"type": "note_on", "time": 3, "note": 63, "velocity": 106, "channel": 0}, {"type": "note_off", "time": 328, "note": 63, "velocity": 106, "channel": 0}, {"type": "note_on", "time": 12, "note": 63, "velocity": 108, "channel": 0}, {"type": "note_off", "time": 127, "note": 63, "velocity": 108, "channel": 0}, {"type": "note_on", "time": 15, "note": 63, "velocity": 115, "channel": 0}, {"type": "note_off", "time": 67, "note": 63, "velocity": 115, "channel": 0}, {"type": "note_on", "time": 102, "note": 63, "velocity": 117, "channel": 0}, {"type": "note_off", "time": 425, "note": 63, "velocity": 117, "channel": 0}, {"type": "note_on", "time": 52, "note": 66, "velocity": 100, "channel": 0}, {"type": "note_off", "time": 56, "note": 66, "velocity": 100, "channel": 0}, {"type": "note_on", "time": 5, "note": 65, "velocity": 105, "channel": 0}, {"type": "note_off", "time": 35, "note": 65, "velocity": 105, "channel": 0}, {"type": "note_on", "time": 6, "note": 63, "velocity": 112, "channel": 0}, {"type": "note_off", "time": 57, "note": 63, "velocity": 112, "channel": 0}, {"type": "note_on", "time": 4, "note": 60, "velocity": 101, "channel": 0}, {"type": "note_off", "time": 103, "note": 60, "velocity": 101, "channel": 0}, {"type": "note_on", "time": 78, "note": 63, "velocity": 115, "channel": 0}, {"type": "note_off", "time": 317, "note": 63, "velocity": 115, "channel": 0}, {"type": "note_on", "time": 57, "note": 63, "velocity": 117, "channel": 0}, {"type": "note_off", "time": 140, "note": 63, "velocity": 117, "channel": 0}, {"type": "note_on", "time": 9, "note": 63, "velocity": 109, "channel": 0}, {"type": "note_off", "time": 50, "note": 63, "velocity": 109, "channel": 0}, {"type": "note_on", "time": 114, "note": 63, "velocity": 110, "channel": 0}, {"type": "note_off", "time": 436, "note": 63, "velocity": 110, "channel": 0}, {"type": "note_on", "time": 13, "note": 63, "velocity": 116, "channel": 0}, {"type": "note_off", "time": 93, "note": 63, "velocity": 116, "channel": 0}, {"type": "note_on", "time": 95, "note": 62, "velocity": 110, "channel": 0}, {"type": "note_off", "time": 31, "note": 62, "velocity": 110, "channel": 0}, {"type": "note_on", "time": 2, "note": 63, "velocity": 113, "channel": 0}, {"type": "note_off", "time": 334, "note": 63, "velocity": 113, "channel": 0}, {"type": "note_on", "time": 213, "note": 62, "velocity": 113, "channel": 0}, {"type": "note_off", "time": 22, "note": 62, "velocity": 113, "channel": 0}, {"type": "note_on", "time": 0, "note": 63, "velocity": 117, "channel": 0}, {"type": "note_off", "time": 124, "note": 63, "velocity": 117, "channel": 0}, {"type": "note_on", "time": 1, "note": 58, "velocity": 98, "channel": 0}, {"type": "note_off", "time": 43, "note": 58, "velocity": 98, "channel": 0}, {"type": "note_on", "time": 3, "note": 61, "velocity": 111, "channel": 0}, {"type": "note_off", "time": 27, "note": 61, "velocity": 111, "channel": 0}, {"type": "note_on", "time": 0, "note": 63, "velocity": 114, "channel": 0}, {"type": "note_off", "time": 349, "note": 63, "velocity": 114, "channel": 0}, {"type": "note_on", "time": 7, "note": 62, "velocity": 103, "channel": 0}, {"type": "note_off", "time": 16, "note": 62, "velocity": 103, "channel": 0}, {"type": "note_on", "time": 0, "note": 63, "velocity": 116, "channel": 0}, {"type": "note_off", "time": 305, "note": 63, "velocity": 116, "channel": 0}, {"type": "note_on", "time": 6, "note": 58, "velocity": 104, "channel": 0}, {"type": "note_off", "time": 47, "note": 58, "velocity": 104, "channel": 0}, {"type": "note_on", "time": 5, "note": 63, "velocity": 116, "channel": 0}, {"type": "note_off", "time": 106, "note": 63, "velocity": 116, "channel": 0}, {"type": "note_on", "time": 85, "note": 56, "velocity": 113, "channel": 0}, {"type": "note_off", "time": 42, "note": 56, "velocity": 113, "channel": 0}, {"type": "note_on", "time": 3, "note": 57, "velocity": 107, "channel": 0}, {"type": "note_off", "time": 156, "note": 57, "velocity": 107, "channel": 0}, {"type": "note_on", "time": 21, "note": 69, "velocity": 105, "channel": 0}, {"type": "note_off", "time": 83, "note": 69, "velocity": 105, "channel": 0}, {"type": "note_on", "time": 16, "note": 68, "velocity": 114, "channel": 0}, {"type": "note_off", "time": 30, "note": 68, "velocity": 114, "channel": 0}, {"type": "note_on", "time": 5, "note": 69, "velocity": 113, "channel": 0}, {"type": "note_off", "time": 70, "note": 69, "velocity": 113, "channel": 0}, {"type": "note_on", "time": 1139, "note": 75, "velocity": 95, "channel": 0}, {"type": "note_off", "time": 14, "note": 75, "velocity": 95, "channel": 0}, {"type": "note_on", "time": 0, "note": 76, "velocity": 112, "channel": 0}, {"type": "note_off", "time": 35, "note": 76, "velocity": 112, "channel": 0}, {"type": "note_on", "time": 125, "note": 72, "velocity": 120, "channel": 0}, {"type": "note_off", "time": 112, "note": 72, "velocity": 120, "channel": 0}, {"type": "note_on", "time": 74, "note": 74, "velocity": 103, "channel": 0}, {"type": "note_off", "time": 22, "note": 74, "velocity": 103, "channel": 0}, {"type": "note_on", "time": 0, "note": 75, "velocity": 120, "channel": 0}, {"type": "note_off", "time": 102, "note": 75, "velocity": 120, "channel": 0}, {"type": "note_on", "time": 82, "note": 67, "velocity": 114, "channel": 0}, {"type": "note_off", "time": 91, "note": 67, "velocity": 114, "channel": 0}, {"type": "note_on", "time": 7, "note": 70, "velocity": 112, "channel": 0}, {"type": "note_off", "time": 83, "note": 70, "velocity": 112, "channel": 0}, {"type": "note_on", "time": 7, "note": 72, "velocity": 117, "channel": 0}, {"type": "note_off", "time": 95, "note": 72, "velocity": 117, "channel": 0}, {"type": "note_on", "time": 2, "note": 67, "velocity": 103, "channel": 0}, {"type": "note_off", "time": 54, "note": 67, "velocity": 103, "channel": 0}, {"type": "note_on", "time": 43, "note": 76, "velocity": 117, "channel": 0}, {"type": "note_off", "time": 31, "note": 76, "velocity": 117, "channel": 0}, {"type": "note_on", "time": 4, "note": 77, "velocity": 100, "channel": 0}, {"type": "note_off", "time": 76, "note": 77, "velocity": 100, "channel": 0}, {"type": "note_on", "time": 86, "note": 67, "velocity": 103, "channel": 0}, {"type": "note_off", "time": 102, "note": 67, "velocity": 103, "channel": 0}, {"type": "note_on", "time": 13, "note": 75, "velocity": 122, "channel": 0}, {"type": "note_off", "time": 73, "note": 75, "velocity": 122, "channel": 0}, {"type": "note_on", "time": 5, "note": 72, "velocity": 107, "channel": 0}, {"type": "note_off", "time": 102, "note": 72, "velocity": 107, "channel": 0}, {"type": "note_on", "time": 7, "note": 71, "velocity": 116, "channel": 0}, {"type": "note_off", "time": 27, "note": 71, "velocity": 116, "channel": 0}, {"type": "note_on", "time": 1, "note": 72, "velocity": 116, "channel": 0}, {"type": "note_off", "time": 168, "note": 72, "velocity": 116, "channel": 0}, {"type": "note_on", "time": 12, "note": 67, "velocity": 105, "channel": 0}, {"type": "note_off", "time": 33, "note": 67, "velocity": 105, "channel": 0}, {"type": "note_on", "time": 30, "note": 70, "velocity": 114, "channel": 0}, {"type": "note_off", "time": 119, "note": 70, "velocity": 114, "channel": 0}, {"type": "note_on", "time": 67, "note": 74, "velocity": 117, "channel": 0}, {"type": "note_off", "time": 26, "note": 74, "velocity": 117, "channel": 0}, {"type": "note_on", "time": 2, "note": 75, "velocity": 121, "channel": 0}, {"type": "note_off", "time": 93, "note": 75, "velocity": 121, "channel": 0}, {"type": "note_on", "time": 65, "note": 72, "velocity": 117, "channel": 0}, {"type": "note_off", "time": 105, "note": 72, "velocity": 117, "channel": 0}, {"type": "note_on", "time": 4, "note": 76, "velocity": 88, "channel": 0}, {"type": "note_off", "time": 23, "note": 76, "velocity": 88, "channel": 0}, {"type": "note_on", "time": 0, "note": 77, "velocity": 116, "channel": 0}, {"type": "note_off", "time": 40, "note": 77, "velocity": 116, "channel": 0}, {"type": "note_on", "time": 25, "note": 67, "velocity": 101, "channel": 0}, {"type": "note_off", "time": 169, "note": 67, "velocity": 101, "channel": 0}, {"type": "note_on", "time": 16, "note": 72, "velocity": 116, "channel": 0}, {"type": "note_off", "time": 86, "note": 72, "velocity": 116, "channel": 0}, {"type": "note_on", "time": 100, "note": 67, "velocity": 110, "channel": 0}, {"type": "note_off", "time": 78, "note": 67, "velocity": 110, "channel": 0}, {"type": "note_on", "time": 23, "note": 70, "velocity": 109, "channel": 0}, {"type": "note_off", "time": 68, "note": 70, "velocity": 109, "channel": 0}, {"type": "note_on", "time": 76, "note": 74, "velocity": 107, "channel": 0}, {"type": "note_off", "time": 37, "note": 74, "velocity": 107, "channel": 0}, {"type": "note_on", "time": 65, "note": 72, "velocity": 104, "channel": 0}, {"type": "note_off", "time": 175, "note": 72, "velocity": 104, "channel": 0}, {"type": "note_on", "time": 154, "note": 67, "velocity": 115, "channel": 0}, {"type": "note_off", "time": 74, "note": 67, "velocity": 115, "channel": 0}, {"type": "note_on", "time": 36, "note": 70, "velocity": 119, "channel": 0}, {"type": "note_off", "time": 74, "note": 70, "velocity": 119, "channel": 0}, {"type": "note_on", "time": 2, "note": 67, "velocity": 113, "channel": 0}, {"type": "note_off", "time": 49, "note": 67, "velocity": 113, "channel": 0}, {"type": "note_on", "time": 15, "note": 65, "velocity": 114, "channel": 0}, {"type": "note_off", "time": 119, "note": 65, "velocity": 114, "channel": 0}, {"type": "note_on", "time": 2, "note": 63, "velocity": 113, "channel": 0}, {"type": "note_off", "time": 68, "note": 63, "velocity": 113, "channel": 0}, {"type": "note_on", "time": 28, "note": 67, "velocity": 117, "channel": 0}, {"type": "note_off", "time": 80, "note": 67, "velocity": 117, "channel": 0}, {"type": "note_on", "time": 1, "note": 65, "velocity": 119, "channel": 0}, {"type": "note_off", "time": 77, "note": 65, "velocity": 119, "channel": 0}, {"type": "note_on", "time": 7, "note": 63, "velocity": 118, "channel": 0}, {"type": "note_off", "time": 106, "note": 63, "velocity": 118, "channel": 0}, {"type": "note_on", "time": 99, "note": 65, "velocity": 120, "channel": 0}, {"type": "note_off", "time": 85, "note": 65, "velocity": 120, "channel": 0}, {"type": "note_on", "time": 0, "note": 63, "velocity": 121, "channel": 0}, {"type": "note_off", "time": 92, "note": 63, "velocity": 121, "channel": 0}, {"type": "note_on", "time": 3, "note": 60, "velocity": 111, "channel": 0}, {"type": "note_off", "time": 103, "note": 60, "velocity": 111, "channel": 0}, {"type": "note_on", "time": 9, "note": 58, "velocity": 105, "channel": 0}, {"type": "note_off", "time": 92, "note": 58, "velocity": 105, "channel": 0}, {"type": "note_on", "time": 11, "note": 55, "velocity": 102, "channel": 0}, {"type": "note_off", "time": 155, "note": 55, "velocity": 102, "channel": 0}, {"type": "note_on", "time": 4, "note": 53, "velocity": 105, "channel": 0}, {"type": "note_off", "time": 105, "note": 53, "velocity": 105, "channel": 0}, {"type": "note_on", "time": 2, "note": 51, "velocity": 106, "channel": 0}, {"type": "note_off", "time": 71, "note": 51, "velocity": 106, "channel": 0}, {"type": "note_on", "time": 7, "note": 48, "velocity": 104, "channel": 0}, {"type": "note_off", "time": 75, "note": 48, "velocity": 104, "channel": 0}, {"type": "note_on", "time": 900, "note": 68, "velocity": 99, "channel": 0}, {"type": "note_on", "time": 28, "note": 69, "velocity": 112, "channel": 0}, {"type": "note_off", "time": 0, "note": 68, "velocity": 99, "channel": 0}, {"type": "note_off", "time": 162, "note": 69, "velocity": 112, "channel": 0}, {"type": "note_on", "time": 3, "note": 68, "velocity": 113, "channel": 0}, {"type": "note_off", "time": 19, "note": 68, "velocity": 113, "channel": 0}, {"type": "note_on", "time": 2, "note": 69, "velocity": 113, "channel": 0}, {"type": "note_off", "time": 95, "note": 69, "velocity": 113, "channel": 0}, {"type": "note_on", "time": 45, "note": 74, "velocity": 107, "channel": 0}, {"type": "note_off", "time": 82, "note": 74, "velocity": 107, "channel": 0}, {"type": "note_on", "time": 9, "note": 71, "velocity": 103, "channel": 0}, {"type": "note_off", "time": 72, "note": 71, "velocity": 103, "channel": 0}, {"type": "note_on", "time": 43, "note": 69, "velocity": 120, "channel": 0}, {"type": "note_off", "time": 95, "note": 69, "velocity": 120, "channel": 0}, {"type": "note_on", "time": 3, "note": 65, "velocity": 120, "channel": 0}, {"type": "note_off", "time": 74, "note": 65, "velocity": 120, "channel": 0}, {"type": "note_on", "time": 19, "note": 62, "velocity": 116, "channel": 0}, {"type": "note_off", "time": 80, "note": 62, "velocity": 116, "channel": 0}, {"type": "note_on", "time": 29, "note": 67, "velocity": 121, "channel": 0}, {"type": "note_off", "time": 87, "note": 67, "velocity": 121, "channel": 0}, {"type": "note_on", "time": 2, "note": 65, "velocity": 118, "channel": 0}, {"type": "note_off", "time": 88, "note": 65, "velocity": 118, "channel": 0}, {"type": "note_on", "time": 1, "note": 62, "velocity": 113, "channel": 0}, {"type": "note_off", "time": 96, "note": 62, "velocity": 113, "channel": 0}, {"type": "note_on", "time": 7, "note": 63, "velocity": 120, "channel": 0}, {"type": "note_off", "time": 85, "note": 63, "velocity": 120, "channel": 0}, {"type": "note_on", "time": 7, "note": 63, "velocity": 115, "channel": 0}, {"type": "note_on", "time": 92, "note": 61, "velocity": 115, "channel": 0}, {"type": "note_off", "time": 0, "note": 63, "velocity": 115, "channel": 0}, {"type": "note_off", "time": 102, "note": 61, "velocity": 115, "channel": 0}, {"type": "note_on", "time": 0, "note": 63, "velocity": 114, "channel": 0}, {"type": "note_off", "time": 90, "note": 63, "velocity": 114, "channel": 0}, {"type": "note_on", "time": 3, "note": 60, "velocity": 113, "channel": 0}, {"type": "note_off", "time": 98, "note": 60, "velocity": 113, "channel": 0}, {"type": "note_on", "time": 4, "note": 58, "velocity": 106, "channel": 0}, {"type": "note_off", "time": 71, "note": 58, "velocity": 106, "channel": 0}, {"type": "note_on", "time": 54, "note": 57, "velocity": 100, "channel": 0}, {"type": "note_off", "time": 125, "note": 57, "velocity": 100, "channel": 0}, {"type": "note_on", "time": 393, "note": 45, "velocity": 110, "channel": 0}, {"type": "note_off", "time": 125, "note": 45, "velocity": 110, "channel": 0}, {"type": "note_on", "time": 7, "note": 46, "velocity": 106, "channel": 0}, {"type": "note_off", "time": 271, "note": 46, "velocity": 106, "channel": 0}, {"type": "note_on", "time": 10, "note": 48, "velocity": 104, "channel": 0}, {"type": "note_off", "time": 110, "note": 48, "velocity": 104, "channel": 0}, {"type": "note_on", "time": 8, "note": 49, "velocity": 106, "channel": 0}, {"type": "note_off", "time": 78, "note": 49, "velocity": 106, "channel": 0}, {"type": "note_on", "time": 13, "note": 51, "velocity": 104, "channel": 0}, {"type": "note_off", "time": 143, "note": 51, "velocity": 104, "channel": 0}, {"type": "note_on", "time": 16, "note": 49, "velocity": 104, "channel": 0}, {"type": "note_off", "time": 99, "note": 49, "velocity": 104, "channel": 0}, {"type": "note_on", "time": 70, "note": 48, "velocity": 100, "channel": 0}, {"type": "note_off", "time": 196, "note": 48, "velocity": 100, "channel": 0}, {"type": "note_on", "time": 606, "note": 46, "velocity": 101, "channel": 0}, {"type": "note_off", "time": 113, "note": 46, "velocity": 101, "channel": 0}, {"type": "note_on", "time": 2, "note": 48, "velocity": 106, "channel": 0}, {"type": "note_off", "time": 67, "note": 48, "velocity": 106, "channel": 0}, {"type": "note_on", "time": 3, "note": 49, "velocity": 104, "channel": 0}, {"type": "note_off", "time": 102, "note": 49, "velocity": 104, "channel": 0}, {"type": "note_on", "time": 16, "note": 51, "velocity": 106, "channel": 0}, {"type": "note_off", "time": 77, "note": 51, "velocity": 106, "channel": 0}, {"type": "note_on", "time": 14, "note": 53, "velocity": 105, "channel": 0}, {"type": "note_off", "time": 83, "note": 53, "velocity": 105, "channel": 0}, {"type": "note_on", "time": 8, "note": 55, "velocity": 105, "channel": 0}, {"type": "note_off", "time": 75, "note": 55, "velocity": 105, "channel": 0}, {"type": "note_on", "time": 17, "note": 57, "velocity": 103, "channel": 0}, {"type": "note_off", "time": 112, "note": 57, "velocity": 103, "channel": 0}, {"type": "note_on", "time": 69, "note": 60, "velocity": 95, "channel": 0}, {"type": "note_off", "time": 140, "note": 60, "velocity": 95, "channel": 0}, {"type": "note_on", "time": 283, "note": 60, "velocity": 93, "channel": 0}, {"type": "note_off", "time": 76, "note": 60, "velocity": 93, "channel": 0}, {"type": "note_on", "time": 262, "note": 60, "velocity": 94, "channel": 0}, {"type": "note_off", "time": 105, "note": 60, "velocity": 94, "channel": 0}, {"type": "note_on", "time": 218, "note": 60, "velocity": 107, "channel": 0}, {"type": "note_off", "time": 75, "note": 60, "velocity": 107, "channel": 0}, {"type": "note_on", "time": 281, "note": 60, "velocity": 111, "channel": 0}, {"type": "note_off", "time": 69, "note": 60, "velocity": 111, "channel": 0}, {"type": "note_on", "time": 203, "note": 60, "velocity": 111, "channel": 0}, {"type": "note_off", "time": 96, "note": 60, "velocity": 111, "channel": 0}, {"type": "note_on", "time": 282, "note": 60, "velocity": 110, "channel": 0}, {"type": "note_off", "time": 118, "note": 60, "velocity": 110, "channel": 0}, {"type": "note_on", "time": 7, "note": 60, "velocity": 101, "channel": 0}, {"type": "note_off", "time": 56, "note": 60, "velocity": 101, "channel": 0}, {"type": "note_on", "time": 383, "note": 60, "velocity": 111, "channel": 0}, {"type": "note_off", "time": 99, "note": 60, "velocity": 111, "channel": 0}, {"type": "note_on", "time": 101, "note": 60, "velocity": 109, "channel": 0}, {"type": "note_off", "time": 72, "note": 60, "velocity": 109, "channel": 0}, {"type": "note_on", "time": 112, "note": 60, "velocity": 106, "channel": 0}, {"type": "note_off", "time": 88, "note": 60, "velocity": 106, "channel": 0}, {"type": "note_on", "time": 322, "note": 60, "velocity": 93, "channel": 0}, {"type": "note_off", "time": 72, "note": 60, "velocity": 93, "channel": 0}, {"type": "note_on", "time": 7, "note": 62, "velocity": 117, "channel": 0}, {"type": "note_off", "time": 93, "note": 62, "velocity": 117, "channel": 0}, {"type": "note_on", "time": 3, "note": 63, "velocity": 119, "channel": 0}, {"type": "note_off", "time": 109, "note": 63, "velocity": 119, "channel": 0}, {"type": "note_on", "time": 1, "note": 65, "velocity": 116, "channel": 0}, {"type": "note_off", "time": 82, "note": 65, "velocity": 116, "channel": 0}, {"type": "note_on", "time": 15, "note": 61, "velocity": 96, "channel": 0}, {"type": "note_off", "time": 16, "note": 61, "velocity": 96, "channel": 0}, {"type": "note_on", "time": 3, "note": 60, "velocity": 105, "channel": 0}, {"type": "note_off", "time": 25, "note": 60, "velocity": 105, "channel": 0}, {"type": "note_on", "time": 8, "note": 62, "velocity": 112, "channel": 0}, {"type": "note_off", "time": 113, "note": 62, "velocity": 112, "channel": 0}, {"type": "note_on", "time": 5, "note": 60, "velocity": 104, "channel": 0}, {"type": "note_off", "time": 186, "note": 60, "velocity": 104, "channel": 0}, {"type": "note_on", "time": 3, "note": 58, "velocity": 95, "channel": 0}, {"type": "note_off", "time": 172, "note": 58, "velocity": 95, "channel": 0}, {"type": "note_on", "time": 12, "note": 55, "velocity": 100, "channel": 0}, {"type": "note_off", "time": 116, "note": 55, "velocity": 100, "channel": 0}, {"type": "note_on", "time": 8, "note": 53, "velocity": 103, "channel": 0}, {"type": "note_off", "time": 77, "note": 53, "velocity": 103, "channel": 0}, {"type": "note_on", "time": 5, "note": 51, "velocity": 103, "channel": 0}, {"type": "note_off", "time": 112, "note": 51, "velocity": 103, "channel": 0}, {"type": "note_on", "time": 4, "note": 48, "velocity": 99, "channel": 0}, {"type": "note_off", "time": 61, "note": 48, "velocity": 99, "channel": 0}, {"type": "note_on", "time": 5, "note": 53, "velocity": 102, "channel": 0}, {"type": "note_off", "time": 198, "note": 53, "velocity": 102, "channel": 0}, {"type": "note_on", "time": 4, "note": 51, "velocity": 98, "channel": 0}, {"type": "note_off", "time": 87, "note": 51, "velocity": 98, "channel": 0}, {"type": "note_on", "time": 1089, "note": 64, "velocity": 111, "channel": 0}, {"type": "note_off", "time": 91, "note": 64, "velocity": 111, "channel": 0}, {"type": "note_on", "time": 4, "note": 66, "velocity": 116, "channel": 0}, {"type": "note_off", "time": 81, "note": 66, "velocity": 116, "channel": 0}, {"type": "note_on", "time": 3, "note": 67, "velocity": 119, "channel": 0}, {"type": "note_off", "time": 88, "note": 67, "velocity": 119, "channel": 0}, {"type": "note_on", "time": 2, "note": 69, "velocity": 120, "channel": 0}, {"type": "note_off", "time": 88, "note": 69, "velocity": 120, "channel": 0}, {"type": "note_on", "time": 5, "note": 71, "velocity": 113, "channel": 0}, {"type": "note_off", "time": 90, "note": 71, "velocity": 113, "channel": 0}, {"type": "note_on", "time": 8, "note": 62, "velocity": 105, "channel": 0}, {"type": "note_off", "time": 77, "note": 62, "velocity": 105, "channel": 0}, {"type": "note_on", "time": 7, "note": 65, "velocity": 115, "channel": 0}, {"type": "note_off", "time": 105, "note": 65, "velocity": 115, "channel": 0}, {"type": "note_on", "time": 1, "note": 69, "velocity": 118, "channel": 0}, {"type": "note_off", "time": 91, "note": 69, "velocity": 118, "channel": 0}, {"type": "note_on", "time": 30, "note": 67, "velocity": 95, "channel": 0}, {"type": "note_off", "time": 19, "note": 67, "velocity": 95, "channel": 0}, {"type": "note_on", "time": 3, "note": 68, "velocity": 118, "channel": 0}, {"type": "note_off", "time": 107, "note": 68, "velocity": 118, "channel": 0}, {"type": "note_on", "time": 12, "note": 69, "velocity": 109, "channel": 0}, {"type": "note_off", "time": 20, "note": 69, "velocity": 109, "channel": 0}, {"type": "note_on", "time": 5, "note": 67, "velocity": 115, "channel": 0}, {"type": "note_off", "time": 103, "note": 67, "velocity": 115, "channel": 0}, {"type": "note_on", "time": 1, "note": 67, "velocity": 118, "channel": 0}, {"type": "note_off", "time": 84, "note": 67, "velocity": 118, "channel": 0}, {"type": "note_on", "time": 6, "note": 66, "velocity": 116, "channel": 0}, {"type": "note_off", "time": 98, "note": 66, "velocity": 116, "channel": 0}, {"type": "note_on", "time": 5, "note": 65, "velocity": 117, "channel": 0}, {"type": "note_off", "time": 71, "note": 65, "velocity": 117, "channel": 0}, {"type": "note_on", "time": 11, "note": 64, "velocity": 118, "channel": 0}, {"type": "note_off", "time": 89, "note": 64, "velocity": 118, "channel": 0}, {"type": "note_on", "time": 1, "note": 58, "velocity": 104, "channel": 0}, {"type": "note_off", "time": 25, "note": 58, "velocity": 104, "channel": 0}, {"type": "note_on", "time": 4, "note": 62, "velocity": 113, "channel": 0}, {"type": "note_off", "time": 93, "note": 62, "velocity": 113, "channel": 0}, {"type": "note_on", "time": 3, "note": 63, "velocity": 113, "channel": 0}, {"type": "note_off", "time": 92, "note": 63, "velocity": 113, "channel": 0}, {"type": "note_on", "time": 5, "note": 60, "velocity": 109, "channel": 0}, {"type": "note_off", "time": 75, "note": 60, "velocity": 109, "channel": 0}, {"type": "note_on", "time": 4, "note": 55, "velocity": 99, "channel": 0}, {"type": "note_off", "time": 21, "note": 55, "velocity": 99, "channel": 0}, {"type": "note_on", "time": 0, "note": 56, "velocity": 97, "channel": 0}, {"type": "note_off", "time": 110, "note": 56, "velocity": 97, "channel": 0}, {"type": "note_on", "time": 713, "note": 70, "velocity": 106, "channel": 0}, {"type": "note_off", "time": 36, "note": 70, "velocity": 106, "channel": 0}, {"type": "note_on", "time": 3, "note": 72, "velocity": 105, "channel": 0}, {"type": "note_off", "time": 400, "note": 72, "velocity": 105, "channel": 0}, {"type": "note_on", "time": 29, "note": 70, "velocity": 120, "channel": 0}, {"type": "note_off", "time": 88, "note": 70, "velocity": 120, "channel": 0}, {"type": "note_on", "time": 2, "note": 68, "velocity": 117, "channel": 0}, {"type": "note_off", "time": 76, "note": 68, "velocity": 117, "channel": 0}, {"type": "note_on", "time": 0, "note": 67, "velocity": 119, "channel": 0}, {"type": "note_off", "time": 103, "note": 67, "velocity": 119, "channel": 0}, {"type": "note_on", "time": 7, "note": 65, "velocity": 121, "channel": 0}, {"type": "note_off", "time": 79, "note": 65, "velocity": 121, "channel": 0}, {"type": "note_on", "time": 7, "note": 63, "velocity": 123, "channel": 0}, {"type": "note_off", "time": 97, "note": 63, "velocity": 123, "channel": 0}, {"type": "note_on", "time": 0, "note": 60, "velocity": 114, "channel": 0}, {"type": "note_off", "time": 81, "note": 60, "velocity": 114, "channel": 0}, {"type": "note_on", "time": 998, "note": 72, "velocity": 122, "channel": 0}, {"type": "note_off", "time": 111, "note": 72, "velocity": 122, "channel": 0}, {"type": "note_on", "time": 6, "note": 72, "velocity": 122, "channel": 0}, {"type": "note_off", "time": 64, "note": 72, "velocity": 122, "channel": 0}, {"type": "note_on", "time": 12, "note": 75, "velocity": 121, "channel": 0}, {"type": "note_off", "time": 90, "note": 75, "velocity": 121, "channel": 0}, {"type": "note_on", "time": 10, "note": 67, "velocity": 102, "channel": 0}, {"type": "note_off", "time": 75, "note": 67, "velocity": 102, "channel": 0}, {"type": "note_on", "time": 13, "note": 72, "velocity": 116, "channel": 0}, {"type": "note_off", "time": 98, "note": 72, "velocity": 116, "channel": 0}, {"type": "note_on", "time": 9, "note": 72, "velocity": 114, "channel": 0}, {"type": "note_off", "time": 69, "note": 72, "velocity": 114, "channel": 0}, {"type": "note_on", "time": 25, "note": 75, "velocity": 116, "channel": 0}, {"type": "note_off", "time": 104, "note": 75, "velocity": 116, "channel": 0}, {"type": "note_on", "time": 10, "note": 67, "velocity": 94, "channel": 0}, {"type": "note_off", "time": 70, "note": 67, "velocity": 94, "channel": 0}, {"type": "note_on", "time": 3, "note": 72, "velocity": 111, "channel": 0}, {"type": "note_off", "time": 90, "note": 72, "velocity": 111, "channel": 0}, {"type": "note_on", "time": 7, "note": 72, "velocity": 112, "channel": 0}, {"type": "note_off", "time": 75, "note": 72, "velocity": 112, "channel": 0}, {"type": "note_on", "time": 16, "note": 75, "velocity": 119, "channel": 0}, {"type": "note_off", "time": 104, "note": 75, "velocity": 119, "channel": 0}, {"type": "note_on", "time": 42, "note": 67, "velocity": 99, "channel": 0}, {"type": "note_off", "time": 32, "note": 67, "velocity": 99, "channel": 0}, {"type": "note_on", "time": 24, "note": 72, "velocity": 111, "channel": 0}, {"type": "note_off", "time": 97, "note": 72, "velocity": 111, "channel": 0}, {"type": "note_on", "time": 5, "note": 72, "velocity": 113, "channel": 0}, {"type": "note_off", "time": 73, "note": 72, "velocity": 113, "channel": 0}, {"type": "note_on", "time": 18, "note": 75, "velocity": 112, "channel": 0}, {"type": "note_off", "time": 79, "note": 75, "velocity": 112, "channel": 0}, {"type": "note_on", "time": 48, "note": 67, "velocity": 96, "channel": 0}, {"type": "note_off", "time": 57, "note": 67, "velocity": 96, "channel": 0}, {"type": "note_on", "time": 1, "note": 72, "velocity": 107, "channel": 0}, {"type": "note_off", "time": 102, "note": 72, "velocity": 107, "channel": 0}, {"type": "note_on", "time": 11, "note": 67, "velocity": 99, "channel": 0}, {"type": "note_off", "time": 62, "note": 67, "velocity": 99, "channel": 0}, {"type": "note_on", "time": 7, "note": 72, "velocity": 110, "channel": 0}, {"type": "note_off", "time": 110, "note": 72, "velocity": 110, "channel": 0}, {"type": "note_on", "time": 1, "note": 67, "velocity": 104, "channel": 0}, {"type": "note_off", "time": 66, "note": 67, "velocity": 104, "channel": 0}, {"type": "note_on", "time": 24, "note": 72, "velocity": 112, "channel": 0}, {"type": "note_off", "time": 102, "note": 72, "velocity": 112, "channel": 0}, {"type": "note_on", "time": 4, "note": 67, "velocity": 98, "channel": 0}, {"type": "note_off", "time": 48, "note": 67, "velocity": 98, "channel": 0}, {"type": "note_on", "time": 30, "note": 75, "velocity": 119, "channel": 0}, {"type": "note_off", "time": 100, "note": 75, "velocity": 119, "channel": 0}, {"type": "note_on", "time": 37, "note": 67, "velocity": 107, "channel": 0}, {"type": "note_off", "time": 177, "note": 67, "velocity": 107, "channel": 0}, {"type": "note_on", "time": 11, "note": 72, "velocity": 115, "channel": 0}, {"type": "note_off", "time": 169, "note": 72, "velocity": 115, "channel": 0}, {"type": "note_on", "time": 15, "note": 75, "velocity": 116, "channel": 0}, {"type": "note_off", "time": 179, "note": 75, "velocity": 116, "channel": 0}, {"type": "note_on", "time": 3, "note": 72, "velocity": 99, "channel": 0}, {"type": "note_off", "time": 23, "note": 72, "velocity": 99, "channel": 0}, {"type": "note_on", "time": 16, "note": 67, "velocity": 101, "channel": 0}, {"type": "note_off", "time": 139, "note": 67, "velocity": 101, "channel": 0}, {"type": "note_on", "time": 7, "note": 72, "velocity": 108, "channel": 0}, {"type": "note_off", "time": 193, "note": 72, "velocity": 108, "channel": 0}, {"type": "note_on", "time": 9, "note": 75, "velocity": 110, "channel": 0}, {"type": "note_off", "time": 80, "note": 75, "velocity": 110, "channel": 0}, {"type": "note_on", "time": 183, "note": 75, "velocity": 114, "channel": 0}, {"type": "note_off", "time": 102, "note": 75, "velocity": 114, "channel": 0}, {"type": "note_on", "time": 71, "note": 72, "velocity": 111, "channel": 0}, {"type": "note_off", "time": 312, "note": 72, "velocity": 111, "channel": 0}, {"type": "note_on", "time": 18, "note": 75, "velocity": 116, "channel": 0}, {"type": "note_off", "time": 73, "note": 75, "velocity": 116, "channel": 0}, {"type": "note_on", "time": 11, "note": 72, "velocity": 106, "channel": 0}, {"type": "note_off", "time": 87, "note": 72, "velocity": 106, "channel": 0}, {"type": "note_on", "time": 16, "note": 72, "velocity": 100, "channel": 0}, {"type": "note_off", "time": 50, "note": 72, "velocity": 100, "channel": 0}, {"type": "note_on", "time": 2, "note": 75, "velocity": 9, "channel": 0}, {"type": "note_off", "time": 211, "note": 75, "velocity": 9, "channel": 0}, {"type": "note_on", "time": 206, "note": 75, "velocity": 121, "channel": 0}, {"type": "note_off", "time": 114, "note": 75, "velocity": 121, "channel": 0}, {"type": "note_on", "time": 69, "note": 74, "velocity": 102, "channel": 0}, {"type": "note_off", "time": 17, "note": 74, "velocity": 102, "channel": 0}, {"type": "note_on", "time": 3, "note": 75, "velocity": 119, "channel": 0}, {"type": "note_off", "time": 104, "note": 75, "velocity": 119, "channel": 0}, {"type": "note_on", "time": 17, "note": 77, "velocity": 102, "channel": 0}, {"type": "note_off", "time": 241, "note": 77, "velocity": 102, "channel": 0}, {"type": "note_on", "time": 11, "note": 75, "velocity": 118, "channel": 0}, {"type": "note_off", "time": 112, "note": 75, "velocity": 118, "channel": 0}, {"type": "note_on", "time": 9, "note": 72, "velocity": 106, "channel": 0}, {"type": "note_off", "time": 104, "note": 72, "velocity": 106, "channel": 0}, {"type": "note_on", "time": 600, "note": 73, "velocity": 101, "channel": 0}, {"type": "note_off", "time": 44, "note": 73, "velocity": 101, "channel": 0}, {"type": "note_on", "time": 3, "note": 77, "velocity": 95, "channel": 0}, {"type": "note_off", "time": 23, "note": 77, "velocity": 95, "channel": 0}, {"type": "note_on", "time": 45, "note": 78, "velocity": 104, "channel": 0}, {"type": "note_off", "time": 27, "note": 78, "velocity": 104, "channel": 0}, {"type": "note_on", "time": 0, "note": 77, "velocity": 101, "channel": 0}, {"type": "note_off", "time": 21, "note": 77, "velocity": 101, "channel": 0}, {"type": "note_on", "time": 4, "note": 78, "velocity": 107, "channel": 0}, {"type": "note_off", "time": 120, "note": 78, "velocity": 107, "channel": 0}, {"type": "note_on", "time": 12, "note": 75, "velocity": 108, "channel": 0}, {"type": "note_off", "time": 57, "note": 75, "velocity": 108, "channel": 0}, {"type": "note_on", "time": 0, "note": 77, "velocity": 91, "channel": 0}, {"type": "note_off", "time": 21, "note": 77, "velocity": 91, "channel": 0}, {"type": "note_on", "time": 19, "note": 74, "velocity": 104, "channel": 0}, {"type": "note_off", "time": 73, "note": 74, "velocity": 104, "channel": 0}, {"type": "note_on", "time": 3, "note": 73, "velocity": 103, "channel": 0}, {"type": "note_off", "time": 107, "note": 73, "velocity": 103, "channel": 0}, {"type": "note_on", "time": 75, "note": 73, "velocity": 112, "channel": 0}, {"type": "note_off", "time": 30, "note": 73, "velocity": 112, "channel": 0}, {"type": "note_on", "time": 2, "note": 75, "velocity": 118, "channel": 0}, {"type": "note_off", "time": 171, "note": 75, "velocity": 118, "channel": 0}, {"type": "note_on", "time": 8, "note": 73, "velocity": 112, "channel": 0}, {"type": "note_off", "time": 93, "note": 73, "velocity": 112, "channel": 0}, {"type": "note_on", "time": 1, "note": 72, "velocity": 117, "channel": 0}, {"type": "note_off", "time": 90, "note": 72, "velocity": 117, "channel": 0}, {"type": "note_on", "time": 11, "note": 71, "velocity": 114, "channel": 0}, {"type": "note_off", "time": 90, "note": 71, "velocity": 114, "channel": 0}, {"type": "note_on", "time": 2, "note": 70, "velocity": 116, "channel": 0}, {"type": "note_off", "time": 102, "note": 70, "velocity": 116, "channel": 0}, {"type": "note_on", "time": 17, "note": 69, "velocity": 120, "channel": 0}, {"type": "note_off", "time": 45, "note": 69, "velocity": 120, "channel": 0}, {"type": "note_on", "time": 2, "note": 68, "velocity": 117, "channel": 0}, {"type": "note_off", "time": 29, "note": 68, "velocity": 117, "channel": 0}, {"type": "note_on", "time": 17, "note": 67, "velocity": 118, "channel": 0}, {"type": "note_off", "time": 90, "note": 67, "velocity": 118, "channel": 0}, {"type": "note_on", "time": 21, "note": 67, "velocity": 116, "channel": 0}, {"type": "note_off", "time": 81, "note": 67, "velocity": 116, "channel": 0}, {"type": "note_on", "time": 12, "note": 65, "velocity": 112, "channel": 0}, {"type": "note_off", "time": 100, "note": 65, "velocity": 112, "channel": 0}, {"type": "note_on", "time": 23, "note": 65, "velocity": 111, "channel": 0}, {"type": "note_off", "time": 96, "note": 65, "velocity": 111, "channel": 0}, {"type": "note_on", "time": 821, "note": 65, "velocity": 123, "channel": 0}, {"type": "note_off", "time": 91, "note": 65, "velocity": 123, "channel": 0}, {"type": "note_on", "time": 7, "note": 64, "velocity": 127, "channel": 0}, {"type": "note_off", "time": 79, "note": 64, "velocity": 127, "channel": 0}, {"type": "note_on", "time": 25, "note": 63, "velocity": 123, "channel": 0}, {"type": "note_off", "time": 74, "note": 63, "velocity": 123, "channel": 0}, {"type": "note_on", "time": 5, "note": 62, "velocity": 121, "channel": 0}, {"type": "note_off", "time": 82, "note": 62, "velocity": 121, "channel": 0}, {"type": "note_on", "time": 5, "note": 61, "velocity": 119, "channel": 0}, {"type": "note_off", "time": 105, "note": 61, "velocity": 119, "channel": 0}, {"type": "note_on", "time": 1, "note": 59, "velocity": 115, "channel": 0}, {"type": "note_off", "time": 110, "note": 59, "velocity": 115, "channel": 0}, {"type": "note_on", "time": 37, "note": 58, "velocity": 105, "channel": 0}, {"type": "note_off", "time": 101, "note": 58, "velocity": 105, "channel": 0}, {"type": "note_on", "time": 62, "note": 58, "velocity": 99, "channel": 0}, {"type": "note_off", "time": 89, "note": 58, "velocity": 99, "channel": 0}, {"type": "note_on", "time": 21, "note": 57, "velocity": 100, "channel": 0}, {"type": "note_off", "time": 104, "note": 57, "velocity": 100, "channel": 0}, {"type": "note_on", "time": 64, "note": 56, "velocity": 106, "channel": 0}, {"type": "note_off", "time": 52, "note": 56, "velocity": 106, "channel": 0}, {"type": "note_on", "time": 34, "note": 55, "velocity": 104, "channel": 0}, {"type": "note_off", "time": 71, "note": 55, "velocity": 104, "channel": 0}, {"type": "note_on", "time": 972, "note": 63, "velocity": 107, "channel": 0}, {"type": "note_off", "time": 59, "note": 63, "velocity": 107, "channel": 0}, {"type": "note_on", "time": 225, "note": 63, "velocity": 109, "channel": 0}, {"type": "note_off", "time": 204, "note": 63, "velocity": 109, "channel": 0}, {"type": "note_on", "time": 472, "note": 63, "velocity": 115, "channel": 0}, {"type": "note_off", "time": 252, "note": 63, "velocity": 115, "channel": 0}, {"type": "note_on", "time": 10, "note": 63, "velocity": 117, "channel": 0}, {"type": "note_off", "time": 76, "note": 63, "velocity": 117, "channel": 0}, {"type": "note_on", "time": 320, "note": 63, "velocity": 102, "channel": 0}, {"type": "note_off", "time": 55, "note": 63, "velocity": 102, "channel": 0}, {"type": "note_on", "time": 128, "note": 63, "velocity": 101, "channel": 0}, {"type": "note_off", "time": 195, "note": 63, "velocity": 101, "channel": 0}, {"type": "note_on", "time": 521, "note": 62, "velocity": 109, "channel": 0}, {"type": "note_off", "time": 27, "note": 62, "velocity": 109, "channel": 0}, {"type": "note_on", "time": 2, "note": 63, "velocity": 112, "channel": 0}, {"type": "note_off", "time": 183, "note": 63, "velocity": 112, "channel": 0}, {"type": "note_on", "time": 53, "note": 73, "velocity": 118, "channel": 0}, {"type": "note_off", "time": 39, "note": 73, "velocity": 118, "channel": 0}, {"type": "note_on", "time": 3, "note": 75, "velocity": 112, "channel": 0}, {"type": "note_off", "time": 544, "note": 75, "velocity": 112, "channel": 0}, {"type": "note_on", "time": 35, "note": 72, "velocity": 114, "channel": 0}, {"type": "note_off", "time": 51, "note": 72, "velocity": 114, "channel": 0}, {"type": "note_on", "time": 3, "note": 73, "velocity": 113, "channel": 0}, {"type": "note_on", "time": 23, "note": 72, "velocity": 108, "channel": 0}, {"type": "note_off", "time": 0, "note": 73, "velocity": 113, "channel": 0}, {"type": "note_off", "time": 42, "note": 72, "velocity": 108, "channel": 0}, {"type": "note_on", "time": 0, "note": 71, "velocity": 119, "channel": 0}, {"type": "note_off", "time": 35, "note": 71, "velocity": 119, "channel": 0}, {"type": "note_on", "time": 1, "note": 70, "velocity": 120, "channel": 0}, {"type": "note_off", "time": 112, "note": 70, "velocity": 120, "channel": 0}, {"type": "note_on", "time": 16, "note": 68, "velocity": 114, "channel": 0}, {"type": "note_off", "time": 79, "note": 68, "velocity": 114, "channel": 0}, {"type": "note_on", "time": 15, "note": 66, "velocity": 109, "channel": 0}, {"type": "note_off", "time": 79, "note": 66, "velocity": 109, "channel": 0}, {"type": "note_on", "time": 5, "note": 63, "velocity": 113, "channel": 0}, {"type": "note_off", "time": 78, "note": 63, "velocity": 113, "channel": 0}, {"type": "note_on", "time": 13, "note": 61, "velocity": 103, "channel": 0}, {"type": "note_off", "time": 83, "note": 61, "velocity": 103, "channel": 0}, {"type": "note_on", "time": 24, "note": 58, "velocity": 100, "channel": 0}, {"type": "note_off", "time": 66, "note": 58, "velocity": 100, "channel": 0}, {"type": "note_on", "time": 16, "note": 56, "velocity": 96, "channel": 0}, {"type": "note_off", "time": 177, "note": 56, "velocity": 96, "channel": 0}, {"type": "note_on", "time": 11, "note": 54, "velocity": 104, "channel": 0}, {"type": "note_off", "time": 41, "note": 54, "velocity": 104, "channel": 0}, {"type": "note_on", "time": 134, "note": 57, "velocity": 107, "channel": 0}, {"type": "note_off", "time": 147, "note": 57, "velocity": 107, "channel": 0}, {"type": "note_on", "time": 155, "note": 45, "velocity": 110, "channel": 0}, {"type": "note_off", "time": 133, "note": 45, "velocity": 110, "channel": 0}, {"type": "note_on", "time": 438, "note": 49, "velocity": 105, "channel": 0}, {"type": "note_off", "time": 84, "note": 49, "velocity": 105, "channel": 0}, {"type": "note_on", "time": 6, "note": 53, "velocity": 101, "channel": 0}, {"type": "note_off", "time": 108, "note": 53, "velocity": 101, "channel": 0}, {"type": "note_on", "time": 1, "note": 56, "velocity": 106, "channel": 0}, {"type": "note_off", "time": 75, "note": 56, "velocity": 106, "channel": 0}, {"type": "note_on", "time": 18, "note": 61, "velocity": 113, "channel": 0}, {"type": "note_off", "time": 98, "note": 61, "velocity": 113, "channel": 0}, {"type": "note_on", "time": 1, "note": 65, "velocity": 112, "channel": 0}, {"type": "note_off", "time": 68, "note": 65, "velocity": 112, "channel": 0}, {"type": "note_on", "time": 16, "note": 68, "velocity": 113, "channel": 0}, {"type": "note_off", "time": 98, "note": 68, "velocity": 113, "channel": 0}, {"type": "note_on", "time": 6, "note": 65, "velocity": 88, "channel": 0}, {"type": "note_off", "time": 58, "note": 65, "velocity": 88, "channel": 0}, {"type": "note_on", "time": 11, "note": 67, "velocity": 112, "channel": 0}, {"type": "note_off", "time": 2093, "note": 67, "velocity": 112, "channel": 0}, {"type": "note_on", "time": 502, "note": 65, "velocity": 113, "channel": 0}, {"type": "note_off", "time": 54, "note": 65, "velocity": 113, "channel": 0}, {"type": "note_on", "time": 7, "note": 67, "velocity": 115, "channel": 0}, {"type": "note_off", "time": 343, "note": 67, "velocity": 115, "channel": 0}, {"type": "note_on", "time": 39, "note": 67, "velocity": 116, "channel": 0}, {"type": "note_off", "time": 117, "note": 67, "velocity": 116, "channel": 0}, {"type": "note_on", "time": 10, "note": 67, "velocity": 114, "channel": 0}, {"type": "note_off", "time": 46, "note": 67, "velocity": 114, "channel": 0}, {"type": "note_on", "time": 20, "note": 67, "velocity": 116, "channel": 0}, {"type": "note_off", "time": 106, "note": 67, "velocity": 116, "channel": 0}, {"type": "note_on", "time": 21, "note": 67, "velocity": 108, "channel": 0}, {"type": "note_off", "time": 46, "note": 67, "velocity": 108, "channel": 0}, {"type": "note_on", "time": 15, "note": 66, "velocity": 115, "channel": 0}, {"type": "note_off", "time": 46, "note": 66, "velocity": 115, "channel": 0}, {"type": "note_on", "time": 11, "note": 67, "velocity": 110, "channel": 0}, {"type": "note_off", "time": 57, "note": 67, "velocity": 110, "channel": 0}, {"type": "note_on", "time": 7, "note": 67, "velocity": 111, "channel": 0}, {"type": "note_off", "time": 43, "note": 67, "velocity": 111, "channel": 0}, {"type": "note_on", "time": 14, "note": 67, "velocity": 117, "channel": 0}, {"type": "note_off", "time": 121, "note": 67, "velocity": 117, "channel": 0}, {"type": "note_on", "time": 22, "note": 67, "velocity": 100, "channel": 0}, {"type": "note_off", "time": 35, "note": 67, "velocity": 100, "channel": 0}, {"type": "note_on", "time": 18, "note": 67, "velocity": 115, "channel": 0}, {"type": "note_off", "time": 100, "note": 67, "velocity": 115, "channel": 0}, {"type": "note_on", "time": 28, "note": 67, "velocity": 107, "channel": 0}, {"type": "note_off", "time": 31, "note": 67, "velocity": 107, "channel": 0}, {"type": "note_on", "time": 17, "note": 67, "velocity": 112, "channel": 0}, {"type": "note_off", "time": 126, "note": 67, "velocity": 112, "channel": 0}, {"type": "note_on", "time": 5, "note": 67, "velocity": 100, "channel": 0}, {"type": "note_off", "time": 38, "note": 67, "velocity": 100, "channel": 0}, {"type": "note_on", "time": 18, "note": 67, "velocity": 106, "channel": 0}, {"type": "note_off", "time": 123, "note": 67, "velocity": 106, "channel": 0}, {"type": "note_on", "time": 11, "note": 67, "velocity": 108, "channel": 0}, {"type": "note_off", "time": 85, "note": 67, "velocity": 108, "channel": 0}, {"type": "note_on", "time": 18, "note": 67, "velocity": 108, "channel": 0}, {"type": "note_off", "time": 82, "note": 67, "velocity": 108, "channel": 0}, {"type": "note_on", "time": 25, "note": 65, "velocity": 100, "channel": 0}, {"type": "note_off", "time": 45, "note": 65, "velocity": 100, "channel": 0}, {"type": "note_on", "time": 0, "note": 67, "velocity": 112, "channel": 0}, {"type": "note_off", "time": 120, "note": 67, "velocity": 112, "channel": 0}, {"type": "note_on", "time": 5, "note": 65, "velocity": 107, "channel": 0}, {"type": "note_off", "time": 49, "note": 65, "velocity": 107, "channel": 0}, {"type": "note_on", "time": 4, "note": 63, "velocity": 111, "channel": 0}, {"type": "note_off", "time": 112, "note": 63, "velocity": 111, "channel": 0}, {"type": "note_on", "time": 12, "note": 65, "velocity": 105, "channel": 0}, {"type": "note_off", "time": 75, "note": 65, "velocity": 105, "channel": 0}, {"type": "note_on", "time": 12, "note": 60, "velocity": 101, "channel": 0}, {"type": "note_off", "time": 88, "note": 60, "velocity": 101, "channel": 0}, {"type": "note_on", "time": 955, "note": 67, "velocity": 121, "channel": 0}, {"type": "note_off", "time": 46, "note": 67, "velocity": 121, "channel": 0}, {"type": "note_on", "time": 3, "note": 69, "velocity": 113, "channel": 0}, {"type": "note_off", "time": 247, "note": 69, "velocity": 113, "channel": 0}, {"type": "note_on", "time": 8, "note": 71, "velocity": 115, "channel": 0}, {"type": "note_off", "time": 92, "note": 71, "velocity": 115, "channel": 0}, {"type": "note_on", "time": 7, "note": 69, "velocity": 111, "channel": 0}, {"type": "note_off", "time": 67, "note": 69, "velocity": 111, "channel": 0}, {"type": "note_on", "time": 76, "note": 67, "velocity": 108, "channel": 0}, {"type": "note_off", "time": 135, "note": 67, "velocity": 108, "channel": 0}, {"type": "note_on", "time": 13, "note": 65, "velocity": 108, "channel": 0}, {"type": "note_off", "time": 96, "note": 65, "velocity": 108, "channel": 0}, {"type": "note_on", "time": 19, "note": 65, "velocity": 114, "channel": 0}, {"type": "note_off", "time": 50, "note": 65, "velocity": 114, "channel": 0}, {"type": "note_on", "time": 2, "note": 67, "velocity": 112, "channel": 0}, {"type": "note_off", "time": 293, "note": 67, "velocity": 112, "channel": 0}, {"type": "note_on", "time": 2, "note": 69, "velocity": 115, "channel": 0}, {"type": "note_off", "time": 46, "note": 69, "velocity": 115, "channel": 0}, {"type": "note_on", "time": 6, "note": 67, "velocity": 111, "channel": 0}, {"type": "note_off", "time": 53, "note": 67, "velocity": 111, "channel": 0}, {"type": "note_on", "time": 43, "note": 65, "velocity": 112, "channel": 0}, {"type": "note_off", "time": 153, "note": 65, "velocity": 112, "channel": 0}, {"type": "note_on", "time": 3, "note": 63, "velocity": 109, "channel": 0}, {"type": "note_off", "time": 105, "note": 63, "velocity": 109, "channel": 0}, {"type": "note_on", "time": 10, "note": 65, "velocity": 113, "channel": 0}, {"type": "note_off", "time": 156, "note": 65, "velocity": 113, "channel": 0}, {"type": "note_on", "time": 387, "note": 63, "velocity": 109, "channel": 0}, {"type": "note_off", "time": 91, "note": 63, "velocity": 109, "channel": 0}, {"type": "note_on", "time": 8, "note": 65, "velocity": 114, "channel": 0}, {"type": "note_off", "time": 80, "note": 65, "velocity": 114, "channel": 0}, {"type": "note_on", "time": 354, "note": 63, "velocity": 117, "channel": 0}, {"type": "note_off", "time": 78, "note": 63, "velocity": 117, "channel": 0}, {"type": "note_on", "time": 27, "note": 65, "velocity": 120, "channel": 0}, {"type": "note_off", "time": 77, "note": 65, "velocity": 120, "channel": 0}, {"type": "note_on", "time": 399, "note": 63, "velocity": 107, "channel": 0}, {"type": "note_off", "time": 76, "note": 63, "velocity": 107, "channel": 0}, {"type": "note_on", "time": 29, "note": 65, "velocity": 114, "channel": 0}, {"type": "note_off", "time": 78, "note": 65, "velocity": 114, "channel": 0}, {"type": "note_on", "time": 194, "note": 75, "velocity": 117, "channel": 0}, {"type": "note_off", "time": 65, "note": 75, "velocity": 117, "channel": 0}, {"type": "note_on", "time": 33, "note": 72, "velocity": 111, "channel": 0}, {"type": "note_off", "time": 55, "note": 72, "velocity": 111, "channel": 0}, {"type": "note_on", "time": 2, "note": 76, "velocity": 113, "channel": 0}, {"type": "note_off", "time": 53, "note": 76, "velocity": 113, "channel": 0}, {"type": "note_on", "time": 4, "note": 77, "velocity": 103, "channel": 0}, {"type": "note_off", "time": 425, "note": 77, "velocity": 103, "channel": 0}, {"type": "note_on", "time": 9, "note": 75, "velocity": 115, "channel": 0}, {"type": "note_off", "time": 108, "note": 75, "velocity": 115, "channel": 0}, {"type": "note_on", "time": 10, "note": 72, "velocity": 110, "channel": 0}, {"type": "note_off", "time": 117, "note": 72, "velocity": 110, "channel": 0}, {"type": "note_on", "time": 10, "note": 70, "velocity": 103, "channel": 0}, {"type": "note_off", "time": 76, "note": 70, "velocity": 103, "channel": 0}, {"type": "note_on", "time": 11, "note": 67, "velocity": 105, "channel": 0}, {"type": "note_off", "time": 28, "note": 67, "velocity": 105, "channel": 0}, {"type": "note_on", "time": 76, "note": 65, "velocity": 105, "channel": 0}, {"type": "note_off", "time": 133, "note": 65, "velocity": 105, "channel": 0}, {"type": "note_on", "time": 17, "note": 63, "velocity": 96, "channel": 0}, {"type": "note_off", "time": 87, "note": 63, "velocity": 96, "channel": 0}, {"type": "note_on", "time": 15, "note": 60, "velocity": 97, "channel": 0}, {"type": "note_off", "time": 55, "note": 60, "velocity": 97, "channel": 0}, {"type": "note_on", "time": 184, "note": 60, "velocity": 97, "channel": 0}, {"type": "note_off", "time": 85, "note": 60, "velocity": 97, "channel": 0}, {"type": "end_of_track", "time": 0}]]}