{"ticks_per_beat": 192, "tracks": [[{"type": "note_on", "time": 0, "note": 65, "velocity": 113, "channel": 0}, {"type": "note_off", "time": 97, "note": 65, "velocity": 113, "channel": 0}, {"type": "note_on", "time": 18, "note": 62, "velocity": 105, "channel": 0}, {"type": "note_off", "time": 74, "note": 62, "velocity": 105, "channel": 0}, {"type": "note_on", "time": 5, "note": 65, "velocity": 121, "channel": 0}, {"type": "note_off", "time": 92, "note": 65, "velocity": 121, "channel": 0}, {"type": "note_on", "time": 20, "note": 67, "velocity": 117, "channel": 0}, {"type": "note_off", "time": 259, "note": 67, "velocity": 117, "channel": 0}, {"type": "note_on", "time": 25, "note": 65, "velocity": 103, "channel": 0}, {"type": "note_off", "time": 72, "note": 65, "velocity": 103, "channel": 0}, {"type": "note_on", "time": 20, "note": 67, "velocity": 112, "channel": 0}, {"type": "note_off", "time": 77, "note": 67, "velocity": 112, "channel": 0}, {"type": "note_on", "time": 10, "note": 65, "velocity": 109, "channel": 0}, {"type": "note_off", "time": 84, "note": 65, "velocity": 109, "channel": 0}, {"type": "note_on", "time": 18, "note": 62, "velocity": 103, "channel": 0}, {"type": "note_off", "time": 69, "note": 62, "velocity": 103, "channel": 0}, {"type": "note_on", "time": 38, "note": 58, "velocity": 98, "channel": 0}, {"type": "note_off", "time": 77, "note": 58, "velocity": 98, "channel": 0}, {"type": "note_on", "time": 15, "note": 62, "velocity": 111, "channel": 0}, {"type": "note_off", "time": 97, "note": 62, "velocity": 111, "channel": 0}, {"type": "note_on", "time": 10, "note": 60, "velocity": 109, "channel": 0}, {"type": "note_off", "time": 56, "note": 60, "velocity": 109, "channel": 0}, {"type": "note_on", "time": 31, "note": 56, "velocity": 111, "channel": 0}, {"type": "note_off", "time": 90, "note": 56, "velocity": 111, "channel": 0}, {"type": "note_on", "time": 99, "note": 55, "velocity": 102, "channel": 0}, {"type": "note_off", "time": 87, "note": 55, "velocity": 102, "channel": 0}, {"type": "note_on", "time": 15, "note": 58, "velocity": 106, "channel": 0}, {"type": "note_off", "time": 79, "note": 58, "velocity": 106, "channel": 0}, {"type": "note_on", "time": 20, "note": 55, "velocity": 106, "channel": 0}, {"type": "note_off", "time": 77, "note": 55, "velocity": 106, "channel": 0}, {"type": "note_on", "time": 7, "note": 57, "velocity": 111, "channel": 0}, {"type": "note_off", "time": 72, "note": 57, "velocity": 111, "channel": 0}, {"type": "note_on", "time": 0, "note": 55, "velocity": 104, "channel": 0}, {"type": "note_off", "time": 195, "note": 55, "velocity": 104, "channel": 0}, {"type": "note_on", "time": 694, "note": 56, "velocity": 107, "channel": 0}, {"type": "note_off", "time": 629, "note": 56, "velocity": 107, "channel": 0}, {"type": "note_on", "time": 25, "note": 56, "velocity": 101, "channel": 0}, {"type": "note_off", "time": 86, "note": 56, "velocity": 101, "channel": 0}, {"type": "note_on", "time": 16, "note": 58, "velocity": 106, "channel": 0}, {"type": "note_off", "time": 64, "note": 58, "velocity": 106, "channel": 0}, {"type": "note_on", "time": 7, "note": 59, "velocity": 110, "channel": 0}, {"type": "note_off", "time": 90, "note": 59, "velocity": 110, "channel": 0}, {"type": "note_on", "time": 20, "note": 62, "velocity": 111, "channel": 0}, {"type": "note_off", "time": 64, "note": 62, "velocity": 111, "channel": 0}, {"type": "note_on", "time": 7, "note": 63, "velocity": 118, "channel": 0}, {"type": "note_off", "time": 131, "note": 63, "velocity": 118, "channel": 0}, {"type": "note_on", "time": 11, "note": 65, "velocity": 119, "channel": 0}, {"type": "note_off", "time": 31, "note": 65, "velocity": 119, "channel": 0}, {"type": "note_on", "time": 0, "note": 66, "velocity": 117, "channel": 0}, {"type": "note_off", "time": 283, "note": 66, "velocity": 117, "channel": 0}, {"type": "note_on", "time": 6, "note": 65, "velocity": 99, "channel": 0}, {"type": "note_off", "time": 103, "note": 65, "velocity": 99, "channel": 0}, {"type": "note_on", "time": 1028, "note": 69, "velocity": 121, "channel": 0}, {"type": "note_off", "time": 106, "note": 69, "velocity": 121, "channel": 0}, {"type": "note_on", "time": 10, "note": 72, "velocity": 120, "channel": 0}, {"type": "note_off", "time": 475, "note": 72, "velocity": 120, "channel": 0}, {"type": "note_on", "time": 15, "note": 70, "velocity": 114, "channel": 0}, {"type": "note_off", "time": 105, "note": 70, "velocity": 114, "channel": 0}, {"type": "note_on", "time": 10, "note": 72, "velocity": 115, "channel": 0}, {"type": "note_off", "time": 69, "note": 72, "velocity": 115, "channel": 0}, {"type": "note_on", "time": 12, "note": 70, "velocity": 113, "channel": 0}, {"type": "note_off", "time": 102, "note": 70, "velocity": 113, "channel": 0}, {"type": "note_on", "time": 5, "note": 67, "velocity": 104, "channel": 0}, {"type": "note_off", "time": 69, "note": 67, "velocity": 104, "channel": 0}, {"type": "note_on", "time": 608, "note": 67, "velocity": 108, "channel": 0}, {"type": "note_off", "time": 84, "note": 67, "velocity": 108, "channel": 0}, {"type": "note_on", "time": 14, "note": 64, "velocity": 107, "channel": 0}, {"type": "note_off", "time": 84, "note": 64, "velocity": 107, "channel": 0}, {"type": "note_on", "time": 12, "note": 67, "velocity": 114, "channel": 0}, {"type": "note_off", "time": 105, "note": 67, "velocity": 114, "channel": 0}, {"type": "note_on", "time": 10, "note": 66, "velocity": 115, "channel": 0}, {"type": "note_off", "time": 66, "note": 66, "velocity": 115, "channel": 0}, {"type": "note_on", "time": 28, "note": 63, "velocity": 117, "channel": 0}, {"type": "note_off", "time": 87, "note": 63, "velocity": 117, "channel": 0}, {"type": "note_on", "time": 18, "note": 58, "velocity": 113, "channel": 0}, {"type": "note_off", "time": 110, "note": 58, "velocity": 113, "channel": 0}, {"type": "note_on", "time": 25, "note": 63, "velocity": 120, "channel": 0}, {"type": "note_off", "time": 141, "note": 63, "velocity": 120, "channel": 0}, {"type": "note_on", "time": 20, "note": 60, "velocity": 113, "channel": 0}, {"type": "note_off", "time": 69, "note": 60, "velocity": 113, "channel": 0}, {"type": "note_on", "time": 28, "note": 56, "velocity": 109, "channel": 0}, {"type": "note_off", "time": 79, "note": 56, "velocity": 109, "channel": 0}, {"type": "note_on", "time": 485, "note": 56, "velocity": 114, "channel": 0}, {"type": "note_off", "time": 90, "note": 56, "velocity": 114, "channel": 0}, {"type": "note_on", "time": 179, "note": 55, "velocity": 109, "channel": 0}, {"type": "note_off", "time": 50, "note": 55, "velocity": 109, "channel": 0}, {"type": "note_on", "time": 0, "note": 58, "velocity": 109, "channel": 0}, {"type": "note_off", "time": 72, "note": 58, "velocity": 109, "channel": 0}, {"type": "note_on", "time": 23, "note": 54, "velocity": 107, "channel": 0}, {"type": "note_off", "time": 83, "note": 54, "velocity": 107, "channel": 0}, {"type": "note_on", "time": 5, "note": 55, "velocity": 108, "channel": 0}, {"type": "note_off", "time": 77, "note": 55, "velocity": 108, "channel": 0}, {"type": "note_on", "time": 158, "note": 63, "velocity": 93, "channel": 0}, {"type": "note_off", "time": 41, "note": 63, "velocity": 93, "channel": 0}, {"type": "note_on", "time": 19, "note": 65, "velocity": 117, "channel": 0}, {"type": "note_on", "time": 103, "note": 62, "velocity": 99, "channel": 0}, {"type": "note_off", "time": 0, "note": 65, "velocity": 117, "channel": 0}, {"type": "note_off", "time": 45, "note": 62, "velocity": 99, "channel": 0}, {"type": "note_on", "time": 10, "note": 63, "velocity": 95, "channel": 0}, {"type": "note_off", "time": 117, "note": 63, "velocity": 95, "channel": 0}, {"type": "note_on", "time": 21, "note": 64, "velocity": 119, "channel": 0}, {"type": "note_off", "time": 104, "note": 64, "velocity": 119, "channel": 0}, {"type": "track_name", "name": "Melody", "time": 510}, {"type": "set_tempo", "tempo": 216606, "time": 0}, {"type": "key_signature", "key": "Db", "time": 0}, {"type": "time_signature", "numerator": 4, "denominator": 4, "clocks_per_click": 24, "notated_32nd_notes_per_beat": 8, "time": 0}, {"type": "note_on", "time": 561, "note": 67, "velocity": 112, "channel": 0}, {"type": "note_off", "time": 92, "note": 67, "velocity": 112, "channel": 0}, {"type": "note_on", "time": 12, "note": 69, "velocity": 117, "channel": 0}, {"type": "note_off", "time": 66, "note": 69, "velocity": 117, "channel": 0}, {"type": "note_on", "time": 23, "note": 65, "velocity": 114, "channel": 0}, {"type": "note_off", "time": 90, "note": 65, "velocity": 114, "channel": 0}, {"type": "note_on", "time": 12, "note": 62, "velocity": 114, "channel": 0}, {"type": "note_off", "time": 83, "note": 62, "velocity": 114, "channel": 0}, {"type": "note_on", "time": 293, "note": 62, "velocity": 112, "channel": 0}, {"type": "note_on", "time": 112, "note": 61, "velocity": 102, "channel": 0}, {"type": "note_off", "time": 0, "note": 62, "velocity": 112, "channel": 0}, {"type": "note_off", "time": 70, "note": 61, "velocity": 102, "channel": 0}, {"type": "note_on", "time": 0, "note": 64, "velocity": 118, "channel": 0}, {"type": "note_off", "time": 92, "note": 64, "velocity": 118, "channel": 0}, {"type": "note_on", "time": 16, "note": 62, "velocity": 114, "channel": 0}, {"type": "note_off", "time": 72, "note": 62, "velocity": 114, "channel": 0}, {"type": "note_on", "time": 34, "note": 59, "velocity": 109, "channel": 0}, {"type": "note_off", "time": 66, "note": 59, "velocity": 109, "channel": 0}, {"type": "note_on", "time": 59, "note": 55, "velocity": 99, "channel": 0}, {"type": "note_off", "time": 81, "note": 55, "velocity": 99, "channel": 0}, {"type": "note_on", "time": 88, "note": 60, "velocity": 115, "channel": 0}, {"type": "note_off", "time": 77, "note": 60, "velocity": 115, "channel": 0}, {"type": "note_on", "time": 19, "note": 56, "velocity": 104, "channel": 0}, {"type": "note_off", "time": 86, "note": 56, "velocity": 104, "channel": 0}, {"type": "note_on", "time": 1183, "note": 69, "velocity": 124, "channel": 0}, {"type": "note_off", "time": 68, "note": 69, "velocity": 124, "channel": 0}, {"type": "note_on", "time": 18, "note": 68, "velocity": 112, "channel": 0}, {"type": "note_off", "time": 45, "note": 68, "velocity": 112, "channel": 0}, {"type": "note_on", "time": 21, "note": 66, "velocity": 115, "channel": 0}, {"type": "note_off", "time": 85, "note": 66, "velocity": 115, "channel": 0}, {"type": "note_on", "time": 16, "note": 69, "velocity": 120, "channel": 0}, {"type": "note_off", "time": 68, "note": 69, "velocity": 120, "channel": 0}, {"type": "note_on", "time": 18, "note": 67, "velocity": 114, "channel": 0}, {"type": "note_off", "time": 90, "note": 67, "velocity": 114, "channel": 0}, {"type": "note_on", "time": 10, "note": 65, "velocity": 113, "channel": 0}, {"type": "note_off", "time": 63, "note": 65, "velocity": 113, "channel": 0}, {"type": "note_on", "time": 10, "note": 64, "velocity": 112, "channel": 0}, {"type": "note_off", "time": 108, "note": 64, "velocity": 112, "channel": 0}, {"type": "note_on", "time": 21, "note": 63, "velocity": 109, "channel": 0}, {"type": "note_off", "time": 57, "note": 63, "velocity": 109, "channel": 0}, {"type": "note_on", "time": 23, "note": 62, "velocity": 110, "channel": 0}, {"type": "note_off", "time": 103, "note": 62, "velocity": 110, "channel": 0}, {"type": "note_on", "time": 30, "note": 61, "velocity": 110, "channel": 0}, {"type": "note_off", "time": 47, "note": 61, "velocity": 110, "channel": 0}, {"type": "note_on", "time": 9, "note": 60, "velocity": 104, "channel": 0}, {"type": "note_off", "time": 77, "note": 60, "velocity": 104, "channel": 0}, {"type": "note_on", "time": 25, "note": 59, "velocity": 102, "channel": 0}, {"type": "note_off", "time": 52, "note": 59, "velocity": 102, "channel": 0}, {"type": "note_on", "time": 15, "note": 58, "velocity": 98, "channel": 0}, {"type": "note_off", "time": 84, "note": 58, "velocity": 98, "channel": 0}, {"type": "note_on", "time": 330, "note": 57, "velocity": 106, "channel": 0}, {"type": "note_off", "time": 66, "note": 57, "velocity": 106, "channel": 0}, {"type": "note_on", "time": 19, "note": 55, "velocity": 102, "channel": 0}, {"type": "note_off", "time": 63, "note": 55, "velocity": 102, "channel": 0}, {"type": "note_on", "time": 16, "note": 54, "velocity": 99, "channel": 0}, {"type": "note_off", "time": 81, "note": 54, "velocity": 99, "channel": 0}, {"type": "note_on", "time": 32, "note": 57, "velocity": 105, "channel": 0}, {"type": "note_off", "time": 61, "note": 57, "velocity": 105, "channel": 0}, {"type": "note_on", "time": 3, "note": 55, "velocity": 100, "channel": 0}, {"type": "note_off", "time": 81, "note": 55, "velocity": 100, "channel": 0}, {"type": "note_on", "time": 46, "note": 57, "velocity": 109, "channel": 0}, {"type": "note_off", "time": 61, "note": 57, "velocity": 109, "channel": 0}, {"type": "note_on", "time": 19, "note": 58, "velocity": 108, "channel": 0}, {"type": "note_off", "time": 82, "note": 58, "velocity": 108, "channel": 0}, {"type": "note_on", "time": 16, "note": 60, "velocity": 110, "channel": 0}, {"type": "note_off", "time": 74, "note": 60, "velocity": 110, "channel": 0}, {"type": "note_on", "time": 9, "note": 62, "velocity": 108, "channel": 0}, {"type": "note_off", "time": 101, "note": 62, "velocity": 108, "channel": 0}, {"type": "note_on", "time": 23, "note": 58, "velocity": 107, "channel": 0}, {"type": "note_off", "time": 43, "note": 58, "velocity": 107, "channel": 0}, {"type": "note_on", "time": 25, "note": 57, "velocity": 102, "channel": 0}, {"type": "note_off", "time": 65, "note": 57, "velocity": 102, "channel": 0}, {"type": "note_on", "time": 64, "note": 55, "velocity": 103, "channel": 0}, {"type": "note_off", "time": 50, "note": 55, "velocity": 103, "channel": 0}, {"type": "note_on", "time": 37, "note": 60, "velocity": 106, "channel": 0}, {"type": "note_off", "time": 83, "note": 60, "velocity": 106, "channel": 0}, {"type": "note_on", "time": 254, "note": 54, "velocity": 112, "channel": 0}, {"type": "note_off", "time": 51, "note": 54, "velocity": 112, "channel": 0}, {"type": "note_on", "time": 0, "note": 58, "velocity": 111, "channel": 0}, {"type": "note_off", "time": 73, "note": 58, "velocity": 111, "channel": 0}, {"type": "note_on", "time": 5, "note": 55, "velocity": 103, "channel": 0}, {"type": "note_off", "time": 52, "note": 55, "velocity": 103, "channel": 0}, {"type": "note_on", "time": 0, "note": 56, "velocity": 98, "channel": 0}, {"type": "note_off", "time": 84, "note": 56, "velocity": 98, "channel": 0}, {"type": "note_on", "time": 32, "note": 58, "velocity": 109, "channel": 0}, {"type": "note_off", "time": 70, "note": 58, "velocity": 109, "channel": 0}, {"type": "note_on", "time": 45, "note": 55, "velocity": 103, "channel": 0}, {"type": "note_off", "time": 56, "note": 55, "velocity": 103, "channel": 0}, {"type": "note_on", "time": 12, "note": 58, "velocity": 112, "channel": 0}, {"type": "note_off", "time": 78, "note": 58, "velocity": 112, "channel": 0}, {"type": "note_on", "time": 12, "note": 55, "velocity": 109, "channel": 0}, {"type": "note_off", "time": 73, "note": 55, "velocity": 109, "channel": 0}, {"type": "note_on", "time": 7, "note": 53, "velocity": 108, "channel": 0}, {"type": "note_off", "time": 73, "note": 53, "velocity": 108, "channel": 0}, {"type": "note_on", "time": 11, "note": 51, "velocity": 109, "channel": 0}, {"type": "note_off", "time": 90, "note": 51, "velocity": 109, "channel": 0}, {"type": "note_on", "time": 38, "note": 55, "velocity": 108, "channel": 0}, {"type": "note_off", "time": 82, "note": 55, "velocity": 108, "channel": 0}, {"type": "note_on", "time": 5, "note": 53, "velocity": 113, "channel": 0}, {"type": "note_off", "time": 65, "note": 53, "velocity": 113, "channel": 0}, {"type": "note_on", "time": 6, "note": 55, "velocity": 110, "channel": 0}, {"type": "note_off", "time": 72, "note": 55, "velocity": 110, "channel": 0}, {"type": "note_on", "time": 0, "note": 56, "velocity": 104, "channel": 0}, {"type": "note_off", "time": 108, "note": 56, "velocity": 104, "channel": 0}, {"type": "note_on", "time": 24, "note": 58, "velocity": 110, "channel": 0}, {"type": "note_off", "time": 81, "note": 58, "velocity": 110, "channel": 0}, {"type": "note_on", "time": 28, "note": 60, "velocity": 111, "channel": 0}, {"type": "note_off", "time": 77, "note": 60, "velocity": 111, "channel": 0}, {"type": "note_on", "time": 587, "note": 59, "velocity": 112, "channel": 0}, {"type": "note_off", "time": 271, "note": 59, "velocity": 112, "channel": 0}, {"type": "note_on", "time": 25, "note": 55, "velocity": 101, "channel": 0}, {"type": "note_off", "time": 74, "note": 55, "velocity": 101, "channel": 0}, {"type": "note_on", "time": 0, "note": 62, "velocity": 118, "channel": 0}, {"type": "note_off", "time": 297, "note": 62, "velocity": 118, "channel": 0}, {"type": "note_on", "time": 51, "note": 56, "velocity": 108, "channel": 0}, {"type": "note_off", "time": 66, "note": 56, "velocity": 108, "channel": 0}, {"type": "note_on", "time": 15, "note": 63, "velocity": 113, "channel": 0}, {"type": "note_off", "time": 294, "note": 63, "velocity": 113, "channel": 0}, {"type": "note_on", "time": 28, "note": 61, "velocity": 101, "channel": 0}, {"type": "note_off", "time": 102, "note": 61, "velocity": 101, "channel": 0}, {"type": "note_on", "time": 9, "note": 64, "velocity": 106, "channel": 0}, {"type": "note_off", "time": 160, "note": 64, "velocity": 106, "channel": 0}, {"type": "note_on", "time": 558, "note": 55, "velocity": 104, "channel": 0}, {"type": "note_off", "time": 81, "note": 55, "velocity": 104, "channel": 0}, {"type": "note_on", "time": 3, "note": 57, "velocity": 106, "channel": 0}, {"type": "note_off", "time": 65, "note": 57, "velocity": 106, "channel": 0}, {"type": "note_on", "time": 11, "note": 58, "velocity": 108, "channel": 0}, {"type": "note_off", "time": 111, "note": 58, "velocity": 108, "channel": 0}, {"type": "note_on", "time": 20, "note": 60, "velocity": 114, "channel": 0}, {"type": "note_off", "time": 129, "note": 60, "velocity": 114, "channel": 0}, {"type": "note_on", "time": 19, "note": 62, "velocity": 116, "channel": 0}, {"type": "note_off", "time": 146, "note": 62, "velocity": 116, "channel": 0}, {"type": "note_on", "time": 92, "note": 60, "velocity": 116, "channel": 0}, {"type": "note_off", "time": 158, "note": 60, "velocity": 116, "channel": 0}, {"type": "note_on", "time": 14, "note": 58, "velocity": 107, "channel": 0}, {"type": "note_off", "time": 102, "note": 58, "velocity": 107, "channel": 0}, {"type": "note_on", "time": 16, "note": 60, "velocity": 118, "channel": 0}, {"type": "note_off", "time": 250, "note": 60, "velocity": 118, "channel": 0}, {"type": "note_on", "time": 566, "note": 60, "velocity": 104, "channel": 0}, {"type": "note_off", "time": 83, "note": 60, "velocity": 104, "channel": 0}, {"type": "note_on", "time": 104, "note": 65, "velocity": 117, "channel": 0}, {"type": "note_off", "time": 235, "note": 65, "velocity": 117, "channel": 0}, {"type": "note_on", "time": 15, "note": 62, "velocity": 114, "channel": 0}, {"type": "note_off", "time": 146, "note": 62, "velocity": 114, "channel": 0}, {"type": "note_on", "time": 38, "note": 58, "velocity": 105, "channel": 0}, {"type": "note_off", "time": 52, "note": 58, "velocity": 105, "channel": 0}, {"type": "note_on", "time": 60, "note": 67, "velocity": 106, "channel": 0}, {"type": "note_off", "time": 696, "note": 67, "velocity": 106, "channel": 0}, {"type": "note_on", "time": 10, "note": 66, "velocity": 117, "channel": 0}, {"type": "note_off", "time": 79, "note": 66, "velocity": 117, "channel": 0}, {"type": "note_on", "time": 19, "note": 65, "velocity": 113, "channel": 0}, {"type": "note_off", "time": 92, "note": 65, "velocity": 113, "channel": 0}, {"type": "note_on", "time": 16, "note": 64, "velocity": 112, "channel": 0}, {"type": "note_off", "time": 68, "note": 64, "velocity": 112, "channel": 0}, {"type": "note_on", "time": 10, "note": 63, "velocity": 113, "channel": 0}, {"type": "note_off", "time": 92, "note": 63, "velocity": 113, "channel": 0}, {"type": "note_on", "time": 12, "note": 62, "velocity": 114, "channel": 0}, {"type": "note_off", "time": 88, "note": 62, "velocity": 114, "channel": 0}, {"type": "note_on", "time": 12, "note": 60, "velocity": 107, "channel": 0}, {"type": "note_off", "time": 100, "note": 60, "velocity": 107, "channel": 0}, {"type": "note_on", "time": 9, "note": 58, "velocity": 106, "channel": 0}, {"type": "note_off", "time": 84, "note": 58, "velocity": 106, "channel": 0}, {"type": "note_on", "time": 35, "note": 57, "velocity": 102, "channel": 0}, {"type": "note_off", "time": 63, "note": 57, "velocity": 102, "channel": 0}, {"type": "note_on", "time": 10, "note": 55, "velocity": 99, "channel": 0}, {"type": "note_off", "time": 77, "note": 55, "velocity": 99, "channel": 0}, {"type": "note_on", "time": 2, "note": 57, "velocity": 107, "channel": 0}, {"type": "note_off", "time": 95, "note": 57, "velocity": 107, "channel": 0}, {"type": "note_on", "time": 317, "note": 58, "velocity": 110, "channel": 0}, {"type": "note_off", "time": 64, "note": 58, "velocity": 110, "channel": 0}, {"type": "note_on", "time": 23, "note": 60, "velocity": 109, "channel": 0}, {"type": "note_off", "time": 61, "note": 60, "velocity": 109, "channel": 0}, {"type": "note_on", "time": 11, "note": 62, "velocity": 113, "channel": 0}, {"type": "note_off", "time": 99, "note": 62, "velocity": 113, "channel": 0}, {"type": "note_on", "time": 235, "note": 60, "velocity": 110, "channel": 0}, {"type": "note_off", "time": 50, "note": 60, "velocity": 110, "channel": 0}, {"type": "note_on", "time": 9, "note": 62, "velocity": 113, "channel": 0}, {"type": "note_off", "time": 92, "note": 62, "velocity": 113, "channel": 0}, {"type": "note_on", "time": 6, "note": 63, "velocity": 111, "channel": 0}, {"type": "note_off", "time": 105, "note": 63, "velocity": 111, "channel": 0}, {"type": "note_on", "time": 223, "note": 62, "velocity": 112, "channel": 0}, {"type": "note_off", "time": 66, "note": 62, "velocity": 112, "channel": 0}, {"type": "note_on", "time": 6, "note": 63, "velocity": 107, "channel": 0}, {"type": "note_off", "time": 43, "note": 63, "velocity": 107, "channel": 0}, {"type": "note_on", "time": 29, "note": 65, "velocity": 107, "channel": 0}, {"type": "note_off", "time": 106, "note": 65, "velocity": 107, "channel": 0}, {"type": "note_on", "time": 302, "note": 64, "velocity": 116, "channel": 0}, {"type": "note_off", "time": 86, "note": 64, "velocity": 116, "channel": 0}, {"type": "note_on", "time": 12, "note": 65, "velocity": 115, "channel": 0}, {"type": "note_off", "time": 64, "note": 65, "velocity": 115, "channel": 0}, {"type": "note_on", "time": 6, "note": 67, "velocity": 110, "channel": 0}, {"type": "note_off", "time": 74, "note": 67, "velocity": 110, "channel": 0}, {"type": "note_on", "time": 347, "note": 65, "velocity": 109, "channel": 0}, {"type": "note_off", "time": 88, "note": 65, "velocity": 109, "channel": 0}, {"type": "note_on", "time": 5, "note": 67, "velocity": 107, "channel": 0}, {"type": "note_off", "time": 45, "note": 67, "velocity": 107, "channel": 0}, {"type": "note_on", "time": 5, "note": 69, "velocity": 124, "channel": 0}, {"type": "note_off", "time": 81, "note": 69, "velocity": 124, "channel": 0}, {"type": "note_on", "time": 159, "note": 67, "velocity": 104, "channel": 0}, {"type": "note_off", "time": 84, "note": 67, "velocity": 104, "channel": 0}, {"type": "note_on", "time": 2, "note": 68, "velocity": 110, "channel": 0}, {"type": "note_off", "time": 46, "note": 68, "velocity": 110, "channel": 0}, {"type": "note_on", "time": 16, "note": 70, "velocity": 106, "channel": 0}, {"type": "note_off", "time": 47, "note": 70, "velocity": 106, "channel": 0}, {"type": "note_on", "time": 340, "note": 69, "velocity": 107, "channel": 0}, {"type": "note_off", "time": 82, "note": 69, "velocity": 107, "channel": 0}, {"type": "note_on", "time": 19, "note": 70, "velocity": 119, "channel": 0}, {"type": "note_off", "time": 75, "note": 70, "velocity": 119, "channel": 0}, {"type": "note_on", "time": 3, "note": 72, "velocity": 119, "channel": 0}, {"type": "note_off", "time": 102, "note": 72, "velocity": 119, "channel": 0}, {"type": "note_on", "time": 941, "note": 55, "velocity": 94, "channel": 0}, {"type": "note_off", "time": 63, "note": 55, "velocity": 94, "channel": 0}, {"type": "note_on", "time": 133, "note": 62, "velocity": 94, "channel": 0}, {"type": "note_off", "time": 60, "note": 62, "velocity": 94, "channel": 0}, {"type": "note_on", "time": 29, "note": 70, "velocity": 114, "channel": 0}, {"type": "note_on", "time": 46, "note": 72, "velocity": 122, "channel": 0}, {"type": "note_off", "time": 0, "note": 70, "velocity": 114, "channel": 0}, {"type": "note_off", "time": 59, "note": 72, "velocity": 122, "channel": 0}, {"type": "note_on", "time": 3, "note": 73, "velocity": 122, "channel": 0}, {"type": "note_off", "time": 56, "note": 73, "velocity": 122, "channel": 0}, {"type": "note_on", "time": 3, "note": 72, "velocity": 123, "channel": 0}, {"type": "note_off", "time": 64, "note": 72, "velocity": 123, "channel": 0}, {"type": "note_on", "time": 14, "note": 71, "velocity": 120, "channel": 0}, {"type": "note_off", "time": 64, "note": 71, "velocity": 120, "channel": 0}, {"type": "note_on", "time": 11, "note": 70, "velocity": 122, "channel": 0}, {"type": "note_off", "time": 88, "note": 70, "velocity": 122, "channel": 0}, {"type": "note_on", "time": 5, "note": 68, "velocity": 115, "channel": 0}, {"type": "note_off", "time": 78, "note": 68, "velocity": 115, "channel": 0}, {"type": "note_on", "time": 18, "note": 66, "velocity": 112, "channel": 0}, {"type": "note_off", "time": 84, "note": 66, "velocity": 112, "channel": 0}, {"type": "note_on", "time": 15, "note": 65, "velocity": 109, "channel": 0}, {"type": "note_off", "time": 59, "note": 65, "velocity": 109, "channel": 0}, {"type": "note_on", "time": 32, "note": 63, "velocity": 113, "channel": 0}, {"type": "note_off", "time": 90, "note": 63, "velocity": 113, "channel": 0}, {"type": "note_on", "time": 2, "note": 61, "velocity": 106, "channel": 0}, {"type": "note_off", "time": 73, "note": 61, "velocity": 106, "channel": 0}, {"type": "note_on", "time": 23, "note": 59, "velocity": 100, "channel": 0}, {"type": "note_off", "time": 92, "note": 59, "velocity": 100, "channel": 0}, {"type": "note_on", "time": 2, "note": 58, "velocity": 105, "channel": 0}, {"type": "note_off", "time": 51, "note": 58, "velocity": 105, "channel": 0}, {"type": "note_on", "time": 65, "note": 56, "velocity": 102, "channel": 0}, {"type": "note_off", "time": 51, "note": 56, "velocity": 102, "channel": 0}, {"type": "note_on", "time": 29, "note": 53, "velocity": 119, "channel": 0}, {"type": "note_off", "time": 92, "note": 53, "velocity": 119, "channel": 0}, {"type": "note_on", "time": 61, "note": 57, "velocity": 116, "channel": 0}, {"type": "note_off", "time": 69, "note": 57, "velocity": 116, "channel": 0}, {"type": "note_on", "time": 2, "note": 58, "velocity": 105, "channel": 0}, {"type": "note_off", "time": 73, "note": 58, "velocity": 105, "channel": 0}, {"type": "note_on", "time": 1, "note": 60, "velocity": 107, "channel": 0}, {"type": "note_off", "time": 82, "note": 60, "velocity": 107, "channel": 0}, {"type": "note_on", "time": 14, "note": 62, "velocity": 115, "channel": 0}, {"type": "note_off", "time": 66, "note": 62, "velocity": 115, "channel": 0}, {"type": "note_on", "time": 14, "note": 64, "velocity": 112, "channel": 0}, {"type": "note_off", "time": 82, "note": 64, "velocity": 112, "channel": 0}, {"type": "note_on", "time": 27, "note": 65, "velocity": 101, "channel": 0}, {"type": "note_off", "time": 57, "note": 65, "velocity": 101, "channel": 0}, {"type": "note_on", "time": 15, "note": 67, "velocity": 101, "channel": 0}, {"type": "note_off", "time": 78, "note": 67, "velocity": 101, "channel": 0}, {"type": "note_on", "time": 20, "note": 69, "velocity": 109, "channel": 0}, {"type": "note_off", "time": 100, "note": 69, "velocity": 109, "channel": 0}, {"type": "note_on", "time": 210, "note": 65, "velocity": 100, "channel": 0}, {"type": "note_off", "time": 45, "note": 65, "velocity": 100, "channel": 0}, {"type": "note_on", "time": 1, "note": 69, "velocity": 94, "channel": 0}, {"type": "note_off", "time": 39, "note": 69, "velocity": 94, "channel": 0}, {"type": "note_on", "time": 2, "note": 68, "velocity": 108, "channel": 0}, {"type": "note_off", "time": 97, "note": 68, "velocity": 108, "channel": 0}, {"type": "note_on", "time": 142, "note": 63, "velocity": 100, "channel": 0}, {"type": "note_off", "time": 32, "note": 63, "velocity": 100, "channel": 0}, {"type": "note_on", "time": 1, "note": 68, "velocity": 107, "channel": 0}, {"type": "note_off", "time": 99, "note": 68, "velocity": 107, "channel": 0}, {"type": "note_on", "time": 7, "note": 67, "velocity": 105, "channel": 0}, {"type": "note_off", "time": 92, "note": 67, "velocity": 105, "channel": 0}, {"type": "note_on", "time": 32, "note": 60, "velocity": 102, "channel": 0}, {"type": "note_off", "time": 59, "note": 60, "velocity": 102, "channel": 0}, {"type": "note_on", "time": 11, "note": 65, "velocity": 105, "channel": 0}, {"type": "note_off", "time": 79, "note": 65, "velocity": 105, "channel": 0}, {"type": "note_on", "time": 31, "note": 67, "velocity": 115, "channel": 0}, {"type": "note_off", "time": 86, "note": 67, "velocity": 115, "channel": 0}, {"type": "note_on", "time": 36, "note": 66, "velocity": 108, "channel": 0}, {"type": "note_off", "time": 41, "note": 66, "velocity": 108, "channel": 0}, {"type": "note_on", "time": 11, "note": 62, "velocity": 114, "channel": 0}, {"type": "note_off", "time": 90, "note": 62, "velocity": 114, "channel": 0}, {"type": "note_on", "time": 11, "note": 58, "velocity": 100, "channel": 0}, {"type": "note_off", "time": 100, "note": 58, "velocity": 100, "channel": 0}, {"type": "note_on", "time": 6, "note": 55, "velocity": 98, "channel": 0}, {"type": "note_off", "time": 51, "note": 55, "velocity": 98, "channel": 0}, {"type": "note_on", "time": 21, "note": 65, "velocity": 115, "channel": 0}, {"type": "note_off", "time": 106, "note": 65, "velocity": 115, "channel": 0}, {"type": "note_on", "time": 18, "note": 62, "velocity": 111, "channel": 0}, {"type": "note_off", "time": 66, "note": 62, "velocity": 111, "channel": 0}, {"type": "note_on", "time": 12, "note": 58, "velocity": 105, "channel": 0}, {"type": "note_off", "time": 72, "note": 58, "velocity": 105, "channel": 0}, {"type": "note_on", "time": 34, "note": 57, "velocity": 94, "channel": 0}, {"type": "note_on", "time": 55, "note": 64, "velocity": 116, "channel": 0}, {"type": "note_off", "time": 0, "note": 57, "velocity": 94, "channel": 0}, {"type": "note_off", "time": 115, "note": 64, "velocity": 116, "channel": 0}, {"type": "note_on", "time": 18, "note": 61, "velocity": 98, "channel": 0}, {"type": "note_off", "time": 61, "note": 61, "velocity": 98, "channel": 0}, {"type": "note_on", "time": 11, "note": 63, "velocity": 113, "channel": 0}, {"type": "note_off", "time": 51, "note": 63, "velocity": 113, "channel": 0}, {"type": "note_on", "time": 5, "note": 66, "velocity": 119, "channel": 0}, {"type": "note_off", "time": 96, "note": 66, "velocity": 119, "channel": 0}, {"type": "note_on", "time": 5, "note": 65, "velocity": 113, "channel": 0}, {"type": "note_off", "time": 29, "note": 65, "velocity": 113, "channel": 0}, {"type": "note_on", "time": 0, "note": 63, "velocity": 119, "channel": 0}, {"type": "note_off", "time": 84, "note": 63, "velocity": 119, "channel": 0}, {"type": "note_on", "time": 28, "note": 59, "velocity": 108, "channel": 0}, {"type": "note_off", "time": 114, "note": 59, "velocity": 108, "channel": 0}, {"type": "note_on", "time": 203, "note": 58, "velocity": 105, "channel": 0}, {"type": "note_off", "time": 84, "note": 58, "velocity": 105, "channel": 0}, {"type": "note_on", "time": 6, "note": 55, "velocity": 93, "channel": 0}, {"type": "note_off", "time": 34, "note": 55, "velocity": 93, "channel": 0}, {"type": "note_on", "time": 10, "note": 56, "velocity": 114, "channel": 0}, {"type": "note_off", "time": 93, "note": 56, "velocity": 114, "channel": 0}, {"type": "note_on", "time": 11, "note": 58, "velocity": 104, "channel": 0}, {"type": "note_off", "time": 66, "note": 58, "velocity": 104, "channel": 0}, {"type": "note_on", "time": 54, "note": 54, "velocity": 109, "channel": 0}, {"type": "note_off", "time": 59, "note": 54, "velocity": 109, "channel": 0}, {"type": "note_on", "time": 19, "note": 56, "velocity": 106, "channel": 0}, {"type": "note_off", "time": 70, "note": 56, "velocity": 106, "channel": 0}, {"type": "note_on", "time": 10, "note": 53, "velocity": 97, "channel": 0}, {"type": "note_off", "time": 86, "note": 53, "velocity": 97, "channel": 0}, {"type": "note_on", "time": 50, "note": 51, "velocity": 103, "channel": 0}, {"type": "note_off", "time": 122, "note": 51, "velocity": 103, "channel": 0}, {"type": "note_on", "time": 707, "note": 63, "velocity": 120, "channel": 0}, {"type": "note_off", "time": 82, "note": 63, "velocity": 120, "channel": 0}, {"type": "note_on", "time": 2, "note": 62, "velocity": 112, "channel": 0}, {"type": "note_off", "time": 127, "note": 62, "velocity": 112, "channel": 0}, {"type": "note_on", "time": 10, "note": 61, "velocity": 102, "channel": 0}, {"type": "note_off", "time": 43, "note": 61, "velocity": 102, "channel": 0}, {"type": "note_on", "time": 23, "note": 60, "velocity": 113, "channel": 0}, {"type": "note_off", "time": 84, "note": 60, "velocity": 113, "channel": 0}, {"type": "note_on", "time": 10, "note": 59, "velocity": 103, "channel": 0}, {"type": "note_off", "time": 81, "note": 59, "velocity": 103, "channel": 0}, {"type": "note_on", "time": 12, "note": 61, "velocity": 105, "channel": 0}, {"type": "note_off", "time": 101, "note": 61, "velocity": 105, "channel": 0}, {"type": "note_on", "time": 0, "note": 63, "velocity": 116, "channel": 0}, {"type": "note_off", "time": 104, "note": 63, "velocity": 116, "channel": 0}, {"type": "note_on", "time": 10, "note": 65, "velocity": 108, "channel": 0}, {"type": "note_off", "time": 60, "note": 65, "velocity": 108, "channel": 0}, {"type": "note_on", "time": 16, "note": 70, "velocity": 109, "channel": 0}, {"type": "note_off", "time": 111, "note": 70, "velocity": 109, "channel": 0}, {"type": "note_on", "time": 81, "note": 62, "velocity": 105, "channel": 0}, {"type": "note_off", "time": 56, "note": 62, "velocity": 105, "channel": 0}, {"type": "note_on", "time": 37, "note": 70, "velocity": 114, "channel": 0}, {"type": "note_off", "time": 74, "note": 70, "velocity": 114, "channel": 0}, {"type": "note_on", "time": 14, "note": 69, "velocity": 101, "channel": 0}, {"type": "note_off", "time": 322, "note": 69, "velocity": 101, "channel": 0}, {"type": "note_on", "time": 50, "note": 67, "velocity": 116, "channel": 0}, {"type": "note_off", "time": 135, "note": 67, "velocity": 116, "channel": 0}, {"type": "note_on", "time": 20, "note": 69, "velocity": 122, "channel": 0}, {"type": "note_off", "time": 108, "note": 69, "velocity": 122, "channel": 0}, {"type": "note_on", "time": 11, "note": 70, "velocity": 123, "channel": 0}, {"type": "note_off", "time": 105, "note": 70, "velocity": 123, "channel": 0}, {"type": "note_on", "time": 16, "note": 72, "velocity": 124, "channel": 0}, {"type": "note_off", "time": 101, "note": 72, "velocity": 124, "channel": 0}, {"type": "note_on", "time": 12, "note": 74, "velocity": 116, "channel": 0}, {"type": "note_off", "time": 110, "note": 74, "velocity": 116, "channel": 0}, {"type": "note_on", "time": 15, "note": 72, "velocity": 118, "channel": 0}, {"type": "note_off", "time": 91, "note": 72, "velocity": 118, "channel": 0}, {"type": "note_on", "time": 2, "note": 70, "velocity": 116, "channel": 0}, {"type": "note_off", "time": 117, "note": 70, "velocity": 116, "channel": 0}, {"type": "note_on", "time": 25, "note": 69, "velocity": 121, "channel": 0}, {"type": "note_off", "time": 91, "note": 69, "velocity": 121, "channel": 0}, {"type": "note_on", "time": 39, "note": 67, "velocity": 112, "channel": 0}, {"type": "note_off", "time": 92, "note": 67, "velocity": 112, "channel": 0}, {"type": "note_on", "time": 30, "note": 69, "velocity": 116, "channel": 0}, {"type": "note_off", "time": 97, "note": 69, "velocity": 116, "channel": 0}, {"type": "note_on", "time": 7, "note": 70, "velocity": 117, "channel": 0}, {"type": "note_off", "time": 95, "note": 70, "velocity": 117, "channel": 0}, {"type": "note_on", "time": 18, "note": 72, "velocity": 116, "channel": 0}, {"type": "note_off", "time": 129, "note": 72, "velocity": 116, "channel": 0}, {"type": "note_on", "time": 15, "note": 74, "velocity": 99, "channel": 0}, {"type": "note_off", "time": 51, "note": 74, "velocity": 99, "channel": 0}, {"type": "note_on", "time": 24, "note": 72, "velocity": 114, "channel": 0}, {"type": "note_off", "time": 113, "note": 72, "velocity": 114, "channel": 0}, {"type": "note_on", "time": 15, "note": 70, "velocity": 119, "channel": 0}, {"type": "note_off", "time": 79, "note": 70, "velocity": 119, "channel": 0}, {"type": "note_on", "time": 21, "note": 69, "velocity": 114, "channel": 0}, {"type": "note_off", "time": 87, "note": 69, "velocity": 114, "channel": 0}, {"type": "note_on", "time": 32, "note": 67, "velocity": 109, "channel": 0}, {"type": "note_off", "time": 165, "note": 67, "velocity": 109, "channel": 0}, {"type": "note_on", "time": 30, "note": 68, "velocity": 96, "channel": 0}, {"type": "note_off", "time": 104, "note": 68, "velocity": 96, "channel": 0}, {"type": "note_on", "time": 34, "note": 70, "velocity": 115, "channel": 0}, {"type": "note_off", "time": 122, "note": 70, "velocity": 115, "channel": 0}, {"type": "note_on", "time": 9, "note": 72, "velocity": 112, "channel": 0}, {"type": "note_off", "time": 97, "note": 72, "velocity": 112, "channel": 0}, {"type": "note_on", "time": 33, "note": 67, "velocity": 107, "channel": 0}, {"type": "note_off", "time": 109, "note": 67, "velocity": 107, "channel": 0}, {"type": "note_on", "time": 0, "note": 65, "velocity": 106, "channel": 0}, {"type": "note_off", "time": 114, "note": 65, "velocity": 106, "channel": 0}, {"type": "note_on", "time": 34, "note": 63, "velocity": 109, "channel": 0}, {"type": "note_off", "time": 289, "note": 63, "velocity": 109, "channel": 0}, {"type": "note_on", "time": 1181, "note": 65, "velocity": 102, "channel": 0}, {"type": "note_off", "time": 412, "note": 65, "velocity": 102, "channel": 0}, {"type": "note_on", "time": 63, "note": 69, "velocity": 115, "channel": 0}, {"type": "note_off", "time": 99, "note": 69, "velocity": 115, "channel": 0}, {"type": "note_on", "time": 16, "note": 67, "velocity": 102, "channel": 0}, {"type": "note_off", "time": 94, "note": 67, "velocity": 102, "channel": 0}, {"type": "note_on", "time": 16, "note": 65, "velocity": 96, "channel": 0}, {"type": "note_off", "time": 91, "note": 65, "velocity": 96, "channel": 0}, {"type": "note_on", "time": 0, "note": 69, "velocity": 119, "channel": 0}, {"type": "note_off", "time": 111, "note": 69, "velocity": 119, "channel": 0}, {"type": "note_on", "time": 78, "note": 64, "velocity": 111, "channel": 0}, {"type": "note_off", "time": 99, "note": 64, "velocity": 111, "channel": 0}, {"type": "note_on", "time": 65, "note": 67, "velocity": 114, "channel": 0}, {"type": "note_off", "time": 153, "note": 67, "velocity": 114, "channel": 0}, {"type": "note_on", "time": 10, "note": 65, "velocity": 112, "channel": 0}, {"type": "note_off", "time": 104, "note": 65, "velocity": 112, "channel": 0}, {"type": "note_on", "time": 32, "note": 73, "velocity": 103, "channel": 0}, {"type": "note_off", "time": 34, "note": 73, "velocity": 103, "channel": 0}, {"type": "note_on", "time": 6, "note": 74, "velocity": 111, "channel": 0}, {"type": "note_off", "time": 379, "note": 74, "velocity": 111, "channel": 0}, {"type": "note_on", "time": 4, "note": 72, "velocity": 106, "channel": 0}, {"type": "note_off", "time": 99, "note": 72, "velocity": 106, "channel": 0}, {"type": "note_on", "time": 23, "note": 70, "velocity": 116, "channel": 0}, {"type": "note_off", "time": 83, "note": 70, "velocity": 116, "channel": 0}, {"type": "note_on", "time": 18, "note": 69, "velocity": 99, "channel": 0}, {"type": "note_off", "time": 46, "note": 69, "velocity": 99, "channel": 0}, {"type": "note_on", "time": 25, "note": 67, "velocity": 106, "channel": 0}, {"type": "note_off", "time": 90, "note": 67, "velocity": 106, "channel": 0}, {"type": "note_on", "time": 12, "note": 66, "velocity": 110, "channel": 0}, {"type": "note_off", "time": 45, "note": 66, "velocity": 110, "channel": 0}, {"type": "note_on", "time": 16, "note": 64, "velocity": 108, "channel": 0}, {"type": "note_off", "time": 79, "note": 64, "velocity": 108, "channel": 0}, {"type": "note_on", "time": 3, "note": 63, "velocity": 112, "channel": 0}, {"type": "note_off", "time": 115, "note": 63, "velocity": 112, "channel": 0}, {"type": "note_on", "time": 12, "note": 61, "velocity": 108, "channel": 0}, {"type": "note_off", "time": 84, "note": 61, "velocity": 108, "channel": 0}, {"type": "note_on", "time": 14, "note": 60, "velocity": 105, "channel": 0}, {"type": "note_off", "time": 64, "note": 60, "velocity": 105, "channel": 0}, {"type": "note_on", "time": 24, "note": 58, "velocity": 104, "channel": 0}, {"type": "note_off", "time": 106, "note": 58, "velocity": 104, "channel": 0}, {"type": "note_on", "time": 7, "note": 57, "velocity": 111, "channel": 0}, {"type": "note_off", "time": 84, "note": 57, "velocity": 111, "channel": 0}, {"type": "note_on", "time": 7, "note": 55, "velocity": 105, "channel": 0}, {"type": "note_off", "time": 51, "note": 55, "velocity": 105, "channel": 0}, {"type": "note_on", "time": 19, "note": 53, "velocity": 106, "channel": 0}, {"type": "note_off", "time": 91, "note": 53, "velocity": 106, "channel": 0}, {"type": "note_on", "time": 14, "note": 55, "velocity": 101, "channel": 0}, {"type": "note_off", "time": 82, "note": 55, "velocity": 101, "channel": 0}, {"type": "note_on", "time": 6, "note": 56, "velocity": 105, "channel": 0}, {"type": "note_off", "time": 78, "note": 56, "velocity": 105, "channel": 0}, {"type": "note_on", "time": 15, "note": 58, "velocity": 104, "channel": 0}, {"type": "note_off", "time": 68, "note": 58, "velocity": 104, "channel": 0}, {"type": "note_on", "time": 12, "note": 59, "velocity": 100, "channel": 0}, {"type": "note_off", "time": 60, "note": 59, "velocity": 100, "channel": 0}, {"type": "note_on", "time": 51, "note": 58, "velocity": 112, "channel": 0}, {"type": "note_off", "time": 77, "note": 58, "velocity": 112, "channel": 0}, {"type": "note_on", "time": 25, "note": 63, "velocity": 109, "channel": 0}, {"type": "note_off", "time": 81, "note": 63, "velocity": 109, "channel": 0}, {"type": "note_on", "time": 3, "note": 64, "velocity": 106, "channel": 0}, {"type": "note_off", "time": 77, "note": 64, "velocity": 106, "channel": 0}, {"type": "note_on", "time": 20, "note": 66, "velocity": 115, "channel": 0}, {"type": "note_off", "time": 72, "note": 66, "velocity": 115, "channel": 0}, {"type": "note_on", "time": 19, "note": 67, "velocity": 105, "channel": 0}, {"type": "note_off", "time": 52, "note": 67, "velocity": 105, "channel": 0}, {"type": "note_on", "time": 16, "note": 69, "velocity": 111, "channel": 0}, {"type": "note_off", "time": 88, "note": 69, "velocity": 111, "channel": 0}, {"type": "note_on", "time": 20, "note": 70, "velocity": 98, "channel": 0}, {"type": "note_off", "time": 57, "note": 70, "velocity": 98, "channel": 0}, {"type": "note_on", "time": 21, "note": 72, "velocity": 102, "channel": 0}, {"type": "note_off", "time": 84, "note": 72, "velocity": 102, "channel": 0}, {"type": "note_on", "time": 37, "note": 67, "velocity": 107, "channel": 0}, {"type": "note_off", "time": 91, "note": 67, "velocity": 107, "channel": 0}, {"type": "note_on", "time": 14, "note": 65, "velocity": 98, "channel": 0}, {"type": "note_off", "time": 45, "note": 65, "velocity": 98, "channel": 0}, {"type": "note_on", "time": 3, "note": 63, "velocity": 94, "channel": 0}, {"type": "note_off", "time": 63, "note": 63, "velocity": 94, "channel": 0}, {"type": "note_on", "time": 419, "note": 68, "velocity": 119, "channel": 0}, {"type": "note_off", "time": 84, "note": 68, "velocity": 119, "channel": 0}, {"type": "note_on", "time": 10, "note": 66, "velocity": 113, "channel": 0}, {"type": "note_off", "time": 104, "note": 66, "velocity": 113, "channel": 0}, {"type": "note_on", "time": 3, "note": 63, "velocity": 120, "channel": 0}, {"type": "note_off", "time": 86, "note": 63, "velocity": 120, "channel": 0}, {"type": "note_on", "time": 23, "note": 59, "velocity": 104, "channel": 0}, {"type": "note_off", "time": 115, "note": 59, "velocity": 104, "channel": 0}, {"type": "note_on", "time": 59, "note": 59, "velocity": 109, "channel": 0}, {"type": "note_off", "time": 97, "note": 59, "velocity": 109, "channel": 0}, {"type": "note_on", "time": 5, "note": 63, "velocity": 105, "channel": 0}, {"type": "note_off", "time": 59, "note": 63, "velocity": 105, "channel": 0}, {"type": "note_on", "time": 14, "note": 65, "velocity": 107, "channel": 0}, {"type": "note_off", "time": 97, "note": 65, "velocity": 107, "channel": 0}, {"type": "note_on", "time": 32, "note": 70, "velocity": 112, "channel": 0}, {"type": "note_off", "time": 64, "note": 70, "velocity": 112, "channel": 0}, {"type": "note_on", "time": 33, "note": 66, "velocity": 99, "channel": 0}, {"type": "note_off", "time": 41, "note": 66, "velocity": 99, "channel": 0}, {"type": "note_on", "time": 14, "note": 68, "velocity": 109, "channel": 0}, {"type": "note_off", "time": 73, "note": 68, "velocity": 109, "channel": 0}, {"type": "note_on", "time": 19, "note": 68, "velocity": 111, "channel": 0}, {"type": "note_off", "time": 91, "note": 68, "velocity": 111, "channel": 0}, {"type": "note_on", "time": 23, "note": 66, "velocity": 119, "channel": 0}, {"type": "note_off", "time": 51, "note": 66, "velocity": 119, "channel": 0}, {"type": "note_on", "time": 12, "note": 66, "velocity": 112, "channel": 0}, {"type": "note_off", "time": 48, "note": 66, "velocity": 112, "channel": 0}, {"type": "note_on", "time": 0, "note": 62, "velocity": 113, "channel": 0}, {"type": "note_off", "time": 66, "note": 62, "velocity": 113, "channel": 0}, {"type": "note_on", "time": 20, "note": 58, "velocity": 104, "channel": 0}, {"type": "note_off", "time": 61, "note": 58, "velocity": 104, "channel": 0}, {"type": "note_on", "time": 29, "note": 54, "velocity": 97, "channel": 0}, {"type": "note_off", "time": 59, "note": 54, "velocity": 97, "channel": 0}, {"type": "note_on", "time": 43, "note": 64, "velocity": 114, "channel": 0}, {"type": "note_off", "time": 113, "note": 64, "velocity": 114, "channel": 0}, {"type": "note_on", "time": 11, "note": 62, "velocity": 111, "channel": 0}, {"type": "note_off", "time": 54, "note": 62, "velocity": 111, "channel": 0}, {"type": "note_on", "time": 47, "note": 55, "velocity": 97, "channel": 0}, {"type": "note_off", "time": 86, "note": 55, "velocity": 97, "channel": 0}, {"type": "note_on", "time": 5, "note": 53, "velocity": 95, "channel": 0}, {"type": "note_off", "time": 45, "note": 53, "velocity": 95, "channel": 0}, {"type": "note_on", "time": 1, "note": 55, "velocity": 101, "channel": 0}, {"type": "note_off", "time": 101, "note": 55, "velocity": 101, "channel": 0}, {"type": "note_on", "time": 11, "note": 61, "velocity": 109, "channel": 0}, {"type": "note_off", "time": 86, "note": 61, "velocity": 109, "channel": 0}, {"type": "note_on", "time": 235, "note": 56, "velocity": 107, "channel": 0}, {"type": "note_off", "time": 83, "note": 56, "velocity": 107, "channel": 0}, {"type": "note_on", "time": 45, "note": 56, "velocity": 24, "channel": 0}, {"type": "note_off", "time": 91, "note": 56, "velocity": 24, "channel": 0}, {"type": "note_on", "time": 11, "note": 59, "velocity": 108, "channel": 0}, {"type": "note_off", "time": 81, "note": 59, "velocity": 108, "channel": 0}, {"type": "note_on", "time": 28, "note": 56, "velocity": 112, "channel": 0}, {"type": "note_off", "time": 59, "note": 56, "velocity": 112, "channel": 0}, {"type": "note_on", "time": 38, "note": 54, "velocity": 109, "channel": 0}, {"type": "note_off", "time": 111, "note": 54, "velocity": 109, "channel": 0}, {"type": "note_on", "time": 665, "note": 56, "velocity": 111, "channel": 0}, {"type": "note_off", "time": 78, "note": 56, "velocity": 111, "channel": 0}, {"type": "note_on", "time": 0, "note": 54, "velocity": 112, "channel": 0}, {"type": "note_off", "time": 114, "note": 54, "velocity": 112, "channel": 0}, {"type": "note_on", "time": 6, "note": 53, "velocity": 95, "channel": 0}, {"type": "note_off", "time": 57, "note": 53, "velocity": 95, "channel": 0}, {"type": "note_on", "time": 32, "note": 55, "velocity": 107, "channel": 0}, {"type": "note_off", "time": 91, "note": 55, "velocity": 107, "channel": 0}, {"type": "note_on", "time": 123, "note": 55, "velocity": 93, "channel": 0}, {"type": "note_off", "time": 100, "note": 55, "velocity": 93, "channel": 0}, {"type": "note_on", "time": 82, "note": 55, "velocity": 108, "channel": 0}, {"type": "note_off", "time": 72, "note": 55, "velocity": 108, "channel": 0}, {"type": "note_on", "time": 231, "note": 55, "velocity": 106, "channel": 0}, {"type": "note_off", "time": 61, "note": 55, "velocity": 106, "channel": 0}, {"type": "note_on", "time": 7, "note": 54, "velocity": 99, "channel": 0}, {"type": "note_off", "time": 73, "note": 54, "velocity": 99, "channel": 0}, {"type": "note_on", "time": 33, "note": 55, "velocity": 104, "channel": 0}, {"type": "note_off", "time": 72, "note": 55, "velocity": 104, "channel": 0}, {"type": "note_on", "time": 0, "note": 58, "velocity": 104, "channel": 0}, {"type": "note_off", "time": 101, "note": 58, "velocity": 104, "channel": 0}, {"type": "note_on", "time": 14, "note": 62, "velocity": 114, "channel": 0}, {"type": "note_off", "time": 43, "note": 62, "velocity": 114, "channel": 0}, {"type": "note_on", "time": 15, "note": 65, "velocity": 118, "channel": 0}, {"type": "note_off", "time": 266, "note": 65, "velocity": 118, "channel": 0}, {"type": "note_on", "time": 5, "note": 64, "velocity": 117, "channel": 0}, {"type": "note_off", "time": 73, "note": 64, "velocity": 117, "channel": 0}, {"type": "note_on", "time": 16, "note": 63, "velocity": 115, "channel": 0}, {"type": "note_off", "time": 92, "note": 63, "velocity": 115, "channel": 0}, {"type": "note_on", "time": 11, "note": 62, "velocity": 111, "channel": 0}, {"type": "note_off", "time": 81, "note": 62, "velocity": 111, "channel": 0}, {"type": "note_on", "time": 10, "note": 61, "velocity": 107, "channel": 0}, {"type": "note_off", "time": 61, "note": 61, "velocity": 107, "channel": 0}, {"type": "note_on", "time": 12, "note": 60, "velocity": 108, "channel": 0}, {"type": "note_off", "time": 123, "note": 60, "velocity": 108, "channel": 0}, {"type": "note_on", "time": 5, "note": 59, "velocity": 105, "channel": 0}, {"type": "note_off", "time": 109, "note": 59, "velocity": 105, "channel": 0}, {"type": "note_on", "time": 12, "note": 61, "velocity": 105, "channel": 0}, {"type": "note_off", "time": 55, "note": 61, "velocity": 105, "channel": 0}, {"type": "note_on", "time": 173, "note": 65, "velocity": 101, "channel": 0}, {"type": "note_off", "time": 48, "note": 65, "velocity": 101, "channel": 0}, {"type": "note_on", "time": 9, "note": 70, "velocity": 124, "channel": 0}, {"type": "note_off", "time": 92, "note": 70, "velocity": 124, "channel": 0}, {"type": "note_on", "time": 69, "note": 70, "velocity": 117, "channel": 0}, {"type": "note_off", "time": 132, "note": 70, "velocity": 117, "channel": 0}, {"type": "note_on", "time": 1, "note": 68, "velocity": 115, "channel": 0}, {"type": "note_off", "time": 91, "note": 68, "velocity": 115, "channel": 0}, {"type": "note_on", "time": 56, "note": 68, "velocity": 110, "channel": 0}, {"type": "note_off", "time": 111, "note": 68, "velocity": 110, "channel": 0}, {"type": "note_on", "time": 16, "note": 66, "velocity": 113, "channel": 0}, {"type": "note_off", "time": 78, "note": 66, "velocity": 113, "channel": 0}, {"type": "note_on", "time": 25, "note": 66, "velocity": 111, "channel": 0}, {"type": "note_off", "time": 135, "note": 66, "velocity": 111, "channel": 0}, {"type": "note_on", "time": 5, "note": 65, "velocity": 104, "channel": 0}, {"type": "note_off", "time": 70, "note": 65, "velocity": 104, "channel": 0}, {"type": "note_on", "time": 20, "note": 65, "velocity": 107, "channel": 0}, {"type": "note_off", "time": 59, "note": 65, "velocity": 107, "channel": 0}, {"type": "note_on", "time": 20, "note": 63, "velocity": 102, "channel": 0}, {"type": "note_off", "time": 69, "note": 63, "velocity": 102, "channel": 0}, {"type": "note_on", "time": 499, "note": 62, "velocity": 109, "channel": 0}, {"type": "note_off", "time": 68, "note": 62, "velocity": 109, "channel": 0}, {"type": "note_on", "time": 20, "note": 64, "velocity": 104, "channel": 0}, {"type": "note_off", "time": 70, "note": 64, "velocity": 104, "channel": 0}, {"type": "note_on", "time": 18, "note": 65, "velocity": 103, "channel": 0}, {"type": "note_off", "time": 57, "note": 65, "velocity": 103, "channel": 0}, {"type": "note_on", "time": 10, "note": 67, "velocity": 101, "channel": 0}, {"type": "note_off", "time": 92, "note": 67, "velocity": 101, "channel": 0}, {"type": "note_on", "time": 310, "note": 69, "velocity": 111, "channel": 0}, {"type": "note_off", "time": 84, "note": 69, "velocity": 111, "channel": 0}, {"type": "note_on", "time": 7, "note": 67, "velocity": 110, "channel": 0}, {"type": "note_off", "time": 93, "note": 67, "velocity": 110, "channel": 0}, {"type": "note_on", "time": 102, "note": 64, "velocity": 115, "channel": 0}, {"type": "note_off", "time": 83, "note": 64, "velocity": 115, "channel": 0}, {"type": "note_on", "time": 491, "note": 64, "velocity": 122, "channel": 0}, {"type": "note_off", "time": 97, "note": 64, "velocity": 122, "channel": 0}, {"type": "note_on", "time": 15, "note": 67, "velocity": 116, "channel": 0}, {"type": "note_off", "time": 48, "note": 67, "velocity": 116, "channel": 0}, {"type": "note_on", "time": 19, "note": 65, "velocity": 115, "channel": 0}, {"type": "note_off", "time": 74, "note": 65, "velocity": 115, "channel": 0}, {"type": "note_on", "time": 16, "note": 63, "velocity": 121, "channel": 0}, {"type": "note_off", "time": 100, "note": 63, "velocity": 121, "channel": 0}, {"type": "note_on", "time": 15, "note": 60, "velocity": 112, "channel": 0}, {"type": "note_off", "time": 79, "note": 60, "velocity": 112, "channel": 0}, {"type": "note_on", "time": 5, "note": 56, "velocity": 112, "channel": 0}, {"type": "note_off", "time": 100, "note": 56, "velocity": 112, "channel": 0}, {"type": "note_on", "time": 10, "note": 55, "velocity": 105, "channel": 0}, {"type": "note_off", "time": 81, "note": 55, "velocity": 105, "channel": 0}, {"type": "note_on", "time": 25, "note": 53, "velocity": 105, "channel": 0}, {"type": "note_off", "time": 66, "note": 53, "velocity": 105, "channel": 0}, {"type": "note_on", "time": 29, "note": 58, "velocity": 114, "channel": 0}, {"type": "note_off", "time": 95, "note": 58, "velocity": 114, "channel": 0}, {"type": "note_on", "time": 2, "note": 57, "velocity": 115, "channel": 0}, {"type": "note_off", "time": 51, "note": 57, "velocity": 115, "channel": 0}, {"type": "note_on", "time": 15, "note": 56, "velocity": 112, "channel": 0}, {"type": "note_off", "time": 108, "note": 56, "velocity": 112, "channel": 0}, {"type": "note_on", "time": 7, "note": 58, "velocity": 108, "channel": 0}, {"type": "note_off", "time": 165, "note": 58, "velocity": 108, "channel": 0}, {"type": "note_on", "time": 10, "note": 52, "velocity": 109, "channel": 0}, {"type": "note_off", "time": 56, "note": 52, "velocity": 109, "channel": 0}, {"type": "note_on", "time": 9, "note": 54, "velocity": 111, "channel": 0}, {"type": "note_off", "time": 93, "note": 54, "velocity": 111, "channel": 0}, {"type": "note_on", "time": 2, "note": 55, "velocity": 111, "channel": 0}, {"type": "note_off", "time": 63, "note": 55, "velocity": 111, "channel": 0}, {"type": "note_on", "time": 10, "note": 57, "velocity": 113, "channel": 0}, {"type": "note_off", "time": 86, "note": 57, "velocity": 113, "channel": 0}, {"type": "note_on", "time": 20, "note": 59, "velocity": 112, "channel": 0}, {"type": "note_off", "time": 70, "note": 59, "velocity": 112, "channel": 0}, {"type": "note_on", "time": 27, "note": 61, "velocity": 120, "channel": 0}, {"type": "note_off", "time": 99, "note": 61, "velocity": 120, "channel": 0}, {"type": "note_on", "time": 42, "note": 65, "velocity": 119, "channel": 0}, {"type": "note_off", "time": 77, "note": 65, "velocity": 119, "channel": 0}, {"type": "note_on", "time": 11, "note": 63, "velocity": 114, "channel": 0}, {"type": "note_off", "time": 90, "note": 63, "velocity": 114, "channel": 0}, {"type": "note_on", "time": 23, "note": 58, "velocity": 109, "channel": 0}, {"type": "note_off", "time": 73, "note": 58, "velocity": 109, "channel": 0}, {"type": "note_on", "time": 174, "note": 63, "velocity": 108, "channel": 0}, {"type": "note_off", "time": 91, "note": 63, "velocity": 108, "channel": 0}, {"type": "note_on", "time": 15, "note": 61, "velocity": 113, "channel": 0}, {"type": "note_off", "time": 78, "note": 61, "velocity": 113, "channel": 0}, {"type": "note_on", "time": 2, "note": 56, "velocity": 117, "channel": 0}, {"type": "note_off", "time": 83, "note": 56, "velocity": 117, "channel": 0}, {"type": "note_on", "time": 139, "note": 53, "velocity": 110, "channel": 0}, {"type": "note_off", "time": 100, "note": 53, "velocity": 110, "channel": 0}, {"type": "note_on", "time": 397, "note": 57, "velocity": 112, "channel": 0}, {"type": "note_off", "time": 65, "note": 57, "velocity": 112, "channel": 0}, {"type": "note_on", "time": 14, "note": 55, "velocity": 104, "channel": 0}, {"type": "note_off", "time": 56, "note": 55, "velocity": 104, "channel": 0}, {"type": "note_on", "time": 11, "note": 53, "velocity": 103, "channel": 0}, {"type": "note_off", "time": 81, "note": 53, "velocity": 103, "channel": 0}, {"type": "note_on", "time": 16, "note": 57, "velocity": 112, "channel": 0}, {"type": "note_off", "time": 83, "note": 57, "velocity": 112, "channel": 0}, {"type": "note_on", "time": 29, "note": 52, "velocity": 112, "channel": 0}, {"type": "note_off", "time": 90, "note": 52, "velocity": 112, "channel": 0}, {"type": "note_on", "time": 11, "note": 55, "velocity": 111, "channel": 0}, {"type": "note_off", "time": 288, "note": 55, "velocity": 111, "channel": 0}, {"type": "note_on", "time": 9, "note": 53, "velocity": 110, "channel": 0}, {"type": "note_off", "time": 96, "note": 53, "velocity": 110, "channel": 0}, {"type": "note_on", "time": 11, "note": 52, "velocity": 106, "channel": 0}, {"type": "note_off", "time": 81, "note": 52, "velocity": 106, "channel": 0}, {"type": "note_on", "time": 18, "note": 53, "velocity": 111, "channel": 0}, {"type": "note_off", "time": 83, "note": 53, "velocity": 111, "channel": 0}, {"type": "note_on", "time": 18, "note": 62, "velocity": 121, "channel": 0}, {"type": "note_off", "time": 162, "note": 62, "velocity": 121, "channel": 0}, {"type": "note_on", "time": 69, "note": 62, "velocity": 120, "channel": 0}, {"type": "note_off", "time": 146, "note": 62, "velocity": 120, "channel": 0}, {"type": "note_on", "time": 31, "note": 62, "velocity": 115, "channel": 0}, {"type": "note_off", "time": 158, "note": 62, "velocity": 115, "channel": 0}, {"type": "note_on", "time": 38, "note": 62, "velocity": 113, "channel": 0}, {"type": "note_off", "time": 164, "note": 62, "velocity": 113, "channel": 0}, {"type": "note_on", "time": 38, "note": 62, "velocity": 108, "channel": 0}, {"type": "note_off", "time": 133, "note": 62, "velocity": 108, "channel": 0}, {"type": "note_on", "time": 66, "note": 62, "velocity": 106, "channel": 0}, {"type": "note_off", "time": 74, "note": 62, "velocity": 106, "channel": 0}, {"type": "note_on", "time": 30, "note": 62, "velocity": 114, "channel": 0}, {"type": "note_off", "time": 66, "note": 62, "velocity": 114, "channel": 0}, {"type": "note_on", "time": 12, "note": 65, "velocity": 105, "channel": 0}, {"type": "note_off", "time": 64, "note": 65, "velocity": 105, "channel": 0}, {"type": "note_on", "time": 2, "note": 62, "velocity": 108, "channel": 0}, {"type": "note_off", "time": 97, "note": 62, "velocity": 108, "channel": 0}, {"type": "note_on", "time": 23, "note": 60, "velocity": 107, "channel": 0}, {"type": "note_off", "time": 66, "note": 60, "velocity": 107, "channel": 0}, {"type": "note_on", "time": 18, "note": 62, "velocity": 109, "channel": 0}, {"type": "note_off", "time": 82, "note": 62, "velocity": 109, "channel": 0}, {"type": "note_on", "time": 288, "note": 63, "velocity": 118, "channel": 0}, {"type": "note_off", "time": 82, "note": 63, "velocity": 118, "channel": 0}, {"type": "note_on", "time": 14, "note": 62, "velocity": 112, "channel": 0}, {"type": "note_off", "time": 79, "note": 62, "velocity": 112, "channel": 0}, {"type": "note_on", "time": 17, "note": 61, "velocity": 105, "channel": 0}, {"type": "note_off", "time": 68, "note": 61, "velocity": 105, "channel": 0}, {"type": "note_on", "time": 10, "note": 60, "velocity": 107, "channel": 0}, {"type": "note_off", "time": 75, "note": 60, "velocity": 107, "channel": 0}, {"type": "note_on", "time": 33, "note": 59, "velocity": 104, "channel": 0}, {"type": "note_off", "time": 91, "note": 59, "velocity": 104, "channel": 0}, {"type": "note_on", "time": 12, "note": 60, "velocity": 105, "channel": 0}, {"type": "note_off", "time": 78, "note": 60, "velocity": 105, "channel": 0}, {"type": "note_on", "time": 21, "note": 63, "velocity": 106, "channel": 0}, {"type": "note_off", "time": 82, "note": 63, "velocity": 106, "channel": 0}, {"type": "note_on", "time": 18, "note": 65, "velocity": 105, "channel": 0}, {"type": "note_off", "time": 43, "note": 65, "velocity": 105, "channel": 0}, {"type": "note_on", "time": 21, "note": 70, "velocity": 121, "channel": 0}, {"type": "note_off", "time": 90, "note": 70, "velocity": 121, "channel": 0}, {"type": "note_on", "time": 118, "note": 73, "velocity": 123, "channel": 0}, {"type": "note_off", "time": 95, "note": 73, "velocity": 123, "channel": 0}, {"type": "note_on", "time": 2, "note": 72, "velocity": 127, "channel": 0}, {"type": "note_off", "time": 60, "note": 72, "velocity": 127, "channel": 0}, {"type": "note_on", "time": 6, "note": 71, "velocity": 124, "channel": 0}, {"type": "note_off", "time": 42, "note": 71, "velocity": 124, "channel": 0}, {"type": "note_on", "time": 10, "note": 70, "velocity": 122, "channel": 0}, {"type": "note_off", "time": 102, "note": 70, "velocity": 122, "channel": 0}, {"type": "note_on", "time": 36, "note": 66, "velocity": 114, "channel": 0}, {"type": "note_off", "time": 83, "note": 66, "velocity": 114, "channel": 0}, {"type": "note_on", "time": 433, "note": 66, "velocity": 114, "channel": 0}, {"type": "note_off", "time": 88, "note": 66, "velocity": 114, "channel": 0}, {"type": "note_on", "time": 1, "note": 65, "velocity": 109, "channel": 0}, {"type": "note_off", "time": 90, "note": 65, "velocity": 109, "channel": 0}, {"type": "note_on", "time": 10, "note": 63, "velocity": 112, "channel": 0}, {"type": "note_off", "time": 93, "note": 63, "velocity": 112, "channel": 0}, {"type": "note_on", "time": 15, "note": 61, "velocity": 109, "channel": 0}, {"type": "note_off", "time": 73, "note": 61, "velocity": 109, "channel": 0}, {"type": "note_on", "time": 10, "note": 60, "velocity": 108, "channel": 0}, {"type": "note_off", "time": 93, "note": 60, "velocity": 108, "channel": 0}, {"type": "note_on", "time": 14, "note": 59, "velocity": 107, "channel": 0}, {"type": "note_off", "time": 65, "note": 59, "velocity": 107, "channel": 0}, {"type": "note_on", "time": 5, "note": 58, "velocity": 106, "channel": 0}, {"type": "note_off", "time": 126, "note": 58, "velocity": 106, "channel": 0}, {"type": "note_on", "time": 16, "note": 56, "velocity": 110, "channel": 0}, {"type": "note_off", "time": 99, "note": 56, "velocity": 110, "channel": 0}, {"type": "note_on", "time": 23, "note": 54, "velocity": 110, "channel": 0}, {"type": "note_off", "time": 64, "note": 54, "velocity": 110, "channel": 0}, {"type": "note_on", "time": 0, "note": 53, "velocity": 105, "channel": 0}, {"type": "note_off", "time": 432, "note": 53, "velocity": 105, "channel": 0}, {"type": "end_of_track", "time": 0}]]}