{"ticks_per_beat": 420, "tracks": [[{"type": "track_name", "name": "Melody", "time": 0}, {"type": "set_tempo", "tempo": 346820, "time": 0}, {"type": "time_signature", "numerator": 4, "denominator": 4, "clocks_per_click": 24, "notated_32nd_notes_per_beat": 8, "time": 0}, {"type": "note_on", "time": 4808, "note": 68, "velocity": 110, "channel": 0}, {"type": "note_off", "time": 173, "note": 68, "velocity": 110, "channel": 0}, {"type": "note_on", "time": 45, "note": 70, "velocity": 118, "channel": 0}, {"type": "note_off", "time": 93, "note": 70, "velocity": 118, "channel": 0}, {"type": "note_on", "time": 168, "note": 72, "velocity": 118, "channel": 0}, {"type": "note_off", "time": 143, "note": 72, "velocity": 118, "channel": 0}, {"type": "note_on", "time": 39, "note": 74, "velocity": 109, "channel": 0}, {"type": "note_off", "time": 622, "note": 74, "velocity": 109, "channel": 0}, {"type": "note_on", "time": 49, "note": 72, "velocity": 108, "channel": 0}, {"type": "note_off", "time": 222, "note": 72, "velocity": 108, "channel": 0}, {"type": "note_on", "time": 39, "note": 70, "velocity": 105, "channel": 0}, {"type": "note_off", "time": 168, "note": 70, "velocity": 105, "channel": 0}, {"type": "note_on", "time": 34, "note": 67, "velocity": 103, "channel": 0}, {"type": "note_off", "time": 217, "note": 67, "velocity": 103, "channel": 0}, {"type": "note_on", "time": 59, "note": 65, "velocity": 110, "channel": 0}, {"type": "note_off", "time": 667, "note": 65, "velocity": 110, "channel": 0}, {"type": "note_on", "time": 29, "note": 63, "velocity": 111, "channel": 0}, {"type": "note_off", "time": 207, "note": 63, "velocity": 111, "channel": 0}, {"type": "note_on", "time": 64, "note": 67, "velocity": 112, "channel": 0}, {"type": "note_off", "time": 148, "note": 67, "velocity": 112, "channel": 0}, {"type": "note_on", "time": 54, "note": 70, "velocity": 114, "channel": 0}, {"type": "note_off", "time": 370, "note": 70, "velocity": 114, "channel": 0}, {"type": "note_on", "time": 69, "note": 68, "velocity": 112, "channel": 0}, {"type": "note_off", "time": 202, "note": 68, "velocity": 112, "channel": 0}, {"type": "note_on", "time": 44, "note": 65, "velocity": 108, "channel": 0}, {"type": "note_off", "time": 172, "note": 65, "velocity": 108, "channel": 0}, {"type": "note_on", "time": 59, "note": 61, "velocity": 105, "channel": 0}, {"type": "note_off", "time": 192, "note": 61, "velocity": 105, "channel": 0}, {"type": "note_on", "time": 49, "note": 54, "velocity": 106, "channel": 0}, {"type": "note_off", "time": 202, "note": 54, "velocity": 106, "channel": 0}, {"type": "note_on", "time": 39, "note": 56, "velocity": 107, "channel": 0}, {"type": "note_off", "time": 311, "note": 56, "velocity": 107, "channel": 0}, {"type": "note_on", "time": 54, "note": 58, "velocity": 92, "channel": 0}, {"type": "note_off", "time": 143, "note": 58, "velocity": 92, "channel": 0}, {"type": "note_on", "time": 84, "note": 62, "velocity": 91, "channel": 0}, {"type": "note_off", "time": 148, "note": 62, "velocity": 91, "channel": 0}, {"type": "note_on", "time": 44, "note": 66, "velocity": 111, "channel": 0}, {"type": "note_off", "time": 197, "note": 66, "velocity": 111, "channel": 0}, {"type": "note_on", "time": 29, "note": 68, "velocity": 112, "channel": 0}, {"type": "note_off", "time": 202, "note": 68, "velocity": 112, "channel": 0}, {"type": "note_on", "time": 39, "note": 70, "velocity": 109, "channel": 0}, {"type": "note_off", "time": 93, "note": 70, "velocity": 109, "channel": 0}, {"type": "note_on", "time": 296, "note": 70, "velocity": 114, "channel": 0}, {"type": "note_off", "time": 182, "note": 70, "velocity": 114, "channel": 0}, {"type": "note_on", "time": 34, "note": 67, "velocity": 103, "channel": 0}, {"type": "note_off", "time": 98, "note": 67, "velocity": 103, "channel": 0}, {"type": "note_on", "time": 128, "note": 79, "velocity": 98, "channel": 0}, {"type": "note_off", "time": 128, "note": 79, "velocity": 98, "channel": 0}, {"type": "note_on", "time": 1136, "note": 77, "velocity": 120, "channel": 0}, {"type": "note_off", "time": 192, "note": 77, "velocity": 120, "channel": 0}, {"type": "note_on", "time": 37, "note": 79, "velocity": 122, "channel": 0}, {"type": "note_off", "time": 228, "note": 79, "velocity": 122, "channel": 0}, {"type": "note_on", "time": 49, "note": 82, "velocity": 104, "channel": 0}, {"type": "note_off", "time": 98, "note": 82, "velocity": 104, "channel": 0}, {"type": "note_on", "time": 1107, "note": 75, "velocity": 117, "channel": 0}, {"type": "note_off", "time": 87, "note": 75, "velocity": 117, "channel": 0}, {"type": "note_on", "time": 45, "note": 77, "velocity": 123, "channel": 0}, {"type": "note_off", "time": 87, "note": 77, "velocity": 123, "channel": 0}, {"type": "note_on", "time": 45, "note": 77, "velocity": 124, "channel": 0}, {"type": "note_off", "time": 130, "note": 77, "velocity": 124, "channel": 0}, {"type": "note_on", "time": 31, "note": 77, "velocity": 119, "channel": 0}, {"type": "note_off", "time": 126, "note": 77, "velocity": 119, "channel": 0}, {"type": "note_on", "time": 224, "note": 77, "velocity": 122, "channel": 0}, {"type": "note_off", "time": 115, "note": 77, "velocity": 122, "channel": 0}, {"type": "note_on", "time": 28, "note": 76, "velocity": 122, "channel": 0}, {"type": "note_off", "time": 70, "note": 76, "velocity": 122, "channel": 0}, {"type": "note_on", "time": 49, "note": 75, "velocity": 124, "channel": 0}, {"type": "note_off", "time": 302, "note": 75, "velocity": 124, "channel": 0}, {"type": "note_on", "time": 42, "note": 77, "velocity": 122, "channel": 0}, {"type": "note_off", "time": 73, "note": 77, "velocity": 122, "channel": 0}, {"type": "note_on", "time": 24, "note": 78, "velocity": 125, "channel": 0}, {"type": "note_off", "time": 246, "note": 78, "velocity": 125, "channel": 0}, {"type": "note_on", "time": 49, "note": 80, "velocity": 120, "channel": 0}, {"type": "note_off", "time": 77, "note": 80, "velocity": 120, "channel": 0}, {"type": "note_on", "time": 31, "note": 77, "velocity": 107, "channel": 0}, {"type": "note_off", "time": 56, "note": 77, "velocity": 107, "channel": 0}, {"type": "note_on", "time": 38, "note": 75, "velocity": 115, "channel": 0}, {"type": "note_off", "time": 91, "note": 75, "velocity": 115, "channel": 0}, {"type": "note_on", "time": 31, "note": 73, "velocity": 114, "channel": 0}, {"type": "note_off", "time": 56, "note": 73, "velocity": 114, "channel": 0}, {"type": "note_on", "time": 21, "note": 70, "velocity": 112, "channel": 0}, {"type": "note_off", "time": 101, "note": 70, "velocity": 112, "channel": 0}, {"type": "note_on", "time": 21, "note": 68, "velocity": 112, "channel": 0}, {"type": "note_off", "time": 80, "note": 68, "velocity": 112, "channel": 0}, {"type": "note_on", "time": 42, "note": 65, "velocity": 106, "channel": 0}, {"type": "note_off", "time": 63, "note": 65, "velocity": 106, "channel": 0}, {"type": "note_on", "time": 14, "note": 66, "velocity": 109, "channel": 0}, {"type": "note_off", "time": 45, "note": 66, "velocity": 109, "channel": 0}, {"type": "note_on", "time": 14, "note": 70, "velocity": 110, "channel": 0}, {"type": "note_off", "time": 35, "note": 70, "velocity": 110, "channel": 0}, {"type": "note_on", "time": 17, "note": 69, "velocity": 112, "channel": 0}, {"type": "note_off", "time": 91, "note": 69, "velocity": 112, "channel": 0}, {"type": "note_on", "time": 21, "note": 68, "velocity": 113, "channel": 0}, {"type": "note_off", "time": 470, "note": 68, "velocity": 113, "channel": 0}, {"type": "note_on", "time": 36, "note": 70, "velocity": 89, "channel": 0}, {"type": "note_off", "time": 72, "note": 70, "velocity": 89, "channel": 0}, {"type": "note_on", "time": 316, "note": 70, "velocity": 108, "channel": 0}, {"type": "note_off", "time": 302, "note": 70, "velocity": 108, "channel": 0}, {"type": "note_on", "time": 31, "note": 70, "velocity": 103, "channel": 0}, {"type": "note_off", "time": 123, "note": 70, "velocity": 103, "channel": 0}, {"type": "note_on", "time": 414, "note": 70, "velocity": 107, "channel": 0}, {"type": "note_off", "time": 337, "note": 70, "velocity": 107, "channel": 0}, {"type": "note_on", "time": 73, "note": 75, "velocity": 100, "channel": 0}, {"type": "note_off", "time": 77, "note": 75, "velocity": 100, "channel": 0}, {"type": "note_on", "time": 239, "note": 72, "velocity": 94, "channel": 0}, {"type": "note_off", "time": 1254, "note": 72, "velocity": 94, "channel": 0}, {"type": "note_on", "time": 836, "note": 63, "velocity": 101, "channel": 0}, {"type": "note_off", "time": 154, "note": 63, "velocity": 101, "channel": 0}, {"type": "note_on", "time": 38, "note": 68, "velocity": 108, "channel": 0}, {"type": "note_off", "time": 203, "note": 68, "velocity": 108, "channel": 0}, {"type": "note_on", "time": 24, "note": 70, "velocity": 105, "channel": 0}, {"type": "note_off", "time": 186, "note": 70, "velocity": 105, "channel": 0}, {"type": "note_on", "time": 80, "note": 71, "velocity": 104, "channel": 0}, {"type": "note_off", "time": 101, "note": 71, "velocity": 104, "channel": 0}, {"type": "note_on", "time": 35, "note": 73, "velocity": 103, "channel": 0}, {"type": "note_off", "time": 558, "note": 73, "velocity": 103, "channel": 0}, {"type": "note_on", "time": 70, "note": 68, "velocity": 110, "channel": 0}, {"type": "note_off", "time": 196, "note": 68, "velocity": 110, "channel": 0}, {"type": "note_on", "time": 45, "note": 70, "velocity": 108, "channel": 0}, {"type": "note_off", "time": 154, "note": 70, "velocity": 108, "channel": 0}, {"type": "note_on", "time": 31, "note": 68, "velocity": 109, "channel": 0}, {"type": "note_off", "time": 189, "note": 68, "velocity": 109, "channel": 0}, {"type": "note_on", "time": 63, "note": 65, "velocity": 110, "channel": 0}, {"type": "note_off", "time": 154, "note": 65, "velocity": 110, "channel": 0}, {"type": "note_on", "time": 45, "note": 63, "velocity": 106, "channel": 0}, {"type": "note_off", "time": 189, "note": 63, "velocity": 106, "channel": 0}, {"type": "note_on", "time": 59, "note": 60, "velocity": 100, "channel": 0}, {"type": "note_off", "time": 126, "note": 60, "velocity": 100, "channel": 0}, {"type": "note_on", "time": 42, "note": 65, "velocity": 110, "channel": 0}, {"type": "note_off", "time": 193, "note": 65, "velocity": 110, "channel": 0}, {"type": "note_on", "time": 66, "note": 63, "velocity": 110, "channel": 0}, {"type": "note_off", "time": 203, "note": 63, "velocity": 110, "channel": 0}, {"type": "note_on", "time": 21, "note": 60, "velocity": 105, "channel": 0}, {"type": "note_off", "time": 312, "note": 60, "velocity": 105, "channel": 0}, {"type": "note_on", "time": 52, "note": 65, "velocity": 113, "channel": 0}, {"type": "note_off", "time": 228, "note": 65, "velocity": 113, "channel": 0}, {"type": "note_on", "time": 98, "note": 58, "velocity": 104, "channel": 0}, {"type": "note_off", "time": 467, "note": 58, "velocity": 104, "channel": 0}, {"type": "note_on", "time": 56, "note": 63, "velocity": 108, "channel": 0}, {"type": "note_off", "time": 263, "note": 63, "velocity": 108, "channel": 0}, {"type": "note_on", "time": 70, "note": 65, "velocity": 110, "channel": 0}, {"type": "note_off", "time": 1261, "note": 65, "velocity": 110, "channel": 0}, {"type": "note_on", "time": 801, "note": 66, "velocity": 107, "channel": 0}, {"type": "note_off", "time": 154, "note": 66, "velocity": 107, "channel": 0}, {"type": "note_on", "time": 28, "note": 69, "velocity": 107, "channel": 0}, {"type": "note_off", "time": 172, "note": 69, "velocity": 107, "channel": 0}, {"type": "note_on", "time": 66, "note": 73, "velocity": 112, "channel": 0}, {"type": "note_off", "time": 182, "note": 73, "velocity": 112, "channel": 0}, {"type": "note_on", "time": 59, "note": 71, "velocity": 100, "channel": 0}, {"type": "note_off", "time": 123, "note": 71, "velocity": 100, "channel": 0}, {"type": "note_on", "time": 878, "note": 74, "velocity": 119, "channel": 0}, {"type": "note_off", "time": 168, "note": 74, "velocity": 119, "channel": 0}, {"type": "note_on", "time": 42, "note": 78, "velocity": 126, "channel": 0}, {"type": "note_off", "time": 203, "note": 78, "velocity": 126, "channel": 0}, {"type": "note_on", "time": 45, "note": 81, "velocity": 126, "channel": 0}, {"type": "note_off", "time": 214, "note": 81, "velocity": 126, "channel": 0}, {"type": "note_on", "time": 14, "note": 80, "velocity": 119, "channel": 0}, {"type": "note_off", "time": 98, "note": 80, "velocity": 119, "channel": 0}, {"type": "note_on", "time": 952, "note": 78, "velocity": 115, "channel": 0}, {"type": "note_off", "time": 101, "note": 78, "velocity": 115, "channel": 0}, {"type": "note_on", "time": 108, "note": 81, "velocity": 123, "channel": 0}, {"type": "note_off", "time": 115, "note": 81, "velocity": 123, "channel": 0}, {"type": "note_on", "time": 49, "note": 84, "velocity": 123, "channel": 0}, {"type": "note_off", "time": 611, "note": 84, "velocity": 123, "channel": 0}, {"type": "note_on", "time": 87, "note": 82, "velocity": 112, "channel": 0}, {"type": "note_off", "time": 207, "note": 82, "velocity": 112, "channel": 0}, {"type": "note_on", "time": 52, "note": 79, "velocity": 107, "channel": 0}, {"type": "note_off", "time": 203, "note": 79, "velocity": 107, "channel": 0}, {"type": "note_on", "time": 140, "note": 77, "velocity": 113, "channel": 0}, {"type": "note_off", "time": 161, "note": 77, "velocity": 113, "channel": 0}, {"type": "note_on", "time": 31, "note": 75, "velocity": 112, "channel": 0}, {"type": "note_off", "time": 186, "note": 75, "velocity": 112, "channel": 0}, {"type": "note_on", "time": 35, "note": 72, "velocity": 110, "channel": 0}, {"type": "note_off", "time": 495, "note": 72, "velocity": 110, "channel": 0}, {"type": "note_on", "time": 49, "note": 75, "velocity": 105, "channel": 0}, {"type": "note_off", "time": 91, "note": 75, "velocity": 105, "channel": 0}, {"type": "note_on", "time": 52, "note": 77, "velocity": 98, "channel": 0}, {"type": "note_off", "time": 70, "note": 77, "velocity": 98, "channel": 0}, {"type": "note_on", "time": 17, "note": 78, "velocity": 104, "channel": 0}, {"type": "note_off", "time": 73, "note": 78, "velocity": 104, "channel": 0}, {"type": "note_on", "time": 42, "note": 82, "velocity": 74, "channel": 0}, {"type": "note_off", "time": 28, "note": 82, "velocity": 74, "channel": 0}, {"type": "note_on", "time": 14, "note": 80, "velocity": 110, "channel": 0}, {"type": "note_off", "time": 52, "note": 80, "velocity": 110, "channel": 0}, {"type": "note_on", "time": 35, "note": 77, "velocity": 108, "channel": 0}, {"type": "note_off", "time": 108, "note": 77, "velocity": 108, "channel": 0}, {"type": "note_on", "time": 14, "note": 76, "velocity": 107, "channel": 0}, {"type": "note_off", "time": 49, "note": 76, "velocity": 107, "channel": 0}, {"type": "note_on", "time": 17, "note": 75, "velocity": 110, "channel": 0}, {"type": "note_off", "time": 115, "note": 75, "velocity": 110, "channel": 0}, {"type": "note_on", "time": 31, "note": 78, "velocity": 112, "channel": 0}, {"type": "note_off", "time": 91, "note": 78, "velocity": 112, "channel": 0}, {"type": "note_on", "time": 17, "note": 76, "velocity": 108, "channel": 0}, {"type": "note_off", "time": 87, "note": 76, "velocity": 108, "channel": 0}, {"type": "note_on", "time": 22, "note": 73, "velocity": 113, "channel": 0}, {"type": "note_off", "time": 101, "note": 73, "velocity": 113, "channel": 0}, {"type": "note_on", "time": 28, "note": 71, "velocity": 109, "channel": 0}, {"type": "note_off", "time": 72, "note": 71, "velocity": 109, "channel": 0}, {"type": "note_on", "time": 28, "note": 69, "velocity": 104, "channel": 0}, {"type": "note_off", "time": 68, "note": 69, "velocity": 104, "channel": 0}, {"type": "note_on", "time": 7, "note": 76, "velocity": 112, "channel": 0}, {"type": "note_off", "time": 93, "note": 76, "velocity": 112, "channel": 0}, {"type": "note_on", "time": 31, "note": 71, "velocity": 105, "channel": 0}, {"type": "note_off", "time": 98, "note": 71, "velocity": 105, "channel": 0}, {"type": "note_on", "time": 19, "note": 73, "velocity": 112, "channel": 0}, {"type": "note_off", "time": 49, "note": 73, "velocity": 112, "channel": 0}, {"type": "note_on", "time": 33, "note": 69, "velocity": 110, "channel": 0}, {"type": "note_off", "time": 59, "note": 69, "velocity": 110, "channel": 0}, {"type": "note_on", "time": 22, "note": 66, "velocity": 100, "channel": 0}, {"type": "note_off", "time": 91, "note": 66, "velocity": 100, "channel": 0}, {"type": "note_on", "time": 31, "note": 70, "velocity": 109, "channel": 0}, {"type": "note_off", "time": 79, "note": 70, "velocity": 109, "channel": 0}, {"type": "note_on", "time": 22, "note": 68, "velocity": 106, "channel": 0}, {"type": "note_off", "time": 96, "note": 68, "velocity": 106, "channel": 0}, {"type": "note_on", "time": 75, "note": 69, "velocity": 110, "channel": 0}, {"type": "note_off", "time": 96, "note": 69, "velocity": 110, "channel": 0}, {"type": "note_on", "time": 14, "note": 68, "velocity": 106, "channel": 0}, {"type": "note_off", "time": 93, "note": 68, "velocity": 106, "channel": 0}, {"type": "note_on", "time": 33, "note": 64, "velocity": 104, "channel": 0}, {"type": "note_off", "time": 425, "note": 64, "velocity": 104, "channel": 0}, {"type": "note_on", "time": 12, "note": 62, "velocity": 104, "channel": 0}, {"type": "note_off", "time": 107, "note": 62, "velocity": 104, "channel": 0}, {"type": "note_on", "time": 12, "note": 64, "velocity": 103, "channel": 0}, {"type": "note_off", "time": 355, "note": 64, "velocity": 103, "channel": 0}, {"type": "note_on", "time": 22, "note": 62, "velocity": 101, "channel": 0}, {"type": "note_off", "time": 186, "note": 62, "velocity": 101, "channel": 0}, {"type": "note_on", "time": 80, "note": 61, "velocity": 98, "channel": 0}, {"type": "note_off", "time": 86, "note": 61, "velocity": 98, "channel": 0}, {"type": "note_on", "time": 12, "note": 62, "velocity": 100, "channel": 0}, {"type": "note_off", "time": 42, "note": 62, "velocity": 100, "channel": 0}, {"type": "note_on", "time": 17, "note": 63, "velocity": 101, "channel": 0}, {"type": "note_off", "time": 64, "note": 63, "velocity": 101, "channel": 0}, {"type": "note_on", "time": 14, "note": 65, "velocity": 114, "channel": 0}, {"type": "note_off", "time": 44, "note": 65, "velocity": 114, "channel": 0}, {"type": "note_on", "time": 12, "note": 67, "velocity": 108, "channel": 0}, {"type": "note_off", "time": 64, "note": 67, "velocity": 108, "channel": 0}, {"type": "note_on", "time": 12, "note": 68, "velocity": 110, "channel": 0}, {"type": "note_off", "time": 61, "note": 68, "velocity": 110, "channel": 0}, {"type": "note_on", "time": 9, "note": 70, "velocity": 111, "channel": 0}, {"type": "note_off", "time": 54, "note": 70, "velocity": 111, "channel": 0}, {"type": "note_on", "time": 19, "note": 72, "velocity": 115, "channel": 0}, {"type": "note_off", "time": 59, "note": 72, "velocity": 115, "channel": 0}, {"type": "note_on", "time": 19, "note": 74, "velocity": 116, "channel": 0}, {"type": "note_off", "time": 261, "note": 74, "velocity": 116, "channel": 0}, {"type": "note_on", "time": 34, "note": 81, "velocity": 108, "channel": 0}, {"type": "note_off", "time": 49, "note": 81, "velocity": 108, "channel": 0}, {"type": "note_on", "time": 12, "note": 79, "velocity": 109, "channel": 0}, {"type": "note_off", "time": 27, "note": 79, "velocity": 109, "channel": 0}, {"type": "note_on", "time": 27, "note": 77, "velocity": 116, "channel": 0}, {"type": "note_off", "time": 42, "note": 77, "velocity": 116, "channel": 0}, {"type": "note_on", "time": 39, "note": 74, "velocity": 107, "channel": 0}, {"type": "note_off", "time": 76, "note": 74, "velocity": 107, "channel": 0}, {"type": "note_on", "time": 29, "note": 72, "velocity": 106, "channel": 0}, {"type": "note_off", "time": 98, "note": 72, "velocity": 106, "channel": 0}, {"type": "note_on", "time": 1018, "note": 77, "velocity": 112, "channel": 0}, {"type": "note_off", "time": 93, "note": 77, "velocity": 112, "channel": 0}, {"type": "note_on", "time": 42, "note": 81, "velocity": 112, "channel": 0}, {"type": "note_off", "time": 51, "note": 81, "velocity": 112, "channel": 0}, {"type": "note_on", "time": 37, "note": 81, "velocity": 120, "channel": 0}, {"type": "note_off", "time": 264, "note": 81, "velocity": 120, "channel": 0}, {"type": "note_on", "time": 39, "note": 79, "velocity": 112, "channel": 0}, {"type": "note_off", "time": 93, "note": 79, "velocity": 112, "channel": 0}, {"type": "note_on", "time": 24, "note": 77, "velocity": 112, "channel": 0}, {"type": "note_off", "time": 66, "note": 77, "velocity": 112, "channel": 0}, {"type": "note_on", "time": 22, "note": 76, "velocity": 109, "channel": 0}, {"type": "note_off", "time": 101, "note": 76, "velocity": 109, "channel": 0}, {"type": "note_on", "time": 2, "note": 75, "velocity": 117, "channel": 0}, {"type": "note_off", "time": 88, "note": 75, "velocity": 117, "channel": 0}, {"type": "note_on", "time": 27, "note": 68, "velocity": 96, "channel": 0}, {"type": "note_off", "time": 93, "note": 68, "velocity": 96, "channel": 0}, {"type": "note_on", "time": 19, "note": 75, "velocity": 115, "channel": 0}, {"type": "note_off", "time": 93, "note": 75, "velocity": 115, "channel": 0}, {"type": "note_on", "time": 27, "note": 77, "velocity": 116, "channel": 0}, {"type": "note_off", "time": 61, "note": 77, "velocity": 116, "channel": 0}, {"type": "note_on", "time": 14, "note": 78, "velocity": 109, "channel": 0}, {"type": "note_off", "time": 56, "note": 78, "velocity": 109, "channel": 0}, {"type": "note_on", "time": 49, "note": 82, "velocity": 94, "channel": 0}, {"type": "note_off", "time": 49, "note": 82, "velocity": 94, "channel": 0}, {"type": "note_on", "time": 14, "note": 80, "velocity": 115, "channel": 0}, {"type": "note_off", "time": 32, "note": 80, "velocity": 115, "channel": 0}, {"type": "note_on", "time": 19, "note": 77, "velocity": 118, "channel": 0}, {"type": "note_off", "time": 81, "note": 77, "velocity": 118, "channel": 0}, {"type": "note_on", "time": 29, "note": 75, "velocity": 115, "channel": 0}, {"type": "note_off", "time": 93, "note": 75, "velocity": 115, "channel": 0}, {"type": "note_on", "time": 14, "note": 73, "velocity": 113, "channel": 0}, {"type": "note_off", "time": 74, "note": 73, "velocity": 113, "channel": 0}, {"type": "note_on", "time": 22, "note": 70, "velocity": 104, "channel": 0}, {"type": "note_off", "time": 66, "note": 70, "velocity": 104, "channel": 0}, {"type": "note_on", "time": 34, "note": 68, "velocity": 108, "channel": 0}, {"type": "note_off", "time": 121, "note": 68, "velocity": 108, "channel": 0}, {"type": "note_on", "time": 126, "note": 71, "velocity": 112, "channel": 0}, {"type": "note_off", "time": 113, "note": 71, "velocity": 112, "channel": 0}, {"type": "note_on", "time": 19, "note": 73, "velocity": 103, "channel": 0}, {"type": "note_off", "time": 205, "note": 73, "velocity": 103, "channel": 0}, {"type": "note_on", "time": 24, "note": 71, "velocity": 108, "channel": 0}, {"type": "note_off", "time": 192, "note": 71, "velocity": 108, "channel": 0}, {"type": "note_on", "time": 54, "note": 68, "velocity": 100, "channel": 0}, {"type": "note_off", "time": 778, "note": 68, "velocity": 100, "channel": 0}, {"type": "note_on", "time": 855, "note": 76, "velocity": 110, "channel": 0}, {"type": "note_off", "time": 88, "note": 76, "velocity": 110, "channel": 0}, {"type": "note_on", "time": 84, "note": 81, "velocity": 94, "channel": 0}, {"type": "note_off", "time": 155, "note": 81, "velocity": 94, "channel": 0}, {"type": "note_on", "time": 510, "note": 76, "velocity": 119, "channel": 0}, {"type": "note_off", "time": 200, "note": 76, "velocity": 119, "channel": 0}, {"type": "note_on", "time": 227, "note": 74, "velocity": 115, "channel": 0}, {"type": "note_off", "time": 170, "note": 74, "velocity": 115, "channel": 0}, {"type": "note_on", "time": 9, "note": 71, "velocity": 109, "channel": 0}, {"type": "note_off", "time": 229, "note": 71, "velocity": 109, "channel": 0}, {"type": "note_on", "time": 9, "note": 74, "velocity": 110, "channel": 0}, {"type": "note_off", "time": 150, "note": 74, "velocity": 110, "channel": 0}, {"type": "note_on", "time": 54, "note": 69, "velocity": 110, "channel": 0}, {"type": "note_off", "time": 150, "note": 69, "velocity": 110, "channel": 0}, {"type": "note_on", "time": 66, "note": 64, "velocity": 100, "channel": 0}, {"type": "note_off", "time": 116, "note": 64, "velocity": 100, "channel": 0}, {"type": "note_on", "time": 59, "note": 71, "velocity": 115, "channel": 0}, {"type": "note_off", "time": 187, "note": 71, "velocity": 115, "channel": 0}, {"type": "note_on", "time": 46, "note": 69, "velocity": 111, "channel": 0}, {"type": "note_off", "time": 158, "note": 69, "velocity": 111, "channel": 0}, {"type": "note_on", "time": 79, "note": 67, "velocity": 106, "channel": 0}, {"type": "note_off", "time": 180, "note": 67, "velocity": 106, "channel": 0}, {"type": "note_on", "time": 430, "note": 77, "velocity": 120, "channel": 0}, {"type": "note_off", "time": 187, "note": 77, "velocity": 120, "channel": 0}, {"type": "note_on", "time": 29, "note": 82, "velocity": 112, "channel": 0}, {"type": "note_off", "time": 98, "note": 82, "velocity": 112, "channel": 0}, {"type": "note_on", "time": 1314, "note": 77, "velocity": 107, "channel": 0}, {"type": "note_off", "time": 93, "note": 77, "velocity": 107, "channel": 0}, {"type": "note_on", "time": 98, "note": 80, "velocity": 106, "channel": 0}, {"type": "note_off", "time": 69, "note": 80, "velocity": 106, "channel": 0}, {"type": "note_on", "time": 31, "note": 82, "velocity": 120, "channel": 0}, {"type": "note_off", "time": 72, "note": 82, "velocity": 120, "channel": 0}, {"type": "note_on", "time": 21, "note": 82, "velocity": 118, "channel": 0}, {"type": "note_off", "time": 63, "note": 82, "velocity": 118, "channel": 0}, {"type": "note_on", "time": 21, "note": 82, "velocity": 120, "channel": 0}, {"type": "note_off", "time": 68, "note": 82, "velocity": 120, "channel": 0}, {"type": "note_on", "time": 26, "note": 82, "velocity": 117, "channel": 0}, {"type": "note_off", "time": 59, "note": 82, "velocity": 117, "channel": 0}, {"type": "note_on", "time": 12, "note": 82, "velocity": 117, "channel": 0}, {"type": "note_off", "time": 75, "note": 82, "velocity": 117, "channel": 0}, {"type": "note_on", "time": 24, "note": 82, "velocity": 115, "channel": 0}, {"type": "note_off", "time": 66, "note": 82, "velocity": 115, "channel": 0}, {"type": "note_on", "time": 22, "note": 82, "velocity": 114, "channel": 0}, {"type": "note_off", "time": 77, "note": 82, "velocity": 114, "channel": 0}, {"type": "note_on", "time": 42, "note": 82, "velocity": 118, "channel": 0}, {"type": "note_off", "time": 56, "note": 82, "velocity": 118, "channel": 0}, {"type": "note_on", "time": 22, "note": 82, "velocity": 115, "channel": 0}, {"type": "note_off", "time": 26, "note": 82, "velocity": 115, "channel": 0}, {"type": "note_on", "time": 1, "note": 83, "velocity": 119, "channel": 0}, {"type": "note_off", "time": 66, "note": 83, "velocity": 119, "channel": 0}, {"type": "note_on", "time": 29, "note": 82, "velocity": 120, "channel": 0}, {"type": "note_off", "time": 68, "note": 82, "velocity": 120, "channel": 0}, {"type": "note_on", "time": 17, "note": 82, "velocity": 117, "channel": 0}, {"type": "note_off", "time": 65, "note": 82, "velocity": 117, "channel": 0}, {"type": "note_on", "time": 35, "note": 82, "velocity": 115, "channel": 0}, {"type": "note_off", "time": 47, "note": 82, "velocity": 115, "channel": 0}, {"type": "note_on", "time": 29, "note": 82, "velocity": 119, "channel": 0}, {"type": "note_off", "time": 72, "note": 82, "velocity": 119, "channel": 0}, {"type": "note_on", "time": 26, "note": 82, "velocity": 117, "channel": 0}, {"type": "note_off", "time": 65, "note": 82, "velocity": 117, "channel": 0}, {"type": "note_on", "time": 21, "note": 82, "velocity": 116, "channel": 0}, {"type": "note_off", "time": 63, "note": 82, "velocity": 116, "channel": 0}, {"type": "note_on", "time": 22, "note": 82, "velocity": 117, "channel": 0}, {"type": "note_off", "time": 54, "note": 82, "velocity": 117, "channel": 0}, {"type": "note_on", "time": 29, "note": 82, "velocity": 115, "channel": 0}, {"type": "note_off", "time": 82, "note": 82, "velocity": 115, "channel": 0}, {"type": "note_on", "time": 21, "note": 82, "velocity": 116, "channel": 0}, {"type": "note_off", "time": 49, "note": 82, "velocity": 116, "channel": 0}, {"type": "note_on", "time": 28, "note": 82, "velocity": 114, "channel": 0}, {"type": "note_off", "time": 82, "note": 82, "velocity": 114, "channel": 0}, {"type": "note_on", "time": 26, "note": 82, "velocity": 113, "channel": 0}, {"type": "note_off", "time": 65, "note": 82, "velocity": 113, "channel": 0}, {"type": "note_on", "time": 17, "note": 82, "velocity": 111, "channel": 0}, {"type": "note_off", "time": 80, "note": 82, "velocity": 111, "channel": 0}, {"type": "note_on", "time": 28, "note": 82, "velocity": 111, "channel": 0}, {"type": "note_off", "time": 66, "note": 82, "velocity": 111, "channel": 0}, {"type": "note_on", "time": 31, "note": 82, "velocity": 111, "channel": 0}, {"type": "note_off", "time": 73, "note": 82, "velocity": 111, "channel": 0}, {"type": "note_on", "time": 22, "note": 82, "velocity": 109, "channel": 0}, {"type": "note_off", "time": 50, "note": 82, "velocity": 109, "channel": 0}, {"type": "note_on", "time": 22, "note": 82, "velocity": 110, "channel": 0}, {"type": "note_off", "time": 79, "note": 82, "velocity": 110, "channel": 0}, {"type": "note_on", "time": 28, "note": 82, "velocity": 111, "channel": 0}, {"type": "note_off", "time": 82, "note": 82, "velocity": 111, "channel": 0}, {"type": "note_on", "time": 15, "note": 82, "velocity": 112, "channel": 0}, {"type": "note_off", "time": 82, "note": 82, "velocity": 112, "channel": 0}, {"type": "note_on", "time": 19, "note": 82, "velocity": 109, "channel": 0}, {"type": "note_off", "time": 52, "note": 82, "velocity": 109, "channel": 0}, {"type": "note_on", "time": 24, "note": 82, "velocity": 113, "channel": 0}, {"type": "note_off", "time": 57, "note": 82, "velocity": 113, "channel": 0}, {"type": "note_on", "time": 33, "note": 82, "velocity": 111, "channel": 0}, {"type": "note_off", "time": 54, "note": 82, "velocity": 111, "channel": 0}, {"type": "note_on", "time": 36, "note": 82, "velocity": 111, "channel": 0}, {"type": "note_off", "time": 82, "note": 82, "velocity": 111, "channel": 0}, {"type": "note_on", "time": 24, "note": 82, "velocity": 110, "channel": 0}, {"type": "note_off", "time": 43, "note": 82, "velocity": 110, "channel": 0}, {"type": "note_on", "time": 8, "note": 83, "velocity": 98, "channel": 0}, {"type": "note_off", "time": 24, "note": 83, "velocity": 98, "channel": 0}, {"type": "note_on", "time": 17, "note": 82, "velocity": 114, "channel": 0}, {"type": "note_off", "time": 108, "note": 82, "velocity": 114, "channel": 0}, {"type": "note_on", "time": 21, "note": 83, "velocity": 117, "channel": 0}, {"type": "note_off", "time": 38, "note": 83, "velocity": 117, "channel": 0}, {"type": "note_on", "time": 35, "note": 82, "velocity": 117, "channel": 0}, {"type": "note_off", "time": 59, "note": 82, "velocity": 117, "channel": 0}, {"type": "note_on", "time": 35, "note": 81, "velocity": 116, "channel": 0}, {"type": "note_off", "time": 224, "note": 81, "velocity": 116, "channel": 0}, {"type": "note_on", "time": 775, "note": 83, "velocity": 114, "channel": 0}, {"type": "note_off", "time": 65, "note": 83, "velocity": 114, "channel": 0}, {"type": "note_on", "time": 5, "note": 84, "velocity": 119, "channel": 0}, {"type": "note_off", "time": 54, "note": 84, "velocity": 119, "channel": 0}, {"type": "note_on", "time": 3, "note": 85, "velocity": 121, "channel": 0}, {"type": "note_off", "time": 28, "note": 85, "velocity": 121, "channel": 0}, {"type": "note_on", "time": 22, "note": 86, "velocity": 117, "channel": 0}, {"type": "note_off", "time": 857, "note": 86, "velocity": 117, "channel": 0}, {"type": "note_on", "time": 23, "note": 85, "velocity": 117, "channel": 0}, {"type": "note_off", "time": 22, "note": 85, "velocity": 117, "channel": 0}, {"type": "note_on", "time": 37, "note": 83, "velocity": 119, "channel": 0}, {"type": "note_off", "time": 420, "note": 83, "velocity": 119, "channel": 0}, {"type": "note_on", "time": 24, "note": 84, "velocity": 106, "channel": 0}, {"type": "note_off", "time": 59, "note": 84, "velocity": 106, "channel": 0}, {"type": "note_on", "time": 19, "note": 85, "velocity": 82, "channel": 0}, {"type": "note_off", "time": 19, "note": 85, "velocity": 82, "channel": 0}, {"type": "note_on", "time": 1734, "note": 76, "velocity": 117, "channel": 0}, {"type": "note_off", "time": 170, "note": 76, "velocity": 117, "channel": 0}, {"type": "note_on", "time": 44, "note": 81, "velocity": 121, "channel": 0}, {"type": "note_off", "time": 195, "note": 81, "velocity": 121, "channel": 0}, {"type": "note_on", "time": 24, "note": 83, "velocity": 115, "channel": 0}, {"type": "note_off", "time": 96, "note": 83, "velocity": 115, "channel": 0}, {"type": "note_on", "time": 49, "note": 85, "velocity": 113, "channel": 0}, {"type": "note_off", "time": 232, "note": 85, "velocity": 113, "channel": 0}, {"type": "note_on", "time": 66, "note": 83, "velocity": 118, "channel": 0}, {"type": "note_off", "time": 155, "note": 83, "velocity": 118, "channel": 0}, {"type": "note_on", "time": 44, "note": 81, "velocity": 118, "channel": 0}, {"type": "note_off", "time": 207, "note": 81, "velocity": 118, "channel": 0}, {"type": "note_on", "time": 42, "note": 78, "velocity": 114, "channel": 0}, {"type": "note_off", "time": 343, "note": 78, "velocity": 114, "channel": 0}, {"type": "note_on", "time": 42, "note": 80, "velocity": 101, "channel": 0}, {"type": "note_off", "time": 44, "note": 80, "velocity": 101, "channel": 0}, {"type": "note_on", "time": 29, "note": 78, "velocity": 99, "channel": 0}, {"type": "note_off", "time": 64, "note": 78, "velocity": 99, "channel": 0}, {"type": "note_on", "time": 37, "note": 80, "velocity": 98, "channel": 0}, {"type": "note_off", "time": 61, "note": 80, "velocity": 98, "channel": 0}, {"type": "note_on", "time": 61, "note": 78, "velocity": 102, "channel": 0}, {"type": "note_off", "time": 74, "note": 78, "velocity": 102, "channel": 0}, {"type": "note_on", "time": 12, "note": 80, "velocity": 101, "channel": 0}, {"type": "note_off", "time": 51, "note": 80, "velocity": 101, "channel": 0}, {"type": "note_on", "time": 34, "note": 78, "velocity": 99, "channel": 0}, {"type": "note_off", "time": 56, "note": 78, "velocity": 99, "channel": 0}, {"type": "note_on", "time": 17, "note": 80, "velocity": 100, "channel": 0}, {"type": "note_off", "time": 51, "note": 80, "velocity": 100, "channel": 0}, {"type": "note_on", "time": 24, "note": 78, "velocity": 84, "channel": 0}, {"type": "note_off", "time": 108, "note": 78, "velocity": 84, "channel": 0}, {"type": "note_on", "time": 929, "note": 77, "velocity": 111, "channel": 0}, {"type": "note_off", "time": 135, "note": 77, "velocity": 111, "channel": 0}, {"type": "note_on", "time": 76, "note": 81, "velocity": 113, "channel": 0}, {"type": "note_off", "time": 140, "note": 81, "velocity": 113, "channel": 0}, {"type": "note_on", "time": 69, "note": 84, "velocity": 113, "channel": 0}, {"type": "note_off", "time": 79, "note": 84, "velocity": 113, "channel": 0}, {"type": "note_on", "time": 106, "note": 79, "velocity": 114, "channel": 0}, {"type": "note_off", "time": 200, "note": 79, "velocity": 114, "channel": 0}, {"type": "note_on", "time": 17, "note": 81, "velocity": 104, "channel": 0}, {"type": "note_off", "time": 81, "note": 81, "velocity": 104, "channel": 0}, {"type": "note_on", "time": 153, "note": 77, "velocity": 112, "channel": 0}, {"type": "note_off", "time": 173, "note": 77, "velocity": 112, "channel": 0}, {"type": "note_on", "time": 66, "note": 74, "velocity": 107, "channel": 0}, {"type": "note_off", "time": 123, "note": 74, "velocity": 107, "channel": 0}, {"type": "note_on", "time": 54, "note": 72, "velocity": 105, "channel": 0}, {"type": "note_off", "time": 197, "note": 72, "velocity": 105, "channel": 0}, {"type": "note_on", "time": 37, "note": 77, "velocity": 114, "channel": 0}, {"type": "note_off", "time": 224, "note": 77, "velocity": 114, "channel": 0}, {"type": "note_on", "time": 175, "note": 77, "velocity": 115, "channel": 0}, {"type": "note_off", "time": 192, "note": 77, "velocity": 115, "channel": 0}, {"type": "note_on", "time": 54, "note": 75, "velocity": 114, "channel": 0}, {"type": "note_off", "time": 158, "note": 75, "velocity": 114, "channel": 0}, {"type": "note_on", "time": 84, "note": 68, "velocity": 100, "channel": 0}, {"type": "note_off", "time": 153, "note": 68, "velocity": 100, "channel": 0}, {"type": "note_on", "time": 14, "note": 70, "velocity": 101, "channel": 0}, {"type": "note_off", "time": 130, "note": 70, "velocity": 101, "channel": 0}, {"type": "note_on", "time": 103, "note": 68, "velocity": 101, "channel": 0}, {"type": "note_off", "time": 961, "note": 68, "velocity": 101, "channel": 0}, {"type": "note_on", "time": 476, "note": 75, "velocity": 114, "channel": 0}, {"type": "note_off", "time": 76, "note": 75, "velocity": 114, "channel": 0}, {"type": "note_on", "time": 33, "note": 77, "velocity": 112, "channel": 0}, {"type": "note_off", "time": 84, "note": 77, "velocity": 112, "channel": 0}, {"type": "note_on", "time": 21, "note": 79, "velocity": 102, "channel": 0}, {"type": "note_off", "time": 49, "note": 79, "velocity": 102, "channel": 0}, {"type": "note_on", "time": 26, "note": 80, "velocity": 106, "channel": 0}, {"type": "note_off", "time": 68, "note": 80, "velocity": 106, "channel": 0}, {"type": "note_on", "time": 24, "note": 77, "velocity": 114, "channel": 0}, {"type": "note_off", "time": 87, "note": 77, "velocity": 114, "channel": 0}, {"type": "note_on", "time": 14, "note": 76, "velocity": 102, "channel": 0}, {"type": "note_off", "time": 56, "note": 76, "velocity": 102, "channel": 0}, {"type": "note_on", "time": 21, "note": 75, "velocity": 114, "channel": 0}, {"type": "note_off", "time": 110, "note": 75, "velocity": 114, "channel": 0}, {"type": "note_on", "time": 50, "note": 79, "velocity": 113, "channel": 0}, {"type": "note_off", "time": 72, "note": 79, "velocity": 113, "channel": 0}, {"type": "note_on", "time": 14, "note": 76, "velocity": 106, "channel": 0}, {"type": "note_off", "time": 65, "note": 76, "velocity": 106, "channel": 0}, {"type": "note_on", "time": 66, "note": 74, "velocity": 112, "channel": 0}, {"type": "note_off", "time": 84, "note": 74, "velocity": 112, "channel": 0}, {"type": "note_on", "time": 14, "note": 72, "velocity": 112, "channel": 0}, {"type": "note_off", "time": 101, "note": 72, "velocity": 112, "channel": 0}, {"type": "note_on", "time": 26, "note": 70, "velocity": 94, "channel": 0}, {"type": "note_off", "time": 52, "note": 70, "velocity": 94, "channel": 0}, {"type": "note_on", "time": 0, "note": 77, "velocity": 110, "channel": 0}, {"type": "note_off", "time": 110, "note": 77, "velocity": 110, "channel": 0}, {"type": "note_on", "time": 12, "note": 72, "velocity": 108, "channel": 0}, {"type": "note_off", "time": 65, "note": 72, "velocity": 108, "channel": 0}, {"type": "note_on", "time": 14, "note": 74, "velocity": 110, "channel": 0}, {"type": "note_off", "time": 100, "note": 74, "velocity": 110, "channel": 0}, {"type": "note_on", "time": 19, "note": 70, "velocity": 102, "channel": 0}, {"type": "note_off", "time": 54, "note": 70, "velocity": 102, "channel": 0}, {"type": "note_on", "time": 33, "note": 67, "velocity": 100, "channel": 0}, {"type": "note_off", "time": 123, "note": 67, "velocity": 100, "channel": 0}, {"type": "note_on", "time": 21, "note": 72, "velocity": 111, "channel": 0}, {"type": "note_off", "time": 65, "note": 72, "velocity": 111, "channel": 0}, {"type": "note_on", "time": 31, "note": 69, "velocity": 109, "channel": 0}, {"type": "note_off", "time": 101, "note": 69, "velocity": 109, "channel": 0}, {"type": "note_on", "time": 40, "note": 65, "velocity": 104, "channel": 0}, {"type": "note_off", "time": 73, "note": 65, "velocity": 104, "channel": 0}, {"type": "note_on", "time": 17, "note": 70, "velocity": 106, "channel": 0}, {"type": "note_off", "time": 84, "note": 70, "velocity": 106, "channel": 0}, {"type": "note_on", "time": 15, "note": 69, "velocity": 103, "channel": 0}, {"type": "note_off", "time": 63, "note": 69, "velocity": 103, "channel": 0}, {"type": "note_on", "time": 24, "note": 68, "velocity": 108, "channel": 0}, {"type": "note_off", "time": 82, "note": 68, "velocity": 108, "channel": 0}, {"type": "note_on", "time": 14, "note": 70, "velocity": 104, "channel": 0}, {"type": "note_off", "time": 84, "note": 70, "velocity": 104, "channel": 0}, {"type": "note_on", "time": 19, "note": 71, "velocity": 110, "channel": 0}, {"type": "note_off", "time": 89, "note": 71, "velocity": 110, "channel": 0}, {"type": "note_on", "time": 21, "note": 74, "velocity": 112, "channel": 0}, {"type": "note_off", "time": 70, "note": 74, "velocity": 112, "channel": 0}, {"type": "note_on", "time": 7, "note": 73, "velocity": 115, "channel": 0}, {"type": "note_off", "time": 103, "note": 73, "velocity": 115, "channel": 0}, {"type": "note_on", "time": 22, "note": 71, "velocity": 107, "channel": 0}, {"type": "note_off", "time": 70, "note": 71, "velocity": 107, "channel": 0}, {"type": "note_on", "time": 12, "note": 64, "velocity": 102, "channel": 0}, {"type": "note_off", "time": 72, "note": 64, "velocity": 102, "channel": 0}, {"type": "note_on", "time": 24, "note": 69, "velocity": 107, "channel": 0}, {"type": "note_off", "time": 73, "note": 69, "velocity": 107, "channel": 0}, {"type": "note_on", "time": 19, "note": 71, "velocity": 109, "channel": 0}, {"type": "note_off", "time": 72, "note": 71, "velocity": 109, "channel": 0}, {"type": "note_on", "time": 12, "note": 73, "velocity": 117, "channel": 0}, {"type": "note_off", "time": 105, "note": 73, "velocity": 117, "channel": 0}, {"type": "note_on", "time": 21, "note": 69, "velocity": 105, "channel": 0}, {"type": "note_off", "time": 57, "note": 69, "velocity": 105, "channel": 0}, {"type": "note_on", "time": 21, "note": 66, "velocity": 107, "channel": 0}, {"type": "note_off", "time": 91, "note": 66, "velocity": 107, "channel": 0}, {"type": "note_on", "time": 47, "note": 71, "velocity": 106, "channel": 0}, {"type": "note_off", "time": 65, "note": 71, "velocity": 106, "channel": 0}, {"type": "note_on", "time": 33, "note": 68, "velocity": 111, "channel": 0}, {"type": "note_off", "time": 70, "note": 68, "velocity": 111, "channel": 0}, {"type": "note_on", "time": 40, "note": 65, "velocity": 102, "channel": 0}, {"type": "note_off", "time": 61, "note": 65, "velocity": 102, "channel": 0}, {"type": "note_on", "time": 29, "note": 70, "velocity": 108, "channel": 0}, {"type": "note_off", "time": 72, "note": 70, "velocity": 108, "channel": 0}, {"type": "note_on", "time": 8, "note": 69, "velocity": 103, "channel": 0}, {"type": "note_off", "time": 87, "note": 69, "velocity": 103, "channel": 0}, {"type": "note_on", "time": 26, "note": 67, "velocity": 106, "channel": 0}, {"type": "note_off", "time": 70, "note": 67, "velocity": 106, "channel": 0}, {"type": "note_on", "time": 15, "note": 64, "velocity": 103, "channel": 0}, {"type": "note_off", "time": 47, "note": 64, "velocity": 103, "channel": 0}, {"type": "note_on", "time": 10, "note": 63, "velocity": 98, "channel": 0}, {"type": "note_off", "time": 84, "note": 63, "velocity": 98, "channel": 0}, {"type": "note_on", "time": 54, "note": 65, "velocity": 105, "channel": 0}, {"type": "note_off", "time": 68, "note": 65, "velocity": 105, "channel": 0}, {"type": "note_on", "time": 14, "note": 63, "velocity": 100, "channel": 0}, {"type": "note_off", "time": 45, "note": 63, "velocity": 100, "channel": 0}, {"type": "note_on", "time": 26, "note": 60, "velocity": 92, "channel": 0}, {"type": "note_off", "time": 119, "note": 60, "velocity": 92, "channel": 0}, {"type": "note_on", "time": 75, "note": 63, "velocity": 106, "channel": 0}, {"type": "note_off", "time": 274, "note": 63, "velocity": 106, "channel": 0}, {"type": "note_on", "time": 14, "note": 65, "velocity": 107, "channel": 0}, {"type": "note_off", "time": 89, "note": 65, "velocity": 107, "channel": 0}, {"type": "note_on", "time": 731, "note": 75, "velocity": 110, "channel": 0}, {"type": "note_off", "time": 98, "note": 75, "velocity": 110, "channel": 0}, {"type": "note_on", "time": 19, "note": 77, "velocity": 112, "channel": 0}, {"type": "note_off", "time": 77, "note": 77, "velocity": 112, "channel": 0}, {"type": "note_on", "time": 115, "note": 82, "velocity": 95, "channel": 0}, {"type": "note_off", "time": 35, "note": 82, "velocity": 95, "channel": 0}, {"type": "note_on", "time": 14, "note": 80, "velocity": 120, "channel": 0}, {"type": "note_off", "time": 28, "note": 80, "velocity": 120, "channel": 0}, {"type": "note_on", "time": 21, "note": 77, "velocity": 113, "channel": 0}, {"type": "note_off", "time": 93, "note": 77, "velocity": 113, "channel": 0}, {"type": "note_on", "time": 3, "note": 76, "velocity": 105, "channel": 0}, {"type": "note_off", "time": 73, "note": 76, "velocity": 105, "channel": 0}, {"type": "note_on", "time": 12, "note": 75, "velocity": 108, "channel": 0}, {"type": "note_off", "time": 98, "note": 75, "velocity": 108, "channel": 0}, {"type": "note_on", "time": 36, "note": 79, "velocity": 110, "channel": 0}, {"type": "note_off", "time": 47, "note": 79, "velocity": 110, "channel": 0}, {"type": "note_on", "time": 8, "note": 77, "velocity": 113, "channel": 0}, {"type": "note_off", "time": 35, "note": 77, "velocity": 113, "channel": 0}, {"type": "note_on", "time": 21, "note": 75, "velocity": 105, "channel": 0}, {"type": "note_off", "time": 43, "note": 75, "velocity": 105, "channel": 0}, {"type": "note_on", "time": 35, "note": 73, "velocity": 9, "channel": 0}, {"type": "note_off", "time": 107, "note": 73, "velocity": 9, "channel": 0}, {"type": "note_on", "time": 17, "note": 71, "velocity": 80, "channel": 0}, {"type": "note_off", "time": 50, "note": 71, "velocity": 80, "channel": 0}, {"type": "note_on", "time": 31, "note": 70, "velocity": 95, "channel": 0}, {"type": "note_off", "time": 36, "note": 70, "velocity": 95, "channel": 0}, {"type": "note_on", "time": 24, "note": 76, "velocity": 116, "channel": 0}, {"type": "note_off", "time": 84, "note": 76, "velocity": 116, "channel": 0}, {"type": "note_on", "time": 19, "note": 71, "velocity": 112, "channel": 0}, {"type": "note_off", "time": 57, "note": 71, "velocity": 112, "channel": 0}, {"type": "note_on", "time": 12, "note": 73, "velocity": 114, "channel": 0}, {"type": "note_off", "time": 72, "note": 73, "velocity": 114, "channel": 0}, {"type": "note_on", "time": 42, "note": 69, "velocity": 100, "channel": 0}, {"type": "note_off", "time": 52, "note": 69, "velocity": 100, "channel": 0}, {"type": "note_on", "time": 17, "note": 67, "velocity": 104, "channel": 0}, {"type": "note_off", "time": 47, "note": 67, "velocity": 104, "channel": 0}, {"type": "note_on", "time": 14, "note": 65, "velocity": 94, "channel": 0}, {"type": "note_off", "time": 70, "note": 65, "velocity": 94, "channel": 0}, {"type": "note_on", "time": 36, "note": 71, "velocity": 111, "channel": 0}, {"type": "note_off", "time": 70, "note": 71, "velocity": 111, "channel": 0}, {"type": "note_on", "time": 19, "note": 68, "velocity": 111, "channel": 0}, {"type": "note_off", "time": 94, "note": 68, "velocity": 111, "channel": 0}, {"type": "note_on", "time": 40, "note": 66, "velocity": 101, "channel": 0}, {"type": "note_off", "time": 43, "note": 66, "velocity": 101, "channel": 0}, {"type": "note_on", "time": 17, "note": 70, "velocity": 104, "channel": 0}, {"type": "note_off", "time": 126, "note": 70, "velocity": 104, "channel": 0}, {"type": "note_on", "time": 1397, "note": 77, "velocity": 101, "channel": 0}, {"type": "note_off", "time": 112, "note": 77, "velocity": 101, "channel": 0}, {"type": "note_on", "time": 395, "note": 77, "velocity": 108, "channel": 0}, {"type": "note_off", "time": 112, "note": 77, "velocity": 108, "channel": 0}, {"type": "note_on", "time": 307, "note": 77, "velocity": 109, "channel": 0}, {"type": "note_off", "time": 70, "note": 77, "velocity": 109, "channel": 0}, {"type": "note_on", "time": 173, "note": 74, "velocity": 109, "channel": 0}, {"type": "note_off", "time": 145, "note": 74, "velocity": 109, "channel": 0}, {"type": "note_on", "time": 12, "note": 75, "velocity": 105, "channel": 0}, {"type": "note_off", "time": 193, "note": 75, "velocity": 105, "channel": 0}, {"type": "note_on", "time": 38, "note": 72, "velocity": 106, "channel": 0}, {"type": "note_off", "time": 318, "note": 72, "velocity": 106, "channel": 0}, {"type": "note_on", "time": 108, "note": 68, "velocity": 105, "channel": 0}, {"type": "note_off", "time": 96, "note": 68, "velocity": 105, "channel": 0}, {"type": "note_on", "time": 29, "note": 70, "velocity": 101, "channel": 0}, {"type": "note_off", "time": 235, "note": 70, "velocity": 101, "channel": 0}, {"type": "note_on", "time": 33, "note": 68, "velocity": 105, "channel": 0}, {"type": "note_off", "time": 203, "note": 68, "velocity": 105, "channel": 0}, {"type": "note_on", "time": 29, "note": 70, "velocity": 106, "channel": 0}, {"type": "note_off", "time": 205, "note": 70, "velocity": 106, "channel": 0}, {"type": "note_on", "time": 21, "note": 68, "velocity": 103, "channel": 0}, {"type": "note_off", "time": 330, "note": 68, "velocity": 103, "channel": 0}, {"type": "note_on", "time": 10, "note": 70, "velocity": 106, "channel": 0}, {"type": "note_off", "time": 210, "note": 70, "velocity": 106, "channel": 0}, {"type": "note_on", "time": 96, "note": 66, "velocity": 102, "channel": 0}, {"type": "note_off", "time": 221, "note": 66, "velocity": 102, "channel": 0}, {"type": "note_on", "time": 122, "note": 61, "velocity": 99, "channel": 0}, {"type": "note_off", "time": 210, "note": 61, "velocity": 99, "channel": 0}, {"type": "note_on", "time": 9, "note": 54, "velocity": 101, "channel": 0}, {"type": "note_off", "time": 195, "note": 54, "velocity": 101, "channel": 0}, {"type": "note_on", "time": 29, "note": 56, "velocity": 98, "channel": 0}, {"type": "note_off", "time": 180, "note": 56, "velocity": 98, "channel": 0}, {"type": "note_on", "time": 74, "note": 58, "velocity": 95, "channel": 0}, {"type": "note_off", "time": 135, "note": 58, "velocity": 95, "channel": 0}, {"type": "note_on", "time": 34, "note": 61, "velocity": 99, "channel": 0}, {"type": "note_off", "time": 173, "note": 61, "velocity": 99, "channel": 0}, {"type": "note_on", "time": 37, "note": 63, "velocity": 101, "channel": 0}, {"type": "note_off", "time": 185, "note": 63, "velocity": 101, "channel": 0}, {"type": "note_on", "time": 49, "note": 66, "velocity": 106, "channel": 0}, {"type": "note_off", "time": 79, "note": 66, "velocity": 106, "channel": 0}, {"type": "note_on", "time": 197, "note": 70, "velocity": 96, "channel": 0}, {"type": "note_off", "time": 1188, "note": 70, "velocity": 96, "channel": 0}, {"type": "note_on", "time": 59, "note": 67, "velocity": 101, "channel": 0}, {"type": "note_off", "time": 207, "note": 67, "velocity": 101, "channel": 0}, {"type": "note_on", "time": 63, "note": 65, "velocity": 90, "channel": 0}, {"type": "note_off", "time": 1012, "note": 65, "velocity": 90, "channel": 0}, {"type": "note_on", "time": 2330, "note": 75, "velocity": 124, "channel": 0}, {"type": "note_off", "time": 231, "note": 75, "velocity": 124, "channel": 0}, {"type": "note_on", "time": 139, "note": 82, "velocity": 127, "channel": 0}, {"type": "note_off", "time": 195, "note": 82, "velocity": 127, "channel": 0}, {"type": "note_on", "time": 27, "note": 82, "velocity": 122, "channel": 0}, {"type": "note_off", "time": 79, "note": 82, "velocity": 122, "channel": 0}, {"type": "note_on", "time": 22, "note": 80, "velocity": 102, "channel": 0}, {"type": "note_off", "time": 42, "note": 80, "velocity": 102, "channel": 0}, {"type": "note_on", "time": 32, "note": 78, "velocity": 117, "channel": 0}, {"type": "note_off", "time": 51, "note": 78, "velocity": 117, "channel": 0}, {"type": "note_on", "time": 22, "note": 77, "velocity": 121, "channel": 0}, {"type": "note_off", "time": 202, "note": 77, "velocity": 121, "channel": 0}, {"type": "note_on", "time": 200, "note": 75, "velocity": 115, "channel": 0}, {"type": "note_off", "time": 227, "note": 75, "velocity": 115, "channel": 0}, {"type": "note_on", "time": 222, "note": 77, "velocity": 118, "channel": 0}, {"type": "note_off", "time": 202, "note": 77, "velocity": 118, "channel": 0}, {"type": "note_on", "time": 56, "note": 73, "velocity": 113, "channel": 0}, {"type": "note_off", "time": 627, "note": 73, "velocity": 113, "channel": 0}, {"type": "note_on", "time": 44, "note": 70, "velocity": 112, "channel": 0}, {"type": "note_off", "time": 368, "note": 70, "velocity": 112, "channel": 0}, {"type": "note_on", "time": 39, "note": 68, "velocity": 109, "channel": 0}, {"type": "note_off", "time": 234, "note": 68, "velocity": 109, "channel": 0}, {"type": "note_on", "time": 27, "note": 65, "velocity": 109, "channel": 0}, {"type": "note_off", "time": 229, "note": 65, "velocity": 109, "channel": 0}, {"type": "note_on", "time": 58, "note": 63, "velocity": 96, "channel": 0}, {"type": "note_off", "time": 1163, "note": 63, "velocity": 96, "channel": 0}, {"type": "note_on", "time": 889, "note": 66, "velocity": 99, "channel": 0}, {"type": "note_off", "time": 106, "note": 66, "velocity": 99, "channel": 0}, {"type": "note_on", "time": 24, "note": 68, "velocity": 105, "channel": 0}, {"type": "note_off", "time": 61, "note": 68, "velocity": 105, "channel": 0}, {"type": "note_on", "time": 24, "note": 69, "velocity": 111, "channel": 0}, {"type": "note_off", "time": 103, "note": 69, "velocity": 111, "channel": 0}, {"type": "note_on", "time": 17, "note": 74, "velocity": 112, "channel": 0}, {"type": "note_off", "time": 64, "note": 74, "velocity": 112, "channel": 0}, {"type": "note_on", "time": 14, "note": 73, "velocity": 112, "channel": 0}, {"type": "note_off", "time": 98, "note": 73, "velocity": 112, "channel": 0}, {"type": "note_on", "time": 14, "note": 78, "velocity": 110, "channel": 0}, {"type": "note_off", "time": 81, "note": 78, "velocity": 110, "channel": 0}, {"type": "note_on", "time": 19, "note": 75, "velocity": 118, "channel": 0}, {"type": "note_off", "time": 447, "note": 75, "velocity": 118, "channel": 0}, {"type": "note_on", "time": 377, "note": 71, "velocity": 106, "channel": 0}, {"type": "note_off", "time": 107, "note": 71, "velocity": 106, "channel": 0}, {"type": "note_on", "time": 17, "note": 73, "velocity": 115, "channel": 0}, {"type": "note_off", "time": 63, "note": 73, "velocity": 115, "channel": 0}, {"type": "note_on", "time": 12, "note": 74, "velocity": 117, "channel": 0}, {"type": "note_off", "time": 61, "note": 74, "velocity": 117, "channel": 0}, {"type": "note_on", "time": 14, "note": 73, "velocity": 104, "channel": 0}, {"type": "note_off", "time": 101, "note": 73, "velocity": 104, "channel": 0}, {"type": "note_on", "time": 24, "note": 71, "velocity": 114, "channel": 0}, {"type": "note_off", "time": 115, "note": 71, "velocity": 114, "channel": 0}, {"type": "note_on", "time": 40, "note": 64, "velocity": 100, "channel": 0}, {"type": "note_off", "time": 70, "note": 64, "velocity": 100, "channel": 0}, {"type": "note_on", "time": 42, "note": 69, "velocity": 110, "channel": 0}, {"type": "note_off", "time": 79, "note": 69, "velocity": 110, "channel": 0}, {"type": "note_on", "time": 17, "note": 71, "velocity": 113, "channel": 0}, {"type": "note_off", "time": 86, "note": 71, "velocity": 113, "channel": 0}, {"type": "note_on", "time": 14, "note": 73, "velocity": 120, "channel": 0}, {"type": "note_off", "time": 96, "note": 73, "velocity": 120, "channel": 0}, {"type": "note_on", "time": 28, "note": 69, "velocity": 111, "channel": 0}, {"type": "note_off", "time": 63, "note": 69, "velocity": 111, "channel": 0}, {"type": "note_on", "time": 31, "note": 66, "velocity": 109, "channel": 0}, {"type": "note_off", "time": 108, "note": 66, "velocity": 109, "channel": 0}, {"type": "note_on", "time": 10, "note": 65, "velocity": 98, "channel": 0}, {"type": "note_off", "time": 66, "note": 65, "velocity": 98, "channel": 0}, {"type": "note_on", "time": 19, "note": 70, "velocity": 111, "channel": 0}, {"type": "note_off", "time": 91, "note": 70, "velocity": 111, "channel": 0}, {"type": "note_on", "time": 15, "note": 72, "velocity": 115, "channel": 0}, {"type": "note_off", "time": 61, "note": 72, "velocity": 115, "channel": 0}, {"type": "note_on", "time": 14, "note": 74, "velocity": 113, "channel": 0}, {"type": "note_off", "time": 114, "note": 74, "velocity": 113, "channel": 0}, {"type": "note_on", "time": 21, "note": 79, "velocity": 119, "channel": 0}, {"type": "note_off", "time": 94, "note": 79, "velocity": 119, "channel": 0}, {"type": "note_on", "time": 15, "note": 77, "velocity": 114, "channel": 0}, {"type": "note_off", "time": 57, "note": 77, "velocity": 114, "channel": 0}, {"type": "note_on", "time": 17, "note": 74, "velocity": 118, "channel": 0}, {"type": "note_off", "time": 117, "note": 74, "velocity": 118, "channel": 0}, {"type": "note_on", "time": 15, "note": 72, "velocity": 114, "channel": 0}, {"type": "note_off", "time": 54, "note": 72, "velocity": 114, "channel": 0}, {"type": "note_on", "time": 24, "note": 70, "velocity": 97, "channel": 0}, {"type": "note_off", "time": 73, "note": 70, "velocity": 97, "channel": 0}, {"type": "note_on", "time": 1, "note": 76, "velocity": 116, "channel": 0}, {"type": "note_off", "time": 100, "note": 76, "velocity": 116, "channel": 0}, {"type": "note_on", "time": 40, "note": 72, "velocity": 106, "channel": 0}, {"type": "note_off", "time": 65, "note": 72, "velocity": 106, "channel": 0}, {"type": "note_on", "time": 5, "note": 74, "velocity": 117, "channel": 0}, {"type": "note_off", "time": 59, "note": 74, "velocity": 117, "channel": 0}, {"type": "note_on", "time": 28, "note": 70, "velocity": 110, "channel": 0}, {"type": "note_off", "time": 75, "note": 70, "velocity": 110, "channel": 0}, {"type": "note_on", "time": 21, "note": 67, "velocity": 107, "channel": 0}, {"type": "note_off", "time": 108, "note": 67, "velocity": 107, "channel": 0}, {"type": "note_on", "time": 10, "note": 72, "velocity": 115, "channel": 0}, {"type": "note_off", "time": 86, "note": 72, "velocity": 115, "channel": 0}, {"type": "note_on", "time": 3, "note": 71, "velocity": 99, "channel": 0}, {"type": "note_off", "time": 52, "note": 71, "velocity": 99, "channel": 0}, {"type": "note_on", "time": 19, "note": 65, "velocity": 98, "channel": 0}, {"type": "note_off", "time": 367, "note": 65, "velocity": 98, "channel": 0}, {"type": "note_on", "time": 1671, "note": 75, "velocity": 108, "channel": 0}, {"type": "note_off", "time": 105, "note": 75, "velocity": 108, "channel": 0}, {"type": "note_on", "time": 149, "note": 78, "velocity": 120, "channel": 0}, {"type": "note_off", "time": 191, "note": 78, "velocity": 120, "channel": 0}, {"type": "note_on", "time": 22, "note": 80, "velocity": 113, "channel": 0}, {"type": "note_off", "time": 96, "note": 80, "velocity": 113, "channel": 0}, {"type": "note_on", "time": 144, "note": 77, "velocity": 118, "channel": 0}, {"type": "note_off", "time": 154, "note": 77, "velocity": 118, "channel": 0}, {"type": "note_on", "time": 22, "note": 75, "velocity": 117, "channel": 0}, {"type": "note_off", "time": 181, "note": 75, "velocity": 117, "channel": 0}, {"type": "note_on", "time": 61, "note": 76, "velocity": 114, "channel": 0}, {"type": "note_off", "time": 195, "note": 76, "velocity": 114, "channel": 0}, {"type": "note_on", "time": 28, "note": 71, "velocity": 108, "channel": 0}, {"type": "note_off", "time": 168, "note": 71, "velocity": 108, "channel": 0}, {"type": "note_on", "time": 7, "note": 73, "velocity": 108, "channel": 0}, {"type": "note_off", "time": 177, "note": 73, "velocity": 108, "channel": 0}, {"type": "note_on", "time": 26, "note": 71, "velocity": 112, "channel": 0}, {"type": "note_off", "time": 188, "note": 71, "velocity": 112, "channel": 0}, {"type": "note_on", "time": 43, "note": 68, "velocity": 106, "channel": 0}, {"type": "note_off", "time": 202, "note": 68, "velocity": 106, "channel": 0}, {"type": "note_on", "time": 31, "note": 66, "velocity": 102, "channel": 0}, {"type": "note_off", "time": 189, "note": 66, "velocity": 102, "channel": 0}, {"type": "note_on", "time": 21, "note": 63, "velocity": 94, "channel": 0}, {"type": "note_off", "time": 123, "note": 63, "velocity": 94, "channel": 0}, {"type": "note_on", "time": 924, "note": 72, "velocity": 105, "channel": 0}, {"type": "note_off", "time": 101, "note": 72, "velocity": 105, "channel": 0}, {"type": "note_on", "time": 93, "note": 82, "velocity": 110, "channel": 0}, {"type": "note_off", "time": 112, "note": 82, "velocity": 110, "channel": 0}, {"type": "note_on", "time": 509, "note": 79, "velocity": 112, "channel": 0}, {"type": "note_off", "time": 147, "note": 79, "velocity": 112, "channel": 0}, {"type": "note_on", "time": 718, "note": 77, "velocity": 121, "channel": 0}, {"type": "note_off", "time": 163, "note": 77, "velocity": 121, "channel": 0}, {"type": "note_on", "time": 24, "note": 75, "velocity": 116, "channel": 0}, {"type": "note_off", "time": 137, "note": 75, "velocity": 116, "channel": 0}, {"type": "note_on", "time": 89, "note": 72, "velocity": 99, "channel": 0}, {"type": "note_off", "time": 86, "note": 72, "velocity": 99, "channel": 0}, {"type": "note_on", "time": 138, "note": 70, "velocity": 112, "channel": 0}, {"type": "note_off", "time": 202, "note": 70, "velocity": 112, "channel": 0}, {"type": "note_on", "time": 158, "note": 69, "velocity": 108, "channel": 0}, {"type": "note_off", "time": 156, "note": 69, "velocity": 108, "channel": 0}, {"type": "note_on", "time": 15, "note": 70, "velocity": 112, "channel": 0}, {"type": "note_off", "time": 228, "note": 70, "velocity": 112, "channel": 0}, {"type": "note_on", "time": 15, "note": 73, "velocity": 117, "channel": 0}, {"type": "note_off", "time": 397, "note": 73, "velocity": 117, "channel": 0}, {"type": "note_on", "time": 42, "note": 78, "velocity": 121, "channel": 0}, {"type": "note_off", "time": 223, "note": 78, "velocity": 121, "channel": 0}, {"type": "note_on", "time": 13, "note": 80, "velocity": 108, "channel": 0}, {"type": "note_off", "time": 971, "note": 80, "velocity": 108, "channel": 0}, {"type": "note_on", "time": 472, "note": 83, "velocity": 124, "channel": 0}, {"type": "note_off", "time": 271, "note": 83, "velocity": 124, "channel": 0}, {"type": "note_on", "time": 126, "note": 80, "velocity": 119, "channel": 0}, {"type": "note_off", "time": 185, "note": 80, "velocity": 119, "channel": 0}, {"type": "note_on", "time": 29, "note": 78, "velocity": 116, "channel": 0}, {"type": "note_off", "time": 158, "note": 78, "velocity": 116, "channel": 0}, {"type": "note_on", "time": 35, "note": 76, "velocity": 116, "channel": 0}, {"type": "note_off", "time": 209, "note": 76, "velocity": 116, "channel": 0}, {"type": "note_on", "time": 26, "note": 80, "velocity": 117, "channel": 0}, {"type": "note_off", "time": 173, "note": 80, "velocity": 117, "channel": 0}, {"type": "note_on", "time": 21, "note": 82, "velocity": 109, "channel": 0}, {"type": "note_off", "time": 159, "note": 82, "velocity": 109, "channel": 0}, {"type": "note_on", "time": 1353, "note": 77, "velocity": 117, "channel": 0}, {"type": "note_off", "time": 159, "note": 77, "velocity": 117, "channel": 0}, {"type": "note_on", "time": 17, "note": 75, "velocity": 116, "channel": 0}, {"type": "note_off", "time": 184, "note": 75, "velocity": 116, "channel": 0}, {"type": "note_on", "time": 93, "note": 70, "velocity": 96, "channel": 0}, {"type": "note_off", "time": 75, "note": 70, "velocity": 96, "channel": 0}, {"type": "note_on", "time": 115, "note": 80, "velocity": 110, "channel": 0}, {"type": "note_off", "time": 181, "note": 80, "velocity": 110, "channel": 0}, {"type": "note_on", "time": 35, "note": 77, "velocity": 115, "channel": 0}, {"type": "note_off", "time": 152, "note": 77, "velocity": 115, "channel": 0}, {"type": "note_on", "time": 33, "note": 75, "velocity": 114, "channel": 0}, {"type": "note_off", "time": 202, "note": 75, "velocity": 114, "channel": 0}, {"type": "note_on", "time": 45, "note": 70, "velocity": 108, "channel": 0}, {"type": "note_off", "time": 82, "note": 70, "velocity": 108, "channel": 0}, {"type": "note_on", "time": 63, "note": 77, "velocity": 117, "channel": 0}, {"type": "note_off", "time": 200, "note": 77, "velocity": 117, "channel": 0}, {"type": "note_on", "time": 26, "note": 75, "velocity": 117, "channel": 0}, {"type": "note_off", "time": 172, "note": 75, "velocity": 117, "channel": 0}, {"type": "note_on", "time": 43, "note": 70, "velocity": 112, "channel": 0}, {"type": "note_off", "time": 189, "note": 70, "velocity": 112, "channel": 0}, {"type": "note_on", "time": 24, "note": 65, "velocity": 105, "channel": 0}, {"type": "note_off", "time": 115, "note": 65, "velocity": 105, "channel": 0}, {"type": "note_on", "time": 94, "note": 75, "velocity": 116, "channel": 0}, {"type": "note_off", "time": 202, "note": 75, "velocity": 116, "channel": 0}, {"type": "note_on", "time": 40, "note": 70, "velocity": 111, "channel": 0}, {"type": "note_off", "time": 149, "note": 70, "velocity": 111, "channel": 0}, {"type": "note_on", "time": 30, "note": 65, "velocity": 105, "channel": 0}, {"type": "note_off", "time": 286, "note": 65, "velocity": 105, "channel": 0}, {"type": "note_on", "time": 106, "note": 70, "velocity": 112, "channel": 0}, {"type": "note_off", "time": 217, "note": 70, "velocity": 112, "channel": 0}, {"type": "note_on", "time": 79, "note": 65, "velocity": 110, "channel": 0}, {"type": "note_off", "time": 140, "note": 65, "velocity": 110, "channel": 0}, {"type": "note_on", "time": 51, "note": 63, "velocity": 106, "channel": 0}, {"type": "note_off", "time": 219, "note": 63, "velocity": 106, "channel": 0}, {"type": "note_on", "time": 17, "note": 58, "velocity": 101, "channel": 0}, {"type": "note_off", "time": 76, "note": 58, "velocity": 101, "channel": 0}, {"type": "note_on", "time": 79, "note": 65, "velocity": 113, "channel": 0}, {"type": "note_off", "time": 432, "note": 65, "velocity": 113, "channel": 0}, {"type": "note_on", "time": 22, "note": 63, "velocity": 110, "channel": 0}, {"type": "note_off", "time": 101, "note": 63, "velocity": 110, "channel": 0}, {"type": "note_on", "time": 14, "note": 65, "velocity": 110, "channel": 0}, {"type": "note_off", "time": 93, "note": 65, "velocity": 110, "channel": 0}, {"type": "note_on", "time": 17, "note": 68, "velocity": 114, "channel": 0}, {"type": "note_off", "time": 91, "note": 68, "velocity": 114, "channel": 0}, {"type": "note_on", "time": 17, "note": 70, "velocity": 111, "channel": 0}, {"type": "note_off", "time": 632, "note": 70, "velocity": 111, "channel": 0}, {"type": "note_on", "time": 27, "note": 68, "velocity": 106, "channel": 0}, {"type": "note_off", "time": 126, "note": 68, "velocity": 106, "channel": 0}, {"type": "note_on", "time": 34, "note": 64, "velocity": 93, "channel": 0}, {"type": "note_off", "time": 54, "note": 64, "velocity": 93, "channel": 0}, {"type": "note_on", "time": 138, "note": 67, "velocity": 111, "channel": 0}, {"type": "note_off", "time": 148, "note": 67, "velocity": 111, "channel": 0}, {"type": "note_on", "time": 19, "note": 68, "velocity": 109, "channel": 0}, {"type": "note_off", "time": 346, "note": 68, "velocity": 109, "channel": 0}, {"type": "note_on", "time": 68, "note": 65, "velocity": 91, "channel": 0}, {"type": "note_off", "time": 1898, "note": 65, "velocity": 91, "channel": 0}, {"type": "note_on", "time": 346, "note": 75, "velocity": 111, "channel": 0}, {"type": "note_off", "time": 82, "note": 75, "velocity": 111, "channel": 0}, {"type": "note_on", "time": 21, "note": 77, "velocity": 107, "channel": 0}, {"type": "note_off", "time": 91, "note": 77, "velocity": 107, "channel": 0}, {"type": "note_on", "time": 10, "note": 78, "velocity": 93, "channel": 0}, {"type": "note_off", "time": 66, "note": 78, "velocity": 93, "channel": 0}, {"type": "note_on", "time": 45, "note": 80, "velocity": 109, "channel": 0}, {"type": "note_off", "time": 68, "note": 80, "velocity": 109, "channel": 0}, {"type": "note_on", "time": 14, "note": 77, "velocity": 112, "channel": 0}, {"type": "note_off", "time": 82, "note": 77, "velocity": 112, "channel": 0}, {"type": "note_on", "time": 33, "note": 75, "velocity": 109, "channel": 0}, {"type": "note_off", "time": 50, "note": 75, "velocity": 109, "channel": 0}, {"type": "note_on", "time": 21, "note": 73, "velocity": 111, "channel": 0}, {"type": "note_off", "time": 110, "note": 73, "velocity": 111, "channel": 0}, {"type": "note_on", "time": 15, "note": 70, "velocity": 107, "channel": 0}, {"type": "note_off", "time": 107, "note": 70, "velocity": 107, "channel": 0}, {"type": "note_on", "time": 26, "note": 68, "velocity": 103, "channel": 0}, {"type": "note_off", "time": 70, "note": 68, "velocity": 103, "channel": 0}, {"type": "note_on", "time": 10, "note": 65, "velocity": 100, "channel": 0}, {"type": "note_off", "time": 66, "note": 65, "velocity": 100, "channel": 0}, {"type": "note_on", "time": 80, "note": 70, "velocity": 109, "channel": 0}, {"type": "note_off", "time": 54, "note": 70, "velocity": 109, "channel": 0}, {"type": "note_on", "time": 7, "note": 75, "velocity": 94, "channel": 0}, {"type": "note_off", "time": 54, "note": 75, "velocity": 94, "channel": 0}, {"type": "note_on", "time": 42, "note": 73, "velocity": 119, "channel": 0}, {"type": "note_off", "time": 59, "note": 73, "velocity": 119, "channel": 0}, {"type": "note_on", "time": 24, "note": 70, "velocity": 97, "channel": 0}, {"type": "note_off", "time": 103, "note": 70, "velocity": 97, "channel": 0}, {"type": "note_on", "time": 9, "note": 68, "velocity": 97, "channel": 0}, {"type": "note_off", "time": 79, "note": 68, "velocity": 97, "channel": 0}, {"type": "note_on", "time": 29, "note": 73, "velocity": 104, "channel": 0}, {"type": "note_off", "time": 103, "note": 73, "velocity": 104, "channel": 0}, {"type": "note_on", "time": 19, "note": 70, "velocity": 112, "channel": 0}, {"type": "note_off", "time": 465, "note": 70, "velocity": 112, "channel": 0}, {"type": "note_on", "time": 10, "note": 69, "velocity": 104, "channel": 0}, {"type": "note_off", "time": 33, "note": 69, "velocity": 104, "channel": 0}, {"type": "note_on", "time": 15, "note": 70, "velocity": 110, "channel": 0}, {"type": "note_off", "time": 223, "note": 70, "velocity": 110, "channel": 0}, {"type": "note_on", "time": 5, "note": 68, "velocity": 106, "channel": 0}, {"type": "note_off", "time": 63, "note": 68, "velocity": 106, "channel": 0}, {"type": "note_on", "time": 52, "note": 65, "velocity": 103, "channel": 0}, {"type": "note_off", "time": 108, "note": 65, "velocity": 103, "channel": 0}, {"type": "note_on", "time": 0, "note": 63, "velocity": 104, "channel": 0}, {"type": "note_on", "time": 93, "note": 61, "velocity": 100, "channel": 0}, {"type": "note_off", "time": 0, "note": 63, "velocity": 104, "channel": 0}, {"type": "note_off", "time": 79, "note": 61, "velocity": 100, "channel": 0}, {"type": "note_on", "time": 19, "note": 58, "velocity": 102, "channel": 0}, {"type": "note_off", "time": 88, "note": 58, "velocity": 102, "channel": 0}, {"type": "note_on", "time": 4, "note": 56, "velocity": 101, "channel": 0}, {"type": "note_off", "time": 88, "note": 56, "velocity": 101, "channel": 0}, {"type": "note_on", "time": 4, "note": 58, "velocity": 101, "channel": 0}, {"type": "note_off", "time": 84, "note": 58, "velocity": 101, "channel": 0}, {"type": "note_on", "time": 0, "note": 56, "velocity": 97, "channel": 0}, {"type": "note_off", "time": 296, "note": 56, "velocity": 97, "channel": 0}, {"type": "end_of_track", "time": 0}]]}