{"ticks_per_beat": 192, "tracks": [[{"type": "track_name", "name": "Melody", "time": 0}, {"type": "set_tempo", "tempo": 521739, "time": 0}, {"type": "key_signature", "key": "Eb", "time": 0}, {"type": "time_signature", "numerator": 4, "denominator": 4, "clocks_per_click": 24, "notated_32nd_notes_per_beat": 8, "time": 0}, {"type": "note_on", "time": 2815, "note": 70, "velocity": 117, "channel": 0}, {"type": "note_off", "time": 39, "note": 70, "velocity": 117, "channel": 0}, {"type": "note_on", "time": 6, "note": 67, "velocity": 116, "channel": 0}, {"type": "note_off", "time": 30, "note": 67, "velocity": 116, "channel": 0}, {"type": "note_on", "time": 29, "note": 72, "velocity": 119, "channel": 0}, {"type": "note_off", "time": 55, "note": 72, "velocity": 119, "channel": 0}, {"type": "note_on", "time": 4, "note": 72, "velocity": 118, "channel": 0}, {"type": "note_off", "time": 56, "note": 72, "velocity": 118, "channel": 0}, {"type": "note_on", "time": 5, "note": 72, "velocity": 107, "channel": 0}, {"type": "note_off", "time": 51, "note": 72, "velocity": 107, "channel": 0}, {"type": "note_on", "time": 552, "note": 67, "velocity": 114, "channel": 0}, {"type": "note_off", "time": 25, "note": 67, "velocity": 114, "channel": 0}, {"type": "note_on", "time": 20, "note": 72, "velocity": 116, "channel": 0}, {"type": "note_off", "time": 106, "note": 72, "velocity": 116, "channel": 0}, {"type": "note_on", "time": 12, "note": 69, "velocity": 108, "channel": 0}, {"type": "note_off", "time": 111, "note": 69, "velocity": 108, "channel": 0}, {"type": "note_on", "time": 669, "note": 74, "velocity": 121, "channel": 0}, {"type": "note_off", "time": 105, "note": 74, "velocity": 121, "channel": 0}, {"type": "note_on", "time": 54, "note": 77, "velocity": 118, "channel": 0}, {"type": "note_off", "time": 143, "note": 77, "velocity": 118, "channel": 0}, {"type": "note_on", "time": 3, "note": 76, "velocity": 113, "channel": 0}, {"type": "note_off", "time": 14, "note": 76, "velocity": 113, "channel": 0}, {"type": "note_on", "time": 2, "note": 75, "velocity": 116, "channel": 0}, {"type": "note_off", "time": 39, "note": 75, "velocity": 116, "channel": 0}, {"type": "note_on", "time": 3, "note": 74, "velocity": 123, "channel": 0}, {"type": "note_off", "time": 190, "note": 74, "velocity": 123, "channel": 0}, {"type": "note_on", "time": 17, "note": 72, "velocity": 119, "channel": 0}, {"type": "note_off", "time": 72, "note": 72, "velocity": 119, "channel": 0}, {"type": "note_on", "time": 17, "note": 71, "velocity": 115, "channel": 0}, {"type": "note_off", "time": 28, "note": 71, "velocity": 115, "channel": 0}, {"type": "note_on", "time": 5, "note": 74, "velocity": 115, "channel": 0}, {"type": "note_off", "time": 42, "note": 74, "velocity": 115, "channel": 0}, {"type": "note_on", "time": 6, "note": 71, "velocity": 85, "channel": 0}, {"type": "note_off", "time": 32, "note": 71, "velocity": 85, "channel": 0}, {"type": "note_on", "time": 4, "note": 68, "velocity": 116, "channel": 0}, {"type": "note_off", "time": 73, "note": 68, "velocity": 116, "channel": 0}, {"type": "note_on", "time": 9, "note": 67, "velocity": 111, "channel": 0}, {"type": "note_off", "time": 55, "note": 67, "velocity": 111, "channel": 0}, {"type": "note_on", "time": 12, "note": 65, "velocity": 110, "channel": 0}, {"type": "note_off", "time": 51, "note": 65, "velocity": 110, "channel": 0}, {"type": "note_on", "time": 38, "note": 70, "velocity": 110, "channel": 0}, {"type": "note_off", "time": 226, "note": 70, "velocity": 110, "channel": 0}, {"type": "note_on", "time": 25, "note": 68, "velocity": 123, "channel": 0}, {"type": "note_off", "time": 45, "note": 68, "velocity": 123, "channel": 0}, {"type": "note_on", "time": 4, "note": 70, "velocity": 111, "channel": 0}, {"type": "note_off", "time": 36, "note": 70, "velocity": 111, "channel": 0}, {"type": "note_on", "time": 26, "note": 66, "velocity": 116, "channel": 0}, {"type": "note_off", "time": 24, "note": 66, "velocity": 116, "channel": 0}, {"type": "note_on", "time": 3, "note": 67, "velocity": 119, "channel": 0}, {"type": "note_off", "time": 84, "note": 67, "velocity": 119, "channel": 0}, {"type": "note_on", "time": 64, "note": 60, "velocity": 101, "channel": 0}, {"type": "note_off", "time": 117, "note": 60, "velocity": 101, "channel": 0}, {"type": "note_on", "time": 76, "note": 63, "velocity": 115, "channel": 0}, {"type": "note_off", "time": 128, "note": 63, "velocity": 115, "channel": 0}, {"type": "note_on", "time": 7, "note": 60, "velocity": 110, "channel": 0}, {"type": "note_off", "time": 56, "note": 60, "velocity": 110, "channel": 0}, {"type": "note_on", "time": 5, "note": 63, "velocity": 115, "channel": 0}, {"type": "note_off", "time": 143, "note": 63, "velocity": 115, "channel": 0}, {"type": "note_on", "time": 9, "note": 60, "velocity": 101, "channel": 0}, {"type": "note_off", "time": 19, "note": 60, "velocity": 101, "channel": 0}, {"type": "note_on", "time": 9, "note": 63, "velocity": 97, "channel": 0}, {"type": "note_off", "time": 229, "note": 63, "velocity": 97, "channel": 0}, {"type": "note_on", "time": 274, "note": 63, "velocity": 90, "channel": 0}, {"type": "note_off", "time": 50, "note": 63, "velocity": 90, "channel": 0}, {"type": "note_on", "time": 16, "note": 66, "velocity": 120, "channel": 0}, {"type": "note_off", "time": 38, "note": 66, "velocity": 120, "channel": 0}, {"type": "note_on", "time": 24, "note": 67, "velocity": 117, "channel": 0}, {"type": "note_off", "time": 52, "note": 67, "velocity": 117, "channel": 0}, {"type": "note_on", "time": 6, "note": 67, "velocity": 118, "channel": 0}, {"type": "note_off", "time": 53, "note": 67, "velocity": 118, "channel": 0}, {"type": "note_on", "time": 17, "note": 66, "velocity": 118, "channel": 0}, {"type": "note_off", "time": 43, "note": 66, "velocity": 118, "channel": 0}, {"type": "note_on", "time": 7, "note": 67, "velocity": 118, "channel": 0}, {"type": "note_off", "time": 58, "note": 67, "velocity": 118, "channel": 0}, {"type": "note_on", "time": 17, "note": 67, "velocity": 118, "channel": 0}, {"type": "note_off", "time": 49, "note": 67, "velocity": 118, "channel": 0}, {"type": "note_on", "time": 8, "note": 67, "velocity": 118, "channel": 0}, {"type": "note_off", "time": 51, "note": 67, "velocity": 118, "channel": 0}, {"type": "note_on", "time": 9, "note": 67, "velocity": 119, "channel": 0}, {"type": "note_off", "time": 59, "note": 67, "velocity": 119, "channel": 0}, {"type": "note_on", "time": 5, "note": 67, "velocity": 118, "channel": 0}, {"type": "note_off", "time": 48, "note": 67, "velocity": 118, "channel": 0}, {"type": "note_on", "time": 16, "note": 65, "velocity": 114, "channel": 0}, {"type": "note_off", "time": 30, "note": 65, "velocity": 114, "channel": 0}, {"type": "note_on", "time": 6, "note": 64, "velocity": 98, "channel": 0}, {"type": "note_off", "time": 19, "note": 64, "velocity": 98, "channel": 0}, {"type": "note_on", "time": 5, "note": 63, "velocity": 114, "channel": 0}, {"type": "note_off", "time": 40, "note": 63, "velocity": 114, "channel": 0}, {"type": "note_on", "time": 5, "note": 60, "velocity": 111, "channel": 0}, {"type": "note_off", "time": 70, "note": 60, "velocity": 111, "channel": 0}, {"type": "note_on", "time": 18, "note": 58, "velocity": 112, "channel": 0}, {"type": "note_off", "time": 50, "note": 58, "velocity": 112, "channel": 0}, {"type": "note_on", "time": 11, "note": 55, "velocity": 93, "channel": 0}, {"type": "note_off", "time": 36, "note": 55, "velocity": 93, "channel": 0}, {"type": "note_on", "time": 18, "note": 60, "velocity": 106, "channel": 0}, {"type": "note_off", "time": 177, "note": 60, "velocity": 106, "channel": 0}, {"type": "note_on", "time": 574, "note": 67, "velocity": 123, "channel": 0}, {"type": "note_off", "time": 44, "note": 67, "velocity": 123, "channel": 0}, {"type": "note_on", "time": 27, "note": 73, "velocity": 121, "channel": 0}, {"type": "note_off", "time": 19, "note": 73, "velocity": 121, "channel": 0}, {"type": "note_on", "time": 0, "note": 74, "velocity": 120, "channel": 0}, {"type": "note_off", "time": 45, "note": 74, "velocity": 120, "channel": 0}, {"type": "note_on", "time": 50, "note": 72, "velocity": 118, "channel": 0}, {"type": "note_off", "time": 61, "note": 72, "velocity": 118, "channel": 0}, {"type": "note_on", "time": 1, "note": 69, "velocity": 117, "channel": 0}, {"type": "note_off", "time": 69, "note": 69, "velocity": 117, "channel": 0}, {"type": "note_on", "time": 3, "note": 67, "velocity": 113, "channel": 0}, {"type": "note_off", "time": 48, "note": 67, "velocity": 113, "channel": 0}, {"type": "note_on", "time": 0, "note": 69, "velocity": 116, "channel": 0}, {"type": "note_off", "time": 307, "note": 69, "velocity": 116, "channel": 0}, {"type": "note_on", "time": 746, "note": 75, "velocity": 124, "channel": 0}, {"type": "note_off", "time": 66, "note": 75, "velocity": 124, "channel": 0}, {"type": "note_on", "time": 25, "note": 79, "velocity": 118, "channel": 0}, {"type": "note_off", "time": 66, "note": 79, "velocity": 118, "channel": 0}, {"type": "note_on", "time": 3, "note": 74, "velocity": 120, "channel": 0}, {"type": "note_off", "time": 57, "note": 74, "velocity": 120, "channel": 0}, {"type": "note_on", "time": 38, "note": 77, "velocity": 120, "channel": 0}, {"type": "note_off", "time": 56, "note": 77, "velocity": 120, "channel": 0}, {"type": "note_on", "time": 0, "note": 76, "velocity": 119, "channel": 0}, {"type": "note_off", "time": 25, "note": 76, "velocity": 119, "channel": 0}, {"type": "note_on", "time": 2, "note": 75, "velocity": 120, "channel": 0}, {"type": "note_off", "time": 28, "note": 75, "velocity": 120, "channel": 0}, {"type": "note_on", "time": 2, "note": 74, "velocity": 124, "channel": 0}, {"type": "note_off", "time": 47, "note": 74, "velocity": 124, "channel": 0}, {"type": "note_on", "time": 2, "note": 72, "velocity": 120, "channel": 0}, {"type": "note_off", "time": 44, "note": 72, "velocity": 120, "channel": 0}, {"type": "note_on", "time": 2, "note": 71, "velocity": 119, "channel": 0}, {"type": "note_off", "time": 201, "note": 71, "velocity": 119, "channel": 0}, {"type": "note_on", "time": 30, "note": 68, "velocity": 118, "channel": 0}, {"type": "note_off", "time": 56, "note": 68, "velocity": 118, "channel": 0}, {"type": "note_on", "time": 6, "note": 67, "velocity": 119, "channel": 0}, {"type": "note_off", "time": 50, "note": 67, "velocity": 119, "channel": 0}, {"type": "note_on", "time": 12, "note": 65, "velocity": 113, "channel": 0}, {"type": "note_off", "time": 46, "note": 65, "velocity": 113, "channel": 0}, {"type": "note_on", "time": 20, "note": 70, "velocity": 116, "channel": 0}, {"type": "note_off", "time": 49, "note": 70, "velocity": 116, "channel": 0}, {"type": "note_on", "time": 10, "note": 68, "velocity": 121, "channel": 0}, {"type": "note_off", "time": 49, "note": 68, "velocity": 121, "channel": 0}, {"type": "note_on", "time": 19, "note": 63, "velocity": 115, "channel": 0}, {"type": "note_off", "time": 42, "note": 63, "velocity": 115, "channel": 0}, {"type": "note_on", "time": 36, "note": 59, "velocity": 109, "channel": 0}, {"type": "note_off", "time": 36, "note": 59, "velocity": 109, "channel": 0}, {"type": "note_on", "time": 7, "note": 61, "velocity": 109, "channel": 0}, {"type": "note_off", "time": 38, "note": 61, "velocity": 109, "channel": 0}, {"type": "note_on", "time": 15, "note": 58, "velocity": 114, "channel": 0}, {"type": "note_off", "time": 59, "note": 58, "velocity": 114, "channel": 0}, {"type": "note_on", "time": 11, "note": 56, "velocity": 107, "channel": 0}, {"type": "note_off", "time": 51, "note": 56, "velocity": 107, "channel": 0}, {"type": "note_on", "time": 0, "note": 58, "velocity": 109, "channel": 0}, {"type": "note_off", "time": 40, "note": 58, "velocity": 109, "channel": 0}, {"type": "note_on", "time": 7, "note": 55, "velocity": 108, "channel": 0}, {"type": "note_off", "time": 71, "note": 55, "velocity": 108, "channel": 0}, {"type": "note_on", "time": 39, "note": 62, "velocity": 116, "channel": 0}, {"type": "note_off", "time": 63, "note": 62, "velocity": 116, "channel": 0}, {"type": "note_on", "time": 5, "note": 65, "velocity": 115, "channel": 0}, {"type": "note_off", "time": 96, "note": 65, "velocity": 115, "channel": 0}, {"type": "note_on", "time": 2, "note": 62, "velocity": 116, "channel": 0}, {"type": "note_off", "time": 224, "note": 62, "velocity": 116, "channel": 0}, {"type": "note_on", "time": 18, "note": 65, "velocity": 114, "channel": 0}, {"type": "note_off", "time": 101, "note": 65, "velocity": 114, "channel": 0}, {"type": "note_on", "time": 3, "note": 62, "velocity": 107, "channel": 0}, {"type": "note_off", "time": 66, "note": 62, "velocity": 107, "channel": 0}, {"type": "note_on", "time": 9, "note": 63, "velocity": 95, "channel": 0}, {"type": "note_off", "time": 125, "note": 63, "velocity": 95, "channel": 0}, {"type": "note_on", "time": 796, "note": 66, "velocity": 116, "channel": 0}, {"type": "note_off", "time": 57, "note": 66, "velocity": 116, "channel": 0}, {"type": "note_on", "time": 3, "note": 65, "velocity": 113, "channel": 0}, {"type": "note_off", "time": 99, "note": 65, "velocity": 113, "channel": 0}, {"type": "note_on", "time": 43, "note": 63, "velocity": 100, "channel": 0}, {"type": "note_off", "time": 21, "note": 63, "velocity": 100, "channel": 0}, {"type": "note_on", "time": 6, "note": 65, "velocity": 116, "channel": 0}, {"type": "note_off", "time": 119, "note": 65, "velocity": 116, "channel": 0}, {"type": "note_on", "time": 60, "note": 63, "velocity": 116, "channel": 0}, {"type": "note_off", "time": 9, "note": 63, "velocity": 116, "channel": 0}, {"type": "note_on", "time": 2, "note": 65, "velocity": 116, "channel": 0}, {"type": "note_off", "time": 99, "note": 65, "velocity": 116, "channel": 0}, {"type": "note_on", "time": 6, "note": 63, "velocity": 118, "channel": 0}, {"type": "note_off", "time": 58, "note": 63, "velocity": 118, "channel": 0}, {"type": "note_on", "time": 17, "note": 66, "velocity": 123, "channel": 0}, {"type": "note_off", "time": 32, "note": 66, "velocity": 123, "channel": 0}, {"type": "note_on", "time": 2, "note": 67, "velocity": 119, "channel": 0}, {"type": "note_off", "time": 99, "note": 67, "velocity": 119, "channel": 0}, {"type": "note_on", "time": 69, "note": 60, "velocity": 112, "channel": 0}, {"type": "note_off", "time": 112, "note": 60, "velocity": 112, "channel": 0}, {"type": "note_on", "time": 6, "note": 63, "velocity": 117, "channel": 0}, {"type": "note_off", "time": 63, "note": 63, "velocity": 117, "channel": 0}, {"type": "note_on", "time": 1, "note": 65, "velocity": 121, "channel": 0}, {"type": "note_off", "time": 114, "note": 65, "velocity": 121, "channel": 0}, {"type": "note_on", "time": 4, "note": 63, "velocity": 117, "channel": 0}, {"type": "note_off", "time": 77, "note": 63, "velocity": 117, "channel": 0}, {"type": "note_on", "time": 607, "note": 80, "velocity": 125, "channel": 0}, {"type": "note_off", "time": 49, "note": 80, "velocity": 125, "channel": 0}, {"type": "note_on", "time": 1, "note": 79, "velocity": 121, "channel": 0}, {"type": "note_off", "time": 51, "note": 79, "velocity": 121, "channel": 0}, {"type": "note_on", "time": 3, "note": 77, "velocity": 125, "channel": 0}, {"type": "note_off", "time": 39, "note": 77, "velocity": 125, "channel": 0}, {"type": "note_on", "time": 3, "note": 76, "velocity": 124, "channel": 0}, {"type": "note_off", "time": 24, "note": 76, "velocity": 124, "channel": 0}, {"type": "note_on", "time": 3, "note": 75, "velocity": 127, "channel": 0}, {"type": "note_off", "time": 28, "note": 75, "velocity": 127, "channel": 0}, {"type": "note_on", "time": 4, "note": 74, "velocity": 123, "channel": 0}, {"type": "note_off", "time": 52, "note": 74, "velocity": 123, "channel": 0}, {"type": "note_on", "time": 5, "note": 72, "velocity": 118, "channel": 0}, {"type": "note_off", "time": 66, "note": 72, "velocity": 118, "channel": 0}, {"type": "note_on", "time": 3, "note": 71, "velocity": 121, "channel": 0}, {"type": "note_off", "time": 62, "note": 71, "velocity": 121, "channel": 0}, {"type": "note_on", "time": 1, "note": 74, "velocity": 124, "channel": 0}, {"type": "note_off", "time": 57, "note": 74, "velocity": 124, "channel": 0}, {"type": "note_on", "time": 2, "note": 72, "velocity": 122, "channel": 0}, {"type": "note_off", "time": 56, "note": 72, "velocity": 122, "channel": 0}, {"type": "note_on", "time": 10, "note": 67, "velocity": 119, "channel": 0}, {"type": "note_off", "time": 164, "note": 67, "velocity": 119, "channel": 0}, {"type": "note_on", "time": 8, "note": 70, "velocity": 118, "channel": 0}, {"type": "note_off", "time": 52, "note": 70, "velocity": 118, "channel": 0}, {"type": "note_on", "time": 19, "note": 67, "velocity": 111, "channel": 0}, {"type": "note_off", "time": 32, "note": 67, "velocity": 111, "channel": 0}, {"type": "note_on", "time": 3, "note": 69, "velocity": 120, "channel": 0}, {"type": "note_off", "time": 73, "note": 69, "velocity": 120, "channel": 0}, {"type": "note_on", "time": 15, "note": 67, "velocity": 117, "channel": 0}, {"type": "note_off", "time": 53, "note": 67, "velocity": 117, "channel": 0}, {"type": "note_on", "time": 16, "note": 66, "velocity": 118, "channel": 0}, {"type": "note_off", "time": 39, "note": 66, "velocity": 118, "channel": 0}, {"type": "note_on", "time": 10, "note": 69, "velocity": 118, "channel": 0}, {"type": "note_off", "time": 43, "note": 69, "velocity": 118, "channel": 0}, {"type": "note_on", "time": 18, "note": 63, "velocity": 117, "channel": 0}, {"type": "note_off", "time": 50, "note": 63, "velocity": 117, "channel": 0}, {"type": "note_on", "time": 4, "note": 65, "velocity": 105, "channel": 0}, {"type": "note_off", "time": 46, "note": 65, "velocity": 105, "channel": 0}, {"type": "note_on", "time": 12, "note": 62, "velocity": 117, "channel": 0}, {"type": "note_off", "time": 259, "note": 62, "velocity": 117, "channel": 0}, {"type": "note_on", "time": 377, "note": 77, "velocity": 121, "channel": 0}, {"type": "note_off", "time": 16, "note": 77, "velocity": 121, "channel": 0}, {"type": "note_on", "time": 3, "note": 76, "velocity": 119, "channel": 0}, {"type": "note_off", "time": 21, "note": 76, "velocity": 119, "channel": 0}, {"type": "note_on", "time": 3, "note": 75, "velocity": 122, "channel": 0}, {"type": "note_off", "time": 29, "note": 75, "velocity": 122, "channel": 0}, {"type": "note_on", "time": 1, "note": 74, "velocity": 122, "channel": 0}, {"type": "note_off", "time": 53, "note": 74, "velocity": 122, "channel": 0}, {"type": "note_on", "time": 17, "note": 72, "velocity": 118, "channel": 0}, {"type": "note_off", "time": 66, "note": 72, "velocity": 118, "channel": 0}, {"type": "note_on", "time": 4, "note": 71, "velocity": 119, "channel": 0}, {"type": "note_off", "time": 66, "note": 71, "velocity": 119, "channel": 0}, {"type": "note_on", "time": 6, "note": 68, "velocity": 117, "channel": 0}, {"type": "note_off", "time": 50, "note": 68, "velocity": 117, "channel": 0}, {"type": "note_on", "time": 13, "note": 67, "velocity": 117, "channel": 0}, {"type": "note_off", "time": 47, "note": 67, "velocity": 117, "channel": 0}, {"type": "note_on", "time": 16, "note": 65, "velocity": 115, "channel": 0}, {"type": "note_off", "time": 46, "note": 65, "velocity": 115, "channel": 0}, {"type": "note_on", "time": 29, "note": 70, "velocity": 117, "channel": 0}, {"type": "note_off", "time": 51, "note": 70, "velocity": 117, "channel": 0}, {"type": "note_on", "time": 25, "note": 68, "velocity": 113, "channel": 0}, {"type": "note_off", "time": 31, "note": 68, "velocity": 113, "channel": 0}, {"type": "note_on", "time": 4, "note": 70, "velocity": 101, "channel": 0}, {"type": "note_off", "time": 223, "note": 70, "velocity": 101, "channel": 0}, {"type": "note_on", "time": 465, "note": 72, "velocity": 118, "channel": 0}, {"type": "note_off", "time": 50, "note": 72, "velocity": 118, "channel": 0}, {"type": "note_on", "time": 1, "note": 74, "velocity": 120, "channel": 0}, {"type": "note_off", "time": 47, "note": 74, "velocity": 120, "channel": 0}, {"type": "note_on", "time": 10, "note": 71, "velocity": 116, "channel": 0}, {"type": "note_off", "time": 34, "note": 71, "velocity": 116, "channel": 0}, {"type": "note_on", "time": 1, "note": 74, "velocity": 119, "channel": 0}, {"type": "note_off", "time": 45, "note": 74, "velocity": 119, "channel": 0}, {"type": "note_on", "time": 4, "note": 68, "velocity": 118, "channel": 0}, {"type": "note_off", "time": 53, "note": 68, "velocity": 118, "channel": 0}, {"type": "note_on", "time": 2, "note": 67, "velocity": 117, "channel": 0}, {"type": "note_off", "time": 46, "note": 67, "velocity": 117, "channel": 0}, {"type": "note_on", "time": 10, "note": 65, "velocity": 116, "channel": 0}, {"type": "note_off", "time": 75, "note": 65, "velocity": 116, "channel": 0}, {"type": "note_on", "time": 25, "note": 62, "velocity": 117, "channel": 0}, {"type": "note_off", "time": 37, "note": 62, "velocity": 117, "channel": 0}, {"type": "note_on", "time": 3, "note": 63, "velocity": 116, "channel": 0}, {"type": "note_off", "time": 61, "note": 63, "velocity": 116, "channel": 0}, {"type": "note_on", "time": 8, "note": 60, "velocity": 111, "channel": 0}, {"type": "note_off", "time": 46, "note": 60, "velocity": 111, "channel": 0}, {"type": "note_on", "time": 55, "note": 59, "velocity": 104, "channel": 0}, {"type": "note_off", "time": 16, "note": 59, "velocity": 104, "channel": 0}, {"type": "note_on", "time": 4, "note": 57, "velocity": 111, "channel": 0}, {"type": "note_off", "time": 51, "note": 57, "velocity": 111, "channel": 0}, {"type": "note_on", "time": 2, "note": 58, "velocity": 114, "channel": 0}, {"type": "note_off", "time": 30, "note": 58, "velocity": 114, "channel": 0}, {"type": "note_on", "time": 3, "note": 59, "velocity": 110, "channel": 0}, {"type": "note_off", "time": 13, "note": 59, "velocity": 110, "channel": 0}, {"type": "note_on", "time": 5, "note": 61, "velocity": 114, "channel": 0}, {"type": "note_off", "time": 27, "note": 61, "velocity": 114, "channel": 0}, {"type": "note_on", "time": 6, "note": 62, "velocity": 113, "channel": 0}, {"type": "note_off", "time": 32, "note": 62, "velocity": 113, "channel": 0}, {"type": "note_on", "time": 1, "note": 64, "velocity": 119, "channel": 0}, {"type": "note_off", "time": 20, "note": 64, "velocity": 119, "channel": 0}, {"type": "note_on", "time": 8, "note": 67, "velocity": 115, "channel": 0}, {"type": "note_off", "time": 15, "note": 67, "velocity": 115, "channel": 0}, {"type": "note_on", "time": 5, "note": 68, "velocity": 120, "channel": 0}, {"type": "note_off", "time": 20, "note": 68, "velocity": 120, "channel": 0}, {"type": "note_on", "time": 4, "note": 70, "velocity": 115, "channel": 0}, {"type": "note_off", "time": 14, "note": 70, "velocity": 115, "channel": 0}, {"type": "note_on", "time": 3, "note": 72, "velocity": 119, "channel": 0}, {"type": "note_off", "time": 24, "note": 72, "velocity": 119, "channel": 0}, {"type": "note_on", "time": 1, "note": 74, "velocity": 124, "channel": 0}, {"type": "note_off", "time": 29, "note": 74, "velocity": 124, "channel": 0}, {"type": "note_on", "time": 2, "note": 75, "velocity": 121, "channel": 0}, {"type": "note_off", "time": 23, "note": 75, "velocity": 121, "channel": 0}, {"type": "note_on", "time": 4, "note": 74, "velocity": 120, "channel": 0}, {"type": "note_off", "time": 34, "note": 74, "velocity": 120, "channel": 0}, {"type": "note_on", "time": 653, "note": 77, "velocity": 119, "channel": 0}, {"type": "note_off", "time": 34, "note": 77, "velocity": 119, "channel": 0}, {"type": "note_on", "time": 1, "note": 76, "velocity": 113, "channel": 0}, {"type": "note_off", "time": 23, "note": 76, "velocity": 113, "channel": 0}, {"type": "note_on", "time": 3, "note": 77, "velocity": 118, "channel": 0}, {"type": "note_off", "time": 12, "note": 77, "velocity": 118, "channel": 0}, {"type": "note_on", "time": 1, "note": 75, "velocity": 124, "channel": 0}, {"type": "note_off", "time": 26, "note": 75, "velocity": 124, "channel": 0}, {"type": "note_on", "time": 1, "note": 74, "velocity": 121, "channel": 0}, {"type": "note_off", "time": 74, "note": 74, "velocity": 121, "channel": 0}, {"type": "note_on", "time": 48, "note": 72, "velocity": 118, "channel": 0}, {"type": "note_off", "time": 69, "note": 72, "velocity": 118, "channel": 0}, {"type": "note_on", "time": 13, "note": 71, "velocity": 119, "channel": 0}, {"type": "note_off", "time": 70, "note": 71, "velocity": 119, "channel": 0}, {"type": "note_on", "time": 28, "note": 68, "velocity": 120, "channel": 0}, {"type": "note_off", "time": 66, "note": 68, "velocity": 120, "channel": 0}, {"type": "note_on", "time": 6, "note": 67, "velocity": 118, "channel": 0}, {"type": "note_off", "time": 125, "note": 67, "velocity": 118, "channel": 0}, {"type": "note_on", "time": 2, "note": 65, "velocity": 113, "channel": 0}, {"type": "note_off", "time": 59, "note": 65, "velocity": 113, "channel": 0}, {"type": "note_on", "time": 2, "note": 67, "velocity": 117, "channel": 0}, {"type": "note_off", "time": 129, "note": 67, "velocity": 117, "channel": 0}, {"type": "note_on", "time": 8, "note": 65, "velocity": 111, "channel": 0}, {"type": "note_off", "time": 56, "note": 65, "velocity": 111, "channel": 0}, {"type": "note_on", "time": 0, "note": 67, "velocity": 119, "channel": 0}, {"type": "note_off", "time": 112, "note": 67, "velocity": 119, "channel": 0}, {"type": "note_on", "time": 81, "note": 73, "velocity": 122, "channel": 0}, {"type": "note_off", "time": 30, "note": 73, "velocity": 122, "channel": 0}, {"type": "note_on", "time": 4, "note": 74, "velocity": 124, "channel": 0}, {"type": "note_off", "time": 139, "note": 74, "velocity": 124, "channel": 0}, {"type": "note_on", "time": 15, "note": 72, "velocity": 120, "channel": 0}, {"type": "note_off", "time": 18, "note": 72, "velocity": 120, "channel": 0}, {"type": "note_on", "time": 98, "note": 69, "velocity": 120, "channel": 0}, {"type": "note_off", "time": 60, "note": 69, "velocity": 120, "channel": 0}, {"type": "note_on", "time": 0, "note": 67, "velocity": 120, "channel": 0}, {"type": "note_off", "time": 149, "note": 67, "velocity": 120, "channel": 0}, {"type": "note_on", "time": 61, "note": 69, "velocity": 103, "channel": 0}, {"type": "note_off", "time": 185, "note": 69, "velocity": 103, "channel": 0}, {"type": "note_on", "time": 921, "note": 77, "velocity": 10, "channel": 0}, {"type": "note_off", "time": 47, "note": 77, "velocity": 10, "channel": 0}, {"type": "note_on", "time": 21, "note": 79, "velocity": 121, "channel": 0}, {"type": "note_off", "time": 34, "note": 79, "velocity": 121, "channel": 0}, {"type": "note_on", "time": 3, "note": 80, "velocity": 125, "channel": 0}, {"type": "note_off", "time": 27, "note": 80, "velocity": 125, "channel": 0}, {"type": "note_on", "time": 9, "note": 83, "velocity": 121, "channel": 0}, {"type": "note_off", "time": 19, "note": 83, "velocity": 121, "channel": 0}, {"type": "note_on", "time": 1, "note": 82, "velocity": 124, "channel": 0}, {"type": "note_off", "time": 55, "note": 82, "velocity": 124, "channel": 0}, {"type": "note_on", "time": 12, "note": 79, "velocity": 120, "channel": 0}, {"type": "note_off", "time": 333, "note": 79, "velocity": 120, "channel": 0}, {"type": "note_on", "time": 259, "note": 74, "velocity": 123, "channel": 0}, {"type": "note_off", "time": 17, "note": 74, "velocity": 123, "channel": 0}, {"type": "note_on", "time": 2, "note": 77, "velocity": 111, "channel": 0}, {"type": "note_off", "time": 12, "note": 77, "velocity": 111, "channel": 0}, {"type": "note_on", "time": 6, "note": 76, "velocity": 124, "channel": 0}, {"type": "note_off", "time": 24, "note": 76, "velocity": 124, "channel": 0}, {"type": "note_on", "time": 4, "note": 75, "velocity": 118, "channel": 0}, {"type": "note_off", "time": 29, "note": 75, "velocity": 118, "channel": 0}, {"type": "note_on", "time": 5, "note": 78, "velocity": 123, "channel": 0}, {"type": "note_off", "time": 33, "note": 78, "velocity": 123, "channel": 0}, {"type": "note_on", "time": 3, "note": 76, "velocity": 118, "channel": 0}, {"type": "note_off", "time": 25, "note": 76, "velocity": 118, "channel": 0}, {"type": "note_on", "time": 1, "note": 73, "velocity": 117, "channel": 0}, {"type": "note_off", "time": 25, "note": 73, "velocity": 117, "channel": 0}, {"type": "note_on", "time": 11, "note": 71, "velocity": 115, "channel": 0}, {"type": "note_off", "time": 20, "note": 71, "velocity": 115, "channel": 0}, {"type": "note_on", "time": 8, "note": 76, "velocity": 122, "channel": 0}, {"type": "note_off", "time": 36, "note": 76, "velocity": 122, "channel": 0}, {"type": "note_on", "time": 3, "note": 77, "velocity": 117, "channel": 0}, {"type": "note_off", "time": 16, "note": 77, "velocity": 117, "channel": 0}, {"type": "note_on", "time": 0, "note": 76, "velocity": 122, "channel": 0}, {"type": "note_off", "time": 36, "note": 76, "velocity": 122, "channel": 0}, {"type": "note_on", "time": 1, "note": 75, "velocity": 119, "channel": 0}, {"type": "note_off", "time": 23, "note": 75, "velocity": 119, "channel": 0}, {"type": "note_on", "time": 4, "note": 73, "velocity": 118, "channel": 0}, {"type": "note_off", "time": 32, "note": 73, "velocity": 118, "channel": 0}, {"type": "note_on", "time": 4, "note": 71, "velocity": 104, "channel": 0}, {"type": "note_off", "time": 20, "note": 71, "velocity": 104, "channel": 0}, {"type": "note_on", "time": 1, "note": 72, "velocity": 115, "channel": 0}, {"type": "note_off", "time": 24, "note": 72, "velocity": 115, "channel": 0}, {"type": "note_on", "time": 3, "note": 70, "velocity": 120, "channel": 0}, {"type": "note_off", "time": 26, "note": 70, "velocity": 120, "channel": 0}, {"type": "note_on", "time": 5, "note": 69, "velocity": 117, "channel": 0}, {"type": "note_off", "time": 24, "note": 69, "velocity": 117, "channel": 0}, {"type": "note_on", "time": 6, "note": 68, "velocity": 119, "channel": 0}, {"type": "note_off", "time": 27, "note": 68, "velocity": 119, "channel": 0}, {"type": "note_on", "time": 43, "note": 70, "velocity": 121, "channel": 0}, {"type": "note_off", "time": 51, "note": 70, "velocity": 121, "channel": 0}, {"type": "note_on", "time": 32, "note": 68, "velocity": 120, "channel": 0}, {"type": "note_off", "time": 17, "note": 68, "velocity": 120, "channel": 0}, {"type": "note_on", "time": 1, "note": 65, "velocity": 117, "channel": 0}, {"type": "note_off", "time": 36, "note": 65, "velocity": 117, "channel": 0}, {"type": "note_on", "time": 15, "note": 68, "velocity": 121, "channel": 0}, {"type": "note_off", "time": 202, "note": 68, "velocity": 121, "channel": 0}, {"type": "note_on", "time": 4, "note": 67, "velocity": 120, "channel": 0}, {"type": "note_off", "time": 155, "note": 67, "velocity": 120, "channel": 0}, {"type": "note_on", "time": 46, "note": 68, "velocity": 121, "channel": 0}, {"type": "note_off", "time": 172, "note": 68, "velocity": 121, "channel": 0}, {"type": "note_on", "time": 12, "note": 67, "velocity": 121, "channel": 0}, {"type": "note_off", "time": 181, "note": 67, "velocity": 121, "channel": 0}, {"type": "note_on", "time": 22, "note": 68, "velocity": 122, "channel": 0}, {"type": "note_off", "time": 191, "note": 68, "velocity": 122, "channel": 0}, {"type": "note_on", "time": 16, "note": 67, "velocity": 120, "channel": 0}, {"type": "note_off", "time": 96, "note": 67, "velocity": 120, "channel": 0}, {"type": "note_on", "time": 10, "note": 63, "velocity": 113, "channel": 0}, {"type": "note_off", "time": 39, "note": 63, "velocity": 113, "channel": 0}, {"type": "note_on", "time": 544, "note": 72, "velocity": 120, "channel": 0}, {"type": "note_off", "time": 49, "note": 72, "velocity": 120, "channel": 0}, {"type": "note_on", "time": 8, "note": 70, "velocity": 118, "channel": 0}, {"type": "note_off", "time": 52, "note": 70, "velocity": 118, "channel": 0}, {"type": "note_on", "time": 5, "note": 67, "velocity": 119, "channel": 0}, {"type": "note_off", "time": 60, "note": 67, "velocity": 119, "channel": 0}, {"type": "note_on", "time": 6, "note": 66, "velocity": 119, "channel": 0}, {"type": "note_off", "time": 52, "note": 66, "velocity": 119, "channel": 0}, {"type": "note_on", "time": 6, "note": 65, "velocity": 121, "channel": 0}, {"type": "note_off", "time": 138, "note": 65, "velocity": 121, "channel": 0}, {"type": "note_on", "time": 23, "note": 63, "velocity": 110, "channel": 0}, {"type": "note_off", "time": 24, "note": 63, "velocity": 110, "channel": 0}, {"type": "note_on", "time": 5, "note": 65, "velocity": 118, "channel": 0}, {"type": "note_off", "time": 136, "note": 65, "velocity": 118, "channel": 0}, {"type": "note_on", "time": 19, "note": 63, "velocity": 106, "channel": 0}, {"type": "note_off", "time": 28, "note": 63, "velocity": 106, "channel": 0}, {"type": "note_on", "time": 3, "note": 65, "velocity": 117, "channel": 0}, {"type": "note_off", "time": 126, "note": 65, "velocity": 117, "channel": 0}, {"type": "note_on", "time": 8, "note": 63, "velocity": 119, "channel": 0}, {"type": "note_off", "time": 15, "note": 63, "velocity": 119, "channel": 0}, {"type": "note_on", "time": 431, "note": 72, "velocity": 119, "channel": 0}, {"type": "note_off", "time": 114, "note": 72, "velocity": 119, "channel": 0}, {"type": "note_on", "time": 70, "note": 75, "velocity": 123, "channel": 0}, {"type": "note_off", "time": 165, "note": 75, "velocity": 123, "channel": 0}, {"type": "note_on", "time": 430, "note": 72, "velocity": 115, "channel": 0}, {"type": "note_off", "time": 113, "note": 72, "velocity": 115, "channel": 0}, {"type": "note_on", "time": 57, "note": 75, "velocity": 121, "channel": 0}, {"type": "note_off", "time": 132, "note": 75, "velocity": 121, "channel": 0}, {"type": "note_on", "time": 2, "note": 75, "velocity": 110, "channel": 0}, {"type": "note_off", "time": 43, "note": 75, "velocity": 110, "channel": 0}, {"type": "note_on", "time": 559, "note": 72, "velocity": 120, "channel": 0}, {"type": "note_off", "time": 49, "note": 72, "velocity": 120, "channel": 0}, {"type": "note_on", "time": 15, "note": 77, "velocity": 120, "channel": 0}, {"type": "note_off", "time": 52, "note": 77, "velocity": 120, "channel": 0}, {"type": "note_on", "time": 3, "note": 75, "velocity": 124, "channel": 0}, {"type": "note_off", "time": 49, "note": 75, "velocity": 124, "channel": 0}, {"type": "note_on", "time": 36, "note": 70, "velocity": 118, "channel": 0}, {"type": "note_off", "time": 349, "note": 70, "velocity": 118, "channel": 0}, {"type": "note_on", "time": 3, "note": 69, "velocity": 121, "channel": 0}, {"type": "note_off", "time": 27, "note": 69, "velocity": 121, "channel": 0}, {"type": "note_on", "time": 3, "note": 68, "velocity": 117, "channel": 0}, {"type": "note_off", "time": 33, "note": 68, "velocity": 117, "channel": 0}, {"type": "note_on", "time": 1, "note": 70, "velocity": 113, "channel": 0}, {"type": "note_off", "time": 30, "note": 70, "velocity": 113, "channel": 0}, {"type": "note_on", "time": 4, "note": 71, "velocity": 116, "channel": 0}, {"type": "note_off", "time": 20, "note": 71, "velocity": 116, "channel": 0}, {"type": "note_on", "time": 5, "note": 73, "velocity": 117, "channel": 0}, {"type": "note_off", "time": 35, "note": 73, "velocity": 117, "channel": 0}, {"type": "note_on", "time": 1, "note": 70, "velocity": 120, "channel": 0}, {"type": "note_off", "time": 21, "note": 70, "velocity": 120, "channel": 0}, {"type": "note_on", "time": 2, "note": 69, "velocity": 122, "channel": 0}, {"type": "note_off", "time": 28, "note": 69, "velocity": 122, "channel": 0}, {"type": "note_on", "time": 4, "note": 68, "velocity": 119, "channel": 0}, {"type": "note_off", "time": 36, "note": 68, "velocity": 119, "channel": 0}, {"type": "note_on", "time": 48, "note": 70, "velocity": 119, "channel": 0}, {"type": "note_off", "time": 56, "note": 70, "velocity": 119, "channel": 0}, {"type": "note_on", "time": 16, "note": 64, "velocity": 93, "channel": 0}, {"type": "note_off", "time": 18, "note": 64, "velocity": 93, "channel": 0}, {"type": "note_on", "time": 2, "note": 68, "velocity": 115, "channel": 0}, {"type": "note_off", "time": 67, "note": 68, "velocity": 115, "channel": 0}, {"type": "note_on", "time": 2, "note": 67, "velocity": 122, "channel": 0}, {"type": "note_off", "time": 75, "note": 67, "velocity": 122, "channel": 0}, {"type": "note_on", "time": 8, "note": 65, "velocity": 118, "channel": 0}, {"type": "note_off", "time": 287, "note": 65, "velocity": 118, "channel": 0}, {"type": "note_on", "time": 27, "note": 63, "velocity": 123, "channel": 0}, {"type": "note_off", "time": 38, "note": 63, "velocity": 123, "channel": 0}, {"type": "note_on", "time": 18, "note": 60, "velocity": 101, "channel": 0}, {"type": "note_off", "time": 38, "note": 60, "velocity": 101, "channel": 0}, {"type": "note_on", "time": 4, "note": 63, "velocity": 121, "channel": 0}, {"type": "note_off", "time": 63, "note": 63, "velocity": 121, "channel": 0}, {"type": "note_on", "time": 12, "note": 65, "velocity": 120, "channel": 0}, {"type": "note_off", "time": 120, "note": 65, "velocity": 120, "channel": 0}, {"type": "note_on", "time": 4, "note": 65, "velocity": 94, "channel": 0}, {"type": "note_off", "time": 53, "note": 65, "velocity": 94, "channel": 0}, {"type": "note_on", "time": 406, "note": 64, "velocity": 119, "channel": 0}, {"type": "note_off", "time": 12, "note": 64, "velocity": 119, "channel": 0}, {"type": "note_on", "time": 3, "note": 65, "velocity": 122, "channel": 0}, {"type": "note_off", "time": 18, "note": 65, "velocity": 122, "channel": 0}, {"type": "note_on", "time": 4, "note": 63, "velocity": 114, "channel": 0}, {"type": "note_off", "time": 18, "note": 63, "velocity": 114, "channel": 0}, {"type": "note_on", "time": 8, "note": 60, "velocity": 106, "channel": 0}, {"type": "note_off", "time": 46, "note": 60, "velocity": 106, "channel": 0}, {"type": "note_on", "time": 16, "note": 63, "velocity": 114, "channel": 0}, {"type": "note_off", "time": 44, "note": 63, "velocity": 114, "channel": 0}, {"type": "note_on", "time": 30, "note": 65, "velocity": 111, "channel": 0}, {"type": "note_off", "time": 104, "note": 65, "velocity": 111, "channel": 0}, {"type": "note_on", "time": 10, "note": 65, "velocity": 100, "channel": 0}, {"type": "note_off", "time": 30, "note": 65, "velocity": 100, "channel": 0}, {"type": "note_on", "time": 643, "note": 78, "velocity": 123, "channel": 0}, {"type": "note_off", "time": 35, "note": 78, "velocity": 123, "channel": 0}, {"type": "note_on", "time": 2, "note": 77, "velocity": 123, "channel": 0}, {"type": "note_off", "time": 106, "note": 77, "velocity": 123, "channel": 0}, {"type": "note_on", "time": 30, "note": 75, "velocity": 125, "channel": 0}, {"type": "note_off", "time": 46, "note": 75, "velocity": 125, "channel": 0}, {"type": "note_on", "time": 8, "note": 72, "velocity": 122, "channel": 0}, {"type": "note_off", "time": 107, "note": 72, "velocity": 122, "channel": 0}, {"type": "note_on", "time": 42, "note": 70, "velocity": 119, "channel": 0}, {"type": "note_off", "time": 50, "note": 70, "velocity": 119, "channel": 0}, {"type": "note_on", "time": 12, "note": 67, "velocity": 119, "channel": 0}, {"type": "note_off", "time": 55, "note": 67, "velocity": 119, "channel": 0}, {"type": "note_on", "time": 9, "note": 72, "velocity": 123, "channel": 0}, {"type": "note_off", "time": 52, "note": 72, "velocity": 123, "channel": 0}, {"type": "note_on", "time": 7, "note": 74, "velocity": 123, "channel": 0}, {"type": "note_off", "time": 62, "note": 74, "velocity": 123, "channel": 0}, {"type": "note_on", "time": 4, "note": 72, "velocity": 122, "channel": 0}, {"type": "note_off", "time": 56, "note": 72, "velocity": 122, "channel": 0}, {"type": "note_on", "time": 1, "note": 69, "velocity": 118, "channel": 0}, {"type": "note_off", "time": 53, "note": 69, "velocity": 118, "channel": 0}, {"type": "note_on", "time": 15, "note": 67, "velocity": 116, "channel": 0}, {"type": "note_off", "time": 53, "note": 67, "velocity": 116, "channel": 0}, {"type": "note_on", "time": 11, "note": 72, "velocity": 120, "channel": 0}, {"type": "note_off", "time": 53, "note": 72, "velocity": 120, "channel": 0}, {"type": "note_on", "time": 10, "note": 69, "velocity": 120, "channel": 0}, {"type": "note_off", "time": 52, "note": 69, "velocity": 120, "channel": 0}, {"type": "note_on", "time": 13, "note": 67, "velocity": 119, "channel": 0}, {"type": "note_off", "time": 55, "note": 67, "velocity": 119, "channel": 0}, {"type": "note_on", "time": 10, "note": 69, "velocity": 119, "channel": 0}, {"type": "note_off", "time": 55, "note": 69, "velocity": 119, "channel": 0}, {"type": "note_on", "time": 3, "note": 67, "velocity": 119, "channel": 0}, {"type": "note_off", "time": 54, "note": 67, "velocity": 119, "channel": 0}, {"type": "note_on", "time": 15, "note": 65, "velocity": 121, "channel": 0}, {"type": "note_off", "time": 153, "note": 65, "velocity": 121, "channel": 0}, {"type": "note_on", "time": 40, "note": 63, "velocity": 120, "channel": 0}, {"type": "note_off", "time": 123, "note": 63, "velocity": 120, "channel": 0}, {"type": "note_on", "time": 32, "note": 63, "velocity": 96, "channel": 0}, {"type": "note_off", "time": 17, "note": 63, "velocity": 96, "channel": 0}, {"type": "note_on", "time": 7, "note": 65, "velocity": 118, "channel": 0}, {"type": "note_off", "time": 140, "note": 65, "velocity": 118, "channel": 0}, {"type": "note_on", "time": 23, "note": 63, "velocity": 107, "channel": 0}, {"type": "note_off", "time": 26, "note": 63, "velocity": 107, "channel": 0}, {"type": "note_on", "time": 2, "note": 65, "velocity": 118, "channel": 0}, {"type": "note_off", "time": 150, "note": 65, "velocity": 118, "channel": 0}, {"type": "note_on", "time": 774, "note": 69, "velocity": 117, "channel": 0}, {"type": "note_off", "time": 45, "note": 69, "velocity": 117, "channel": 0}, {"type": "note_on", "time": 2, "note": 70, "velocity": 116, "channel": 0}, {"type": "note_off", "time": 242, "note": 70, "velocity": 116, "channel": 0}, {"type": "note_on", "time": 29, "note": 67, "velocity": 119, "channel": 0}, {"type": "note_off", "time": 58, "note": 67, "velocity": 119, "channel": 0}, {"type": "note_on", "time": 5, "note": 65, "velocity": 117, "channel": 0}, {"type": "note_off", "time": 52, "note": 65, "velocity": 117, "channel": 0}, {"type": "note_on", "time": 8, "note": 63, "velocity": 115, "channel": 0}, {"type": "note_off", "time": 61, "note": 63, "velocity": 115, "channel": 0}, {"type": "note_on", "time": 13, "note": 60, "velocity": 98, "channel": 0}, {"type": "note_off", "time": 36, "note": 60, "velocity": 98, "channel": 0}, {"type": "note_on", "time": 11, "note": 65, "velocity": 115, "channel": 0}, {"type": "note_off", "time": 514, "note": 65, "velocity": 115, "channel": 0}, {"type": "note_on", "time": 18, "note": 63, "velocity": 117, "channel": 0}, {"type": "note_off", "time": 57, "note": 63, "velocity": 117, "channel": 0}, {"type": "note_on", "time": 4, "note": 65, "velocity": 118, "channel": 0}, {"type": "note_off", "time": 49, "note": 65, "velocity": 118, "channel": 0}, {"type": "note_on", "time": 31, "note": 70, "velocity": 118, "channel": 0}, {"type": "note_off", "time": 265, "note": 70, "velocity": 118, "channel": 0}, {"type": "note_on", "time": 3, "note": 68, "velocity": 122, "channel": 0}, {"type": "note_off", "time": 54, "note": 68, "velocity": 122, "channel": 0}, {"type": "note_on", "time": 1, "note": 70, "velocity": 120, "channel": 0}, {"type": "note_off", "time": 39, "note": 70, "velocity": 120, "channel": 0}, {"type": "note_on", "time": 6, "note": 71, "velocity": 110, "channel": 0}, {"type": "note_off", "time": 21, "note": 71, "velocity": 110, "channel": 0}, {"type": "note_on", "time": 3, "note": 73, "velocity": 123, "channel": 0}, {"type": "note_off", "time": 45, "note": 73, "velocity": 123, "channel": 0}, {"type": "note_on", "time": 4, "note": 70, "velocity": 118, "channel": 0}, {"type": "note_off", "time": 58, "note": 70, "velocity": 118, "channel": 0}, {"type": "note_on", "time": 20, "note": 66, "velocity": 110, "channel": 0}, {"type": "note_off", "time": 20, "note": 66, "velocity": 110, "channel": 0}, {"type": "note_on", "time": 33, "note": 68, "velocity": 122, "channel": 0}, {"type": "note_off", "time": 104, "note": 68, "velocity": 122, "channel": 0}, {"type": "note_on", "time": 27, "note": 68, "velocity": 119, "channel": 0}, {"type": "note_off", "time": 13, "note": 68, "velocity": 119, "channel": 0}, {"type": "note_on", "time": 1, "note": 70, "velocity": 117, "channel": 0}, {"type": "note_off", "time": 36, "note": 70, "velocity": 117, "channel": 0}, {"type": "note_on", "time": 4, "note": 67, "velocity": 116, "channel": 0}, {"type": "note_off", "time": 193, "note": 67, "velocity": 116, "channel": 0}, {"type": "note_on", "time": 535, "note": 74, "velocity": 119, "channel": 0}, {"type": "note_off", "time": 76, "note": 74, "velocity": 119, "channel": 0}, {"type": "note_on", "time": 1, "note": 69, "velocity": 102, "channel": 0}, {"type": "note_off", "time": 214, "note": 69, "velocity": 102, "channel": 0}, {"type": "note_on", "time": 677, "note": 77, "velocity": 116, "channel": 0}, {"type": "note_off", "time": 67, "note": 77, "velocity": 116, "channel": 0}, {"type": "note_on", "time": 13, "note": 75, "velocity": 117, "channel": 0}, {"type": "note_off", "time": 31, "note": 75, "velocity": 117, "channel": 0}, {"type": "note_on", "time": 81, "note": 72, "velocity": 117, "channel": 0}, {"type": "note_off", "time": 52, "note": 72, "velocity": 117, "channel": 0}, {"type": "note_on", "time": 18, "note": 70, "velocity": 117, "channel": 0}, {"type": "note_off", "time": 113, "note": 70, "velocity": 117, "channel": 0}, {"type": "note_on", "time": 13, "note": 67, "velocity": 119, "channel": 0}, {"type": "note_off", "time": 37, "note": 67, "velocity": 119, "channel": 0}, {"type": "note_on", "time": 20, "note": 71, "velocity": 117, "channel": 0}, {"type": "note_off", "time": 120, "note": 71, "velocity": 117, "channel": 0}, {"type": "note_on", "time": 69, "note": 72, "velocity": 116, "channel": 0}, {"type": "note_off", "time": 95, "note": 72, "velocity": 116, "channel": 0}, {"type": "note_on", "time": 672, "note": 79, "velocity": 117, "channel": 0}, {"type": "note_off", "time": 86, "note": 79, "velocity": 117, "channel": 0}, {"type": "note_on", "time": 297, "note": 77, "velocity": 117, "channel": 0}, {"type": "note_off", "time": 96, "note": 77, "velocity": 117, "channel": 0}, {"type": "note_on", "time": 250, "note": 74, "velocity": 122, "channel": 0}, {"type": "note_off", "time": 77, "note": 74, "velocity": 122, "channel": 0}, {"type": "note_on", "time": 4, "note": 72, "velocity": 118, "channel": 0}, {"type": "note_off", "time": 79, "note": 72, "velocity": 118, "channel": 0}, {"type": "note_on", "time": 42, "note": 69, "velocity": 118, "channel": 0}, {"type": "note_off", "time": 56, "note": 69, "velocity": 118, "channel": 0}, {"type": "note_on", "time": 13, "note": 67, "velocity": 117, "channel": 0}, {"type": "note_off", "time": 113, "note": 67, "velocity": 117, "channel": 0}, {"type": "note_on", "time": 74, "note": 65, "velocity": 113, "channel": 0}, {"type": "note_off", "time": 111, "note": 65, "velocity": 113, "channel": 0}, {"type": "note_on", "time": 401, "note": 72, "velocity": 119, "channel": 0}, {"type": "note_off", "time": 64, "note": 72, "velocity": 119, "channel": 0}, {"type": "note_on", "time": 6, "note": 77, "velocity": 120, "channel": 0}, {"type": "note_off", "time": 59, "note": 77, "velocity": 120, "channel": 0}, {"type": "note_on", "time": 1, "note": 75, "velocity": 124, "channel": 0}, {"type": "note_off", "time": 60, "note": 75, "velocity": 124, "channel": 0}, {"type": "note_on", "time": 4, "note": 70, "velocity": 118, "channel": 0}, {"type": "note_off", "time": 338, "note": 70, "velocity": 118, "channel": 0}, {"type": "note_on", "time": 3, "note": 67, "velocity": 105, "channel": 0}, {"type": "note_off", "time": 17, "note": 67, "velocity": 105, "channel": 0}, {"type": "note_on", "time": 3, "note": 68, "velocity": 123, "channel": 0}, {"type": "note_off", "time": 42, "note": 68, "velocity": 123, "channel": 0}, {"type": "note_on", "time": 4, "note": 70, "velocity": 117, "channel": 0}, {"type": "note_off", "time": 53, "note": 70, "velocity": 117, "channel": 0}, {"type": "note_on", "time": 17, "note": 67, "velocity": 118, "channel": 0}, {"type": "note_off", "time": 29, "note": 67, "velocity": 118, "channel": 0}, {"type": "note_on", "time": 3, "note": 68, "velocity": 122, "channel": 0}, {"type": "note_off", "time": 46, "note": 68, "velocity": 122, "channel": 0}, {"type": "note_on", "time": 11, "note": 67, "velocity": 106, "channel": 0}, {"type": "note_off", "time": 242, "note": 67, "velocity": 106, "channel": 0}, {"type": "note_on", "time": 538, "note": 77, "velocity": 120, "channel": 0}, {"type": "note_off", "time": 26, "note": 77, "velocity": 120, "channel": 0}, {"type": "note_on", "time": 1, "note": 76, "velocity": 118, "channel": 0}, {"type": "note_off", "time": 20, "note": 76, "velocity": 118, "channel": 0}, {"type": "note_on", "time": 2, "note": 75, "velocity": 119, "channel": 0}, {"type": "note_off", "time": 27, "note": 75, "velocity": 119, "channel": 0}, {"type": "note_on", "time": 3, "note": 74, "velocity": 122, "channel": 0}, {"type": "note_off", "time": 39, "note": 74, "velocity": 122, "channel": 0}, {"type": "note_on", "time": 2, "note": 72, "velocity": 118, "channel": 0}, {"type": "note_off", "time": 50, "note": 72, "velocity": 118, "channel": 0}, {"type": "note_on", "time": 2, "note": 71, "velocity": 118, "channel": 0}, {"type": "note_off", "time": 48, "note": 71, "velocity": 118, "channel": 0}, {"type": "note_on", "time": 10, "note": 68, "velocity": 118, "channel": 0}, {"type": "note_off", "time": 42, "note": 68, "velocity": 118, "channel": 0}, {"type": "note_on", "time": 2, "note": 67, "velocity": 119, "channel": 0}, {"type": "note_off", "time": 54, "note": 67, "velocity": 119, "channel": 0}, {"type": "note_on", "time": 41, "note": 70, "velocity": 118, "channel": 0}, {"type": "note_off", "time": 37, "note": 70, "velocity": 118, "channel": 0}, {"type": "note_on", "time": 5, "note": 67, "velocity": 106, "channel": 0}, {"type": "note_off", "time": 38, "note": 67, "velocity": 106, "channel": 0}, {"type": "note_on", "time": 6, "note": 69, "velocity": 117, "channel": 0}, {"type": "note_off", "time": 114, "note": 69, "velocity": 117, "channel": 0}, {"type": "note_on", "time": 20, "note": 67, "velocity": 118, "channel": 0}, {"type": "note_off", "time": 38, "note": 67, "velocity": 118, "channel": 0}, {"type": "note_on", "time": 5, "note": 66, "velocity": 116, "channel": 0}, {"type": "note_off", "time": 44, "note": 66, "velocity": 116, "channel": 0}, {"type": "note_on", "time": 8, "note": 69, "velocity": 119, "channel": 0}, {"type": "note_off", "time": 38, "note": 69, "velocity": 119, "channel": 0}, {"type": "note_on", "time": 3, "note": 72, "velocity": 120, "channel": 0}, {"type": "note_off", "time": 41, "note": 72, "velocity": 120, "channel": 0}, {"type": "note_on", "time": 8, "note": 75, "velocity": 123, "channel": 0}, {"type": "note_off", "time": 46, "note": 75, "velocity": 123, "channel": 0}, {"type": "note_on", "time": 2, "note": 74, "velocity": 122, "channel": 0}, {"type": "note_off", "time": 40, "note": 74, "velocity": 122, "channel": 0}, {"type": "note_on", "time": 6, "note": 72, "velocity": 119, "channel": 0}, {"type": "note_off", "time": 39, "note": 72, "velocity": 119, "channel": 0}, {"type": "note_on", "time": 4, "note": 70, "velocity": 119, "channel": 0}, {"type": "note_off", "time": 44, "note": 70, "velocity": 119, "channel": 0}, {"type": "note_on", "time": 27, "note": 67, "velocity": 105, "channel": 0}, {"type": "note_off", "time": 18, "note": 67, "velocity": 105, "channel": 0}, {"type": "note_on", "time": 1, "note": 69, "velocity": 119, "channel": 0}, {"type": "note_off", "time": 51, "note": 69, "velocity": 119, "channel": 0}, {"type": "note_on", "time": 3, "note": 67, "velocity": 118, "channel": 0}, {"type": "note_off", "time": 35, "note": 67, "velocity": 118, "channel": 0}, {"type": "note_on", "time": 4, "note": 66, "velocity": 116, "channel": 0}, {"type": "note_off", "time": 40, "note": 66, "velocity": 116, "channel": 0}, {"type": "note_on", "time": 8, "note": 69, "velocity": 120, "channel": 0}, {"type": "note_off", "time": 38, "note": 69, "velocity": 120, "channel": 0}, {"type": "note_on", "time": 1, "note": 67, "velocity": 120, "channel": 0}, {"type": "note_off", "time": 81, "note": 67, "velocity": 120, "channel": 0}, {"type": "note_on", "time": 50, "note": 69, "velocity": 118, "channel": 0}, {"type": "note_off", "time": 57, "note": 69, "velocity": 118, "channel": 0}, {"type": "note_on", "time": 5, "note": 70, "velocity": 118, "channel": 0}, {"type": "note_off", "time": 173, "note": 70, "velocity": 118, "channel": 0}, {"type": "note_on", "time": 9, "note": 66, "velocity": 116, "channel": 0}, {"type": "note_off", "time": 20, "note": 66, "velocity": 116, "channel": 0}, {"type": "note_on", "time": 11, "note": 65, "velocity": 10, "channel": 0}, {"type": "note_off", "time": 167, "note": 65, "velocity": 10, "channel": 0}, {"type": "note_on", "time": 12, "note": 63, "velocity": 118, "channel": 0}, {"type": "note_off", "time": 113, "note": 63, "velocity": 118, "channel": 0}, {"type": "note_on", "time": 32, "note": 60, "velocity": 115, "channel": 0}, {"type": "note_off", "time": 37, "note": 60, "velocity": 115, "channel": 0}, {"type": "note_on", "time": 9, "note": 58, "velocity": 115, "channel": 0}, {"type": "note_off", "time": 142, "note": 58, "velocity": 115, "channel": 0}, {"type": "note_on", "time": 25, "note": 55, "velocity": 107, "channel": 0}, {"type": "note_off", "time": 20, "note": 55, "velocity": 107, "channel": 0}, {"type": "note_on", "time": 4, "note": 58, "velocity": 113, "channel": 0}, {"type": "note_off", "time": 126, "note": 58, "velocity": 113, "channel": 0}, {"type": "note_on", "time": 464, "note": 71, "velocity": 119, "channel": 0}, {"type": "note_off", "time": 23, "note": 71, "velocity": 119, "channel": 0}, {"type": "note_on", "time": 3, "note": 72, "velocity": 120, "channel": 0}, {"type": "note_off", "time": 87, "note": 72, "velocity": 120, "channel": 0}, {"type": "note_on", "time": 10, "note": 75, "velocity": 122, "channel": 0}, {"type": "note_off", "time": 53, "note": 75, "velocity": 122, "channel": 0}, {"type": "note_on", "time": 14, "note": 75, "velocity": 122, "channel": 0}, {"type": "note_off", "time": 114, "note": 75, "velocity": 122, "channel": 0}, {"type": "note_on", "time": 17, "note": 75, "velocity": 94, "channel": 0}, {"type": "note_off", "time": 30, "note": 75, "velocity": 94, "channel": 0}, {"type": "note_on", "time": 536, "note": 77, "velocity": 118, "channel": 0}, {"type": "note_off", "time": 64, "note": 77, "velocity": 118, "channel": 0}, {"type": "note_on", "time": 4, "note": 75, "velocity": 125, "channel": 0}, {"type": "note_off", "time": 122, "note": 75, "velocity": 125, "channel": 0}, {"type": "note_on", "time": 8, "note": 75, "velocity": 118, "channel": 0}, {"type": "note_off", "time": 30, "note": 75, "velocity": 118, "channel": 0}, {"type": "note_on", "time": 679, "note": 77, "velocity": 119, "channel": 0}, {"type": "note_off", "time": 53, "note": 77, "velocity": 119, "channel": 0}, {"type": "note_on", "time": 3, "note": 75, "velocity": 121, "channel": 0}, {"type": "note_off", "time": 80, "note": 75, "velocity": 121, "channel": 0}, {"type": "note_on", "time": 0, "note": 82, "velocity": 123, "channel": 0}, {"type": "note_off", "time": 192, "note": 82, "velocity": 123, "channel": 0}, {"type": "note_on", "time": 374, "note": 80, "velocity": 109, "channel": 0}, {"type": "note_off", "time": 54, "note": 80, "velocity": 109, "channel": 0}, {"type": "note_on", "time": 3, "note": 79, "velocity": 122, "channel": 0}, {"type": "note_off", "time": 66, "note": 79, "velocity": 122, "channel": 0}, {"type": "note_on", "time": 3, "note": 77, "velocity": 118, "channel": 0}, {"type": "note_off", "time": 58, "note": 77, "velocity": 118, "channel": 0}, {"type": "note_on", "time": 3, "note": 76, "velocity": 122, "channel": 0}, {"type": "note_off", "time": 20, "note": 76, "velocity": 122, "channel": 0}, {"type": "note_on", "time": 2, "note": 75, "velocity": 123, "channel": 0}, {"type": "note_off", "time": 25, "note": 75, "velocity": 123, "channel": 0}, {"type": "note_on", "time": 3, "note": 74, "velocity": 125, "channel": 0}, {"type": "note_off", "time": 54, "note": 74, "velocity": 125, "channel": 0}, {"type": "note_on", "time": 7, "note": 75, "velocity": 116, "channel": 0}, {"type": "note_off", "time": 12, "note": 75, "velocity": 116, "channel": 0}, {"type": "note_on", "time": 6, "note": 72, "velocity": 118, "channel": 0}, {"type": "note_off", "time": 46, "note": 72, "velocity": 118, "channel": 0}, {"type": "note_on", "time": 8, "note": 71, "velocity": 119, "channel": 0}, {"type": "note_off", "time": 50, "note": 71, "velocity": 119, "channel": 0}, {"type": "note_on", "time": 18, "note": 68, "velocity": 119, "channel": 0}, {"type": "note_off", "time": 51, "note": 68, "velocity": 119, "channel": 0}, {"type": "note_on", "time": 17, "note": 67, "velocity": 120, "channel": 0}, {"type": "note_off", "time": 124, "note": 67, "velocity": 120, "channel": 0}, {"type": "note_on", "time": 41, "note": 73, "velocity": 119, "channel": 0}, {"type": "note_off", "time": 19, "note": 73, "velocity": 119, "channel": 0}, {"type": "note_on", "time": 3, "note": 74, "velocity": 121, "channel": 0}, {"type": "note_off", "time": 50, "note": 74, "velocity": 121, "channel": 0}, {"type": "note_on", "time": 4, "note": 72, "velocity": 118, "channel": 0}, {"type": "note_off", "time": 110, "note": 72, "velocity": 118, "channel": 0}, {"type": "note_on", "time": 4, "note": 72, "velocity": 119, "channel": 0}, {"type": "note_off", "time": 50, "note": 72, "velocity": 119, "channel": 0}, {"type": "note_on", "time": 9, "note": 75, "velocity": 119, "channel": 0}, {"type": "note_off", "time": 174, "note": 75, "velocity": 119, "channel": 0}, {"type": "note_on", "time": 365, "note": 72, "velocity": 117, "channel": 0}, {"type": "note_off", "time": 64, "note": 72, "velocity": 117, "channel": 0}, {"type": "note_on", "time": 3, "note": 70, "velocity": 117, "channel": 0}, {"type": "note_off", "time": 126, "note": 70, "velocity": 117, "channel": 0}, {"type": "note_on", "time": 18, "note": 67, "velocity": 108, "channel": 0}, {"type": "note_off", "time": 24, "note": 67, "velocity": 108, "channel": 0}, {"type": "note_on", "time": 7, "note": 72, "velocity": 114, "channel": 0}, {"type": "note_off", "time": 107, "note": 72, "velocity": 114, "channel": 0}, {"type": "note_on", "time": 246, "note": 60, "velocity": 107, "channel": 0}, {"type": "note_off", "time": 27, "note": 60, "velocity": 107, "channel": 0}, {"type": "note_on", "time": 9, "note": 65, "velocity": 118, "channel": 0}, {"type": "note_off", "time": 62, "note": 65, "velocity": 118, "channel": 0}, {"type": "note_on", "time": 17, "note": 63, "velocity": 111, "channel": 0}, {"type": "note_off", "time": 37, "note": 63, "velocity": 111, "channel": 0}, {"type": "note_on", "time": 3, "note": 65, "velocity": 115, "channel": 0}, {"type": "note_off", "time": 68, "note": 65, "velocity": 115, "channel": 0}, {"type": "note_on", "time": 7, "note": 63, "velocity": 113, "channel": 0}, {"type": "note_off", "time": 33, "note": 63, "velocity": 113, "channel": 0}, {"type": "note_on", "time": 10, "note": 65, "velocity": 115, "channel": 0}, {"type": "note_off", "time": 61, "note": 65, "velocity": 115, "channel": 0}, {"type": "note_on", "time": 5, "note": 63, "velocity": 117, "channel": 0}, {"type": "note_off", "time": 36, "note": 63, "velocity": 117, "channel": 0}, {"type": "note_on", "time": 39, "note": 66, "velocity": 120, "channel": 0}, {"type": "note_off", "time": 27, "note": 66, "velocity": 120, "channel": 0}, {"type": "note_on", "time": 10, "note": 67, "velocity": 119, "channel": 0}, {"type": "note_off", "time": 146, "note": 67, "velocity": 119, "channel": 0}, {"type": "note_on", "time": 2, "note": 66, "velocity": 118, "channel": 0}, {"type": "note_off", "time": 26, "note": 66, "velocity": 118, "channel": 0}, {"type": "note_on", "time": 8, "note": 65, "velocity": 116, "channel": 0}, {"type": "note_off", "time": 146, "note": 65, "velocity": 116, "channel": 0}, {"type": "note_on", "time": 2, "note": 63, "velocity": 119, "channel": 0}, {"type": "note_off", "time": 48, "note": 63, "velocity": 119, "channel": 0}, {"type": "note_on", "time": 15, "note": 60, "velocity": 114, "channel": 0}, {"type": "note_off", "time": 45, "note": 60, "velocity": 114, "channel": 0}, {"type": "note_on", "time": 20, "note": 65, "velocity": 116, "channel": 0}, {"type": "note_off", "time": 56, "note": 65, "velocity": 116, "channel": 0}, {"type": "note_on", "time": 6, "note": 63, "velocity": 121, "channel": 0}, {"type": "note_off", "time": 54, "note": 63, "velocity": 121, "channel": 0}, {"type": "note_on", "time": 10, "note": 60, "velocity": 112, "channel": 0}, {"type": "note_off", "time": 48, "note": 60, "velocity": 112, "channel": 0}, {"type": "note_on", "time": 11, "note": 65, "velocity": 121, "channel": 0}, {"type": "note_off", "time": 56, "note": 65, "velocity": 121, "channel": 0}, {"type": "note_on", "time": 9, "note": 63, "velocity": 120, "channel": 0}, {"type": "note_off", "time": 57, "note": 63, "velocity": 120, "channel": 0}, {"type": "note_on", "time": 17, "note": 60, "velocity": 112, "channel": 0}, {"type": "note_off", "time": 47, "note": 60, "velocity": 112, "channel": 0}, {"type": "note_on", "time": 22, "note": 65, "velocity": 116, "channel": 0}, {"type": "note_off", "time": 49, "note": 65, "velocity": 116, "channel": 0}, {"type": "note_on", "time": 12, "note": 63, "velocity": 119, "channel": 0}, {"type": "note_off", "time": 70, "note": 63, "velocity": 119, "channel": 0}, {"type": "note_on", "time": 26, "note": 60, "velocity": 113, "channel": 0}, {"type": "note_off", "time": 63, "note": 60, "velocity": 113, "channel": 0}, {"type": "note_on", "time": 22, "note": 58, "velocity": 118, "channel": 0}, {"type": "note_off", "time": 42, "note": 58, "velocity": 118, "channel": 0}, {"type": "note_on", "time": 17, "note": 55, "velocity": 109, "channel": 0}, {"type": "note_off", "time": 47, "note": 55, "velocity": 109, "channel": 0}, {"type": "note_on", "time": 11, "note": 60, "velocity": 94, "channel": 0}, {"type": "note_off", "time": 312, "note": 60, "velocity": 94, "channel": 0}, {"type": "end_of_track", "time": 0}]]}