{"ticks_per_beat": 27720, "tracks": [[{"type": "track_name", "name": "Melody", "time": 0}, {"type": "set_tempo", "tempo": 1000000, "time": 0}, {"type": "key_signature", "key": "Eb", "time": 0}, {"type": "time_signature", "numerator": 4, "denominator": 4, "clocks_per_click": 24, "notated_32nd_notes_per_beat": 8, "time": 0}, {"type": "note_on", "time": 209188, "note": 70, "velocity": 122, "channel": 0}, {"type": "note_off", "time": 4183, "note": 70, "velocity": 122, "channel": 0}, {"type": "note_on", "time": 160, "note": 72, "velocity": 122, "channel": 0}, {"type": "note_off", "time": 4183, "note": 72, "velocity": 122, "channel": 0}, {"type": "note_on", "time": 321, "note": 74, "velocity": 122, "channel": 0}, {"type": "note_off", "time": 5792, "note": 74, "velocity": 122, "channel": 0}, {"type": "note_on", "time": 321, "note": 75, "velocity": 99, "channel": 0}, {"type": "note_off", "time": 1770, "note": 75, "velocity": 99, "channel": 0}, {"type": "note_on", "time": 643, "note": 74, "velocity": 95, "channel": 0}, {"type": "note_off", "time": 4022, "note": 74, "velocity": 95, "channel": 0}, {"type": "note_on", "time": 643, "note": 70, "velocity": 122, "channel": 0}, {"type": "note_off", "time": 35240, "note": 70, "velocity": 122, "channel": 0}, {"type": "note_on", "time": 965, "note": 67, "velocity": 116, "channel": 0}, {"type": "note_off", "time": 1770, "note": 67, "velocity": 116, "channel": 0}, {"type": "note_on", "time": 0, "note": 68, "velocity": 117, "channel": 0}, {"type": "note_off", "time": 4505, "note": 68, "velocity": 117, "channel": 0}, {"type": "note_on", "time": 160, "note": 67, "velocity": 116, "channel": 0}, {"type": "note_off", "time": 32826, "note": 67, "velocity": 116, "channel": 0}, {"type": "note_on", "time": 1287, "note": 70, "velocity": 120, "channel": 0}, {"type": "note_off", "time": 3701, "note": 70, "velocity": 120, "channel": 0}, {"type": "note_on", "time": 643, "note": 67, "velocity": 119, "channel": 0}, {"type": "note_off", "time": 5310, "note": 67, "velocity": 119, "channel": 0}, {"type": "note_on", "time": 160, "note": 68, "velocity": 116, "channel": 0}, {"type": "note_off", "time": 8850, "note": 68, "velocity": 116, "channel": 0}, {"type": "note_on", "time": 643, "note": 65, "velocity": 92, "channel": 0}, {"type": "note_off", "time": 3057, "note": 65, "velocity": 92, "channel": 0}, {"type": "note_on", "time": 36688, "note": 70, "velocity": 120, "channel": 0}, {"type": "note_off", "time": 5792, "note": 70, "velocity": 120, "channel": 0}, {"type": "note_on", "time": 160, "note": 69, "velocity": 121, "channel": 0}, {"type": "note_off", "time": 7402, "note": 69, "velocity": 121, "channel": 0}, {"type": "note_on", "time": 160, "note": 74, "velocity": 112, "channel": 0}, {"type": "note_off", "time": 3701, "note": 74, "velocity": 112, "channel": 0}, {"type": "note_on", "time": 38780, "note": 72, "velocity": 123, "channel": 0}, {"type": "note_off", "time": 4666, "note": 72, "velocity": 123, "channel": 0}, {"type": "note_on", "time": 321, "note": 74, "velocity": 124, "channel": 0}, {"type": "note_off", "time": 5953, "note": 74, "velocity": 124, "channel": 0}, {"type": "note_on", "time": 1448, "note": 77, "velocity": 127, "channel": 0}, {"type": "note_off", "time": 1930, "note": 77, "velocity": 127, "channel": 0}, {"type": "note_on", "time": 610, "note": 76, "velocity": 109, "channel": 0}, {"type": "note_off", "time": 1584, "note": 76, "velocity": 109, "channel": 0}, {"type": "note_on", "time": 226, "note": 75, "velocity": 123, "channel": 0}, {"type": "note_off", "time": 2602, "note": 75, "velocity": 123, "channel": 0}, {"type": "note_on", "time": 226, "note": 74, "velocity": 118, "channel": 0}, {"type": "note_off", "time": 4751, "note": 74, "velocity": 118, "channel": 0}, {"type": "note_on", "time": 2262, "note": 72, "velocity": 109, "channel": 0}, {"type": "note_off", "time": 3394, "note": 72, "velocity": 109, "channel": 0}, {"type": "note_on", "time": 5179, "note": 70, "velocity": 120, "channel": 0}, {"type": "note_off", "time": 20918, "note": 70, "velocity": 120, "channel": 0}, {"type": "note_on", "time": 643, "note": 67, "velocity": 107, "channel": 0}, {"type": "note_off", "time": 2011, "note": 67, "velocity": 107, "channel": 0}, {"type": "note_on", "time": 4344, "note": 70, "velocity": 119, "channel": 0}, {"type": "note_off", "time": 103146, "note": 70, "velocity": 119, "channel": 0}, {"type": "note_on", "time": 489, "note": 69, "velocity": 112, "channel": 0}, {"type": "note_off", "time": 1244, "note": 69, "velocity": 112, "channel": 0}, {"type": "note_on", "time": 0, "note": 71, "velocity": 118, "channel": 0}, {"type": "note_off", "time": 1131, "note": 71, "velocity": 118, "channel": 0}, {"type": "note_on", "time": 565, "note": 72, "velocity": 124, "channel": 0}, {"type": "note_off", "time": 1640, "note": 72, "velocity": 124, "channel": 0}, {"type": "note_on", "time": 0, "note": 74, "velocity": 121, "channel": 0}, {"type": "note_off", "time": 1640, "note": 74, "velocity": 121, "channel": 0}, {"type": "note_on", "time": 0, "note": 75, "velocity": 125, "channel": 0}, {"type": "note_off", "time": 4412, "note": 75, "velocity": 125, "channel": 0}, {"type": "note_on", "time": 2771, "note": 73, "velocity": 118, "channel": 0}, {"type": "note_off", "time": 5430, "note": 73, "velocity": 118, "channel": 0}, {"type": "note_on", "time": 396, "note": 68, "velocity": 114, "channel": 0}, {"type": "note_off", "time": 5487, "note": 68, "velocity": 114, "channel": 0}, {"type": "note_on", "time": 396, "note": 64, "velocity": 103, "channel": 0}, {"type": "note_off", "time": 7241, "note": 64, "velocity": 103, "channel": 0}, {"type": "note_on", "time": 735, "note": 63, "velocity": 108, "channel": 0}, {"type": "note_off", "time": 26814, "note": 63, "velocity": 108, "channel": 0}, {"type": "note_on", "time": 7427, "note": 67, "velocity": 123, "channel": 0}, {"type": "note_off", "time": 6597, "note": 67, "velocity": 123, "channel": 0}, {"type": "note_on", "time": 1126, "note": 60, "velocity": 90, "channel": 0}, {"type": "note_off", "time": 2091, "note": 60, "velocity": 90, "channel": 0}, {"type": "note_on", "time": 4264, "note": 63, "velocity": 108, "channel": 0}, {"type": "note_off", "time": 8930, "note": 63, "velocity": 108, "channel": 0}, {"type": "note_on", "time": 63131, "note": 67, "velocity": 117, "channel": 0}, {"type": "note_off", "time": 6505, "note": 67, "velocity": 117, "channel": 0}, {"type": "note_on", "time": 396, "note": 60, "velocity": 95, "channel": 0}, {"type": "note_off", "time": 1866, "note": 60, "velocity": 95, "channel": 0}, {"type": "note_on", "time": 4412, "note": 63, "velocity": 112, "channel": 0}, {"type": "note_off", "time": 6618, "note": 63, "velocity": 112, "channel": 0}, {"type": "note_on", "time": 792, "note": 65, "velocity": 113, "channel": 0}, {"type": "note_off", "time": 3960, "note": 65, "velocity": 113, "channel": 0}, {"type": "note_on", "time": 2828, "note": 67, "velocity": 121, "channel": 0}, {"type": "note_off", "time": 5940, "note": 67, "velocity": 121, "channel": 0}, {"type": "note_on", "time": 1866, "note": 60, "velocity": 83, "channel": 0}, {"type": "note_off", "time": 1980, "note": 60, "velocity": 83, "channel": 0}, {"type": "note_on", "time": 4016, "note": 63, "velocity": 100, "channel": 0}, {"type": "note_off", "time": 14312, "note": 63, "velocity": 100, "channel": 0}, {"type": "note_on", "time": 49386, "note": 70, "velocity": 117, "channel": 0}, {"type": "note_off", "time": 7410, "note": 70, "velocity": 117, "channel": 0}, {"type": "note_on", "time": 2319, "note": 74, "velocity": 123, "channel": 0}, {"type": "note_off", "time": 15387, "note": 74, "velocity": 123, "channel": 0}, {"type": "note_on", "time": 1010, "note": 72, "velocity": 122, "channel": 0}, {"type": "note_off", "time": 4586, "note": 72, "velocity": 122, "channel": 0}, {"type": "note_on", "time": 764, "note": 70, "velocity": 118, "channel": 0}, {"type": "note_off", "time": 5712, "note": 70, "velocity": 118, "channel": 0}, {"type": "note_on", "time": 0, "note": 68, "velocity": 113, "channel": 0}, {"type": "note_off", "time": 6999, "note": 68, "velocity": 113, "channel": 0}, {"type": "note_on", "time": 120, "note": 67, "velocity": 117, "channel": 0}, {"type": "note_off", "time": 38860, "note": 67, "velocity": 117, "channel": 0}, {"type": "note_on", "time": 241, "note": 65, "velocity": 116, "channel": 0}, {"type": "note_off", "time": 5632, "note": 65, "velocity": 116, "channel": 0}, {"type": "note_on", "time": 804, "note": 62, "velocity": 108, "channel": 0}, {"type": "note_off", "time": 4344, "note": 62, "velocity": 108, "channel": 0}, {"type": "note_on", "time": 804, "note": 64, "velocity": 116, "channel": 0}, {"type": "note_off", "time": 4344, "note": 64, "velocity": 116, "channel": 0}, {"type": "note_on", "time": 900, "note": 61, "velocity": 92, "channel": 0}, {"type": "note_off", "time": 37450, "note": 61, "velocity": 92, "channel": 0}, {"type": "note_on", "time": 21723, "note": 58, "velocity": 110, "channel": 0}, {"type": "note_off", "time": 3057, "note": 58, "velocity": 110, "channel": 0}, {"type": "note_on", "time": 336, "note": 57, "velocity": 103, "channel": 0}, {"type": "note_off", "time": 2093, "note": 57, "velocity": 103, "channel": 0}, {"type": "note_on", "time": 56, "note": 56, "velocity": 96, "channel": 0}, {"type": "note_off", "time": 1584, "note": 56, "velocity": 96, "channel": 0}, {"type": "note_on", "time": 0, "note": 58, "velocity": 105, "channel": 0}, {"type": "note_off", "time": 2715, "note": 58, "velocity": 105, "channel": 0}, {"type": "note_on", "time": 0, "note": 61, "velocity": 92, "channel": 0}, {"type": "note_off", "time": 2432, "note": 61, "velocity": 92, "channel": 0}, {"type": "note_on", "time": 226, "note": 63, "velocity": 98, "channel": 0}, {"type": "note_off", "time": 2149, "note": 63, "velocity": 98, "channel": 0}, {"type": "note_on", "time": 226, "note": 65, "velocity": 114, "channel": 0}, {"type": "note_off", "time": 2319, "note": 65, "velocity": 114, "channel": 0}, {"type": "note_on", "time": 622, "note": 64, "velocity": 107, "channel": 0}, {"type": "note_off", "time": 1697, "note": 64, "velocity": 107, "channel": 0}, {"type": "note_on", "time": 395, "note": 63, "velocity": 111, "channel": 0}, {"type": "note_off", "time": 1923, "note": 63, "velocity": 111, "channel": 0}, {"type": "note_on", "time": 905, "note": 60, "velocity": 92, "channel": 0}, {"type": "note_off", "time": 2093, "note": 60, "velocity": 92, "channel": 0}, {"type": "note_on", "time": 169, "note": 63, "velocity": 108, "channel": 0}, {"type": "note_off", "time": 2885, "note": 63, "velocity": 108, "channel": 0}, {"type": "note_on", "time": 0, "note": 65, "velocity": 109, "channel": 0}, {"type": "note_off", "time": 1980, "note": 65, "velocity": 109, "channel": 0}, {"type": "note_on", "time": 282, "note": 67, "velocity": 106, "channel": 0}, {"type": "note_off", "time": 2262, "note": 67, "velocity": 106, "channel": 0}, {"type": "note_on", "time": 0, "note": 69, "velocity": 116, "channel": 0}, {"type": "note_off", "time": 2772, "note": 69, "velocity": 116, "channel": 0}, {"type": "note_on", "time": 0, "note": 70, "velocity": 114, "channel": 0}, {"type": "note_off", "time": 2771, "note": 70, "velocity": 114, "channel": 0}, {"type": "note_on", "time": 0, "note": 69, "velocity": 119, "channel": 0}, {"type": "note_off", "time": 1640, "note": 69, "velocity": 119, "channel": 0}, {"type": "note_on", "time": 0, "note": 68, "velocity": 114, "channel": 0}, {"type": "note_off", "time": 3111, "note": 68, "velocity": 114, "channel": 0}, {"type": "note_on", "time": 0, "note": 70, "velocity": 102, "channel": 0}, {"type": "note_off", "time": 2885, "note": 70, "velocity": 102, "channel": 0}, {"type": "note_on", "time": 0, "note": 71, "velocity": 112, "channel": 0}, {"type": "note_off", "time": 2333, "note": 71, "velocity": 112, "channel": 0}, {"type": "note_on", "time": 50, "note": 73, "velocity": 119, "channel": 0}, {"type": "note_off", "time": 3942, "note": 73, "velocity": 119, "channel": 0}, {"type": "note_on", "time": 482, "note": 71, "velocity": 112, "channel": 0}, {"type": "note_off", "time": 3540, "note": 71, "velocity": 112, "channel": 0}, {"type": "note_on", "time": 1287, "note": 66, "velocity": 104, "channel": 0}, {"type": "note_off", "time": 4183, "note": 66, "velocity": 104, "channel": 0}, {"type": "note_on", "time": 2056, "note": 62, "velocity": 109, "channel": 0}, {"type": "note_off", "time": 4746, "note": 62, "velocity": 109, "channel": 0}, {"type": "note_on", "time": 196, "note": 64, "velocity": 109, "channel": 0}, {"type": "note_off", "time": 9011, "note": 64, "velocity": 109, "channel": 0}, {"type": "note_on", "time": 0, "note": 65, "velocity": 107, "channel": 0}, {"type": "note_off", "time": 22849, "note": 65, "velocity": 107, "channel": 0}, {"type": "note_on", "time": 804, "note": 63, "velocity": 115, "channel": 0}, {"type": "note_off", "time": 2976, "note": 63, "velocity": 115, "channel": 0}, {"type": "note_on", "time": 0, "note": 65, "velocity": 115, "channel": 0}, {"type": "note_off", "time": 3057, "note": 65, "velocity": 115, "channel": 0}, {"type": "note_on", "time": 80, "note": 67, "velocity": 96, "channel": 0}, {"type": "note_off", "time": 18263, "note": 67, "velocity": 96, "channel": 0}, {"type": "note_on", "time": 45781, "note": 74, "velocity": 105, "channel": 0}, {"type": "note_off", "time": 4299, "note": 74, "velocity": 105, "channel": 0}, {"type": "note_on", "time": 1866, "note": 70, "velocity": 116, "channel": 0}, {"type": "note_off", "time": 6222, "note": 70, "velocity": 116, "channel": 0}, {"type": "note_on", "time": 622, "note": 68, "velocity": 116, "channel": 0}, {"type": "note_off", "time": 6562, "note": 68, "velocity": 116, "channel": 0}, {"type": "note_on", "time": 565, "note": 67, "velocity": 115, "channel": 0}, {"type": "note_off", "time": 7580, "note": 67, "velocity": 115, "channel": 0}, {"type": "note_on", "time": 226, "note": 64, "velocity": 113, "channel": 0}, {"type": "note_off", "time": 6222, "note": 64, "velocity": 113, "channel": 0}, {"type": "note_on", "time": 113, "note": 61, "velocity": 99, "channel": 0}, {"type": "note_off", "time": 6958, "note": 61, "velocity": 99, "channel": 0}, {"type": "note_on", "time": 1584, "note": 63, "velocity": 110, "channel": 0}, {"type": "note_off", "time": 2149, "note": 63, "velocity": 110, "channel": 0}, {"type": "note_on", "time": 3564, "note": 60, "velocity": 95, "channel": 0}, {"type": "note_off", "time": 8542, "note": 60, "velocity": 95, "channel": 0}, {"type": "note_on", "time": 48651, "note": 72, "velocity": 119, "channel": 0}, {"type": "note_off", "time": 4412, "note": 72, "velocity": 119, "channel": 0}, {"type": "note_on", "time": 56, "note": 74, "velocity": 121, "channel": 0}, {"type": "note_off", "time": 3394, "note": 74, "velocity": 121, "channel": 0}, {"type": "note_on", "time": 4469, "note": 75, "velocity": 120, "channel": 0}, {"type": "note_off", "time": 7750, "note": 75, "velocity": 120, "channel": 0}, {"type": "note_on", "time": 0, "note": 74, "velocity": 119, "channel": 0}, {"type": "note_off", "time": 5826, "note": 74, "velocity": 119, "channel": 0}, {"type": "note_on", "time": 56, "note": 72, "velocity": 119, "channel": 0}, {"type": "note_off", "time": 3168, "note": 72, "velocity": 119, "channel": 0}, {"type": "note_on", "time": 3677, "note": 77, "velocity": 124, "channel": 0}, {"type": "note_off", "time": 3054, "note": 77, "velocity": 124, "channel": 0}, {"type": "note_on", "time": 282, "note": 76, "velocity": 109, "channel": 0}, {"type": "note_off", "time": 1301, "note": 76, "velocity": 109, "channel": 0}, {"type": "note_on", "time": 169, "note": 75, "velocity": 119, "channel": 0}, {"type": "note_off", "time": 2941, "note": 75, "velocity": 119, "channel": 0}, {"type": "note_on", "time": 452, "note": 74, "velocity": 115, "channel": 0}, {"type": "note_off", "time": 5091, "note": 74, "velocity": 115, "channel": 0}, {"type": "note_on", "time": 1527, "note": 72, "velocity": 112, "channel": 0}, {"type": "note_off", "time": 4016, "note": 72, "velocity": 112, "channel": 0}, {"type": "note_on", "time": 4299, "note": 70, "velocity": 115, "channel": 0}, {"type": "note_off", "time": 7920, "note": 70, "velocity": 115, "channel": 0}, {"type": "note_on", "time": 452, "note": 67, "velocity": 116, "channel": 0}, {"type": "note_off", "time": 14652, "note": 67, "velocity": 116, "channel": 0}, {"type": "note_on", "time": 56, "note": 70, "velocity": 110, "channel": 0}, {"type": "note_off", "time": 24948, "note": 70, "velocity": 110, "channel": 0}, {"type": "note_on", "time": 51084, "note": 70, "velocity": 112, "channel": 0}, {"type": "note_off", "time": 7920, "note": 70, "velocity": 112, "channel": 0}, {"type": "note_on", "time": 282, "note": 68, "velocity": 96, "channel": 0}, {"type": "note_off", "time": 2149, "note": 68, "velocity": 96, "channel": 0}, {"type": "note_on", "time": 4299, "note": 70, "velocity": 118, "channel": 0}, {"type": "note_off", "time": 15217, "note": 70, "velocity": 118, "channel": 0}, {"type": "note_on", "time": 905, "note": 73, "velocity": 112, "channel": 0}, {"type": "note_off", "time": 2093, "note": 73, "velocity": 112, "channel": 0}, {"type": "note_on", "time": 565, "note": 70, "velocity": 104, "channel": 0}, {"type": "note_off", "time": 2149, "note": 70, "velocity": 104, "channel": 0}, {"type": "note_on", "time": 169, "note": 65, "velocity": 106, "channel": 0}, {"type": "note_off", "time": 2376, "note": 65, "velocity": 106, "channel": 0}, {"type": "note_on", "time": 113, "note": 68, "velocity": 117, "channel": 0}, {"type": "note_off", "time": 24212, "note": 68, "velocity": 117, "channel": 0}, {"type": "note_on", "time": 0, "note": 70, "velocity": 108, "channel": 0}, {"type": "note_off", "time": 3677, "note": 70, "velocity": 108, "channel": 0}, {"type": "note_on", "time": 3054, "note": 68, "velocity": 101, "channel": 0}, {"type": "note_off", "time": 1584, "note": 68, "velocity": 101, "channel": 0}, {"type": "note_on", "time": 56, "note": 70, "velocity": 115, "channel": 0}, {"type": "note_off", "time": 1697, "note": 70, "velocity": 115, "channel": 0}, {"type": "note_on", "time": 134, "note": 68, "velocity": 117, "channel": 0}, {"type": "note_off", "time": 1287, "note": 68, "velocity": 117, "channel": 0}, {"type": "note_on", "time": 563, "note": 67, "velocity": 108, "channel": 0}, {"type": "note_off", "time": 4948, "note": 67, "velocity": 108, "channel": 0}, {"type": "note_on", "time": 3137, "note": 68, "velocity": 113, "channel": 0}, {"type": "note_off", "time": 1408, "note": 68, "velocity": 113, "channel": 0}, {"type": "note_on", "time": 40, "note": 70, "velocity": 115, "channel": 0}, {"type": "note_off", "time": 1327, "note": 70, "velocity": 115, "channel": 0}, {"type": "note_on", "time": 201, "note": 68, "velocity": 115, "channel": 0}, {"type": "note_off", "time": 2494, "note": 68, "velocity": 115, "channel": 0}, {"type": "note_on", "time": 201, "note": 67, "velocity": 109, "channel": 0}, {"type": "note_off", "time": 4626, "note": 67, "velocity": 109, "channel": 0}, {"type": "note_on", "time": 3902, "note": 68, "velocity": 91, "channel": 0}, {"type": "note_off", "time": 1609, "note": 68, "velocity": 91, "channel": 0}, {"type": "note_on", "time": 120, "note": 70, "velocity": 119, "channel": 0}, {"type": "note_off", "time": 1528, "note": 70, "velocity": 119, "channel": 0}, {"type": "note_on", "time": 80, "note": 68, "velocity": 117, "channel": 0}, {"type": "note_off", "time": 2051, "note": 68, "velocity": 117, "channel": 0}, {"type": "note_on", "time": 160, "note": 67, "velocity": 111, "channel": 0}, {"type": "note_off", "time": 4465, "note": 67, "velocity": 111, "channel": 0}, {"type": "note_on", "time": 4462, "note": 63, "velocity": 106, "channel": 0}, {"type": "note_off", "time": 5204, "note": 63, "velocity": 106, "channel": 0}, {"type": "note_on", "time": 8994, "note": 63, "velocity": 108, "channel": 0}, {"type": "note_off", "time": 12785, "note": 63, "velocity": 108, "channel": 0}, {"type": "note_on", "time": 396, "note": 65, "velocity": 108, "channel": 0}, {"type": "note_off", "time": 7920, "note": 65, "velocity": 108, "channel": 0}, {"type": "note_on", "time": 113, "note": 67, "velocity": 106, "channel": 0}, {"type": "note_off", "time": 32472, "note": 67, "velocity": 106, "channel": 0}, {"type": "note_on", "time": 52440, "note": 70, "velocity": 114, "channel": 0}, {"type": "note_off", "time": 3218, "note": 70, "velocity": 114, "channel": 0}, {"type": "note_on", "time": 5149, "note": 67, "velocity": 98, "channel": 0}, {"type": "note_off", "time": 2252, "note": 67, "velocity": 98, "channel": 0}, {"type": "note_on", "time": 80, "note": 68, "velocity": 114, "channel": 0}, {"type": "note_off", "time": 9011, "note": 68, "velocity": 114, "channel": 0}, {"type": "note_on", "time": 482, "note": 67, "velocity": 106, "channel": 0}, {"type": "note_off", "time": 3379, "note": 67, "velocity": 106, "channel": 0}, {"type": "note_on", "time": 4586, "note": 70, "velocity": 106, "channel": 0}, {"type": "note_off", "time": 41596, "note": 70, "velocity": 106, "channel": 0}, {"type": "note_on", "time": 39987, "note": 70, "velocity": 114, "channel": 0}, {"type": "note_off", "time": 4186, "note": 70, "velocity": 114, "channel": 0}, {"type": "note_on", "time": 458, "note": 68, "velocity": 118, "channel": 0}, {"type": "note_off", "time": 3903, "note": 68, "velocity": 118, "channel": 0}, {"type": "note_on", "time": 3198, "note": 67, "velocity": 115, "channel": 0}, {"type": "note_off", "time": 5374, "note": 67, "velocity": 115, "channel": 0}, {"type": "note_on", "time": 988, "note": 63, "velocity": 104, "channel": 0}, {"type": "note_off", "time": 1584, "note": 63, "velocity": 104, "channel": 0}, {"type": "note_on", "time": 4695, "note": 63, "velocity": 106, "channel": 0}, {"type": "note_off", "time": 48764, "note": 63, "velocity": 106, "channel": 0}, {"type": "note_on", "time": 38682, "note": 77, "velocity": 121, "channel": 0}, {"type": "note_off", "time": 3137, "note": 77, "velocity": 121, "channel": 0}, {"type": "note_on", "time": 0, "note": 75, "velocity": 114, "channel": 0}, {"type": "note_off", "time": 2494, "note": 75, "velocity": 114, "channel": 0}, {"type": "note_on", "time": 0, "note": 77, "velocity": 115, "channel": 0}, {"type": "note_off", "time": 2976, "note": 77, "velocity": 115, "channel": 0}, {"type": "note_on", "time": 160, "note": 79, "velocity": 117, "channel": 0}, {"type": "note_off", "time": 3057, "note": 79, "velocity": 117, "channel": 0}, {"type": "note_on", "time": 482, "note": 77, "velocity": 119, "channel": 0}, {"type": "note_off", "time": 2896, "note": 77, "velocity": 119, "channel": 0}, {"type": "note_on", "time": 0, "note": 75, "velocity": 123, "channel": 0}, {"type": "note_off", "time": 3137, "note": 75, "velocity": 123, "channel": 0}, {"type": "note_on", "time": 0, "note": 74, "velocity": 120, "channel": 0}, {"type": "note_off", "time": 2976, "note": 74, "velocity": 120, "channel": 0}, {"type": "note_on", "time": 80, "note": 73, "velocity": 119, "channel": 0}, {"type": "note_off", "time": 3620, "note": 73, "velocity": 119, "channel": 0}, {"type": "note_on", "time": 160, "note": 72, "velocity": 119, "channel": 0}, {"type": "note_off", "time": 2816, "note": 72, "velocity": 119, "channel": 0}, {"type": "note_on", "time": 160, "note": 70, "velocity": 119, "channel": 0}, {"type": "note_off", "time": 2494, "note": 70, "velocity": 119, "channel": 0}, {"type": "note_on", "time": 0, "note": 68, "velocity": 119, "channel": 0}, {"type": "note_off", "time": 2816, "note": 68, "velocity": 119, "channel": 0}, {"type": "note_on", "time": 241, "note": 67, "velocity": 118, "channel": 0}, {"type": "note_off", "time": 3057, "note": 67, "velocity": 118, "channel": 0}, {"type": "note_on", "time": 160, "note": 65, "velocity": 113, "channel": 0}, {"type": "note_off", "time": 2574, "note": 65, "velocity": 113, "channel": 0}, {"type": "note_on", "time": 80, "note": 63, "velocity": 107, "channel": 0}, {"type": "note_off", "time": 2629, "note": 63, "velocity": 107, "channel": 0}, {"type": "note_on", "time": 0, "note": 59, "velocity": 100, "channel": 0}, {"type": "note_off", "time": 2715, "note": 59, "velocity": 100, "channel": 0}, {"type": "note_on", "time": 735, "note": 63, "velocity": 108, "channel": 0}, {"type": "note_off", "time": 2093, "note": 63, "velocity": 108, "channel": 0}, {"type": "note_on", "time": 452, "note": 65, "velocity": 116, "channel": 0}, {"type": "note_off", "time": 1923, "note": 65, "velocity": 116, "channel": 0}, {"type": "note_on", "time": 56, "note": 67, "velocity": 121, "channel": 0}, {"type": "note_off", "time": 2658, "note": 67, "velocity": 121, "channel": 0}, {"type": "note_on", "time": 339, "note": 70, "velocity": 120, "channel": 0}, {"type": "note_off", "time": 2206, "note": 70, "velocity": 120, "channel": 0}, {"type": "note_on", "time": 282, "note": 69, "velocity": 119, "channel": 0}, {"type": "note_off", "time": 2602, "note": 69, "velocity": 119, "channel": 0}, {"type": "note_on", "time": 395, "note": 67, "velocity": 117, "channel": 0}, {"type": "note_off", "time": 2545, "note": 67, "velocity": 117, "channel": 0}, {"type": "note_on", "time": 169, "note": 68, "velocity": 119, "channel": 0}, {"type": "note_off", "time": 2715, "note": 68, "velocity": 119, "channel": 0}, {"type": "note_on", "time": 791, "note": 65, "velocity": 115, "channel": 0}, {"type": "note_off", "time": 2489, "note": 65, "velocity": 115, "channel": 0}, {"type": "note_on", "time": 114, "note": 61, "velocity": 94, "channel": 0}, {"type": "note_off", "time": 2413, "note": 61, "velocity": 94, "channel": 0}, {"type": "note_on", "time": 321, "note": 59, "velocity": 94, "channel": 0}, {"type": "note_off", "time": 2494, "note": 59, "velocity": 94, "channel": 0}, {"type": "note_on", "time": 1045, "note": 67, "velocity": 114, "channel": 0}, {"type": "note_off", "time": 2896, "note": 67, "velocity": 114, "channel": 0}, {"type": "note_on", "time": 241, "note": 65, "velocity": 107, "channel": 0}, {"type": "note_off", "time": 2413, "note": 65, "velocity": 107, "channel": 0}, {"type": "note_on", "time": 0, "note": 63, "velocity": 113, "channel": 0}, {"type": "note_off", "time": 2413, "note": 63, "velocity": 113, "channel": 0}, {"type": "note_on", "time": 0, "note": 61, "velocity": 103, "channel": 0}, {"type": "note_off", "time": 1930, "note": 61, "velocity": 103, "channel": 0}, {"type": "note_on", "time": 804, "note": 56, "velocity": 97, "channel": 0}, {"type": "note_off", "time": 3218, "note": 56, "velocity": 97, "channel": 0}, {"type": "note_on", "time": 2655, "note": 58, "velocity": 108, "channel": 0}, {"type": "note_off", "time": 6758, "note": 58, "velocity": 108, "channel": 0}, {"type": "note_on", "time": 160, "note": 56, "velocity": 106, "channel": 0}, {"type": "note_off", "time": 5551, "note": 56, "velocity": 106, "channel": 0}, {"type": "note_on", "time": 160, "note": 58, "velocity": 112, "channel": 0}, {"type": "note_off", "time": 5149, "note": 58, "velocity": 112, "channel": 0}, {"type": "note_on", "time": 0, "note": 55, "velocity": 100, "channel": 0}, {"type": "note_off", "time": 9091, "note": 55, "velocity": 100, "channel": 0}, {"type": "note_on", "time": 22688, "note": 70, "velocity": 116, "channel": 0}, {"type": "note_off", "time": 2574, "note": 70, "velocity": 116, "channel": 0}, {"type": "note_on", "time": 4666, "note": 75, "velocity": 121, "channel": 0}, {"type": "note_off", "time": 5712, "note": 75, "velocity": 121, "channel": 0}, {"type": "note_on", "time": 80, "note": 74, "velocity": 123, "channel": 0}, {"type": "note_off", "time": 1689, "note": 74, "velocity": 123, "channel": 0}, {"type": "note_on", "time": 241, "note": 73, "velocity": 119, "channel": 0}, {"type": "note_off", "time": 2011, "note": 73, "velocity": 119, "channel": 0}, {"type": "note_on", "time": 241, "note": 72, "velocity": 115, "channel": 0}, {"type": "note_off", "time": 11505, "note": 72, "velocity": 115, "channel": 0}, {"type": "note_on", "time": 26309, "note": 75, "velocity": 121, "channel": 0}, {"type": "note_off", "time": 6919, "note": 75, "velocity": 121, "channel": 0}, {"type": "note_on", "time": 2735, "note": 69, "velocity": 108, "channel": 0}, {"type": "note_off", "time": 5873, "note": 69, "velocity": 108, "channel": 0}, {"type": "note_on", "time": 51573, "note": 77, "velocity": 123, "channel": 0}, {"type": "note_off", "time": 1528, "note": 77, "velocity": 123, "channel": 0}, {"type": "note_on", "time": 80, "note": 76, "velocity": 112, "channel": 0}, {"type": "note_off", "time": 1367, "note": 76, "velocity": 112, "channel": 0}, {"type": "note_on", "time": 321, "note": 75, "velocity": 123, "channel": 0}, {"type": "note_off", "time": 2574, "note": 75, "velocity": 123, "channel": 0}, {"type": "note_on", "time": 80, "note": 74, "velocity": 122, "channel": 0}, {"type": "note_off", "time": 4103, "note": 74, "velocity": 122, "channel": 0}, {"type": "note_on", "time": 1770, "note": 72, "velocity": 117, "channel": 0}, {"type": "note_off", "time": 4183, "note": 72, "velocity": 117, "channel": 0}, {"type": "note_on", "time": 241, "note": 69, "velocity": 115, "channel": 0}, {"type": "note_off", "time": 4666, "note": 69, "velocity": 115, "channel": 0}, {"type": "note_on", "time": 804, "note": 66, "velocity": 109, "channel": 0}, {"type": "note_off", "time": 4505, "note": 66, "velocity": 109, "channel": 0}, {"type": "note_on", "time": 965, "note": 63, "velocity": 110, "channel": 0}, {"type": "note_off", "time": 3861, "note": 63, "velocity": 110, "channel": 0}, {"type": "note_on", "time": 241, "note": 62, "velocity": 107, "channel": 0}, {"type": "note_off", "time": 5712, "note": 62, "velocity": 107, "channel": 0}, {"type": "note_on", "time": 241, "note": 60, "velocity": 92, "channel": 0}, {"type": "note_off", "time": 2252, "note": 60, "velocity": 92, "channel": 0}, {"type": "note_on", "time": 4103, "note": 64, "velocity": 109, "channel": 0}, {"type": "note_off", "time": 3057, "note": 64, "velocity": 109, "channel": 0}, {"type": "note_on", "time": 321, "note": 65, "velocity": 106, "channel": 0}, {"type": "note_off", "time": 25343, "note": 65, "velocity": 106, "channel": 0}, {"type": "note_on", "time": 241, "note": 63, "velocity": 100, "channel": 0}, {"type": "note_off", "time": 3379, "note": 63, "velocity": 100, "channel": 0}, {"type": "note_on", "time": 3701, "note": 67, "velocity": 116, "channel": 0}, {"type": "note_off", "time": 8287, "note": 67, "velocity": 116, "channel": 0}, {"type": "note_on", "time": 5068, "note": 67, "velocity": 116, "channel": 0}, {"type": "note_off", "time": 9011, "note": 67, "velocity": 116, "channel": 0}, {"type": "note_on", "time": 5229, "note": 67, "velocity": 111, "channel": 0}, {"type": "note_off", "time": 8367, "note": 67, "velocity": 111, "channel": 0}, {"type": "note_on", "time": 5229, "note": 67, "velocity": 115, "channel": 0}, {"type": "note_off", "time": 9333, "note": 67, "velocity": 115, "channel": 0}, {"type": "note_on", "time": 5229, "note": 67, "velocity": 114, "channel": 0}, {"type": "note_off", "time": 6999, "note": 67, "velocity": 114, "channel": 0}, {"type": "note_on", "time": 6677, "note": 67, "velocity": 116, "channel": 0}, {"type": "note_off", "time": 8367, "note": 67, "velocity": 116, "channel": 0}, {"type": "note_on", "time": 5149, "note": 67, "velocity": 107, "channel": 0}, {"type": "note_off", "time": 20597, "note": 67, "velocity": 107, "channel": 0}, {"type": "note_on", "time": 643, "note": 70, "velocity": 117, "channel": 0}, {"type": "note_off", "time": 2976, "note": 70, "velocity": 117, "channel": 0}, {"type": "note_on", "time": 1126, "note": 71, "velocity": 107, "channel": 0}, {"type": "note_off", "time": 2413, "note": 71, "velocity": 107, "channel": 0}, {"type": "note_on", "time": 1206, "note": 69, "velocity": 118, "channel": 0}, {"type": "note_off", "time": 17539, "note": 69, "velocity": 118, "channel": 0}, {"type": "note_on", "time": 482, "note": 68, "velocity": 114, "channel": 0}, {"type": "note_off", "time": 7160, "note": 68, "velocity": 114, "channel": 0}, {"type": "note_on", "time": 1045, "note": 69, "velocity": 117, "channel": 0}, {"type": "note_off", "time": 18987, "note": 69, "velocity": 117, "channel": 0}, {"type": "note_on", "time": 77399, "note": 65, "velocity": 121, "channel": 0}, {"type": "note_off", "time": 3620, "note": 65, "velocity": 121, "channel": 0}, {"type": "note_on", "time": 160, "note": 67, "velocity": 117, "channel": 0}, {"type": "note_off", "time": 4505, "note": 67, "velocity": 117, "channel": 0}, {"type": "note_on", "time": 563, "note": 69, "velocity": 117, "channel": 0}, {"type": "note_off", "time": 5792, "note": 69, "velocity": 117, "channel": 0}, {"type": "note_on", "time": 321, "note": 70, "velocity": 120, "channel": 0}, {"type": "note_off", "time": 5632, "note": 70, "velocity": 120, "channel": 0}, {"type": "note_on", "time": 402, "note": 72, "velocity": 119, "channel": 0}, {"type": "note_off", "time": 6275, "note": 72, "velocity": 119, "channel": 0}, {"type": "note_on", "time": 0, "note": 74, "velocity": 123, "channel": 0}, {"type": "note_off", "time": 6356, "note": 74, "velocity": 123, "channel": 0}, {"type": "note_on", "time": 643, "note": 75, "velocity": 124, "channel": 0}, {"type": "note_off", "time": 3379, "note": 75, "velocity": 124, "channel": 0}, {"type": "note_on", "time": 4746, "note": 77, "velocity": 124, "channel": 0}, {"type": "note_off", "time": 48757, "note": 77, "velocity": 124, "channel": 0}, {"type": "note_on", "time": 39343, "note": 77, "velocity": 124, "channel": 0}, {"type": "note_off", "time": 5551, "note": 77, "velocity": 124, "channel": 0}, {"type": "note_on", "time": 3137, "note": 79, "velocity": 121, "channel": 0}, {"type": "note_off", "time": 2172, "note": 79, "velocity": 121, "channel": 0}, {"type": "note_on", "time": 160, "note": 81, "velocity": 122, "channel": 0}, {"type": "note_off", "time": 5632, "note": 81, "velocity": 122, "channel": 0}, {"type": "note_on", "time": 482, "note": 79, "velocity": 120, "channel": 0}, {"type": "note_off", "time": 5792, "note": 79, "velocity": 120, "channel": 0}, {"type": "note_on", "time": 80, "note": 77, "velocity": 124, "channel": 0}, {"type": "note_off", "time": 5229, "note": 77, "velocity": 124, "channel": 0}, {"type": "note_on", "time": 0, "note": 74, "velocity": 122, "channel": 0}, {"type": "note_off", "time": 37010, "note": 74, "velocity": 122, "channel": 0}, {"type": "note_on", "time": 482, "note": 72, "velocity": 120, "channel": 0}, {"type": "note_off", "time": 2896, "note": 72, "velocity": 120, "channel": 0}, {"type": "note_on", "time": 724, "note": 74, "velocity": 118, "channel": 0}, {"type": "note_off", "time": 1930, "note": 74, "velocity": 118, "channel": 0}, {"type": "note_on", "time": 3701, "note": 70, "velocity": 114, "channel": 0}, {"type": "note_off", "time": 20677, "note": 70, "velocity": 114, "channel": 0}, {"type": "note_on", "time": 1287, "note": 70, "velocity": 108, "channel": 0}, {"type": "note_off", "time": 38217, "note": 70, "velocity": 108, "channel": 0}, {"type": "note_on", "time": 34033, "note": 70, "velocity": 118, "channel": 0}, {"type": "note_off", "time": 4264, "note": 70, "velocity": 118, "channel": 0}, {"type": "note_on", "time": 241, "note": 71, "velocity": 117, "channel": 0}, {"type": "note_off", "time": 4746, "note": 71, "velocity": 117, "channel": 0}, {"type": "note_on", "time": 482, "note": 76, "velocity": 120, "channel": 0}, {"type": "note_off", "time": 3942, "note": 76, "velocity": 120, "channel": 0}, {"type": "note_on", "time": 724, "note": 71, "velocity": 117, "channel": 0}, {"type": "note_off", "time": 4746, "note": 71, "velocity": 117, "channel": 0}, {"type": "note_on", "time": 160, "note": 70, "velocity": 120, "channel": 0}, {"type": "note_off", "time": 5551, "note": 70, "velocity": 120, "channel": 0}, {"type": "note_on", "time": 321, "note": 68, "velocity": 119, "channel": 0}, {"type": "note_off", "time": 5632, "note": 68, "velocity": 119, "channel": 0}, {"type": "note_on", "time": 779, "note": 64, "velocity": 114, "channel": 0}, {"type": "note_off", "time": 4073, "note": 64, "velocity": 114, "channel": 0}, {"type": "note_on", "time": 779, "note": 66, "velocity": 115, "channel": 0}, {"type": "note_off", "time": 1528, "note": 66, "velocity": 115, "channel": 0}, {"type": "note_on", "time": 241, "note": 67, "velocity": 116, "channel": 0}, {"type": "note_off", "time": 1126, "note": 67, "velocity": 116, "channel": 0}, {"type": "note_on", "time": 241, "note": 68, "velocity": 120, "channel": 0}, {"type": "note_off", "time": 1126, "note": 68, "velocity": 120, "channel": 0}, {"type": "note_on", "time": 1045, "note": 69, "velocity": 121, "channel": 0}, {"type": "note_off", "time": 1770, "note": 69, "velocity": 121, "channel": 0}, {"type": "note_on", "time": 563, "note": 70, "velocity": 118, "channel": 0}, {"type": "note_off", "time": 1930, "note": 70, "velocity": 118, "channel": 0}, {"type": "note_on", "time": 621, "note": 64, "velocity": 105, "channel": 0}, {"type": "note_off", "time": 1584, "note": 64, "velocity": 105, "channel": 0}, {"type": "note_on", "time": 339, "note": 65, "velocity": 110, "channel": 0}, {"type": "note_off", "time": 1414, "note": 65, "velocity": 110, "channel": 0}, {"type": "note_on", "time": 226, "note": 66, "velocity": 104, "channel": 0}, {"type": "note_off", "time": 2149, "note": 66, "velocity": 104, "channel": 0}, {"type": "note_on", "time": 339, "note": 67, "velocity": 115, "channel": 0}, {"type": "note_off", "time": 1810, "note": 67, "velocity": 115, "channel": 0}, {"type": "note_on", "time": 339, "note": 68, "velocity": 115, "channel": 0}, {"type": "note_off", "time": 1470, "note": 68, "velocity": 115, "channel": 0}, {"type": "note_on", "time": 452, "note": 69, "velocity": 119, "channel": 0}, {"type": "note_off", "time": 1753, "note": 69, "velocity": 119, "channel": 0}, {"type": "note_on", "time": 169, "note": 70, "velocity": 96, "channel": 0}, {"type": "note_off", "time": 905, "note": 70, "velocity": 96, "channel": 0}, {"type": "note_on", "time": 1550, "note": 64, "velocity": 124, "channel": 0}, {"type": "note_off", "time": 1528, "note": 64, "velocity": 124, "channel": 0}, {"type": "note_on", "time": 321, "note": 65, "velocity": 117, "channel": 0}, {"type": "note_off", "time": 1206, "note": 65, "velocity": 117, "channel": 0}, {"type": "note_on", "time": 402, "note": 66, "velocity": 113, "channel": 0}, {"type": "note_off", "time": 1206, "note": 66, "velocity": 113, "channel": 0}, {"type": "note_on", "time": 482, "note": 67, "velocity": 110, "channel": 0}, {"type": "note_off", "time": 1448, "note": 67, "velocity": 110, "channel": 0}, {"type": "note_on", "time": 563, "note": 68, "velocity": 109, "channel": 0}, {"type": "note_off", "time": 1287, "note": 68, "velocity": 109, "channel": 0}, {"type": "note_on", "time": 643, "note": 69, "velocity": 121, "channel": 0}, {"type": "note_off", "time": 1770, "note": 69, "velocity": 121, "channel": 0}, {"type": "note_on", "time": 482, "note": 70, "velocity": 105, "channel": 0}, {"type": "note_off", "time": 13275, "note": 70, "velocity": 105, "channel": 0}, {"type": "note_on", "time": 40872, "note": 70, "velocity": 119, "channel": 0}, {"type": "note_off", "time": 3540, "note": 70, "velocity": 119, "channel": 0}, {"type": "note_on", "time": 321, "note": 72, "velocity": 120, "channel": 0}, {"type": "note_off", "time": 3861, "note": 72, "velocity": 120, "channel": 0}, {"type": "note_on", "time": 241, "note": 74, "velocity": 124, "channel": 0}, {"type": "note_off", "time": 4425, "note": 74, "velocity": 124, "channel": 0}, {"type": "note_on", "time": 482, "note": 77, "velocity": 122, "channel": 0}, {"type": "note_off", "time": 3459, "note": 77, "velocity": 122, "channel": 0}, {"type": "note_on", "time": 563, "note": 75, "velocity": 122, "channel": 0}, {"type": "note_off", "time": 4666, "note": 75, "velocity": 122, "channel": 0}, {"type": "note_on", "time": 0, "note": 74, "velocity": 121, "channel": 0}, {"type": "note_off", "time": 4666, "note": 74, "velocity": 121, "channel": 0}, {"type": "note_on", "time": 1126, "note": 70, "velocity": 114, "channel": 0}, {"type": "note_off", "time": 4022, "note": 70, "velocity": 114, "channel": 0}, {"type": "note_on", "time": 2494, "note": 72, "velocity": 118, "channel": 0}, {"type": "note_off", "time": 4103, "note": 72, "velocity": 118, "channel": 0}, {"type": "note_on", "time": 804, "note": 67, "velocity": 113, "channel": 0}, {"type": "note_off", "time": 5149, "note": 67, "velocity": 113, "channel": 0}, {"type": "note_on", "time": 3137, "note": 70, "velocity": 115, "channel": 0}, {"type": "note_off", "time": 19229, "note": 70, "velocity": 115, "channel": 0}, {"type": "note_on", "time": 160, "note": 64, "velocity": 111, "channel": 0}, {"type": "note_off", "time": 29608, "note": 64, "velocity": 111, "channel": 0}, {"type": "note_on", "time": 160, "note": 67, "velocity": 117, "channel": 0}, {"type": "note_off", "time": 6677, "note": 67, "velocity": 117, "channel": 0}, {"type": "note_on", "time": 804, "note": 65, "velocity": 114, "channel": 0}, {"type": "note_off", "time": 5792, "note": 65, "velocity": 114, "channel": 0}, {"type": "note_on", "time": 1033, "note": 60, "velocity": 104, "channel": 0}, {"type": "note_off", "time": 2828, "note": 60, "velocity": 104, "channel": 0}, {"type": "note_on", "time": 3701, "note": 63, "velocity": 107, "channel": 0}, {"type": "note_off", "time": 5953, "note": 63, "velocity": 107, "channel": 0}, {"type": "note_on", "time": 241, "note": 65, "velocity": 114, "channel": 0}, {"type": "note_off", "time": 20194, "note": 65, "velocity": 114, "channel": 0}, {"type": "note_on", "time": 321, "note": 67, "velocity": 114, "channel": 0}, {"type": "note_off", "time": 6758, "note": 67, "velocity": 114, "channel": 0}, {"type": "note_on", "time": 160, "note": 69, "velocity": 116, "channel": 0}, {"type": "note_off", "time": 6597, "note": 69, "velocity": 116, "channel": 0}, {"type": "note_on", "time": 0, "note": 66, "velocity": 104, "channel": 0}, {"type": "note_off", "time": 10620, "note": 66, "velocity": 104, "channel": 0}, {"type": "note_on", "time": 44336, "note": 70, "velocity": 113, "channel": 0}, {"type": "note_off", "time": 8881, "note": 70, "velocity": 113, "channel": 0}, {"type": "note_on", "time": 4412, "note": 63, "velocity": 99, "channel": 0}, {"type": "note_off", "time": 7410, "note": 63, "velocity": 99, "channel": 0}, {"type": "note_on", "time": 60792, "note": 70, "velocity": 115, "channel": 0}, {"type": "note_off", "time": 6838, "note": 70, "velocity": 115, "channel": 0}, {"type": "note_on", "time": 0, "note": 63, "velocity": 92, "channel": 0}, {"type": "note_off", "time": 2735, "note": 63, "velocity": 92, "channel": 0}, {"type": "note_on", "time": 3459, "note": 70, "velocity": 116, "channel": 0}, {"type": "note_off", "time": 7321, "note": 70, "velocity": 116, "channel": 0}, {"type": "note_on", "time": 0, "note": 75, "velocity": 111, "channel": 0}, {"type": "note_off", "time": 2172, "note": 75, "velocity": 111, "channel": 0}, {"type": "note_on", "time": 4425, "note": 70, "velocity": 117, "channel": 0}, {"type": "note_off", "time": 9574, "note": 70, "velocity": 117, "channel": 0}, {"type": "note_on", "time": 4264, "note": 63, "velocity": 99, "channel": 0}, {"type": "note_off", "time": 6275, "note": 63, "velocity": 99, "channel": 0}, {"type": "note_on", "time": 74744, "note": 79, "velocity": 119, "channel": 0}, {"type": "note_off", "time": 5953, "note": 79, "velocity": 119, "channel": 0}, {"type": "note_on", "time": 39343, "note": 77, "velocity": 120, "channel": 0}, {"type": "note_off", "time": 2252, "note": 77, "velocity": 120, "channel": 0}, {"type": "note_on", "time": 160, "note": 76, "velocity": 110, "channel": 0}, {"type": "note_off", "time": 1448, "note": 76, "velocity": 110, "channel": 0}, {"type": "note_on", "time": 80, "note": 75, "velocity": 118, "channel": 0}, {"type": "note_off", "time": 2172, "note": 75, "velocity": 118, "channel": 0}, {"type": "note_on", "time": 241, "note": 74, "velocity": 122, "channel": 0}, {"type": "note_off", "time": 2976, "note": 74, "velocity": 122, "channel": 0}, {"type": "note_on", "time": 3942, "note": 75, "velocity": 117, "channel": 0}, {"type": "note_off", "time": 2976, "note": 75, "velocity": 117, "channel": 0}, {"type": "note_on", "time": 4425, "note": 72, "velocity": 117, "channel": 0}, {"type": "note_off", "time": 3057, "note": 72, "velocity": 117, "channel": 0}, {"type": "note_on", "time": 160, "note": 74, "velocity": 112, "channel": 0}, {"type": "note_off", "time": 2574, "note": 74, "velocity": 112, "channel": 0}, {"type": "note_on", "time": 2413, "note": 70, "velocity": 114, "channel": 0}, {"type": "note_off", "time": 33470, "note": 70, "velocity": 114, "channel": 0}, {"type": "note_on", "time": 321, "note": 67, "velocity": 93, "channel": 0}, {"type": "note_off", "time": 3057, "note": 67, "velocity": 93, "channel": 0}, {"type": "note_on", "time": 402, "note": 68, "velocity": 108, "channel": 0}, {"type": "note_off", "time": 3459, "note": 68, "velocity": 108, "channel": 0}, {"type": "note_on", "time": 643, "note": 67, "velocity": 114, "channel": 0}, {"type": "note_off", "time": 4746, "note": 67, "velocity": 114, "channel": 0}, {"type": "note_on", "time": 334, "note": 63, "velocity": 100, "channel": 0}, {"type": "note_off", "time": 8146, "note": 63, "velocity": 100, "channel": 0}, {"type": "note_on", "time": 113, "note": 60, "velocity": 85, "channel": 0}, {"type": "note_off", "time": 5770, "note": 60, "velocity": 85, "channel": 0}, {"type": "note_on", "time": 0, "note": 56, "velocity": 104, "channel": 0}, {"type": "note_off", "time": 6675, "note": 56, "velocity": 104, "channel": 0}, {"type": "note_on", "time": 7241, "note": 58, "velocity": 108, "channel": 0}, {"type": "note_off", "time": 7467, "note": 58, "velocity": 108, "channel": 0}, {"type": "note_on", "time": 0, "note": 56, "velocity": 104, "channel": 0}, {"type": "note_off", "time": 4638, "note": 56, "velocity": 104, "channel": 0}, {"type": "note_on", "time": 61210, "note": 70, "velocity": 117, "channel": 0}, {"type": "note_off", "time": 4186, "note": 70, "velocity": 117, "channel": 0}, {"type": "note_on", "time": 169, "note": 72, "velocity": 117, "channel": 0}, {"type": "note_off", "time": 4242, "note": 72, "velocity": 117, "channel": 0}, {"type": "note_on", "time": 396, "note": 73, "velocity": 119, "channel": 0}, {"type": "note_off", "time": 4865, "note": 73, "velocity": 119, "channel": 0}, {"type": "note_on", "time": 0, "note": 72, "velocity": 115, "channel": 0}, {"type": "note_off", "time": 3790, "note": 72, "velocity": 115, "channel": 0}, {"type": "note_on", "time": 791, "note": 73, "velocity": 117, "channel": 0}, {"type": "note_off", "time": 5487, "note": 73, "velocity": 117, "channel": 0}, {"type": "note_on", "time": 227, "note": 72, "velocity": 114, "channel": 0}, {"type": "note_off", "time": 32102, "note": 72, "velocity": 114, "channel": 0}, {"type": "note_on", "time": 53262, "note": 68, "velocity": 119, "channel": 0}, {"type": "note_off", "time": 4186, "note": 68, "velocity": 119, "channel": 0}, {"type": "note_on", "time": 113, "note": 70, "velocity": 116, "channel": 0}, {"type": "note_off", "time": 5317, "note": 70, "velocity": 116, "channel": 0}, {"type": "note_on", "time": 226, "note": 71, "velocity": 117, "channel": 0}, {"type": "note_off", "time": 4978, "note": 71, "velocity": 117, "channel": 0}, {"type": "note_on", "time": 1244, "note": 70, "velocity": 118, "channel": 0}, {"type": "note_off", "time": 11879, "note": 70, "velocity": 118, "channel": 0}, {"type": "note_on", "time": 339, "note": 68, "velocity": 116, "channel": 0}, {"type": "note_off", "time": 7806, "note": 68, "velocity": 116, "channel": 0}, {"type": "note_on", "time": 1131, "note": 67, "velocity": 112, "channel": 0}, {"type": "note_off", "time": 31906, "note": 67, "velocity": 112, "channel": 0}, {"type": "note_on", "time": 28285, "note": 70, "velocity": 116, "channel": 0}, {"type": "note_off", "time": 5543, "note": 70, "velocity": 116, "channel": 0}, {"type": "note_on", "time": 1018, "note": 68, "velocity": 122, "channel": 0}, {"type": "note_off", "time": 5543, "note": 68, "velocity": 122, "channel": 0}, {"type": "note_on", "time": 113, "note": 67, "velocity": 115, "channel": 0}, {"type": "note_off", "time": 3168, "note": 67, "velocity": 115, "channel": 0}, {"type": "note_on", "time": 2828, "note": 63, "velocity": 106, "channel": 0}, {"type": "note_off", "time": 11427, "note": 63, "velocity": 106, "channel": 0}, {"type": "note_on", "time": 33829, "note": 70, "velocity": 115, "channel": 0}, {"type": "note_off", "time": 2715, "note": 70, "velocity": 115, "channel": 0}, {"type": "note_on", "time": 226, "note": 68, "velocity": 121, "channel": 0}, {"type": "note_off", "time": 2602, "note": 68, "velocity": 121, "channel": 0}, {"type": "note_on", "time": 339, "note": 67, "velocity": 115, "channel": 0}, {"type": "note_off", "time": 3168, "note": 67, "velocity": 115, "channel": 0}, {"type": "note_on", "time": 2828, "note": 63, "velocity": 109, "channel": 0}, {"type": "note_off", "time": 10409, "note": 63, "velocity": 109, "channel": 0}, {"type": "note_on", "time": 28964, "note": 70, "velocity": 122, "channel": 0}, {"type": "note_off", "time": 2602, "note": 70, "velocity": 122, "channel": 0}, {"type": "note_on", "time": 0, "note": 68, "velocity": 122, "channel": 0}, {"type": "note_off", "time": 2602, "note": 68, "velocity": 122, "channel": 0}, {"type": "note_on", "time": 565, "note": 67, "velocity": 121, "channel": 0}, {"type": "note_off", "time": 2941, "note": 67, "velocity": 121, "channel": 0}, {"type": "note_on", "time": 4525, "note": 63, "velocity": 107, "channel": 0}, {"type": "note_off", "time": 11653, "note": 63, "velocity": 107, "channel": 0}, {"type": "note_on", "time": 37563, "note": 63, "velocity": 101, "channel": 0}, {"type": "note_off", "time": 2715, "note": 63, "velocity": 101, "channel": 0}, {"type": "note_on", "time": 1923, "note": 70, "velocity": 117, "channel": 0}, {"type": "note_off", "time": 21044, "note": 70, "velocity": 117, "channel": 0}, {"type": "note_on", "time": 42994, "note": 78, "velocity": 123, "channel": 0}, {"type": "note_off", "time": 6222, "note": 78, "velocity": 123, "channel": 0}, {"type": "note_on", "time": 0, "note": 79, "velocity": 121, "channel": 0}, {"type": "note_off", "time": 1357, "note": 79, "velocity": 121, "channel": 0}, {"type": "note_on", "time": 0, "note": 80, "velocity": 122, "channel": 0}, {"type": "note_off", "time": 1923, "note": 80, "velocity": 122, "channel": 0}, {"type": "note_on", "time": 0, "note": 81, "velocity": 126, "channel": 0}, {"type": "note_off", "time": 2149, "note": 81, "velocity": 126, "channel": 0}, {"type": "note_on", "time": 0, "note": 82, "velocity": 122, "channel": 0}, {"type": "note_off", "time": 4525, "note": 82, "velocity": 122, "channel": 0}, {"type": "note_on", "time": 339, "note": 80, "velocity": 118, "channel": 0}, {"type": "note_off", "time": 42881, "note": 80, "velocity": 118, "channel": 0}, {"type": "note_on", "time": 40505, "note": 78, "velocity": 116, "channel": 0}, {"type": "note_off", "time": 7128, "note": 78, "velocity": 116, "channel": 0}, {"type": "note_on", "time": 6675, "note": 75, "velocity": 115, "channel": 0}, {"type": "note_off", "time": 6336, "note": 75, "velocity": 115, "channel": 0}, {"type": "note_on", "time": 678, "note": 73, "velocity": 110, "channel": 0}, {"type": "note_off", "time": 2489, "note": 73, "velocity": 110, "channel": 0}, {"type": "note_on", "time": 2828, "note": 75, "velocity": 111, "channel": 0}, {"type": "note_off", "time": 19800, "note": 75, "velocity": 111, "channel": 0}, {"type": "note_on", "time": 113, "note": 73, "velocity": 114, "channel": 0}, {"type": "note_off", "time": 33037, "note": 73, "velocity": 114, "channel": 0}, {"type": "note_on", "time": 26475, "note": 71, "velocity": 114, "channel": 0}, {"type": "note_off", "time": 2715, "note": 71, "velocity": 114, "channel": 0}, {"type": "note_on", "time": 0, "note": 73, "velocity": 112, "channel": 0}, {"type": "note_off", "time": 18102, "note": 73, "velocity": 112, "channel": 0}, {"type": "note_on", "time": 0, "note": 70, "velocity": 112, "channel": 0}, {"type": "note_off", "time": 16858, "note": 70, "velocity": 112, "channel": 0}, {"type": "note_on", "time": 1131, "note": 68, "velocity": 111, "channel": 0}, {"type": "note_off", "time": 6788, "note": 68, "velocity": 111, "channel": 0}, {"type": "note_on", "time": 226, "note": 66, "velocity": 107, "channel": 0}, {"type": "note_off", "time": 27833, "note": 66, "velocity": 107, "channel": 0}, {"type": "note_on", "time": 33603, "note": 70, "velocity": 112, "channel": 0}, {"type": "note_off", "time": 21497, "note": 70, "velocity": 112, "channel": 0}, {"type": "note_on", "time": 905, "note": 75, "velocity": 120, "channel": 0}, {"type": "note_off", "time": 9277, "note": 75, "velocity": 120, "channel": 0}, {"type": "note_on", "time": 2376, "note": 68, "velocity": 115, "channel": 0}, {"type": "note_off", "time": 4412, "note": 68, "velocity": 115, "channel": 0}, {"type": "note_on", "time": 226, "note": 70, "velocity": 115, "channel": 0}, {"type": "note_off", "time": 5317, "note": 70, "velocity": 115, "channel": 0}, {"type": "note_on", "time": 0, "note": 73, "velocity": 116, "channel": 0}, {"type": "note_off", "time": 3960, "note": 73, "velocity": 116, "channel": 0}, {"type": "note_on", "time": 452, "note": 68, "velocity": 113, "channel": 0}, {"type": "note_off", "time": 4412, "note": 68, "velocity": 113, "channel": 0}, {"type": "note_on", "time": 226, "note": 70, "velocity": 114, "channel": 0}, {"type": "note_off", "time": 4186, "note": 70, "velocity": 114, "channel": 0}, {"type": "note_on", "time": 226, "note": 73, "velocity": 115, "channel": 0}, {"type": "note_off", "time": 4412, "note": 73, "velocity": 115, "channel": 0}, {"type": "note_on", "time": 565, "note": 68, "velocity": 115, "channel": 0}, {"type": "note_off", "time": 3281, "note": 68, "velocity": 115, "channel": 0}, {"type": "note_on", "time": 113, "note": 70, "velocity": 106, "channel": 0}, {"type": "note_off", "time": 4073, "note": 70, "velocity": 106, "channel": 0}, {"type": "note_on", "time": 452, "note": 66, "velocity": 111, "channel": 0}, {"type": "note_off", "time": 2941, "note": 66, "velocity": 111, "channel": 0}, {"type": "note_on", "time": 905, "note": 68, "velocity": 108, "channel": 0}, {"type": "note_off", "time": 3620, "note": 68, "velocity": 108, "channel": 0}, {"type": "note_on", "time": 905, "note": 63, "velocity": 111, "channel": 0}, {"type": "note_off", "time": 5430, "note": 63, "velocity": 111, "channel": 0}, {"type": "note_on", "time": 113, "note": 66, "velocity": 113, "channel": 0}, {"type": "note_off", "time": 5317, "note": 66, "velocity": 113, "channel": 0}, {"type": "note_on", "time": 452, "note": 61, "velocity": 98, "channel": 0}, {"type": "note_off", "time": 113029, "note": 61, "velocity": 98, "channel": 0}, {"type": "end_of_track", "time": 0}]]}