{"ticks_per_beat": 192, "tracks": [[{"type": "track_name", "name": "Melody", "time": 0}, {"type": "set_tempo", "tempo": 291262, "time": 0}, {"type": "key_signature", "key": "F", "time": 0}, {"type": "time_signature", "numerator": 4, "denominator": 4, "clocks_per_click": 24, "notated_32nd_notes_per_beat": 8, "time": 0}, {"type": "note_on", "time": 2326, "note": 69, "velocity": 100, "channel": 0}, {"type": "note_off", "time": 84, "note": 69, "velocity": 100, "channel": 0}, {"type": "note_on", "time": 0, "note": 70, "velocity": 93, "channel": 0}, {"type": "note_off", "time": 91, "note": 70, "velocity": 93, "channel": 0}, {"type": "note_on", "time": 13, "note": 69, "velocity": 104, "channel": 0}, {"type": "note_off", "time": 78, "note": 69, "velocity": 104, "channel": 0}, {"type": "note_on", "time": 19, "note": 65, "velocity": 94, "channel": 0}, {"type": "note_off", "time": 84, "note": 65, "velocity": 94, "channel": 0}, {"type": "note_on", "time": 26, "note": 60, "velocity": 96, "channel": 0}, {"type": "note_off", "time": 66, "note": 60, "velocity": 96, "channel": 0}, {"type": "note_on", "time": 124, "note": 58, "velocity": 100, "channel": 0}, {"type": "note_off", "time": 61, "note": 58, "velocity": 100, "channel": 0}, {"type": "note_on", "time": 26, "note": 57, "velocity": 96, "channel": 0}, {"type": "note_off", "time": 93, "note": 57, "velocity": 96, "channel": 0}, {"type": "note_on", "time": 81, "note": 65, "velocity": 104, "channel": 0}, {"type": "note_off", "time": 180, "note": 65, "velocity": 104, "channel": 0}, {"type": "note_on", "time": 21, "note": 60, "velocity": 91, "channel": 0}, {"type": "note_off", "time": 177, "note": 60, "velocity": 91, "channel": 0}, {"type": "note_on", "time": 9, "note": 65, "velocity": 99, "channel": 0}, {"type": "note_off", "time": 191, "note": 65, "velocity": 99, "channel": 0}, {"type": "note_on", "time": 21, "note": 63, "velocity": 95, "channel": 0}, {"type": "note_off", "time": 83, "note": 63, "velocity": 95, "channel": 0}, {"type": "note_on", "time": 34, "note": 68, "velocity": 102, "channel": 0}, {"type": "note_off", "time": 236, "note": 68, "velocity": 102, "channel": 0}, {"type": "note_on", "time": 14, "note": 66, "velocity": 105, "channel": 0}, {"type": "note_off", "time": 96, "note": 66, "velocity": 105, "channel": 0}, {"type": "note_on", "time": 22, "note": 64, "velocity": 100, "channel": 0}, {"type": "note_off", "time": 68, "note": 64, "velocity": 100, "channel": 0}, {"type": "note_on", "time": 8, "note": 65, "velocity": 99, "channel": 0}, {"type": "note_off", "time": 99, "note": 65, "velocity": 99, "channel": 0}, {"type": "note_on", "time": 10, "note": 62, "velocity": 88, "channel": 0}, {"type": "note_off", "time": 47, "note": 62, "velocity": 88, "channel": 0}, {"type": "note_on", "time": 1194, "note": 71, "velocity": 107, "channel": 0}, {"type": "note_off", "time": 90, "note": 71, "velocity": 107, "channel": 0}, {"type": "note_on", "time": 20, "note": 76, "velocity": 106, "channel": 0}, {"type": "note_off", "time": 88, "note": 76, "velocity": 106, "channel": 0}, {"type": "note_on", "time": 4, "note": 74, "velocity": 101, "channel": 0}, {"type": "note_off", "time": 65, "note": 74, "velocity": 101, "channel": 0}, {"type": "note_on", "time": 0, "note": 72, "velocity": 81, "channel": 0}, {"type": "note_off", "time": 26, "note": 72, "velocity": 81, "channel": 0}, {"type": "note_on", "time": 8, "note": 69, "velocity": 92, "channel": 0}, {"type": "note_off", "time": 61, "note": 69, "velocity": 92, "channel": 0}, {"type": "note_on", "time": 982, "note": 72, "velocity": 110, "channel": 0}, {"type": "note_off", "time": 115, "note": 72, "velocity": 110, "channel": 0}, {"type": "note_on", "time": 52, "note": 77, "velocity": 111, "channel": 0}, {"type": "note_off", "time": 103, "note": 77, "velocity": 111, "channel": 0}, {"type": "note_on", "time": 9, "note": 75, "velocity": 106, "channel": 0}, {"type": "note_off", "time": 87, "note": 75, "velocity": 106, "channel": 0}, {"type": "note_on", "time": 4, "note": 70, "velocity": 102, "channel": 0}, {"type": "note_off", "time": 108, "note": 70, "velocity": 102, "channel": 0}, {"type": "note_on", "time": 8, "note": 68, "velocity": 92, "channel": 0}, {"type": "note_off", "time": 78, "note": 68, "velocity": 92, "channel": 0}, {"type": "note_on", "time": 13, "note": 75, "velocity": 112, "channel": 0}, {"type": "note_off", "time": 94, "note": 75, "velocity": 112, "channel": 0}, {"type": "note_on", "time": 8, "note": 73, "velocity": 110, "channel": 0}, {"type": "note_off", "time": 95, "note": 73, "velocity": 110, "channel": 0}, {"type": "note_on", "time": 2, "note": 68, "velocity": 107, "channel": 0}, {"type": "note_off", "time": 114, "note": 68, "velocity": 107, "channel": 0}, {"type": "note_on", "time": 9, "note": 63, "velocity": 95, "channel": 0}, {"type": "note_off", "time": 80, "note": 63, "velocity": 95, "channel": 0}, {"type": "note_on", "time": 9, "note": 73, "velocity": 107, "channel": 0}, {"type": "note_off", "time": 84, "note": 73, "velocity": 107, "channel": 0}, {"type": "note_on", "time": 6, "note": 71, "velocity": 102, "channel": 0}, {"type": "note_off", "time": 100, "note": 71, "velocity": 102, "channel": 0}, {"type": "note_on", "time": 8, "note": 72, "velocity": 104, "channel": 0}, {"type": "note_off", "time": 157, "note": 72, "velocity": 104, "channel": 0}, {"type": "note_on", "time": 20, "note": 70, "velocity": 104, "channel": 0}, {"type": "note_off", "time": 102, "note": 70, "velocity": 104, "channel": 0}, {"type": "note_on", "time": 1, "note": 68, "velocity": 104, "channel": 0}, {"type": "note_off", "time": 86, "note": 68, "velocity": 104, "channel": 0}, {"type": "note_on", "time": 10, "note": 69, "velocity": 104, "channel": 0}, {"type": "note_off", "time": 131, "note": 69, "velocity": 104, "channel": 0}, {"type": "note_on", "time": 17, "note": 68, "velocity": 97, "channel": 0}, {"type": "note_off", "time": 34, "note": 68, "velocity": 97, "channel": 0}, {"type": "note_on", "time": 16, "note": 65, "velocity": 100, "channel": 0}, {"type": "note_off", "time": 82, "note": 65, "velocity": 100, "channel": 0}, {"type": "note_on", "time": 5, "note": 63, "velocity": 87, "channel": 0}, {"type": "note_off", "time": 51, "note": 63, "velocity": 87, "channel": 0}, {"type": "note_on", "time": 29, "note": 65, "velocity": 99, "channel": 0}, {"type": "note_off", "time": 297, "note": 65, "velocity": 99, "channel": 0}, {"type": "note_on", "time": 26, "note": 63, "velocity": 99, "channel": 0}, {"type": "note_off", "time": 285, "note": 63, "velocity": 99, "channel": 0}, {"type": "note_on", "time": 11, "note": 65, "velocity": 94, "channel": 0}, {"type": "note_off", "time": 46, "note": 65, "velocity": 94, "channel": 0}, {"type": "note_on", "time": 0, "note": 67, "velocity": 95, "channel": 0}, {"type": "note_off", "time": 22, "note": 67, "velocity": 95, "channel": 0}, {"type": "note_on", "time": 7, "note": 69, "velocity": 99, "channel": 0}, {"type": "note_off", "time": 39, "note": 69, "velocity": 99, "channel": 0}, {"type": "note_on", "time": 4, "note": 70, "velocity": 99, "channel": 0}, {"type": "note_off", "time": 320, "note": 70, "velocity": 99, "channel": 0}, {"type": "note_on", "time": 16, "note": 67, "velocity": 90, "channel": 0}, {"type": "note_off", "time": 64, "note": 67, "velocity": 90, "channel": 0}, {"type": "note_on", "time": 0, "note": 69, "velocity": 102, "channel": 0}, {"type": "note_off", "time": 99, "note": 69, "velocity": 102, "channel": 0}, {"type": "note_on", "time": 13, "note": 65, "velocity": 96, "channel": 0}, {"type": "note_off", "time": 75, "note": 65, "velocity": 96, "channel": 0}, {"type": "note_on", "time": 36, "note": 60, "velocity": 88, "channel": 0}, {"type": "note_off", "time": 67, "note": 60, "velocity": 88, "channel": 0}, {"type": "note_on", "time": 23, "note": 58, "velocity": 95, "channel": 0}, {"type": "note_off", "time": 72, "note": 58, "velocity": 95, "channel": 0}, {"type": "note_on", "time": 11, "note": 57, "velocity": 92, "channel": 0}, {"type": "note_off", "time": 104, "note": 57, "velocity": 92, "channel": 0}, {"type": "note_on", "time": 17, "note": 60, "velocity": 91, "channel": 0}, {"type": "note_off", "time": 71, "note": 60, "velocity": 91, "channel": 0}, {"type": "note_on", "time": 21, "note": 65, "velocity": 99, "channel": 0}, {"type": "note_off", "time": 91, "note": 65, "velocity": 99, "channel": 0}, {"type": "note_on", "time": 11, "note": 64, "velocity": 101, "channel": 0}, {"type": "note_off", "time": 81, "note": 64, "velocity": 101, "channel": 0}, {"type": "note_on", "time": 7, "note": 63, "velocity": 99, "channel": 0}, {"type": "note_off", "time": 82, "note": 63, "velocity": 99, "channel": 0}, {"type": "note_on", "time": 6, "note": 65, "velocity": 102, "channel": 0}, {"type": "note_off", "time": 88, "note": 65, "velocity": 102, "channel": 0}, {"type": "note_on", "time": 20, "note": 60, "velocity": 93, "channel": 0}, {"type": "note_off", "time": 83, "note": 60, "velocity": 93, "channel": 0}, {"type": "note_on", "time": 16, "note": 63, "velocity": 100, "channel": 0}, {"type": "note_off", "time": 83, "note": 63, "velocity": 100, "channel": 0}, {"type": "note_on", "time": 5, "note": 65, "velocity": 102, "channel": 0}, {"type": "note_off", "time": 86, "note": 65, "velocity": 102, "channel": 0}, {"type": "note_on", "time": 19, "note": 62, "velocity": 99, "channel": 0}, {"type": "note_off", "time": 71, "note": 62, "velocity": 99, "channel": 0}, {"type": "note_on", "time": 12, "note": 64, "velocity": 98, "channel": 0}, {"type": "note_off", "time": 88, "note": 64, "velocity": 98, "channel": 0}, {"type": "note_on", "time": 16, "note": 67, "velocity": 106, "channel": 0}, {"type": "note_off", "time": 88, "note": 67, "velocity": 106, "channel": 0}, {"type": "note_on", "time": 7, "note": 69, "velocity": 105, "channel": 0}, {"type": "note_off", "time": 94, "note": 69, "velocity": 105, "channel": 0}, {"type": "note_on", "time": 0, "note": 66, "velocity": 103, "channel": 0}, {"type": "note_off", "time": 71, "note": 66, "velocity": 103, "channel": 0}, {"type": "note_on", "time": 11, "note": 68, "velocity": 103, "channel": 0}, {"type": "note_off", "time": 105, "note": 68, "velocity": 103, "channel": 0}, {"type": "note_on", "time": 2, "note": 71, "velocity": 107, "channel": 0}, {"type": "note_off", "time": 72, "note": 71, "velocity": 107, "channel": 0}, {"type": "note_on", "time": 11, "note": 73, "velocity": 109, "channel": 0}, {"type": "note_off", "time": 89, "note": 73, "velocity": 109, "channel": 0}, {"type": "note_on", "time": 18, "note": 70, "velocity": 104, "channel": 0}, {"type": "note_off", "time": 78, "note": 70, "velocity": 104, "channel": 0}, {"type": "note_on", "time": 13, "note": 72, "velocity": 105, "channel": 0}, {"type": "note_off", "time": 94, "note": 72, "velocity": 105, "channel": 0}, {"type": "note_on", "time": 4, "note": 75, "velocity": 109, "channel": 0}, {"type": "note_off", "time": 85, "note": 75, "velocity": 109, "channel": 0}, {"type": "note_on", "time": 2, "note": 77, "velocity": 107, "channel": 0}, {"type": "note_off", "time": 555, "note": 77, "velocity": 107, "channel": 0}, {"type": "note_on", "time": 791, "note": 76, "velocity": 105, "channel": 0}, {"type": "note_off", "time": 93, "note": 76, "velocity": 105, "channel": 0}, {"type": "note_on", "time": 4, "note": 79, "velocity": 107, "channel": 0}, {"type": "note_off", "time": 90, "note": 79, "velocity": 107, "channel": 0}, {"type": "note_on", "time": 9, "note": 81, "velocity": 108, "channel": 0}, {"type": "note_off", "time": 136, "note": 81, "velocity": 108, "channel": 0}, {"type": "note_on", "time": 10, "note": 78, "velocity": 111, "channel": 0}, {"type": "note_off", "time": 152, "note": 78, "velocity": 111, "channel": 0}, {"type": "note_on", "time": 11, "note": 80, "velocity": 106, "channel": 0}, {"type": "note_off", "time": 187, "note": 80, "velocity": 106, "channel": 0}, {"type": "note_on", "time": 2, "note": 83, "velocity": 109, "channel": 0}, {"type": "note_off", "time": 625, "note": 83, "velocity": 109, "channel": 0}, {"type": "note_on", "time": 776, "note": 80, "velocity": 108, "channel": 0}, {"type": "note_off", "time": 102, "note": 80, "velocity": 108, "channel": 0}, {"type": "note_on", "time": 19, "note": 83, "velocity": 107, "channel": 0}, {"type": "note_off", "time": 167, "note": 83, "velocity": 107, "channel": 0}, {"type": "note_on", "time": 4, "note": 84, "velocity": 107, "channel": 0}, {"type": "note_off", "time": 16, "note": 84, "velocity": 107, "channel": 0}, {"type": "note_on", "time": 0, "note": 83, "velocity": 106, "channel": 0}, {"type": "note_off", "time": 153, "note": 83, "velocity": 106, "channel": 0}, {"type": "note_on", "time": 28, "note": 82, "velocity": 105, "channel": 0}, {"type": "note_off", "time": 106, "note": 82, "velocity": 105, "channel": 0}, {"type": "note_on", "time": 4, "note": 81, "velocity": 103, "channel": 0}, {"type": "note_off", "time": 14, "note": 81, "velocity": 103, "channel": 0}, {"type": "note_on", "time": 0, "note": 80, "velocity": 92, "channel": 0}, {"type": "note_off", "time": 7, "note": 80, "velocity": 92, "channel": 0}, {"type": "note_on", "time": 3, "note": 79, "velocity": 80, "channel": 0}, {"type": "note_off", "time": 5, "note": 79, "velocity": 80, "channel": 0}, {"type": "note_on", "time": 11, "note": 78, "velocity": 70, "channel": 0}, {"type": "note_off", "time": 37, "note": 78, "velocity": 70, "channel": 0}, {"type": "note_on", "time": 773, "note": 77, "velocity": 100, "channel": 0}, {"type": "note_off", "time": 70, "note": 77, "velocity": 100, "channel": 0}, {"type": "note_on", "time": 14, "note": 82, "velocity": 103, "channel": 0}, {"type": "note_off", "time": 109, "note": 82, "velocity": 103, "channel": 0}, {"type": "note_on", "time": 3, "note": 81, "velocity": 109, "channel": 0}, {"type": "note_off", "time": 77, "note": 81, "velocity": 109, "channel": 0}, {"type": "note_on", "time": 0, "note": 82, "velocity": 105, "channel": 0}, {"type": "note_off", "time": 85, "note": 82, "velocity": 105, "channel": 0}, {"type": "note_on", "time": 0, "note": 81, "velocity": 112, "channel": 0}, {"type": "note_off", "time": 96, "note": 81, "velocity": 112, "channel": 0}, {"type": "note_on", "time": 8, "note": 82, "velocity": 107, "channel": 0}, {"type": "note_off", "time": 176, "note": 82, "velocity": 107, "channel": 0}, {"type": "note_on", "time": 3, "note": 81, "velocity": 108, "channel": 0}, {"type": "note_off", "time": 132, "note": 81, "velocity": 108, "channel": 0}, {"type": "note_on", "time": 2, "note": 84, "velocity": 109, "channel": 0}, {"type": "note_off", "time": 187, "note": 84, "velocity": 109, "channel": 0}, {"type": "note_on", "time": 3, "note": 83, "velocity": 97, "channel": 0}, {"type": "note_off", "time": 17, "note": 83, "velocity": 97, "channel": 0}, {"type": "note_on", "time": 0, "note": 81, "velocity": 105, "channel": 0}, {"type": "note_off", "time": 125, "note": 81, "velocity": 105, "channel": 0}, {"type": "note_on", "time": 9, "note": 77, "velocity": 103, "channel": 0}, {"type": "note_off", "time": 453, "note": 77, "velocity": 103, "channel": 0}, {"type": "note_on", "time": 780, "note": 80, "velocity": 103, "channel": 0}, {"type": "note_off", "time": 189, "note": 80, "velocity": 103, "channel": 0}, {"type": "note_on", "time": 3, "note": 81, "velocity": 96, "channel": 0}, {"type": "note_off", "time": 36, "note": 81, "velocity": 96, "channel": 0}, {"type": "note_on", "time": 5, "note": 83, "velocity": 111, "channel": 0}, {"type": "note_off", "time": 130, "note": 83, "velocity": 111, "channel": 0}, {"type": "note_on", "time": 11, "note": 82, "velocity": 106, "channel": 0}, {"type": "note_off", "time": 164, "note": 82, "velocity": 106, "channel": 0}, {"type": "note_on", "time": 32, "note": 76, "velocity": 105, "channel": 0}, {"type": "note_off", "time": 125, "note": 76, "velocity": 105, "channel": 0}, {"type": "note_on", "time": 0, "note": 80, "velocity": 107, "channel": 0}, {"type": "note_off", "time": 304, "note": 80, "velocity": 107, "channel": 0}, {"type": "note_on", "time": 471, "note": 77, "velocity": 103, "channel": 0}, {"type": "note_off", "time": 78, "note": 77, "velocity": 103, "channel": 0}, {"type": "note_on", "time": 13, "note": 81, "velocity": 107, "channel": 0}, {"type": "note_off", "time": 88, "note": 81, "velocity": 107, "channel": 0}, {"type": "note_on", "time": 3, "note": 79, "velocity": 105, "channel": 0}, {"type": "note_off", "time": 84, "note": 79, "velocity": 105, "channel": 0}, {"type": "note_on", "time": 9, "note": 77, "velocity": 107, "channel": 0}, {"type": "note_off", "time": 103, "note": 77, "velocity": 107, "channel": 0}, {"type": "note_on", "time": 3, "note": 76, "velocity": 105, "channel": 0}, {"type": "note_off", "time": 88, "note": 76, "velocity": 105, "channel": 0}, {"type": "note_on", "time": 0, "note": 75, "velocity": 102, "channel": 0}, {"type": "note_off", "time": 80, "note": 75, "velocity": 102, "channel": 0}, {"type": "note_on", "time": 3, "note": 79, "velocity": 103, "channel": 0}, {"type": "note_off", "time": 80, "note": 79, "velocity": 103, "channel": 0}, {"type": "note_on", "time": 13, "note": 76, "velocity": 95, "channel": 0}, {"type": "note_off", "time": 25, "note": 76, "velocity": 95, "channel": 0}, {"type": "note_on", "time": 0, "note": 74, "velocity": 104, "channel": 0}, {"type": "note_off", "time": 108, "note": 74, "velocity": 104, "channel": 0}, {"type": "note_on", "time": 67, "note": 78, "velocity": 111, "channel": 0}, {"type": "note_off", "time": 88, "note": 78, "velocity": 111, "channel": 0}, {"type": "note_on", "time": 10, "note": 80, "velocity": 106, "channel": 0}, {"type": "note_off", "time": 80, "note": 80, "velocity": 106, "channel": 0}, {"type": "note_on", "time": 5, "note": 78, "velocity": 105, "channel": 0}, {"type": "note_off", "time": 126, "note": 78, "velocity": 105, "channel": 0}, {"type": "note_on", "time": 8, "note": 76, "velocity": 106, "channel": 0}, {"type": "note_off", "time": 57, "note": 76, "velocity": 106, "channel": 0}, {"type": "note_on", "time": 6, "note": 75, "velocity": 102, "channel": 0}, {"type": "note_off", "time": 102, "note": 75, "velocity": 102, "channel": 0}, {"type": "note_on", "time": 5, "note": 73, "velocity": 105, "channel": 0}, {"type": "note_off", "time": 71, "note": 73, "velocity": 105, "channel": 0}, {"type": "note_on", "time": 6, "note": 71, "velocity": 96, "channel": 0}, {"type": "note_off", "time": 96, "note": 71, "velocity": 96, "channel": 0}, {"type": "note_on", "time": 14, "note": 77, "velocity": 106, "channel": 0}, {"type": "note_off", "time": 98, "note": 77, "velocity": 106, "channel": 0}, {"type": "note_on", "time": 2, "note": 76, "velocity": 104, "channel": 0}, {"type": "note_off", "time": 61, "note": 76, "velocity": 104, "channel": 0}, {"type": "note_on", "time": 0, "note": 75, "velocity": 103, "channel": 0}, {"type": "note_on", "time": 79, "note": 74, "velocity": 106, "channel": 0}, {"type": "note_off", "time": 0, "note": 75, "velocity": 103, "channel": 0}, {"type": "note_off", "time": 134, "note": 74, "velocity": 106, "channel": 0}, {"type": "note_on", "time": 14, "note": 72, "velocity": 104, "channel": 0}, {"type": "note_off", "time": 72, "note": 72, "velocity": 104, "channel": 0}, {"type": "note_on", "time": 32, "note": 70, "velocity": 100, "channel": 0}, {"type": "note_off", "time": 99, "note": 70, "velocity": 100, "channel": 0}, {"type": "note_on", "time": 4, "note": 69, "velocity": 102, "channel": 0}, {"type": "note_off", "time": 79, "note": 69, "velocity": 102, "channel": 0}, {"type": "note_on", "time": 4, "note": 68, "velocity": 99, "channel": 0}, {"type": "note_off", "time": 83, "note": 68, "velocity": 99, "channel": 0}, {"type": "note_on", "time": 23, "note": 63, "velocity": 96, "channel": 0}, {"type": "note_off", "time": 51, "note": 63, "velocity": 96, "channel": 0}, {"type": "note_on", "time": 16, "note": 60, "velocity": 84, "channel": 0}, {"type": "note_off", "time": 91, "note": 60, "velocity": 84, "channel": 0}, {"type": "note_on", "time": 44, "note": 65, "velocity": 97, "channel": 0}, {"type": "note_off", "time": 47, "note": 65, "velocity": 97, "channel": 0}, {"type": "note_on", "time": 5, "note": 63, "velocity": 92, "channel": 0}, {"type": "note_off", "time": 302, "note": 63, "velocity": 92, "channel": 0}, {"type": "note_on", "time": 14, "note": 65, "velocity": 92, "channel": 0}, {"type": "note_off", "time": 55, "note": 65, "velocity": 92, "channel": 0}, {"type": "note_on", "time": 8, "note": 62, "velocity": 84, "channel": 0}, {"type": "note_off", "time": 54, "note": 62, "velocity": 84, "channel": 0}, {"type": "note_on", "time": 0, "note": 64, "velocity": 92, "channel": 0}, {"type": "note_off", "time": 505, "note": 64, "velocity": 92, "channel": 0}, {"type": "note_on", "time": 17, "note": 65, "velocity": 101, "channel": 0}, {"type": "note_off", "time": 106, "note": 65, "velocity": 101, "channel": 0}, {"type": "note_on", "time": 34, "note": 67, "velocity": 99, "channel": 0}, {"type": "note_off", "time": 53, "note": 67, "velocity": 99, "channel": 0}, {"type": "note_on", "time": 9, "note": 69, "velocity": 96, "channel": 0}, {"type": "note_off", "time": 96, "note": 69, "velocity": 96, "channel": 0}, {"type": "note_on", "time": 4, "note": 72, "velocity": 104, "channel": 0}, {"type": "note_off", "time": 78, "note": 72, "velocity": 104, "channel": 0}, {"type": "note_on", "time": 16, "note": 76, "velocity": 103, "channel": 0}, {"type": "note_off", "time": 95, "note": 76, "velocity": 103, "channel": 0}, {"type": "note_on", "time": 10, "note": 72, "velocity": 95, "channel": 0}, {"type": "note_off", "time": 78, "note": 72, "velocity": 95, "channel": 0}, {"type": "note_on", "time": 8, "note": 69, "velocity": 92, "channel": 0}, {"type": "note_off", "time": 72, "note": 69, "velocity": 92, "channel": 0}, {"type": "note_on", "time": 9, "note": 67, "velocity": 94, "channel": 0}, {"type": "note_off", "time": 72, "note": 67, "velocity": 94, "channel": 0}, {"type": "note_on", "time": 13, "note": 66, "velocity": 103, "channel": 0}, {"type": "note_off", "time": 98, "note": 66, "velocity": 103, "channel": 0}, {"type": "note_on", "time": 9, "note": 69, "velocity": 99, "channel": 0}, {"type": "note_off", "time": 82, "note": 69, "velocity": 99, "channel": 0}, {"type": "note_on", "time": 36, "note": 72, "velocity": 86, "channel": 0}, {"type": "note_off", "time": 47, "note": 72, "velocity": 86, "channel": 0}, {"type": "note_on", "time": 4, "note": 75, "velocity": 100, "channel": 0}, {"type": "note_off", "time": 113, "note": 75, "velocity": 100, "channel": 0}, {"type": "note_on", "time": 0, "note": 74, "velocity": 98, "channel": 0}, {"type": "note_off", "time": 80, "note": 74, "velocity": 98, "channel": 0}, {"type": "note_on", "time": 6, "note": 70, "velocity": 93, "channel": 0}, {"type": "note_off", "time": 30, "note": 70, "velocity": 93, "channel": 0}, {"type": "note_on", "time": 943, "note": 74, "velocity": 86, "channel": 0}, {"type": "note_off", "time": 17, "note": 74, "velocity": 86, "channel": 0}, {"type": "note_on", "time": 0, "note": 77, "velocity": 107, "channel": 0}, {"type": "note_off", "time": 68, "note": 77, "velocity": 107, "channel": 0}, {"type": "note_on", "time": 13, "note": 76, "velocity": 105, "channel": 0}, {"type": "note_off", "time": 98, "note": 76, "velocity": 105, "channel": 0}, {"type": "note_on", "time": 6, "note": 77, "velocity": 108, "channel": 0}, {"type": "note_off", "time": 67, "note": 77, "velocity": 108, "channel": 0}, {"type": "note_on", "time": 8, "note": 76, "velocity": 105, "channel": 0}, {"type": "note_off", "time": 138, "note": 76, "velocity": 105, "channel": 0}, {"type": "note_on", "time": 12, "note": 77, "velocity": 102, "channel": 0}, {"type": "note_off", "time": 137, "note": 77, "velocity": 102, "channel": 0}, {"type": "note_on", "time": 17, "note": 72, "velocity": 98, "channel": 0}, {"type": "note_off", "time": 69, "note": 72, "velocity": 98, "channel": 0}, {"type": "note_on", "time": 33, "note": 69, "velocity": 94, "channel": 0}, {"type": "note_off", "time": 76, "note": 69, "velocity": 94, "channel": 0}, {"type": "note_on", "time": 18, "note": 66, "velocity": 74, "channel": 0}, {"type": "note_off", "time": 59, "note": 66, "velocity": 74, "channel": 0}, {"type": "note_on", "time": 1, "note": 74, "velocity": 104, "channel": 0}, {"type": "note_off", "time": 186, "note": 74, "velocity": 104, "channel": 0}, {"type": "note_on", "time": 1260, "note": 79, "velocity": 102, "channel": 0}, {"type": "note_off", "time": 133, "note": 79, "velocity": 102, "channel": 0}, {"type": "note_on", "time": 47, "note": 83, "velocity": 102, "channel": 0}, {"type": "note_off", "time": 93, "note": 83, "velocity": 102, "channel": 0}, {"type": "note_on", "time": 105, "note": 79, "velocity": 101, "channel": 0}, {"type": "note_off", "time": 84, "note": 79, "velocity": 101, "channel": 0}, {"type": "note_on", "time": 748, "note": 79, "velocity": 103, "channel": 0}, {"type": "note_off", "time": 135, "note": 79, "velocity": 103, "channel": 0}, {"type": "note_on", "time": 47, "note": 83, "velocity": 104, "channel": 0}, {"type": "note_off", "time": 126, "note": 83, "velocity": 104, "channel": 0}, {"type": "note_on", "time": 72, "note": 79, "velocity": 106, "channel": 0}, {"type": "note_off", "time": 179, "note": 79, "velocity": 106, "channel": 0}, {"type": "note_on", "time": 889, "note": 77, "velocity": 103, "channel": 0}, {"type": "note_off", "time": 93, "note": 77, "velocity": 103, "channel": 0}, {"type": "note_on", "time": 22, "note": 80, "velocity": 102, "channel": 0}, {"type": "note_on", "time": 109, "note": 82, "velocity": 104, "channel": 0}, {"type": "note_off", "time": 0, "note": 80, "velocity": 102, "channel": 0}, {"type": "note_off", "time": 80, "note": 82, "velocity": 104, "channel": 0}, {"type": "note_on", "time": 3, "note": 80, "velocity": 102, "channel": 0}, {"type": "note_off", "time": 88, "note": 80, "velocity": 102, "channel": 0}, {"type": "note_on", "time": 19, "note": 77, "velocity": 104, "channel": 0}, {"type": "note_on", "time": 91, "note": 75, "velocity": 101, "channel": 0}, {"type": "note_off", "time": 0, "note": 77, "velocity": 104, "channel": 0}, {"type": "note_off", "time": 116, "note": 75, "velocity": 101, "channel": 0}, {"type": "note_on", "time": 15, "note": 70, "velocity": 82, "channel": 0}, {"type": "note_off", "time": 44, "note": 70, "velocity": 82, "channel": 0}, {"type": "note_on", "time": 1, "note": 77, "velocity": 104, "channel": 0}, {"type": "note_off", "time": 103, "note": 77, "velocity": 104, "channel": 0}, {"type": "note_on", "time": 9, "note": 75, "velocity": 98, "channel": 0}, {"type": "note_off", "time": 86, "note": 75, "velocity": 98, "channel": 0}, {"type": "note_on", "time": 13, "note": 73, "velocity": 104, "channel": 0}, {"type": "note_off", "time": 168, "note": 73, "velocity": 104, "channel": 0}, {"type": "note_on", "time": 1, "note": 70, "velocity": 99, "channel": 0}, {"type": "note_off", "time": 110, "note": 70, "velocity": 99, "channel": 0}, {"type": "note_on", "time": 13, "note": 66, "velocity": 85, "channel": 0}, {"type": "note_off", "time": 45, "note": 66, "velocity": 85, "channel": 0}, {"type": "note_on", "time": 14, "note": 68, "velocity": 102, "channel": 0}, {"type": "note_off", "time": 110, "note": 68, "velocity": 102, "channel": 0}, {"type": "note_on", "time": 14, "note": 71, "velocity": 103, "channel": 0}, {"type": "note_off", "time": 99, "note": 71, "velocity": 103, "channel": 0}, {"type": "note_on", "time": 1, "note": 73, "velocity": 104, "channel": 0}, {"type": "note_off", "time": 95, "note": 73, "velocity": 104, "channel": 0}, {"type": "note_on", "time": 6, "note": 76, "velocity": 105, "channel": 0}, {"type": "note_off", "time": 87, "note": 76, "velocity": 105, "channel": 0}, {"type": "note_on", "time": 1, "note": 75, "velocity": 102, "channel": 0}, {"type": "note_off", "time": 98, "note": 75, "velocity": 102, "channel": 0}, {"type": "note_on", "time": 18, "note": 71, "velocity": 90, "channel": 0}, {"type": "note_off", "time": 32, "note": 71, "velocity": 90, "channel": 0}, {"type": "note_on", "time": 8, "note": 73, "velocity": 105, "channel": 0}, {"type": "note_off", "time": 127, "note": 73, "velocity": 105, "channel": 0}, {"type": "note_on", "time": 17, "note": 72, "velocity": 104, "channel": 0}, {"type": "note_off", "time": 252, "note": 72, "velocity": 104, "channel": 0}, {"type": "note_on", "time": 7, "note": 71, "velocity": 105, "channel": 0}, {"type": "note_off", "time": 350, "note": 71, "velocity": 105, "channel": 0}, {"type": "note_on", "time": 1, "note": 75, "velocity": 105, "channel": 0}, {"type": "note_off", "time": 52, "note": 75, "velocity": 105, "channel": 0}, {"type": "note_on", "time": 5, "note": 75, "velocity": 100, "channel": 0}, {"type": "note_off", "time": 33, "note": 75, "velocity": 100, "channel": 0}, {"type": "note_on", "time": 0, "note": 70, "velocity": 96, "channel": 0}, {"type": "note_off", "time": 87, "note": 70, "velocity": 96, "channel": 0}, {"type": "note_on", "time": 5, "note": 69, "velocity": 99, "channel": 0}, {"type": "note_off", "time": 68, "note": 69, "velocity": 99, "channel": 0}, {"type": "note_on", "time": 5, "note": 68, "velocity": 100, "channel": 0}, {"type": "note_off", "time": 83, "note": 68, "velocity": 100, "channel": 0}, {"type": "note_on", "time": 1, "note": 70, "velocity": 104, "channel": 0}, {"type": "note_off", "time": 80, "note": 70, "velocity": 104, "channel": 0}, {"type": "note_on", "time": 18, "note": 71, "velocity": 89, "channel": 0}, {"type": "note_off", "time": 65, "note": 71, "velocity": 89, "channel": 0}, {"type": "note_on", "time": 16, "note": 68, "velocity": 95, "channel": 0}, {"type": "note_off", "time": 82, "note": 68, "velocity": 95, "channel": 0}, {"type": "note_on", "time": 6, "note": 69, "velocity": 104, "channel": 0}, {"type": "note_off", "time": 87, "note": 69, "velocity": 104, "channel": 0}, {"type": "note_on", "time": 36, "note": 60, "velocity": 88, "channel": 0}, {"type": "note_off", "time": 48, "note": 60, "velocity": 88, "channel": 0}, {"type": "note_on", "time": 13, "note": 65, "velocity": 95, "channel": 0}, {"type": "note_off", "time": 87, "note": 65, "velocity": 95, "channel": 0}, {"type": "note_on", "time": 6, "note": 69, "velocity": 105, "channel": 0}, {"type": "note_off", "time": 86, "note": 69, "velocity": 105, "channel": 0}, {"type": "note_on", "time": 0, "note": 70, "velocity": 103, "channel": 0}, {"type": "note_off", "time": 93, "note": 70, "velocity": 103, "channel": 0}, {"type": "note_on", "time": 22, "note": 69, "velocity": 92, "channel": 0}, {"type": "note_off", "time": 70, "note": 69, "velocity": 92, "channel": 0}, {"type": "note_on", "time": 7, "note": 70, "velocity": 103, "channel": 0}, {"type": "note_off", "time": 86, "note": 70, "velocity": 103, "channel": 0}, {"type": "note_on", "time": 12, "note": 69, "velocity": 102, "channel": 0}, {"type": "note_off", "time": 89, "note": 69, "velocity": 102, "channel": 0}, {"type": "note_on", "time": 10, "note": 70, "velocity": 102, "channel": 0}, {"type": "note_off", "time": 86, "note": 70, "velocity": 102, "channel": 0}, {"type": "note_on", "time": 11, "note": 69, "velocity": 99, "channel": 0}, {"type": "note_off", "time": 76, "note": 69, "velocity": 99, "channel": 0}, {"type": "note_on", "time": 10, "note": 70, "velocity": 99, "channel": 0}, {"type": "note_off", "time": 105, "note": 70, "velocity": 99, "channel": 0}, {"type": "note_on", "time": 18, "note": 69, "velocity": 101, "channel": 0}, {"type": "note_off", "time": 62, "note": 69, "velocity": 101, "channel": 0}, {"type": "note_on", "time": 4, "note": 70, "velocity": 104, "channel": 0}, {"type": "note_off", "time": 142, "note": 70, "velocity": 104, "channel": 0}, {"type": "note_on", "time": 20, "note": 67, "velocity": 99, "channel": 0}, {"type": "note_off", "time": 45, "note": 67, "velocity": 99, "channel": 0}, {"type": "note_on", "time": 5, "note": 69, "velocity": 105, "channel": 0}, {"type": "note_off", "time": 92, "note": 69, "velocity": 105, "channel": 0}, {"type": "note_on", "time": 0, "note": 67, "velocity": 104, "channel": 0}, {"type": "note_off", "time": 35, "note": 67, "velocity": 104, "channel": 0}, {"type": "note_on", "time": 1, "note": 65, "velocity": 94, "channel": 0}, {"type": "note_off", "time": 17, "note": 65, "velocity": 94, "channel": 0}, {"type": "note_on", "time": 0, "note": 64, "velocity": 96, "channel": 0}, {"type": "note_off", "time": 31, "note": 64, "velocity": 96, "channel": 0}, {"type": "note_on", "time": 9, "note": 62, "velocity": 98, "channel": 0}, {"type": "note_off", "time": 46, "note": 62, "velocity": 98, "channel": 0}, {"type": "note_on", "time": 2, "note": 63, "velocity": 87, "channel": 0}, {"type": "note_off", "time": 34, "note": 63, "velocity": 87, "channel": 0}, {"type": "note_on", "time": 4, "note": 61, "velocity": 90, "channel": 0}, {"type": "note_off", "time": 45, "note": 61, "velocity": 90, "channel": 0}, {"type": "note_on", "time": 19, "note": 62, "velocity": 104, "channel": 0}, {"type": "note_off", "time": 42, "note": 62, "velocity": 104, "channel": 0}, {"type": "note_on", "time": 7, "note": 64, "velocity": 95, "channel": 0}, {"type": "note_off", "time": 41, "note": 64, "velocity": 95, "channel": 0}, {"type": "note_on", "time": 6, "note": 68, "velocity": 100, "channel": 0}, {"type": "note_off", "time": 47, "note": 68, "velocity": 100, "channel": 0}, {"type": "note_on", "time": 3, "note": 70, "velocity": 98, "channel": 0}, {"type": "note_off", "time": 36, "note": 70, "velocity": 98, "channel": 0}, {"type": "note_on", "time": 2, "note": 72, "velocity": 106, "channel": 0}, {"type": "note_off", "time": 47, "note": 72, "velocity": 106, "channel": 0}, {"type": "note_on", "time": 0, "note": 74, "velocity": 109, "channel": 0}, {"type": "note_on", "time": 44, "note": 75, "velocity": 105, "channel": 0}, {"type": "note_off", "time": 0, "note": 74, "velocity": 109, "channel": 0}, {"type": "note_off", "time": 44, "note": 75, "velocity": 105, "channel": 0}, {"type": "note_on", "time": 0, "note": 77, "velocity": 104, "channel": 0}, {"type": "note_off", "time": 50, "note": 77, "velocity": 104, "channel": 0}, {"type": "note_on", "time": 0, "note": 79, "velocity": 98, "channel": 0}, {"type": "note_off", "time": 18, "note": 79, "velocity": 98, "channel": 0}, {"type": "note_on", "time": 0, "note": 81, "velocity": 107, "channel": 0}, {"type": "note_off", "time": 33, "note": 81, "velocity": 107, "channel": 0}, {"type": "note_on", "time": 6, "note": 82, "velocity": 93, "channel": 0}, {"type": "note_off", "time": 89, "note": 82, "velocity": 93, "channel": 0}, {"type": "note_on", "time": 894, "note": 75, "velocity": 84, "channel": 0}, {"type": "note_off", "time": 19, "note": 75, "velocity": 84, "channel": 0}, {"type": "note_on", "time": 3, "note": 77, "velocity": 106, "channel": 0}, {"type": "note_off", "time": 197, "note": 77, "velocity": 106, "channel": 0}, {"type": "note_on", "time": 3, "note": 76, "velocity": 104, "channel": 0}, {"type": "note_off", "time": 44, "note": 76, "velocity": 104, "channel": 0}, {"type": "note_on", "time": 0, "note": 75, "velocity": 102, "channel": 0}, {"type": "note_off", "time": 29, "note": 75, "velocity": 102, "channel": 0}, {"type": "note_on", "time": 5, "note": 74, "velocity": 107, "channel": 0}, {"type": "note_off", "time": 111, "note": 74, "velocity": 107, "channel": 0}, {"type": "note_on", "time": 0, "note": 77, "velocity": 105, "channel": 0}, {"type": "note_off", "time": 43, "note": 77, "velocity": 105, "channel": 0}, {"type": "note_on", "time": 4, "note": 76, "velocity": 99, "channel": 0}, {"type": "note_off", "time": 28, "note": 76, "velocity": 99, "channel": 0}, {"type": "note_on", "time": 3, "note": 75, "velocity": 103, "channel": 0}, {"type": "note_off", "time": 24, "note": 75, "velocity": 103, "channel": 0}, {"type": "note_on", "time": 10, "note": 74, "velocity": 100, "channel": 0}, {"type": "note_off", "time": 80, "note": 74, "velocity": 100, "channel": 0}, {"type": "note_on", "time": 2, "note": 77, "velocity": 100, "channel": 0}, {"type": "note_off", "time": 39, "note": 77, "velocity": 100, "channel": 0}, {"type": "note_on", "time": 0, "note": 76, "velocity": 103, "channel": 0}, {"type": "note_off", "time": 29, "note": 76, "velocity": 103, "channel": 0}, {"type": "note_on", "time": 8, "note": 75, "velocity": 105, "channel": 0}, {"type": "note_off", "time": 28, "note": 75, "velocity": 105, "channel": 0}, {"type": "note_on", "time": 9, "note": 74, "velocity": 100, "channel": 0}, {"type": "note_off", "time": 53, "note": 74, "velocity": 100, "channel": 0}, {"type": "note_on", "time": 18, "note": 77, "velocity": 102, "channel": 0}, {"type": "note_off", "time": 71, "note": 77, "velocity": 102, "channel": 0}, {"type": "note_on", "time": 0, "note": 75, "velocity": 101, "channel": 0}, {"type": "note_off", "time": 45, "note": 75, "velocity": 101, "channel": 0}, {"type": "note_on", "time": 0, "note": 74, "velocity": 106, "channel": 0}, {"type": "note_off", "time": 57, "note": 74, "velocity": 106, "channel": 0}, {"type": "note_on", "time": 0, "note": 72, "velocity": 104, "channel": 0}, {"type": "note_off", "time": 277, "note": 72, "velocity": 104, "channel": 0}, {"type": "note_on", "time": 44, "note": 74, "velocity": 17, "channel": 0}, {"type": "note_off", "time": 37, "note": 74, "velocity": 17, "channel": 0}, {"type": "note_on", "time": 0, "note": 71, "velocity": 101, "channel": 0}, {"type": "note_off", "time": 84, "note": 71, "velocity": 101, "channel": 0}, {"type": "note_on", "time": 746, "note": 76, "velocity": 101, "channel": 0}, {"type": "note_off", "time": 30, "note": 76, "velocity": 101, "channel": 0}, {"type": "note_on", "time": 0, "note": 77, "velocity": 110, "channel": 0}, {"type": "note_off", "time": 55, "note": 77, "velocity": 110, "channel": 0}, {"type": "note_on", "time": 9, "note": 78, "velocity": 112, "channel": 0}, {"type": "note_off", "time": 92, "note": 78, "velocity": 112, "channel": 0}, {"type": "note_on", "time": 22, "note": 80, "velocity": 106, "channel": 0}, {"type": "note_off", "time": 70, "note": 80, "velocity": 106, "channel": 0}, {"type": "note_on", "time": 4, "note": 78, "velocity": 109, "channel": 0}, {"type": "note_off", "time": 78, "note": 78, "velocity": 109, "channel": 0}, {"type": "note_on", "time": 1, "note": 76, "velocity": 103, "channel": 0}, {"type": "note_off", "time": 37, "note": 76, "velocity": 103, "channel": 0}, {"type": "note_on", "time": 0, "note": 78, "velocity": 106, "channel": 0}, {"type": "note_off", "time": 23, "note": 78, "velocity": 106, "channel": 0}, {"type": "note_on", "time": 0, "note": 76, "velocity": 108, "channel": 0}, {"type": "note_off", "time": 38, "note": 76, "velocity": 108, "channel": 0}, {"type": "note_on", "time": 3, "note": 75, "velocity": 105, "channel": 0}, {"type": "note_off", "time": 84, "note": 75, "velocity": 105, "channel": 0}, {"type": "note_on", "time": 9, "note": 73, "velocity": 109, "channel": 0}, {"type": "note_off", "time": 89, "note": 73, "velocity": 109, "channel": 0}, {"type": "note_on", "time": 6, "note": 71, "velocity": 101, "channel": 0}, {"type": "note_off", "time": 73, "note": 71, "velocity": 101, "channel": 0}, {"type": "note_on", "time": 50, "note": 77, "velocity": 103, "channel": 0}, {"type": "note_off", "time": 56, "note": 77, "velocity": 103, "channel": 0}, {"type": "note_on", "time": 100, "note": 74, "velocity": 85, "channel": 0}, {"type": "note_off", "time": 60, "note": 74, "velocity": 85, "channel": 0}, {"type": "note_on", "time": 142, "note": 70, "velocity": 104, "channel": 0}, {"type": "note_off", "time": 81, "note": 70, "velocity": 104, "channel": 0}, {"type": "note_on", "time": 5, "note": 72, "velocity": 110, "channel": 0}, {"type": "note_off", "time": 100, "note": 72, "velocity": 110, "channel": 0}, {"type": "note_on", "time": 5, "note": 75, "velocity": 106, "channel": 0}, {"type": "note_off", "time": 98, "note": 75, "velocity": 106, "channel": 0}, {"type": "note_on", "time": 0, "note": 74, "velocity": 107, "channel": 0}, {"type": "note_off", "time": 80, "note": 74, "velocity": 107, "channel": 0}, {"type": "note_on", "time": 23, "note": 70, "velocity": 103, "channel": 0}, {"type": "note_off", "time": 88, "note": 70, "velocity": 103, "channel": 0}, {"type": "note_on", "time": 4, "note": 73, "velocity": 110, "channel": 0}, {"type": "note_off", "time": 94, "note": 73, "velocity": 110, "channel": 0}, {"type": "note_on", "time": 4, "note": 70, "velocity": 103, "channel": 0}, {"type": "note_off", "time": 68, "note": 70, "velocity": 103, "channel": 0}, {"type": "note_on", "time": 33, "note": 66, "velocity": 99, "channel": 0}, {"type": "note_off", "time": 88, "note": 66, "velocity": 99, "channel": 0}, {"type": "note_on", "time": 25, "note": 71, "velocity": 105, "channel": 0}, {"type": "note_off", "time": 71, "note": 71, "velocity": 105, "channel": 0}, {"type": "note_on", "time": 9, "note": 73, "velocity": 108, "channel": 0}, {"type": "note_off", "time": 96, "note": 73, "velocity": 108, "channel": 0}, {"type": "note_on", "time": 4, "note": 76, "velocity": 106, "channel": 0}, {"type": "note_off", "time": 154, "note": 76, "velocity": 106, "channel": 0}, {"type": "note_on", "time": 31, "note": 78, "velocity": 110, "channel": 0}, {"type": "note_off", "time": 126, "note": 78, "velocity": 110, "channel": 0}, {"type": "note_on", "time": 688, "note": 76, "velocity": 109, "channel": 0}, {"type": "note_off", "time": 119, "note": 76, "velocity": 109, "channel": 0}, {"type": "note_on", "time": 1, "note": 78, "velocity": 102, "channel": 0}, {"type": "note_off", "time": 98, "note": 78, "velocity": 102, "channel": 0}, {"type": "note_on", "time": 357, "note": 76, "velocity": 106, "channel": 0}, {"type": "note_off", "time": 120, "note": 76, "velocity": 106, "channel": 0}, {"type": "note_on", "time": 2, "note": 78, "velocity": 100, "channel": 0}, {"type": "note_off", "time": 119, "note": 78, "velocity": 100, "channel": 0}, {"type": "note_on", "time": 330, "note": 71, "velocity": 98, "channel": 0}, {"type": "note_off", "time": 44, "note": 71, "velocity": 98, "channel": 0}, {"type": "note_on", "time": 0, "note": 76, "velocity": 107, "channel": 0}, {"type": "note_off", "time": 103, "note": 76, "velocity": 107, "channel": 0}, {"type": "note_on", "time": 9, "note": 79, "velocity": 106, "channel": 0}, {"type": "note_off", "time": 45, "note": 79, "velocity": 106, "channel": 0}, {"type": "note_on", "time": 130, "note": 77, "velocity": 103, "channel": 0}, {"type": "note_off", "time": 154, "note": 77, "velocity": 103, "channel": 0}, {"type": "note_on", "time": 199, "note": 73, "velocity": 101, "channel": 0}, {"type": "note_off", "time": 70, "note": 73, "velocity": 101, "channel": 0}, {"type": "note_on", "time": 0, "note": 70, "velocity": 92, "channel": 0}, {"type": "note_off", "time": 11, "note": 70, "velocity": 92, "channel": 0}, {"type": "note_on", "time": 0, "note": 69, "velocity": 101, "channel": 0}, {"type": "note_off", "time": 22, "note": 69, "velocity": 101, "channel": 0}, {"type": "note_on", "time": 3, "note": 67, "velocity": 101, "channel": 0}, {"type": "note_off", "time": 74, "note": 67, "velocity": 101, "channel": 0}, {"type": "note_on", "time": 12, "note": 70, "velocity": 100, "channel": 0}, {"type": "note_off", "time": 92, "note": 70, "velocity": 100, "channel": 0}, {"type": "note_on", "time": 17, "note": 74, "velocity": 100, "channel": 0}, {"type": "note_off", "time": 87, "note": 74, "velocity": 100, "channel": 0}, {"type": "note_on", "time": 21, "note": 77, "velocity": 106, "channel": 0}, {"type": "note_off", "time": 69, "note": 77, "velocity": 106, "channel": 0}, {"type": "note_on", "time": 23, "note": 76, "velocity": 108, "channel": 0}, {"type": "note_off", "time": 169, "note": 76, "velocity": 108, "channel": 0}, {"type": "note_on", "time": 20, "note": 72, "velocity": 103, "channel": 0}, {"type": "note_off", "time": 72, "note": 72, "velocity": 103, "channel": 0}, {"type": "note_on", "time": 13, "note": 76, "velocity": 106, "channel": 0}, {"type": "note_off", "time": 98, "note": 76, "velocity": 106, "channel": 0}, {"type": "note_on", "time": 4, "note": 74, "velocity": 103, "channel": 0}, {"type": "note_off", "time": 135, "note": 74, "velocity": 103, "channel": 0}, {"type": "note_on", "time": 45, "note": 70, "velocity": 103, "channel": 0}, {"type": "note_off", "time": 112, "note": 70, "velocity": 103, "channel": 0}, {"type": "note_on", "time": 13, "note": 67, "velocity": 86, "channel": 0}, {"type": "note_off", "time": 30, "note": 67, "velocity": 86, "channel": 0}, {"type": "note_on", "time": 19, "note": 72, "velocity": 106, "channel": 0}, {"type": "note_off", "time": 141, "note": 72, "velocity": 106, "channel": 0}, {"type": "note_on", "time": 71, "note": 69, "velocity": 103, "channel": 0}, {"type": "note_off", "time": 127, "note": 69, "velocity": 103, "channel": 0}, {"type": "note_on", "time": 68, "note": 70, "velocity": 105, "channel": 0}, {"type": "note_off", "time": 100, "note": 70, "velocity": 105, "channel": 0}, {"type": "note_on", "time": 0, "note": 69, "velocity": 100, "channel": 0}, {"type": "note_off", "time": 79, "note": 69, "velocity": 100, "channel": 0}, {"type": "note_on", "time": 43, "note": 65, "velocity": 99, "channel": 0}, {"type": "note_off", "time": 95, "note": 65, "velocity": 99, "channel": 0}, {"type": "note_on", "time": 34, "note": 63, "velocity": 92, "channel": 0}, {"type": "note_off", "time": 793, "note": 63, "velocity": 92, "channel": 0}, {"type": "end_of_track", "time": 0}]]}