{"ticks_per_beat": 192, "tracks": [[{"type": "track_name", "name": "Melody", "time": 0}, {"type": "set_tempo", "tempo": 348837, "time": 0}, {"type": "time_signature", "numerator": 3, "denominator": 4, "clocks_per_click": 24, "notated_32nd_notes_per_beat": 8, "time": 0}, {"type": "note_on", "time": 3622, "note": 74, "velocity": 117, "channel": 0}, {"type": "note_off", "time": 199, "note": 74, "velocity": 117, "channel": 0}, {"type": "note_on", "time": 40, "note": 67, "velocity": 107, "channel": 0}, {"type": "note_off", "time": 130, "note": 67, "velocity": 107, "channel": 0}, {"type": "note_on", "time": 13, "note": 69, "velocity": 110, "channel": 0}, {"type": "note_off", "time": 817, "note": 69, "velocity": 110, "channel": 0}, {"type": "note_on", "time": 44, "note": 67, "velocity": 107, "channel": 0}, {"type": "note_off", "time": 38, "note": 67, "velocity": 107, "channel": 0}, {"type": "note_on", "time": 14, "note": 69, "velocity": 111, "channel": 0}, {"type": "note_off", "time": 59, "note": 69, "velocity": 111, "channel": 0}, {"type": "note_on", "time": 25, "note": 72, "velocity": 119, "channel": 0}, {"type": "note_off", "time": 60, "note": 72, "velocity": 119, "channel": 0}, {"type": "note_on", "time": 11, "note": 74, "velocity": 119, "channel": 0}, {"type": "note_off", "time": 78, "note": 74, "velocity": 119, "channel": 0}, {"type": "note_on", "time": 30, "note": 67, "velocity": 109, "channel": 0}, {"type": "note_off", "time": 91, "note": 67, "velocity": 109, "channel": 0}, {"type": "note_on", "time": 23, "note": 69, "velocity": 107, "channel": 0}, {"type": "note_off", "time": 252, "note": 69, "velocity": 107, "channel": 0}, {"type": "note_on", "time": 706, "note": 69, "velocity": 110, "channel": 0}, {"type": "note_off", "time": 47, "note": 69, "velocity": 110, "channel": 0}, {"type": "note_on", "time": 30, "note": 74, "velocity": 121, "channel": 0}, {"type": "note_off", "time": 68, "note": 74, "velocity": 121, "channel": 0}, {"type": "note_on", "time": 23, "note": 76, "velocity": 125, "channel": 0}, {"type": "note_off", "time": 78, "note": 76, "velocity": 125, "channel": 0}, {"type": "note_on", "time": 12, "note": 77, "velocity": 123, "channel": 0}, {"type": "note_off", "time": 145, "note": 77, "velocity": 123, "channel": 0}, {"type": "note_on", "time": 33, "note": 75, "velocity": 123, "channel": 0}, {"type": "note_off", "time": 65, "note": 75, "velocity": 123, "channel": 0}, {"type": "note_on", "time": 12, "note": 77, "velocity": 127, "channel": 0}, {"type": "note_off", "time": 94, "note": 77, "velocity": 127, "channel": 0}, {"type": "note_on", "time": 15, "note": 79, "velocity": 124, "channel": 0}, {"type": "note_off", "time": 81, "note": 79, "velocity": 124, "channel": 0}, {"type": "note_on", "time": 28, "note": 75, "velocity": 121, "channel": 0}, {"type": "note_off", "time": 91, "note": 75, "velocity": 121, "channel": 0}, {"type": "note_on", "time": 31, "note": 70, "velocity": 107, "channel": 0}, {"type": "note_off", "time": 186, "note": 70, "velocity": 107, "channel": 0}, {"type": "note_on", "time": 43, "note": 67, "velocity": 105, "channel": 0}, {"type": "note_off", "time": 54, "note": 67, "velocity": 105, "channel": 0}, {"type": "note_on", "time": 12, "note": 69, "velocity": 106, "channel": 0}, {"type": "note_off", "time": 94, "note": 69, "velocity": 106, "channel": 0}, {"type": "note_on", "time": 41, "note": 62, "velocity": 97, "channel": 0}, {"type": "note_off", "time": 110, "note": 62, "velocity": 97, "channel": 0}, {"type": "note_on", "time": 12, "note": 64, "velocity": 100, "channel": 0}, {"type": "note_off", "time": 167, "note": 64, "velocity": 100, "channel": 0}, {"type": "note_on", "time": 30, "note": 61, "velocity": 103, "channel": 0}, {"type": "note_off", "time": 41, "note": 61, "velocity": 103, "channel": 0}, {"type": "note_on", "time": 9, "note": 64, "velocity": 99, "channel": 0}, {"type": "note_off", "time": 43, "note": 64, "velocity": 99, "channel": 0}, {"type": "note_on", "time": 36, "note": 58, "velocity": 99, "channel": 0}, {"type": "note_off", "time": 103, "note": 58, "velocity": 99, "channel": 0}, {"type": "note_on", "time": 30, "note": 57, "velocity": 102, "channel": 0}, {"type": "note_off", "time": 198, "note": 57, "velocity": 102, "channel": 0}, {"type": "note_on", "time": 369, "note": 65, "velocity": 101, "channel": 0}, {"type": "note_off", "time": 31, "note": 65, "velocity": 101, "channel": 0}, {"type": "note_on", "time": 17, "note": 70, "velocity": 105, "channel": 0}, {"type": "note_off", "time": 55, "note": 70, "velocity": 105, "channel": 0}, {"type": "note_on", "time": 31, "note": 75, "velocity": 117, "channel": 0}, {"type": "note_off", "time": 70, "note": 75, "velocity": 117, "channel": 0}, {"type": "note_on", "time": 6, "note": 77, "velocity": 111, "channel": 0}, {"type": "note_off", "time": 230, "note": 77, "velocity": 111, "channel": 0}, {"type": "note_on", "time": 25, "note": 72, "velocity": 106, "channel": 0}, {"type": "note_off", "time": 351, "note": 72, "velocity": 106, "channel": 0}, {"type": "note_on", "time": 19, "note": 70, "velocity": 102, "channel": 0}, {"type": "note_off", "time": 30, "note": 70, "velocity": 102, "channel": 0}, {"type": "note_on", "time": 822, "note": 75, "velocity": 110, "channel": 0}, {"type": "note_off", "time": 51, "note": 75, "velocity": 110, "channel": 0}, {"type": "note_on", "time": 15, "note": 77, "velocity": 112, "channel": 0}, {"type": "note_off", "time": 59, "note": 77, "velocity": 112, "channel": 0}, {"type": "note_on", "time": 41, "note": 82, "velocity": 111, "channel": 0}, {"type": "note_off", "time": 55, "note": 82, "velocity": 111, "channel": 0}, {"type": "note_on", "time": 506, "note": 80, "velocity": 111, "channel": 0}, {"type": "note_off", "time": 62, "note": 80, "velocity": 111, "channel": 0}, {"type": "note_on", "time": 7, "note": 77, "velocity": 110, "channel": 0}, {"type": "note_off", "time": 111, "note": 77, "velocity": 110, "channel": 0}, {"type": "note_on", "time": 14, "note": 75, "velocity": 113, "channel": 0}, {"type": "note_off", "time": 55, "note": 75, "velocity": 113, "channel": 0}, {"type": "note_on", "time": 15, "note": 77, "velocity": 110, "channel": 0}, {"type": "note_off", "time": 97, "note": 77, "velocity": 110, "channel": 0}, {"type": "note_on", "time": 14, "note": 72, "velocity": 109, "channel": 0}, {"type": "note_off", "time": 276, "note": 72, "velocity": 109, "channel": 0}, {"type": "note_on", "time": 11, "note": 69, "velocity": 90, "channel": 0}, {"type": "note_off", "time": 31, "note": 69, "velocity": 90, "channel": 0}, {"type": "note_on", "time": 6, "note": 73, "velocity": 110, "channel": 0}, {"type": "note_off", "time": 39, "note": 73, "velocity": 110, "channel": 0}, {"type": "note_on", "time": 15, "note": 76, "velocity": 100, "channel": 0}, {"type": "note_off", "time": 28, "note": 76, "velocity": 100, "channel": 0}, {"type": "note_on", "time": 7, "note": 75, "velocity": 116, "channel": 0}, {"type": "note_off", "time": 43, "note": 75, "velocity": 116, "channel": 0}, {"type": "note_on", "time": 15, "note": 73, "velocity": 112, "channel": 0}, {"type": "note_off", "time": 47, "note": 73, "velocity": 112, "channel": 0}, {"type": "note_on", "time": 11, "note": 71, "velocity": 101, "channel": 0}, {"type": "note_off", "time": 43, "note": 71, "velocity": 101, "channel": 0}, {"type": "note_on", "time": 11, "note": 73, "velocity": 108, "channel": 0}, {"type": "note_off", "time": 43, "note": 73, "velocity": 108, "channel": 0}, {"type": "note_on", "time": 13, "note": 71, "velocity": 103, "channel": 0}, {"type": "note_off", "time": 35, "note": 71, "velocity": 103, "channel": 0}, {"type": "note_on", "time": 25, "note": 69, "velocity": 106, "channel": 0}, {"type": "note_off", "time": 43, "note": 69, "velocity": 106, "channel": 0}, {"type": "note_on", "time": 12, "note": 66, "velocity": 96, "channel": 0}, {"type": "note_off", "time": 31, "note": 66, "velocity": 96, "channel": 0}, {"type": "note_on", "time": 23, "note": 71, "velocity": 106, "channel": 0}, {"type": "note_off", "time": 51, "note": 71, "velocity": 106, "channel": 0}, {"type": "note_on", "time": 17, "note": 68, "velocity": 100, "channel": 0}, {"type": "note_off", "time": 41, "note": 68, "velocity": 100, "channel": 0}, {"type": "note_on", "time": 11, "note": 64, "velocity": 94, "channel": 0}, {"type": "note_off", "time": 30, "note": 64, "velocity": 94, "channel": 0}, {"type": "note_on", "time": 14, "note": 69, "velocity": 108, "channel": 0}, {"type": "note_off", "time": 50, "note": 69, "velocity": 108, "channel": 0}, {"type": "note_on", "time": 15, "note": 68, "velocity": 107, "channel": 0}, {"type": "note_off", "time": 64, "note": 68, "velocity": 107, "channel": 0}, {"type": "note_on", "time": 17, "note": 64, "velocity": 98, "channel": 0}, {"type": "note_off", "time": 142, "note": 64, "velocity": 98, "channel": 0}, {"type": "note_on", "time": 15, "note": 59, "velocity": 97, "channel": 0}, {"type": "note_off", "time": 39, "note": 59, "velocity": 97, "channel": 0}, {"type": "note_on", "time": 0, "note": 60, "velocity": 94, "channel": 0}, {"type": "note_off", "time": 44, "note": 60, "velocity": 94, "channel": 0}, {"type": "note_on", "time": 7, "note": 61, "velocity": 98, "channel": 0}, {"type": "note_off", "time": 37, "note": 61, "velocity": 98, "channel": 0}, {"type": "note_on", "time": 12, "note": 63, "velocity": 95, "channel": 0}, {"type": "note_off", "time": 30, "note": 63, "velocity": 95, "channel": 0}, {"type": "note_on", "time": 4, "note": 66, "velocity": 103, "channel": 0}, {"type": "note_off", "time": 28, "note": 66, "velocity": 103, "channel": 0}, {"type": "note_on", "time": 7, "note": 67, "velocity": 106, "channel": 0}, {"type": "note_off", "time": 34, "note": 67, "velocity": 106, "channel": 0}, {"type": "note_on", "time": 6, "note": 69, "velocity": 105, "channel": 0}, {"type": "note_off", "time": 35, "note": 69, "velocity": 105, "channel": 0}, {"type": "note_on", "time": 10, "note": 71, "velocity": 105, "channel": 0}, {"type": "note_off", "time": 25, "note": 71, "velocity": 105, "channel": 0}, {"type": "note_on", "time": 6, "note": 73, "velocity": 113, "channel": 0}, {"type": "note_off", "time": 32, "note": 73, "velocity": 113, "channel": 0}, {"type": "note_on", "time": 14, "note": 74, "velocity": 112, "channel": 0}, {"type": "note_off", "time": 316, "note": 74, "velocity": 112, "channel": 0}, {"type": "note_on", "time": 17, "note": 72, "velocity": 108, "channel": 0}, {"type": "note_off", "time": 44, "note": 72, "velocity": 108, "channel": 0}, {"type": "note_on", "time": 38, "note": 67, "velocity": 103, "channel": 0}, {"type": "note_off", "time": 48, "note": 67, "velocity": 103, "channel": 0}, {"type": "note_on", "time": 13, "note": 69, "velocity": 82, "channel": 0}, {"type": "note_off", "time": 449, "note": 69, "velocity": 82, "channel": 0}, {"type": "note_on", "time": 665, "note": 76, "velocity": 116, "channel": 0}, {"type": "note_off", "time": 63, "note": 76, "velocity": 116, "channel": 0}, {"type": "note_on", "time": 0, "note": 77, "velocity": 108, "channel": 0}, {"type": "note_off", "time": 64, "note": 77, "velocity": 108, "channel": 0}, {"type": "note_on", "time": 54, "note": 79, "velocity": 115, "channel": 0}, {"type": "note_off", "time": 65, "note": 79, "velocity": 115, "channel": 0}, {"type": "note_on", "time": 10, "note": 81, "velocity": 114, "channel": 0}, {"type": "note_off", "time": 74, "note": 81, "velocity": 114, "channel": 0}, {"type": "note_on", "time": 56, "note": 79, "velocity": 110, "channel": 0}, {"type": "note_off", "time": 73, "note": 79, "velocity": 110, "channel": 0}, {"type": "note_on", "time": 16, "note": 77, "velocity": 112, "channel": 0}, {"type": "note_off", "time": 97, "note": 77, "velocity": 112, "channel": 0}, {"type": "note_on", "time": 5, "note": 76, "velocity": 112, "channel": 0}, {"type": "note_off", "time": 68, "note": 76, "velocity": 112, "channel": 0}, {"type": "note_on", "time": 3, "note": 77, "velocity": 108, "channel": 0}, {"type": "note_off", "time": 61, "note": 77, "velocity": 108, "channel": 0}, {"type": "note_on", "time": 61, "note": 74, "velocity": 115, "channel": 0}, {"type": "note_off", "time": 128, "note": 74, "velocity": 115, "channel": 0}, {"type": "note_on", "time": 13, "note": 72, "velocity": 107, "channel": 0}, {"type": "note_off", "time": 27, "note": 72, "velocity": 107, "channel": 0}, {"type": "note_on", "time": 0, "note": 74, "velocity": 106, "channel": 0}, {"type": "note_off", "time": 41, "note": 74, "velocity": 106, "channel": 0}, {"type": "note_on", "time": 21, "note": 79, "velocity": 108, "channel": 0}, {"type": "note_off", "time": 38, "note": 79, "velocity": 108, "channel": 0}, {"type": "note_on", "time": 4, "note": 76, "velocity": 103, "channel": 0}, {"type": "note_off", "time": 26, "note": 76, "velocity": 103, "channel": 0}, {"type": "note_on", "time": 12, "note": 74, "velocity": 114, "channel": 0}, {"type": "note_off", "time": 53, "note": 74, "velocity": 114, "channel": 0}, {"type": "note_on", "time": 6, "note": 72, "velocity": 104, "channel": 0}, {"type": "note_off", "time": 24, "note": 72, "velocity": 104, "channel": 0}, {"type": "note_on", "time": 11, "note": 77, "velocity": 110, "channel": 0}, {"type": "note_off", "time": 30, "note": 77, "velocity": 110, "channel": 0}, {"type": "note_on", "time": 6, "note": 76, "velocity": 112, "channel": 0}, {"type": "note_off", "time": 37, "note": 76, "velocity": 112, "channel": 0}, {"type": "note_on", "time": 17, "note": 72, "velocity": 104, "channel": 0}, {"type": "note_off", "time": 30, "note": 72, "velocity": 104, "channel": 0}, {"type": "note_on", "time": 6, "note": 74, "velocity": 99, "channel": 0}, {"type": "note_off", "time": 31, "note": 74, "velocity": 99, "channel": 0}, {"type": "note_on", "time": 11, "note": 70, "velocity": 106, "channel": 0}, {"type": "note_off", "time": 24, "note": 70, "velocity": 106, "channel": 0}, {"type": "note_on", "time": 0, "note": 69, "velocity": 100, "channel": 0}, {"type": "note_off", "time": 20, "note": 69, "velocity": 100, "channel": 0}, {"type": "note_on", "time": 0, "note": 67, "velocity": 100, "channel": 0}, {"type": "note_off", "time": 37, "note": 67, "velocity": 100, "channel": 0}, {"type": "note_on", "time": 22, "note": 72, "velocity": 111, "channel": 0}, {"type": "note_off", "time": 32, "note": 72, "velocity": 111, "channel": 0}, {"type": "note_on", "time": 8, "note": 71, "velocity": 103, "channel": 0}, {"type": "note_off", "time": 34, "note": 71, "velocity": 103, "channel": 0}, {"type": "note_on", "time": 18, "note": 65, "velocity": 96, "channel": 0}, {"type": "note_off", "time": 41, "note": 65, "velocity": 96, "channel": 0}, {"type": "note_on", "time": 6, "note": 70, "velocity": 110, "channel": 0}, {"type": "note_off", "time": 197, "note": 70, "velocity": 110, "channel": 0}, {"type": "note_on", "time": 7, "note": 72, "velocity": 109, "channel": 0}, {"type": "note_off", "time": 50, "note": 72, "velocity": 109, "channel": 0}, {"type": "note_on", "time": 7, "note": 73, "velocity": 109, "channel": 0}, {"type": "note_off", "time": 50, "note": 73, "velocity": 109, "channel": 0}, {"type": "note_on", "time": 17, "note": 75, "velocity": 112, "channel": 0}, {"type": "note_off", "time": 83, "note": 75, "velocity": 112, "channel": 0}, {"type": "note_on", "time": 7, "note": 72, "velocity": 110, "channel": 0}, {"type": "note_off", "time": 87, "note": 72, "velocity": 110, "channel": 0}, {"type": "note_on", "time": 11, "note": 70, "velocity": 110, "channel": 0}, {"type": "note_off", "time": 95, "note": 70, "velocity": 110, "channel": 0}, {"type": "note_on", "time": 28, "note": 63, "velocity": 95, "channel": 0}, {"type": "note_off", "time": 29, "note": 63, "velocity": 95, "channel": 0}, {"type": "note_on", "time": 20, "note": 69, "velocity": 104, "channel": 0}, {"type": "note_off", "time": 108, "note": 69, "velocity": 104, "channel": 0}, {"type": "note_on", "time": 21, "note": 62, "velocity": 97, "channel": 0}, {"type": "note_off", "time": 69, "note": 62, "velocity": 97, "channel": 0}, {"type": "note_on", "time": 8, "note": 64, "velocity": 100, "channel": 0}, {"type": "note_off", "time": 125, "note": 64, "velocity": 100, "channel": 0}, {"type": "note_on", "time": 45, "note": 59, "velocity": 94, "channel": 0}, {"type": "note_off", "time": 34, "note": 59, "velocity": 94, "channel": 0}, {"type": "note_on", "time": 25, "note": 61, "velocity": 101, "channel": 0}, {"type": "note_off", "time": 28, "note": 61, "velocity": 101, "channel": 0}, {"type": "note_on", "time": 8, "note": 62, "velocity": 98, "channel": 0}, {"type": "note_off", "time": 23, "note": 62, "velocity": 98, "channel": 0}, {"type": "note_on", "time": 10, "note": 64, "velocity": 97, "channel": 0}, {"type": "note_off", "time": 31, "note": 64, "velocity": 97, "channel": 0}, {"type": "note_on", "time": 4, "note": 66, "velocity": 95, "channel": 0}, {"type": "note_off", "time": 39, "note": 66, "velocity": 95, "channel": 0}, {"type": "note_on", "time": 12, "note": 67, "velocity": 106, "channel": 0}, {"type": "note_off", "time": 32, "note": 67, "velocity": 106, "channel": 0}, {"type": "note_on", "time": 6, "note": 69, "velocity": 108, "channel": 0}, {"type": "note_off", "time": 31, "note": 69, "velocity": 108, "channel": 0}, {"type": "note_on", "time": 10, "note": 71, "velocity": 102, "channel": 0}, {"type": "note_off", "time": 32, "note": 71, "velocity": 102, "channel": 0}, {"type": "note_on", "time": 6, "note": 73, "velocity": 109, "channel": 0}, {"type": "note_off", "time": 65, "note": 73, "velocity": 109, "channel": 0}, {"type": "note_on", "time": 686, "note": 75, "velocity": 117, "channel": 0}, {"type": "note_off", "time": 48, "note": 75, "velocity": 117, "channel": 0}, {"type": "note_on", "time": 19, "note": 79, "velocity": 111, "channel": 0}, {"type": "note_off", "time": 38, "note": 79, "velocity": 111, "channel": 0}, {"type": "note_on", "time": 45, "note": 82, "velocity": 105, "channel": 0}, {"type": "note_off", "time": 58, "note": 82, "velocity": 105, "channel": 0}, {"type": "note_on", "time": 12, "note": 77, "velocity": 113, "channel": 0}, {"type": "note_off", "time": 73, "note": 77, "velocity": 113, "channel": 0}, {"type": "note_on", "time": 14, "note": 75, "velocity": 114, "channel": 0}, {"type": "note_off", "time": 98, "note": 75, "velocity": 114, "channel": 0}, {"type": "note_on", "time": 29, "note": 70, "velocity": 107, "channel": 0}, {"type": "note_off", "time": 83, "note": 70, "velocity": 107, "channel": 0}, {"type": "note_on", "time": 34, "note": 77, "velocity": 113, "channel": 0}, {"type": "note_off", "time": 66, "note": 77, "velocity": 113, "channel": 0}, {"type": "note_on", "time": 0, "note": 75, "velocity": 115, "channel": 0}, {"type": "note_off", "time": 78, "note": 75, "velocity": 115, "channel": 0}, {"type": "note_on", "time": 8, "note": 70, "velocity": 110, "channel": 0}, {"type": "note_off", "time": 95, "note": 70, "velocity": 110, "channel": 0}, {"type": "note_on", "time": 23, "note": 65, "velocity": 102, "channel": 0}, {"type": "note_off", "time": 59, "note": 65, "velocity": 102, "channel": 0}, {"type": "note_on", "time": 8, "note": 67, "velocity": 88, "channel": 0}, {"type": "note_off", "time": 33, "note": 67, "velocity": 88, "channel": 0}, {"type": "note_on", "time": 42, "note": 74, "velocity": 115, "channel": 0}, {"type": "note_off", "time": 57, "note": 74, "velocity": 115, "channel": 0}, {"type": "note_on", "time": 0, "note": 75, "velocity": 117, "channel": 0}, {"type": "note_off", "time": 113, "note": 75, "velocity": 117, "channel": 0}, {"type": "note_on", "time": 7, "note": 74, "velocity": 112, "channel": 0}, {"type": "note_off", "time": 21, "note": 74, "velocity": 112, "channel": 0}, {"type": "note_on", "time": 3, "note": 73, "velocity": 110, "channel": 0}, {"type": "note_off", "time": 44, "note": 73, "velocity": 110, "channel": 0}, {"type": "note_on", "time": 16, "note": 72, "velocity": 111, "channel": 0}, {"type": "note_off", "time": 116, "note": 72, "velocity": 111, "channel": 0}, {"type": "note_on", "time": 17, "note": 70, "velocity": 108, "channel": 0}, {"type": "note_off", "time": 140, "note": 70, "velocity": 108, "channel": 0}, {"type": "note_on", "time": 24, "note": 68, "velocity": 109, "channel": 0}, {"type": "note_off", "time": 48, "note": 68, "velocity": 109, "channel": 0}, {"type": "note_on", "time": 21, "note": 70, "velocity": 110, "channel": 0}, {"type": "note_off", "time": 67, "note": 70, "velocity": 110, "channel": 0}, {"type": "note_on", "time": 23, "note": 70, "velocity": 110, "channel": 0}, {"type": "note_off", "time": 78, "note": 70, "velocity": 110, "channel": 0}, {"type": "note_on", "time": 65, "note": 70, "velocity": 112, "channel": 0}, {"type": "note_off", "time": 106, "note": 70, "velocity": 112, "channel": 0}, {"type": "note_on", "time": 21, "note": 70, "velocity": 112, "channel": 0}, {"type": "note_off", "time": 79, "note": 70, "velocity": 112, "channel": 0}, {"type": "note_on", "time": 73, "note": 63, "velocity": 90, "channel": 0}, {"type": "note_off", "time": 48, "note": 63, "velocity": 90, "channel": 0}, {"type": "note_on", "time": 0, "note": 67, "velocity": 89, "channel": 0}, {"type": "note_off", "time": 33, "note": 67, "velocity": 89, "channel": 0}, {"type": "note_on", "time": 1, "note": 68, "velocity": 108, "channel": 0}, {"type": "note_off", "time": 114, "note": 68, "velocity": 108, "channel": 0}, {"type": "note_on", "time": 26, "note": 65, "velocity": 104, "channel": 0}, {"type": "note_off", "time": 626, "note": 65, "velocity": 104, "channel": 0}, {"type": "note_on", "time": 38, "note": 71, "velocity": 99, "channel": 0}, {"type": "note_off", "time": 39, "note": 71, "velocity": 99, "channel": 0}, {"type": "note_on", "time": 1, "note": 73, "velocity": 110, "channel": 0}, {"type": "note_off", "time": 55, "note": 73, "velocity": 110, "channel": 0}, {"type": "note_on", "time": 18, "note": 71, "velocity": 104, "channel": 0}, {"type": "note_off", "time": 83, "note": 71, "velocity": 104, "channel": 0}, {"type": "note_on", "time": 7, "note": 68, "velocity": 111, "channel": 0}, {"type": "note_off", "time": 92, "note": 68, "velocity": 111, "channel": 0}, {"type": "note_on", "time": 26, "note": 66, "velocity": 87, "channel": 0}, {"type": "note_off", "time": 385, "note": 66, "velocity": 87, "channel": 0}, {"type": "note_on", "time": 726, "note": 67, "velocity": 105, "channel": 0}, {"type": "note_off", "time": 34, "note": 67, "velocity": 105, "channel": 0}, {"type": "note_on", "time": 26, "note": 74, "velocity": 115, "channel": 0}, {"type": "note_off", "time": 103, "note": 74, "velocity": 115, "channel": 0}, {"type": "note_on", "time": 7, "note": 70, "velocity": 108, "channel": 0}, {"type": "note_off", "time": 121, "note": 70, "velocity": 108, "channel": 0}, {"type": "note_on", "time": 14, "note": 69, "velocity": 107, "channel": 0}, {"type": "note_off", "time": 90, "note": 69, "velocity": 107, "channel": 0}, {"type": "note_on", "time": 22, "note": 67, "velocity": 108, "channel": 0}, {"type": "note_off", "time": 98, "note": 67, "velocity": 108, "channel": 0}, {"type": "note_on", "time": 14, "note": 68, "velocity": 101, "channel": 0}, {"type": "note_off", "time": 20, "note": 68, "velocity": 101, "channel": 0}, {"type": "note_on", "time": 8, "note": 70, "velocity": 84, "channel": 0}, {"type": "note_off", "time": 15, "note": 70, "velocity": 84, "channel": 0}, {"type": "note_on", "time": 13, "note": 68, "velocity": 108, "channel": 0}, {"type": "note_off", "time": 162, "note": 68, "velocity": 108, "channel": 0}, {"type": "note_on", "time": 13, "note": 71, "velocity": 108, "channel": 0}, {"type": "note_off", "time": 85, "note": 71, "velocity": 108, "channel": 0}, {"type": "note_on", "time": 19, "note": 75, "velocity": 116, "channel": 0}, {"type": "note_off", "time": 78, "note": 75, "velocity": 116, "channel": 0}, {"type": "note_on", "time": 15, "note": 78, "velocity": 109, "channel": 0}, {"type": "note_off", "time": 96, "note": 78, "velocity": 109, "channel": 0}, {"type": "note_on", "time": 342, "note": 81, "velocity": 117, "channel": 0}, {"type": "note_off", "time": 65, "note": 81, "velocity": 117, "channel": 0}, {"type": "note_on", "time": 14, "note": 79, "velocity": 114, "channel": 0}, {"type": "note_off", "time": 111, "note": 79, "velocity": 114, "channel": 0}, {"type": "note_on", "time": 205, "note": 78, "velocity": 108, "channel": 0}, {"type": "note_off", "time": 34, "note": 78, "velocity": 108, "channel": 0}, {"type": "note_on", "time": 4, "note": 77, "velocity": 109, "channel": 0}, {"type": "note_off", "time": 22, "note": 77, "velocity": 109, "channel": 0}, {"type": "note_on", "time": 3, "note": 75, "velocity": 113, "channel": 0}, {"type": "note_off", "time": 24, "note": 75, "velocity": 113, "channel": 0}, {"type": "note_on", "time": 13, "note": 71, "velocity": 107, "channel": 0}, {"type": "note_off", "time": 34, "note": 71, "velocity": 107, "channel": 0}, {"type": "note_on", "time": 26, "note": 68, "velocity": 101, "channel": 0}, {"type": "note_off", "time": 119, "note": 68, "velocity": 101, "channel": 0}, {"type": "note_on", "time": 290, "note": 76, "velocity": 116, "channel": 0}, {"type": "note_off", "time": 52, "note": 76, "velocity": 116, "channel": 0}, {"type": "note_on", "time": 5, "note": 74, "velocity": 116, "channel": 0}, {"type": "note_off", "time": 57, "note": 74, "velocity": 116, "channel": 0}, {"type": "note_on", "time": 6, "note": 69, "velocity": 112, "channel": 0}, {"type": "note_off", "time": 251, "note": 69, "velocity": 112, "channel": 0}, {"type": "note_on", "time": 15, "note": 70, "velocity": 86, "channel": 0}, {"type": "note_off", "time": 16, "note": 70, "velocity": 86, "channel": 0}, {"type": "note_on", "time": 10, "note": 77, "velocity": 115, "channel": 0}, {"type": "note_off", "time": 31, "note": 77, "velocity": 115, "channel": 0}, {"type": "note_on", "time": 11, "note": 74, "velocity": 106, "channel": 0}, {"type": "note_off", "time": 15, "note": 74, "velocity": 106, "channel": 0}, {"type": "note_on", "time": 10, "note": 72, "velocity": 113, "channel": 0}, {"type": "note_off", "time": 160, "note": 72, "velocity": 113, "channel": 0}, {"type": "note_on", "time": 5, "note": 73, "velocity": 112, "channel": 0}, {"type": "note_off", "time": 40, "note": 73, "velocity": 112, "channel": 0}, {"type": "note_on", "time": 12, "note": 75, "velocity": 119, "channel": 0}, {"type": "note_off", "time": 165, "note": 75, "velocity": 119, "channel": 0}, {"type": "note_on", "time": 20, "note": 73, "velocity": 94, "channel": 0}, {"type": "note_off", "time": 30, "note": 73, "velocity": 94, "channel": 0}, {"type": "note_on", "time": 3, "note": 76, "velocity": 115, "channel": 0}, {"type": "note_off", "time": 43, "note": 76, "velocity": 115, "channel": 0}, {"type": "note_on", "time": 3, "note": 74, "velocity": 104, "channel": 0}, {"type": "note_off", "time": 20, "note": 74, "velocity": 104, "channel": 0}, {"type": "note_on", "time": 5, "note": 71, "velocity": 112, "channel": 0}, {"type": "note_off", "time": 64, "note": 71, "velocity": 112, "channel": 0}, {"type": "note_on", "time": 14, "note": 68, "velocity": 109, "channel": 0}, {"type": "note_off", "time": 249, "note": 68, "velocity": 109, "channel": 0}, {"type": "note_on", "time": 23, "note": 76, "velocity": 113, "channel": 0}, {"type": "note_off", "time": 37, "note": 76, "velocity": 113, "channel": 0}, {"type": "note_on", "time": 10, "note": 71, "velocity": 90, "channel": 0}, {"type": "note_off", "time": 14, "note": 71, "velocity": 90, "channel": 0}, {"type": "note_on", "time": 14, "note": 68, "velocity": 106, "channel": 0}, {"type": "note_off", "time": 22, "note": 68, "velocity": 106, "channel": 0}, {"type": "note_on", "time": 15, "note": 65, "velocity": 108, "channel": 0}, {"type": "note_off", "time": 48, "note": 65, "velocity": 108, "channel": 0}, {"type": "note_on", "time": 15, "note": 64, "velocity": 105, "channel": 0}, {"type": "note_off", "time": 237, "note": 64, "velocity": 105, "channel": 0}, {"type": "note_on", "time": 19, "note": 75, "velocity": 119, "channel": 0}, {"type": "note_off", "time": 68, "note": 75, "velocity": 119, "channel": 0}, {"type": "note_on", "time": 12, "note": 70, "velocity": 114, "channel": 0}, {"type": "note_off", "time": 77, "note": 70, "velocity": 114, "channel": 0}, {"type": "note_on", "time": 32, "note": 67, "velocity": 105, "channel": 0}, {"type": "note_off", "time": 141, "note": 67, "velocity": 105, "channel": 0}, {"type": "note_on", "time": 1, "note": 64, "velocity": 96, "channel": 0}, {"type": "note_off", "time": 43, "note": 64, "velocity": 96, "channel": 0}, {"type": "note_on", "time": 1, "note": 69, "velocity": 111, "channel": 0}, {"type": "note_off", "time": 64, "note": 69, "velocity": 111, "channel": 0}, {"type": "note_on", "time": 5, "note": 70, "velocity": 110, "channel": 0}, {"type": "note_off", "time": 115, "note": 70, "velocity": 110, "channel": 0}, {"type": "note_on", "time": 11, "note": 69, "velocity": 110, "channel": 0}, {"type": "note_off", "time": 107, "note": 69, "velocity": 110, "channel": 0}, {"type": "note_on", "time": 20, "note": 62, "velocity": 99, "channel": 0}, {"type": "note_off", "time": 90, "note": 62, "velocity": 99, "channel": 0}, {"type": "note_on", "time": 11, "note": 64, "velocity": 103, "channel": 0}, {"type": "note_off", "time": 242, "note": 64, "velocity": 103, "channel": 0}, {"type": "note_on", "time": 2, "note": 65, "velocity": 94, "channel": 0}, {"type": "note_off", "time": 26, "note": 65, "velocity": 94, "channel": 0}, {"type": "note_on", "time": 11, "note": 67, "velocity": 100, "channel": 0}, {"type": "note_off", "time": 31, "note": 67, "velocity": 100, "channel": 0}, {"type": "note_on", "time": 8, "note": 69, "velocity": 107, "channel": 0}, {"type": "note_off", "time": 44, "note": 69, "velocity": 107, "channel": 0}, {"type": "note_on", "time": 3, "note": 70, "velocity": 98, "channel": 0}, {"type": "note_off", "time": 335, "note": 70, "velocity": 98, "channel": 0}, {"type": "note_on", "time": 24, "note": 67, "velocity": 100, "channel": 0}, {"type": "note_off", "time": 51, "note": 67, "velocity": 100, "channel": 0}, {"type": "note_on", "time": 15, "note": 69, "velocity": 104, "channel": 0}, {"type": "note_off", "time": 92, "note": 69, "velocity": 104, "channel": 0}, {"type": "note_on", "time": 20, "note": 74, "velocity": 103, "channel": 0}, {"type": "note_off", "time": 53, "note": 74, "velocity": 103, "channel": 0}, {"type": "note_on", "time": 1073, "note": 77, "velocity": 110, "channel": 0}, {"type": "note_off", "time": 58, "note": 77, "velocity": 110, "channel": 0}, {"type": "note_on", "time": 13, "note": 79, "velocity": 116, "channel": 0}, {"type": "note_off", "time": 39, "note": 79, "velocity": 116, "channel": 0}, {"type": "note_on", "time": 0, "note": 81, "velocity": 116, "channel": 0}, {"type": "note_off", "time": 87, "note": 81, "velocity": 116, "channel": 0}, {"type": "note_on", "time": 28, "note": 79, "velocity": 105, "channel": 0}, {"type": "note_off", "time": 36, "note": 79, "velocity": 105, "channel": 0}, {"type": "note_on", "time": 3, "note": 77, "velocity": 111, "channel": 0}, {"type": "note_off", "time": 43, "note": 77, "velocity": 111, "channel": 0}, {"type": "note_on", "time": 14, "note": 76, "velocity": 114, "channel": 0}, {"type": "note_off", "time": 33, "note": 76, "velocity": 114, "channel": 0}, {"type": "note_on", "time": 0, "note": 75, "velocity": 105, "channel": 0}, {"type": "note_off", "time": 42, "note": 75, "velocity": 105, "channel": 0}, {"type": "note_on", "time": 12, "note": 78, "velocity": 112, "channel": 0}, {"type": "note_off", "time": 34, "note": 78, "velocity": 112, "channel": 0}, {"type": "note_on", "time": 10, "note": 76, "velocity": 101, "channel": 0}, {"type": "note_off", "time": 26, "note": 76, "velocity": 101, "channel": 0}, {"type": "note_on", "time": 15, "note": 73, "velocity": 103, "channel": 0}, {"type": "note_off", "time": 28, "note": 73, "velocity": 103, "channel": 0}, {"type": "note_on", "time": 7, "note": 71, "velocity": 102, "channel": 0}, {"type": "note_off", "time": 35, "note": 71, "velocity": 102, "channel": 0}, {"type": "note_on", "time": 14, "note": 76, "velocity": 116, "channel": 0}, {"type": "note_off", "time": 55, "note": 76, "velocity": 116, "channel": 0}, {"type": "note_on", "time": 4, "note": 77, "velocity": 109, "channel": 0}, {"type": "note_off", "time": 28, "note": 77, "velocity": 109, "channel": 0}, {"type": "note_on", "time": 5, "note": 76, "velocity": 114, "channel": 0}, {"type": "note_off", "time": 33, "note": 76, "velocity": 114, "channel": 0}, {"type": "note_on", "time": 4, "note": 75, "velocity": 108, "channel": 0}, {"type": "note_off", "time": 34, "note": 75, "velocity": 108, "channel": 0}, {"type": "note_on", "time": 19, "note": 79, "velocity": 115, "channel": 0}, {"type": "note_off", "time": 49, "note": 79, "velocity": 115, "channel": 0}, {"type": "note_on", "time": 8, "note": 77, "velocity": 104, "channel": 0}, {"type": "note_off", "time": 25, "note": 77, "velocity": 104, "channel": 0}, {"type": "note_on", "time": 7, "note": 74, "velocity": 110, "channel": 0}, {"type": "note_off", "time": 38, "note": 74, "velocity": 110, "channel": 0}, {"type": "note_on", "time": 15, "note": 72, "velocity": 109, "channel": 0}, {"type": "note_off", "time": 41, "note": 72, "velocity": 109, "channel": 0}, {"type": "note_on", "time": 4, "note": 77, "velocity": 110, "channel": 0}, {"type": "note_off", "time": 38, "note": 77, "velocity": 110, "channel": 0}, {"type": "note_on", "time": 13, "note": 72, "velocity": 109, "channel": 0}, {"type": "note_off", "time": 46, "note": 72, "velocity": 109, "channel": 0}, {"type": "note_on", "time": 2, "note": 73, "velocity": 110, "channel": 0}, {"type": "note_off", "time": 43, "note": 73, "velocity": 110, "channel": 0}, {"type": "note_on", "time": 12, "note": 75, "velocity": 95, "channel": 0}, {"type": "note_off", "time": 38, "note": 75, "velocity": 95, "channel": 0}, {"type": "note_on", "time": 13, "note": 68, "velocity": 103, "channel": 0}, {"type": "note_off", "time": 55, "note": 68, "velocity": 103, "channel": 0}, {"type": "note_on", "time": 18, "note": 73, "velocity": 112, "channel": 0}, {"type": "note_off", "time": 46, "note": 73, "velocity": 112, "channel": 0}, {"type": "note_on", "time": 11, "note": 71, "velocity": 103, "channel": 0}, {"type": "note_off", "time": 38, "note": 71, "velocity": 103, "channel": 0}, {"type": "note_on", "time": 22, "note": 65, "velocity": 95, "channel": 0}, {"type": "note_off", "time": 73, "note": 65, "velocity": 95, "channel": 0}, {"type": "note_on", "time": 12, "note": 71, "velocity": 107, "channel": 0}, {"type": "note_off", "time": 23, "note": 71, "velocity": 107, "channel": 0}, {"type": "note_on", "time": 11, "note": 73, "velocity": 113, "channel": 0}, {"type": "note_off", "time": 39, "note": 73, "velocity": 113, "channel": 0}, {"type": "note_on", "time": 12, "note": 78, "velocity": 110, "channel": 0}, {"type": "note_off", "time": 28, "note": 78, "velocity": 110, "channel": 0}, {"type": "note_on", "time": 5, "note": 76, "velocity": 111, "channel": 0}, {"type": "note_off", "time": 178, "note": 76, "velocity": 111, "channel": 0}, {"type": "note_on", "time": 462, "note": 81, "velocity": 86, "channel": 0}, {"type": "note_off", "time": 31, "note": 81, "velocity": 86, "channel": 0}, {"type": "note_on", "time": 17, "note": 84, "velocity": 113, "channel": 0}, {"type": "note_off", "time": 78, "note": 84, "velocity": 113, "channel": 0}, {"type": "note_on", "time": 50, "note": 77, "velocity": 110, "channel": 0}, {"type": "note_off", "time": 215, "note": 77, "velocity": 110, "channel": 0}, {"type": "note_on", "time": 673, "note": 76, "velocity": 99, "channel": 0}, {"type": "note_off", "time": 38, "note": 76, "velocity": 99, "channel": 0}, {"type": "note_on", "time": 48, "note": 79, "velocity": 111, "channel": 0}, {"type": "note_off", "time": 32, "note": 79, "velocity": 111, "channel": 0}, {"type": "note_on", "time": 30, "note": 84, "velocity": 107, "channel": 0}, {"type": "note_off", "time": 74, "note": 84, "velocity": 107, "channel": 0}, {"type": "note_on", "time": 41, "note": 77, "velocity": 110, "channel": 0}, {"type": "note_off", "time": 284, "note": 77, "velocity": 110, "channel": 0}, {"type": "note_on", "time": 333, "note": 75, "velocity": 110, "channel": 0}, {"type": "note_off", "time": 50, "note": 75, "velocity": 110, "channel": 0}, {"type": "note_on", "time": 16, "note": 77, "velocity": 115, "channel": 0}, {"type": "note_off", "time": 24, "note": 77, "velocity": 115, "channel": 0}, {"type": "note_on", "time": 17, "note": 77, "velocity": 105, "channel": 0}, {"type": "note_off", "time": 30, "note": 77, "velocity": 105, "channel": 0}, {"type": "note_on", "time": 14, "note": 80, "velocity": 113, "channel": 0}, {"type": "note_off", "time": 35, "note": 80, "velocity": 113, "channel": 0}, {"type": "note_on", "time": 7, "note": 79, "velocity": 110, "channel": 0}, {"type": "note_off", "time": 37, "note": 79, "velocity": 110, "channel": 0}, {"type": "note_on", "time": 17, "note": 77, "velocity": 112, "channel": 0}, {"type": "note_off", "time": 43, "note": 77, "velocity": 112, "channel": 0}, {"type": "note_on", "time": 14, "note": 75, "velocity": 117, "channel": 0}, {"type": "note_off", "time": 41, "note": 75, "velocity": 117, "channel": 0}, {"type": "note_on", "time": 28, "note": 70, "velocity": 99, "channel": 0}, {"type": "note_off", "time": 28, "note": 70, "velocity": 99, "channel": 0}, {"type": "note_on", "time": 16, "note": 75, "velocity": 109, "channel": 0}, {"type": "note_off", "time": 39, "note": 75, "velocity": 109, "channel": 0}, {"type": "note_on", "time": 8, "note": 77, "velocity": 91, "channel": 0}, {"type": "note_off", "time": 22, "note": 77, "velocity": 91, "channel": 0}, {"type": "note_on", "time": 10, "note": 78, "velocity": 107, "channel": 0}, {"type": "note_off", "time": 47, "note": 78, "velocity": 107, "channel": 0}, {"type": "note_on", "time": 12, "note": 80, "velocity": 101, "channel": 0}, {"type": "note_off", "time": 41, "note": 80, "velocity": 101, "channel": 0}, {"type": "note_on", "time": 12, "note": 77, "velocity": 110, "channel": 0}, {"type": "note_off", "time": 33, "note": 77, "velocity": 110, "channel": 0}, {"type": "note_on", "time": 13, "note": 75, "velocity": 115, "channel": 0}, {"type": "note_off", "time": 40, "note": 75, "velocity": 115, "channel": 0}, {"type": "note_on", "time": 10, "note": 73, "velocity": 105, "channel": 0}, {"type": "note_off", "time": 44, "note": 73, "velocity": 105, "channel": 0}, {"type": "note_on", "time": 10, "note": 70, "velocity": 111, "channel": 0}, {"type": "note_off", "time": 44, "note": 70, "velocity": 111, "channel": 0}, {"type": "note_on", "time": 7, "note": 68, "velocity": 107, "channel": 0}, {"type": "note_off", "time": 24, "note": 68, "velocity": 107, "channel": 0}, {"type": "note_on", "time": 15, "note": 65, "velocity": 103, "channel": 0}, {"type": "note_off", "time": 31, "note": 65, "velocity": 103, "channel": 0}, {"type": "note_on", "time": 24, "note": 70, "velocity": 110, "channel": 0}, {"type": "note_off", "time": 161, "note": 70, "velocity": 110, "channel": 0}, {"type": "note_on", "time": 394, "note": 79, "velocity": 104, "channel": 0}, {"type": "note_off", "time": 28, "note": 79, "velocity": 104, "channel": 0}, {"type": "note_on", "time": 5, "note": 81, "velocity": 106, "channel": 0}, {"type": "note_off", "time": 17, "note": 81, "velocity": 106, "channel": 0}, {"type": "note_on", "time": 2, "note": 83, "velocity": 107, "channel": 0}, {"type": "note_off", "time": 33, "note": 83, "velocity": 107, "channel": 0}, {"type": "note_on", "time": 11, "note": 85, "velocity": 112, "channel": 0}, {"type": "note_off", "time": 75, "note": 85, "velocity": 112, "channel": 0}, {"type": "note_on", "time": 15, "note": 78, "velocity": 113, "channel": 0}, {"type": "note_off", "time": 327, "note": 78, "velocity": 113, "channel": 0}, {"type": "note_on", "time": 363, "note": 80, "velocity": 100, "channel": 0}, {"type": "note_off", "time": 22, "note": 80, "velocity": 100, "channel": 0}, {"type": "note_on", "time": 8, "note": 82, "velocity": 114, "channel": 0}, {"type": "note_off", "time": 29, "note": 82, "velocity": 114, "channel": 0}, {"type": "note_on", "time": 19, "note": 84, "velocity": 114, "channel": 0}, {"type": "note_off", "time": 28, "note": 84, "velocity": 114, "channel": 0}, {"type": "note_on", "time": 11, "note": 84, "velocity": 117, "channel": 0}, {"type": "note_off", "time": 27, "note": 84, "velocity": 117, "channel": 0}, {"type": "note_on", "time": 9, "note": 84, "velocity": 114, "channel": 0}, {"type": "note_off", "time": 27, "note": 84, "velocity": 114, "channel": 0}, {"type": "note_on", "time": 10, "note": 84, "velocity": 111, "channel": 0}, {"type": "note_off", "time": 27, "note": 84, "velocity": 111, "channel": 0}, {"type": "note_on", "time": 13, "note": 84, "velocity": 109, "channel": 0}, {"type": "note_off", "time": 35, "note": 84, "velocity": 109, "channel": 0}, {"type": "note_on", "time": 7, "note": 84, "velocity": 112, "channel": 0}, {"type": "note_off", "time": 36, "note": 84, "velocity": 112, "channel": 0}, {"type": "note_on", "time": 16, "note": 84, "velocity": 108, "channel": 0}, {"type": "note_off", "time": 35, "note": 84, "velocity": 108, "channel": 0}, {"type": "note_on", "time": 16, "note": 84, "velocity": 117, "channel": 0}, {"type": "note_off", "time": 57, "note": 84, "velocity": 117, "channel": 0}, {"type": "note_on", "time": 11, "note": 81, "velocity": 114, "channel": 0}, {"type": "note_off", "time": 232, "note": 81, "velocity": 114, "channel": 0}, {"type": "note_on", "time": 320, "note": 81, "velocity": 95, "channel": 0}, {"type": "note_off", "time": 39, "note": 81, "velocity": 95, "channel": 0}, {"type": "note_on", "time": 43, "note": 87, "velocity": 100, "channel": 0}, {"type": "note_off", "time": 48, "note": 87, "velocity": 100, "channel": 0}, {"type": "note_on", "time": 51, "note": 79, "velocity": 106, "channel": 0}, {"type": "note_off", "time": 246, "note": 79, "velocity": 106, "channel": 0}, {"type": "note_on", "time": 263, "note": 80, "velocity": 97, "channel": 0}, {"type": "note_off", "time": 24, "note": 80, "velocity": 97, "channel": 0}, {"type": "note_on", "time": 34, "note": 84, "velocity": 108, "channel": 0}, {"type": "note_off", "time": 53, "note": 84, "velocity": 108, "channel": 0}, {"type": "note_on", "time": 39, "note": 77, "velocity": 110, "channel": 0}, {"type": "note_off", "time": 220, "note": 77, "velocity": 110, "channel": 0}, {"type": "note_on", "time": 18, "note": 79, "velocity": 111, "channel": 0}, {"type": "note_off", "time": 39, "note": 79, "velocity": 111, "channel": 0}, {"type": "note_on", "time": 2, "note": 81, "velocity": 110, "channel": 0}, {"type": "note_off", "time": 35, "note": 81, "velocity": 110, "channel": 0}, {"type": "note_on", "time": 13, "note": 79, "velocity": 103, "channel": 0}, {"type": "note_off", "time": 41, "note": 79, "velocity": 103, "channel": 0}, {"type": "note_on", "time": 14, "note": 77, "velocity": 102, "channel": 0}, {"type": "note_off", "time": 32, "note": 77, "velocity": 102, "channel": 0}, {"type": "note_on", "time": 3, "note": 76, "velocity": 113, "channel": 0}, {"type": "note_off", "time": 41, "note": 76, "velocity": 113, "channel": 0}, {"type": "note_on", "time": 7, "note": 75, "velocity": 107, "channel": 0}, {"type": "note_off", "time": 44, "note": 75, "velocity": 107, "channel": 0}, {"type": "note_on", "time": 6, "note": 79, "velocity": 112, "channel": 0}, {"type": "note_off", "time": 50, "note": 79, "velocity": 112, "channel": 0}, {"type": "note_on", "time": 11, "note": 76, "velocity": 93, "channel": 0}, {"type": "note_off", "time": 23, "note": 76, "velocity": 93, "channel": 0}, {"type": "note_on", "time": 4, "note": 74, "velocity": 111, "channel": 0}, {"type": "note_off", "time": 53, "note": 74, "velocity": 111, "channel": 0}, {"type": "note_on", "time": 4, "note": 72, "velocity": 100, "channel": 0}, {"type": "note_off", "time": 25, "note": 72, "velocity": 100, "channel": 0}, {"type": "note_on", "time": 11, "note": 77, "velocity": 111, "channel": 0}, {"type": "note_off", "time": 41, "note": 77, "velocity": 111, "channel": 0}, {"type": "note_on", "time": 6, "note": 76, "velocity": 110, "channel": 0}, {"type": "note_off", "time": 31, "note": 76, "velocity": 110, "channel": 0}, {"type": "note_on", "time": 23, "note": 72, "velocity": 109, "channel": 0}, {"type": "note_off", "time": 22, "note": 72, "velocity": 109, "channel": 0}, {"type": "note_on", "time": 3, "note": 74, "velocity": 109, "channel": 0}, {"type": "note_off", "time": 25, "note": 74, "velocity": 109, "channel": 0}, {"type": "note_on", "time": 18, "note": 70, "velocity": 98, "channel": 0}, {"type": "note_off", "time": 30, "note": 70, "velocity": 98, "channel": 0}, {"type": "note_on", "time": 7, "note": 67, "velocity": 101, "channel": 0}, {"type": "note_off", "time": 30, "note": 67, "velocity": 101, "channel": 0}, {"type": "note_on", "time": 16, "note": 72, "velocity": 105, "channel": 0}, {"type": "note_off", "time": 37, "note": 72, "velocity": 105, "channel": 0}, {"type": "note_on", "time": 20, "note": 69, "velocity": 108, "channel": 0}, {"type": "note_off", "time": 28, "note": 69, "velocity": 108, "channel": 0}, {"type": "note_on", "time": 27, "note": 65, "velocity": 95, "channel": 0}, {"type": "note_off", "time": 35, "note": 65, "velocity": 95, "channel": 0}, {"type": "note_on", "time": 6, "note": 70, "velocity": 110, "channel": 0}, {"type": "note_off", "time": 72, "note": 70, "velocity": 110, "channel": 0}, {"type": "note_on", "time": 8, "note": 72, "velocity": 107, "channel": 0}, {"type": "note_off", "time": 27, "note": 72, "velocity": 107, "channel": 0}, {"type": "note_on", "time": 11, "note": 73, "velocity": 108, "channel": 0}, {"type": "note_off", "time": 34, "note": 73, "velocity": 108, "channel": 0}, {"type": "note_on", "time": 9, "note": 75, "velocity": 109, "channel": 0}, {"type": "note_off", "time": 35, "note": 75, "velocity": 109, "channel": 0}, {"type": "note_on", "time": 7, "note": 77, "velocity": 109, "channel": 0}, {"type": "note_off", "time": 92, "note": 77, "velocity": 109, "channel": 0}, {"type": "note_on", "time": 5, "note": 72, "velocity": 105, "channel": 0}, {"type": "note_off", "time": 112, "note": 72, "velocity": 105, "channel": 0}, {"type": "note_on", "time": 17, "note": 73, "velocity": 107, "channel": 0}, {"type": "note_off", "time": 29, "note": 73, "velocity": 107, "channel": 0}, {"type": "note_on", "time": 11, "note": 75, "velocity": 106, "channel": 0}, {"type": "note_off", "time": 46, "note": 75, "velocity": 106, "channel": 0}, {"type": "note_on", "time": 0, "note": 68, "velocity": 93, "channel": 0}, {"type": "note_off", "time": 30, "note": 68, "velocity": 93, "channel": 0}, {"type": "note_on", "time": 9, "note": 70, "velocity": 106, "channel": 0}, {"type": "note_off", "time": 39, "note": 70, "velocity": 106, "channel": 0}, {"type": "note_on", "time": 10, "note": 73, "velocity": 107, "channel": 0}, {"type": "note_off", "time": 43, "note": 73, "velocity": 107, "channel": 0}, {"type": "note_on", "time": 7, "note": 71, "velocity": 94, "channel": 0}, {"type": "note_off", "time": 45, "note": 71, "velocity": 94, "channel": 0}, {"type": "note_on", "time": 9, "note": 68, "velocity": 82, "channel": 0}, {"type": "note_off", "time": 30, "note": 68, "velocity": 82, "channel": 0}, {"type": "note_on", "time": 14, "note": 69, "velocity": 107, "channel": 0}, {"type": "note_off", "time": 27, "note": 69, "velocity": 107, "channel": 0}, {"type": "note_on", "time": 31, "note": 71, "velocity": 106, "channel": 0}, {"type": "note_off", "time": 22, "note": 71, "velocity": 106, "channel": 0}, {"type": "note_on", "time": 6, "note": 73, "velocity": 102, "channel": 0}, {"type": "note_off", "time": 39, "note": 73, "velocity": 102, "channel": 0}, {"type": "note_on", "time": 28, "note": 78, "velocity": 106, "channel": 0}, {"type": "note_off", "time": 28, "note": 78, "velocity": 106, "channel": 0}, {"type": "note_on", "time": 5, "note": 76, "velocity": 104, "channel": 0}, {"type": "note_off", "time": 32, "note": 76, "velocity": 104, "channel": 0}, {"type": "note_on", "time": 13, "note": 73, "velocity": 111, "channel": 0}, {"type": "note_off", "time": 45, "note": 73, "velocity": 111, "channel": 0}, {"type": "note_on", "time": 7, "note": 71, "velocity": 104, "channel": 0}, {"type": "note_off", "time": 39, "note": 71, "velocity": 104, "channel": 0}, {"type": "note_on", "time": 17, "note": 69, "velocity": 99, "channel": 0}, {"type": "note_off", "time": 28, "note": 69, "velocity": 99, "channel": 0}, {"type": "note_on", "time": 3, "note": 76, "velocity": 115, "channel": 0}, {"type": "note_off", "time": 67, "note": 76, "velocity": 115, "channel": 0}, {"type": "note_on", "time": 662, "note": 75, "velocity": 106, "channel": 0}, {"type": "note_off", "time": 42, "note": 75, "velocity": 106, "channel": 0}, {"type": "note_on", "time": 4, "note": 77, "velocity": 106, "channel": 0}, {"type": "note_off", "time": 37, "note": 77, "velocity": 106, "channel": 0}, {"type": "note_on", "time": 5, "note": 78, "velocity": 108, "channel": 0}, {"type": "note_off", "time": 41, "note": 78, "velocity": 108, "channel": 0}, {"type": "note_on", "time": 6, "note": 80, "velocity": 105, "channel": 0}, {"type": "note_off", "time": 38, "note": 80, "velocity": 105, "channel": 0}, {"type": "note_on", "time": 18, "note": 77, "velocity": 111, "channel": 0}, {"type": "note_off", "time": 35, "note": 77, "velocity": 111, "channel": 0}, {"type": "note_on", "time": 11, "note": 75, "velocity": 113, "channel": 0}, {"type": "note_off", "time": 38, "note": 75, "velocity": 113, "channel": 0}, {"type": "note_on", "time": 11, "note": 73, "velocity": 104, "channel": 0}, {"type": "note_off", "time": 39, "note": 73, "velocity": 104, "channel": 0}, {"type": "note_on", "time": 12, "note": 70, "velocity": 110, "channel": 0}, {"type": "note_off", "time": 55, "note": 70, "velocity": 110, "channel": 0}, {"type": "note_on", "time": 9, "note": 68, "velocity": 105, "channel": 0}, {"type": "note_off", "time": 26, "note": 68, "velocity": 105, "channel": 0}, {"type": "note_on", "time": 11, "note": 65, "velocity": 96, "channel": 0}, {"type": "note_off", "time": 26, "note": 65, "velocity": 96, "channel": 0}, {"type": "note_on", "time": 17, "note": 70, "velocity": 107, "channel": 0}, {"type": "note_off", "time": 28, "note": 70, "velocity": 107, "channel": 0}, {"type": "note_on", "time": 7, "note": 75, "velocity": 109, "channel": 0}, {"type": "note_off", "time": 30, "note": 75, "velocity": 109, "channel": 0}, {"type": "note_on", "time": 5, "note": 72, "velocity": 105, "channel": 0}, {"type": "note_off", "time": 18, "note": 72, "velocity": 105, "channel": 0}, {"type": "note_on", "time": 9, "note": 68, "velocity": 111, "channel": 0}, {"type": "note_off", "time": 135, "note": 68, "velocity": 111, "channel": 0}, {"type": "note_on", "time": 38, "note": 70, "velocity": 101, "channel": 0}, {"type": "note_off", "time": 38, "note": 70, "velocity": 101, "channel": 0}, {"type": "note_on", "time": 11, "note": 73, "velocity": 103, "channel": 0}, {"type": "note_off", "time": 35, "note": 73, "velocity": 103, "channel": 0}, {"type": "note_on", "time": 4, "note": 72, "velocity": 103, "channel": 0}, {"type": "note_off", "time": 49, "note": 72, "velocity": 103, "channel": 0}, {"type": "note_on", "time": 10, "note": 70, "velocity": 108, "channel": 0}, {"type": "note_off", "time": 39, "note": 70, "velocity": 108, "channel": 0}, {"type": "note_on", "time": 13, "note": 68, "velocity": 110, "channel": 0}, {"type": "note_off", "time": 33, "note": 68, "velocity": 110, "channel": 0}, {"type": "note_on", "time": 16, "note": 67, "velocity": 100, "channel": 0}, {"type": "note_off", "time": 36, "note": 67, "velocity": 100, "channel": 0}, {"type": "note_on", "time": 14, "note": 70, "velocity": 111, "channel": 0}, {"type": "note_off", "time": 35, "note": 70, "velocity": 111, "channel": 0}, {"type": "note_on", "time": 4, "note": 69, "velocity": 108, "channel": 0}, {"type": "note_off", "time": 39, "note": 69, "velocity": 108, "channel": 0}, {"type": "note_on", "time": 6, "note": 68, "velocity": 111, "channel": 0}, {"type": "note_off", "time": 39, "note": 68, "velocity": 111, "channel": 0}, {"type": "note_on", "time": 15, "note": 63, "velocity": 105, "channel": 0}, {"type": "note_off", "time": 35, "note": 63, "velocity": 105, "channel": 0}, {"type": "note_on", "time": 23, "note": 60, "velocity": 96, "channel": 0}, {"type": "note_off", "time": 24, "note": 60, "velocity": 96, "channel": 0}, {"type": "note_on", "time": 22, "note": 65, "velocity": 107, "channel": 0}, {"type": "note_off", "time": 31, "note": 65, "velocity": 107, "channel": 0}, {"type": "note_on", "time": 17, "note": 63, "velocity": 100, "channel": 0}, {"type": "note_off", "time": 31, "note": 63, "velocity": 100, "channel": 0}, {"type": "note_on", "time": 9, "note": 56, "velocity": 93, "channel": 0}, {"type": "note_off", "time": 35, "note": 56, "velocity": 93, "channel": 0}, {"type": "note_on", "time": 1, "note": 58, "velocity": 99, "channel": 0}, {"type": "note_off", "time": 39, "note": 58, "velocity": 99, "channel": 0}, {"type": "note_on", "time": 14, "note": 63, "velocity": 96, "channel": 0}, {"type": "note_off", "time": 68, "note": 63, "velocity": 96, "channel": 0}, {"type": "note_on", "time": 0, "note": 67, "velocity": 87, "channel": 0}, {"type": "note_off", "time": 15, "note": 67, "velocity": 87, "channel": 0}, {"type": "note_on", "time": 13, "note": 70, "velocity": 109, "channel": 0}, {"type": "note_off", "time": 47, "note": 70, "velocity": 109, "channel": 0}, {"type": "note_on", "time": 7, "note": 75, "velocity": 120, "channel": 0}, {"type": "note_off", "time": 55, "note": 75, "velocity": 120, "channel": 0}, {"type": "note_on", "time": 17, "note": 75, "velocity": 118, "channel": 0}, {"type": "note_off", "time": 32, "note": 75, "velocity": 118, "channel": 0}, {"type": "note_on", "time": 12, "note": 75, "velocity": 117, "channel": 0}, {"type": "note_off", "time": 43, "note": 75, "velocity": 117, "channel": 0}, {"type": "note_on", "time": 7, "note": 75, "velocity": 115, "channel": 0}, {"type": "note_off", "time": 37, "note": 75, "velocity": 115, "channel": 0}, {"type": "note_on", "time": 11, "note": 75, "velocity": 114, "channel": 0}, {"type": "note_off", "time": 42, "note": 75, "velocity": 114, "channel": 0}, {"type": "note_on", "time": 9, "note": 75, "velocity": 114, "channel": 0}, {"type": "note_off", "time": 30, "note": 75, "velocity": 114, "channel": 0}, {"type": "note_on", "time": 11, "note": 75, "velocity": 114, "channel": 0}, {"type": "note_off", "time": 53, "note": 75, "velocity": 114, "channel": 0}, {"type": "note_on", "time": 10, "note": 75, "velocity": 112, "channel": 0}, {"type": "note_off", "time": 35, "note": 75, "velocity": 112, "channel": 0}, {"type": "note_on", "time": 8, "note": 75, "velocity": 109, "channel": 0}, {"type": "note_off", "time": 48, "note": 75, "velocity": 109, "channel": 0}, {"type": "note_on", "time": 3, "note": 75, "velocity": 113, "channel": 0}, {"type": "note_off", "time": 27, "note": 75, "velocity": 113, "channel": 0}, {"type": "note_on", "time": 10, "note": 75, "velocity": 113, "channel": 0}, {"type": "note_off", "time": 38, "note": 75, "velocity": 113, "channel": 0}, {"type": "note_on", "time": 11, "note": 75, "velocity": 107, "channel": 0}, {"type": "note_off", "time": 31, "note": 75, "velocity": 107, "channel": 0}, {"type": "note_on", "time": 15, "note": 75, "velocity": 108, "channel": 0}, {"type": "note_off", "time": 35, "note": 75, "velocity": 108, "channel": 0}, {"type": "note_on", "time": 7, "note": 75, "velocity": 107, "channel": 0}, {"type": "note_off", "time": 27, "note": 75, "velocity": 107, "channel": 0}, {"type": "note_on", "time": 7, "note": 75, "velocity": 110, "channel": 0}, {"type": "note_off", "time": 45, "note": 75, "velocity": 110, "channel": 0}, {"type": "note_on", "time": 5, "note": 75, "velocity": 106, "channel": 0}, {"type": "note_off", "time": 31, "note": 75, "velocity": 106, "channel": 0}, {"type": "note_on", "time": 9, "note": 75, "velocity": 109, "channel": 0}, {"type": "note_off", "time": 37, "note": 75, "velocity": 109, "channel": 0}, {"type": "note_on", "time": 16, "note": 75, "velocity": 91, "channel": 0}, {"type": "note_off", "time": 28, "note": 75, "velocity": 91, "channel": 0}, {"type": "note_on", "time": 28, "note": 68, "velocity": 101, "channel": 0}, {"type": "note_off", "time": 103, "note": 68, "velocity": 101, "channel": 0}, {"type": "note_on", "time": 726, "note": 76, "velocity": 113, "channel": 0}, {"type": "note_off", "time": 52, "note": 76, "velocity": 113, "channel": 0}, {"type": "note_on", "time": 5, "note": 78, "velocity": 112, "channel": 0}, {"type": "note_off", "time": 26, "note": 78, "velocity": 112, "channel": 0}, {"type": "note_on", "time": 14, "note": 76, "velocity": 114, "channel": 0}, {"type": "note_off", "time": 47, "note": 76, "velocity": 114, "channel": 0}, {"type": "note_on", "time": 18, "note": 76, "velocity": 109, "channel": 0}, {"type": "note_off", "time": 35, "note": 76, "velocity": 109, "channel": 0}, {"type": "note_on", "time": 8, "note": 76, "velocity": 112, "channel": 0}, {"type": "note_off", "time": 49, "note": 76, "velocity": 112, "channel": 0}, {"type": "note_on", "time": 9, "note": 76, "velocity": 106, "channel": 0}, {"type": "note_off", "time": 41, "note": 76, "velocity": 106, "channel": 0}, {"type": "note_on", "time": 7, "note": 76, "velocity": 114, "channel": 0}, {"type": "note_off", "time": 39, "note": 76, "velocity": 114, "channel": 0}, {"type": "note_on", "time": 7, "note": 76, "velocity": 109, "channel": 0}, {"type": "note_off", "time": 41, "note": 76, "velocity": 109, "channel": 0}, {"type": "note_on", "time": 15, "note": 76, "velocity": 116, "channel": 0}, {"type": "note_off", "time": 95, "note": 76, "velocity": 116, "channel": 0}, {"type": "note_on", "time": 16, "note": 78, "velocity": 102, "channel": 0}, {"type": "note_off", "time": 40, "note": 78, "velocity": 102, "channel": 0}, {"type": "note_on", "time": 7, "note": 79, "velocity": 109, "channel": 0}, {"type": "note_off", "time": 22, "note": 79, "velocity": 109, "channel": 0}, {"type": "note_on", "time": 4, "note": 80, "velocity": 96, "channel": 0}, {"type": "note_off", "time": 39, "note": 80, "velocity": 96, "channel": 0}, {"type": "note_on", "time": 470, "note": 81, "velocity": 110, "channel": 0}, {"type": "note_off", "time": 36, "note": 81, "velocity": 110, "channel": 0}, {"type": "note_on", "time": 7, "note": 82, "velocity": 104, "channel": 0}, {"type": "note_off", "time": 21, "note": 82, "velocity": 104, "channel": 0}, {"type": "note_on", "time": 4, "note": 84, "velocity": 110, "channel": 0}, {"type": "note_off", "time": 51, "note": 84, "velocity": 110, "channel": 0}, {"type": "note_on", "time": 446, "note": 79, "velocity": 110, "channel": 0}, {"type": "note_off", "time": 107, "note": 79, "velocity": 110, "channel": 0}, {"type": "note_on", "time": 12, "note": 84, "velocity": 97, "channel": 0}, {"type": "note_off", "time": 15, "note": 84, "velocity": 97, "channel": 0}, {"type": "note_on", "time": 5, "note": 87, "velocity": 106, "channel": 0}, {"type": "note_off", "time": 15, "note": 87, "velocity": 106, "channel": 0}, {"type": "note_on", "time": 10, "note": 86, "velocity": 115, "channel": 0}, {"type": "note_off", "time": 109, "note": 86, "velocity": 115, "channel": 0}, {"type": "note_on", "time": 455, "note": 77, "velocity": 92, "channel": 0}, {"type": "note_off", "time": 31, "note": 77, "velocity": 92, "channel": 0}, {"type": "note_on", "time": 11, "note": 84, "velocity": 118, "channel": 0}, {"type": "note_off", "time": 79, "note": 84, "velocity": 118, "channel": 0}, {"type": "note_on", "time": 21, "note": 79, "velocity": 113, "channel": 0}, {"type": "note_off", "time": 279, "note": 79, "velocity": 113, "channel": 0}, {"type": "note_on", "time": 349, "note": 77, "velocity": 104, "channel": 0}, {"type": "note_off", "time": 36, "note": 77, "velocity": 104, "channel": 0}, {"type": "note_on", "time": 18, "note": 79, "velocity": 113, "channel": 0}, {"type": "note_off", "time": 37, "note": 79, "velocity": 113, "channel": 0}, {"type": "note_on", "time": 7, "note": 79, "velocity": 107, "channel": 0}, {"type": "note_off", "time": 35, "note": 79, "velocity": 107, "channel": 0}, {"type": "note_on", "time": 14, "note": 82, "velocity": 96, "channel": 0}, {"type": "note_off", "time": 23, "note": 82, "velocity": 96, "channel": 0}, {"type": "note_on", "time": 4, "note": 81, "velocity": 115, "channel": 0}, {"type": "note_off", "time": 60, "note": 81, "velocity": 115, "channel": 0}, {"type": "note_on", "time": 11, "note": 79, "velocity": 106, "channel": 0}, {"type": "note_off", "time": 38, "note": 79, "velocity": 106, "channel": 0}, {"type": "note_on", "time": 5, "note": 77, "velocity": 100, "channel": 0}, {"type": "note_off", "time": 42, "note": 77, "velocity": 100, "channel": 0}, {"type": "note_on", "time": 5, "note": 76, "velocity": 105, "channel": 0}, {"type": "note_off", "time": 38, "note": 76, "velocity": 105, "channel": 0}, {"type": "note_on", "time": 9, "note": 75, "velocity": 106, "channel": 0}, {"type": "note_off", "time": 40, "note": 75, "velocity": 106, "channel": 0}, {"type": "note_on", "time": 15, "note": 79, "velocity": 105, "channel": 0}, {"type": "note_off", "time": 51, "note": 79, "velocity": 105, "channel": 0}, {"type": "note_on", "time": 3, "note": 77, "velocity": 99, "channel": 0}, {"type": "note_off", "time": 25, "note": 77, "velocity": 99, "channel": 0}, {"type": "note_on", "time": 10, "note": 74, "velocity": 109, "channel": 0}, {"type": "note_off", "time": 35, "note": 74, "velocity": 109, "channel": 0}, {"type": "note_on", "time": 13, "note": 72, "velocity": 99, "channel": 0}, {"type": "note_off", "time": 24, "note": 72, "velocity": 99, "channel": 0}, {"type": "note_on", "time": 19, "note": 77, "velocity": 107, "channel": 0}, {"type": "note_off", "time": 35, "note": 77, "velocity": 107, "channel": 0}, {"type": "note_on", "time": 16, "note": 72, "velocity": 103, "channel": 0}, {"type": "note_off", "time": 33, "note": 72, "velocity": 103, "channel": 0}, {"type": "note_on", "time": 7, "note": 73, "velocity": 106, "channel": 0}, {"type": "note_off", "time": 41, "note": 73, "velocity": 106, "channel": 0}, {"type": "note_on", "time": 11, "note": 75, "velocity": 101, "channel": 0}, {"type": "note_off", "time": 30, "note": 75, "velocity": 101, "channel": 0}, {"type": "note_on", "time": 7, "note": 68, "velocity": 99, "channel": 0}, {"type": "note_off", "time": 36, "note": 68, "velocity": 99, "channel": 0}, {"type": "note_on", "time": 3, "note": 69, "velocity": 91, "channel": 0}, {"type": "note_off", "time": 36, "note": 69, "velocity": 91, "channel": 0}, {"type": "note_on", "time": 11, "note": 73, "velocity": 106, "channel": 0}, {"type": "note_off", "time": 44, "note": 73, "velocity": 106, "channel": 0}, {"type": "note_on", "time": 13, "note": 71, "velocity": 107, "channel": 0}, {"type": "note_off", "time": 27, "note": 71, "velocity": 107, "channel": 0}, {"type": "note_on", "time": 38, "note": 65, "velocity": 98, "channel": 0}, {"type": "note_off", "time": 37, "note": 65, "velocity": 98, "channel": 0}, {"type": "note_on", "time": 6, "note": 69, "velocity": 102, "channel": 0}, {"type": "note_off", "time": 27, "note": 69, "velocity": 102, "channel": 0}, {"type": "note_on", "time": 9, "note": 72, "velocity": 102, "channel": 0}, {"type": "note_off", "time": 27, "note": 72, "velocity": 102, "channel": 0}, {"type": "note_on", "time": 9, "note": 73, "velocity": 103, "channel": 0}, {"type": "note_off", "time": 43, "note": 73, "velocity": 103, "channel": 0}, {"type": "note_on", "time": 11, "note": 78, "velocity": 111, "channel": 0}, {"type": "note_off", "time": 39, "note": 78, "velocity": 111, "channel": 0}, {"type": "note_on", "time": 4, "note": 76, "velocity": 104, "channel": 0}, {"type": "note_off", "time": 27, "note": 76, "velocity": 104, "channel": 0}, {"type": "note_on", "time": 10, "note": 73, "velocity": 111, "channel": 0}, {"type": "note_off", "time": 37, "note": 73, "velocity": 111, "channel": 0}, {"type": "note_on", "time": 9, "note": 71, "velocity": 105, "channel": 0}, {"type": "note_off", "time": 27, "note": 71, "velocity": 105, "channel": 0}, {"type": "note_on", "time": 23, "note": 76, "velocity": 120, "channel": 0}, {"type": "note_off", "time": 43, "note": 76, "velocity": 120, "channel": 0}, {"type": "note_on", "time": 5, "note": 77, "velocity": 109, "channel": 0}, {"type": "note_off", "time": 36, "note": 77, "velocity": 109, "channel": 0}, {"type": "note_on", "time": 15, "note": 73, "velocity": 107, "channel": 0}, {"type": "note_off", "time": 28, "note": 73, "velocity": 107, "channel": 0}, {"type": "note_on", "time": 6, "note": 72, "velocity": 101, "channel": 0}, {"type": "note_off", "time": 43, "note": 72, "velocity": 101, "channel": 0}, {"type": "note_on", "time": 10, "note": 70, "velocity": 104, "channel": 0}, {"type": "note_off", "time": 29, "note": 70, "velocity": 104, "channel": 0}, {"type": "note_on", "time": 11, "note": 75, "velocity": 111, "channel": 0}, {"type": "note_off", "time": 34, "note": 75, "velocity": 111, "channel": 0}, {"type": "note_on", "time": 3, "note": 73, "velocity": 107, "channel": 0}, {"type": "note_off", "time": 19, "note": 73, "velocity": 107, "channel": 0}, {"type": "note_on", "time": 8, "note": 71, "velocity": 99, "channel": 0}, {"type": "note_off", "time": 24, "note": 71, "velocity": 99, "channel": 0}, {"type": "note_on", "time": 18, "note": 70, "velocity": 105, "channel": 0}, {"type": "note_off", "time": 41, "note": 70, "velocity": 105, "channel": 0}, {"type": "note_on", "time": 19, "note": 67, "velocity": 90, "channel": 0}, {"type": "note_off", "time": 30, "note": 67, "velocity": 90, "channel": 0}, {"type": "note_on", "time": 8, "note": 73, "velocity": 111, "channel": 0}, {"type": "note_off", "time": 130, "note": 73, "velocity": 111, "channel": 0}, {"type": "note_on", "time": 516, "note": 78, "velocity": 111, "channel": 0}, {"type": "note_off", "time": 23, "note": 78, "velocity": 111, "channel": 0}, {"type": "note_on", "time": 3, "note": 80, "velocity": 106, "channel": 0}, {"type": "note_off", "time": 12, "note": 80, "velocity": 106, "channel": 0}, {"type": "note_on", "time": 7, "note": 82, "velocity": 111, "channel": 0}, {"type": "note_off", "time": 66, "note": 82, "velocity": 111, "channel": 0}, {"type": "note_on", "time": 14, "note": 82, "velocity": 110, "channel": 0}, {"type": "note_off", "time": 52, "note": 82, "velocity": 110, "channel": 0}, {"type": "note_on", "time": 12, "note": 82, "velocity": 111, "channel": 0}, {"type": "note_off", "time": 45, "note": 82, "velocity": 111, "channel": 0}, {"type": "note_on", "time": 26, "note": 82, "velocity": 111, "channel": 0}, {"type": "note_off", "time": 47, "note": 82, "velocity": 111, "channel": 0}, {"type": "note_on", "time": 15, "note": 82, "velocity": 113, "channel": 0}, {"type": "note_off", "time": 47, "note": 82, "velocity": 113, "channel": 0}, {"type": "note_on", "time": 21, "note": 82, "velocity": 112, "channel": 0}, {"type": "note_off", "time": 39, "note": 82, "velocity": 112, "channel": 0}, {"type": "note_on", "time": 19, "note": 82, "velocity": 110, "channel": 0}, {"type": "note_off", "time": 121, "note": 82, "velocity": 110, "channel": 0}, {"type": "note_on", "time": 46, "note": 79, "velocity": 105, "channel": 0}, {"type": "note_off", "time": 58, "note": 79, "velocity": 105, "channel": 0}, {"type": "note_on", "time": 3, "note": 80, "velocity": 110, "channel": 0}, {"type": "note_off", "time": 79, "note": 80, "velocity": 110, "channel": 0}, {"type": "note_on", "time": 13, "note": 77, "velocity": 113, "channel": 0}, {"type": "note_off", "time": 146, "note": 77, "velocity": 113, "channel": 0}, {"type": "note_on", "time": 10, "note": 72, "velocity": 108, "channel": 0}, {"type": "note_off", "time": 116, "note": 72, "velocity": 108, "channel": 0}, {"type": "note_on", "time": 15, "note": 73, "velocity": 107, "channel": 0}, {"type": "note_off", "time": 37, "note": 73, "velocity": 107, "channel": 0}, {"type": "note_on", "time": 7, "note": 75, "velocity": 112, "channel": 0}, {"type": "note_off", "time": 39, "note": 75, "velocity": 112, "channel": 0}, {"type": "note_on", "time": 24, "note": 68, "velocity": 105, "channel": 0}, {"type": "note_off", "time": 27, "note": 68, "velocity": 105, "channel": 0}, {"type": "note_on", "time": 10, "note": 70, "velocity": 105, "channel": 0}, {"type": "note_off", "time": 35, "note": 70, "velocity": 105, "channel": 0}, {"type": "note_on", "time": 6, "note": 73, "velocity": 105, "channel": 0}, {"type": "note_off", "time": 38, "note": 73, "velocity": 105, "channel": 0}, {"type": "note_on", "time": 4, "note": 72, "velocity": 106, "channel": 0}, {"type": "note_off", "time": 47, "note": 72, "velocity": 106, "channel": 0}, {"type": "note_on", "time": 19, "note": 70, "velocity": 109, "channel": 0}, {"type": "note_off", "time": 42, "note": 70, "velocity": 109, "channel": 0}, {"type": "note_on", "time": 8, "note": 68, "velocity": 108, "channel": 0}, {"type": "note_off", "time": 33, "note": 68, "velocity": 108, "channel": 0}, {"type": "note_on", "time": 14, "note": 66, "velocity": 92, "channel": 0}, {"type": "note_off", "time": 29, "note": 66, "velocity": 92, "channel": 0}, {"type": "note_on", "time": 16, "note": 70, "velocity": 110, "channel": 0}, {"type": "note_off", "time": 38, "note": 70, "velocity": 110, "channel": 0}, {"type": "note_on", "time": 11, "note": 69, "velocity": 103, "channel": 0}, {"type": "note_off", "time": 45, "note": 69, "velocity": 103, "channel": 0}, {"type": "note_on", "time": 7, "note": 68, "velocity": 100, "channel": 0}, {"type": "note_off", "time": 39, "note": 68, "velocity": 100, "channel": 0}, {"type": "note_on", "time": 11, "note": 63, "velocity": 103, "channel": 0}, {"type": "note_off", "time": 33, "note": 63, "velocity": 103, "channel": 0}, {"type": "note_on", "time": 7, "note": 60, "velocity": 93, "channel": 0}, {"type": "note_off", "time": 44, "note": 60, "velocity": 93, "channel": 0}, {"type": "note_on", "time": 15, "note": 65, "velocity": 105, "channel": 0}, {"type": "note_off", "time": 34, "note": 65, "velocity": 105, "channel": 0}, {"type": "note_on", "time": 6, "note": 63, "velocity": 103, "channel": 0}, {"type": "note_off", "time": 44, "note": 63, "velocity": 103, "channel": 0}, {"type": "note_on", "time": 10, "note": 57, "velocity": 91, "channel": 0}, {"type": "note_off", "time": 34, "note": 57, "velocity": 91, "channel": 0}, {"type": "note_on", "time": 10, "note": 58, "velocity": 97, "channel": 0}, {"type": "note_off", "time": 26, "note": 58, "velocity": 97, "channel": 0}, {"type": "note_on", "time": 5, "note": 61, "velocity": 103, "channel": 0}, {"type": "note_off", "time": 35, "note": 61, "velocity": 103, "channel": 0}, {"type": "note_on", "time": 0, "note": 63, "velocity": 103, "channel": 0}, {"type": "note_off", "time": 27, "note": 63, "velocity": 103, "channel": 0}, {"type": "note_on", "time": 6, "note": 65, "velocity": 106, "channel": 0}, {"type": "note_off", "time": 38, "note": 65, "velocity": 106, "channel": 0}, {"type": "note_on", "time": 30, "note": 70, "velocity": 107, "channel": 0}, {"type": "note_off", "time": 48, "note": 70, "velocity": 107, "channel": 0}, {"type": "note_on", "time": 40, "note": 75, "velocity": 117, "channel": 0}, {"type": "note_off", "time": 83, "note": 75, "velocity": 117, "channel": 0}, {"type": "note_on", "time": 19, "note": 72, "velocity": 107, "channel": 0}, {"type": "note_off", "time": 182, "note": 72, "velocity": 107, "channel": 0}, {"type": "note_on", "time": 22, "note": 67, "velocity": 102, "channel": 0}, {"type": "note_off", "time": 55, "note": 67, "velocity": 102, "channel": 0}, {"type": "note_on", "time": 28, "note": 72, "velocity": 85, "channel": 0}, {"type": "note_off", "time": 70, "note": 72, "velocity": 85, "channel": 0}, {"type": "note_on", "time": 670, "note": 80, "velocity": 113, "channel": 0}, {"type": "note_off", "time": 54, "note": 80, "velocity": 113, "channel": 0}, {"type": "note_on", "time": 11, "note": 78, "velocity": 111, "channel": 0}, {"type": "note_off", "time": 42, "note": 78, "velocity": 111, "channel": 0}, {"type": "note_on", "time": 15, "note": 76, "velocity": 108, "channel": 0}, {"type": "note_off", "time": 178, "note": 76, "velocity": 108, "channel": 0}, {"type": "note_on", "time": 3, "note": 73, "velocity": 105, "channel": 0}, {"type": "note_off", "time": 143, "note": 73, "velocity": 105, "channel": 0}, {"type": "note_on", "time": 3, "note": 71, "velocity": 107, "channel": 0}, {"type": "note_off", "time": 36, "note": 71, "velocity": 107, "channel": 0}, {"type": "note_on", "time": 10, "note": 73, "velocity": 111, "channel": 0}, {"type": "note_off", "time": 34, "note": 73, "velocity": 111, "channel": 0}, {"type": "note_on", "time": 11, "note": 78, "velocity": 113, "channel": 0}, {"type": "note_off", "time": 30, "note": 78, "velocity": 113, "channel": 0}, {"type": "note_on", "time": 7, "note": 76, "velocity": 114, "channel": 0}, {"type": "note_off", "time": 33, "note": 76, "velocity": 114, "channel": 0}, {"type": "note_on", "time": 12, "note": 73, "velocity": 117, "channel": 0}, {"type": "note_off", "time": 44, "note": 73, "velocity": 117, "channel": 0}, {"type": "note_on", "time": 9, "note": 71, "velocity": 112, "channel": 0}, {"type": "note_off", "time": 31, "note": 71, "velocity": 112, "channel": 0}, {"type": "note_on", "time": 3, "note": 70, "velocity": 101, "channel": 0}, {"type": "note_off", "time": 23, "note": 70, "velocity": 101, "channel": 0}, {"type": "note_on", "time": 11, "note": 76, "velocity": 91, "channel": 0}, {"type": "note_off", "time": 49, "note": 76, "velocity": 91, "channel": 0}, {"type": "note_on", "time": 360, "note": 81, "velocity": 119, "channel": 0}, {"type": "note_off", "time": 83, "note": 81, "velocity": 119, "channel": 0}, {"type": "note_on", "time": 31, "note": 74, "velocity": 105, "channel": 0}, {"type": "note_off", "time": 44, "note": 74, "velocity": 105, "channel": 0}, {"type": "note_on", "time": 325, "note": 75, "velocity": 108, "channel": 0}, {"type": "note_off", "time": 42, "note": 75, "velocity": 108, "channel": 0}, {"type": "note_on", "time": 26, "note": 82, "velocity": 116, "channel": 0}, {"type": "note_off", "time": 113, "note": 82, "velocity": 116, "channel": 0}, {"type": "note_on", "time": 7, "note": 82, "velocity": 112, "channel": 0}, {"type": "note_off", "time": 46, "note": 82, "velocity": 112, "channel": 0}, {"type": "note_on", "time": 6, "note": 82, "velocity": 113, "channel": 0}, {"type": "note_off", "time": 50, "note": 82, "velocity": 113, "channel": 0}, {"type": "note_on", "time": 472, "note": 79, "velocity": 111, "channel": 0}, {"type": "note_off", "time": 23, "note": 79, "velocity": 111, "channel": 0}, {"type": "note_on", "time": 5, "note": 81, "velocity": 113, "channel": 0}, {"type": "note_off", "time": 63, "note": 81, "velocity": 113, "channel": 0}, {"type": "note_on", "time": 114, "note": 79, "velocity": 115, "channel": 0}, {"type": "note_off", "time": 134, "note": 79, "velocity": 115, "channel": 0}, {"type": "note_on", "time": 36, "note": 75, "velocity": 98, "channel": 0}, {"type": "note_off", "time": 63, "note": 75, "velocity": 98, "channel": 0}, {"type": "note_on", "time": 9, "note": 78, "velocity": 114, "channel": 0}, {"type": "note_off", "time": 93, "note": 78, "velocity": 114, "channel": 0}, {"type": "note_on", "time": 24, "note": 75, "velocity": 117, "channel": 0}, {"type": "note_off", "time": 63, "note": 75, "velocity": 117, "channel": 0}, {"type": "note_on", "time": 29, "note": 71, "velocity": 103, "channel": 0}, {"type": "note_off", "time": 108, "note": 71, "velocity": 103, "channel": 0}, {"type": "note_on", "time": 28, "note": 68, "velocity": 92, "channel": 0}, {"type": "note_off", "time": 31, "note": 68, "velocity": 92, "channel": 0}, {"type": "note_on", "time": 15, "note": 73, "velocity": 113, "channel": 0}, {"type": "note_off", "time": 108, "note": 73, "velocity": 113, "channel": 0}, {"type": "note_on", "time": 29, "note": 69, "velocity": 97, "channel": 0}, {"type": "note_off", "time": 30, "note": 69, "velocity": 97, "channel": 0}, {"type": "note_on", "time": 15, "note": 76, "velocity": 117, "channel": 0}, {"type": "note_off", "time": 94, "note": 76, "velocity": 117, "channel": 0}, {"type": "note_on", "time": 11, "note": 71, "velocity": 101, "channel": 0}, {"type": "note_off", "time": 123, "note": 71, "velocity": 101, "channel": 0}, {"type": "note_on", "time": 321, "note": 77, "velocity": 114, "channel": 0}, {"type": "note_off", "time": 84, "note": 77, "velocity": 114, "channel": 0}, {"type": "note_on", "time": 10, "note": 75, "velocity": 120, "channel": 0}, {"type": "note_off", "time": 79, "note": 75, "velocity": 120, "channel": 0}, {"type": "note_on", "time": 29, "note": 70, "velocity": 111, "channel": 0}, {"type": "note_off", "time": 108, "note": 70, "velocity": 111, "channel": 0}, {"type": "note_on", "time": 42, "note": 69, "velocity": 92, "channel": 0}, {"type": "note_off", "time": 22, "note": 69, "velocity": 92, "channel": 0}, {"type": "note_on", "time": 9, "note": 76, "velocity": 114, "channel": 0}, {"type": "note_off", "time": 79, "note": 76, "velocity": 114, "channel": 0}, {"type": "note_on", "time": 23, "note": 71, "velocity": 106, "channel": 0}, {"type": "note_off", "time": 75, "note": 71, "velocity": 106, "channel": 0}, {"type": "note_on", "time": 6, "note": 73, "velocity": 113, "channel": 0}, {"type": "note_off", "time": 75, "note": 73, "velocity": 113, "channel": 0}, {"type": "note_on", "time": 23, "note": 76, "velocity": 118, "channel": 0}, {"type": "note_off", "time": 65, "note": 76, "velocity": 118, "channel": 0}, {"type": "note_on", "time": 18, "note": 71, "velocity": 107, "channel": 0}, {"type": "note_off", "time": 90, "note": 71, "velocity": 107, "channel": 0}, {"type": "note_on", "time": 16, "note": 68, "velocity": 107, "channel": 0}, {"type": "note_off", "time": 155, "note": 68, "velocity": 107, "channel": 0}, {"type": "note_on", "time": 39, "note": 65, "velocity": 102, "channel": 0}, {"type": "note_off", "time": 37, "note": 65, "velocity": 102, "channel": 0}, {"type": "note_on", "time": 39, "note": 75, "velocity": 118, "channel": 0}, {"type": "note_off", "time": 87, "note": 75, "velocity": 118, "channel": 0}, {"type": "note_on", "time": 17, "note": 70, "velocity": 110, "channel": 0}, {"type": "note_off", "time": 71, "note": 70, "velocity": 110, "channel": 0}, {"type": "note_on", "time": 4, "note": 67, "velocity": 107, "channel": 0}, {"type": "note_off", "time": 92, "note": 67, "velocity": 107, "channel": 0}, {"type": "note_on", "time": 47, "note": 65, "velocity": 100, "channel": 0}, {"type": "note_off", "time": 19, "note": 65, "velocity": 100, "channel": 0}, {"type": "note_on", "time": 19, "note": 70, "velocity": 113, "channel": 0}, {"type": "note_off", "time": 111, "note": 70, "velocity": 113, "channel": 0}, {"type": "note_on", "time": 35, "note": 67, "velocity": 106, "channel": 0}, {"type": "note_off", "time": 35, "note": 67, "velocity": 106, "channel": 0}, {"type": "note_on", "time": 17, "note": 69, "velocity": 111, "channel": 0}, {"type": "note_off", "time": 83, "note": 69, "velocity": 111, "channel": 0}, {"type": "note_on", "time": 51, "note": 74, "velocity": 119, "channel": 0}, {"type": "note_off", "time": 60, "note": 74, "velocity": 119, "channel": 0}, {"type": "note_on", "time": 16, "note": 74, "velocity": 116, "channel": 0}, {"type": "note_off", "time": 82, "note": 74, "velocity": 116, "channel": 0}, {"type": "note_on", "time": 8, "note": 74, "velocity": 118, "channel": 0}, {"type": "note_off", "time": 63, "note": 74, "velocity": 118, "channel": 0}, {"type": "note_on", "time": 11, "note": 74, "velocity": 118, "channel": 0}, {"type": "note_off", "time": 50, "note": 74, "velocity": 118, "channel": 0}, {"type": "note_on", "time": 13, "note": 74, "velocity": 115, "channel": 0}, {"type": "note_off", "time": 83, "note": 74, "velocity": 115, "channel": 0}, {"type": "note_on", "time": 18, "note": 70, "velocity": 91, "channel": 0}, {"type": "note_off", "time": 26, "note": 70, "velocity": 91, "channel": 0}, {"type": "note_on", "time": 13, "note": 74, "velocity": 114, "channel": 0}, {"type": "note_off", "time": 186, "note": 74, "velocity": 114, "channel": 0}, {"type": "note_on", "time": 593, "note": 77, "velocity": 110, "channel": 0}, {"type": "note_off", "time": 19, "note": 77, "velocity": 110, "channel": 0}, {"type": "note_on", "time": 4, "note": 79, "velocity": 110, "channel": 0}, {"type": "note_off", "time": 28, "note": 79, "velocity": 110, "channel": 0}, {"type": "note_on", "time": 8, "note": 81, "velocity": 98, "channel": 0}, {"type": "note_off", "time": 771, "note": 81, "velocity": 98, "channel": 0}, {"type": "note_on", "time": 38, "note": 79, "velocity": 105, "channel": 0}, {"type": "note_off", "time": 63, "note": 79, "velocity": 105, "channel": 0}, {"type": "note_on", "time": 20, "note": 77, "velocity": 105, "channel": 0}, {"type": "note_off", "time": 74, "note": 77, "velocity": 105, "channel": 0}, {"type": "note_on", "time": 7, "note": 79, "velocity": 107, "channel": 0}, {"type": "note_off", "time": 57, "note": 79, "velocity": 107, "channel": 0}, {"type": "note_on", "time": 10, "note": 81, "velocity": 107, "channel": 0}, {"type": "note_off", "time": 234, "note": 81, "velocity": 107, "channel": 0}, {"type": "note_on", "time": 631, "note": 79, "velocity": 103, "channel": 0}, {"type": "note_off", "time": 26, "note": 79, "velocity": 103, "channel": 0}, {"type": "note_on", "time": 9, "note": 82, "velocity": 110, "channel": 0}, {"type": "note_off", "time": 81, "note": 82, "velocity": 110, "channel": 0}, {"type": "note_on", "time": 12, "note": 81, "velocity": 107, "channel": 0}, {"type": "note_off", "time": 25, "note": 81, "velocity": 107, "channel": 0}, {"type": "note_on", "time": 7, "note": 80, "velocity": 102, "channel": 0}, {"type": "note_off", "time": 27, "note": 80, "velocity": 102, "channel": 0}, {"type": "note_on", "time": 11, "note": 79, "velocity": 103, "channel": 0}, {"type": "note_off", "time": 30, "note": 79, "velocity": 103, "channel": 0}, {"type": "note_on", "time": 7, "note": 78, "velocity": 110, "channel": 0}, {"type": "note_off", "time": 91, "note": 78, "velocity": 110, "channel": 0}, {"type": "note_on", "time": 26, "note": 79, "velocity": 103, "channel": 0}, {"type": "note_off", "time": 16, "note": 79, "velocity": 103, "channel": 0}, {"type": "note_on", "time": 10, "note": 78, "velocity": 112, "channel": 0}, {"type": "note_off", "time": 20, "note": 78, "velocity": 112, "channel": 0}, {"type": "note_on", "time": 5, "note": 77, "velocity": 106, "channel": 0}, {"type": "note_off", "time": 23, "note": 77, "velocity": 106, "channel": 0}, {"type": "note_on", "time": 9, "note": 76, "velocity": 113, "channel": 0}, {"type": "note_off", "time": 39, "note": 76, "velocity": 113, "channel": 0}, {"type": "note_on", "time": 4, "note": 75, "velocity": 106, "channel": 0}, {"type": "note_off", "time": 33, "note": 75, "velocity": 106, "channel": 0}, {"type": "note_on", "time": 18, "note": 78, "velocity": 112, "channel": 0}, {"type": "note_off", "time": 43, "note": 78, "velocity": 112, "channel": 0}, {"type": "note_on", "time": 11, "note": 76, "velocity": 109, "channel": 0}, {"type": "note_off", "time": 13, "note": 76, "velocity": 109, "channel": 0}, {"type": "note_on", "time": 14, "note": 73, "velocity": 115, "channel": 0}, {"type": "note_off", "time": 49, "note": 73, "velocity": 115, "channel": 0}, {"type": "note_on", "time": 11, "note": 71, "velocity": 101, "channel": 0}, {"type": "note_off", "time": 28, "note": 71, "velocity": 101, "channel": 0}, {"type": "note_on", "time": 14, "note": 76, "velocity": 113, "channel": 0}, {"type": "note_off", "time": 48, "note": 76, "velocity": 113, "channel": 0}, {"type": "note_on", "time": 7, "note": 77, "velocity": 101, "channel": 0}, {"type": "note_off", "time": 24, "note": 77, "velocity": 101, "channel": 0}, {"type": "note_on", "time": 6, "note": 73, "velocity": 115, "channel": 0}, {"type": "note_off", "time": 40, "note": 73, "velocity": 115, "channel": 0}, {"type": "note_on", "time": 7, "note": 72, "velocity": 104, "channel": 0}, {"type": "note_off", "time": 46, "note": 72, "velocity": 104, "channel": 0}, {"type": "note_on", "time": 13, "note": 70, "velocity": 105, "channel": 0}, {"type": "note_off", "time": 24, "note": 70, "velocity": 105, "channel": 0}, {"type": "note_on", "time": 12, "note": 75, "velocity": 116, "channel": 0}, {"type": "note_off", "time": 102, "note": 75, "velocity": 116, "channel": 0}, {"type": "note_on", "time": 9, "note": 75, "velocity": 116, "channel": 0}, {"type": "note_off", "time": 27, "note": 75, "velocity": 116, "channel": 0}, {"type": "note_on", "time": 15, "note": 75, "velocity": 114, "channel": 0}, {"type": "note_off", "time": 31, "note": 75, "velocity": 114, "channel": 0}, {"type": "note_on", "time": 19, "note": 75, "velocity": 117, "channel": 0}, {"type": "note_off", "time": 31, "note": 75, "velocity": 117, "channel": 0}, {"type": "note_on", "time": 11, "note": 75, "velocity": 113, "channel": 0}, {"type": "note_off", "time": 190, "note": 75, "velocity": 113, "channel": 0}, {"type": "note_on", "time": 43, "note": 77, "velocity": 113, "channel": 0}, {"type": "note_off", "time": 101, "note": 77, "velocity": 113, "channel": 0}, {"type": "note_on", "time": 14, "note": 72, "velocity": 112, "channel": 0}, {"type": "note_off", "time": 133, "note": 72, "velocity": 112, "channel": 0}, {"type": "note_on", "time": 32, "note": 70, "velocity": 113, "channel": 0}, {"type": "note_off", "time": 63, "note": 70, "velocity": 113, "channel": 0}, {"type": "note_on", "time": 23, "note": 75, "velocity": 115, "channel": 0}, {"type": "note_off", "time": 95, "note": 75, "velocity": 115, "channel": 0}, {"type": "note_on", "time": 8, "note": 70, "velocity": 104, "channel": 0}, {"type": "note_off", "time": 71, "note": 70, "velocity": 104, "channel": 0}, {"type": "note_on", "time": 12, "note": 65, "velocity": 111, "channel": 0}, {"type": "note_off", "time": 91, "note": 65, "velocity": 111, "channel": 0}, {"type": "note_on", "time": 14, "note": 63, "velocity": 98, "channel": 0}, {"type": "note_off", "time": 62, "note": 63, "velocity": 98, "channel": 0}, {"type": "note_on", "time": 2, "note": 70, "velocity": 113, "channel": 0}, {"type": "note_off", "time": 132, "note": 70, "velocity": 113, "channel": 0}, {"type": "note_on", "time": 59, "note": 75, "velocity": 115, "channel": 0}, {"type": "note_off", "time": 142, "note": 75, "velocity": 115, "channel": 0}, {"type": "note_on", "time": 32, "note": 77, "velocity": 107, "channel": 0}, {"type": "note_off", "time": 202, "note": 77, "velocity": 107, "channel": 0}, {"type": "note_on", "time": 749, "note": 79, "velocity": 88, "channel": 0}, {"type": "note_off", "time": 47, "note": 79, "velocity": 88, "channel": 0}, {"type": "note_on", "time": 11, "note": 84, "velocity": 108, "channel": 0}, {"type": "note_off", "time": 96, "note": 84, "velocity": 108, "channel": 0}, {"type": "note_on", "time": 22, "note": 87, "velocity": 111, "channel": 0}, {"type": "note_off", "time": 135, "note": 87, "velocity": 111, "channel": 0}, {"type": "note_on", "time": 597, "note": 82, "velocity": 92, "channel": 0}, {"type": "note_off", "time": 39, "note": 82, "velocity": 92, "channel": 0}, {"type": "note_on", "time": 17, "note": 85, "velocity": 105, "channel": 0}, {"type": "note_off", "time": 642, "note": 85, "velocity": 105, "channel": 0}, {"type": "note_on", "time": 20, "note": 83, "velocity": 96, "channel": 0}, {"type": "note_off", "time": 75, "note": 83, "velocity": 96, "channel": 0}, {"type": "note_on", "time": 26, "note": 80, "velocity": 100, "channel": 0}, {"type": "note_off", "time": 250, "note": 80, "velocity": 100, "channel": 0}, {"type": "note_on", "time": 406, "note": 78, "velocity": 92, "channel": 0}, {"type": "note_off", "time": 44, "note": 78, "velocity": 92, "channel": 0}, {"type": "note_on", "time": 1, "note": 81, "velocity": 116, "channel": 0}, {"type": "note_off", "time": 91, "note": 81, "velocity": 116, "channel": 0}, {"type": "note_on", "time": 9, "note": 79, "velocity": 110, "channel": 0}, {"type": "note_off", "time": 33, "note": 79, "velocity": 110, "channel": 0}, {"type": "note_on", "time": 6, "note": 77, "velocity": 106, "channel": 0}, {"type": "note_off", "time": 49, "note": 77, "velocity": 106, "channel": 0}, {"type": "note_on", "time": 11, "note": 76, "velocity": 112, "channel": 0}, {"type": "note_off", "time": 29, "note": 76, "velocity": 112, "channel": 0}, {"type": "note_on", "time": 9, "note": 75, "velocity": 109, "channel": 0}, {"type": "note_off", "time": 39, "note": 75, "velocity": 109, "channel": 0}, {"type": "note_on", "time": 16, "note": 79, "velocity": 113, "channel": 0}, {"type": "note_off", "time": 29, "note": 79, "velocity": 113, "channel": 0}, {"type": "note_on", "time": 6, "note": 77, "velocity": 103, "channel": 0}, {"type": "note_off", "time": 23, "note": 77, "velocity": 103, "channel": 0}, {"type": "note_on", "time": 15, "note": 74, "velocity": 111, "channel": 0}, {"type": "note_off", "time": 51, "note": 74, "velocity": 111, "channel": 0}, {"type": "note_on", "time": 12, "note": 72, "velocity": 108, "channel": 0}, {"type": "note_off", "time": 31, "note": 72, "velocity": 108, "channel": 0}, {"type": "note_on", "time": 10, "note": 77, "velocity": 116, "channel": 0}, {"type": "note_off", "time": 36, "note": 77, "velocity": 116, "channel": 0}, {"type": "note_on", "time": 6, "note": 75, "velocity": 116, "channel": 0}, {"type": "note_off", "time": 36, "note": 75, "velocity": 116, "channel": 0}, {"type": "note_on", "time": 5, "note": 73, "velocity": 114, "channel": 0}, {"type": "note_off", "time": 27, "note": 73, "velocity": 114, "channel": 0}, {"type": "note_on", "time": 12, "note": 74, "velocity": 117, "channel": 0}, {"type": "note_off", "time": 119, "note": 74, "velocity": 117, "channel": 0}, {"type": "note_on", "time": 2, "note": 73, "velocity": 111, "channel": 0}, {"type": "note_off", "time": 23, "note": 73, "velocity": 111, "channel": 0}, {"type": "note_on", "time": 7, "note": 72, "velocity": 109, "channel": 0}, {"type": "note_off", "time": 35, "note": 72, "velocity": 109, "channel": 0}, {"type": "note_on", "time": 11, "note": 74, "velocity": 106, "channel": 0}, {"type": "note_off", "time": 42, "note": 74, "velocity": 106, "channel": 0}, {"type": "note_on", "time": 7, "note": 70, "velocity": 96, "channel": 0}, {"type": "note_off", "time": 31, "note": 70, "velocity": 96, "channel": 0}, {"type": "note_on", "time": 12, "note": 73, "velocity": 111, "channel": 0}, {"type": "note_off", "time": 47, "note": 73, "velocity": 111, "channel": 0}, {"type": "note_on", "time": 5, "note": 70, "velocity": 106, "channel": 0}, {"type": "note_off", "time": 29, "note": 70, "velocity": 106, "channel": 0}, {"type": "note_on", "time": 7, "note": 69, "velocity": 108, "channel": 0}, {"type": "note_off", "time": 44, "note": 69, "velocity": 108, "channel": 0}, {"type": "note_on", "time": 3, "note": 67, "velocity": 105, "channel": 0}, {"type": "note_off", "time": 39, "note": 67, "velocity": 105, "channel": 0}, {"type": "note_on", "time": 25, "note": 65, "velocity": 97, "channel": 0}, {"type": "note_off", "time": 36, "note": 65, "velocity": 97, "channel": 0}, {"type": "note_on", "time": 13, "note": 69, "velocity": 104, "channel": 0}, {"type": "note_off", "time": 31, "note": 69, "velocity": 104, "channel": 0}, {"type": "note_on", "time": 2, "note": 71, "velocity": 102, "channel": 0}, {"type": "note_off", "time": 36, "note": 71, "velocity": 102, "channel": 0}, {"type": "note_on", "time": 7, "note": 73, "velocity": 114, "channel": 0}, {"type": "note_off", "time": 39, "note": 73, "velocity": 114, "channel": 0}, {"type": "note_on", "time": 15, "note": 78, "velocity": 118, "channel": 0}, {"type": "note_off", "time": 36, "note": 78, "velocity": 118, "channel": 0}, {"type": "note_on", "time": 7, "note": 76, "velocity": 106, "channel": 0}, {"type": "note_off", "time": 31, "note": 76, "velocity": 106, "channel": 0}, {"type": "note_on", "time": 7, "note": 73, "velocity": 115, "channel": 0}, {"type": "note_off", "time": 32, "note": 73, "velocity": 115, "channel": 0}, {"type": "note_on", "time": 5, "note": 71, "velocity": 114, "channel": 0}, {"type": "note_off", "time": 33, "note": 71, "velocity": 114, "channel": 0}, {"type": "note_on", "time": 26, "note": 76, "velocity": 114, "channel": 0}, {"type": "note_off", "time": 34, "note": 76, "velocity": 114, "channel": 0}, {"type": "note_on", "time": 7, "note": 77, "velocity": 116, "channel": 0}, {"type": "note_off", "time": 35, "note": 77, "velocity": 116, "channel": 0}, {"type": "note_on", "time": 4, "note": 76, "velocity": 115, "channel": 0}, {"type": "note_off", "time": 39, "note": 76, "velocity": 115, "channel": 0}, {"type": "note_on", "time": 8, "note": 75, "velocity": 116, "channel": 0}, {"type": "note_off", "time": 59, "note": 75, "velocity": 116, "channel": 0}, {"type": "note_on", "time": 14, "note": 79, "velocity": 109, "channel": 0}, {"type": "note_off", "time": 51, "note": 79, "velocity": 109, "channel": 0}, {"type": "note_on", "time": 503, "note": 77, "velocity": 109, "channel": 0}, {"type": "note_off", "time": 31, "note": 77, "velocity": 109, "channel": 0}, {"type": "note_on", "time": 4, "note": 75, "velocity": 113, "channel": 0}, {"type": "note_off", "time": 39, "note": 75, "velocity": 113, "channel": 0}, {"type": "note_on", "time": 7, "note": 77, "velocity": 101, "channel": 0}, {"type": "note_off", "time": 27, "note": 77, "velocity": 101, "channel": 0}, {"type": "note_on", "time": 5, "note": 78, "velocity": 106, "channel": 0}, {"type": "note_off", "time": 46, "note": 78, "velocity": 106, "channel": 0}, {"type": "note_on", "time": 24, "note": 80, "velocity": 104, "channel": 0}, {"type": "note_off", "time": 32, "note": 80, "velocity": 104, "channel": 0}, {"type": "note_on", "time": 6, "note": 77, "velocity": 111, "channel": 0}, {"type": "note_off", "time": 35, "note": 77, "velocity": 111, "channel": 0}, {"type": "note_on", "time": 7, "note": 76, "velocity": 111, "channel": 0}, {"type": "note_off", "time": 36, "note": 76, "velocity": 111, "channel": 0}, {"type": "note_on", "time": 14, "note": 75, "velocity": 101, "channel": 0}, {"type": "note_off", "time": 38, "note": 75, "velocity": 101, "channel": 0}, {"type": "note_on", "time": 11, "note": 78, "velocity": 115, "channel": 0}, {"type": "note_off", "time": 35, "note": 78, "velocity": 115, "channel": 0}, {"type": "note_on", "time": 8, "note": 76, "velocity": 103, "channel": 0}, {"type": "note_off", "time": 35, "note": 76, "velocity": 103, "channel": 0}, {"type": "note_on", "time": 8, "note": 73, "velocity": 114, "channel": 0}, {"type": "note_off", "time": 43, "note": 73, "velocity": 114, "channel": 0}, {"type": "note_on", "time": 7, "note": 71, "velocity": 105, "channel": 0}, {"type": "note_off", "time": 27, "note": 71, "velocity": 105, "channel": 0}, {"type": "note_on", "time": 12, "note": 69, "velocity": 90, "channel": 0}, {"type": "note_off", "time": 31, "note": 69, "velocity": 90, "channel": 0}, {"type": "note_on", "time": 4, "note": 77, "velocity": 108, "channel": 0}, {"type": "note_off", "time": 46, "note": 77, "velocity": 108, "channel": 0}, {"type": "note_on", "time": 17, "note": 73, "velocity": 112, "channel": 0}, {"type": "note_off", "time": 37, "note": 73, "velocity": 112, "channel": 0}, {"type": "note_on", "time": 7, "note": 71, "velocity": 103, "channel": 0}, {"type": "note_off", "time": 33, "note": 71, "velocity": 103, "channel": 0}, {"type": "note_on", "time": 5, "note": 70, "velocity": 95, "channel": 0}, {"type": "note_off", "time": 36, "note": 70, "velocity": 95, "channel": 0}, {"type": "note_on", "time": 7, "note": 75, "velocity": 116, "channel": 0}, {"type": "note_off", "time": 47, "note": 75, "velocity": 116, "channel": 0}, {"type": "note_on", "time": 11, "note": 71, "velocity": 109, "channel": 0}, {"type": "note_off", "time": 32, "note": 71, "velocity": 109, "channel": 0}, {"type": "note_on", "time": 3, "note": 70, "velocity": 102, "channel": 0}, {"type": "note_off", "time": 47, "note": 70, "velocity": 102, "channel": 0}, {"type": "note_on", "time": 7, "note": 69, "velocity": 94, "channel": 0}, {"type": "note_off", "time": 17, "note": 69, "velocity": 94, "channel": 0}, {"type": "note_on", "time": 31, "note": 72, "velocity": 112, "channel": 0}, {"type": "note_off", "time": 55, "note": 72, "velocity": 112, "channel": 0}, {"type": "note_on", "time": 7, "note": 71, "velocity": 107, "channel": 0}, {"type": "note_off", "time": 54, "note": 71, "velocity": 107, "channel": 0}, {"type": "note_on", "time": 8, "note": 75, "velocity": 101, "channel": 0}, {"type": "note_off", "time": 23, "note": 75, "velocity": 101, "channel": 0}, {"type": "note_on", "time": 1, "note": 73, "velocity": 109, "channel": 0}, {"type": "note_off", "time": 28, "note": 73, "velocity": 109, "channel": 0}, {"type": "note_on", "time": 25, "note": 69, "velocity": 105, "channel": 0}, {"type": "note_off", "time": 26, "note": 69, "velocity": 105, "channel": 0}, {"type": "note_on", "time": 7, "note": 68, "velocity": 107, "channel": 0}, {"type": "note_off", "time": 48, "note": 68, "velocity": 107, "channel": 0}, {"type": "note_on", "time": 6, "note": 65, "velocity": 101, "channel": 0}, {"type": "note_off", "time": 38, "note": 65, "velocity": 101, "channel": 0}, {"type": "note_on", "time": 12, "note": 70, "velocity": 108, "channel": 0}, {"type": "note_off", "time": 28, "note": 70, "velocity": 108, "channel": 0}, {"type": "note_on", "time": 8, "note": 68, "velocity": 106, "channel": 0}, {"type": "note_off", "time": 27, "note": 68, "velocity": 106, "channel": 0}, {"type": "note_on", "time": 4, "note": 69, "velocity": 97, "channel": 0}, {"type": "note_off", "time": 30, "note": 69, "velocity": 97, "channel": 0}, {"type": "note_on", "time": 553, "note": 77, "velocity": 105, "channel": 0}, {"type": "note_off", "time": 31, "note": 77, "velocity": 105, "channel": 0}, {"type": "note_on", "time": 8, "note": 75, "velocity": 109, "channel": 0}, {"type": "note_off", "time": 31, "note": 75, "velocity": 109, "channel": 0}, {"type": "note_on", "time": 10, "note": 73, "velocity": 113, "channel": 0}, {"type": "note_off", "time": 43, "note": 73, "velocity": 113, "channel": 0}, {"type": "note_on", "time": 11, "note": 75, "velocity": 110, "channel": 0}, {"type": "note_off", "time": 33, "note": 75, "velocity": 110, "channel": 0}, {"type": "note_on", "time": 39, "note": 68, "velocity": 95, "channel": 0}, {"type": "note_off", "time": 21, "note": 68, "velocity": 95, "channel": 0}, {"type": "note_on", "time": 7, "note": 70, "velocity": 104, "channel": 0}, {"type": "note_off", "time": 27, "note": 70, "velocity": 104, "channel": 0}, {"type": "note_on", "time": 11, "note": 73, "velocity": 110, "channel": 0}, {"type": "note_off", "time": 42, "note": 73, "velocity": 110, "channel": 0}, {"type": "note_on", "time": 5, "note": 72, "velocity": 113, "channel": 0}, {"type": "note_off", "time": 35, "note": 72, "velocity": 113, "channel": 0}, {"type": "note_on", "time": 11, "note": 70, "velocity": 113, "channel": 0}, {"type": "note_off", "time": 63, "note": 70, "velocity": 113, "channel": 0}, {"type": "note_on", "time": 9, "note": 68, "velocity": 102, "channel": 0}, {"type": "note_off", "time": 27, "note": 68, "velocity": 102, "channel": 0}, {"type": "note_on", "time": 5, "note": 66, "velocity": 99, "channel": 0}, {"type": "note_off", "time": 31, "note": 66, "velocity": 99, "channel": 0}, {"type": "note_on", "time": 4, "note": 70, "velocity": 111, "channel": 0}, {"type": "note_off", "time": 51, "note": 70, "velocity": 111, "channel": 0}, {"type": "note_on", "time": 7, "note": 69, "velocity": 109, "channel": 0}, {"type": "note_off", "time": 35, "note": 69, "velocity": 109, "channel": 0}, {"type": "note_on", "time": 10, "note": 68, "velocity": 108, "channel": 0}, {"type": "note_off", "time": 36, "note": 68, "velocity": 108, "channel": 0}, {"type": "note_on", "time": 18, "note": 63, "velocity": 97, "channel": 0}, {"type": "note_off", "time": 28, "note": 63, "velocity": 97, "channel": 0}, {"type": "note_on", "time": 4, "note": 65, "velocity": 95, "channel": 0}, {"type": "note_off", "time": 31, "note": 65, "velocity": 95, "channel": 0}, {"type": "note_on", "time": 27, "note": 65, "velocity": 110, "channel": 0}, {"type": "note_off", "time": 37, "note": 65, "velocity": 110, "channel": 0}, {"type": "note_on", "time": 7, "note": 63, "velocity": 104, "channel": 0}, {"type": "note_off", "time": 40, "note": 63, "velocity": 104, "channel": 0}, {"type": "note_on", "time": 10, "note": 56, "velocity": 98, "channel": 0}, {"type": "note_off", "time": 43, "note": 56, "velocity": 98, "channel": 0}, {"type": "note_on", "time": 7, "note": 58, "velocity": 102, "channel": 0}, {"type": "note_off", "time": 194, "note": 58, "velocity": 102, "channel": 0}, {"type": "note_on", "time": 16, "note": 57, "velocity": 100, "channel": 0}, {"type": "note_off", "time": 21, "note": 57, "velocity": 100, "channel": 0}, {"type": "note_on", "time": 8, "note": 58, "velocity": 102, "channel": 0}, {"type": "note_off", "time": 22, "note": 58, "velocity": 102, "channel": 0}, {"type": "note_on", "time": 12, "note": 61, "velocity": 103, "channel": 0}, {"type": "note_off", "time": 27, "note": 61, "velocity": 103, "channel": 0}, {"type": "note_on", "time": 8, "note": 60, "velocity": 100, "channel": 0}, {"type": "note_off", "time": 25, "note": 60, "velocity": 100, "channel": 0}, {"type": "note_on", "time": 43, "note": 70, "velocity": 105, "channel": 0}, {"type": "note_off", "time": 35, "note": 70, "velocity": 105, "channel": 0}, {"type": "note_on", "time": 3, "note": 69, "velocity": 105, "channel": 0}, {"type": "note_off", "time": 35, "note": 69, "velocity": 105, "channel": 0}, {"type": "note_on", "time": 17, "note": 70, "velocity": 102, "channel": 0}, {"type": "note_off", "time": 418, "note": 70, "velocity": 102, "channel": 0}, {"type": "note_on", "time": 511, "note": 75, "velocity": 111, "channel": 0}, {"type": "note_off", "time": 42, "note": 75, "velocity": 111, "channel": 0}, {"type": "note_on", "time": 23, "note": 77, "velocity": 93, "channel": 0}, {"type": "note_off", "time": 13, "note": 77, "velocity": 93, "channel": 0}, {"type": "note_on", "time": 5, "note": 78, "velocity": 106, "channel": 0}, {"type": "note_off", "time": 50, "note": 78, "velocity": 106, "channel": 0}, {"type": "note_on", "time": 17, "note": 80, "velocity": 109, "channel": 0}, {"type": "note_off", "time": 40, "note": 80, "velocity": 109, "channel": 0}, {"type": "note_on", "time": 6, "note": 77, "velocity": 113, "channel": 0}, {"type": "note_off", "time": 39, "note": 77, "velocity": 113, "channel": 0}, {"type": "note_on", "time": 12, "note": 76, "velocity": 114, "channel": 0}, {"type": "note_off", "time": 44, "note": 76, "velocity": 114, "channel": 0}, {"type": "note_on", "time": 11, "note": 75, "velocity": 108, "channel": 0}, {"type": "note_off", "time": 38, "note": 75, "velocity": 108, "channel": 0}, {"type": "note_on", "time": 19, "note": 78, "velocity": 112, "channel": 0}, {"type": "note_off", "time": 48, "note": 78, "velocity": 112, "channel": 0}, {"type": "note_on", "time": 7, "note": 76, "velocity": 113, "channel": 0}, {"type": "note_off", "time": 23, "note": 76, "velocity": 113, "channel": 0}, {"type": "note_on", "time": 3, "note": 75, "velocity": 97, "channel": 0}, {"type": "note_off", "time": 21, "note": 75, "velocity": 97, "channel": 0}, {"type": "note_on", "time": 3, "note": 73, "velocity": 111, "channel": 0}, {"type": "note_off", "time": 39, "note": 73, "velocity": 111, "channel": 0}, {"type": "note_on", "time": 4, "note": 71, "velocity": 109, "channel": 0}, {"type": "note_off", "time": 41, "note": 71, "velocity": 109, "channel": 0}, {"type": "note_on", "time": 19, "note": 69, "velocity": 102, "channel": 0}, {"type": "note_off", "time": 21, "note": 69, "velocity": 102, "channel": 0}, {"type": "note_on", "time": 5, "note": 76, "velocity": 110, "channel": 0}, {"type": "note_off", "time": 29, "note": 76, "velocity": 110, "channel": 0}, {"type": "note_on", "time": 10, "note": 71, "velocity": 110, "channel": 0}, {"type": "note_off", "time": 41, "note": 71, "velocity": 110, "channel": 0}, {"type": "note_on", "time": 5, "note": 73, "velocity": 108, "channel": 0}, {"type": "note_off", "time": 40, "note": 73, "velocity": 108, "channel": 0}, {"type": "note_on", "time": 6, "note": 69, "velocity": 108, "channel": 0}, {"type": "note_off", "time": 29, "note": 69, "velocity": 108, "channel": 0}, {"type": "note_on", "time": 7, "note": 66, "velocity": 98, "channel": 0}, {"type": "note_off", "time": 47, "note": 66, "velocity": 98, "channel": 0}, {"type": "note_on", "time": 16, "note": 71, "velocity": 102, "channel": 0}, {"type": "note_off", "time": 44, "note": 71, "velocity": 102, "channel": 0}, {"type": "note_on", "time": 3, "note": 68, "velocity": 109, "channel": 0}, {"type": "note_off", "time": 43, "note": 68, "velocity": 109, "channel": 0}, {"type": "note_on", "time": 2, "note": 64, "velocity": 98, "channel": 0}, {"type": "note_off", "time": 38, "note": 64, "velocity": 98, "channel": 0}, {"type": "note_on", "time": 9, "note": 69, "velocity": 112, "channel": 0}, {"type": "note_off", "time": 127, "note": 69, "velocity": 112, "channel": 0}, {"type": "note_on", "time": 11, "note": 65, "velocity": 97, "channel": 0}, {"type": "note_off", "time": 33, "note": 65, "velocity": 97, "channel": 0}, {"type": "note_on", "time": 21, "note": 70, "velocity": 112, "channel": 0}, {"type": "note_off", "time": 108, "note": 70, "velocity": 112, "channel": 0}, {"type": "note_on", "time": 19, "note": 67, "velocity": 98, "channel": 0}, {"type": "note_off", "time": 29, "note": 67, "velocity": 98, "channel": 0}, {"type": "note_on", "time": 23, "note": 71, "velocity": 102, "channel": 0}, {"type": "note_off", "time": 69, "note": 71, "velocity": 102, "channel": 0}, {"type": "note_on", "time": 7, "note": 72, "velocity": 98, "channel": 0}, {"type": "note_off", "time": 86, "note": 72, "velocity": 98, "channel": 0}, {"type": "note_on", "time": 19, "note": 73, "velocity": 102, "channel": 0}, {"type": "note_off", "time": 78, "note": 73, "velocity": 102, "channel": 0}, {"type": "note_on", "time": 75, "note": 73, "velocity": 112, "channel": 0}, {"type": "note_off", "time": 87, "note": 73, "velocity": 112, "channel": 0}, {"type": "note_on", "time": 25, "note": 74, "velocity": 113, "channel": 0}, {"type": "note_off", "time": 426, "note": 74, "velocity": 113, "channel": 0}, {"type": "note_on", "time": 14, "note": 74, "velocity": 110, "channel": 0}, {"type": "note_off", "time": 27, "note": 74, "velocity": 110, "channel": 0}, {"type": "note_on", "time": 23, "note": 74, "velocity": 109, "channel": 0}, {"type": "note_off", "time": 124, "note": 74, "velocity": 109, "channel": 0}, {"type": "note_on", "time": 12, "note": 74, "velocity": 108, "channel": 0}, {"type": "note_off", "time": 30, "note": 74, "velocity": 108, "channel": 0}, {"type": "note_on", "time": 15, "note": 74, "velocity": 110, "channel": 0}, {"type": "note_off", "time": 137, "note": 74, "velocity": 110, "channel": 0}, {"type": "note_on", "time": 12, "note": 74, "velocity": 107, "channel": 0}, {"type": "note_off", "time": 36, "note": 74, "velocity": 107, "channel": 0}, {"type": "note_on", "time": 12, "note": 74, "velocity": 109, "channel": 0}, {"type": "note_off", "time": 113, "note": 74, "velocity": 109, "channel": 0}, {"type": "note_on", "time": 22, "note": 74, "velocity": 97, "channel": 0}, {"type": "note_off", "time": 43, "note": 74, "velocity": 97, "channel": 0}, {"type": "note_on", "time": 979, "note": 69, "velocity": 106, "channel": 0}, {"type": "note_off", "time": 51, "note": 69, "velocity": 106, "channel": 0}, {"type": "note_on", "time": 44, "note": 76, "velocity": 113, "channel": 0}, {"type": "note_off", "time": 78, "note": 76, "velocity": 113, "channel": 0}, {"type": "note_on", "time": 12, "note": 74, "velocity": 110, "channel": 0}, {"type": "note_off", "time": 80, "note": 74, "velocity": 110, "channel": 0}, {"type": "note_on", "time": 35, "note": 71, "velocity": 102, "channel": 0}, {"type": "note_off", "time": 77, "note": 71, "velocity": 102, "channel": 0}, {"type": "note_on", "time": 15, "note": 69, "velocity": 106, "channel": 0}, {"type": "note_off", "time": 117, "note": 69, "velocity": 106, "channel": 0}, {"type": "note_on", "time": 15, "note": 64, "velocity": 93, "channel": 0}, {"type": "note_off", "time": 38, "note": 64, "velocity": 93, "channel": 0}, {"type": "note_on", "time": 15, "note": 67, "velocity": 103, "channel": 0}, {"type": "note_off", "time": 34, "note": 67, "velocity": 103, "channel": 0}, {"type": "note_on", "time": 14, "note": 69, "velocity": 105, "channel": 0}, {"type": "note_off", "time": 87, "note": 69, "velocity": 105, "channel": 0}, {"type": "note_on", "time": 16, "note": 67, "velocity": 105, "channel": 0}, {"type": "note_off", "time": 57, "note": 67, "velocity": 105, "channel": 0}, {"type": "note_on", "time": 67, "note": 73, "velocity": 111, "channel": 0}, {"type": "note_off", "time": 66, "note": 73, "velocity": 111, "channel": 0}, {"type": "note_on", "time": 4, "note": 74, "velocity": 108, "channel": 0}, {"type": "note_off", "time": 86, "note": 74, "velocity": 108, "channel": 0}, {"type": "note_on", "time": 15, "note": 69, "velocity": 103, "channel": 0}, {"type": "note_off", "time": 177, "note": 69, "velocity": 103, "channel": 0}, {"type": "note_on", "time": 12, "note": 65, "velocity": 90, "channel": 0}, {"type": "note_off", "time": 40, "note": 65, "velocity": 90, "channel": 0}, {"type": "note_on", "time": 6, "note": 70, "velocity": 108, "channel": 0}, {"type": "note_off", "time": 117, "note": 70, "velocity": 108, "channel": 0}, {"type": "note_on", "time": 8, "note": 67, "velocity": 88, "channel": 0}, {"type": "note_off", "time": 295, "note": 67, "velocity": 88, "channel": 0}, {"type": "note_on", "time": 20, "note": 70, "velocity": 103, "channel": 0}, {"type": "note_off", "time": 69, "note": 70, "velocity": 103, "channel": 0}, {"type": "note_on", "time": 14, "note": 69, "velocity": 102, "channel": 0}, {"type": "note_off", "time": 78, "note": 69, "velocity": 102, "channel": 0}, {"type": "note_on", "time": 28, "note": 64, "velocity": 101, "channel": 0}, {"type": "note_off", "time": 47, "note": 64, "velocity": 101, "channel": 0}, {"type": "note_on", "time": 24, "note": 61, "velocity": 97, "channel": 0}, {"type": "note_off", "time": 92, "note": 61, "velocity": 97, "channel": 0}, {"type": "note_on", "time": 25, "note": 58, "velocity": 102, "channel": 0}, {"type": "note_off", "time": 76, "note": 58, "velocity": 102, "channel": 0}, {"type": "note_on", "time": 14, "note": 57, "velocity": 100, "channel": 0}, {"type": "note_off", "time": 199, "note": 57, "velocity": 100, "channel": 0}, {"type": "note_on", "time": 675, "note": 65, "velocity": 105, "channel": 0}, {"type": "note_off", "time": 69, "note": 65, "velocity": 105, "channel": 0}, {"type": "note_on", "time": 15, "note": 60, "velocity": 87, "channel": 0}, {"type": "note_off", "time": 61, "note": 60, "velocity": 87, "channel": 0}, {"type": "note_on", "time": 55, "note": 65, "velocity": 103, "channel": 0}, {"type": "note_off", "time": 79, "note": 65, "velocity": 103, "channel": 0}, {"type": "note_on", "time": 13, "note": 70, "velocity": 110, "channel": 0}, {"type": "note_off", "time": 86, "note": 70, "velocity": 110, "channel": 0}, {"type": "note_on", "time": 19, "note": 75, "velocity": 118, "channel": 0}, {"type": "note_off", "time": 71, "note": 75, "velocity": 118, "channel": 0}, {"type": "note_on", "time": 11, "note": 77, "velocity": 116, "channel": 0}, {"type": "note_off", "time": 105, "note": 77, "velocity": 116, "channel": 0}, {"type": "note_on", "time": 97, "note": 72, "velocity": 102, "channel": 0}, {"type": "note_off", "time": 112, "note": 72, "velocity": 102, "channel": 0}, {"type": "note_on", "time": 627, "note": 77, "velocity": 113, "channel": 0}, {"type": "note_off", "time": 114, "note": 77, "velocity": 113, "channel": 0}, {"type": "note_on", "time": 40, "note": 75, "velocity": 117, "channel": 0}, {"type": "note_off", "time": 77, "note": 75, "velocity": 117, "channel": 0}, {"type": "note_on", "time": 26, "note": 70, "velocity": 109, "channel": 0}, {"type": "note_off", "time": 75, "note": 70, "velocity": 109, "channel": 0}, {"type": "note_on", "time": 26, "note": 65, "velocity": 101, "channel": 0}, {"type": "note_off", "time": 58, "note": 65, "velocity": 101, "channel": 0}, {"type": "note_on", "time": 23, "note": 60, "velocity": 93, "channel": 0}, {"type": "note_off", "time": 61, "note": 60, "velocity": 93, "channel": 0}, {"type": "note_on", "time": 37, "note": 65, "velocity": 106, "channel": 0}, {"type": "note_off", "time": 60, "note": 65, "velocity": 106, "channel": 0}, {"type": "note_on", "time": 28, "note": 58, "velocity": 103, "channel": 0}, {"type": "note_off", "time": 95, "note": 58, "velocity": 103, "channel": 0}, {"type": "note_on", "time": 29, "note": 56, "velocity": 87, "channel": 0}, {"type": "note_off", "time": 33, "note": 56, "velocity": 87, "channel": 0}, {"type": "note_on", "time": 28, "note": 63, "velocity": 105, "channel": 0}, {"type": "note_off", "time": 98, "note": 63, "velocity": 105, "channel": 0}, {"type": "note_on", "time": 32, "note": 58, "velocity": 89, "channel": 0}, {"type": "note_off", "time": 35, "note": 58, "velocity": 89, "channel": 0}, {"type": "note_on", "time": 20, "note": 65, "velocity": 103, "channel": 0}, {"type": "note_off", "time": 79, "note": 65, "velocity": 103, "channel": 0}, {"type": "note_on", "time": 16, "note": 68, "velocity": 108, "channel": 0}, {"type": "note_off", "time": 78, "note": 68, "velocity": 108, "channel": 0}, {"type": "note_on", "time": 31, "note": 70, "velocity": 110, "channel": 0}, {"type": "note_off", "time": 340, "note": 70, "velocity": 110, "channel": 0}, {"type": "note_on", "time": 32, "note": 73, "velocity": 118, "channel": 0}, {"type": "note_off", "time": 90, "note": 73, "velocity": 118, "channel": 0}, {"type": "note_on", "time": 11, "note": 71, "velocity": 112, "channel": 0}, {"type": "note_off", "time": 70, "note": 71, "velocity": 112, "channel": 0}, {"type": "note_on", "time": 17, "note": 73, "velocity": 116, "channel": 0}, {"type": "note_off", "time": 96, "note": 73, "velocity": 116, "channel": 0}, {"type": "note_on", "time": 11, "note": 78, "velocity": 119, "channel": 0}, {"type": "note_off", "time": 69, "note": 78, "velocity": 119, "channel": 0}, {"type": "note_on", "time": 22, "note": 73, "velocity": 118, "channel": 0}, {"type": "note_off", "time": 88, "note": 73, "velocity": 118, "channel": 0}, {"type": "note_on", "time": 11, "note": 71, "velocity": 110, "channel": 0}, {"type": "note_off", "time": 65, "note": 71, "velocity": 110, "channel": 0}, {"type": "note_on", "time": 34, "note": 66, "velocity": 99, "channel": 0}, {"type": "note_off", "time": 90, "note": 66, "velocity": 99, "channel": 0}, {"type": "note_on", "time": 46, "note": 68, "velocity": 82, "channel": 0}, {"type": "note_off", "time": 23, "note": 68, "velocity": 82, "channel": 0}, {"type": "note_on", "time": 14, "note": 71, "velocity": 106, "channel": 0}, {"type": "note_off", "time": 189, "note": 71, "velocity": 106, "channel": 0}, {"type": "note_on", "time": 690, "note": 77, "velocity": 107, "channel": 0}, {"type": "note_off", "time": 32, "note": 77, "velocity": 107, "channel": 0}, {"type": "note_on", "time": 11, "note": 74, "velocity": 97, "channel": 0}, {"type": "note_off", "time": 26, "note": 74, "velocity": 97, "channel": 0}, {"type": "note_on", "time": 7, "note": 73, "velocity": 105, "channel": 0}, {"type": "note_off", "time": 24, "note": 73, "velocity": 105, "channel": 0}, {"type": "note_on", "time": 13, "note": 68, "velocity": 93, "channel": 0}, {"type": "note_off", "time": 20, "note": 68, "velocity": 93, "channel": 0}, {"type": "note_on", "time": 1, "note": 67, "velocity": 98, "channel": 0}, {"type": "note_off", "time": 287, "note": 67, "velocity": 98, "channel": 0}, {"type": "note_on", "time": 44, "note": 75, "velocity": 119, "channel": 0}, {"type": "note_off", "time": 83, "note": 75, "velocity": 119, "channel": 0}, {"type": "note_on", "time": 34, "note": 68, "velocity": 98, "channel": 0}, {"type": "note_off", "time": 81, "note": 68, "velocity": 98, "channel": 0}, {"type": "note_on", "time": 4, "note": 70, "velocity": 96, "channel": 0}, {"type": "note_off", "time": 75, "note": 70, "velocity": 96, "channel": 0}, {"type": "note_on", "time": 432, "note": 73, "velocity": 110, "channel": 0}, {"type": "note_off", "time": 34, "note": 73, "velocity": 110, "channel": 0}, {"type": "note_on", "time": 4, "note": 74, "velocity": 116, "channel": 0}, {"type": "note_off", "time": 86, "note": 74, "velocity": 116, "channel": 0}, {"type": "note_on", "time": 48, "note": 74, "velocity": 115, "channel": 0}, {"type": "note_off", "time": 73, "note": 74, "velocity": 115, "channel": 0}, {"type": "note_on", "time": 17, "note": 72, "velocity": 114, "channel": 0}, {"type": "note_off", "time": 112, "note": 72, "velocity": 114, "channel": 0}, {"type": "note_on", "time": 17, "note": 70, "velocity": 99, "channel": 0}, {"type": "note_off", "time": 30, "note": 70, "velocity": 99, "channel": 0}, {"type": "note_on", "time": 13, "note": 75, "velocity": 118, "channel": 0}, {"type": "note_off", "time": 86, "note": 75, "velocity": 118, "channel": 0}, {"type": "note_on", "time": 30, "note": 68, "velocity": 83, "channel": 0}, {"type": "note_off", "time": 47, "note": 68, "velocity": 83, "channel": 0}, {"type": "note_on", "time": 11, "note": 70, "velocity": 94, "channel": 0}, {"type": "note_off", "time": 124, "note": 70, "velocity": 94, "channel": 0}, {"type": "note_on", "time": 450, "note": 76, "velocity": 119, "channel": 0}, {"type": "note_off", "time": 70, "note": 76, "velocity": 119, "channel": 0}, {"type": "note_on", "time": 14, "note": 74, "velocity": 119, "channel": 0}, {"type": "note_off", "time": 76, "note": 74, "velocity": 119, "channel": 0}, {"type": "note_on", "time": 12, "note": 71, "velocity": 109, "channel": 0}, {"type": "note_off", "time": 92, "note": 71, "velocity": 109, "channel": 0}, {"type": "note_on", "time": 16, "note": 70, "velocity": 88, "channel": 0}, {"type": "note_off", "time": 23, "note": 70, "velocity": 88, "channel": 0}, {"type": "note_on", "time": 15, "note": 77, "velocity": 114, "channel": 0}, {"type": "note_off", "time": 64, "note": 77, "velocity": 114, "channel": 0}, {"type": "note_on", "time": 11, "note": 75, "velocity": 118, "channel": 0}, {"type": "note_off", "time": 67, "note": 75, "velocity": 118, "channel": 0}, {"type": "note_on", "time": 23, "note": 70, "velocity": 109, "channel": 0}, {"type": "note_off", "time": 61, "note": 70, "velocity": 109, "channel": 0}, {"type": "note_on", "time": 22, "note": 66, "velocity": 99, "channel": 0}, {"type": "note_off", "time": 38, "note": 66, "velocity": 99, "channel": 0}, {"type": "note_on", "time": 14, "note": 68, "velocity": 104, "channel": 0}, {"type": "note_off", "time": 61, "note": 68, "velocity": 104, "channel": 0}, {"type": "note_on", "time": 66, "note": 75, "velocity": 84, "channel": 0}, {"type": "note_off", "time": 23, "note": 75, "velocity": 84, "channel": 0}, {"type": "note_on", "time": 3, "note": 76, "velocity": 112, "channel": 0}, {"type": "note_off", "time": 65, "note": 76, "velocity": 112, "channel": 0}, {"type": "note_on", "time": 10, "note": 74, "velocity": 116, "channel": 0}, {"type": "note_off", "time": 61, "note": 74, "velocity": 116, "channel": 0}, {"type": "note_on", "time": 16, "note": 71, "velocity": 108, "channel": 0}, {"type": "note_off", "time": 48, "note": 71, "velocity": 108, "channel": 0}, {"type": "note_on", "time": 6, "note": 73, "velocity": 113, "channel": 0}, {"type": "note_off", "time": 132, "note": 73, "velocity": 113, "channel": 0}, {"type": "note_on", "time": 8, "note": 72, "velocity": 112, "channel": 0}, {"type": "note_off", "time": 50, "note": 72, "velocity": 112, "channel": 0}, {"type": "note_on", "time": 7, "note": 71, "velocity": 103, "channel": 0}, {"type": "note_off", "time": 28, "note": 71, "velocity": 103, "channel": 0}, {"type": "note_on", "time": 7, "note": 75, "velocity": 113, "channel": 0}, {"type": "note_off", "time": 33, "note": 75, "velocity": 113, "channel": 0}, {"type": "note_on", "time": 7, "note": 73, "velocity": 109, "channel": 0}, {"type": "note_off", "time": 21, "note": 73, "velocity": 109, "channel": 0}, {"type": "note_on", "time": 15, "note": 69, "velocity": 104, "channel": 0}, {"type": "note_off", "time": 64, "note": 69, "velocity": 104, "channel": 0}, {"type": "note_on", "time": 3, "note": 68, "velocity": 106, "channel": 0}, {"type": "note_off", "time": 34, "note": 68, "velocity": 106, "channel": 0}, {"type": "note_on", "time": 14, "note": 65, "velocity": 97, "channel": 0}, {"type": "note_off", "time": 37, "note": 65, "velocity": 97, "channel": 0}, {"type": "note_on", "time": 2, "note": 70, "velocity": 112, "channel": 0}, {"type": "note_off", "time": 32, "note": 70, "velocity": 112, "channel": 0}, {"type": "note_on", "time": 13, "note": 67, "velocity": 107, "channel": 0}, {"type": "note_off", "time": 58, "note": 67, "velocity": 107, "channel": 0}, {"type": "note_on", "time": 5, "note": 69, "velocity": 108, "channel": 0}, {"type": "note_off", "time": 158, "note": 69, "velocity": 108, "channel": 0}, {"type": "note_on", "time": 17, "note": 67, "velocity": 105, "channel": 0}, {"type": "note_off", "time": 123, "note": 67, "velocity": 105, "channel": 0}, {"type": "note_on", "time": 21, "note": 65, "velocity": 93, "channel": 0}, {"type": "note_off", "time": 44, "note": 65, "velocity": 93, "channel": 0}, {"type": "note_on", "time": 9, "note": 67, "velocity": 104, "channel": 0}, {"type": "note_off", "time": 41, "note": 67, "velocity": 104, "channel": 0}, {"type": "note_on", "time": 7, "note": 69, "velocity": 108, "channel": 0}, {"type": "note_off", "time": 55, "note": 69, "velocity": 108, "channel": 0}, {"type": "note_on", "time": 31, "note": 62, "velocity": 100, "channel": 0}, {"type": "note_off", "time": 58, "note": 62, "velocity": 100, "channel": 0}, {"type": "note_on", "time": 28, "note": 65, "velocity": 90, "channel": 0}, {"type": "note_off", "time": 973, "note": 65, "velocity": 90, "channel": 0}, {"type": "note_on", "time": 43, "note": 62, "velocity": 98, "channel": 0}, {"type": "note_off", "time": 54, "note": 62, "velocity": 98, "channel": 0}, {"type": "note_on", "time": 20, "note": 65, "velocity": 101, "channel": 0}, {"type": "note_off", "time": 81, "note": 65, "velocity": 101, "channel": 0}, {"type": "note_on", "time": 36, "note": 67, "velocity": 105, "channel": 0}, {"type": "note_off", "time": 39, "note": 67, "velocity": 105, "channel": 0}, {"type": "note_on", "time": 9, "note": 69, "velocity": 107, "channel": 0}, {"type": "note_off", "time": 84, "note": 69, "velocity": 107, "channel": 0}, {"type": "note_on", "time": 20, "note": 62, "velocity": 95, "channel": 0}, {"type": "note_off", "time": 73, "note": 62, "velocity": 95, "channel": 0}, {"type": "note_on", "time": 17, "note": 65, "velocity": 98, "channel": 0}, {"type": "note_off", "time": 188, "note": 65, "velocity": 98, "channel": 0}, {"type": "note_on", "time": 677, "note": 67, "velocity": 105, "channel": 0}, {"type": "note_off", "time": 28, "note": 67, "velocity": 105, "channel": 0}, {"type": "note_on", "time": 11, "note": 69, "velocity": 106, "channel": 0}, {"type": "note_off", "time": 99, "note": 69, "velocity": 106, "channel": 0}, {"type": "note_on", "time": 17, "note": 74, "velocity": 107, "channel": 0}, {"type": "note_off", "time": 492, "note": 74, "velocity": 107, "channel": 0}, {"type": "note_on", "time": 525, "note": 77, "velocity": 111, "channel": 0}, {"type": "note_off", "time": 124, "note": 77, "velocity": 111, "channel": 0}, {"type": "note_on", "time": 22, "note": 75, "velocity": 112, "channel": 0}, {"type": "note_off", "time": 164, "note": 75, "velocity": 112, "channel": 0}, {"type": "note_on", "time": 4, "note": 76, "velocity": 118, "channel": 0}, {"type": "note_off", "time": 99, "note": 76, "velocity": 118, "channel": 0}, {"type": "note_on", "time": 23, "note": 71, "velocity": 105, "channel": 0}, {"type": "note_off", "time": 47, "note": 71, "velocity": 105, "channel": 0}, {"type": "note_on", "time": 9, "note": 73, "velocity": 110, "channel": 0}, {"type": "note_off", "time": 57, "note": 73, "velocity": 110, "channel": 0}, {"type": "note_on", "time": 31, "note": 69, "velocity": 104, "channel": 0}, {"type": "note_off", "time": 520, "note": 69, "velocity": 104, "channel": 0}, {"type": "note_on", "time": 35, "note": 77, "velocity": 111, "channel": 0}, {"type": "note_off", "time": 100, "note": 77, "velocity": 111, "channel": 0}, {"type": "note_on", "time": 17, "note": 77, "velocity": 109, "channel": 0}, {"type": "note_off", "time": 51, "note": 77, "velocity": 109, "channel": 0}, {"type": "note_on", "time": 17, "note": 77, "velocity": 112, "channel": 0}, {"type": "note_off", "time": 105, "note": 77, "velocity": 112, "channel": 0}, {"type": "note_on", "time": 15, "note": 77, "velocity": 98, "channel": 0}, {"type": "note_off", "time": 52, "note": 77, "velocity": 98, "channel": 0}, {"type": "note_on", "time": 706, "note": 77, "velocity": 103, "channel": 0}, {"type": "note_off", "time": 41, "note": 77, "velocity": 103, "channel": 0}, {"type": "note_on", "time": 12, "note": 82, "velocity": 103, "channel": 0}, {"type": "note_off", "time": 49, "note": 82, "velocity": 103, "channel": 0}, {"type": "note_on", "time": 138, "note": 77, "velocity": 82, "channel": 0}, {"type": "note_off", "time": 59, "note": 77, "velocity": 82, "channel": 0}, {"type": "note_on", "time": 143, "note": 75, "velocity": 108, "channel": 0}, {"type": "note_off", "time": 46, "note": 75, "velocity": 108, "channel": 0}, {"type": "note_on", "time": 17, "note": 77, "velocity": 108, "channel": 0}, {"type": "note_off", "time": 47, "note": 77, "velocity": 108, "channel": 0}, {"type": "note_on", "time": 81, "note": 72, "velocity": 112, "channel": 0}, {"type": "note_off", "time": 167, "note": 72, "velocity": 112, "channel": 0}, {"type": "note_on", "time": 11, "note": 70, "velocity": 110, "channel": 0}, {"type": "note_off", "time": 102, "note": 70, "velocity": 110, "channel": 0}, {"type": "note_on", "time": 8, "note": 69, "velocity": 95, "channel": 0}, {"type": "note_off", "time": 46, "note": 69, "velocity": 95, "channel": 0}, {"type": "note_on", "time": 1, "note": 68, "velocity": 109, "channel": 0}, {"type": "note_off", "time": 46, "note": 68, "velocity": 109, "channel": 0}, {"type": "note_on", "time": 12, "note": 63, "velocity": 100, "channel": 0}, {"type": "note_off", "time": 35, "note": 63, "velocity": 100, "channel": 0}, {"type": "note_on", "time": 15, "note": 60, "velocity": 91, "channel": 0}, {"type": "note_off", "time": 46, "note": 60, "velocity": 91, "channel": 0}, {"type": "note_on", "time": 0, "note": 65, "velocity": 102, "channel": 0}, {"type": "note_off", "time": 51, "note": 65, "velocity": 102, "channel": 0}, {"type": "note_on", "time": 6, "note": 63, "velocity": 102, "channel": 0}, {"type": "note_off", "time": 43, "note": 63, "velocity": 102, "channel": 0}, {"type": "note_on", "time": 14, "note": 56, "velocity": 95, "channel": 0}, {"type": "note_off", "time": 44, "note": 56, "velocity": 95, "channel": 0}, {"type": "note_on", "time": 10, "note": 58, "velocity": 98, "channel": 0}, {"type": "note_off", "time": 29, "note": 58, "velocity": 98, "channel": 0}, {"type": "note_on", "time": 7, "note": 63, "velocity": 104, "channel": 0}, {"type": "note_off", "time": 43, "note": 63, "velocity": 104, "channel": 0}, {"type": "note_on", "time": 12, "note": 65, "velocity": 102, "channel": 0}, {"type": "note_off", "time": 30, "note": 65, "velocity": 102, "channel": 0}, {"type": "note_on", "time": 15, "note": 70, "velocity": 97, "channel": 0}, {"type": "note_off", "time": 62, "note": 70, "velocity": 97, "channel": 0}, {"type": "note_on", "time": 28, "note": 75, "velocity": 105, "channel": 0}, {"type": "note_off", "time": 424, "note": 75, "velocity": 105, "channel": 0}, {"type": "note_on", "time": 261, "note": 76, "velocity": 112, "channel": 0}, {"type": "note_off", "time": 95, "note": 76, "velocity": 112, "channel": 0}, {"type": "note_on", "time": 13, "note": 78, "velocity": 109, "channel": 0}, {"type": "note_off", "time": 24, "note": 78, "velocity": 109, "channel": 0}, {"type": "note_on", "time": 13, "note": 76, "velocity": 108, "channel": 0}, {"type": "note_off", "time": 22, "note": 76, "velocity": 108, "channel": 0}, {"type": "note_on", "time": 22, "note": 73, "velocity": 106, "channel": 0}, {"type": "note_off", "time": 40, "note": 73, "velocity": 106, "channel": 0}, {"type": "note_on", "time": 13, "note": 71, "velocity": 101, "channel": 0}, {"type": "note_off", "time": 39, "note": 71, "velocity": 101, "channel": 0}, {"type": "note_on", "time": 11, "note": 69, "velocity": 97, "channel": 0}, {"type": "note_off", "time": 37, "note": 69, "velocity": 97, "channel": 0}, {"type": "note_on", "time": 4, "note": 76, "velocity": 109, "channel": 0}, {"type": "note_off", "time": 41, "note": 76, "velocity": 109, "channel": 0}, {"type": "note_on", "time": 10, "note": 71, "velocity": 100, "channel": 0}, {"type": "note_off", "time": 24, "note": 71, "velocity": 100, "channel": 0}, {"type": "note_on", "time": 20, "note": 69, "velocity": 97, "channel": 0}, {"type": "note_off", "time": 31, "note": 69, "velocity": 97, "channel": 0}, {"type": "note_on", "time": 9, "note": 69, "velocity": 106, "channel": 0}, {"type": "note_off", "time": 38, "note": 69, "velocity": 106, "channel": 0}, {"type": "note_on", "time": 18, "note": 66, "velocity": 102, "channel": 0}, {"type": "note_off", "time": 22, "note": 66, "velocity": 102, "channel": 0}, {"type": "note_on", "time": 25, "note": 71, "velocity": 106, "channel": 0}, {"type": "note_off", "time": 35, "note": 71, "velocity": 106, "channel": 0}, {"type": "note_on", "time": 14, "note": 68, "velocity": 104, "channel": 0}, {"type": "note_off", "time": 32, "note": 68, "velocity": 104, "channel": 0}, {"type": "note_on", "time": 12, "note": 64, "velocity": 96, "channel": 0}, {"type": "note_off", "time": 32, "note": 64, "velocity": 96, "channel": 0}, {"type": "note_on", "time": 8, "note": 69, "velocity": 103, "channel": 0}, {"type": "note_off", "time": 75, "note": 69, "velocity": 103, "channel": 0}, {"type": "note_on", "time": 5, "note": 67, "velocity": 83, "channel": 0}, {"type": "note_off", "time": 29, "note": 67, "velocity": 83, "channel": 0}, {"type": "note_on", "time": 26, "note": 73, "velocity": 106, "channel": 0}, {"type": "note_off", "time": 44, "note": 73, "velocity": 106, "channel": 0}, {"type": "note_on", "time": 7, "note": 74, "velocity": 109, "channel": 0}, {"type": "note_off", "time": 67, "note": 74, "velocity": 109, "channel": 0}, {"type": "note_on", "time": 13, "note": 72, "velocity": 104, "channel": 0}, {"type": "note_off", "time": 64, "note": 72, "velocity": 104, "channel": 0}, {"type": "note_on", "time": 33, "note": 67, "velocity": 101, "channel": 0}, {"type": "note_off", "time": 48, "note": 67, "velocity": 101, "channel": 0}, {"type": "note_on", "time": 8, "note": 68, "velocity": 107, "channel": 0}, {"type": "note_off", "time": 29, "note": 68, "velocity": 107, "channel": 0}, {"type": "note_on", "time": 12, "note": 67, "velocity": 104, "channel": 0}, {"type": "note_off", "time": 59, "note": 67, "velocity": 104, "channel": 0}, {"type": "note_on", "time": 34, "note": 65, "velocity": 97, "channel": 0}, {"type": "note_off", "time": 33, "note": 65, "velocity": 97, "channel": 0}, {"type": "note_on", "time": 14, "note": 67, "velocity": 104, "channel": 0}, {"type": "note_off", "time": 55, "note": 67, "velocity": 104, "channel": 0}, {"type": "note_on", "time": 8, "note": 69, "velocity": 104, "channel": 0}, {"type": "note_off", "time": 43, "note": 69, "velocity": 104, "channel": 0}, {"type": "note_on", "time": 18, "note": 62, "velocity": 95, "channel": 0}, {"type": "note_off", "time": 58, "note": 62, "velocity": 95, "channel": 0}, {"type": "note_on", "time": 12, "note": 65, "velocity": 79, "channel": 0}, {"type": "note_off", "time": 860, "note": 65, "velocity": 79, "channel": 0}, {"type": "end_of_track", "time": 0}]]}