{"ticks_per_beat": 192, "tracks": [[{"type": "track_name", "name": "Melody", "time": 0}, {"type": "set_tempo", "tempo": 244897, "time": 0}, {"type": "key_signature", "key": "Bb", "time": 0}, {"type": "time_signature", "numerator": 4, "denominator": 4, "clocks_per_click": 24, "notated_32nd_notes_per_beat": 8, "time": 0}, {"type": "note_on", "time": 4904, "note": 78, "velocity": 113, "channel": 0}, {"type": "note_off", "time": 110, "note": 78, "velocity": 113, "channel": 0}, {"type": "note_on", "time": 86, "note": 76, "velocity": 124, "channel": 0}, {"type": "note_off", "time": 155, "note": 76, "velocity": 124, "channel": 0}, {"type": "note_on", "time": 34, "note": 74, "velocity": 120, "channel": 0}, {"type": "note_off", "time": 158, "note": 74, "velocity": 120, "channel": 0}, {"type": "note_on", "time": 34, "note": 72, "velocity": 111, "channel": 0}, {"type": "note_off", "time": 106, "note": 72, "velocity": 111, "channel": 0}, {"type": "note_on", "time": 77, "note": 70, "velocity": 119, "channel": 0}, {"type": "note_off", "time": 281, "note": 70, "velocity": 119, "channel": 0}, {"type": "note_on", "time": 30, "note": 69, "velocity": 99, "channel": 0}, {"type": "note_off", "time": 56, "note": 69, "velocity": 99, "channel": 0}, {"type": "note_on", "time": 27, "note": 70, "velocity": 119, "channel": 0}, {"type": "note_off", "time": 161, "note": 70, "velocity": 119, "channel": 0}, {"type": "note_on", "time": 62, "note": 74, "velocity": 117, "channel": 0}, {"type": "note_off", "time": 102, "note": 74, "velocity": 117, "channel": 0}, {"type": "note_on", "time": 60, "note": 69, "velocity": 114, "channel": 0}, {"type": "note_off", "time": 291, "note": 69, "velocity": 114, "channel": 0}, {"type": "note_on", "time": 15, "note": 69, "velocity": 101, "channel": 0}, {"type": "note_off", "time": 573, "note": 69, "velocity": 101, "channel": 0}, {"type": "note_on", "time": 1024, "note": 77, "velocity": 126, "channel": 0}, {"type": "note_off", "time": 92, "note": 77, "velocity": 126, "channel": 0}, {"type": "note_on", "time": 26, "note": 75, "velocity": 113, "channel": 0}, {"type": "note_off", "time": 43, "note": 75, "velocity": 113, "channel": 0}, {"type": "note_on", "time": 45, "note": 66, "velocity": 109, "channel": 0}, {"type": "note_off", "time": 45, "note": 66, "velocity": 109, "channel": 0}, {"type": "note_on", "time": 150, "note": 69, "velocity": 116, "channel": 0}, {"type": "note_off", "time": 175, "note": 69, "velocity": 116, "channel": 0}, {"type": "note_on", "time": 13, "note": 70, "velocity": 119, "channel": 0}, {"type": "note_off", "time": 160, "note": 70, "velocity": 119, "channel": 0}, {"type": "note_on", "time": 21, "note": 72, "velocity": 119, "channel": 0}, {"type": "note_off", "time": 169, "note": 72, "velocity": 119, "channel": 0}, {"type": "note_on", "time": 17, "note": 74, "velocity": 115, "channel": 0}, {"type": "note_off", "time": 72, "note": 74, "velocity": 115, "channel": 0}, {"type": "note_on", "time": 20, "note": 69, "velocity": 116, "channel": 0}, {"type": "note_off", "time": 401, "note": 69, "velocity": 116, "channel": 0}, {"type": "note_on", "time": 24, "note": 67, "velocity": 100, "channel": 0}, {"type": "note_off", "time": 73, "note": 67, "velocity": 100, "channel": 0}, {"type": "note_on", "time": 11, "note": 70, "velocity": 111, "channel": 0}, {"type": "note_off", "time": 499, "note": 70, "velocity": 111, "channel": 0}, {"type": "note_on", "time": 737, "note": 62, "velocity": 113, "channel": 0}, {"type": "note_off", "time": 51, "note": 62, "velocity": 113, "channel": 0}, {"type": "note_on", "time": 19, "note": 58, "velocity": 106, "channel": 0}, {"type": "note_off", "time": 110, "note": 58, "velocity": 106, "channel": 0}, {"type": "note_on", "time": 17, "note": 62, "velocity": 94, "channel": 0}, {"type": "note_off", "time": 34, "note": 62, "velocity": 94, "channel": 0}, {"type": "note_on", "time": 29, "note": 65, "velocity": 115, "channel": 0}, {"type": "note_off", "time": 91, "note": 65, "velocity": 115, "channel": 0}, {"type": "note_on", "time": 18, "note": 62, "velocity": 99, "channel": 0}, {"type": "note_off", "time": 71, "note": 62, "velocity": 99, "channel": 0}, {"type": "note_on", "time": 18, "note": 64, "velocity": 113, "channel": 0}, {"type": "note_off", "time": 87, "note": 64, "velocity": 113, "channel": 0}, {"type": "note_on", "time": 21, "note": 67, "velocity": 102, "channel": 0}, {"type": "note_off", "time": 58, "note": 67, "velocity": 102, "channel": 0}, {"type": "note_on", "time": 29, "note": 72, "velocity": 125, "channel": 0}, {"type": "note_off", "time": 100, "note": 72, "velocity": 125, "channel": 0}, {"type": "note_on", "time": 13, "note": 69, "velocity": 104, "channel": 0}, {"type": "note_off", "time": 71, "note": 69, "velocity": 104, "channel": 0}, {"type": "note_on", "time": 9, "note": 70, "velocity": 115, "channel": 0}, {"type": "note_off", "time": 95, "note": 70, "velocity": 115, "channel": 0}, {"type": "note_on", "time": 8, "note": 74, "velocity": 119, "channel": 0}, {"type": "note_off", "time": 59, "note": 74, "velocity": 119, "channel": 0}, {"type": "note_on", "time": 15, "note": 77, "velocity": 122, "channel": 0}, {"type": "note_off", "time": 107, "note": 77, "velocity": 122, "channel": 0}, {"type": "note_on", "time": 17, "note": 74, "velocity": 91, "channel": 0}, {"type": "note_off", "time": 39, "note": 74, "velocity": 91, "channel": 0}, {"type": "note_on", "time": 25, "note": 76, "velocity": 114, "channel": 0}, {"type": "note_off", "time": 109, "note": 76, "velocity": 114, "channel": 0}, {"type": "note_on", "time": 19, "note": 84, "velocity": 117, "channel": 0}, {"type": "note_off", "time": 163, "note": 84, "velocity": 117, "channel": 0}, {"type": "note_on", "time": 16, "note": 81, "velocity": 110, "channel": 0}, {"type": "note_off", "time": 56, "note": 81, "velocity": 110, "channel": 0}, {"type": "note_on", "time": 19, "note": 82, "velocity": 122, "channel": 0}, {"type": "note_off", "time": 113, "note": 82, "velocity": 122, "channel": 0}, {"type": "note_on", "time": 13, "note": 79, "velocity": 104, "channel": 0}, {"type": "note_off", "time": 47, "note": 79, "velocity": 104, "channel": 0}, {"type": "note_on", "time": 22, "note": 81, "velocity": 120, "channel": 0}, {"type": "note_off", "time": 104, "note": 81, "velocity": 120, "channel": 0}, {"type": "note_on", "time": 9, "note": 78, "velocity": 109, "channel": 0}, {"type": "note_off", "time": 59, "note": 78, "velocity": 109, "channel": 0}, {"type": "note_on", "time": 25, "note": 79, "velocity": 119, "channel": 0}, {"type": "note_off", "time": 110, "note": 79, "velocity": 119, "channel": 0}, {"type": "note_on", "time": 15, "note": 78, "velocity": 108, "channel": 0}, {"type": "note_off", "time": 109, "note": 78, "velocity": 108, "channel": 0}, {"type": "note_on", "time": 56, "note": 77, "velocity": 124, "channel": 0}, {"type": "note_off", "time": 93, "note": 77, "velocity": 124, "channel": 0}, {"type": "note_on", "time": 11, "note": 76, "velocity": 123, "channel": 0}, {"type": "note_off", "time": 85, "note": 76, "velocity": 123, "channel": 0}, {"type": "note_on", "time": 14, "note": 75, "velocity": 127, "channel": 0}, {"type": "note_off", "time": 88, "note": 75, "velocity": 127, "channel": 0}, {"type": "note_on", "time": 15, "note": 74, "velocity": 117, "channel": 0}, {"type": "note_off", "time": 64, "note": 74, "velocity": 117, "channel": 0}, {"type": "note_on", "time": 18, "note": 73, "velocity": 119, "channel": 0}, {"type": "note_off", "time": 71, "note": 73, "velocity": 119, "channel": 0}, {"type": "note_on", "time": 13, "note": 72, "velocity": 110, "channel": 0}, {"type": "note_off", "time": 72, "note": 72, "velocity": 110, "channel": 0}, {"type": "note_on", "time": 24, "note": 72, "velocity": 119, "channel": 0}, {"type": "note_off", "time": 73, "note": 72, "velocity": 119, "channel": 0}, {"type": "note_on", "time": 13, "note": 71, "velocity": 117, "channel": 0}, {"type": "note_off", "time": 82, "note": 71, "velocity": 117, "channel": 0}, {"type": "note_on", "time": 18, "note": 69, "velocity": 108, "channel": 0}, {"type": "note_off", "time": 71, "note": 69, "velocity": 108, "channel": 0}, {"type": "note_on", "time": 10, "note": 70, "velocity": 120, "channel": 0}, {"type": "note_off", "time": 99, "note": 70, "velocity": 120, "channel": 0}, {"type": "note_on", "time": 37, "note": 66, "velocity": 102, "channel": 0}, {"type": "note_off", "time": 40, "note": 66, "velocity": 102, "channel": 0}, {"type": "note_on", "time": 26, "note": 69, "velocity": 119, "channel": 0}, {"type": "note_off", "time": 87, "note": 69, "velocity": 119, "channel": 0}, {"type": "note_on", "time": 11, "note": 67, "velocity": 113, "channel": 0}, {"type": "note_off", "time": 65, "note": 67, "velocity": 113, "channel": 0}, {"type": "note_on", "time": 25, "note": 66, "velocity": 109, "channel": 0}, {"type": "note_off", "time": 56, "note": 66, "velocity": 109, "channel": 0}, {"type": "note_on", "time": 43, "note": 65, "velocity": 95, "channel": 0}, {"type": "note_off", "time": 60, "note": 65, "velocity": 95, "channel": 0}, {"type": "note_on", "time": 23, "note": 66, "velocity": 113, "channel": 0}, {"type": "note_off", "time": 80, "note": 66, "velocity": 113, "channel": 0}, {"type": "note_on", "time": 31, "note": 62, "velocity": 102, "channel": 0}, {"type": "note_off", "time": 47, "note": 62, "velocity": 102, "channel": 0}, {"type": "note_on", "time": 21, "note": 64, "velocity": 114, "channel": 0}, {"type": "note_off", "time": 87, "note": 64, "velocity": 114, "channel": 0}, {"type": "note_on", "time": 29, "note": 60, "velocity": 103, "channel": 0}, {"type": "note_off", "time": 60, "note": 60, "velocity": 103, "channel": 0}, {"type": "note_on", "time": 15, "note": 62, "velocity": 114, "channel": 0}, {"type": "note_off", "time": 84, "note": 62, "velocity": 114, "channel": 0}, {"type": "note_on", "time": 30, "note": 58, "velocity": 106, "channel": 0}, {"type": "note_off", "time": 54, "note": 58, "velocity": 106, "channel": 0}, {"type": "note_on", "time": 28, "note": 60, "velocity": 110, "channel": 0}, {"type": "note_off", "time": 83, "note": 60, "velocity": 110, "channel": 0}, {"type": "note_on", "time": 9, "note": 55, "velocity": 107, "channel": 0}, {"type": "note_off", "time": 58, "note": 55, "velocity": 107, "channel": 0}, {"type": "note_on", "time": 27, "note": 58, "velocity": 107, "channel": 0}, {"type": "note_off", "time": 325, "note": 58, "velocity": 107, "channel": 0}, {"type": "note_on", "time": 18, "note": 55, "velocity": 103, "channel": 0}, {"type": "note_off", "time": 51, "note": 55, "velocity": 103, "channel": 0}, {"type": "note_on", "time": 11, "note": 57, "velocity": 114, "channel": 0}, {"type": "note_off", "time": 66, "note": 57, "velocity": 114, "channel": 0}, {"type": "note_on", "time": 22, "note": 55, "velocity": 104, "channel": 0}, {"type": "note_off", "time": 61, "note": 55, "velocity": 104, "channel": 0}, {"type": "note_on", "time": 42, "note": 57, "velocity": 107, "channel": 0}, {"type": "note_off", "time": 58, "note": 57, "velocity": 107, "channel": 0}, {"type": "note_on", "time": 39, "note": 58, "velocity": 113, "channel": 0}, {"type": "note_off", "time": 52, "note": 58, "velocity": 113, "channel": 0}, {"type": "note_on", "time": 41, "note": 60, "velocity": 101, "channel": 0}, {"type": "note_off", "time": 71, "note": 60, "velocity": 101, "channel": 0}, {"type": "note_on", "time": 23, "note": 63, "velocity": 97, "channel": 0}, {"type": "note_off", "time": 68, "note": 63, "velocity": 97, "channel": 0}, {"type": "note_on", "time": 10, "note": 67, "velocity": 116, "channel": 0}, {"type": "note_off", "time": 82, "note": 67, "velocity": 116, "channel": 0}, {"type": "note_on", "time": 19, "note": 70, "velocity": 122, "channel": 0}, {"type": "note_off", "time": 68, "note": 70, "velocity": 122, "channel": 0}, {"type": "note_on", "time": 12, "note": 68, "velocity": 113, "channel": 0}, {"type": "note_off", "time": 61, "note": 68, "velocity": 113, "channel": 0}, {"type": "note_on", "time": 38, "note": 66, "velocity": 113, "channel": 0}, {"type": "note_off", "time": 61, "note": 66, "velocity": 113, "channel": 0}, {"type": "note_on", "time": 33, "note": 62, "velocity": 109, "channel": 0}, {"type": "note_off", "time": 67, "note": 62, "velocity": 109, "channel": 0}, {"type": "note_on", "time": 17, "note": 58, "velocity": 105, "channel": 0}, {"type": "note_off", "time": 45, "note": 58, "velocity": 105, "channel": 0}, {"type": "note_on", "time": 20, "note": 65, "velocity": 108, "channel": 0}, {"type": "note_off", "time": 320, "note": 65, "velocity": 108, "channel": 0}, {"type": "note_on", "time": 22, "note": 63, "velocity": 99, "channel": 0}, {"type": "note_off", "time": 64, "note": 63, "velocity": 99, "channel": 0}, {"type": "note_on", "time": 25, "note": 70, "velocity": 101, "channel": 0}, {"type": "note_off", "time": 542, "note": 70, "velocity": 101, "channel": 0}, {"type": "note_on", "time": 689, "note": 78, "velocity": 119, "channel": 0}, {"type": "note_off", "time": 284, "note": 78, "velocity": 119, "channel": 0}, {"type": "note_on", "time": 22, "note": 78, "velocity": 118, "channel": 0}, {"type": "note_off", "time": 359, "note": 78, "velocity": 118, "channel": 0}, {"type": "note_on", "time": 15, "note": 78, "velocity": 117, "channel": 0}, {"type": "note_off", "time": 281, "note": 78, "velocity": 117, "channel": 0}, {"type": "note_on", "time": 23, "note": 74, "velocity": 105, "channel": 0}, {"type": "note_off", "time": 59, "note": 74, "velocity": 105, "channel": 0}, {"type": "note_on", "time": 40, "note": 77, "velocity": 121, "channel": 0}, {"type": "note_off", "time": 93, "note": 77, "velocity": 121, "channel": 0}, {"type": "note_on", "time": 12, "note": 76, "velocity": 119, "channel": 0}, {"type": "note_off", "time": 83, "note": 76, "velocity": 119, "channel": 0}, {"type": "note_on", "time": 12, "note": 75, "velocity": 109, "channel": 0}, {"type": "note_off", "time": 75, "note": 75, "velocity": 109, "channel": 0}, {"type": "note_on", "time": 42, "note": 75, "velocity": 118, "channel": 0}, {"type": "note_off", "time": 81, "note": 75, "velocity": 118, "channel": 0}, {"type": "note_on", "time": 19, "note": 74, "velocity": 111, "channel": 0}, {"type": "note_off", "time": 77, "note": 74, "velocity": 111, "channel": 0}, {"type": "note_on", "time": 16, "note": 70, "velocity": 116, "channel": 0}, {"type": "note_off", "time": 62, "note": 70, "velocity": 116, "channel": 0}, {"type": "note_on", "time": 14, "note": 67, "velocity": 107, "channel": 0}, {"type": "note_off", "time": 95, "note": 67, "velocity": 107, "channel": 0}, {"type": "note_on", "time": 31, "note": 65, "velocity": 92, "channel": 0}, {"type": "note_off", "time": 41, "note": 65, "velocity": 92, "channel": 0}, {"type": "note_on", "time": 22, "note": 72, "velocity": 113, "channel": 0}, {"type": "note_off", "time": 292, "note": 72, "velocity": 113, "channel": 0}, {"type": "note_on", "time": 17, "note": 67, "velocity": 101, "channel": 0}, {"type": "note_off", "time": 54, "note": 67, "velocity": 101, "channel": 0}, {"type": "note_on", "time": 18, "note": 70, "velocity": 111, "channel": 0}, {"type": "note_off", "time": 102, "note": 70, "velocity": 111, "channel": 0}, {"type": "note_on", "time": 18, "note": 67, "velocity": 99, "channel": 0}, {"type": "note_off", "time": 76, "note": 67, "velocity": 99, "channel": 0}, {"type": "note_on", "time": 10, "note": 68, "velocity": 112, "channel": 0}, {"type": "note_off", "time": 83, "note": 68, "velocity": 112, "channel": 0}, {"type": "note_on", "time": 10, "note": 70, "velocity": 118, "channel": 0}, {"type": "note_off", "time": 90, "note": 70, "velocity": 118, "channel": 0}, {"type": "note_on", "time": 12, "note": 71, "velocity": 114, "channel": 0}, {"type": "note_off", "time": 85, "note": 71, "velocity": 114, "channel": 0}, {"type": "note_on", "time": 15, "note": 73, "velocity": 115, "channel": 0}, {"type": "note_off", "time": 84, "note": 73, "velocity": 115, "channel": 0}, {"type": "note_on", "time": 10, "note": 74, "velocity": 111, "channel": 0}, {"type": "note_off", "time": 80, "note": 74, "velocity": 111, "channel": 0}, {"type": "note_on", "time": 14, "note": 76, "velocity": 118, "channel": 0}, {"type": "note_off", "time": 85, "note": 76, "velocity": 118, "channel": 0}, {"type": "note_on", "time": 6, "note": 77, "velocity": 119, "channel": 0}, {"type": "note_off", "time": 97, "note": 77, "velocity": 119, "channel": 0}, {"type": "note_on", "time": 16, "note": 79, "velocity": 108, "channel": 0}, {"type": "note_off", "time": 75, "note": 79, "velocity": 108, "channel": 0}, {"type": "note_on", "time": 8, "note": 80, "velocity": 112, "channel": 0}, {"type": "note_off", "time": 72, "note": 80, "velocity": 112, "channel": 0}, {"type": "note_on", "time": 18, "note": 81, "velocity": 113, "channel": 0}, {"type": "note_off", "time": 81, "note": 81, "velocity": 113, "channel": 0}, {"type": "note_on", "time": 20, "note": 77, "velocity": 115, "channel": 0}, {"type": "note_off", "time": 83, "note": 77, "velocity": 115, "channel": 0}, {"type": "note_on", "time": 13, "note": 78, "velocity": 108, "channel": 0}, {"type": "note_off", "time": 75, "note": 78, "velocity": 108, "channel": 0}, {"type": "note_on", "time": 19, "note": 76, "velocity": 114, "channel": 0}, {"type": "note_off", "time": 85, "note": 76, "velocity": 114, "channel": 0}, {"type": "note_on", "time": 14, "note": 77, "velocity": 118, "channel": 0}, {"type": "note_off", "time": 67, "note": 77, "velocity": 118, "channel": 0}, {"type": "note_on", "time": 12, "note": 76, "velocity": 110, "channel": 0}, {"type": "note_off", "time": 81, "note": 76, "velocity": 110, "channel": 0}, {"type": "note_on", "time": 32, "note": 77, "velocity": 102, "channel": 0}, {"type": "note_off", "time": 40, "note": 77, "velocity": 102, "channel": 0}, {"type": "note_on", "time": 11, "note": 80, "velocity": 98, "channel": 0}, {"type": "note_off", "time": 49, "note": 80, "velocity": 98, "channel": 0}, {"type": "note_on", "time": 15, "note": 82, "velocity": 100, "channel": 0}, {"type": "note_off", "time": 98, "note": 82, "velocity": 100, "channel": 0}, {"type": "note_on", "time": 14, "note": 76, "velocity": 110, "channel": 0}, {"type": "note_off", "time": 124, "note": 76, "velocity": 110, "channel": 0}, {"type": "note_on", "time": 68, "note": 77, "velocity": 90, "channel": 0}, {"type": "note_off", "time": 165, "note": 77, "velocity": 90, "channel": 0}, {"type": "note_on", "time": 31, "note": 70, "velocity": 110, "channel": 0}, {"type": "note_off", "time": 723, "note": 70, "velocity": 110, "channel": 0}, {"type": "note_on", "time": 18, "note": 69, "velocity": 96, "channel": 0}, {"type": "note_off", "time": 54, "note": 69, "velocity": 96, "channel": 0}, {"type": "note_on", "time": 15, "note": 70, "velocity": 114, "channel": 0}, {"type": "note_off", "time": 98, "note": 70, "velocity": 114, "channel": 0}, {"type": "note_on", "time": 18, "note": 67, "velocity": 94, "channel": 0}, {"type": "note_off", "time": 46, "note": 67, "velocity": 94, "channel": 0}, {"type": "note_on", "time": 25, "note": 69, "velocity": 102, "channel": 0}, {"type": "note_off", "time": 100, "note": 69, "velocity": 102, "channel": 0}, {"type": "note_on", "time": 62, "note": 70, "velocity": 116, "channel": 0}, {"type": "note_off", "time": 100, "note": 70, "velocity": 116, "channel": 0}, {"type": "note_on", "time": 15, "note": 67, "velocity": 97, "channel": 0}, {"type": "note_off", "time": 54, "note": 67, "velocity": 97, "channel": 0}, {"type": "note_on", "time": 35, "note": 69, "velocity": 110, "channel": 0}, {"type": "note_off", "time": 96, "note": 69, "velocity": 110, "channel": 0}, {"type": "note_on", "time": 10, "note": 70, "velocity": 103, "channel": 0}, {"type": "note_off", "time": 484, "note": 70, "velocity": 103, "channel": 0}, {"type": "note_on", "time": 936, "note": 76, "velocity": 119, "channel": 0}, {"type": "note_off", "time": 104, "note": 76, "velocity": 119, "channel": 0}, {"type": "note_on", "time": 23, "note": 79, "velocity": 109, "channel": 0}, {"type": "note_off", "time": 42, "note": 79, "velocity": 109, "channel": 0}, {"type": "note_on", "time": 9, "note": 76, "velocity": 115, "channel": 0}, {"type": "note_off", "time": 61, "note": 76, "velocity": 115, "channel": 0}, {"type": "note_on", "time": 117, "note": 76, "velocity": 117, "channel": 0}, {"type": "note_off", "time": 190, "note": 76, "velocity": 117, "channel": 0}, {"type": "note_on", "time": 31, "note": 76, "velocity": 117, "channel": 0}, {"type": "note_off", "time": 956, "note": 76, "velocity": 117, "channel": 0}, {"type": "note_on", "time": 11, "note": 76, "velocity": 119, "channel": 0}, {"type": "note_off", "time": 99, "note": 76, "velocity": 119, "channel": 0}, {"type": "note_on", "time": 17, "note": 79, "velocity": 103, "channel": 0}, {"type": "note_off", "time": 60, "note": 79, "velocity": 103, "channel": 0}, {"type": "note_on", "time": 16, "note": 76, "velocity": 113, "channel": 0}, {"type": "note_off", "time": 400, "note": 76, "velocity": 113, "channel": 0}, {"type": "note_on", "time": 12, "note": 75, "velocity": 115, "channel": 0}, {"type": "note_off", "time": 318, "note": 75, "velocity": 115, "channel": 0}, {"type": "note_on", "time": 46, "note": 74, "velocity": 116, "channel": 0}, {"type": "note_off", "time": 328, "note": 74, "velocity": 116, "channel": 0}, {"type": "note_on", "time": 32, "note": 73, "velocity": 114, "channel": 0}, {"type": "note_off", "time": 236, "note": 73, "velocity": 114, "channel": 0}, {"type": "note_on", "time": 19, "note": 74, "velocity": 114, "channel": 0}, {"type": "note_off", "time": 270, "note": 74, "velocity": 114, "channel": 0}, {"type": "note_on", "time": 12, "note": 75, "velocity": 117, "channel": 0}, {"type": "note_off", "time": 282, "note": 75, "velocity": 117, "channel": 0}, {"type": "note_on", "time": 12, "note": 76, "velocity": 116, "channel": 0}, {"type": "note_off", "time": 280, "note": 76, "velocity": 116, "channel": 0}, {"type": "note_on", "time": 24, "note": 78, "velocity": 111, "channel": 0}, {"type": "note_off", "time": 350, "note": 78, "velocity": 111, "channel": 0}, {"type": "note_on", "time": 10, "note": 81, "velocity": 116, "channel": 0}, {"type": "note_off", "time": 352, "note": 81, "velocity": 116, "channel": 0}, {"type": "note_on", "time": 21, "note": 84, "velocity": 118, "channel": 0}, {"type": "note_off", "time": 1273, "note": 84, "velocity": 118, "channel": 0}, {"type": "note_on", "time": 46, "note": 81, "velocity": 111, "channel": 0}, {"type": "note_off", "time": 113, "note": 81, "velocity": 111, "channel": 0}, {"type": "note_on", "time": 17, "note": 82, "velocity": 119, "channel": 0}, {"type": "note_off", "time": 106, "note": 82, "velocity": 119, "channel": 0}, {"type": "note_on", "time": 76, "note": 78, "velocity": 106, "channel": 0}, {"type": "note_off", "time": 40, "note": 78, "velocity": 106, "channel": 0}, {"type": "note_on", "time": 16, "note": 81, "velocity": 109, "channel": 0}, {"type": "note_off", "time": 157, "note": 81, "velocity": 109, "channel": 0}, {"type": "note_on", "time": 0, "note": 79, "velocity": 109, "channel": 0}, {"type": "note_off", "time": 95, "note": 79, "velocity": 109, "channel": 0}, {"type": "note_on", "time": 62, "note": 78, "velocity": 112, "channel": 0}, {"type": "note_off", "time": 89, "note": 78, "velocity": 112, "channel": 0}, {"type": "note_on", "time": 12, "note": 77, "velocity": 119, "channel": 0}, {"type": "note_off", "time": 105, "note": 77, "velocity": 119, "channel": 0}, {"type": "note_on", "time": 6, "note": 76, "velocity": 114, "channel": 0}, {"type": "note_off", "time": 69, "note": 76, "velocity": 114, "channel": 0}, {"type": "note_on", "time": 7, "note": 75, "velocity": 116, "channel": 0}, {"type": "note_off", "time": 88, "note": 75, "velocity": 116, "channel": 0}, {"type": "note_on", "time": 13, "note": 73, "velocity": 112, "channel": 0}, {"type": "note_off", "time": 77, "note": 73, "velocity": 112, "channel": 0}, {"type": "note_on", "time": 17, "note": 72, "velocity": 110, "channel": 0}, {"type": "note_off", "time": 76, "note": 72, "velocity": 110, "channel": 0}, {"type": "note_on", "time": 14, "note": 71, "velocity": 110, "channel": 0}, {"type": "note_off", "time": 67, "note": 71, "velocity": 110, "channel": 0}, {"type": "note_on", "time": 11, "note": 70, "velocity": 112, "channel": 0}, {"type": "note_off", "time": 83, "note": 70, "velocity": 112, "channel": 0}, {"type": "note_on", "time": 6, "note": 66, "velocity": 98, "channel": 0}, {"type": "note_off", "time": 38, "note": 66, "velocity": 98, "channel": 0}, {"type": "note_on", "time": 5, "note": 67, "velocity": 93, "channel": 0}, {"type": "note_off", "time": 36, "note": 67, "velocity": 93, "channel": 0}, {"type": "note_on", "time": 17, "note": 69, "velocity": 111, "channel": 0}, {"type": "note_off", "time": 89, "note": 69, "velocity": 111, "channel": 0}, {"type": "note_on", "time": 17, "note": 66, "velocity": 98, "channel": 0}, {"type": "note_off", "time": 69, "note": 66, "velocity": 98, "channel": 0}, {"type": "note_on", "time": 23, "note": 67, "velocity": 105, "channel": 0}, {"type": "note_off", "time": 80, "note": 67, "velocity": 105, "channel": 0}, {"type": "note_on", "time": 16, "note": 64, "velocity": 106, "channel": 0}, {"type": "note_off", "time": 64, "note": 64, "velocity": 106, "channel": 0}, {"type": "note_on", "time": 7, "note": 62, "velocity": 103, "channel": 0}, {"type": "note_off", "time": 76, "note": 62, "velocity": 103, "channel": 0}, {"type": "note_on", "time": 55, "note": 60, "velocity": 102, "channel": 0}, {"type": "note_off", "time": 57, "note": 60, "velocity": 102, "channel": 0}, {"type": "note_on", "time": 10, "note": 58, "velocity": 100, "channel": 0}, {"type": "note_off", "time": 304, "note": 58, "velocity": 100, "channel": 0}, {"type": "note_on", "time": 469, "note": 70, "velocity": 108, "channel": 0}, {"type": "note_off", "time": 278, "note": 70, "velocity": 108, "channel": 0}, {"type": "note_on", "time": 15, "note": 62, "velocity": 105, "channel": 0}, {"type": "note_off", "time": 175, "note": 62, "velocity": 105, "channel": 0}, {"type": "note_on", "time": 13, "note": 67, "velocity": 111, "channel": 0}, {"type": "note_off", "time": 136, "note": 67, "velocity": 111, "channel": 0}, {"type": "note_on", "time": 104, "note": 77, "velocity": 122, "channel": 0}, {"type": "note_off", "time": 195, "note": 77, "velocity": 122, "channel": 0}, {"type": "note_on", "time": 30, "note": 75, "velocity": 120, "channel": 0}, {"type": "note_off", "time": 136, "note": 75, "velocity": 120, "channel": 0}, {"type": "note_on", "time": 28, "note": 66, "velocity": 107, "channel": 0}, {"type": "note_off", "time": 283, "note": 66, "velocity": 107, "channel": 0}, {"type": "note_on", "time": 95, "note": 73, "velocity": 117, "channel": 0}, {"type": "note_off", "time": 76, "note": 73, "velocity": 117, "channel": 0}, {"type": "note_on", "time": 17, "note": 74, "velocity": 112, "channel": 0}, {"type": "note_off", "time": 155, "note": 74, "velocity": 112, "channel": 0}, {"type": "note_on", "time": 57, "note": 62, "velocity": 103, "channel": 0}, {"type": "note_off", "time": 87, "note": 62, "velocity": 103, "channel": 0}, {"type": "note_on", "time": 81, "note": 67, "velocity": 112, "channel": 0}, {"type": "note_off", "time": 152, "note": 67, "velocity": 112, "channel": 0}, {"type": "note_on", "time": 99, "note": 77, "velocity": 115, "channel": 0}, {"type": "note_off", "time": 587, "note": 77, "velocity": 115, "channel": 0}, {"type": "note_on", "time": 13, "note": 75, "velocity": 115, "channel": 0}, {"type": "note_off", "time": 133, "note": 75, "velocity": 115, "channel": 0}, {"type": "note_on", "time": 14, "note": 66, "velocity": 98, "channel": 0}, {"type": "note_off", "time": 137, "note": 66, "velocity": 98, "channel": 0}, {"type": "note_on", "time": 16, "note": 74, "velocity": 106, "channel": 0}, {"type": "note_off", "time": 81, "note": 74, "velocity": 106, "channel": 0}, {"type": "note_on", "time": 39, "note": 62, "velocity": 97, "channel": 0}, {"type": "note_off", "time": 60, "note": 62, "velocity": 97, "channel": 0}, {"type": "note_on", "time": 9, "note": 64, "velocity": 106, "channel": 0}, {"type": "note_off", "time": 137, "note": 64, "velocity": 106, "channel": 0}, {"type": "note_on", "time": 31, "note": 67, "velocity": 105, "channel": 0}, {"type": "note_off", "time": 553, "note": 67, "velocity": 105, "channel": 0}, {"type": "note_on", "time": 319, "note": 69, "velocity": 113, "channel": 0}, {"type": "note_off", "time": 94, "note": 69, "velocity": 113, "channel": 0}, {"type": "note_on", "time": 15, "note": 70, "velocity": 117, "channel": 0}, {"type": "note_off", "time": 100, "note": 70, "velocity": 117, "channel": 0}, {"type": "note_on", "time": 15, "note": 72, "velocity": 111, "channel": 0}, {"type": "note_off", "time": 71, "note": 72, "velocity": 111, "channel": 0}, {"type": "note_on", "time": 11, "note": 73, "velocity": 118, "channel": 0}, {"type": "note_off", "time": 78, "note": 73, "velocity": 118, "channel": 0}, {"type": "note_on", "time": 19, "note": 72, "velocity": 112, "channel": 0}, {"type": "note_off", "time": 85, "note": 72, "velocity": 112, "channel": 0}, {"type": "note_on", "time": 30, "note": 69, "velocity": 97, "channel": 0}, {"type": "note_off", "time": 51, "note": 69, "velocity": 97, "channel": 0}, {"type": "note_on", "time": 17, "note": 70, "velocity": 110, "channel": 0}, {"type": "note_off", "time": 290, "note": 70, "velocity": 110, "channel": 0}, {"type": "note_on", "time": 32, "note": 67, "velocity": 104, "channel": 0}, {"type": "note_off", "time": 56, "note": 67, "velocity": 104, "channel": 0}, {"type": "note_on", "time": 21, "note": 69, "velocity": 113, "channel": 0}, {"type": "note_off", "time": 265, "note": 69, "velocity": 113, "channel": 0}, {"type": "note_on", "time": 43, "note": 67, "velocity": 100, "channel": 0}, {"type": "note_off", "time": 59, "note": 67, "velocity": 100, "channel": 0}, {"type": "note_on", "time": 18, "note": 68, "velocity": 112, "channel": 0}, {"type": "note_off", "time": 100, "note": 68, "velocity": 112, "channel": 0}, {"type": "note_on", "time": 9, "note": 72, "velocity": 115, "channel": 0}, {"type": "note_off", "time": 57, "note": 72, "velocity": 115, "channel": 0}, {"type": "note_on", "time": 104, "note": 75, "velocity": 122, "channel": 0}, {"type": "note_off", "time": 80, "note": 75, "velocity": 122, "channel": 0}, {"type": "note_on", "time": 22, "note": 79, "velocity": 110, "channel": 0}, {"type": "note_off", "time": 90, "note": 79, "velocity": 110, "channel": 0}, {"type": "note_on", "time": 15, "note": 84, "velocity": 121, "channel": 0}, {"type": "note_off", "time": 635, "note": 84, "velocity": 121, "channel": 0}, {"type": "note_on", "time": 49, "note": 82, "velocity": 120, "channel": 0}, {"type": "note_off", "time": 102, "note": 82, "velocity": 120, "channel": 0}, {"type": "note_on", "time": 14, "note": 79, "velocity": 107, "channel": 0}, {"type": "note_off", "time": 88, "note": 79, "velocity": 107, "channel": 0}, {"type": "note_on", "time": 85, "note": 70, "velocity": 100, "channel": 0}, {"type": "note_off", "time": 50, "note": 70, "velocity": 100, "channel": 0}, {"type": "note_on", "time": 40, "note": 80, "velocity": 113, "channel": 0}, {"type": "note_off", "time": 164, "note": 80, "velocity": 113, "channel": 0}, {"type": "note_on", "time": 10, "note": 79, "velocity": 111, "channel": 0}, {"type": "note_off", "time": 100, "note": 79, "velocity": 111, "channel": 0}, {"type": "note_on", "time": 13, "note": 78, "velocity": 108, "channel": 0}, {"type": "note_off", "time": 95, "note": 78, "velocity": 108, "channel": 0}, {"type": "note_on", "time": 17, "note": 77, "velocity": 118, "channel": 0}, {"type": "note_off", "time": 92, "note": 77, "velocity": 118, "channel": 0}, {"type": "note_on", "time": 4, "note": 76, "velocity": 116, "channel": 0}, {"type": "note_off", "time": 73, "note": 76, "velocity": 116, "channel": 0}, {"type": "note_on", "time": 9, "note": 75, "velocity": 117, "channel": 0}, {"type": "note_off", "time": 87, "note": 75, "velocity": 117, "channel": 0}, {"type": "note_on", "time": 14, "note": 74, "velocity": 114, "channel": 0}, {"type": "note_off", "time": 83, "note": 74, "velocity": 114, "channel": 0}, {"type": "note_on", "time": 12, "note": 72, "velocity": 113, "channel": 0}, {"type": "note_off", "time": 87, "note": 72, "velocity": 113, "channel": 0}, {"type": "note_on", "time": 11, "note": 71, "velocity": 109, "channel": 0}, {"type": "note_off", "time": 77, "note": 71, "velocity": 109, "channel": 0}, {"type": "note_on", "time": 10, "note": 70, "velocity": 115, "channel": 0}, {"type": "note_off", "time": 95, "note": 70, "velocity": 115, "channel": 0}, {"type": "note_on", "time": 13, "note": 68, "velocity": 94, "channel": 0}, {"type": "note_off", "time": 51, "note": 68, "velocity": 94, "channel": 0}, {"type": "note_on", "time": 14, "note": 78, "velocity": 115, "channel": 0}, {"type": "note_off", "time": 104, "note": 78, "velocity": 115, "channel": 0}, {"type": "note_on", "time": 25, "note": 70, "velocity": 113, "channel": 0}, {"type": "note_off", "time": 68, "note": 70, "velocity": 113, "channel": 0}, {"type": "note_on", "time": 13, "note": 65, "velocity": 103, "channel": 0}, {"type": "note_off", "time": 65, "note": 65, "velocity": 103, "channel": 0}, {"type": "note_on", "time": 24, "note": 63, "velocity": 92, "channel": 0}, {"type": "note_off", "time": 80, "note": 63, "velocity": 92, "channel": 0}, {"type": "note_on", "time": 13, "note": 70, "velocity": 114, "channel": 0}, {"type": "note_off", "time": 88, "note": 70, "velocity": 114, "channel": 0}, {"type": "note_on", "time": 20, "note": 66, "velocity": 103, "channel": 0}, {"type": "note_off", "time": 80, "note": 66, "velocity": 103, "channel": 0}, {"type": "note_on", "time": 3, "note": 68, "velocity": 110, "channel": 0}, {"type": "note_off", "time": 74, "note": 68, "velocity": 110, "channel": 0}, {"type": "note_on", "time": 19, "note": 65, "velocity": 97, "channel": 0}, {"type": "note_off", "time": 51, "note": 65, "velocity": 97, "channel": 0}, {"type": "note_on", "time": 18, "note": 66, "velocity": 100, "channel": 0}, {"type": "note_off", "time": 94, "note": 66, "velocity": 100, "channel": 0}, {"type": "note_on", "time": 45, "note": 63, "velocity": 94, "channel": 0}, {"type": "note_off", "time": 76, "note": 63, "velocity": 94, "channel": 0}, {"type": "note_on", "time": 9, "note": 65, "velocity": 106, "channel": 0}, {"type": "note_off", "time": 77, "note": 65, "velocity": 106, "channel": 0}, {"type": "note_on", "time": 9, "note": 63, "velocity": 104, "channel": 0}, {"type": "note_off", "time": 64, "note": 63, "velocity": 104, "channel": 0}, {"type": "note_on", "time": 12, "note": 62, "velocity": 98, "channel": 0}, {"type": "note_off", "time": 64, "note": 62, "velocity": 98, "channel": 0}, {"type": "note_on", "time": 51, "note": 70, "velocity": 105, "channel": 0}, {"type": "note_off", "time": 85, "note": 70, "velocity": 105, "channel": 0}, {"type": "note_on", "time": 113, "note": 67, "velocity": 95, "channel": 0}, {"type": "note_off", "time": 50, "note": 67, "velocity": 95, "channel": 0}, {"type": "note_on", "time": 40, "note": 72, "velocity": 110, "channel": 0}, {"type": "note_off", "time": 179, "note": 72, "velocity": 110, "channel": 0}, {"type": "note_on", "time": 43, "note": 69, "velocity": 92, "channel": 0}, {"type": "note_off", "time": 51, "note": 69, "velocity": 92, "channel": 0}, {"type": "note_on", "time": 12, "note": 70, "velocity": 94, "channel": 0}, {"type": "note_off", "time": 425, "note": 70, "velocity": 94, "channel": 0}, {"type": "note_on", "time": 535, "note": 80, "velocity": 116, "channel": 0}, {"type": "note_off", "time": 72, "note": 80, "velocity": 116, "channel": 0}, {"type": "note_on", "time": 12, "note": 81, "velocity": 113, "channel": 0}, {"type": "note_off", "time": 124, "note": 81, "velocity": 113, "channel": 0}, {"type": "note_on", "time": 60, "note": 79, "velocity": 112, "channel": 0}, {"type": "note_off", "time": 107, "note": 79, "velocity": 112, "channel": 0}, {"type": "note_on", "time": 5, "note": 80, "velocity": 112, "channel": 0}, {"type": "note_off", "time": 76, "note": 80, "velocity": 112, "channel": 0}, {"type": "note_on", "time": 11, "note": 78, "velocity": 96, "channel": 0}, {"type": "note_off", "time": 73, "note": 78, "velocity": 96, "channel": 0}, {"type": "note_on", "time": 33, "note": 73, "velocity": 10, "channel": 0}, {"type": "note_off", "time": 78, "note": 73, "velocity": 10, "channel": 0}, {"type": "note_on", "time": 13, "note": 71, "velocity": 108, "channel": 0}, {"type": "note_off", "time": 72, "note": 71, "velocity": 108, "channel": 0}, {"type": "note_on", "time": 33, "note": 69, "velocity": 117, "channel": 0}, {"type": "note_off", "time": 61, "note": 69, "velocity": 117, "channel": 0}, {"type": "note_on", "time": 29, "note": 67, "velocity": 110, "channel": 0}, {"type": "note_off", "time": 60, "note": 67, "velocity": 110, "channel": 0}, {"type": "note_on", "time": 16, "note": 66, "velocity": 100, "channel": 0}, {"type": "note_off", "time": 56, "note": 66, "velocity": 100, "channel": 0}, {"type": "note_on", "time": 36, "note": 69, "velocity": 117, "channel": 0}, {"type": "note_off", "time": 83, "note": 69, "velocity": 117, "channel": 0}, {"type": "note_on", "time": 18, "note": 66, "velocity": 94, "channel": 0}, {"type": "note_off", "time": 54, "note": 66, "velocity": 94, "channel": 0}, {"type": "note_on", "time": 163, "note": 70, "velocity": 119, "channel": 0}, {"type": "note_off", "time": 69, "note": 70, "velocity": 119, "channel": 0}, {"type": "note_on", "time": 14, "note": 66, "velocity": 103, "channel": 0}, {"type": "note_off", "time": 59, "note": 66, "velocity": 103, "channel": 0}, {"type": "note_on", "time": 42, "note": 63, "velocity": 112, "channel": 0}, {"type": "note_off", "time": 79, "note": 63, "velocity": 112, "channel": 0}, {"type": "note_on", "time": 15, "note": 62, "velocity": 104, "channel": 0}, {"type": "note_off", "time": 71, "note": 62, "velocity": 104, "channel": 0}, {"type": "note_on", "time": 23, "note": 57, "velocity": 106, "channel": 0}, {"type": "note_off", "time": 55, "note": 57, "velocity": 106, "channel": 0}, {"type": "note_on", "time": 28, "note": 64, "velocity": 107, "channel": 0}, {"type": "note_off", "time": 89, "note": 64, "velocity": 107, "channel": 0}, {"type": "note_on", "time": 15, "note": 66, "velocity": 108, "channel": 0}, {"type": "note_off", "time": 58, "note": 66, "velocity": 108, "channel": 0}, {"type": "note_on", "time": 60, "note": 67, "velocity": 96, "channel": 0}, {"type": "note_off", "time": 69, "note": 67, "velocity": 96, "channel": 0}, {"type": "note_on", "time": 9, "note": 69, "velocity": 107, "channel": 0}, {"type": "note_off", "time": 53, "note": 69, "velocity": 107, "channel": 0}, {"type": "note_on", "time": 15, "note": 70, "velocity": 117, "channel": 0}, {"type": "note_off", "time": 116, "note": 70, "velocity": 117, "channel": 0}, {"type": "note_on", "time": 16, "note": 67, "velocity": 98, "channel": 0}, {"type": "note_off", "time": 55, "note": 67, "velocity": 98, "channel": 0}, {"type": "note_on", "time": 30, "note": 69, "velocity": 112, "channel": 0}, {"type": "note_off", "time": 76, "note": 69, "velocity": 112, "channel": 0}, {"type": "note_on", "time": 104, "note": 70, "velocity": 115, "channel": 0}, {"type": "note_off", "time": 180, "note": 70, "velocity": 115, "channel": 0}, {"type": "note_on", "time": 22, "note": 72, "velocity": 114, "channel": 0}, {"type": "note_off", "time": 169, "note": 72, "velocity": 114, "channel": 0}, {"type": "note_on", "time": 8, "note": 76, "velocity": 119, "channel": 0}, {"type": "note_off", "time": 162, "note": 76, "velocity": 119, "channel": 0}, {"type": "note_on", "time": 13, "note": 79, "velocity": 112, "channel": 0}, {"type": "note_off", "time": 160, "note": 79, "velocity": 112, "channel": 0}, {"type": "note_on", "time": 21, "note": 84, "velocity": 118, "channel": 0}, {"type": "note_off", "time": 1062, "note": 84, "velocity": 118, "channel": 0}, {"type": "note_on", "time": 52, "note": 81, "velocity": 117, "channel": 0}, {"type": "note_off", "time": 88, "note": 81, "velocity": 117, "channel": 0}, {"type": "note_on", "time": 16, "note": 79, "velocity": 112, "channel": 0}, {"type": "note_off", "time": 73, "note": 79, "velocity": 112, "channel": 0}, {"type": "note_on", "time": 16, "note": 76, "velocity": 116, "channel": 0}, {"type": "note_off", "time": 70, "note": 76, "velocity": 116, "channel": 0}, {"type": "note_on", "time": 10, "note": 72, "velocity": 114, "channel": 0}, {"type": "note_off", "time": 87, "note": 72, "velocity": 114, "channel": 0}, {"type": "note_on", "time": 13, "note": 69, "velocity": 102, "channel": 0}, {"type": "note_off", "time": 64, "note": 69, "velocity": 102, "channel": 0}, {"type": "note_on", "time": 20, "note": 70, "velocity": 118, "channel": 0}, {"type": "note_off", "time": 95, "note": 70, "velocity": 118, "channel": 0}, {"type": "note_on", "time": 23, "note": 67, "velocity": 104, "channel": 0}, {"type": "note_off", "time": 31, "note": 67, "velocity": 104, "channel": 0}, {"type": "note_on", "time": 22, "note": 69, "velocity": 115, "channel": 0}, {"type": "note_off", "time": 86, "note": 69, "velocity": 115, "channel": 0}, {"type": "note_on", "time": 33, "note": 66, "velocity": 97, "channel": 0}, {"type": "note_off", "time": 32, "note": 66, "velocity": 97, "channel": 0}, {"type": "note_on", "time": 30, "note": 67, "velocity": 102, "channel": 0}, {"type": "note_off", "time": 96, "note": 67, "velocity": 102, "channel": 0}, {"type": "note_on", "time": 103, "note": 64, "velocity": 108, "channel": 0}, {"type": "note_off", "time": 167, "note": 64, "velocity": 108, "channel": 0}, {"type": "note_on", "time": 19, "note": 67, "velocity": 106, "channel": 0}, {"type": "note_off", "time": 166, "note": 67, "velocity": 106, "channel": 0}, {"type": "note_on", "time": 18, "note": 72, "velocity": 107, "channel": 0}, {"type": "note_off", "time": 89, "note": 72, "velocity": 107, "channel": 0}, {"type": "note_on", "time": 78, "note": 70, "velocity": 116, "channel": 0}, {"type": "note_off", "time": 707, "note": 70, "velocity": 116, "channel": 0}, {"type": "note_on", "time": 5, "note": 67, "velocity": 85, "channel": 0}, {"type": "note_off", "time": 50, "note": 67, "velocity": 85, "channel": 0}, {"type": "note_on", "time": 38, "note": 76, "velocity": 104, "channel": 0}, {"type": "note_off", "time": 38, "note": 76, "velocity": 104, "channel": 0}, {"type": "note_on", "time": 8, "note": 73, "velocity": 106, "channel": 0}, {"type": "note_off", "time": 10, "note": 73, "velocity": 106, "channel": 0}, {"type": "note_on", "time": 2, "note": 70, "velocity": 114, "channel": 0}, {"type": "note_off", "time": 50, "note": 70, "velocity": 114, "channel": 0}, {"type": "note_on", "time": 12, "note": 69, "velocity": 105, "channel": 0}, {"type": "note_off", "time": 63, "note": 69, "velocity": 105, "channel": 0}, {"type": "note_on", "time": 13, "note": 70, "velocity": 107, "channel": 0}, {"type": "note_off", "time": 36, "note": 70, "velocity": 107, "channel": 0}, {"type": "note_on", "time": 1, "note": 75, "velocity": 110, "channel": 0}, {"type": "note_off", "time": 23, "note": 75, "velocity": 110, "channel": 0}, {"type": "note_on", "time": 4, "note": 72, "velocity": 101, "channel": 0}, {"type": "note_off", "time": 21, "note": 72, "velocity": 101, "channel": 0}, {"type": "note_on", "time": 5, "note": 70, "velocity": 110, "channel": 0}, {"type": "note_off", "time": 52, "note": 70, "velocity": 110, "channel": 0}, {"type": "note_on", "time": 22, "note": 69, "velocity": 106, "channel": 0}, {"type": "note_off", "time": 43, "note": 69, "velocity": 106, "channel": 0}, {"type": "note_on", "time": 21, "note": 75, "velocity": 102, "channel": 0}, {"type": "note_off", "time": 21, "note": 75, "velocity": 102, "channel": 0}, {"type": "note_on", "time": 8, "note": 73, "velocity": 107, "channel": 0}, {"type": "note_off", "time": 26, "note": 73, "velocity": 107, "channel": 0}, {"type": "note_on", "time": 4, "note": 70, "velocity": 107, "channel": 0}, {"type": "note_off", "time": 45, "note": 70, "velocity": 107, "channel": 0}, {"type": "note_on", "time": 12, "note": 69, "velocity": 106, "channel": 0}, {"type": "note_off", "time": 39, "note": 69, "velocity": 106, "channel": 0}, {"type": "note_on", "time": 4, "note": 70, "velocity": 109, "channel": 0}, {"type": "note_off", "time": 46, "note": 70, "velocity": 109, "channel": 0}, {"type": "note_on", "time": 51, "note": 73, "velocity": 105, "channel": 0}, {"type": "note_off", "time": 22, "note": 73, "velocity": 105, "channel": 0}, {"type": "note_on", "time": 10, "note": 70, "velocity": 113, "channel": 0}, {"type": "note_off", "time": 46, "note": 70, "velocity": 113, "channel": 0}, {"type": "note_on", "time": 9, "note": 69, "velocity": 116, "channel": 0}, {"type": "note_off", "time": 65, "note": 69, "velocity": 116, "channel": 0}, {"type": "note_on", "time": 13, "note": 67, "velocity": 93, "channel": 0}, {"type": "note_off", "time": 504, "note": 67, "velocity": 93, "channel": 0}, {"type": "end_of_track", "time": 0}]]}