{"ticks_per_beat": 192, "tracks": [[{"type": "track_name", "name": "Melody", "time": 0}, {"type": "set_tempo", "tempo": 175953, "time": 0}, {"type": "key_signature", "key": "Bb", "time": 0}, {"type": "time_signature", "numerator": 4, "denominator": 4, "clocks_per_click": 24, "notated_32nd_notes_per_beat": 8, "time": 0}, {"type": "note_on", "time": 3885, "note": 82, "velocity": 97, "channel": 0}, {"type": "note_off", "time": 110, "note": 82, "velocity": 97, "channel": 0}, {"type": "note_on", "time": 23, "note": 80, "velocity": 96, "channel": 0}, {"type": "note_off", "time": 75, "note": 80, "velocity": 96, "channel": 0}, {"type": "note_on", "time": 38, "note": 78, "velocity": 107, "channel": 0}, {"type": "note_off", "time": 46, "note": 78, "velocity": 107, "channel": 0}, {"type": "note_on", "time": 19, "note": 77, "velocity": 114, "channel": 0}, {"type": "note_off", "time": 35, "note": 77, "velocity": 114, "channel": 0}, {"type": "note_on", "time": 11, "note": 76, "velocity": 119, "channel": 0}, {"type": "note_off", "time": 76, "note": 76, "velocity": 119, "channel": 0}, {"type": "note_on", "time": 12, "note": 75, "velocity": 100, "channel": 0}, {"type": "note_off", "time": 50, "note": 75, "velocity": 100, "channel": 0}, {"type": "note_on", "time": 15, "note": 73, "velocity": 113, "channel": 0}, {"type": "note_off", "time": 63, "note": 73, "velocity": 113, "channel": 0}, {"type": "note_on", "time": 9, "note": 72, "velocity": 110, "channel": 0}, {"type": "note_off", "time": 50, "note": 72, "velocity": 110, "channel": 0}, {"type": "note_on", "time": 25, "note": 71, "velocity": 114, "channel": 0}, {"type": "note_off", "time": 63, "note": 71, "velocity": 114, "channel": 0}, {"type": "note_on", "time": 22, "note": 69, "velocity": 119, "channel": 0}, {"type": "note_off", "time": 95, "note": 69, "velocity": 119, "channel": 0}, {"type": "note_on", "time": 15, "note": 68, "velocity": 114, "channel": 0}, {"type": "note_off", "time": 63, "note": 68, "velocity": 114, "channel": 0}, {"type": "note_on", "time": 0, "note": 67, "velocity": 113, "channel": 0}, {"type": "note_on", "time": 50, "note": 66, "velocity": 116, "channel": 0}, {"type": "note_off", "time": 0, "note": 67, "velocity": 113, "channel": 0}, {"type": "note_off", "time": 53, "note": 66, "velocity": 116, "channel": 0}, {"type": "note_on", "time": 9, "note": 65, "velocity": 123, "channel": 0}, {"type": "note_off", "time": 50, "note": 65, "velocity": 123, "channel": 0}, {"type": "note_on", "time": 9, "note": 64, "velocity": 124, "channel": 0}, {"type": "note_off", "time": 53, "note": 64, "velocity": 124, "channel": 0}, {"type": "note_on", "time": 15, "note": 63, "velocity": 122, "channel": 0}, {"type": "note_off", "time": 60, "note": 63, "velocity": 122, "channel": 0}, {"type": "note_on", "time": 9, "note": 61, "velocity": 121, "channel": 0}, {"type": "note_off", "time": 88, "note": 61, "velocity": 121, "channel": 0}, {"type": "note_on", "time": 8, "note": 59, "velocity": 122, "channel": 0}, {"type": "note_off", "time": 158, "note": 59, "velocity": 122, "channel": 0}, {"type": "note_on", "time": 16, "note": 58, "velocity": 119, "channel": 0}, {"type": "note_off", "time": 133, "note": 58, "velocity": 119, "channel": 0}, {"type": "note_on", "time": 91, "note": 60, "velocity": 109, "channel": 0}, {"type": "note_off", "time": 117, "note": 60, "velocity": 109, "channel": 0}, {"type": "note_on", "time": 3, "note": 62, "velocity": 104, "channel": 0}, {"type": "note_off", "time": 82, "note": 62, "velocity": 104, "channel": 0}, {"type": "note_on", "time": 9, "note": 65, "velocity": 106, "channel": 0}, {"type": "note_off", "time": 104, "note": 65, "velocity": 106, "channel": 0}, {"type": "note_on", "time": 0, "note": 62, "velocity": 111, "channel": 0}, {"type": "note_off", "time": 69, "note": 62, "velocity": 111, "channel": 0}, {"type": "note_on", "time": 6, "note": 60, "velocity": 111, "channel": 0}, {"type": "note_off", "time": 91, "note": 60, "velocity": 111, "channel": 0}, {"type": "note_on", "time": 6, "note": 58, "velocity": 108, "channel": 0}, {"type": "note_off", "time": 85, "note": 58, "velocity": 108, "channel": 0}, {"type": "note_on", "time": 9, "note": 60, "velocity": 104, "channel": 0}, {"type": "note_off", "time": 107, "note": 60, "velocity": 104, "channel": 0}, {"type": "note_on", "time": 6, "note": 58, "velocity": 112, "channel": 0}, {"type": "note_off", "time": 53, "note": 58, "velocity": 112, "channel": 0}, {"type": "note_on", "time": 6, "note": 57, "velocity": 115, "channel": 0}, {"type": "note_off", "time": 123, "note": 57, "velocity": 115, "channel": 0}, {"type": "note_on", "time": 28, "note": 58, "velocity": 117, "channel": 0}, {"type": "note_off", "time": 98, "note": 58, "velocity": 117, "channel": 0}, {"type": "note_on", "time": 9, "note": 63, "velocity": 107, "channel": 0}, {"type": "note_off", "time": 88, "note": 63, "velocity": 107, "channel": 0}, {"type": "note_on", "time": 25, "note": 66, "velocity": 114, "channel": 0}, {"type": "note_off", "time": 72, "note": 66, "velocity": 114, "channel": 0}, {"type": "note_on", "time": 0, "note": 69, "velocity": 110, "channel": 0}, {"type": "note_off", "time": 72, "note": 69, "velocity": 110, "channel": 0}, {"type": "note_on", "time": 28, "note": 66, "velocity": 107, "channel": 0}, {"type": "note_off", "time": 76, "note": 66, "velocity": 107, "channel": 0}, {"type": "note_on", "time": 28, "note": 67, "velocity": 111, "channel": 0}, {"type": "note_off", "time": 76, "note": 67, "velocity": 111, "channel": 0}, {"type": "note_on", "time": 26, "note": 64, "velocity": 103, "channel": 0}, {"type": "note_off", "time": 53, "note": 64, "velocity": 103, "channel": 0}, {"type": "note_on", "time": 22, "note": 63, "velocity": 104, "channel": 0}, {"type": "note_off", "time": 84, "note": 63, "velocity": 104, "channel": 0}, {"type": "note_on", "time": 4, "note": 60, "velocity": 92, "channel": 0}, {"type": "note_off", "time": 71, "note": 60, "velocity": 92, "channel": 0}, {"type": "note_on", "time": 16, "note": 65, "velocity": 109, "channel": 0}, {"type": "note_off", "time": 82, "note": 65, "velocity": 109, "channel": 0}, {"type": "note_on", "time": 34, "note": 58, "velocity": 109, "channel": 0}, {"type": "note_off", "time": 120, "note": 58, "velocity": 109, "channel": 0}, {"type": "note_on", "time": 1314, "note": 70, "velocity": 114, "channel": 0}, {"type": "note_off", "time": 85, "note": 70, "velocity": 114, "channel": 0}, {"type": "note_on", "time": 19, "note": 72, "velocity": 104, "channel": 0}, {"type": "note_off", "time": 85, "note": 72, "velocity": 104, "channel": 0}, {"type": "note_on", "time": 209, "note": 70, "velocity": 111, "channel": 0}, {"type": "note_off", "time": 72, "note": 70, "velocity": 111, "channel": 0}, {"type": "note_on", "time": 19, "note": 72, "velocity": 101, "channel": 0}, {"type": "note_off", "time": 91, "note": 72, "velocity": 101, "channel": 0}, {"type": "note_on", "time": 209, "note": 70, "velocity": 113, "channel": 0}, {"type": "note_off", "time": 361, "note": 70, "velocity": 113, "channel": 0}, {"type": "note_on", "time": 31, "note": 70, "velocity": 114, "channel": 0}, {"type": "note_off", "time": 66, "note": 70, "velocity": 114, "channel": 0}, {"type": "note_on", "time": 12, "note": 69, "velocity": 108, "channel": 0}, {"type": "note_off", "time": 82, "note": 69, "velocity": 108, "channel": 0}, {"type": "note_on", "time": 19, "note": 68, "velocity": 113, "channel": 0}, {"type": "note_off", "time": 91, "note": 68, "velocity": 113, "channel": 0}, {"type": "note_on", "time": 0, "note": 67, "velocity": 118, "channel": 0}, {"type": "note_off", "time": 69, "note": 67, "velocity": 118, "channel": 0}, {"type": "note_on", "time": 9, "note": 66, "velocity": 117, "channel": 0}, {"type": "note_off", "time": 88, "note": 66, "velocity": 117, "channel": 0}, {"type": "note_on", "time": 22, "note": 65, "velocity": 123, "channel": 0}, {"type": "note_off", "time": 82, "note": 65, "velocity": 123, "channel": 0}, {"type": "note_on", "time": 28, "note": 64, "velocity": 115, "channel": 0}, {"type": "note_off", "time": 76, "note": 64, "velocity": 115, "channel": 0}, {"type": "note_on", "time": 15, "note": 62, "velocity": 113, "channel": 0}, {"type": "note_off", "time": 79, "note": 62, "velocity": 113, "channel": 0}, {"type": "note_on", "time": 12, "note": 63, "velocity": 114, "channel": 0}, {"type": "note_off", "time": 76, "note": 63, "velocity": 114, "channel": 0}, {"type": "note_on", "time": 19, "note": 65, "velocity": 110, "channel": 0}, {"type": "note_off", "time": 88, "note": 65, "velocity": 110, "channel": 0}, {"type": "note_on", "time": 12, "note": 66, "velocity": 107, "channel": 0}, {"type": "note_off", "time": 79, "note": 66, "velocity": 107, "channel": 0}, {"type": "note_on", "time": 19, "note": 69, "velocity": 99, "channel": 0}, {"type": "note_off", "time": 57, "note": 69, "velocity": 99, "channel": 0}, {"type": "note_on", "time": 15, "note": 70, "velocity": 110, "channel": 0}, {"type": "note_off", "time": 66, "note": 70, "velocity": 110, "channel": 0}, {"type": "note_on", "time": 50, "note": 66, "velocity": 118, "channel": 0}, {"type": "note_off", "time": 69, "note": 66, "velocity": 118, "channel": 0}, {"type": "note_on", "time": 22, "note": 63, "velocity": 105, "channel": 0}, {"type": "note_off", "time": 72, "note": 63, "velocity": 105, "channel": 0}, {"type": "note_on", "time": 9, "note": 60, "velocity": 104, "channel": 0}, {"type": "note_off", "time": 60, "note": 60, "velocity": 104, "channel": 0}, {"type": "note_on", "time": 9, "note": 65, "velocity": 122, "channel": 0}, {"type": "note_off", "time": 88, "note": 65, "velocity": 122, "channel": 0}, {"type": "note_on", "time": 9, "note": 64, "velocity": 119, "channel": 0}, {"type": "note_off", "time": 69, "note": 64, "velocity": 119, "channel": 0}, {"type": "note_on", "time": 15, "note": 65, "velocity": 116, "channel": 0}, {"type": "note_off", "time": 117, "note": 65, "velocity": 116, "channel": 0}, {"type": "note_on", "time": 69, "note": 77, "velocity": 103, "channel": 0}, {"type": "note_off", "time": 85, "note": 77, "velocity": 103, "channel": 0}, {"type": "note_on", "time": 3, "note": 76, "velocity": 115, "channel": 0}, {"type": "note_off", "time": 101, "note": 76, "velocity": 115, "channel": 0}, {"type": "note_on", "time": 30, "note": 77, "velocity": 100, "channel": 0}, {"type": "note_off", "time": 88, "note": 77, "velocity": 100, "channel": 0}, {"type": "note_on", "time": 130, "note": 77, "velocity": 109, "channel": 0}, {"type": "note_off", "time": 82, "note": 77, "velocity": 109, "channel": 0}, {"type": "note_on", "time": 22, "note": 79, "velocity": 99, "channel": 0}, {"type": "note_off", "time": 88, "note": 79, "velocity": 99, "channel": 0}, {"type": "note_on", "time": 3, "note": 74, "velocity": 111, "channel": 0}, {"type": "note_off", "time": 101, "note": 74, "velocity": 111, "channel": 0}, {"type": "note_on", "time": 20, "note": 69, "velocity": 91, "channel": 0}, {"type": "note_off", "time": 77, "note": 69, "velocity": 91, "channel": 0}, {"type": "note_on", "time": 2, "note": 70, "velocity": 104, "channel": 0}, {"type": "note_off", "time": 80, "note": 70, "velocity": 104, "channel": 0}, {"type": "note_on", "time": 22, "note": 67, "velocity": 111, "channel": 0}, {"type": "note_off", "time": 86, "note": 67, "velocity": 111, "channel": 0}, {"type": "note_on", "time": 17, "note": 69, "velocity": 100, "channel": 0}, {"type": "note_off", "time": 75, "note": 69, "velocity": 100, "channel": 0}, {"type": "note_on", "time": 13, "note": 67, "velocity": 106, "channel": 0}, {"type": "note_off", "time": 57, "note": 67, "velocity": 106, "channel": 0}, {"type": "note_on", "time": 4, "note": 64, "velocity": 115, "channel": 0}, {"type": "note_off", "time": 75, "note": 64, "velocity": 115, "channel": 0}, {"type": "note_on", "time": 22, "note": 66, "velocity": 108, "channel": 0}, {"type": "note_off", "time": 84, "note": 66, "velocity": 108, "channel": 0}, {"type": "note_on", "time": 17, "note": 64, "velocity": 109, "channel": 0}, {"type": "note_off", "time": 97, "note": 64, "velocity": 109, "channel": 0}, {"type": "note_on", "time": 4, "note": 66, "velocity": 109, "channel": 0}, {"type": "note_off", "time": 84, "note": 66, "velocity": 109, "channel": 0}, {"type": "note_on", "time": 0, "note": 63, "velocity": 110, "channel": 0}, {"type": "note_off", "time": 106, "note": 63, "velocity": 110, "channel": 0}, {"type": "note_on", "time": 4, "note": 64, "velocity": 111, "channel": 0}, {"type": "note_off", "time": 48, "note": 64, "velocity": 111, "channel": 0}, {"type": "note_on", "time": 17, "note": 63, "velocity": 111, "channel": 0}, {"type": "note_off", "time": 102, "note": 63, "velocity": 111, "channel": 0}, {"type": "note_on", "time": 35, "note": 62, "velocity": 114, "channel": 0}, {"type": "note_off", "time": 106, "note": 62, "velocity": 114, "channel": 0}, {"type": "note_on", "time": 4, "note": 65, "velocity": 112, "channel": 0}, {"type": "note_off", "time": 89, "note": 65, "velocity": 112, "channel": 0}, {"type": "note_on", "time": 0, "note": 63, "velocity": 108, "channel": 0}, {"type": "note_off", "time": 71, "note": 63, "velocity": 108, "channel": 0}, {"type": "note_on", "time": 4, "note": 62, "velocity": 110, "channel": 0}, {"type": "note_off", "time": 93, "note": 62, "velocity": 110, "channel": 0}, {"type": "note_on", "time": 26, "note": 60, "velocity": 110, "channel": 0}, {"type": "note_off", "time": 66, "note": 60, "velocity": 110, "channel": 0}, {"type": "note_on", "time": 22, "note": 58, "velocity": 116, "channel": 0}, {"type": "note_off", "time": 80, "note": 58, "velocity": 116, "channel": 0}, {"type": "note_on", "time": 22, "note": 60, "velocity": 108, "channel": 0}, {"type": "note_off", "time": 89, "note": 60, "velocity": 108, "channel": 0}, {"type": "note_on", "time": 13, "note": 62, "velocity": 112, "channel": 0}, {"type": "note_off", "time": 62, "note": 62, "velocity": 112, "channel": 0}, {"type": "note_on", "time": 8, "note": 65, "velocity": 112, "channel": 0}, {"type": "note_off", "time": 71, "note": 65, "velocity": 112, "channel": 0}, {"type": "note_on", "time": 17, "note": 69, "velocity": 112, "channel": 0}, {"type": "note_off", "time": 84, "note": 69, "velocity": 112, "channel": 0}, {"type": "note_on", "time": 22, "note": 67, "velocity": 107, "channel": 0}, {"type": "note_off", "time": 66, "note": 67, "velocity": 107, "channel": 0}, {"type": "note_on", "time": 40, "note": 65, "velocity": 104, "channel": 0}, {"type": "note_off", "time": 80, "note": 65, "velocity": 104, "channel": 0}, {"type": "note_on", "time": 8, "note": 62, "velocity": 108, "channel": 0}, {"type": "note_off", "time": 66, "note": 62, "velocity": 108, "channel": 0}, {"type": "note_on", "time": 4, "note": 63, "velocity": 112, "channel": 0}, {"type": "note_off", "time": 75, "note": 63, "velocity": 112, "channel": 0}, {"type": "note_on", "time": 22, "note": 65, "velocity": 114, "channel": 0}, {"type": "note_off", "time": 66, "note": 65, "velocity": 114, "channel": 0}, {"type": "note_on", "time": 17, "note": 67, "velocity": 102, "channel": 0}, {"type": "note_off", "time": 80, "note": 67, "velocity": 102, "channel": 0}, {"type": "note_on", "time": 13, "note": 69, "velocity": 101, "channel": 0}, {"type": "note_off", "time": 84, "note": 69, "velocity": 101, "channel": 0}, {"type": "note_on", "time": 0, "note": 74, "velocity": 113, "channel": 0}, {"type": "note_off", "time": 79, "note": 74, "velocity": 113, "channel": 0}, {"type": "note_on", "time": 12, "note": 73, "velocity": 106, "channel": 0}, {"type": "note_off", "time": 72, "note": 73, "velocity": 106, "channel": 0}, {"type": "note_on", "time": 0, "note": 74, "velocity": 106, "channel": 0}, {"type": "note_off", "time": 110, "note": 74, "velocity": 106, "channel": 0}, {"type": "note_on", "time": 57, "note": 75, "velocity": 104, "channel": 0}, {"type": "note_off", "time": 126, "note": 75, "velocity": 104, "channel": 0}, {"type": "note_on", "time": 15, "note": 74, "velocity": 97, "channel": 0}, {"type": "note_off", "time": 66, "note": 74, "velocity": 97, "channel": 0}, {"type": "note_on", "time": 3, "note": 75, "velocity": 102, "channel": 0}, {"type": "note_off", "time": 76, "note": 75, "velocity": 102, "channel": 0}, {"type": "note_on", "time": 82, "note": 71, "velocity": 104, "channel": 0}, {"type": "note_off", "time": 88, "note": 71, "velocity": 104, "channel": 0}, {"type": "note_on", "time": 15, "note": 72, "velocity": 104, "channel": 0}, {"type": "note_off", "time": 943, "note": 72, "velocity": 104, "channel": 0}, {"type": "note_on", "time": 123, "note": 74, "velocity": 111, "channel": 0}, {"type": "note_off", "time": 85, "note": 74, "velocity": 111, "channel": 0}, {"type": "note_on", "time": 9, "note": 73, "velocity": 107, "channel": 0}, {"type": "note_off", "time": 66, "note": 73, "velocity": 107, "channel": 0}, {"type": "note_on", "time": 19, "note": 74, "velocity": 107, "channel": 0}, {"type": "note_off", "time": 91, "note": 74, "velocity": 107, "channel": 0}, {"type": "note_on", "time": 12, "note": 72, "velocity": 101, "channel": 0}, {"type": "note_off", "time": 85, "note": 72, "velocity": 101, "channel": 0}, {"type": "note_on", "time": 6, "note": 69, "velocity": 110, "channel": 0}, {"type": "note_off", "time": 72, "note": 69, "velocity": 110, "channel": 0}, {"type": "note_on", "time": 15, "note": 70, "velocity": 109, "channel": 0}, {"type": "note_off", "time": 88, "note": 70, "velocity": 109, "channel": 0}, {"type": "note_on", "time": 22, "note": 72, "velocity": 100, "channel": 0}, {"type": "note_off", "time": 79, "note": 72, "velocity": 100, "channel": 0}, {"type": "note_on", "time": 6, "note": 69, "velocity": 106, "channel": 0}, {"type": "note_off", "time": 76, "note": 69, "velocity": 106, "channel": 0}, {"type": "note_on", "time": 6, "note": 70, "velocity": 105, "channel": 0}, {"type": "note_off", "time": 79, "note": 70, "velocity": 105, "channel": 0}, {"type": "note_on", "time": 12, "note": 65, "velocity": 109, "channel": 0}, {"type": "note_off", "time": 91, "note": 65, "velocity": 109, "channel": 0}, {"type": "note_on", "time": 9, "note": 62, "velocity": 112, "channel": 0}, {"type": "note_off", "time": 72, "note": 62, "velocity": 112, "channel": 0}, {"type": "note_on", "time": 12, "note": 63, "velocity": 107, "channel": 0}, {"type": "note_off", "time": 82, "note": 63, "velocity": 107, "channel": 0}, {"type": "note_on", "time": 28, "note": 65, "velocity": 112, "channel": 0}, {"type": "note_off", "time": 98, "note": 65, "velocity": 112, "channel": 0}, {"type": "note_on", "time": 0, "note": 67, "velocity": 105, "channel": 0}, {"type": "note_off", "time": 79, "note": 67, "velocity": 105, "channel": 0}, {"type": "note_on", "time": 3, "note": 66, "velocity": 105, "channel": 0}, {"type": "note_off", "time": 91, "note": 66, "velocity": 105, "channel": 0}, {"type": "note_on", "time": 6, "note": 64, "velocity": 110, "channel": 0}, {"type": "note_off", "time": 82, "note": 64, "velocity": 110, "channel": 0}, {"type": "note_on", "time": 12, "note": 65, "velocity": 112, "channel": 0}, {"type": "note_off", "time": 120, "note": 65, "velocity": 112, "channel": 0}, {"type": "note_on", "time": 9, "note": 63, "velocity": 109, "channel": 0}, {"type": "note_off", "time": 79, "note": 63, "velocity": 109, "channel": 0}, {"type": "note_on", "time": 6, "note": 62, "velocity": 108, "channel": 0}, {"type": "note_off", "time": 79, "note": 62, "velocity": 108, "channel": 0}, {"type": "note_on", "time": 15, "note": 60, "velocity": 110, "channel": 0}, {"type": "note_off", "time": 72, "note": 60, "velocity": 110, "channel": 0}, {"type": "note_on", "time": 12, "note": 58, "velocity": 110, "channel": 0}, {"type": "note_off", "time": 85, "note": 58, "velocity": 110, "channel": 0}, {"type": "note_on", "time": 41, "note": 60, "velocity": 109, "channel": 0}, {"type": "note_off", "time": 91, "note": 60, "velocity": 109, "channel": 0}, {"type": "note_on", "time": 12, "note": 62, "velocity": 109, "channel": 0}, {"type": "note_off", "time": 88, "note": 62, "velocity": 109, "channel": 0}, {"type": "note_on", "time": 6, "note": 66, "velocity": 115, "channel": 0}, {"type": "note_off", "time": 69, "note": 66, "velocity": 115, "channel": 0}, {"type": "note_on", "time": 3, "note": 70, "velocity": 115, "channel": 0}, {"type": "note_off", "time": 85, "note": 70, "velocity": 115, "channel": 0}, {"type": "note_on", "time": 25, "note": 65, "velocity": 105, "channel": 0}, {"type": "note_off", "time": 120, "note": 65, "velocity": 105, "channel": 0}, {"type": "note_on", "time": 554, "note": 82, "velocity": 99, "channel": 0}, {"type": "note_off", "time": 101, "note": 82, "velocity": 99, "channel": 0}, {"type": "note_on", "time": 6, "note": 78, "velocity": 106, "channel": 0}, {"type": "note_off", "time": 91, "note": 78, "velocity": 106, "channel": 0}, {"type": "note_on", "time": 19, "note": 74, "velocity": 107, "channel": 0}, {"type": "note_off", "time": 76, "note": 74, "velocity": 107, "channel": 0}, {"type": "note_on", "time": 22, "note": 70, "velocity": 112, "channel": 0}, {"type": "note_off", "time": 57, "note": 70, "velocity": 112, "channel": 0}, {"type": "note_on", "time": 3, "note": 68, "velocity": 109, "channel": 0}, {"type": "note_off", "time": 114, "note": 68, "velocity": 109, "channel": 0}, {"type": "note_on", "time": 3, "note": 67, "velocity": 106, "channel": 0}, {"type": "note_off", "time": 82, "note": 67, "velocity": 106, "channel": 0}, {"type": "note_on", "time": 19, "note": 70, "velocity": 110, "channel": 0}, {"type": "note_off", "time": 69, "note": 70, "velocity": 110, "channel": 0}, {"type": "note_on", "time": 15, "note": 67, "velocity": 104, "channel": 0}, {"type": "note_off", "time": 57, "note": 67, "velocity": 104, "channel": 0}, {"type": "note_on", "time": 12, "note": 68, "velocity": 104, "channel": 0}, {"type": "note_off", "time": 82, "note": 68, "velocity": 104, "channel": 0}, {"type": "note_on", "time": 25, "note": 65, "velocity": 103, "channel": 0}, {"type": "note_off", "time": 79, "note": 65, "velocity": 103, "channel": 0}, {"type": "note_on", "time": 3, "note": 64, "velocity": 95, "channel": 0}, {"type": "note_off", "time": 69, "note": 64, "velocity": 95, "channel": 0}, {"type": "note_on", "time": 22, "note": 62, "velocity": 102, "channel": 0}, {"type": "note_off", "time": 53, "note": 62, "velocity": 102, "channel": 0}, {"type": "note_on", "time": 34, "note": 65, "velocity": 106, "channel": 0}, {"type": "note_off", "time": 85, "note": 65, "velocity": 106, "channel": 0}, {"type": "note_on", "time": 34, "note": 62, "velocity": 106, "channel": 0}, {"type": "note_off", "time": 79, "note": 62, "velocity": 106, "channel": 0}, {"type": "note_on", "time": 9, "note": 63, "velocity": 105, "channel": 0}, {"type": "note_off", "time": 66, "note": 63, "velocity": 105, "channel": 0}, {"type": "note_on", "time": 28, "note": 65, "velocity": 102, "channel": 0}, {"type": "note_off", "time": 98, "note": 65, "velocity": 102, "channel": 0}, {"type": "note_on", "time": 3, "note": 67, "velocity": 103, "channel": 0}, {"type": "note_off", "time": 69, "note": 67, "velocity": 103, "channel": 0}, {"type": "note_on", "time": 15, "note": 68, "velocity": 97, "channel": 0}, {"type": "note_off", "time": 69, "note": 68, "velocity": 97, "channel": 0}, {"type": "note_on", "time": 15, "note": 70, "velocity": 106, "channel": 0}, {"type": "note_off", "time": 104, "note": 70, "velocity": 106, "channel": 0}, {"type": "note_on", "time": 0, "note": 69, "velocity": 108, "channel": 0}, {"type": "note_off", "time": 88, "note": 69, "velocity": 108, "channel": 0}, {"type": "note_on", "time": 15, "note": 68, "velocity": 104, "channel": 0}, {"type": "note_off", "time": 85, "note": 68, "velocity": 104, "channel": 0}, {"type": "note_on", "time": 85, "note": 67, "velocity": 97, "channel": 0}, {"type": "note_off", "time": 101, "note": 67, "velocity": 97, "channel": 0}, {"type": "note_on", "time": 79, "note": 66, "velocity": 94, "channel": 0}, {"type": "note_off", "time": 123, "note": 66, "velocity": 94, "channel": 0}, {"type": "note_on", "time": 91, "note": 68, "velocity": 100, "channel": 0}, {"type": "note_off", "time": 101, "note": 68, "velocity": 100, "channel": 0}, {"type": "note_on", "time": 220, "note": 66, "velocity": 95, "channel": 0}, {"type": "note_off", "time": 133, "note": 66, "velocity": 95, "channel": 0}, {"type": "note_on", "time": 96, "note": 65, "velocity": 109, "channel": 0}, {"type": "note_off", "time": 110, "note": 65, "velocity": 109, "channel": 0}, {"type": "note_on", "time": 76, "note": 64, "velocity": 107, "channel": 0}, {"type": "note_off", "time": 98, "note": 64, "velocity": 107, "channel": 0}, {"type": "note_on", "time": 104, "note": 65, "velocity": 105, "channel": 0}, {"type": "note_off", "time": 95, "note": 65, "velocity": 105, "channel": 0}, {"type": "note_on", "time": 69, "note": 70, "velocity": 96, "channel": 0}, {"type": "note_off", "time": 114, "note": 70, "velocity": 96, "channel": 0}, {"type": "note_on", "time": 95, "note": 74, "velocity": 85, "channel": 0}, {"type": "note_off", "time": 110, "note": 74, "velocity": 85, "channel": 0}, {"type": "note_on", "time": 85, "note": 77, "velocity": 105, "channel": 0}, {"type": "note_off", "time": 418, "note": 77, "velocity": 105, "channel": 0}, {"type": "note_on", "time": 25, "note": 77, "velocity": 108, "channel": 0}, {"type": "note_off", "time": 361, "note": 77, "velocity": 108, "channel": 0}, {"type": "note_on", "time": 47, "note": 77, "velocity": 106, "channel": 0}, {"type": "note_off", "time": 82, "note": 77, "velocity": 106, "channel": 0}, {"type": "note_on", "time": 82, "note": 77, "velocity": 113, "channel": 0}, {"type": "note_off", "time": 164, "note": 77, "velocity": 113, "channel": 0}, {"type": "note_on", "time": 25, "note": 79, "velocity": 97, "channel": 0}, {"type": "note_off", "time": 88, "note": 79, "velocity": 97, "channel": 0}, {"type": "note_on", "time": 104, "note": 77, "velocity": 107, "channel": 0}, {"type": "note_off", "time": 389, "note": 77, "velocity": 107, "channel": 0}, {"type": "note_on", "time": 1196, "note": 86, "velocity": 106, "channel": 0}, {"type": "note_off", "time": 75, "note": 86, "velocity": 106, "channel": 0}, {"type": "note_on", "time": 8, "note": 85, "velocity": 96, "channel": 0}, {"type": "note_off", "time": 51, "note": 85, "velocity": 96, "channel": 0}, {"type": "note_on", "time": 8, "note": 84, "velocity": 105, "channel": 0}, {"type": "note_off", "time": 95, "note": 84, "velocity": 105, "channel": 0}, {"type": "note_on", "time": 8, "note": 81, "velocity": 109, "channel": 0}, {"type": "note_off", "time": 102, "note": 81, "velocity": 109, "channel": 0}, {"type": "note_on", "time": 8, "note": 79, "velocity": 108, "channel": 0}, {"type": "note_off", "time": 93, "note": 79, "velocity": 108, "channel": 0}, {"type": "note_on", "time": 8, "note": 78, "velocity": 105, "channel": 0}, {"type": "note_off", "time": 66, "note": 78, "velocity": 105, "channel": 0}, {"type": "note_on", "time": 6, "note": 77, "velocity": 110, "channel": 0}, {"type": "note_off", "time": 104, "note": 77, "velocity": 110, "channel": 0}, {"type": "note_on", "time": 6, "note": 76, "velocity": 116, "channel": 0}, {"type": "note_off", "time": 80, "note": 76, "velocity": 116, "channel": 0}, {"type": "note_on", "time": 8, "note": 75, "velocity": 114, "channel": 0}, {"type": "note_off", "time": 73, "note": 75, "velocity": 114, "channel": 0}, {"type": "note_on", "time": 8, "note": 74, "velocity": 118, "channel": 0}, {"type": "note_off", "time": 93, "note": 74, "velocity": 118, "channel": 0}, {"type": "note_on", "time": 13, "note": 73, "velocity": 104, "channel": 0}, {"type": "note_off", "time": 89, "note": 73, "velocity": 104, "channel": 0}, {"type": "note_on", "time": 17, "note": 71, "velocity": 101, "channel": 0}, {"type": "note_off", "time": 77, "note": 71, "velocity": 101, "channel": 0}, {"type": "note_on", "time": 11, "note": 72, "velocity": 108, "channel": 0}, {"type": "note_off", "time": 75, "note": 72, "velocity": 108, "channel": 0}, {"type": "note_on", "time": 13, "note": 70, "velocity": 107, "channel": 0}, {"type": "note_off", "time": 77, "note": 70, "velocity": 107, "channel": 0}, {"type": "note_on", "time": 15, "note": 67, "velocity": 108, "channel": 0}, {"type": "note_off", "time": 73, "note": 67, "velocity": 108, "channel": 0}, {"type": "note_on", "time": 2, "note": 68, "velocity": 101, "channel": 0}, {"type": "note_off", "time": 73, "note": 68, "velocity": 101, "channel": 0}, {"type": "note_on", "time": 17, "note": 69, "velocity": 107, "channel": 0}, {"type": "note_off", "time": 75, "note": 69, "velocity": 107, "channel": 0}, {"type": "note_on", "time": 17, "note": 65, "velocity": 110, "channel": 0}, {"type": "note_off", "time": 86, "note": 65, "velocity": 110, "channel": 0}, {"type": "note_on", "time": 8, "note": 67, "velocity": 108, "channel": 0}, {"type": "note_off", "time": 97, "note": 67, "velocity": 108, "channel": 0}, {"type": "note_on", "time": 6, "note": 64, "velocity": 101, "channel": 0}, {"type": "note_off", "time": 57, "note": 64, "velocity": 101, "channel": 0}, {"type": "note_on", "time": 17, "note": 65, "velocity": 117, "channel": 0}, {"type": "note_off", "time": 91, "note": 65, "velocity": 117, "channel": 0}, {"type": "note_on", "time": 11, "note": 64, "velocity": 105, "channel": 0}, {"type": "note_off", "time": 62, "note": 64, "velocity": 105, "channel": 0}, {"type": "note_on", "time": 26, "note": 63, "velocity": 108, "channel": 0}, {"type": "note_off", "time": 66, "note": 63, "velocity": 108, "channel": 0}, {"type": "note_on", "time": 62, "note": 60, "velocity": 110, "channel": 0}, {"type": "note_off", "time": 48, "note": 60, "velocity": 110, "channel": 0}, {"type": "note_on", "time": 15, "note": 58, "velocity": 114, "channel": 0}, {"type": "note_off", "time": 55, "note": 58, "velocity": 114, "channel": 0}, {"type": "note_on", "time": 15, "note": 60, "velocity": 106, "channel": 0}, {"type": "note_off", "time": 80, "note": 60, "velocity": 106, "channel": 0}, {"type": "note_on", "time": 15, "note": 62, "velocity": 107, "channel": 0}, {"type": "note_off", "time": 53, "note": 62, "velocity": 107, "channel": 0}, {"type": "note_on", "time": 24, "note": 65, "velocity": 107, "channel": 0}, {"type": "note_off", "time": 73, "note": 65, "velocity": 107, "channel": 0}, {"type": "note_on", "time": 31, "note": 60, "velocity": 111, "channel": 0}, {"type": "note_off", "time": 77, "note": 60, "velocity": 111, "channel": 0}, {"type": "note_on", "time": 8, "note": 61, "velocity": 109, "channel": 0}, {"type": "note_off", "time": 93, "note": 61, "velocity": 109, "channel": 0}, {"type": "note_on", "time": 13, "note": 60, "velocity": 111, "channel": 0}, {"type": "note_off", "time": 102, "note": 60, "velocity": 111, "channel": 0}, {"type": "note_on", "time": 17, "note": 61, "velocity": 101, "channel": 0}, {"type": "note_off", "time": 69, "note": 61, "velocity": 101, "channel": 0}, {"type": "note_on", "time": 11, "note": 66, "velocity": 104, "channel": 0}, {"type": "note_off", "time": 91, "note": 66, "velocity": 104, "channel": 0}, {"type": "note_on", "time": 12, "note": 68, "velocity": 103, "channel": 0}, {"type": "note_off", "time": 88, "note": 68, "velocity": 103, "channel": 0}, {"type": "note_on", "time": 6, "note": 66, "velocity": 105, "channel": 0}, {"type": "note_off", "time": 88, "note": 66, "velocity": 105, "channel": 0}, {"type": "note_on", "time": 2, "note": 68, "velocity": 89, "channel": 0}, {"type": "note_off", "time": 66, "note": 68, "velocity": 89, "channel": 0}, {"type": "note_on", "time": 22, "note": 71, "velocity": 94, "channel": 0}, {"type": "note_off", "time": 84, "note": 71, "velocity": 94, "channel": 0}, {"type": "note_on", "time": 20, "note": 73, "velocity": 105, "channel": 0}, {"type": "note_off", "time": 71, "note": 73, "velocity": 105, "channel": 0}, {"type": "note_on", "time": 11, "note": 71, "velocity": 111, "channel": 0}, {"type": "note_off", "time": 82, "note": 71, "velocity": 111, "channel": 0}, {"type": "note_on", "time": 17, "note": 68, "velocity": 88, "channel": 0}, {"type": "note_off", "time": 69, "note": 68, "velocity": 88, "channel": 0}, {"type": "note_on", "time": 22, "note": 78, "velocity": 99, "channel": 0}, {"type": "note_off", "time": 91, "note": 78, "velocity": 99, "channel": 0}, {"type": "note_on", "time": 24, "note": 80, "velocity": 102, "channel": 0}, {"type": "note_off", "time": 86, "note": 80, "velocity": 102, "channel": 0}, {"type": "note_on", "time": 13, "note": 78, "velocity": 93, "channel": 0}, {"type": "note_off", "time": 84, "note": 78, "velocity": 93, "channel": 0}, {"type": "note_on", "time": 77, "note": 83, "velocity": 89, "channel": 0}, {"type": "note_off", "time": 95, "note": 83, "velocity": 89, "channel": 0}, {"type": "note_on", "time": 15, "note": 85, "velocity": 99, "channel": 0}, {"type": "note_off", "time": 93, "note": 85, "velocity": 99, "channel": 0}, {"type": "note_on", "time": 6, "note": 85, "velocity": 97, "channel": 0}, {"type": "note_off", "time": 69, "note": 85, "velocity": 97, "channel": 0}, {"type": "note_on", "time": 6, "note": 85, "velocity": 81, "channel": 0}, {"type": "note_off", "time": 64, "note": 85, "velocity": 81, "channel": 0}, {"type": "note_on", "time": 55, "note": 78, "velocity": 93, "channel": 0}, {"type": "note_off", "time": 104, "note": 78, "velocity": 93, "channel": 0}, {"type": "note_on", "time": 0, "note": 79, "velocity": 86, "channel": 0}, {"type": "note_off", "time": 84, "note": 79, "velocity": 86, "channel": 0}, {"type": "note_on", "time": 15, "note": 78, "velocity": 97, "channel": 0}, {"type": "note_off", "time": 71, "note": 78, "velocity": 97, "channel": 0}, {"type": "note_on", "time": 31, "note": 78, "velocity": 99, "channel": 0}, {"type": "note_off", "time": 55, "note": 78, "velocity": 99, "channel": 0}, {"type": "note_on", "time": 2, "note": 74, "velocity": 97, "channel": 0}, {"type": "note_off", "time": 86, "note": 74, "velocity": 97, "channel": 0}, {"type": "note_on", "time": 35, "note": 73, "velocity": 107, "channel": 0}, {"type": "note_off", "time": 66, "note": 73, "velocity": 107, "channel": 0}, {"type": "note_on", "time": 6, "note": 71, "velocity": 107, "channel": 0}, {"type": "note_off", "time": 102, "note": 71, "velocity": 107, "channel": 0}, {"type": "note_on", "time": 24, "note": 73, "velocity": 95, "channel": 0}, {"type": "note_off", "time": 64, "note": 73, "velocity": 95, "channel": 0}, {"type": "note_on", "time": 42, "note": 66, "velocity": 110, "channel": 0}, {"type": "note_off", "time": 57, "note": 66, "velocity": 110, "channel": 0}, {"type": "note_on", "time": 17, "note": 68, "velocity": 103, "channel": 0}, {"type": "note_off", "time": 77, "note": 68, "velocity": 103, "channel": 0}, {"type": "note_on", "time": 11, "note": 69, "velocity": 95, "channel": 0}, {"type": "note_off", "time": 77, "note": 69, "velocity": 95, "channel": 0}, {"type": "note_on", "time": 269, "note": 57, "velocity": 113, "channel": 0}, {"type": "note_off", "time": 91, "note": 57, "velocity": 113, "channel": 0}, {"type": "note_on", "time": 20, "note": 59, "velocity": 116, "channel": 0}, {"type": "note_off", "time": 80, "note": 59, "velocity": 116, "channel": 0}, {"type": "note_on", "time": 28, "note": 56, "velocity": 111, "channel": 0}, {"type": "note_off", "time": 55, "note": 56, "velocity": 111, "channel": 0}, {"type": "note_on", "time": 11, "note": 59, "velocity": 115, "channel": 0}, {"type": "note_off", "time": 82, "note": 59, "velocity": 115, "channel": 0}, {"type": "note_on", "time": 15, "note": 64, "velocity": 109, "channel": 0}, {"type": "note_off", "time": 57, "note": 64, "velocity": 109, "channel": 0}, {"type": "note_on", "time": 15, "note": 66, "velocity": 111, "channel": 0}, {"type": "note_off", "time": 84, "note": 66, "velocity": 111, "channel": 0}, {"type": "note_on", "time": 4, "note": 64, "velocity": 109, "channel": 0}, {"type": "note_off", "time": 80, "note": 64, "velocity": 109, "channel": 0}, {"type": "note_on", "time": 13, "note": 66, "velocity": 110, "channel": 0}, {"type": "note_off", "time": 84, "note": 66, "velocity": 110, "channel": 0}, {"type": "note_on", "time": 37, "note": 69, "velocity": 112, "channel": 0}, {"type": "note_off", "time": 80, "note": 69, "velocity": 112, "channel": 0}, {"type": "note_on", "time": 8, "note": 71, "velocity": 105, "channel": 0}, {"type": "note_off", "time": 89, "note": 71, "velocity": 105, "channel": 0}, {"type": "note_on", "time": 13, "note": 69, "velocity": 106, "channel": 0}, {"type": "note_off", "time": 71, "note": 69, "velocity": 106, "channel": 0}, {"type": "note_on", "time": 22, "note": 71, "velocity": 114, "channel": 0}, {"type": "note_off", "time": 77, "note": 71, "velocity": 114, "channel": 0}, {"type": "note_on", "time": 26, "note": 76, "velocity": 115, "channel": 0}, {"type": "note_off", "time": 80, "note": 76, "velocity": 115, "channel": 0}, {"type": "note_on", "time": 8, "note": 78, "velocity": 103, "channel": 0}, {"type": "note_off", "time": 93, "note": 78, "velocity": 103, "channel": 0}, {"type": "note_on", "time": 6, "note": 76, "velocity": 97, "channel": 0}, {"type": "note_off", "time": 82, "note": 76, "velocity": 97, "channel": 0}, {"type": "note_on", "time": 15, "note": 78, "velocity": 106, "channel": 0}, {"type": "note_off", "time": 75, "note": 78, "velocity": 106, "channel": 0}, {"type": "note_on", "time": 20, "note": 81, "velocity": 107, "channel": 0}, {"type": "note_off", "time": 95, "note": 81, "velocity": 107, "channel": 0}, {"type": "note_on", "time": 44, "note": 81, "velocity": 112, "channel": 0}, {"type": "note_off", "time": 95, "note": 81, "velocity": 112, "channel": 0}, {"type": "note_on", "time": 11, "note": 83, "velocity": 100, "channel": 0}, {"type": "note_off", "time": 77, "note": 83, "velocity": 100, "channel": 0}, {"type": "note_on", "time": 438, "note": 76, "velocity": 107, "channel": 0}, {"type": "note_off", "time": 111, "note": 76, "velocity": 107, "channel": 0}, {"type": "note_on", "time": 20, "note": 78, "velocity": 100, "channel": 0}, {"type": "note_off", "time": 73, "note": 78, "velocity": 100, "channel": 0}, {"type": "note_on", "time": 2, "note": 76, "velocity": 108, "channel": 0}, {"type": "note_off", "time": 322, "note": 76, "velocity": 108, "channel": 0}, {"type": "note_on", "time": 28, "note": 76, "velocity": 109, "channel": 0}, {"type": "note_off", "time": 80, "note": 76, "velocity": 109, "channel": 0}, {"type": "note_on", "time": 4, "note": 75, "velocity": 111, "channel": 0}, {"type": "note_off", "time": 91, "note": 75, "velocity": 111, "channel": 0}, {"type": "note_on", "time": 4, "note": 74, "velocity": 107, "channel": 0}, {"type": "note_off", "time": 91, "note": 74, "velocity": 107, "channel": 0}, {"type": "note_on", "time": 11, "note": 73, "velocity": 97, "channel": 0}, {"type": "note_off", "time": 84, "note": 73, "velocity": 97, "channel": 0}, {"type": "note_on", "time": 8, "note": 72, "velocity": 103, "channel": 0}, {"type": "note_off", "time": 75, "note": 72, "velocity": 103, "channel": 0}, {"type": "note_on", "time": 15, "note": 71, "velocity": 100, "channel": 0}, {"type": "note_off", "time": 46, "note": 71, "velocity": 100, "channel": 0}, {"type": "note_on", "time": 6, "note": 70, "velocity": 104, "channel": 0}, {"type": "note_off", "time": 69, "note": 70, "velocity": 104, "channel": 0}, {"type": "note_on", "time": 4, "note": 69, "velocity": 110, "channel": 0}, {"type": "note_off", "time": 91, "note": 69, "velocity": 110, "channel": 0}, {"type": "note_on", "time": 8, "note": 67, "velocity": 113, "channel": 0}, {"type": "note_off", "time": 66, "note": 67, "velocity": 113, "channel": 0}, {"type": "note_on", "time": 8, "note": 66, "velocity": 108, "channel": 0}, {"type": "note_off", "time": 91, "note": 66, "velocity": 108, "channel": 0}, {"type": "note_on", "time": 22, "note": 64, "velocity": 113, "channel": 0}, {"type": "note_off", "time": 73, "note": 64, "velocity": 113, "channel": 0}, {"type": "note_on", "time": 11, "note": 63, "velocity": 111, "channel": 0}, {"type": "note_off", "time": 84, "note": 63, "velocity": 111, "channel": 0}, {"type": "note_on", "time": 17, "note": 64, "velocity": 109, "channel": 0}, {"type": "note_off", "time": 84, "note": 64, "velocity": 109, "channel": 0}, {"type": "note_on", "time": 11, "note": 67, "velocity": 112, "channel": 0}, {"type": "note_off", "time": 97, "note": 67, "velocity": 112, "channel": 0}, {"type": "note_on", "time": 13, "note": 63, "velocity": 108, "channel": 0}, {"type": "note_off", "time": 53, "note": 63, "velocity": 108, "channel": 0}, {"type": "note_on", "time": 2, "note": 62, "velocity": 104, "channel": 0}, {"type": "note_off", "time": 42, "note": 62, "velocity": 104, "channel": 0}, {"type": "note_on", "time": 8, "note": 60, "velocity": 105, "channel": 0}, {"type": "note_off", "time": 69, "note": 60, "velocity": 105, "channel": 0}, {"type": "note_on", "time": 46, "note": 58, "velocity": 84, "channel": 0}, {"type": "note_off", "time": 53, "note": 58, "velocity": 84, "channel": 0}, {"type": "note_on", "time": 0, "note": 59, "velocity": 109, "channel": 0}, {"type": "note_off", "time": 97, "note": 59, "velocity": 109, "channel": 0}, {"type": "note_on", "time": 89, "note": 60, "velocity": 103, "channel": 0}, {"type": "note_off", "time": 115, "note": 60, "velocity": 103, "channel": 0}, {"type": "note_on", "time": 102, "note": 62, "velocity": 112, "channel": 0}, {"type": "note_off", "time": 71, "note": 62, "velocity": 112, "channel": 0}, {"type": "note_on", "time": 97, "note": 64, "velocity": 98, "channel": 0}, {"type": "note_off", "time": 89, "note": 64, "velocity": 98, "channel": 0}, {"type": "note_on", "time": 347, "note": 66, "velocity": 115, "channel": 0}, {"type": "note_off", "time": 84, "note": 66, "velocity": 115, "channel": 0}, {"type": "note_on", "time": 104, "note": 67, "velocity": 112, "channel": 0}, {"type": "note_off", "time": 93, "note": 67, "velocity": 112, "channel": 0}, {"type": "note_on", "time": 109, "note": 69, "velocity": 111, "channel": 0}, {"type": "note_off", "time": 80, "note": 69, "velocity": 111, "channel": 0}, {"type": "note_on", "time": 69, "note": 70, "velocity": 97, "channel": 0}, {"type": "note_off", "time": 133, "note": 70, "velocity": 97, "channel": 0}, {"type": "note_on", "time": 287, "note": 71, "velocity": 101, "channel": 0}, {"type": "note_off", "time": 97, "note": 71, "velocity": 101, "channel": 0}, {"type": "note_on", "time": 84, "note": 72, "velocity": 107, "channel": 0}, {"type": "note_off", "time": 111, "note": 72, "velocity": 107, "channel": 0}, {"type": "note_on", "time": 73, "note": 73, "velocity": 105, "channel": 0}, {"type": "note_off", "time": 89, "note": 73, "velocity": 105, "channel": 0}, {"type": "note_on", "time": 69, "note": 74, "velocity": 102, "channel": 0}, {"type": "note_off", "time": 124, "note": 74, "velocity": 102, "channel": 0}, {"type": "note_on", "time": 293, "note": 75, "velocity": 114, "channel": 0}, {"type": "note_off", "time": 93, "note": 75, "velocity": 114, "channel": 0}, {"type": "note_on", "time": 80, "note": 76, "velocity": 110, "channel": 0}, {"type": "note_off", "time": 97, "note": 76, "velocity": 110, "channel": 0}, {"type": "note_on", "time": 75, "note": 77, "velocity": 99, "channel": 0}, {"type": "note_off", "time": 124, "note": 77, "velocity": 99, "channel": 0}, {"type": "note_on", "time": 80, "note": 82, "velocity": 98, "channel": 0}, {"type": "note_off", "time": 124, "note": 82, "velocity": 98, "channel": 0}, {"type": "note_on", "time": 86, "note": 77, "velocity": 108, "channel": 0}, {"type": "note_off", "time": 106, "note": 77, "velocity": 108, "channel": 0}, {"type": "note_on", "time": 62, "note": 79, "velocity": 105, "channel": 0}, {"type": "note_off", "time": 97, "note": 79, "velocity": 105, "channel": 0}, {"type": "note_on", "time": 82, "note": 78, "velocity": 100, "channel": 0}, {"type": "note_off", "time": 115, "note": 78, "velocity": 100, "channel": 0}, {"type": "note_on", "time": 71, "note": 77, "velocity": 103, "channel": 0}, {"type": "note_off", "time": 115, "note": 77, "velocity": 103, "channel": 0}, {"type": "note_on", "time": 120, "note": 76, "velocity": 111, "channel": 0}, {"type": "note_off", "time": 106, "note": 76, "velocity": 111, "channel": 0}, {"type": "note_on", "time": 97, "note": 77, "velocity": 106, "channel": 0}, {"type": "note_off", "time": 102, "note": 77, "velocity": 106, "channel": 0}, {"type": "note_on", "time": 191, "note": 82, "velocity": 111, "channel": 0}, {"type": "note_off", "time": 93, "note": 82, "velocity": 111, "channel": 0}, {"type": "note_on", "time": 164, "note": 77, "velocity": 100, "channel": 0}, {"type": "note_off", "time": 120, "note": 77, "velocity": 100, "channel": 0}, {"type": "note_on", "time": 102, "note": 79, "velocity": 106, "channel": 0}, {"type": "note_off", "time": 138, "note": 79, "velocity": 106, "channel": 0}, {"type": "note_on", "time": 200, "note": 74, "velocity": 103, "channel": 0}, {"type": "note_off", "time": 102, "note": 74, "velocity": 103, "channel": 0}, {"type": "note_on", "time": 142, "note": 77, "velocity": 112, "channel": 0}, {"type": "note_off", "time": 142, "note": 77, "velocity": 112, "channel": 0}, {"type": "note_on", "time": 227, "note": 66, "velocity": 108, "channel": 0}, {"type": "note_off", "time": 93, "note": 66, "velocity": 108, "channel": 0}, {"type": "note_on", "time": 124, "note": 74, "velocity": 105, "channel": 0}, {"type": "note_off", "time": 129, "note": 74, "velocity": 105, "channel": 0}, {"type": "note_on", "time": 249, "note": 67, "velocity": 100, "channel": 0}, {"type": "note_off", "time": 80, "note": 67, "velocity": 100, "channel": 0}, {"type": "note_on", "time": 120, "note": 70, "velocity": 108, "channel": 0}, {"type": "note_off", "time": 84, "note": 70, "velocity": 108, "channel": 0}, {"type": "note_on", "time": 138, "note": 65, "velocity": 102, "channel": 0}, {"type": "note_off", "time": 93, "note": 65, "velocity": 102, "channel": 0}, {"type": "note_on", "time": 0, "note": 66, "velocity": 105, "channel": 0}, {"type": "note_off", "time": 62, "note": 66, "velocity": 105, "channel": 0}, {"type": "note_on", "time": 0, "note": 67, "velocity": 104, "channel": 0}, {"type": "note_off", "time": 89, "note": 67, "velocity": 104, "channel": 0}, {"type": "note_on", "time": 120, "note": 70, "velocity": 100, "channel": 0}, {"type": "note_off", "time": 106, "note": 70, "velocity": 100, "channel": 0}, {"type": "note_on", "time": 28, "note": 72, "velocity": 98, "channel": 0}, {"type": "note_off", "time": 42, "note": 72, "velocity": 98, "channel": 0}, {"type": "note_on", "time": 8, "note": 72, "velocity": 105, "channel": 0}, {"type": "note_off", "time": 93, "note": 72, "velocity": 105, "channel": 0}, {"type": "note_on", "time": 97, "note": 70, "velocity": 111, "channel": 0}, {"type": "note_off", "time": 75, "note": 70, "velocity": 111, "channel": 0}, {"type": "note_on", "time": 17, "note": 70, "velocity": 107, "channel": 0}, {"type": "note_off", "time": 93, "note": 70, "velocity": 107, "channel": 0}, {"type": "note_on", "time": 13, "note": 72, "velocity": 104, "channel": 0}, {"type": "note_off", "time": 89, "note": 72, "velocity": 104, "channel": 0}, {"type": "note_on", "time": 329, "note": 70, "velocity": 109, "channel": 0}, {"type": "note_off", "time": 62, "note": 70, "velocity": 109, "channel": 0}, {"type": "note_on", "time": 13, "note": 70, "velocity": 109, "channel": 0}, {"type": "note_off", "time": 71, "note": 70, "velocity": 109, "channel": 0}, {"type": "note_on", "time": 4, "note": 72, "velocity": 104, "channel": 0}, {"type": "note_off", "time": 75, "note": 72, "velocity": 104, "channel": 0}, {"type": "note_on", "time": 120, "note": 70, "velocity": 100, "channel": 0}, {"type": "note_off", "time": 89, "note": 70, "velocity": 100, "channel": 0}, {"type": "note_on", "time": 26, "note": 70, "velocity": 107, "channel": 0}, {"type": "note_off", "time": 89, "note": 70, "velocity": 107, "channel": 0}, {"type": "note_on", "time": 26, "note": 72, "velocity": 101, "channel": 0}, {"type": "note_off", "time": 106, "note": 72, "velocity": 101, "channel": 0}, {"type": "note_on", "time": 293, "note": 70, "velocity": 104, "channel": 0}, {"type": "note_off", "time": 84, "note": 70, "velocity": 104, "channel": 0}, {"type": "note_on", "time": 4, "note": 70, "velocity": 103, "channel": 0}, {"type": "note_off", "time": 102, "note": 70, "velocity": 103, "channel": 0}, {"type": "note_on", "time": 17, "note": 72, "velocity": 97, "channel": 0}, {"type": "note_off", "time": 89, "note": 72, "velocity": 97, "channel": 0}, {"type": "note_on", "time": 151, "note": 70, "velocity": 108, "channel": 0}, {"type": "note_off", "time": 62, "note": 70, "velocity": 108, "channel": 0}, {"type": "note_on", "time": 17, "note": 70, "velocity": 110, "channel": 0}, {"type": "note_off", "time": 80, "note": 70, "velocity": 110, "channel": 0}, {"type": "note_on", "time": 0, "note": 72, "velocity": 104, "channel": 0}, {"type": "note_off", "time": 93, "note": 72, "velocity": 104, "channel": 0}, {"type": "note_on", "time": 324, "note": 70, "velocity": 107, "channel": 0}, {"type": "note_off", "time": 69, "note": 70, "velocity": 107, "channel": 0}, {"type": "note_on", "time": 6, "note": 70, "velocity": 110, "channel": 0}, {"type": "note_off", "time": 76, "note": 70, "velocity": 110, "channel": 0}, {"type": "note_on", "time": 34, "note": 72, "velocity": 99, "channel": 0}, {"type": "note_off", "time": 63, "note": 72, "velocity": 99, "channel": 0}, {"type": "note_on", "time": 104, "note": 70, "velocity": 104, "channel": 0}, {"type": "note_off", "time": 66, "note": 70, "velocity": 104, "channel": 0}, {"type": "note_on", "time": 22, "note": 70, "velocity": 107, "channel": 0}, {"type": "note_off", "time": 66, "note": 70, "velocity": 107, "channel": 0}, {"type": "note_on", "time": 9, "note": 72, "velocity": 104, "channel": 0}, {"type": "note_off", "time": 82, "note": 72, "velocity": 104, "channel": 0}, {"type": "note_on", "time": 334, "note": 70, "velocity": 112, "channel": 0}, {"type": "note_off", "time": 80, "note": 70, "velocity": 112, "channel": 0}, {"type": "note_on", "time": 19, "note": 70, "velocity": 108, "channel": 0}, {"type": "note_off", "time": 66, "note": 70, "velocity": 108, "channel": 0}, {"type": "note_on", "time": 25, "note": 72, "velocity": 87, "channel": 0}, {"type": "note_off", "time": 60, "note": 72, "velocity": 87, "channel": 0}, {"type": "note_on", "time": 167, "note": 72, "velocity": 111, "channel": 0}, {"type": "note_off", "time": 101, "note": 72, "velocity": 111, "channel": 0}, {"type": "note_on", "time": 31, "note": 74, "velocity": 99, "channel": 0}, {"type": "note_off", "time": 57, "note": 74, "velocity": 99, "channel": 0}, {"type": "note_on", "time": 22, "note": 74, "velocity": 89, "channel": 0}, {"type": "note_off", "time": 64, "note": 74, "velocity": 89, "channel": 0}, {"type": "note_on", "time": 264, "note": 74, "velocity": 103, "channel": 0}, {"type": "note_off", "time": 69, "note": 74, "velocity": 103, "channel": 0}, {"type": "note_on", "time": 15, "note": 74, "velocity": 108, "channel": 0}, {"type": "note_off", "time": 91, "note": 74, "velocity": 108, "channel": 0}, {"type": "note_on", "time": 15, "note": 75, "velocity": 111, "channel": 0}, {"type": "note_off", "time": 60, "note": 75, "velocity": 111, "channel": 0}, {"type": "note_on", "time": 120, "note": 74, "velocity": 108, "channel": 0}, {"type": "note_off", "time": 76, "note": 74, "velocity": 108, "channel": 0}, {"type": "note_on", "time": 19, "note": 74, "velocity": 112, "channel": 0}, {"type": "note_off", "time": 63, "note": 74, "velocity": 112, "channel": 0}, {"type": "note_on", "time": 19, "note": 75, "velocity": 108, "channel": 0}, {"type": "note_off", "time": 91, "note": 75, "velocity": 108, "channel": 0}, {"type": "note_on", "time": 319, "note": 74, "velocity": 113, "channel": 0}, {"type": "note_off", "time": 76, "note": 74, "velocity": 113, "channel": 0}, {"type": "note_on", "time": 25, "note": 74, "velocity": 111, "channel": 0}, {"type": "note_off", "time": 85, "note": 74, "velocity": 111, "channel": 0}, {"type": "note_on", "time": 3, "note": 75, "velocity": 108, "channel": 0}, {"type": "note_off", "time": 79, "note": 75, "velocity": 108, "channel": 0}, {"type": "note_on", "time": 345, "note": 75, "velocity": 108, "channel": 0}, {"type": "note_off", "time": 53, "note": 75, "velocity": 108, "channel": 0}, {"type": "note_on", "time": 9, "note": 75, "velocity": 112, "channel": 0}, {"type": "note_off", "time": 82, "note": 75, "velocity": 112, "channel": 0}, {"type": "note_on", "time": 28, "note": 75, "velocity": 107, "channel": 0}, {"type": "note_off", "time": 88, "note": 75, "velocity": 107, "channel": 0}, {"type": "note_on", "time": 304, "note": 75, "velocity": 109, "channel": 0}, {"type": "note_off", "time": 57, "note": 75, "velocity": 109, "channel": 0}, {"type": "note_on", "time": 15, "note": 76, "velocity": 112, "channel": 0}, {"type": "note_off", "time": 88, "note": 76, "velocity": 112, "channel": 0}, {"type": "note_on", "time": 361, "note": 76, "velocity": 115, "channel": 0}, {"type": "note_off", "time": 85, "note": 76, "velocity": 115, "channel": 0}, {"type": "note_on", "time": 101, "note": 77, "velocity": 107, "channel": 0}, {"type": "note_off", "time": 95, "note": 77, "velocity": 107, "channel": 0}, {"type": "note_on", "time": 433, "note": 77, "velocity": 112, "channel": 0}, {"type": "note_off", "time": 383, "note": 77, "velocity": 112, "channel": 0}, {"type": "note_on", "time": 28, "note": 79, "velocity": 103, "channel": 0}, {"type": "note_off", "time": 98, "note": 79, "velocity": 103, "channel": 0}, {"type": "note_on", "time": 79, "note": 80, "velocity": 108, "channel": 0}, {"type": "note_off", "time": 186, "note": 80, "velocity": 108, "channel": 0}, {"type": "note_on", "time": 12, "note": 81, "velocity": 108, "channel": 0}, {"type": "note_off", "time": 85, "note": 81, "velocity": 108, "channel": 0}, {"type": "note_on", "time": 117, "note": 83, "velocity": 99, "channel": 0}, {"type": "note_off", "time": 104, "note": 83, "velocity": 99, "channel": 0}, {"type": "note_on", "time": 85, "note": 84, "velocity": 92, "channel": 0}, {"type": "note_off", "time": 513, "note": 84, "velocity": 92, "channel": 0}, {"type": "note_on", "time": 112, "note": 82, "velocity": 99, "channel": 0}, {"type": "note_off", "time": 89, "note": 82, "velocity": 99, "channel": 0}, {"type": "note_on", "time": 35, "note": 81, "velocity": 97, "channel": 0}, {"type": "note_off", "time": 53, "note": 81, "velocity": 97, "channel": 0}, {"type": "note_on", "time": 22, "note": 79, "velocity": 104, "channel": 0}, {"type": "note_off", "time": 80, "note": 79, "velocity": 104, "channel": 0}, {"type": "note_on", "time": 17, "note": 78, "velocity": 96, "channel": 0}, {"type": "note_off", "time": 66, "note": 78, "velocity": 96, "channel": 0}, {"type": "note_on", "time": 31, "note": 77, "velocity": 101, "channel": 0}, {"type": "note_off", "time": 57, "note": 77, "velocity": 101, "channel": 0}, {"type": "note_on", "time": 44, "note": 76, "velocity": 108, "channel": 0}, {"type": "note_off", "time": 80, "note": 76, "velocity": 108, "channel": 0}, {"type": "note_on", "time": 22, "note": 75, "velocity": 108, "channel": 0}, {"type": "note_off", "time": 53, "note": 75, "velocity": 108, "channel": 0}, {"type": "note_on", "time": 28, "note": 76, "velocity": 106, "channel": 0}, {"type": "note_off", "time": 57, "note": 76, "velocity": 106, "channel": 0}, {"type": "note_on", "time": 0, "note": 74, "velocity": 95, "channel": 0}, {"type": "note_off", "time": 55, "note": 74, "velocity": 95, "channel": 0}, {"type": "note_on", "time": 17, "note": 73, "velocity": 100, "channel": 0}, {"type": "note_off", "time": 53, "note": 73, "velocity": 100, "channel": 0}, {"type": "note_on", "time": 13, "note": 71, "velocity": 100, "channel": 0}, {"type": "note_off", "time": 93, "note": 71, "velocity": 100, "channel": 0}, {"type": "note_on", "time": 4, "note": 72, "velocity": 111, "channel": 0}, {"type": "note_off", "time": 50, "note": 72, "velocity": 111, "channel": 0}, {"type": "note_on", "time": 12, "note": 70, "velocity": 111, "channel": 0}, {"type": "note_off", "time": 85, "note": 70, "velocity": 111, "channel": 0}, {"type": "note_on", "time": 12, "note": 69, "velocity": 111, "channel": 0}, {"type": "note_off", "time": 76, "note": 69, "velocity": 111, "channel": 0}, {"type": "note_on", "time": 34, "note": 67, "velocity": 113, "channel": 0}, {"type": "note_off", "time": 69, "note": 67, "velocity": 113, "channel": 0}, {"type": "note_on", "time": 19, "note": 66, "velocity": 111, "channel": 0}, {"type": "note_off", "time": 82, "note": 66, "velocity": 111, "channel": 0}, {"type": "note_on", "time": 3, "note": 64, "velocity": 109, "channel": 0}, {"type": "note_off", "time": 114, "note": 64, "velocity": 109, "channel": 0}, {"type": "note_on", "time": 25, "note": 65, "velocity": 103, "channel": 0}, {"type": "note_off", "time": 91, "note": 65, "velocity": 103, "channel": 0}, {"type": "note_on", "time": 15, "note": 64, "velocity": 113, "channel": 0}, {"type": "note_off", "time": 50, "note": 64, "velocity": 113, "channel": 0}, {"type": "note_on", "time": 22, "note": 62, "velocity": 110, "channel": 0}, {"type": "note_off", "time": 57, "note": 62, "velocity": 110, "channel": 0}, {"type": "note_on", "time": 28, "note": 60, "velocity": 106, "channel": 0}, {"type": "note_off", "time": 85, "note": 60, "velocity": 106, "channel": 0}, {"type": "note_on", "time": 12, "note": 58, "velocity": 112, "channel": 0}, {"type": "note_off", "time": 76, "note": 58, "velocity": 112, "channel": 0}, {"type": "note_on", "time": 44, "note": 60, "velocity": 108, "channel": 0}, {"type": "note_off", "time": 69, "note": 60, "velocity": 108, "channel": 0}, {"type": "note_on", "time": 12, "note": 62, "velocity": 100, "channel": 0}, {"type": "note_off", "time": 98, "note": 62, "velocity": 100, "channel": 0}, {"type": "note_on", "time": 3, "note": 66, "velocity": 107, "channel": 0}, {"type": "note_off", "time": 82, "note": 66, "velocity": 107, "channel": 0}, {"type": "note_on", "time": 25, "note": 70, "velocity": 114, "channel": 0}, {"type": "note_off", "time": 76, "note": 70, "velocity": 114, "channel": 0}, {"type": "note_on", "time": 15, "note": 69, "velocity": 107, "channel": 0}, {"type": "note_off", "time": 66, "note": 69, "velocity": 107, "channel": 0}, {"type": "note_on", "time": 22, "note": 70, "velocity": 92, "channel": 0}, {"type": "note_off", "time": 98, "note": 70, "velocity": 92, "channel": 0}, {"type": "note_on", "time": 60, "note": 72, "velocity": 99, "channel": 0}, {"type": "note_off", "time": 72, "note": 72, "velocity": 99, "channel": 0}, {"type": "note_on", "time": 9, "note": 71, "velocity": 93, "channel": 0}, {"type": "note_off", "time": 76, "note": 71, "velocity": 93, "channel": 0}, {"type": "note_on", "time": 22, "note": 72, "velocity": 100, "channel": 0}, {"type": "note_off", "time": 107, "note": 72, "velocity": 100, "channel": 0}, {"type": "note_on", "time": 76, "note": 74, "velocity": 108, "channel": 0}, {"type": "note_off", "time": 88, "note": 74, "velocity": 108, "channel": 0}, {"type": "note_on", "time": 10, "note": 70, "velocity": 103, "channel": 0}, {"type": "note_off", "time": 73, "note": 70, "velocity": 103, "channel": 0}, {"type": "note_on", "time": 4, "note": 72, "velocity": 93, "channel": 0}, {"type": "note_off", "time": 48, "note": 72, "velocity": 93, "channel": 0}, {"type": "note_on", "time": 8, "note": 74, "velocity": 95, "channel": 0}, {"type": "note_off", "time": 120, "note": 74, "velocity": 95, "channel": 0}, {"type": "note_on", "time": 53, "note": 75, "velocity": 104, "channel": 0}, {"type": "note_off", "time": 76, "note": 75, "velocity": 104, "channel": 0}, {"type": "note_on", "time": 12, "note": 76, "velocity": 109, "channel": 0}, {"type": "note_off", "time": 63, "note": 76, "velocity": 109, "channel": 0}, {"type": "note_on", "time": 19, "note": 77, "velocity": 117, "channel": 0}, {"type": "note_off", "time": 91, "note": 77, "velocity": 117, "channel": 0}, {"type": "note_on", "time": 35, "note": 78, "velocity": 100, "channel": 0}, {"type": "note_off", "time": 193, "note": 78, "velocity": 100, "channel": 0}, {"type": "note_on", "time": 36, "note": 77, "velocity": 97, "channel": 0}, {"type": "note_off", "time": 63, "note": 77, "velocity": 97, "channel": 0}, {"type": "note_on", "time": 3, "note": 78, "velocity": 107, "channel": 0}, {"type": "note_off", "time": 69, "note": 78, "velocity": 107, "channel": 0}, {"type": "note_on", "time": 15, "note": 77, "velocity": 91, "channel": 0}, {"type": "note_off", "time": 63, "note": 77, "velocity": 91, "channel": 0}, {"type": "note_on", "time": 22, "note": 78, "velocity": 94, "channel": 0}, {"type": "note_off", "time": 85, "note": 78, "velocity": 94, "channel": 0}, {"type": "note_on", "time": 23, "note": 80, "velocity": 90, "channel": 0}, {"type": "note_off", "time": 51, "note": 80, "velocity": 90, "channel": 0}, {"type": "note_on", "time": 20, "note": 78, "velocity": 97, "channel": 0}, {"type": "note_off", "time": 63, "note": 78, "velocity": 97, "channel": 0}, {"type": "note_on", "time": 19, "note": 80, "velocity": 92, "channel": 0}, {"type": "note_off", "time": 63, "note": 80, "velocity": 92, "channel": 0}, {"type": "note_on", "time": 9, "note": 78, "velocity": 97, "channel": 0}, {"type": "note_off", "time": 79, "note": 78, "velocity": 97, "channel": 0}, {"type": "note_on", "time": 6, "note": 77, "velocity": 101, "channel": 0}, {"type": "note_off", "time": 82, "note": 77, "velocity": 101, "channel": 0}, {"type": "note_on", "time": 25, "note": 76, "velocity": 91, "channel": 0}, {"type": "note_off", "time": 101, "note": 76, "velocity": 91, "channel": 0}, {"type": "note_on", "time": 19, "note": 74, "velocity": 100, "channel": 0}, {"type": "note_off", "time": 76, "note": 74, "velocity": 100, "channel": 0}, {"type": "note_on", "time": 22, "note": 78, "velocity": 102, "channel": 0}, {"type": "note_off", "time": 76, "note": 78, "velocity": 102, "channel": 0}, {"type": "note_on", "time": 3, "note": 77, "velocity": 101, "channel": 0}, {"type": "note_off", "time": 88, "note": 77, "velocity": 101, "channel": 0}, {"type": "note_on", "time": 31, "note": 76, "velocity": 105, "channel": 0}, {"type": "note_off", "time": 88, "note": 76, "velocity": 105, "channel": 0}, {"type": "note_on", "time": 15, "note": 74, "velocity": 104, "channel": 0}, {"type": "note_off", "time": 73, "note": 74, "velocity": 104, "channel": 0}, {"type": "note_on", "time": 11, "note": 76, "velocity": 105, "channel": 0}, {"type": "note_off", "time": 44, "note": 76, "velocity": 105, "channel": 0}, {"type": "note_on", "time": 0, "note": 77, "velocity": 110, "channel": 0}, {"type": "note_off", "time": 84, "note": 77, "velocity": 110, "channel": 0}, {"type": "note_on", "time": 0, "note": 76, "velocity": 106, "channel": 0}, {"type": "note_off", "time": 113, "note": 76, "velocity": 106, "channel": 0}, {"type": "note_on", "time": 0, "note": 77, "velocity": 75, "channel": 0}, {"type": "note_off", "time": 72, "note": 77, "velocity": 75, "channel": 0}, {"type": "note_on", "time": 49, "note": 77, "velocity": 106, "channel": 0}, {"type": "note_off", "time": 79, "note": 77, "velocity": 106, "channel": 0}, {"type": "note_on", "time": 25, "note": 79, "velocity": 95, "channel": 0}, {"type": "note_off", "time": 69, "note": 79, "velocity": 95, "channel": 0}, {"type": "note_on", "time": 38, "note": 77, "velocity": 104, "channel": 0}, {"type": "note_off", "time": 72, "note": 77, "velocity": 104, "channel": 0}, {"type": "note_on", "time": 28, "note": 79, "velocity": 89, "channel": 0}, {"type": "note_off", "time": 76, "note": 79, "velocity": 89, "channel": 0}, {"type": "note_on", "time": 19, "note": 65, "velocity": 109, "channel": 0}, {"type": "note_off", "time": 82, "note": 65, "velocity": 109, "channel": 0}, {"type": "note_on", "time": 7, "note": 67, "velocity": 105, "channel": 0}, {"type": "note_off", "time": 76, "note": 67, "velocity": 105, "channel": 0}, {"type": "note_on", "time": 27, "note": 65, "velocity": 113, "channel": 0}, {"type": "note_off", "time": 63, "note": 65, "velocity": 113, "channel": 0}, {"type": "note_on", "time": 3, "note": 66, "velocity": 98, "channel": 0}, {"type": "note_off", "time": 88, "note": 66, "velocity": 98, "channel": 0}, {"type": "note_on", "time": 15, "note": 64, "velocity": 110, "channel": 0}, {"type": "note_off", "time": 66, "note": 64, "velocity": 110, "channel": 0}, {"type": "note_on", "time": 22, "note": 65, "velocity": 104, "channel": 0}, {"type": "note_off", "time": 69, "note": 65, "velocity": 104, "channel": 0}, {"type": "note_on", "time": 23, "note": 64, "velocity": 106, "channel": 0}, {"type": "note_off", "time": 89, "note": 64, "velocity": 106, "channel": 0}, {"type": "note_on", "time": 45, "note": 61, "velocity": 92, "channel": 0}, {"type": "note_off", "time": 38, "note": 61, "velocity": 92, "channel": 0}, {"type": "note_on", "time": 21, "note": 63, "velocity": 99, "channel": 0}, {"type": "note_off", "time": 196, "note": 63, "velocity": 99, "channel": 0}, {"type": "note_on", "time": 1549, "note": 77, "velocity": 115, "channel": 0}, {"type": "note_off", "time": 82, "note": 77, "velocity": 115, "channel": 0}, {"type": "note_on", "time": 28, "note": 73, "velocity": 92, "channel": 0}, {"type": "note_off", "time": 47, "note": 73, "velocity": 92, "channel": 0}, {"type": "note_on", "time": 9, "note": 77, "velocity": 105, "channel": 0}, {"type": "note_off", "time": 63, "note": 77, "velocity": 105, "channel": 0}, {"type": "note_on", "time": 15, "note": 77, "velocity": 103, "channel": 0}, {"type": "note_off", "time": 76, "note": 77, "velocity": 103, "channel": 0}, {"type": "note_on", "time": 31, "note": 74, "velocity": 106, "channel": 0}, {"type": "note_off", "time": 76, "note": 74, "velocity": 106, "channel": 0}, {"type": "note_on", "time": 19, "note": 72, "velocity": 115, "channel": 0}, {"type": "note_off", "time": 79, "note": 72, "velocity": 115, "channel": 0}, {"type": "note_on", "time": 15, "note": 71, "velocity": 49, "channel": 0}, {"type": "note_off", "time": 120, "note": 71, "velocity": 49, "channel": 0}, {"type": "note_on", "time": 28, "note": 74, "velocity": 94, "channel": 0}, {"type": "note_off", "time": 38, "note": 74, "velocity": 94, "channel": 0}, {"type": "note_on", "time": 6, "note": 77, "velocity": 106, "channel": 0}, {"type": "note_off", "time": 91, "note": 77, "velocity": 106, "channel": 0}, {"type": "note_on", "time": 15, "note": 80, "velocity": 107, "channel": 0}, {"type": "note_off", "time": 79, "note": 80, "velocity": 107, "channel": 0}, {"type": "note_on", "time": 12, "note": 79, "velocity": 111, "channel": 0}, {"type": "note_off", "time": 69, "note": 79, "velocity": 111, "channel": 0}, {"type": "note_on", "time": 0, "note": 79, "velocity": 100, "channel": 0}, {"type": "note_off", "time": 60, "note": 79, "velocity": 100, "channel": 0}, {"type": "note_on", "time": 41, "note": 78, "velocity": 99, "channel": 0}, {"type": "note_off", "time": 107, "note": 78, "velocity": 99, "channel": 0}, {"type": "note_on", "time": 79, "note": 82, "velocity": 98, "channel": 0}, {"type": "note_off", "time": 79, "note": 82, "velocity": 98, "channel": 0}, {"type": "note_on", "time": 25, "note": 89, "velocity": 84, "channel": 0}, {"type": "note_off", "time": 66, "note": 89, "velocity": 84, "channel": 0}, {"type": "note_on", "time": 14, "note": 86, "velocity": 91, "channel": 0}, {"type": "note_off", "time": 60, "note": 86, "velocity": 91, "channel": 0}, {"type": "note_on", "time": 10, "note": 84, "velocity": 93, "channel": 0}, {"type": "note_off", "time": 53, "note": 84, "velocity": 93, "channel": 0}, {"type": "note_on", "time": 12, "note": 82, "velocity": 112, "channel": 0}, {"type": "note_off", "time": 76, "note": 82, "velocity": 112, "channel": 0}, {"type": "note_on", "time": 9, "note": 81, "velocity": 99, "channel": 0}, {"type": "note_off", "time": 104, "note": 81, "velocity": 99, "channel": 0}, {"type": "note_on", "time": 15, "note": 79, "velocity": 100, "channel": 0}, {"type": "note_off", "time": 69, "note": 79, "velocity": 100, "channel": 0}, {"type": "note_on", "time": 15, "note": 80, "velocity": 103, "channel": 0}, {"type": "note_off", "time": 72, "note": 80, "velocity": 103, "channel": 0}, {"type": "note_on", "time": 0, "note": 79, "velocity": 104, "channel": 0}, {"type": "note_off", "time": 85, "note": 79, "velocity": 104, "channel": 0}, {"type": "note_on", "time": 15, "note": 78, "velocity": 96, "channel": 0}, {"type": "note_off", "time": 76, "note": 78, "velocity": 96, "channel": 0}, {"type": "note_on", "time": 15, "note": 76, "velocity": 91, "channel": 0}, {"type": "note_off", "time": 91, "note": 76, "velocity": 91, "channel": 0}, {"type": "note_on", "time": 12, "note": 77, "velocity": 104, "channel": 0}, {"type": "note_off", "time": 88, "note": 77, "velocity": 104, "channel": 0}, {"type": "note_on", "time": 12, "note": 76, "velocity": 107, "channel": 0}, {"type": "note_off", "time": 85, "note": 76, "velocity": 107, "channel": 0}, {"type": "note_on", "time": 12, "note": 75, "velocity": 105, "channel": 0}, {"type": "note_off", "time": 85, "note": 75, "velocity": 105, "channel": 0}, {"type": "note_on", "time": 3, "note": 73, "velocity": 106, "channel": 0}, {"type": "note_off", "time": 82, "note": 73, "velocity": 106, "channel": 0}, {"type": "note_on", "time": 22, "note": 71, "velocity": 101, "channel": 0}, {"type": "note_off", "time": 98, "note": 71, "velocity": 101, "channel": 0}, {"type": "note_on", "time": 12, "note": 69, "velocity": 108, "channel": 0}, {"type": "note_off", "time": 63, "note": 69, "velocity": 108, "channel": 0}, {"type": "note_on", "time": 12, "note": 70, "velocity": 112, "channel": 0}, {"type": "note_off", "time": 76, "note": 70, "velocity": 112, "channel": 0}, {"type": "note_on", "time": 9, "note": 65, "velocity": 102, "channel": 0}, {"type": "note_off", "time": 76, "note": 65, "velocity": 102, "channel": 0}, {"type": "note_on", "time": 19, "note": 67, "velocity": 103, "channel": 0}, {"type": "note_off", "time": 95, "note": 67, "velocity": 103, "channel": 0}, {"type": "note_on", "time": 19, "note": 69, "velocity": 96, "channel": 0}, {"type": "note_off", "time": 72, "note": 69, "velocity": 96, "channel": 0}, {"type": "note_on", "time": 31, "note": 70, "velocity": 107, "channel": 0}, {"type": "note_off", "time": 66, "note": 70, "velocity": 107, "channel": 0}, {"type": "note_on", "time": 3, "note": 65, "velocity": 106, "channel": 0}, {"type": "note_off", "time": 93, "note": 65, "velocity": 106, "channel": 0}, {"type": "note_on", "time": 22, "note": 64, "velocity": 99, "channel": 0}, {"type": "note_off", "time": 62, "note": 64, "velocity": 99, "channel": 0}, {"type": "note_on", "time": 35, "note": 60, "velocity": 98, "channel": 0}, {"type": "note_off", "time": 75, "note": 60, "velocity": 98, "channel": 0}, {"type": "note_on", "time": 35, "note": 62, "velocity": 110, "channel": 0}, {"type": "note_off", "time": 28, "note": 62, "velocity": 110, "channel": 0}, {"type": "note_on", "time": 2, "note": 63, "velocity": 109, "channel": 0}, {"type": "note_off", "time": 73, "note": 63, "velocity": 109, "channel": 0}, {"type": "note_on", "time": 33, "note": 64, "velocity": 112, "channel": 0}, {"type": "note_off", "time": 57, "note": 64, "velocity": 112, "channel": 0}, {"type": "note_on", "time": 4, "note": 66, "velocity": 116, "channel": 0}, {"type": "note_off", "time": 48, "note": 66, "velocity": 116, "channel": 0}, {"type": "note_on", "time": 17, "note": 64, "velocity": 115, "channel": 0}, {"type": "note_off", "time": 80, "note": 64, "velocity": 115, "channel": 0}, {"type": "note_on", "time": 17, "note": 63, "velocity": 109, "channel": 0}, {"type": "note_on", "time": 89, "note": 59, "velocity": 105, "channel": 0}, {"type": "note_off", "time": 0, "note": 63, "velocity": 109, "channel": 0}, {"type": "note_off", "time": 102, "note": 59, "velocity": 105, "channel": 0}, {"type": "note_on", "time": 17, "note": 56, "velocity": 113, "channel": 0}, {"type": "note_off", "time": 84, "note": 56, "velocity": 113, "channel": 0}, {"type": "note_on", "time": 17, "note": 52, "velocity": 95, "channel": 0}, {"type": "note_off", "time": 84, "note": 52, "velocity": 95, "channel": 0}, {"type": "note_on", "time": 46, "note": 53, "velocity": 93, "channel": 0}, {"type": "note_off", "time": 60, "note": 53, "velocity": 93, "channel": 0}, {"type": "note_on", "time": 11, "note": 60, "velocity": 103, "channel": 0}, {"type": "note_off", "time": 48, "note": 60, "velocity": 103, "channel": 0}, {"type": "note_on", "time": 28, "note": 62, "velocity": 100, "channel": 0}, {"type": "note_off", "time": 51, "note": 62, "velocity": 100, "channel": 0}, {"type": "note_on", "time": 62, "note": 65, "velocity": 111, "channel": 0}, {"type": "note_off", "time": 95, "note": 65, "velocity": 111, "channel": 0}, {"type": "note_on", "time": 22, "note": 69, "velocity": 112, "channel": 0}, {"type": "note_off", "time": 62, "note": 69, "velocity": 112, "channel": 0}, {"type": "note_on", "time": 17, "note": 70, "velocity": 103, "channel": 0}, {"type": "note_off", "time": 62, "note": 70, "velocity": 103, "channel": 0}, {"type": "note_on", "time": 31, "note": 72, "velocity": 99, "channel": 0}, {"type": "note_off", "time": 151, "note": 72, "velocity": 99, "channel": 0}, {"type": "note_on", "time": 26, "note": 70, "velocity": 102, "channel": 0}, {"type": "note_off", "time": 62, "note": 70, "velocity": 102, "channel": 0}, {"type": "note_on", "time": 44, "note": 65, "velocity": 109, "channel": 0}, {"type": "note_off", "time": 53, "note": 65, "velocity": 109, "channel": 0}, {"type": "note_on", "time": 22, "note": 62, "velocity": 105, "channel": 0}, {"type": "note_off", "time": 155, "note": 62, "velocity": 105, "channel": 0}, {"type": "note_on", "time": 35, "note": 65, "velocity": 116, "channel": 0}, {"type": "note_off", "time": 102, "note": 65, "velocity": 116, "channel": 0}, {"type": "note_on", "time": 8, "note": 67, "velocity": 108, "channel": 0}, {"type": "note_off", "time": 66, "note": 67, "velocity": 108, "channel": 0}, {"type": "note_on", "time": 17, "note": 65, "velocity": 109, "channel": 0}, {"type": "note_on", "time": 93, "note": 64, "velocity": 105, "channel": 0}, {"type": "note_off", "time": 0, "note": 65, "velocity": 109, "channel": 0}, {"type": "note_off", "time": 89, "note": 64, "velocity": 105, "channel": 0}, {"type": "note_on", "time": 22, "note": 65, "velocity": 106, "channel": 0}, {"type": "note_off", "time": 93, "note": 65, "velocity": 106, "channel": 0}, {"type": "note_on", "time": 111, "note": 70, "velocity": 106, "channel": 0}, {"type": "note_off", "time": 97, "note": 70, "velocity": 106, "channel": 0}, {"type": "note_on", "time": 285, "note": 72, "velocity": 109, "channel": 0}, {"type": "note_off", "time": 84, "note": 72, "velocity": 109, "channel": 0}, {"type": "note_on", "time": 97, "note": 74, "velocity": 91, "channel": 0}, {"type": "note_off", "time": 97, "note": 74, "velocity": 91, "channel": 0}, {"type": "note_on", "time": 307, "note": 75, "velocity": 109, "channel": 0}, {"type": "note_off", "time": 89, "note": 75, "velocity": 109, "channel": 0}, {"type": "note_on", "time": 102, "note": 77, "velocity": 116, "channel": 0}, {"type": "note_off", "time": 93, "note": 77, "velocity": 116, "channel": 0}, {"type": "note_on", "time": 298, "note": 78, "velocity": 109, "channel": 0}, {"type": "note_off", "time": 111, "note": 78, "velocity": 109, "channel": 0}, {"type": "note_on", "time": 89, "note": 77, "velocity": 112, "channel": 0}, {"type": "note_off", "time": 93, "note": 77, "velocity": 112, "channel": 0}, {"type": "note_on", "time": 298, "note": 74, "velocity": 107, "channel": 0}, {"type": "note_off", "time": 93, "note": 74, "velocity": 107, "channel": 0}, {"type": "note_on", "time": 120, "note": 70, "velocity": 98, "channel": 0}, {"type": "note_off", "time": 84, "note": 70, "velocity": 98, "channel": 0}, {"type": "note_on", "time": 289, "note": 72, "velocity": 103, "channel": 0}, {"type": "note_off", "time": 62, "note": 72, "velocity": 103, "channel": 0}, {"type": "note_on", "time": 146, "note": 73, "velocity": 108, "channel": 0}, {"type": "note_off", "time": 97, "note": 73, "velocity": 108, "channel": 0}, {"type": "note_on", "time": 267, "note": 74, "velocity": 113, "channel": 0}, {"type": "note_off", "time": 89, "note": 74, "velocity": 113, "channel": 0}, {"type": "note_on", "time": 160, "note": 75, "velocity": 110, "channel": 0}, {"type": "note_off", "time": 84, "note": 75, "velocity": 110, "channel": 0}, {"type": "note_on", "time": 271, "note": 76, "velocity": 108, "channel": 0}, {"type": "note_off", "time": 120, "note": 76, "velocity": 108, "channel": 0}, {"type": "note_on", "time": 93, "note": 77, "velocity": 114, "channel": 0}, {"type": "note_off", "time": 84, "note": 77, "velocity": 114, "channel": 0}, {"type": "note_on", "time": 325, "note": 79, "velocity": 109, "channel": 0}, {"type": "note_off", "time": 66, "note": 79, "velocity": 109, "channel": 0}, {"type": "note_on", "time": 115, "note": 77, "velocity": 102, "channel": 0}, {"type": "note_off", "time": 102, "note": 77, "velocity": 102, "channel": 0}, {"type": "note_on", "time": 240, "note": 88, "velocity": 113, "channel": 0}, {"type": "note_off", "time": 124, "note": 88, "velocity": 113, "channel": 0}, {"type": "note_on", "time": 111, "note": 86, "velocity": 104, "channel": 0}, {"type": "note_off", "time": 102, "note": 86, "velocity": 104, "channel": 0}, {"type": "note_on", "time": 231, "note": 82, "velocity": 95, "channel": 0}, {"type": "note_off", "time": 102, "note": 82, "velocity": 95, "channel": 0}, {"type": "note_on", "time": 120, "note": 81, "velocity": 95, "channel": 0}, {"type": "note_off", "time": 97, "note": 81, "velocity": 95, "channel": 0}, {"type": "note_on", "time": 302, "note": 77, "velocity": 97, "channel": 0}, {"type": "note_off", "time": 106, "note": 77, "velocity": 97, "channel": 0}, {"type": "note_on", "time": 124, "note": 77, "velocity": 107, "channel": 0}, {"type": "note_off", "time": 106, "note": 77, "velocity": 107, "channel": 0}, {"type": "note_on", "time": 293, "note": 79, "velocity": 102, "channel": 0}, {"type": "note_off", "time": 106, "note": 79, "velocity": 102, "channel": 0}, {"type": "note_on", "time": 80, "note": 77, "velocity": 105, "channel": 0}, {"type": "note_off", "time": 129, "note": 77, "velocity": 105, "channel": 0}, {"type": "note_on", "time": 262, "note": 73, "velocity": 107, "channel": 0}, {"type": "note_off", "time": 48, "note": 73, "velocity": 107, "channel": 0}, {"type": "note_on", "time": 13, "note": 74, "velocity": 111, "channel": 0}, {"type": "note_off", "time": 75, "note": 74, "velocity": 111, "channel": 0}, {"type": "note_on", "time": 17, "note": 70, "velocity": 115, "channel": 0}, {"type": "note_off", "time": 55, "note": 70, "velocity": 115, "channel": 0}, {"type": "note_on", "time": 11, "note": 70, "velocity": 102, "channel": 0}, {"type": "note_off", "time": 80, "note": 70, "velocity": 102, "channel": 0}, {"type": "note_on", "time": 253, "note": 72, "velocity": 103, "channel": 0}, {"type": "note_off", "time": 93, "note": 72, "velocity": 103, "channel": 0}, {"type": "note_on", "time": 129, "note": 69, "velocity": 100, "channel": 0}, {"type": "note_off", "time": 89, "note": 69, "velocity": 100, "channel": 0}, {"type": "note_on", "time": 276, "note": 65, "velocity": 100, "channel": 0}, {"type": "note_off", "time": 97, "note": 65, "velocity": 100, "channel": 0}, {"type": "note_on", "time": 120, "note": 70, "velocity": 105, "channel": 0}, {"type": "note_off", "time": 66, "note": 70, "velocity": 105, "channel": 0}, {"type": "note_on", "time": 40, "note": 71, "velocity": 88, "channel": 0}, {"type": "note_off", "time": 106, "note": 71, "velocity": 88, "channel": 0}, {"type": "note_on", "time": 106, "note": 71, "velocity": 99, "channel": 0}, {"type": "note_off", "time": 84, "note": 71, "velocity": 99, "channel": 0}, {"type": "note_on", "time": 187, "note": 75, "velocity": 106, "channel": 0}, {"type": "note_off", "time": 120, "note": 75, "velocity": 106, "channel": 0}, {"type": "note_on", "time": 151, "note": 78, "velocity": 106, "channel": 0}, {"type": "note_off", "time": 111, "note": 78, "velocity": 106, "channel": 0}, {"type": "note_on", "time": 142, "note": 77, "velocity": 98, "channel": 0}, {"type": "note_off", "time": 66, "note": 77, "velocity": 98, "channel": 0}, {"type": "note_on", "time": 169, "note": 73, "velocity": 104, "channel": 0}, {"type": "note_off", "time": 111, "note": 73, "velocity": 104, "channel": 0}, {"type": "note_on", "time": 191, "note": 71, "velocity": 102, "channel": 0}, {"type": "note_off", "time": 89, "note": 71, "velocity": 102, "channel": 0}, {"type": "note_on", "time": 153, "note": 69, "velocity": 102, "channel": 0}, {"type": "note_off", "time": 146, "note": 69, "velocity": 102, "channel": 0}, {"type": "note_on", "time": 6, "note": 70, "velocity": 100, "channel": 0}, {"type": "note_off", "time": 126, "note": 70, "velocity": 100, "channel": 0}, {"type": "note_on", "time": 37, "note": 68, "velocity": 103, "channel": 0}, {"type": "note_off", "time": 387, "note": 68, "velocity": 103, "channel": 0}, {"type": "note_on", "time": 13, "note": 66, "velocity": 99, "channel": 0}, {"type": "note_off", "time": 209, "note": 66, "velocity": 99, "channel": 0}, {"type": "note_on", "time": 552, "note": 73, "velocity": 107, "channel": 0}, {"type": "note_off", "time": 115, "note": 73, "velocity": 107, "channel": 0}, {"type": "note_on", "time": 97, "note": 74, "velocity": 109, "channel": 0}, {"type": "note_off", "time": 129, "note": 74, "velocity": 109, "channel": 0}, {"type": "note_on", "time": 204, "note": 76, "velocity": 120, "channel": 0}, {"type": "note_off", "time": 111, "note": 76, "velocity": 120, "channel": 0}, {"type": "note_on", "time": 133, "note": 74, "velocity": 111, "channel": 0}, {"type": "note_off", "time": 124, "note": 74, "velocity": 111, "channel": 0}, {"type": "note_on", "time": 142, "note": 73, "velocity": 110, "channel": 0}, {"type": "note_off", "time": 111, "note": 73, "velocity": 110, "channel": 0}, {"type": "note_on", "time": 151, "note": 71, "velocity": 108, "channel": 0}, {"type": "note_off", "time": 115, "note": 71, "velocity": 108, "channel": 0}, {"type": "note_on", "time": 160, "note": 69, "velocity": 109, "channel": 0}, {"type": "note_off", "time": 97, "note": 69, "velocity": 109, "channel": 0}, {"type": "note_on", "time": 164, "note": 68, "velocity": 109, "channel": 0}, {"type": "note_off", "time": 120, "note": 68, "velocity": 109, "channel": 0}, {"type": "note_on", "time": 151, "note": 71, "velocity": 112, "channel": 0}, {"type": "note_off", "time": 133, "note": 71, "velocity": 112, "channel": 0}, {"type": "note_on", "time": 120, "note": 69, "velocity": 110, "channel": 0}, {"type": "note_off", "time": 115, "note": 69, "velocity": 110, "channel": 0}, {"type": "note_on", "time": 191, "note": 68, "velocity": 100, "channel": 0}, {"type": "note_off", "time": 111, "note": 68, "velocity": 100, "channel": 0}, {"type": "note_on", "time": 102, "note": 66, "velocity": 107, "channel": 0}, {"type": "note_off", "time": 129, "note": 66, "velocity": 107, "channel": 0}, {"type": "note_on", "time": 97, "note": 69, "velocity": 112, "channel": 0}, {"type": "note_off", "time": 142, "note": 69, "velocity": 112, "channel": 0}, {"type": "note_on", "time": 160, "note": 71, "velocity": 114, "channel": 0}, {"type": "note_off", "time": 102, "note": 71, "velocity": 114, "channel": 0}, {"type": "note_on", "time": 133, "note": 72, "velocity": 112, "channel": 0}, {"type": "note_off", "time": 133, "note": 72, "velocity": 112, "channel": 0}, {"type": "note_on", "time": 115, "note": 71, "velocity": 103, "channel": 0}, {"type": "note_off", "time": 115, "note": 71, "velocity": 103, "channel": 0}, {"type": "note_on", "time": 155, "note": 69, "velocity": 109, "channel": 0}, {"type": "note_off", "time": 120, "note": 69, "velocity": 109, "channel": 0}, {"type": "note_on", "time": 138, "note": 67, "velocity": 110, "channel": 0}, {"type": "note_off", "time": 106, "note": 67, "velocity": 110, "channel": 0}, {"type": "note_on", "time": 131, "note": 69, "velocity": 105, "channel": 0}, {"type": "note_off", "time": 115, "note": 69, "velocity": 105, "channel": 0}, {"type": "note_on", "time": 135, "note": 67, "velocity": 108, "channel": 0}, {"type": "note_off", "time": 151, "note": 67, "velocity": 108, "channel": 0}, {"type": "note_on", "time": 169, "note": 66, "velocity": 109, "channel": 0}, {"type": "note_off", "time": 106, "note": 66, "velocity": 109, "channel": 0}, {"type": "note_on", "time": 146, "note": 67, "velocity": 101, "channel": 0}, {"type": "note_off", "time": 97, "note": 67, "velocity": 101, "channel": 0}, {"type": "note_on", "time": 129, "note": 66, "velocity": 117, "channel": 0}, {"type": "note_off", "time": 120, "note": 66, "velocity": 117, "channel": 0}, {"type": "note_on", "time": 142, "note": 64, "velocity": 118, "channel": 0}, {"type": "note_off", "time": 93, "note": 64, "velocity": 118, "channel": 0}, {"type": "note_on", "time": 133, "note": 67, "velocity": 108, "channel": 0}, {"type": "note_off", "time": 120, "note": 67, "velocity": 108, "channel": 0}, {"type": "note_on", "time": 115, "note": 69, "velocity": 111, "channel": 0}, {"type": "note_off", "time": 138, "note": 69, "velocity": 111, "channel": 0}, {"type": "note_on", "time": 106, "note": 70, "velocity": 109, "channel": 0}, {"type": "note_off", "time": 124, "note": 70, "velocity": 109, "channel": 0}, {"type": "note_on", "time": 106, "note": 72, "velocity": 108, "channel": 0}, {"type": "note_off", "time": 124, "note": 72, "velocity": 108, "channel": 0}, {"type": "note_on", "time": 129, "note": 70, "velocity": 111, "channel": 0}, {"type": "note_off", "time": 106, "note": 70, "velocity": 111, "channel": 0}, {"type": "note_on", "time": 133, "note": 69, "velocity": 115, "channel": 0}, {"type": "note_off", "time": 115, "note": 69, "velocity": 115, "channel": 0}, {"type": "note_on", "time": 138, "note": 70, "velocity": 104, "channel": 0}, {"type": "note_off", "time": 102, "note": 70, "velocity": 104, "channel": 0}, {"type": "note_on", "time": 155, "note": 69, "velocity": 105, "channel": 0}, {"type": "note_off", "time": 120, "note": 69, "velocity": 105, "channel": 0}, {"type": "note_on", "time": 106, "note": 67, "velocity": 103, "channel": 0}, {"type": "note_off", "time": 102, "note": 67, "velocity": 103, "channel": 0}, {"type": "note_on", "time": 115, "note": 69, "velocity": 104, "channel": 0}, {"type": "note_off", "time": 102, "note": 69, "velocity": 104, "channel": 0}, {"type": "note_on", "time": 191, "note": 66, "velocity": 98, "channel": 0}, {"type": "note_off", "time": 222, "note": 66, "velocity": 98, "channel": 0}, {"type": "note_on", "time": 409, "note": 65, "velocity": 91, "channel": 0}, {"type": "note_off", "time": 51, "note": 65, "velocity": 91, "channel": 0}, {"type": "note_on", "time": 0, "note": 68, "velocity": 116, "channel": 0}, {"type": "note_off", "time": 42, "note": 68, "velocity": 116, "channel": 0}, {"type": "note_on", "time": 0, "note": 70, "velocity": 103, "channel": 0}, {"type": "note_on", "time": 71, "note": 74, "velocity": 113, "channel": 0}, {"type": "note_off", "time": 0, "note": 70, "velocity": 103, "channel": 0}, {"type": "note_off", "time": 80, "note": 74, "velocity": 113, "channel": 0}, {"type": "note_on", "time": 22, "note": 77, "velocity": 99, "channel": 0}, {"type": "note_off", "time": 71, "note": 77, "velocity": 99, "channel": 0}, {"type": "note_on", "time": 268, "note": 77, "velocity": 96, "channel": 0}, {"type": "note_off", "time": 70, "note": 77, "velocity": 96, "channel": 0}, {"type": "note_on", "time": 100, "note": 62, "velocity": 105, "channel": 0}, {"type": "note_off", "time": 35, "note": 62, "velocity": 105, "channel": 0}, {"type": "note_on", "time": 11, "note": 67, "velocity": 94, "channel": 0}, {"type": "note_off", "time": 40, "note": 67, "velocity": 94, "channel": 0}, {"type": "note_on", "time": 26, "note": 70, "velocity": 103, "channel": 0}, {"type": "note_off", "time": 66, "note": 70, "velocity": 103, "channel": 0}, {"type": "note_on", "time": 17, "note": 74, "velocity": 97, "channel": 0}, {"type": "note_off", "time": 57, "note": 74, "velocity": 97, "channel": 0}, {"type": "note_on", "time": 62, "note": 63, "velocity": 109, "channel": 0}, {"type": "note_off", "time": 35, "note": 63, "velocity": 109, "channel": 0}, {"type": "note_on", "time": 17, "note": 65, "velocity": 113, "channel": 0}, {"type": "note_off", "time": 33, "note": 65, "velocity": 113, "channel": 0}, {"type": "note_on", "time": 17, "note": 63, "velocity": 98, "channel": 0}, {"type": "note_off", "time": 57, "note": 63, "velocity": 98, "channel": 0}, {"type": "note_on", "time": 42, "note": 72, "velocity": 111, "channel": 0}, {"type": "note_off", "time": 53, "note": 72, "velocity": 111, "channel": 0}, {"type": "note_on", "time": 17, "note": 77, "velocity": 99, "channel": 0}, {"type": "note_off", "time": 53, "note": 77, "velocity": 99, "channel": 0}, {"type": "note_on", "time": 93, "note": 65, "velocity": 94, "channel": 0}, {"type": "note_off", "time": 53, "note": 65, "velocity": 94, "channel": 0}, {"type": "note_on", "time": 35, "note": 67, "velocity": 107, "channel": 0}, {"type": "note_off", "time": 51, "note": 67, "velocity": 107, "channel": 0}, {"type": "note_on", "time": 28, "note": 74, "velocity": 116, "channel": 0}, {"type": "note_off", "time": 53, "note": 74, "velocity": 116, "channel": 0}, {"type": "note_on", "time": 31, "note": 77, "velocity": 115, "channel": 0}, {"type": "note_off", "time": 66, "note": 77, "velocity": 115, "channel": 0}, {"type": "note_on", "time": 13, "note": 63, "velocity": 112, "channel": 0}, {"type": "note_off", "time": 48, "note": 63, "velocity": 112, "channel": 0}, {"type": "note_on", "time": 17, "note": 65, "velocity": 107, "channel": 0}, {"type": "note_off", "time": 53, "note": 65, "velocity": 107, "channel": 0}, {"type": "note_on", "time": 62, "note": 72, "velocity": 108, "channel": 0}, {"type": "note_off", "time": 66, "note": 72, "velocity": 108, "channel": 0}, {"type": "note_on", "time": 13, "note": 73, "velocity": 90, "channel": 0}, {"type": "note_off", "time": 71, "note": 73, "velocity": 90, "channel": 0}, {"type": "note_on", "time": 84, "note": 63, "velocity": 113, "channel": 0}, {"type": "note_off", "time": 53, "note": 63, "velocity": 113, "channel": 0}, {"type": "note_on", "time": 15, "note": 65, "velocity": 94, "channel": 0}, {"type": "note_off", "time": 64, "note": 65, "velocity": 94, "channel": 0}, {"type": "note_on", "time": 91, "note": 77, "velocity": 86, "channel": 0}, {"type": "note_off", "time": 48, "note": 77, "velocity": 86, "channel": 0}, {"type": "note_on", "time": 22, "note": 70, "velocity": 102, "channel": 0}, {"type": "note_off", "time": 62, "note": 70, "velocity": 102, "channel": 0}, {"type": "note_on", "time": 11, "note": 66, "velocity": 97, "channel": 0}, {"type": "note_off", "time": 53, "note": 66, "velocity": 97, "channel": 0}, {"type": "note_on", "time": 104, "note": 67, "velocity": 108, "channel": 0}, {"type": "note_off", "time": 48, "note": 67, "velocity": 108, "channel": 0}, {"type": "note_on", "time": 2, "note": 70, "velocity": 106, "channel": 0}, {"type": "note_off", "time": 40, "note": 70, "velocity": 106, "channel": 0}, {"type": "note_on", "time": 35, "note": 75, "velocity": 92, "channel": 0}, {"type": "note_off", "time": 48, "note": 75, "velocity": 92, "channel": 0}, {"type": "note_on", "time": 69, "note": 67, "velocity": 98, "channel": 0}, {"type": "note_off", "time": 60, "note": 67, "velocity": 98, "channel": 0}, {"type": "note_on", "time": 31, "note": 63, "velocity": 94, "channel": 0}, {"type": "note_off", "time": 46, "note": 63, "velocity": 94, "channel": 0}, {"type": "note_on", "time": 31, "note": 63, "velocity": 99, "channel": 0}, {"type": "note_off", "time": 33, "note": 63, "velocity": 99, "channel": 0}, {"type": "note_on", "time": 0, "note": 70, "velocity": 106, "channel": 0}, {"type": "note_off", "time": 39, "note": 70, "velocity": 106, "channel": 0}, {"type": "note_on", "time": 0, "note": 77, "velocity": 114, "channel": 0}, {"type": "note_off", "time": 82, "note": 77, "velocity": 114, "channel": 0}, {"type": "note_on", "time": 19, "note": 76, "velocity": 112, "channel": 0}, {"type": "note_off", "time": 82, "note": 76, "velocity": 112, "channel": 0}, {"type": "note_on", "time": 34, "note": 75, "velocity": 112, "channel": 0}, {"type": "note_off", "time": 66, "note": 75, "velocity": 112, "channel": 0}, {"type": "note_on", "time": 9, "note": 74, "velocity": 106, "channel": 0}, {"type": "note_off", "time": 47, "note": 74, "velocity": 106, "channel": 0}, {"type": "note_on", "time": 6, "note": 75, "velocity": 117, "channel": 0}, {"type": "note_off", "time": 41, "note": 75, "velocity": 117, "channel": 0}, {"type": "note_on", "time": 12, "note": 74, "velocity": 111, "channel": 0}, {"type": "note_off", "time": 41, "note": 74, "velocity": 111, "channel": 0}, {"type": "note_on", "time": 28, "note": 70, "velocity": 116, "channel": 0}, {"type": "note_off", "time": 50, "note": 70, "velocity": 116, "channel": 0}, {"type": "note_on", "time": 28, "note": 67, "velocity": 108, "channel": 0}, {"type": "note_off", "time": 69, "note": 67, "velocity": 108, "channel": 0}, {"type": "note_on", "time": 6, "note": 65, "velocity": 107, "channel": 0}, {"type": "note_off", "time": 91, "note": 65, "velocity": 107, "channel": 0}, {"type": "note_on", "time": 32, "note": 72, "velocity": 105, "channel": 0}, {"type": "note_off", "time": 42, "note": 72, "velocity": 105, "channel": 0}, {"type": "note_on", "time": 8, "note": 73, "velocity": 112, "channel": 0}, {"type": "note_off", "time": 57, "note": 73, "velocity": 112, "channel": 0}, {"type": "note_on", "time": 15, "note": 72, "velocity": 120, "channel": 0}, {"type": "note_off", "time": 64, "note": 72, "velocity": 120, "channel": 0}, {"type": "note_on", "time": 6, "note": 71, "velocity": 116, "channel": 0}, {"type": "note_off", "time": 66, "note": 71, "velocity": 116, "channel": 0}, {"type": "note_on", "time": 8, "note": 70, "velocity": 105, "channel": 0}, {"type": "note_off", "time": 72, "note": 70, "velocity": 105, "channel": 0}, {"type": "note_on", "time": 6, "note": 69, "velocity": 116, "channel": 0}, {"type": "note_off", "time": 41, "note": 69, "velocity": 116, "channel": 0}, {"type": "note_on", "time": 22, "note": 70, "velocity": 117, "channel": 0}, {"type": "note_off", "time": 66, "note": 70, "velocity": 117, "channel": 0}, {"type": "note_on", "time": 31, "note": 69, "velocity": 110, "channel": 0}, {"type": "note_off", "time": 69, "note": 69, "velocity": 110, "channel": 0}, {"type": "note_on", "time": 25, "note": 68, "velocity": 112, "channel": 0}, {"type": "note_off", "time": 76, "note": 68, "velocity": 112, "channel": 0}, {"type": "note_on", "time": 6, "note": 67, "velocity": 119, "channel": 0}, {"type": "note_off", "time": 69, "note": 67, "velocity": 119, "channel": 0}, {"type": "note_on", "time": 15, "note": 66, "velocity": 115, "channel": 0}, {"type": "note_off", "time": 85, "note": 66, "velocity": 115, "channel": 0}, {"type": "note_on", "time": 3, "note": 65, "velocity": 110, "channel": 0}, {"type": "note_off", "time": 72, "note": 65, "velocity": 110, "channel": 0}, {"type": "note_on", "time": 22, "note": 64, "velocity": 110, "channel": 0}, {"type": "note_off", "time": 63, "note": 64, "velocity": 110, "channel": 0}, {"type": "note_on", "time": 6, "note": 63, "velocity": 106, "channel": 0}, {"type": "note_off", "time": 63, "note": 63, "velocity": 106, "channel": 0}, {"type": "note_on", "time": 3, "note": 62, "velocity": 115, "channel": 0}, {"type": "note_off", "time": 50, "note": 62, "velocity": 115, "channel": 0}, {"type": "note_on", "time": 31, "note": 64, "velocity": 118, "channel": 0}, {"type": "note_off", "time": 41, "note": 64, "velocity": 118, "channel": 0}, {"type": "note_on", "time": 28, "note": 65, "velocity": 109, "channel": 0}, {"type": "note_off", "time": 69, "note": 65, "velocity": 109, "channel": 0}, {"type": "note_on", "time": 28, "note": 66, "velocity": 110, "channel": 0}, {"type": "note_off", "time": 69, "note": 66, "velocity": 110, "channel": 0}, {"type": "note_on", "time": 15, "note": 68, "velocity": 103, "channel": 0}, {"type": "note_off", "time": 63, "note": 68, "velocity": 103, "channel": 0}, {"type": "note_on", "time": 28, "note": 70, "velocity": 105, "channel": 0}, {"type": "note_off", "time": 85, "note": 70, "velocity": 105, "channel": 0}, {"type": "note_on", "time": 19, "note": 66, "velocity": 113, "channel": 0}, {"type": "note_off", "time": 53, "note": 66, "velocity": 113, "channel": 0}, {"type": "note_on", "time": 27, "note": 65, "velocity": 102, "channel": 0}, {"type": "note_off", "time": 57, "note": 65, "velocity": 102, "channel": 0}, {"type": "note_on", "time": 34, "note": 63, "velocity": 110, "channel": 0}, {"type": "note_off", "time": 50, "note": 63, "velocity": 110, "channel": 0}, {"type": "note_on", "time": 39, "note": 68, "velocity": 114, "channel": 0}, {"type": "note_off", "time": 95, "note": 68, "velocity": 114, "channel": 0}, {"type": "note_on", "time": 39, "note": 68, "velocity": 115, "channel": 0}, {"type": "note_off", "time": 63, "note": 68, "velocity": 115, "channel": 0}, {"type": "note_on", "time": 23, "note": 66, "velocity": 114, "channel": 0}, {"type": "note_off", "time": 91, "note": 66, "velocity": 114, "channel": 0}, {"type": "note_on", "time": 19, "note": 64, "velocity": 106, "channel": 0}, {"type": "note_off", "time": 38, "note": 64, "velocity": 106, "channel": 0}, {"type": "note_on", "time": 19, "note": 65, "velocity": 127, "channel": 0}, {"type": "note_off", "time": 126, "note": 65, "velocity": 127, "channel": 0}, {"type": "note_on", "time": 493, "note": 70, "velocity": 121, "channel": 0}, {"type": "note_off", "time": 111, "note": 70, "velocity": 121, "channel": 0}, {"type": "note_on", "time": 53, "note": 72, "velocity": 116, "channel": 0}, {"type": "note_off", "time": 155, "note": 72, "velocity": 116, "channel": 0}, {"type": "note_on", "time": 57, "note": 73, "velocity": 120, "channel": 0}, {"type": "note_off", "time": 53, "note": 73, "velocity": 120, "channel": 0}, {"type": "note_on", "time": 12, "note": 74, "velocity": 118, "channel": 0}, {"type": "note_off", "time": 165, "note": 74, "velocity": 118, "channel": 0}, {"type": "note_on", "time": 34, "note": 74, "velocity": 117, "channel": 0}, {"type": "note_off", "time": 45, "note": 74, "velocity": 117, "channel": 0}, {"type": "note_on", "time": 23, "note": 75, "velocity": 107, "channel": 0}, {"type": "note_off", "time": 89, "note": 75, "velocity": 107, "channel": 0}, {"type": "note_on", "time": 89, "note": 76, "velocity": 113, "channel": 0}, {"type": "note_off", "time": 151, "note": 76, "velocity": 113, "channel": 0}, {"type": "note_on", "time": 40, "note": 77, "velocity": 109, "channel": 0}, {"type": "note_off", "time": 89, "note": 77, "velocity": 109, "channel": 0}, {"type": "note_on", "time": 142, "note": 70, "velocity": 107, "channel": 0}, {"type": "note_off", "time": 71, "note": 70, "velocity": 107, "channel": 0}, {"type": "note_on", "time": 22, "note": 70, "velocity": 102, "channel": 0}, {"type": "note_off", "time": 97, "note": 70, "velocity": 102, "channel": 0}, {"type": "note_on", "time": 138, "note": 70, "velocity": 91, "channel": 0}, {"type": "note_off", "time": 66, "note": 70, "velocity": 91, "channel": 0}, {"type": "note_on", "time": 42, "note": 70, "velocity": 108, "channel": 0}, {"type": "note_off", "time": 97, "note": 70, "velocity": 108, "channel": 0}, {"type": "note_on", "time": 376, "note": 74, "velocity": 111, "channel": 0}, {"type": "note_off", "time": 75, "note": 74, "velocity": 111, "channel": 0}, {"type": "note_on", "time": 22, "note": 74, "velocity": 103, "channel": 0}, {"type": "note_off", "time": 97, "note": 74, "velocity": 103, "channel": 0}, {"type": "note_on", "time": 173, "note": 74, "velocity": 116, "channel": 0}, {"type": "note_off", "time": 75, "note": 74, "velocity": 116, "channel": 0}, {"type": "note_on", "time": 26, "note": 74, "velocity": 107, "channel": 0}, {"type": "note_off", "time": 89, "note": 74, "velocity": 107, "channel": 0}, {"type": "note_on", "time": 396, "note": 77, "velocity": 113, "channel": 0}, {"type": "note_off", "time": 66, "note": 77, "velocity": 113, "channel": 0}, {"type": "note_on", "time": 26, "note": 77, "velocity": 108, "channel": 0}, {"type": "note_off", "time": 102, "note": 77, "velocity": 108, "channel": 0}, {"type": "note_on", "time": 227, "note": 82, "velocity": 108, "channel": 0}, {"type": "note_off", "time": 195, "note": 82, "velocity": 108, "channel": 0}, {"type": "end_of_track", "time": 0}]]}