{"ticks_per_beat": 192, "tracks": [[{"type": "track_name", "name": "Melody", "time": 0}, {"type": "set_tempo", "tempo": 275229, "time": 0}, {"type": "key_signature", "key": "D", "time": 0}, {"type": "time_signature", "numerator": 4, "denominator": 4, "clocks_per_click": 24, "notated_32nd_notes_per_beat": 8, "time": 0}, {"type": "note_on", "time": 3650, "note": 59, "velocity": 106, "channel": 0}, {"type": "note_off", "time": 85, "note": 59, "velocity": 106, "channel": 0}, {"type": "note_on", "time": 24, "note": 62, "velocity": 104, "channel": 0}, {"type": "note_off", "time": 105, "note": 62, "velocity": 104, "channel": 0}, {"type": "note_on", "time": 52, "note": 63, "velocity": 117, "channel": 0}, {"type": "note_off", "time": 76, "note": 63, "velocity": 117, "channel": 0}, {"type": "note_on", "time": 0, "note": 65, "velocity": 106, "channel": 0}, {"type": "note_off", "time": 283, "note": 65, "velocity": 106, "channel": 0}, {"type": "note_on", "time": 518, "note": 59, "velocity": 89, "channel": 0}, {"type": "note_off", "time": 28, "note": 59, "velocity": 89, "channel": 0}, {"type": "note_on", "time": 8, "note": 58, "velocity": 115, "channel": 0}, {"type": "note_off", "time": 44, "note": 58, "velocity": 115, "channel": 0}, {"type": "note_on", "time": 0, "note": 56, "velocity": 112, "channel": 0}, {"type": "note_off", "time": 117, "note": 56, "velocity": 112, "channel": 0}, {"type": "note_on", "time": 4, "note": 57, "velocity": 115, "channel": 0}, {"type": "note_off", "time": 76, "note": 57, "velocity": 115, "channel": 0}, {"type": "note_on", "time": 0, "note": 59, "velocity": 109, "channel": 0}, {"type": "note_off", "time": 113, "note": 59, "velocity": 109, "channel": 0}, {"type": "note_on", "time": 89, "note": 64, "velocity": 117, "channel": 0}, {"type": "note_off", "time": 89, "note": 64, "velocity": 117, "channel": 0}, {"type": "note_on", "time": 4, "note": 62, "velocity": 96, "channel": 0}, {"type": "note_off", "time": 93, "note": 62, "velocity": 96, "channel": 0}, {"type": "note_on", "time": 8, "note": 65, "velocity": 105, "channel": 0}, {"type": "note_off", "time": 109, "note": 65, "velocity": 105, "channel": 0}, {"type": "note_on", "time": 0, "note": 66, "velocity": 101, "channel": 0}, {"type": "note_off", "time": 182, "note": 66, "velocity": 101, "channel": 0}, {"type": "note_on", "time": 0, "note": 64, "velocity": 97, "channel": 0}, {"type": "note_off", "time": 85, "note": 64, "velocity": 97, "channel": 0}, {"type": "note_on", "time": 8, "note": 62, "velocity": 113, "channel": 0}, {"type": "note_off", "time": 101, "note": 62, "velocity": 113, "channel": 0}, {"type": "note_on", "time": 8, "note": 57, "velocity": 108, "channel": 0}, {"type": "note_off", "time": 101, "note": 57, "velocity": 108, "channel": 0}, {"type": "note_on", "time": 4, "note": 53, "velocity": 95, "channel": 0}, {"type": "note_off", "time": 85, "note": 53, "velocity": 95, "channel": 0}, {"type": "note_on", "time": 12, "note": 54, "velocity": 105, "channel": 0}, {"type": "note_off", "time": 68, "note": 54, "velocity": 105, "channel": 0}, {"type": "note_on", "time": 20, "note": 57, "velocity": 114, "channel": 0}, {"type": "note_off", "time": 97, "note": 57, "velocity": 114, "channel": 0}, {"type": "note_on", "time": 0, "note": 62, "velocity": 96, "channel": 0}, {"type": "note_off", "time": 404, "note": 62, "velocity": 96, "channel": 0}, {"type": "note_on", "time": 437, "note": 65, "velocity": 111, "channel": 0}, {"type": "note_off", "time": 109, "note": 65, "velocity": 111, "channel": 0}, {"type": "note_on", "time": 4, "note": 67, "velocity": 96, "channel": 0}, {"type": "note_off", "time": 76, "note": 67, "velocity": 96, "channel": 0}, {"type": "note_on", "time": 0, "note": 69, "velocity": 111, "channel": 0}, {"type": "note_off", "time": 105, "note": 69, "velocity": 111, "channel": 0}, {"type": "note_on", "time": 0, "note": 71, "velocity": 114, "channel": 0}, {"type": "note_off", "time": 89, "note": 71, "velocity": 114, "channel": 0}, {"type": "note_on", "time": 0, "note": 72, "velocity": 116, "channel": 0}, {"type": "note_off", "time": 93, "note": 72, "velocity": 116, "channel": 0}, {"type": "note_on", "time": 0, "note": 69, "velocity": 98, "channel": 0}, {"type": "note_off", "time": 64, "note": 69, "velocity": 98, "channel": 0}, {"type": "note_on", "time": 28, "note": 71, "velocity": 115, "channel": 0}, {"type": "note_on", "time": 113, "note": 67, "velocity": 106, "channel": 0}, {"type": "note_off", "time": 0, "note": 71, "velocity": 115, "channel": 0}, {"type": "note_off", "time": 80, "note": 67, "velocity": 106, "channel": 0}, {"type": "note_on", "time": 0, "note": 69, "velocity": 110, "channel": 0}, {"type": "note_off", "time": 108, "note": 69, "velocity": 110, "channel": 0}, {"type": "note_on", "time": 0, "note": 66, "velocity": 102, "channel": 0}, {"type": "note_off", "time": 79, "note": 66, "velocity": 102, "channel": 0}, {"type": "note_on", "time": 0, "note": 67, "velocity": 102, "channel": 0}, {"type": "note_off", "time": 51, "note": 67, "velocity": 102, "channel": 0}, {"type": "note_on", "time": 28, "note": 70, "velocity": 99, "channel": 0}, {"type": "note_off", "time": 45, "note": 70, "velocity": 99, "channel": 0}, {"type": "note_on", "time": 5, "note": 67, "velocity": 104, "channel": 0}, {"type": "note_off", "time": 62, "note": 67, "velocity": 104, "channel": 0}, {"type": "note_on", "time": 0, "note": 64, "velocity": 111, "channel": 0}, {"type": "note_off", "time": 122, "note": 64, "velocity": 111, "channel": 0}, {"type": "note_on", "time": 42, "note": 66, "velocity": 96, "channel": 0}, {"type": "note_off", "time": 304, "note": 66, "velocity": 96, "channel": 0}, {"type": "note_on", "time": 0, "note": 62, "velocity": 109, "channel": 0}, {"type": "note_off", "time": 91, "note": 62, "velocity": 109, "channel": 0}, {"type": "note_on", "time": 0, "note": 64, "velocity": 110, "channel": 0}, {"type": "note_off", "time": 142, "note": 64, "velocity": 110, "channel": 0}, {"type": "note_on", "time": 17, "note": 66, "velocity": 94, "channel": 0}, {"type": "note_off", "time": 521, "note": 66, "velocity": 94, "channel": 0}, {"type": "note_on", "time": 0, "note": 62, "velocity": 112, "channel": 0}, {"type": "note_off", "time": 85, "note": 62, "velocity": 112, "channel": 0}, {"type": "note_on", "time": 8, "note": 64, "velocity": 110, "channel": 0}, {"type": "note_off", "time": 128, "note": 64, "velocity": 110, "channel": 0}, {"type": "note_on", "time": 19, "note": 62, "velocity": 115, "channel": 0}, {"type": "note_off", "time": 74, "note": 62, "velocity": 115, "channel": 0}, {"type": "note_on", "time": 79, "note": 64, "velocity": 100, "channel": 0}, {"type": "note_off", "time": 347, "note": 64, "velocity": 100, "channel": 0}, {"type": "note_on", "time": 25, "note": 62, "velocity": 111, "channel": 0}, {"type": "note_off", "time": 116, "note": 62, "velocity": 111, "channel": 0}, {"type": "note_on", "time": 0, "note": 59, "velocity": 110, "channel": 0}, {"type": "note_off", "time": 130, "note": 59, "velocity": 110, "channel": 0}, {"type": "note_on", "time": 2, "note": 54, "velocity": 92, "channel": 0}, {"type": "note_off", "time": 318, "note": 54, "velocity": 92, "channel": 0}, {"type": "note_on", "time": 600, "note": 64, "velocity": 117, "channel": 0}, {"type": "note_off", "time": 139, "note": 64, "velocity": 117, "channel": 0}, {"type": "note_on", "time": 48, "note": 64, "velocity": 115, "channel": 0}, {"type": "note_off", "time": 156, "note": 64, "velocity": 115, "channel": 0}, {"type": "note_on", "time": 0, "note": 62, "velocity": 117, "channel": 0}, {"type": "note_off", "time": 85, "note": 62, "velocity": 117, "channel": 0}, {"type": "note_on", "time": 17, "note": 61, "velocity": 114, "channel": 0}, {"type": "note_off", "time": 96, "note": 61, "velocity": 114, "channel": 0}, {"type": "note_on", "time": 2, "note": 57, "velocity": 116, "channel": 0}, {"type": "note_off", "time": 96, "note": 57, "velocity": 116, "channel": 0}, {"type": "note_on", "time": 5, "note": 54, "velocity": 107, "channel": 0}, {"type": "note_on", "time": 79, "note": 50, "velocity": 100, "channel": 0}, {"type": "note_off", "time": 0, "note": 54, "velocity": 107, "channel": 0}, {"type": "note_off", "time": 96, "note": 50, "velocity": 100, "channel": 0}, {"type": "note_on", "time": 0, "note": 53, "velocity": 102, "channel": 0}, {"type": "note_off", "time": 353, "note": 53, "velocity": 102, "channel": 0}, {"type": "note_on", "time": 5, "note": 52, "velocity": 108, "channel": 0}, {"type": "note_off", "time": 111, "note": 52, "velocity": 108, "channel": 0}, {"type": "note_on", "time": 0, "note": 50, "velocity": 96, "channel": 0}, {"type": "note_off", "time": 85, "note": 50, "velocity": 96, "channel": 0}, {"type": "note_on", "time": 17, "note": 52, "velocity": 108, "channel": 0}, {"type": "note_on", "time": 93, "note": 50, "velocity": 100, "channel": 0}, {"type": "note_off", "time": 0, "note": 52, "velocity": 108, "channel": 0}, {"type": "note_off", "time": 79, "note": 50, "velocity": 100, "channel": 0}, {"type": "note_on", "time": 14, "note": 52, "velocity": 101, "channel": 0}, {"type": "note_off", "time": 347, "note": 52, "velocity": 101, "channel": 0}, {"type": "note_on", "time": 199, "note": 55, "velocity": 114, "channel": 0}, {"type": "note_off", "time": 113, "note": 55, "velocity": 114, "channel": 0}, {"type": "note_on", "time": 11, "note": 59, "velocity": 108, "channel": 0}, {"type": "note_off", "time": 250, "note": 59, "velocity": 108, "channel": 0}, {"type": "note_on", "time": 45, "note": 55, "velocity": 109, "channel": 0}, {"type": "note_off", "time": 99, "note": 55, "velocity": 109, "channel": 0}, {"type": "note_on", "time": 0, "note": 57, "velocity": 117, "channel": 0}, {"type": "note_off", "time": 65, "note": 57, "velocity": 117, "channel": 0}, {"type": "note_on", "time": 5, "note": 58, "velocity": 114, "channel": 0}, {"type": "note_off", "time": 113, "note": 58, "velocity": 114, "channel": 0}, {"type": "note_on", "time": 8, "note": 63, "velocity": 113, "channel": 0}, {"type": "note_off", "time": 62, "note": 63, "velocity": 113, "channel": 0}, {"type": "note_on", "time": 8, "note": 65, "velocity": 103, "channel": 0}, {"type": "note_off", "time": 150, "note": 65, "velocity": 103, "channel": 0}, {"type": "note_on", "time": 0, "note": 64, "velocity": 105, "channel": 0}, {"type": "note_off", "time": 316, "note": 64, "velocity": 105, "channel": 0}, {"type": "note_on", "time": 0, "note": 62, "velocity": 107, "channel": 0}, {"type": "note_off", "time": 105, "note": 62, "velocity": 107, "channel": 0}, {"type": "note_on", "time": 2, "note": 57, "velocity": 111, "channel": 0}, {"type": "note_off", "time": 93, "note": 57, "velocity": 111, "channel": 0}, {"type": "note_on", "time": 0, "note": 54, "velocity": 94, "channel": 0}, {"type": "note_off", "time": 68, "note": 54, "velocity": 94, "channel": 0}, {"type": "note_on", "time": 0, "note": 52, "velocity": 97, "channel": 0}, {"type": "note_off", "time": 79, "note": 52, "velocity": 97, "channel": 0}, {"type": "note_on", "time": 37, "note": 62, "velocity": 101, "channel": 0}, {"type": "note_off", "time": 353, "note": 62, "velocity": 101, "channel": 0}, {"type": "note_on", "time": 501, "note": 69, "velocity": 114, "channel": 0}, {"type": "note_off", "time": 108, "note": 69, "velocity": 114, "channel": 0}, {"type": "note_on", "time": 82, "note": 72, "velocity": 118, "channel": 0}, {"type": "note_off", "time": 128, "note": 72, "velocity": 118, "channel": 0}, {"type": "note_on", "time": 0, "note": 69, "velocity": 112, "channel": 0}, {"type": "note_off", "time": 91, "note": 69, "velocity": 112, "channel": 0}, {"type": "note_on", "time": 5, "note": 72, "velocity": 117, "channel": 0}, {"type": "note_off", "time": 119, "note": 72, "velocity": 117, "channel": 0}, {"type": "note_on", "time": 0, "note": 67, "velocity": 109, "channel": 0}, {"type": "note_off", "time": 88, "note": 67, "velocity": 109, "channel": 0}, {"type": "note_on", "time": 5, "note": 69, "velocity": 100, "channel": 0}, {"type": "note_off", "time": 384, "note": 69, "velocity": 100, "channel": 0}, {"type": "note_on", "time": 0, "note": 67, "velocity": 102, "channel": 0}, {"type": "note_off", "time": 111, "note": 67, "velocity": 102, "channel": 0}, {"type": "note_on", "time": 59, "note": 69, "velocity": 110, "channel": 0}, {"type": "note_off", "time": 116, "note": 69, "velocity": 110, "channel": 0}, {"type": "note_on", "time": 5, "note": 72, "velocity": 116, "channel": 0}, {"type": "note_off", "time": 99, "note": 72, "velocity": 116, "channel": 0}, {"type": "note_on", "time": 2, "note": 69, "velocity": 109, "channel": 0}, {"type": "note_off", "time": 96, "note": 69, "velocity": 109, "channel": 0}, {"type": "note_on", "time": 2, "note": 67, "velocity": 91, "channel": 0}, {"type": "note_off", "time": 48, "note": 67, "velocity": 91, "channel": 0}, {"type": "note_on", "time": 0, "note": 69, "velocity": 110, "channel": 0}, {"type": "note_off", "time": 136, "note": 69, "velocity": 110, "channel": 0}, {"type": "note_on", "time": 0, "note": 67, "velocity": 95, "channel": 0}, {"type": "note_off", "time": 54, "note": 67, "velocity": 95, "channel": 0}, {"type": "note_on", "time": 0, "note": 69, "velocity": 97, "channel": 0}, {"type": "note_off", "time": 313, "note": 69, "velocity": 97, "channel": 0}, {"type": "note_on", "time": 5, "note": 66, "velocity": 91, "channel": 0}, {"type": "note_off", "time": 88, "note": 66, "velocity": 91, "channel": 0}, {"type": "note_on", "time": 0, "note": 69, "velocity": 104, "channel": 0}, {"type": "note_off", "time": 102, "note": 69, "velocity": 104, "channel": 0}, {"type": "note_on", "time": 15, "note": 64, "velocity": 107, "channel": 0}, {"type": "note_off", "time": 68, "note": 64, "velocity": 107, "channel": 0}, {"type": "note_on", "time": 10, "note": 67, "velocity": 102, "channel": 0}, {"type": "note_off", "time": 51, "note": 67, "velocity": 102, "channel": 0}, {"type": "note_on", "time": 11, "note": 71, "velocity": 108, "channel": 0}, {"type": "note_off", "time": 46, "note": 71, "velocity": 108, "channel": 0}, {"type": "note_on", "time": 0, "note": 67, "velocity": 101, "channel": 0}, {"type": "note_off", "time": 52, "note": 67, "velocity": 101, "channel": 0}, {"type": "note_on", "time": 0, "note": 62, "velocity": 114, "channel": 0}, {"type": "note_off", "time": 88, "note": 62, "velocity": 114, "channel": 0}, {"type": "note_on", "time": 113, "note": 64, "velocity": 101, "channel": 0}, {"type": "note_off", "time": 327, "note": 64, "velocity": 101, "channel": 0}, {"type": "note_on", "time": 0, "note": 62, "velocity": 100, "channel": 0}, {"type": "note_off", "time": 82, "note": 62, "velocity": 100, "channel": 0}, {"type": "note_on", "time": 5, "note": 63, "velocity": 116, "channel": 0}, {"type": "note_off", "time": 68, "note": 63, "velocity": 116, "channel": 0}, {"type": "note_on", "time": 0, "note": 65, "velocity": 107, "channel": 0}, {"type": "note_off", "time": 410, "note": 65, "velocity": 107, "channel": 0}, {"type": "note_on", "time": 0, "note": 62, "velocity": 109, "channel": 0}, {"type": "note_off", "time": 108, "note": 62, "velocity": 109, "channel": 0}, {"type": "note_on", "time": 108, "note": 59, "velocity": 107, "channel": 0}, {"type": "note_off", "time": 62, "note": 59, "velocity": 107, "channel": 0}, {"type": "note_on", "time": 28, "note": 64, "velocity": 102, "channel": 0}, {"type": "note_off", "time": 293, "note": 64, "velocity": 102, "channel": 0}, {"type": "note_on", "time": 0, "note": 61, "velocity": 107, "channel": 0}, {"type": "note_off", "time": 68, "note": 61, "velocity": 107, "channel": 0}, {"type": "note_on", "time": 31, "note": 57, "velocity": 116, "channel": 0}, {"type": "note_off", "time": 99, "note": 57, "velocity": 116, "channel": 0}, {"type": "note_on", "time": 8, "note": 55, "velocity": 103, "channel": 0}, {"type": "note_off", "time": 279, "note": 55, "velocity": 103, "channel": 0}, {"type": "note_on", "time": 0, "note": 54, "velocity": 98, "channel": 0}, {"type": "note_off", "time": 91, "note": 54, "velocity": 98, "channel": 0}, {"type": "note_on", "time": 8, "note": 55, "velocity": 106, "channel": 0}, {"type": "note_off", "time": 74, "note": 55, "velocity": 106, "channel": 0}, {"type": "note_on", "time": 2, "note": 57, "velocity": 112, "channel": 0}, {"type": "note_off", "time": 85, "note": 57, "velocity": 112, "channel": 0}, {"type": "note_on", "time": 19, "note": 59, "velocity": 102, "channel": 0}, {"type": "note_off", "time": 88, "note": 59, "velocity": 102, "channel": 0}, {"type": "note_on", "time": 0, "note": 61, "velocity": 106, "channel": 0}, {"type": "note_off", "time": 93, "note": 61, "velocity": 106, "channel": 0}, {"type": "note_on", "time": 19, "note": 59, "velocity": 101, "channel": 0}, {"type": "note_off", "time": 367, "note": 59, "velocity": 101, "channel": 0}, {"type": "note_on", "time": 578, "note": 62, "velocity": 119, "channel": 0}, {"type": "note_off", "time": 153, "note": 62, "velocity": 119, "channel": 0}, {"type": "note_on", "time": 253, "note": 62, "velocity": 106, "channel": 0}, {"type": "note_off", "time": 404, "note": 62, "velocity": 106, "channel": 0}, {"type": "note_on", "time": 96, "note": 62, "velocity": 115, "channel": 0}, {"type": "note_off", "time": 133, "note": 62, "velocity": 115, "channel": 0}, {"type": "note_on", "time": 85, "note": 59, "velocity": 97, "channel": 0}, {"type": "note_off", "time": 48, "note": 59, "velocity": 97, "channel": 0}, {"type": "note_on", "time": 25, "note": 62, "velocity": 117, "channel": 0}, {"type": "note_off", "time": 79, "note": 62, "velocity": 117, "channel": 0}, {"type": "note_on", "time": 19, "note": 62, "velocity": 109, "channel": 0}, {"type": "note_off", "time": 74, "note": 62, "velocity": 109, "channel": 0}, {"type": "note_on", "time": 0, "note": 58, "velocity": 108, "channel": 0}, {"type": "note_off", "time": 108, "note": 58, "velocity": 108, "channel": 0}, {"type": "note_on", "time": 68, "note": 61, "velocity": 108, "channel": 0}, {"type": "note_off", "time": 111, "note": 61, "velocity": 108, "channel": 0}, {"type": "note_on", "time": 65, "note": 57, "velocity": 93, "channel": 0}, {"type": "note_off", "time": 125, "note": 57, "velocity": 93, "channel": 0}, {"type": "note_on", "time": 62, "note": 61, "velocity": 101, "channel": 0}, {"type": "note_off", "time": 390, "note": 61, "velocity": 101, "channel": 0}, {"type": "note_on", "time": 133, "note": 60, "velocity": 108, "channel": 0}, {"type": "note_off", "time": 96, "note": 60, "velocity": 108, "channel": 0}, {"type": "note_on", "time": 102, "note": 57, "velocity": 111, "channel": 0}, {"type": "note_off", "time": 54, "note": 57, "velocity": 111, "channel": 0}, {"type": "note_on", "time": 0, "note": 60, "velocity": 100, "channel": 0}, {"type": "note_off", "time": 48, "note": 60, "velocity": 100, "channel": 0}, {"type": "note_on", "time": 11, "note": 62, "velocity": 105, "channel": 0}, {"type": "note_off", "time": 74, "note": 62, "velocity": 105, "channel": 0}, {"type": "note_on", "time": 2, "note": 60, "velocity": 104, "channel": 0}, {"type": "note_off", "time": 56, "note": 60, "velocity": 104, "channel": 0}, {"type": "note_on", "time": 11, "note": 57, "velocity": 113, "channel": 0}, {"type": "note_off", "time": 117, "note": 57, "velocity": 113, "channel": 0}, {"type": "note_on", "time": 2, "note": 58, "velocity": 112, "channel": 0}, {"type": "note_off", "time": 107, "note": 58, "velocity": 112, "channel": 0}, {"type": "note_on", "time": 0, "note": 59, "velocity": 105, "channel": 0}, {"type": "note_off", "time": 378, "note": 59, "velocity": 105, "channel": 0}, {"type": "note_on", "time": 11, "note": 62, "velocity": 113, "channel": 0}, {"type": "note_off", "time": 93, "note": 62, "velocity": 113, "channel": 0}, {"type": "note_on", "time": 2, "note": 59, "velocity": 113, "channel": 0}, {"type": "note_off", "time": 88, "note": 59, "velocity": 113, "channel": 0}, {"type": "note_on", "time": 8, "note": 55, "velocity": 105, "channel": 0}, {"type": "note_off", "time": 102, "note": 55, "velocity": 105, "channel": 0}, {"type": "note_on", "time": 2, "note": 52, "velocity": 93, "channel": 0}, {"type": "note_off", "time": 68, "note": 52, "velocity": 93, "channel": 0}, {"type": "note_on", "time": 0, "note": 54, "velocity": 96, "channel": 0}, {"type": "note_off", "time": 122, "note": 54, "velocity": 96, "channel": 0}, {"type": "note_on", "time": 5, "note": 57, "velocity": 102, "channel": 0}, {"type": "note_off", "time": 347, "note": 57, "velocity": 102, "channel": 0}, {"type": "note_on", "time": 17, "note": 63, "velocity": 111, "channel": 0}, {"type": "note_off", "time": 65, "note": 63, "velocity": 111, "channel": 0}, {"type": "note_on", "time": 0, "note": 65, "velocity": 100, "channel": 0}, {"type": "note_off", "time": 190, "note": 65, "velocity": 100, "channel": 0}, {"type": "note_on", "time": 5, "note": 62, "velocity": 98, "channel": 0}, {"type": "note_off", "time": 321, "note": 62, "velocity": 98, "channel": 0}, {"type": "note_on", "time": 48, "note": 62, "velocity": 108, "channel": 0}, {"type": "note_off", "time": 119, "note": 62, "velocity": 108, "channel": 0}, {"type": "note_on", "time": 0, "note": 66, "velocity": 97, "channel": 0}, {"type": "note_off", "time": 76, "note": 66, "velocity": 97, "channel": 0}, {"type": "note_on", "time": 17, "note": 62, "velocity": 94, "channel": 0}, {"type": "note_off", "time": 341, "note": 62, "velocity": 94, "channel": 0}, {"type": "note_on", "time": 979, "note": 69, "velocity": 114, "channel": 0}, {"type": "note_off", "time": 113, "note": 69, "velocity": 114, "channel": 0}, {"type": "note_on", "time": 65, "note": 69, "velocity": 113, "channel": 0}, {"type": "note_off", "time": 105, "note": 69, "velocity": 113, "channel": 0}, {"type": "note_on", "time": 8, "note": 65, "velocity": 111, "channel": 0}, {"type": "note_off", "time": 82, "note": 65, "velocity": 111, "channel": 0}, {"type": "note_on", "time": 25, "note": 60, "velocity": 105, "channel": 0}, {"type": "note_off", "time": 88, "note": 60, "velocity": 105, "channel": 0}, {"type": "note_on", "time": 0, "note": 58, "velocity": 113, "channel": 0}, {"type": "note_off", "time": 93, "note": 58, "velocity": 113, "channel": 0}, {"type": "note_on", "time": 0, "note": 56, "velocity": 111, "channel": 0}, {"type": "note_off", "time": 96, "note": 56, "velocity": 111, "channel": 0}, {"type": "note_on", "time": 2, "note": 57, "velocity": 106, "channel": 0}, {"type": "note_off", "time": 111, "note": 57, "velocity": 106, "channel": 0}, {"type": "note_on", "time": 0, "note": 60, "velocity": 111, "channel": 0}, {"type": "note_off", "time": 93, "note": 60, "velocity": 111, "channel": 0}, {"type": "note_on", "time": 5, "note": 57, "velocity": 103, "channel": 0}, {"type": "note_off", "time": 418, "note": 57, "velocity": 103, "channel": 0}, {"type": "note_on", "time": 128, "note": 57, "velocity": 116, "channel": 0}, {"type": "note_off", "time": 96, "note": 57, "velocity": 116, "channel": 0}, {"type": "note_on", "time": 8, "note": 59, "velocity": 114, "channel": 0}, {"type": "note_off", "time": 102, "note": 59, "velocity": 114, "channel": 0}, {"type": "note_on", "time": 0, "note": 61, "velocity": 112, "channel": 0}, {"type": "note_off", "time": 91, "note": 61, "velocity": 112, "channel": 0}, {"type": "note_on", "time": 0, "note": 64, "velocity": 117, "channel": 0}, {"type": "note_off", "time": 111, "note": 64, "velocity": 117, "channel": 0}, {"type": "note_on", "time": 0, "note": 61, "velocity": 105, "channel": 0}, {"type": "note_off", "time": 79, "note": 61, "velocity": 105, "channel": 0}, {"type": "note_on", "time": 8, "note": 62, "velocity": 117, "channel": 0}, {"type": "note_off", "time": 108, "note": 62, "velocity": 117, "channel": 0}, {"type": "note_on", "time": 0, "note": 66, "velocity": 95, "channel": 0}, {"type": "note_off", "time": 79, "note": 66, "velocity": 95, "channel": 0}, {"type": "note_on", "time": 2, "note": 69, "velocity": 106, "channel": 0}, {"type": "note_off", "time": 108, "note": 69, "velocity": 106, "channel": 0}, {"type": "note_on", "time": 8, "note": 74, "velocity": 111, "channel": 0}, {"type": "note_off", "time": 811, "note": 74, "velocity": 111, "channel": 0}, {"type": "note_on", "time": 51, "note": 69, "velocity": 104, "channel": 0}, {"type": "note_off", "time": 88, "note": 69, "velocity": 104, "channel": 0}, {"type": "note_on", "time": 76, "note": 72, "velocity": 98, "channel": 0}, {"type": "note_off", "time": 486, "note": 72, "velocity": 98, "channel": 0}, {"type": "note_on", "time": 2, "note": 69, "velocity": 107, "channel": 0}, {"type": "note_off", "time": 93, "note": 69, "velocity": 107, "channel": 0}, {"type": "note_on", "time": 11, "note": 67, "velocity": 102, "channel": 0}, {"type": "note_off", "time": 45, "note": 67, "velocity": 102, "channel": 0}, {"type": "note_on", "time": 8, "note": 69, "velocity": 104, "channel": 0}, {"type": "note_on", "time": 59, "note": 67, "velocity": 102, "channel": 0}, {"type": "note_off", "time": 0, "note": 69, "velocity": 104, "channel": 0}, {"type": "note_off", "time": 62, "note": 67, "velocity": 102, "channel": 0}, {"type": "note_on", "time": 14, "note": 66, "velocity": 103, "channel": 0}, {"type": "note_off", "time": 91, "note": 66, "velocity": 103, "channel": 0}, {"type": "note_on", "time": 17, "note": 69, "velocity": 98, "channel": 0}, {"type": "note_off", "time": 279, "note": 69, "velocity": 98, "channel": 0}, {"type": "note_on", "time": 5, "note": 66, "velocity": 103, "channel": 0}, {"type": "note_off", "time": 88, "note": 66, "velocity": 103, "channel": 0}, {"type": "note_on", "time": 11, "note": 64, "velocity": 108, "channel": 0}, {"type": "note_off", "time": 96, "note": 64, "velocity": 108, "channel": 0}, {"type": "note_on", "time": 0, "note": 62, "velocity": 111, "channel": 0}, {"type": "note_off", "time": 82, "note": 62, "velocity": 111, "channel": 0}, {"type": "note_on", "time": 0, "note": 61, "velocity": 108, "channel": 0}, {"type": "note_off", "time": 76, "note": 61, "velocity": 108, "channel": 0}, {"type": "note_on", "time": 0, "note": 59, "velocity": 102, "channel": 0}, {"type": "note_off", "time": 478, "note": 59, "velocity": 102, "channel": 0}, {"type": "note_on", "time": 463, "note": 63, "velocity": 114, "channel": 0}, {"type": "note_off", "time": 109, "note": 63, "velocity": 114, "channel": 0}, {"type": "note_on", "time": 36, "note": 66, "velocity": 115, "channel": 0}, {"type": "note_off", "time": 550, "note": 66, "velocity": 115, "channel": 0}, {"type": "note_on", "time": 0, "note": 65, "velocity": 100, "channel": 0}, {"type": "note_off", "time": 445, "note": 65, "velocity": 100, "channel": 0}, {"type": "note_on", "time": 489, "note": 64, "velocity": 116, "channel": 0}, {"type": "note_off", "time": 76, "note": 64, "velocity": 116, "channel": 0}, {"type": "note_on", "time": 0, "note": 62, "velocity": 119, "channel": 0}, {"type": "note_off", "time": 60, "note": 62, "velocity": 119, "channel": 0}, {"type": "note_on", "time": 0, "note": 61, "velocity": 116, "channel": 0}, {"type": "note_on", "time": 72, "note": 57, "velocity": 119, "channel": 0}, {"type": "note_off", "time": 0, "note": 61, "velocity": 116, "channel": 0}, {"type": "note_off", "time": 109, "note": 57, "velocity": 119, "channel": 0}, {"type": "note_on", "time": 0, "note": 54, "velocity": 105, "channel": 0}, {"type": "note_off", "time": 113, "note": 54, "velocity": 105, "channel": 0}, {"type": "note_on", "time": 0, "note": 50, "velocity": 95, "channel": 0}, {"type": "note_off", "time": 170, "note": 50, "velocity": 95, "channel": 0}, {"type": "note_on", "time": 48, "note": 53, "velocity": 94, "channel": 0}, {"type": "note_off", "time": 396, "note": 53, "velocity": 94, "channel": 0}, {"type": "note_on", "time": 384, "note": 64, "velocity": 106, "channel": 0}, {"type": "note_off", "time": 413, "note": 64, "velocity": 106, "channel": 0}, {"type": "note_on", "time": 0, "note": 62, "velocity": 110, "channel": 0}, {"type": "note_off", "time": 117, "note": 62, "velocity": 110, "channel": 0}, {"type": "note_on", "time": 0, "note": 59, "velocity": 108, "channel": 0}, {"type": "note_off", "time": 97, "note": 59, "velocity": 108, "channel": 0}, {"type": "note_on", "time": 0, "note": 55, "velocity": 101, "channel": 0}, {"type": "note_off", "time": 101, "note": 55, "velocity": 101, "channel": 0}, {"type": "note_on", "time": 8, "note": 52, "velocity": 95, "channel": 0}, {"type": "note_off", "time": 80, "note": 52, "velocity": 95, "channel": 0}, {"type": "note_on", "time": 4, "note": 54, "velocity": 104, "channel": 0}, {"type": "note_off", "time": 93, "note": 54, "velocity": 104, "channel": 0}, {"type": "note_on", "time": 0, "note": 57, "velocity": 96, "channel": 0}, {"type": "note_off", "time": 400, "note": 57, "velocity": 96, "channel": 0}, {"type": "note_on", "time": 198, "note": 69, "velocity": 102, "channel": 0}, {"type": "note_off", "time": 97, "note": 69, "velocity": 102, "channel": 0}, {"type": "note_on", "time": 115, "note": 69, "velocity": 104, "channel": 0}, {"type": "note_off", "time": 115, "note": 69, "velocity": 104, "channel": 0}, {"type": "note_on", "time": 0, "note": 66, "velocity": 97, "channel": 0}, {"type": "note_off", "time": 89, "note": 66, "velocity": 97, "channel": 0}, {"type": "note_on", "time": 0, "note": 67, "velocity": 97, "channel": 0}, {"type": "note_off", "time": 78, "note": 67, "velocity": 97, "channel": 0}, {"type": "note_on", "time": 0, "note": 69, "velocity": 100, "channel": 0}, {"type": "note_off", "time": 64, "note": 69, "velocity": 100, "channel": 0}, {"type": "note_on", "time": 12, "note": 67, "velocity": 102, "channel": 0}, {"type": "note_off", "time": 58, "note": 67, "velocity": 102, "channel": 0}, {"type": "note_on", "time": 0, "note": 64, "velocity": 111, "channel": 0}, {"type": "note_off", "time": 105, "note": 64, "velocity": 111, "channel": 0}, {"type": "note_on", "time": 44, "note": 66, "velocity": 90, "channel": 0}, {"type": "note_off", "time": 336, "note": 66, "velocity": 90, "channel": 0}, {"type": "note_on", "time": 4, "note": 62, "velocity": 97, "channel": 0}, {"type": "note_off", "time": 60, "note": 62, "velocity": 97, "channel": 0}, {"type": "note_on", "time": 0, "note": 64, "velocity": 96, "channel": 0}, {"type": "note_off", "time": 340, "note": 64, "velocity": 96, "channel": 0}, {"type": "note_on", "time": 0, "note": 60, "velocity": 103, "channel": 0}, {"type": "note_off", "time": 72, "note": 60, "velocity": 103, "channel": 0}, {"type": "note_on", "time": 0, "note": 57, "velocity": 112, "channel": 0}, {"type": "note_off", "time": 121, "note": 57, "velocity": 112, "channel": 0}, {"type": "note_on", "time": 32, "note": 57, "velocity": 92, "channel": 0}, {"type": "note_off", "time": 481, "note": 57, "velocity": 92, "channel": 0}, {"type": "note_on", "time": 899, "note": 69, "velocity": 9, "channel": 0}, {"type": "note_off", "time": 93, "note": 69, "velocity": 9, "channel": 0}, {"type": "note_on", "time": 91, "note": 69, "velocity": 117, "channel": 0}, {"type": "note_off", "time": 119, "note": 69, "velocity": 117, "channel": 0}, {"type": "note_on", "time": 0, "note": 66, "velocity": 113, "channel": 0}, {"type": "note_off", "time": 72, "note": 66, "velocity": 113, "channel": 0}, {"type": "note_on", "time": 4, "note": 67, "velocity": 112, "channel": 0}, {"type": "note_off", "time": 44, "note": 67, "velocity": 112, "channel": 0}, {"type": "note_on", "time": 20, "note": 69, "velocity": 114, "channel": 0}, {"type": "note_off", "time": 64, "note": 69, "velocity": 114, "channel": 0}, {"type": "note_on", "time": 0, "note": 67, "velocity": 109, "channel": 0}, {"type": "note_off", "time": 80, "note": 67, "velocity": 109, "channel": 0}, {"type": "note_on", "time": 4, "note": 64, "velocity": 127, "channel": 0}, {"type": "note_off", "time": 121, "note": 64, "velocity": 127, "channel": 0}, {"type": "note_on", "time": 97, "note": 66, "velocity": 103, "channel": 0}, {"type": "note_off", "time": 295, "note": 66, "velocity": 103, "channel": 0}, {"type": "note_on", "time": 0, "note": 62, "velocity": 123, "channel": 0}, {"type": "note_off", "time": 105, "note": 62, "velocity": 123, "channel": 0}, {"type": "note_on", "time": 0, "note": 64, "velocity": 125, "channel": 0}, {"type": "note_off", "time": 141, "note": 64, "velocity": 125, "channel": 0}, {"type": "note_on", "time": 6, "note": 66, "velocity": 110, "channel": 0}, {"type": "note_off", "time": 56, "note": 66, "velocity": 110, "channel": 0}, {"type": "note_on", "time": 2, "note": 69, "velocity": 103, "channel": 0}, {"type": "note_off", "time": 137, "note": 69, "velocity": 103, "channel": 0}, {"type": "note_on", "time": 36, "note": 64, "velocity": 115, "channel": 0}, {"type": "note_off", "time": 417, "note": 64, "velocity": 115, "channel": 0}, {"type": "note_on", "time": 32, "note": 62, "velocity": 120, "channel": 0}, {"type": "note_off", "time": 89, "note": 62, "velocity": 120, "channel": 0}, {"type": "note_on", "time": 4, "note": 61, "velocity": 110, "channel": 0}, {"type": "note_off", "time": 101, "note": 61, "velocity": 110, "channel": 0}, {"type": "note_on", "time": 0, "note": 57, "velocity": 114, "channel": 0}, {"type": "note_off", "time": 117, "note": 57, "velocity": 114, "channel": 0}, {"type": "note_on", "time": 0, "note": 55, "velocity": 109, "channel": 0}, {"type": "note_off", "time": 60, "note": 55, "velocity": 109, "channel": 0}, {"type": "note_on", "time": 0, "note": 57, "velocity": 124, "channel": 0}, {"type": "note_off", "time": 133, "note": 57, "velocity": 124, "channel": 0}, {"type": "note_on", "time": 40, "note": 59, "velocity": 102, "channel": 0}, {"type": "note_off", "time": 283, "note": 59, "velocity": 102, "channel": 0}, {"type": "note_on", "time": 8, "note": 52, "velocity": 89, "channel": 0}, {"type": "note_off", "time": 1000, "note": 52, "velocity": 89, "channel": 0}, {"type": "end_of_track", "time": 0}]]}