{"ticks_per_beat": 192, "tracks": [[{"type": "track_name", "name": "Melody", "time": 0}, {"type": "set_tempo", "tempo": 312500, "time": 0}, {"type": "key_signature", "key": "Ab", "time": 0}, {"type": "time_signature", "numerator": 4, "denominator": 4, "clocks_per_click": 24, "notated_32nd_notes_per_beat": 8, "time": 0}, {"type": "note_on", "time": 2772, "note": 60, "velocity": 109, "channel": 0}, {"type": "note_off", "time": 163, "note": 60, "velocity": 109, "channel": 0}, {"type": "note_on", "time": 7, "note": 64, "velocity": 114, "channel": 0}, {"type": "note_off", "time": 117, "note": 64, "velocity": 114, "channel": 0}, {"type": "note_on", "time": 25, "note": 68, "velocity": 114, "channel": 0}, {"type": "note_off", "time": 52, "note": 68, "velocity": 114, "channel": 0}, {"type": "note_on", "time": 27, "note": 70, "velocity": 118, "channel": 0}, {"type": "note_off", "time": 89, "note": 70, "velocity": 118, "channel": 0}, {"type": "note_on", "time": 8, "note": 72, "velocity": 125, "channel": 0}, {"type": "note_off", "time": 74, "note": 72, "velocity": 125, "channel": 0}, {"type": "note_on", "time": 17, "note": 68, "velocity": 120, "channel": 0}, {"type": "note_off", "time": 131, "note": 68, "velocity": 120, "channel": 0}, {"type": "note_on", "time": 88, "note": 68, "velocity": 120, "channel": 0}, {"type": "note_off", "time": 112, "note": 68, "velocity": 120, "channel": 0}, {"type": "note_on", "time": 0, "note": 65, "velocity": 92, "channel": 0}, {"type": "note_off", "time": 53, "note": 65, "velocity": 92, "channel": 0}, {"type": "note_on", "time": 21, "note": 68, "velocity": 105, "channel": 0}, {"type": "note_off", "time": 297, "note": 68, "velocity": 105, "channel": 0}, {"type": "note_on", "time": 18, "note": 68, "velocity": 119, "channel": 0}, {"type": "note_off", "time": 96, "note": 68, "velocity": 119, "channel": 0}, {"type": "note_on", "time": 116, "note": 68, "velocity": 116, "channel": 0}, {"type": "note_off", "time": 135, "note": 68, "velocity": 116, "channel": 0}, {"type": "note_on", "time": 92, "note": 68, "velocity": 120, "channel": 0}, {"type": "note_off", "time": 137, "note": 68, "velocity": 120, "channel": 0}, {"type": "note_on", "time": 30, "note": 68, "velocity": 102, "channel": 0}, {"type": "note_off", "time": 317, "note": 68, "velocity": 102, "channel": 0}, {"type": "note_on", "time": 78, "note": 67, "velocity": 122, "channel": 0}, {"type": "note_off", "time": 58, "note": 67, "velocity": 122, "channel": 0}, {"type": "note_on", "time": 6, "note": 68, "velocity": 111, "channel": 0}, {"type": "note_off", "time": 160, "note": 68, "velocity": 111, "channel": 0}, {"type": "note_on", "time": 25, "note": 65, "velocity": 114, "channel": 0}, {"type": "note_off", "time": 112, "note": 65, "velocity": 114, "channel": 0}, {"type": "note_on", "time": 28, "note": 61, "velocity": 116, "channel": 0}, {"type": "note_off", "time": 49, "note": 61, "velocity": 116, "channel": 0}, {"type": "note_on", "time": 15, "note": 58, "velocity": 97, "channel": 0}, {"type": "note_off", "time": 112, "note": 58, "velocity": 97, "channel": 0}, {"type": "note_on", "time": 64, "note": 63, "velocity": 106, "channel": 0}, {"type": "note_off", "time": 272, "note": 63, "velocity": 106, "channel": 0}, {"type": "note_on", "time": 39, "note": 60, "velocity": 116, "channel": 0}, {"type": "note_off", "time": 96, "note": 60, "velocity": 116, "channel": 0}, {"type": "note_on", "time": 19, "note": 55, "velocity": 109, "channel": 0}, {"type": "note_off", "time": 83, "note": 55, "velocity": 109, "channel": 0}, {"type": "note_on", "time": 26, "note": 53, "velocity": 105, "channel": 0}, {"type": "note_off", "time": 354, "note": 53, "velocity": 105, "channel": 0}, {"type": "note_on", "time": 404, "note": 53, "velocity": 118, "channel": 0}, {"type": "note_off", "time": 39, "note": 53, "velocity": 118, "channel": 0}, {"type": "note_on", "time": 19, "note": 55, "velocity": 114, "channel": 0}, {"type": "note_off", "time": 26, "note": 55, "velocity": 114, "channel": 0}, {"type": "note_on", "time": 21, "note": 56, "velocity": 120, "channel": 0}, {"type": "note_off", "time": 90, "note": 56, "velocity": 120, "channel": 0}, {"type": "note_on", "time": 5, "note": 55, "velocity": 114, "channel": 0}, {"type": "note_off", "time": 80, "note": 55, "velocity": 114, "channel": 0}, {"type": "note_on", "time": 21, "note": 53, "velocity": 108, "channel": 0}, {"type": "note_off", "time": 85, "note": 53, "velocity": 108, "channel": 0}, {"type": "note_on", "time": 23, "note": 55, "velocity": 111, "channel": 0}, {"type": "note_off", "time": 224, "note": 55, "velocity": 111, "channel": 0}, {"type": "note_on", "time": 16, "note": 53, "velocity": 118, "channel": 0}, {"type": "note_off", "time": 90, "note": 53, "velocity": 118, "channel": 0}, {"type": "note_on", "time": 23, "note": 51, "velocity": 104, "channel": 0}, {"type": "note_off", "time": 49, "note": 51, "velocity": 104, "channel": 0}, {"type": "note_on", "time": 16, "note": 55, "velocity": 113, "channel": 0}, {"type": "note_off", "time": 103, "note": 55, "velocity": 113, "channel": 0}, {"type": "note_on", "time": 22, "note": 53, "velocity": 118, "channel": 0}, {"type": "note_off", "time": 67, "note": 53, "velocity": 118, "channel": 0}, {"type": "note_on", "time": 27, "note": 52, "velocity": 108, "channel": 0}, {"type": "note_off", "time": 75, "note": 52, "velocity": 108, "channel": 0}, {"type": "note_on", "time": 20, "note": 53, "velocity": 110, "channel": 0}, {"type": "note_off", "time": 97, "note": 53, "velocity": 110, "channel": 0}, {"type": "note_on", "time": 5, "note": 55, "velocity": 117, "channel": 0}, {"type": "note_off", "time": 65, "note": 55, "velocity": 117, "channel": 0}, {"type": "note_on", "time": 33, "note": 59, "velocity": 115, "channel": 0}, {"type": "note_off", "time": 57, "note": 59, "velocity": 115, "channel": 0}, {"type": "note_on", "time": 10, "note": 62, "velocity": 124, "channel": 0}, {"type": "note_off", "time": 123, "note": 62, "velocity": 124, "channel": 0}, {"type": "note_on", "time": 12, "note": 59, "velocity": 115, "channel": 0}, {"type": "note_off", "time": 64, "note": 59, "velocity": 115, "channel": 0}, {"type": "note_on", "time": 19, "note": 60, "velocity": 116, "channel": 0}, {"type": "note_off", "time": 67, "note": 60, "velocity": 116, "channel": 0}, {"type": "note_on", "time": 28, "note": 64, "velocity": 108, "channel": 0}, {"type": "note_off", "time": 44, "note": 64, "velocity": 108, "channel": 0}, {"type": "note_on", "time": 21, "note": 67, "velocity": 120, "channel": 0}, {"type": "note_off", "time": 108, "note": 67, "velocity": 120, "channel": 0}, {"type": "note_on", "time": 8, "note": 71, "velocity": 116, "channel": 0}, {"type": "note_off", "time": 69, "note": 71, "velocity": 116, "channel": 0}, {"type": "note_on", "time": 8, "note": 72, "velocity": 110, "channel": 0}, {"type": "note_off", "time": 256, "note": 72, "velocity": 110, "channel": 0}, {"type": "note_on", "time": 24, "note": 69, "velocity": 118, "channel": 0}, {"type": "note_off", "time": 85, "note": 69, "velocity": 118, "channel": 0}, {"type": "note_on", "time": 10, "note": 72, "velocity": 119, "channel": 0}, {"type": "note_off", "time": 85, "note": 72, "velocity": 119, "channel": 0}, {"type": "note_on", "time": 19, "note": 67, "velocity": 99, "channel": 0}, {"type": "note_off", "time": 354, "note": 67, "velocity": 99, "channel": 0}, {"type": "note_on", "time": 613, "note": 67, "velocity": 119, "channel": 0}, {"type": "note_off", "time": 80, "note": 67, "velocity": 119, "channel": 0}, {"type": "note_on", "time": 105, "note": 74, "velocity": 127, "channel": 0}, {"type": "note_off", "time": 48, "note": 74, "velocity": 127, "channel": 0}, {"type": "note_on", "time": 12, "note": 75, "velocity": 118, "channel": 0}, {"type": "note_off", "time": 194, "note": 75, "velocity": 118, "channel": 0}, {"type": "note_on", "time": 16, "note": 74, "velocity": 121, "channel": 0}, {"type": "note_off", "time": 76, "note": 74, "velocity": 121, "channel": 0}, {"type": "note_on", "time": 91, "note": 74, "velocity": 100, "channel": 0}, {"type": "note_off", "time": 345, "note": 74, "velocity": 100, "channel": 0}, {"type": "note_on", "time": 1201, "note": 65, "velocity": 114, "channel": 0}, {"type": "note_off", "time": 114, "note": 65, "velocity": 114, "channel": 0}, {"type": "note_on", "time": 94, "note": 65, "velocity": 119, "channel": 0}, {"type": "note_off", "time": 119, "note": 65, "velocity": 119, "channel": 0}, {"type": "note_on", "time": 73, "note": 65, "velocity": 119, "channel": 0}, {"type": "note_off", "time": 76, "note": 65, "velocity": 119, "channel": 0}, {"type": "note_on", "time": 23, "note": 67, "velocity": 119, "channel": 0}, {"type": "note_off", "time": 58, "note": 67, "velocity": 119, "channel": 0}, {"type": "note_on", "time": 16, "note": 68, "velocity": 120, "channel": 0}, {"type": "note_off", "time": 90, "note": 68, "velocity": 120, "channel": 0}, {"type": "note_on", "time": 29, "note": 67, "velocity": 112, "channel": 0}, {"type": "note_off", "time": 101, "note": 67, "velocity": 112, "channel": 0}, {"type": "note_on", "time": 111, "note": 67, "velocity": 105, "channel": 0}, {"type": "note_off", "time": 362, "note": 67, "velocity": 105, "channel": 0}, {"type": "note_on", "time": 24, "note": 65, "velocity": 117, "channel": 0}, {"type": "note_off", "time": 60, "note": 65, "velocity": 117, "channel": 0}, {"type": "note_on", "time": 14, "note": 64, "velocity": 115, "channel": 0}, {"type": "note_off", "time": 85, "note": 64, "velocity": 115, "channel": 0}, {"type": "note_on", "time": 37, "note": 62, "velocity": 119, "channel": 0}, {"type": "note_off", "time": 78, "note": 62, "velocity": 119, "channel": 0}, {"type": "note_on", "time": 87, "note": 63, "velocity": 123, "channel": 0}, {"type": "note_off", "time": 37, "note": 63, "velocity": 123, "channel": 0}, {"type": "note_on", "time": 10, "note": 64, "velocity": 97, "channel": 0}, {"type": "note_off", "time": 174, "note": 64, "velocity": 97, "channel": 0}, {"type": "note_on", "time": 45, "note": 62, "velocity": 121, "channel": 0}, {"type": "note_off", "time": 89, "note": 62, "velocity": 121, "channel": 0}, {"type": "note_on", "time": 26, "note": 59, "velocity": 116, "channel": 0}, {"type": "note_off", "time": 94, "note": 59, "velocity": 116, "channel": 0}, {"type": "note_on", "time": 23, "note": 55, "velocity": 98, "channel": 0}, {"type": "note_off", "time": 44, "note": 55, "velocity": 98, "channel": 0}, {"type": "note_on", "time": 30, "note": 52, "velocity": 98, "channel": 0}, {"type": "note_off", "time": 49, "note": 52, "velocity": 98, "channel": 0}, {"type": "note_on", "time": 17, "note": 55, "velocity": 106, "channel": 0}, {"type": "note_off", "time": 262, "note": 55, "velocity": 106, "channel": 0}, {"type": "note_on", "time": 41, "note": 52, "velocity": 106, "channel": 0}, {"type": "note_off", "time": 65, "note": 52, "velocity": 106, "channel": 0}, {"type": "note_on", "time": 39, "note": 55, "velocity": 114, "channel": 0}, {"type": "note_off", "time": 58, "note": 55, "velocity": 114, "channel": 0}, {"type": "note_on", "time": 21, "note": 59, "velocity": 114, "channel": 0}, {"type": "note_off", "time": 58, "note": 59, "velocity": 114, "channel": 0}, {"type": "note_on", "time": 38, "note": 62, "velocity": 123, "channel": 0}, {"type": "note_off", "time": 101, "note": 62, "velocity": 123, "channel": 0}, {"type": "note_on", "time": 21, "note": 60, "velocity": 107, "channel": 0}, {"type": "note_off", "time": 71, "note": 60, "velocity": 107, "channel": 0}, {"type": "note_on", "time": 16, "note": 64, "velocity": 109, "channel": 0}, {"type": "note_off", "time": 411, "note": 64, "velocity": 109, "channel": 0}, {"type": "note_on", "time": 31, "note": 60, "velocity": 119, "channel": 0}, {"type": "note_off", "time": 69, "note": 60, "velocity": 119, "channel": 0}, {"type": "note_on", "time": 63, "note": 57, "velocity": 115, "channel": 0}, {"type": "note_off", "time": 67, "note": 57, "velocity": 115, "channel": 0}, {"type": "note_on", "time": 9, "note": 52, "velocity": 110, "channel": 0}, {"type": "note_off", "time": 82, "note": 52, "velocity": 110, "channel": 0}, {"type": "note_on", "time": 1, "note": 57, "velocity": 110, "channel": 0}, {"type": "note_off", "time": 131, "note": 57, "velocity": 110, "channel": 0}, {"type": "note_on", "time": 33, "note": 57, "velocity": 114, "channel": 0}, {"type": "note_off", "time": 114, "note": 57, "velocity": 114, "channel": 0}, {"type": "note_on", "time": 32, "note": 53, "velocity": 104, "channel": 0}, {"type": "note_off", "time": 58, "note": 53, "velocity": 104, "channel": 0}, {"type": "note_on", "time": 24, "note": 57, "velocity": 112, "channel": 0}, {"type": "note_off", "time": 62, "note": 57, "velocity": 112, "channel": 0}, {"type": "note_on", "time": 5, "note": 58, "velocity": 114, "channel": 0}, {"type": "note_off", "time": 255, "note": 58, "velocity": 114, "channel": 0}, {"type": "note_on", "time": 59, "note": 57, "velocity": 108, "channel": 0}, {"type": "note_off", "time": 265, "note": 57, "velocity": 108, "channel": 0}, {"type": "note_on", "time": 21, "note": 55, "velocity": 114, "channel": 0}, {"type": "note_off", "time": 67, "note": 55, "velocity": 114, "channel": 0}, {"type": "note_on", "time": 12, "note": 54, "velocity": 109, "channel": 0}, {"type": "note_off", "time": 119, "note": 54, "velocity": 109, "channel": 0}, {"type": "note_on", "time": 54, "note": 59, "velocity": 115, "channel": 0}, {"type": "note_off", "time": 69, "note": 59, "velocity": 115, "channel": 0}, {"type": "note_on", "time": 20, "note": 62, "velocity": 120, "channel": 0}, {"type": "note_off", "time": 94, "note": 62, "velocity": 120, "channel": 0}, {"type": "note_on", "time": 28, "note": 65, "velocity": 108, "channel": 0}, {"type": "note_off", "time": 35, "note": 65, "velocity": 108, "channel": 0}, {"type": "note_on", "time": 9, "note": 67, "velocity": 112, "channel": 0}, {"type": "note_off", "time": 90, "note": 67, "velocity": 112, "channel": 0}, {"type": "note_on", "time": 19, "note": 62, "velocity": 102, "channel": 0}, {"type": "note_off", "time": 397, "note": 62, "velocity": 102, "channel": 0}, {"type": "note_on", "time": 429, "note": 64, "velocity": 118, "channel": 0}, {"type": "note_off", "time": 48, "note": 64, "velocity": 118, "channel": 0}, {"type": "note_on", "time": 8, "note": 65, "velocity": 114, "channel": 0}, {"type": "note_off", "time": 53, "note": 65, "velocity": 114, "channel": 0}, {"type": "note_on", "time": 14, "note": 66, "velocity": 116, "channel": 0}, {"type": "note_off", "time": 165, "note": 66, "velocity": 116, "channel": 0}, {"type": "note_on", "time": 16, "note": 64, "velocity": 113, "channel": 0}, {"type": "note_off", "time": 35, "note": 64, "velocity": 113, "channel": 0}, {"type": "note_on", "time": 8, "note": 66, "velocity": 116, "channel": 0}, {"type": "note_off", "time": 49, "note": 66, "velocity": 116, "channel": 0}, {"type": "note_on", "time": 21, "note": 64, "velocity": 118, "channel": 0}, {"type": "note_off", "time": 69, "note": 64, "velocity": 118, "channel": 0}, {"type": "note_on", "time": 19, "note": 63, "velocity": 124, "channel": 0}, {"type": "note_off", "time": 99, "note": 63, "velocity": 124, "channel": 0}, {"type": "note_on", "time": 17, "note": 60, "velocity": 116, "channel": 0}, {"type": "note_off", "time": 60, "note": 60, "velocity": 116, "channel": 0}, {"type": "note_on", "time": 17, "note": 59, "velocity": 110, "channel": 0}, {"type": "note_off", "time": 55, "note": 59, "velocity": 110, "channel": 0}, {"type": "note_on", "time": 32, "note": 58, "velocity": 106, "channel": 0}, {"type": "note_off", "time": 60, "note": 58, "velocity": 106, "channel": 0}, {"type": "note_on", "time": 26, "note": 59, "velocity": 118, "channel": 0}, {"type": "note_off", "time": 90, "note": 59, "velocity": 118, "channel": 0}, {"type": "note_on", "time": 12, "note": 66, "velocity": 108, "channel": 0}, {"type": "note_off", "time": 89, "note": 66, "velocity": 108, "channel": 0}, {"type": "note_on", "time": 10, "note": 63, "velocity": 120, "channel": 0}, {"type": "note_off", "time": 82, "note": 63, "velocity": 120, "channel": 0}, {"type": "note_on", "time": 16, "note": 59, "velocity": 113, "channel": 0}, {"type": "note_off", "time": 92, "note": 59, "velocity": 113, "channel": 0}, {"type": "note_on", "time": 14, "note": 64, "velocity": 105, "channel": 0}, {"type": "note_off", "time": 255, "note": 64, "velocity": 105, "channel": 0}, {"type": "note_on", "time": 17, "note": 59, "velocity": 111, "channel": 0}, {"type": "note_off", "time": 103, "note": 59, "velocity": 111, "channel": 0}, {"type": "note_on", "time": 68, "note": 56, "velocity": 110, "channel": 0}, {"type": "note_off", "time": 342, "note": 56, "velocity": 110, "channel": 0}, {"type": "note_on", "time": 24, "note": 52, "velocity": 110, "channel": 0}, {"type": "note_off", "time": 58, "note": 52, "velocity": 110, "channel": 0}, {"type": "note_on", "time": 35, "note": 56, "velocity": 115, "channel": 0}, {"type": "note_off", "time": 82, "note": 56, "velocity": 115, "channel": 0}, {"type": "note_on", "time": 24, "note": 58, "velocity": 120, "channel": 0}, {"type": "note_off", "time": 69, "note": 58, "velocity": 120, "channel": 0}, {"type": "note_on", "time": 18, "note": 60, "velocity": 111, "channel": 0}, {"type": "note_off", "time": 65, "note": 60, "velocity": 111, "channel": 0}, {"type": "note_on", "time": 30, "note": 62, "velocity": 119, "channel": 0}, {"type": "note_off", "time": 67, "note": 62, "velocity": 119, "channel": 0}, {"type": "note_on", "time": 17, "note": 64, "velocity": 112, "channel": 0}, {"type": "note_off", "time": 83, "note": 64, "velocity": 112, "channel": 0}, {"type": "note_on", "time": 24, "note": 66, "velocity": 113, "channel": 0}, {"type": "note_off", "time": 78, "note": 66, "velocity": 113, "channel": 0}, {"type": "note_on", "time": 13, "note": 68, "velocity": 91, "channel": 0}, {"type": "note_off", "time": 333, "note": 68, "velocity": 91, "channel": 0}, {"type": "note_on", "time": 62, "note": 65, "velocity": 116, "channel": 0}, {"type": "note_off", "time": 108, "note": 65, "velocity": 116, "channel": 0}, {"type": "note_on", "time": 17, "note": 60, "velocity": 110, "channel": 0}, {"type": "note_off", "time": 83, "note": 60, "velocity": 110, "channel": 0}, {"type": "note_on", "time": 37, "note": 58, "velocity": 95, "channel": 0}, {"type": "note_off", "time": 39, "note": 58, "velocity": 95, "channel": 0}, {"type": "note_on", "time": 17, "note": 56, "velocity": 93, "channel": 0}, {"type": "note_off", "time": 51, "note": 56, "velocity": 93, "channel": 0}, {"type": "note_on", "time": 64, "note": 65, "velocity": 105, "channel": 0}, {"type": "note_off", "time": 106, "note": 65, "velocity": 105, "channel": 0}, {"type": "note_on", "time": 45, "note": 65, "velocity": 112, "channel": 0}, {"type": "note_off", "time": 114, "note": 65, "velocity": 112, "channel": 0}, {"type": "note_on", "time": 13, "note": 61, "velocity": 117, "channel": 0}, {"type": "note_off", "time": 73, "note": 61, "velocity": 117, "channel": 0}, {"type": "note_on", "time": 27, "note": 60, "velocity": 112, "channel": 0}, {"type": "note_off", "time": 71, "note": 60, "velocity": 112, "channel": 0}, {"type": "note_on", "time": 31, "note": 58, "velocity": 107, "channel": 0}, {"type": "note_off", "time": 41, "note": 58, "velocity": 107, "channel": 0}, {"type": "note_on", "time": 43, "note": 56, "velocity": 116, "channel": 0}, {"type": "note_off", "time": 53, "note": 56, "velocity": 116, "channel": 0}, {"type": "note_on", "time": 37, "note": 53, "velocity": 102, "channel": 0}, {"type": "note_off", "time": 41, "note": 53, "velocity": 102, "channel": 0}, {"type": "note_on", "time": 37, "note": 56, "velocity": 117, "channel": 0}, {"type": "note_off", "time": 114, "note": 56, "velocity": 117, "channel": 0}, {"type": "note_on", "time": 23, "note": 53, "velocity": 105, "channel": 0}, {"type": "note_off", "time": 57, "note": 53, "velocity": 105, "channel": 0}, {"type": "note_on", "time": 18, "note": 55, "velocity": 102, "channel": 0}, {"type": "note_off", "time": 74, "note": 55, "velocity": 102, "channel": 0}, {"type": "note_on", "time": 10, "note": 58, "velocity": 115, "channel": 0}, {"type": "note_off", "time": 83, "note": 58, "velocity": 115, "channel": 0}, {"type": "note_on", "time": 33, "note": 64, "velocity": 111, "channel": 0}, {"type": "note_off", "time": 32, "note": 64, "velocity": 111, "channel": 0}, {"type": "note_on", "time": 20, "note": 65, "velocity": 107, "channel": 0}, {"type": "note_off", "time": 260, "note": 65, "velocity": 107, "channel": 0}, {"type": "note_on", "time": 48, "note": 63, "velocity": 116, "channel": 0}, {"type": "note_off", "time": 87, "note": 63, "velocity": 116, "channel": 0}, {"type": "note_on", "time": 19, "note": 60, "velocity": 115, "channel": 0}, {"type": "note_off", "time": 64, "note": 60, "velocity": 115, "channel": 0}, {"type": "note_on", "time": 46, "note": 55, "velocity": 112, "channel": 0}, {"type": "note_off", "time": 58, "note": 55, "velocity": 112, "channel": 0}, {"type": "note_on", "time": 38, "note": 53, "velocity": 110, "channel": 0}, {"type": "note_off", "time": 308, "note": 53, "velocity": 110, "channel": 0}, {"type": "note_on", "time": 509, "note": 68, "velocity": 124, "channel": 0}, {"type": "note_off", "time": 131, "note": 68, "velocity": 124, "channel": 0}, {"type": "note_on", "time": 48, "note": 68, "velocity": 122, "channel": 0}, {"type": "note_off", "time": 90, "note": 68, "velocity": 122, "channel": 0}, {"type": "note_on", "time": 54, "note": 68, "velocity": 108, "channel": 0}, {"type": "note_off", "time": 304, "note": 68, "velocity": 108, "channel": 0}, {"type": "note_on", "time": 38, "note": 64, "velocity": 114, "channel": 0}, {"type": "note_off", "time": 67, "note": 64, "velocity": 114, "channel": 0}, {"type": "note_on", "time": 38, "note": 68, "velocity": 121, "channel": 0}, {"type": "note_off", "time": 121, "note": 68, "velocity": 121, "channel": 0}, {"type": "note_on", "time": 91, "note": 64, "velocity": 92, "channel": 0}, {"type": "note_off", "time": 65, "note": 64, "velocity": 92, "channel": 0}, {"type": "note_on", "time": 8, "note": 68, "velocity": 105, "channel": 0}, {"type": "note_off", "time": 267, "note": 68, "velocity": 105, "channel": 0}, {"type": "note_on", "time": 10, "note": 67, "velocity": 120, "channel": 0}, {"type": "note_off", "time": 35, "note": 67, "velocity": 120, "channel": 0}, {"type": "note_on", "time": 16, "note": 68, "velocity": 122, "channel": 0}, {"type": "note_off", "time": 41, "note": 68, "velocity": 122, "channel": 0}, {"type": "note_on", "time": 16, "note": 67, "velocity": 119, "channel": 0}, {"type": "note_off", "time": 48, "note": 67, "velocity": 119, "channel": 0}, {"type": "note_on", "time": 19, "note": 65, "velocity": 116, "channel": 0}, {"type": "note_off", "time": 90, "note": 65, "velocity": 116, "channel": 0}, {"type": "note_on", "time": 24, "note": 63, "velocity": 118, "channel": 0}, {"type": "note_off", "time": 94, "note": 63, "velocity": 118, "channel": 0}, {"type": "note_on", "time": 23, "note": 60, "velocity": 114, "channel": 0}, {"type": "note_off", "time": 85, "note": 60, "velocity": 114, "channel": 0}, {"type": "note_on", "time": 12, "note": 55, "velocity": 113, "channel": 0}, {"type": "note_off", "time": 74, "note": 55, "velocity": 113, "channel": 0}, {"type": "note_on", "time": 14, "note": 54, "velocity": 118, "channel": 0}, {"type": "note_off", "time": 101, "note": 54, "velocity": 118, "channel": 0}, {"type": "note_on", "time": 33, "note": 54, "velocity": 109, "channel": 0}, {"type": "note_off", "time": 165, "note": 54, "velocity": 109, "channel": 0}, {"type": "note_on", "time": 65, "note": 56, "velocity": 117, "channel": 0}, {"type": "note_off", "time": 124, "note": 56, "velocity": 117, "channel": 0}, {"type": "note_on", "time": 23, "note": 57, "velocity": 112, "channel": 0}, {"type": "note_off", "time": 155, "note": 57, "velocity": 112, "channel": 0}, {"type": "note_on", "time": 37, "note": 53, "velocity": 117, "channel": 0}, {"type": "note_off", "time": 306, "note": 53, "velocity": 117, "channel": 0}, {"type": "note_on", "time": 28, "note": 58, "velocity": 111, "channel": 0}, {"type": "note_off", "time": 57, "note": 58, "velocity": 111, "channel": 0}, {"type": "note_on", "time": 5, "note": 62, "velocity": 118, "channel": 0}, {"type": "note_off", "time": 112, "note": 62, "velocity": 118, "channel": 0}, {"type": "note_on", "time": 24, "note": 65, "velocity": 103, "channel": 0}, {"type": "note_off", "time": 240, "note": 65, "velocity": 103, "channel": 0}, {"type": "note_on", "time": 477, "note": 64, "velocity": 118, "channel": 0}, {"type": "note_off", "time": 78, "note": 64, "velocity": 118, "channel": 0}, {"type": "note_on", "time": 12, "note": 66, "velocity": 106, "channel": 0}, {"type": "note_off", "time": 41, "note": 66, "velocity": 106, "channel": 0}, {"type": "note_on", "time": 8, "note": 69, "velocity": 111, "channel": 0}, {"type": "note_off", "time": 73, "note": 69, "velocity": 111, "channel": 0}, {"type": "note_on", "time": 17, "note": 72, "velocity": 103, "channel": 0}, {"type": "note_off", "time": 35, "note": 72, "velocity": 103, "channel": 0}, {"type": "note_on", "time": 27, "note": 75, "velocity": 121, "channel": 0}, {"type": "note_off", "time": 117, "note": 75, "velocity": 121, "channel": 0}, {"type": "note_on", "time": 67, "note": 75, "velocity": 121, "channel": 0}, {"type": "note_off", "time": 105, "note": 75, "velocity": 121, "channel": 0}, {"type": "note_on", "time": 82, "note": 75, "velocity": 120, "channel": 0}, {"type": "note_off", "time": 170, "note": 75, "velocity": 120, "channel": 0}, {"type": "note_on", "time": 17, "note": 75, "velocity": 115, "channel": 0}, {"type": "note_off", "time": 50, "note": 75, "velocity": 115, "channel": 0}, {"type": "note_on", "time": 65, "note": 75, "velocity": 105, "channel": 0}, {"type": "note_off", "time": 279, "note": 75, "velocity": 105, "channel": 0}, {"type": "note_on", "time": 13, "note": 74, "velocity": 113, "channel": 0}, {"type": "note_off", "time": 33, "note": 74, "velocity": 113, "channel": 0}, {"type": "note_on", "time": 14, "note": 75, "velocity": 107, "channel": 0}, {"type": "note_off", "time": 37, "note": 75, "velocity": 107, "channel": 0}, {"type": "note_on", "time": 8, "note": 74, "velocity": 114, "channel": 0}, {"type": "note_off", "time": 37, "note": 74, "velocity": 114, "channel": 0}, {"type": "note_on", "time": 8, "note": 73, "velocity": 117, "channel": 0}, {"type": "note_off", "time": 48, "note": 73, "velocity": 117, "channel": 0}, {"type": "note_on", "time": 7, "note": 72, "velocity": 120, "channel": 0}, {"type": "note_off", "time": 94, "note": 72, "velocity": 120, "channel": 0}, {"type": "note_on", "time": 12, "note": 68, "velocity": 113, "channel": 0}, {"type": "note_off", "time": 58, "note": 68, "velocity": 113, "channel": 0}, {"type": "note_on", "time": 21, "note": 64, "velocity": 116, "channel": 0}, {"type": "note_off", "time": 71, "note": 64, "velocity": 116, "channel": 0}, {"type": "note_on", "time": 21, "note": 61, "velocity": 103, "channel": 0}, {"type": "note_off", "time": 53, "note": 61, "velocity": 103, "channel": 0}, {"type": "note_on", "time": 34, "note": 65, "velocity": 93, "channel": 0}, {"type": "note_off", "time": 294, "note": 65, "velocity": 93, "channel": 0}, {"type": "end_of_track", "time": 0}]]}