{"ticks_per_beat": 192, "tracks": [[{"type": "note_on", "time": 0, "note": 58, "velocity": 97, "channel": 0}, {"type": "note_on", "time": 72, "note": 61, "velocity": 117, "channel": 0}, {"type": "note_off", "time": 0, "note": 58, "velocity": 97, "channel": 0}, {"type": "note_off", "time": 78, "note": 61, "velocity": 117, "channel": 0}, {"type": "note_on", "time": 16, "note": 63, "velocity": 116, "channel": 0}, {"type": "note_off", "time": 173, "note": 63, "velocity": 116, "channel": 0}, {"type": "note_on", "time": 266, "note": 58, "velocity": 105, "channel": 0}, {"type": "note_off", "time": 64, "note": 58, "velocity": 105, "channel": 0}, {"type": "note_on", "time": 14, "note": 61, "velocity": 118, "channel": 0}, {"type": "note_off", "time": 58, "note": 61, "velocity": 118, "channel": 0}, {"type": "note_on", "time": 5, "note": 63, "velocity": 120, "channel": 0}, {"type": "note_off", "time": 47, "note": 63, "velocity": 120, "channel": 0}, {"type": "note_on", "time": 19, "note": 66, "velocity": 101, "channel": 0}, {"type": "note_off", "time": 42, "note": 66, "velocity": 101, "channel": 0}, {"type": "note_on", "time": 2, "note": 64, "velocity": 115, "channel": 0}, {"type": "note_off", "time": 44, "note": 64, "velocity": 115, "channel": 0}, {"type": "note_on", "time": 8, "note": 63, "velocity": 123, "channel": 0}, {"type": "note_off", "time": 50, "note": 63, "velocity": 123, "channel": 0}, {"type": "note_on", "time": 11, "note": 61, "velocity": 116, "channel": 0}, {"type": "note_off", "time": 84, "note": 61, "velocity": 116, "channel": 0}, {"type": "note_on", "time": 8, "note": 58, "velocity": 108, "channel": 0}, {"type": "note_off", "time": 53, "note": 58, "velocity": 108, "channel": 0}, {"type": "note_on", "time": 47, "note": 53, "velocity": 109, "channel": 0}, {"type": "note_off", "time": 64, "note": 53, "velocity": 109, "channel": 0}, {"type": "note_on", "time": 67, "note": 53, "velocity": 122, "channel": 0}, {"type": "note_off", "time": 70, "note": 53, "velocity": 122, "channel": 0}, {"type": "note_on", "time": 2, "note": 50, "velocity": 103, "channel": 0}, {"type": "note_off", "time": 235, "note": 50, "velocity": 103, "channel": 0}, {"type": "note_on", "time": 30, "note": 58, "velocity": 114, "channel": 0}, {"type": "note_off", "time": 182, "note": 58, "velocity": 114, "channel": 0}, {"type": "note_on", "time": 429, "note": 49, "velocity": 119, "channel": 0}, {"type": "note_off", "time": 56, "note": 49, "velocity": 119, "channel": 0}, {"type": "note_on", "time": 2, "note": 50, "velocity": 112, "channel": 0}, {"type": "note_off", "time": 286, "note": 50, "velocity": 112, "channel": 0}, {"type": "note_on", "time": 5, "note": 56, "velocity": 109, "channel": 0}, {"type": "note_off", "time": 331, "note": 56, "velocity": 109, "channel": 0}, {"type": "note_on", "time": 401, "note": 55, "velocity": 118, "channel": 0}, {"type": "note_off", "time": 39, "note": 55, "velocity": 118, "channel": 0}, {"type": "note_on", "time": 5, "note": 53, "velocity": 114, "channel": 0}, {"type": "note_off", "time": 36, "note": 53, "velocity": 114, "channel": 0}, {"type": "note_on", "time": 19, "note": 52, "velocity": 115, "channel": 0}, {"type": "note_off", "time": 39, "note": 52, "velocity": 115, "channel": 0}, {"type": "note_on", "time": 16, "note": 55, "velocity": 111, "channel": 0}, {"type": "note_off", "time": 36, "note": 55, "velocity": 111, "channel": 0}, {"type": "note_on", "time": 8, "note": 58, "velocity": 115, "channel": 0}, {"type": "note_off", "time": 47, "note": 58, "velocity": 115, "channel": 0}, {"type": "note_on", "time": 8, "note": 62, "velocity": 123, "channel": 0}, {"type": "note_off", "time": 36, "note": 62, "velocity": 123, "channel": 0}, {"type": "note_on", "time": 5, "note": 61, "velocity": 125, "channel": 0}, {"type": "track_name", "name": "Melody", "time": 0}, {"type": "set_tempo", "tempo": 397350, "time": 0}, {"type": "key_signature", "key": "Bb", "time": 0}, {"type": "time_signature", "numerator": 4, "denominator": 4, "clocks_per_click": 24, "notated_32nd_notes_per_beat": 8, "time": 0}, {"type": "note_off", "time": 43, "note": 61, "velocity": 125, "channel": 0}, {"type": "note_on", "time": 2, "note": 56, "velocity": 121, "channel": 0}, {"type": "note_off", "time": 53, "note": 56, "velocity": 121, "channel": 0}, {"type": "note_on", "time": 11, "note": 53, "velocity": 111, "channel": 0}, {"type": "note_off", "time": 28, "note": 53, "velocity": 111, "channel": 0}, {"type": "note_on", "time": 19, "note": 51, "velocity": 117, "channel": 0}, {"type": "note_off", "time": 30, "note": 51, "velocity": 117, "channel": 0}, {"type": "note_on", "time": 22, "note": 49, "velocity": 106, "channel": 0}, {"type": "note_off", "time": 39, "note": 49, "velocity": 106, "channel": 0}, {"type": "note_on", "time": 16, "note": 50, "velocity": 107, "channel": 0}, {"type": "note_on", "time": 37, "note": 53, "velocity": 109, "channel": 0}, {"type": "note_off", "time": 0, "note": 50, "velocity": 107, "channel": 0}, {"type": "note_off", "time": 37, "note": 53, "velocity": 109, "channel": 0}, {"type": "note_on", "time": 13, "note": 57, "velocity": 113, "channel": 0}, {"type": "note_off", "time": 37, "note": 57, "velocity": 113, "channel": 0}, {"type": "note_on", "time": 3, "note": 60, "velocity": 106, "channel": 0}, {"type": "note_off", "time": 293, "note": 60, "velocity": 106, "channel": 0}, {"type": "note_on", "time": 323, "note": 55, "velocity": 109, "channel": 0}, {"type": "note_off", "time": 23, "note": 55, "velocity": 109, "channel": 0}, {"type": "note_on", "time": 7, "note": 53, "velocity": 122, "channel": 0}, {"type": "note_off", "time": 33, "note": 53, "velocity": 122, "channel": 0}, {"type": "note_on", "time": 5, "note": 51, "velocity": 111, "channel": 0}, {"type": "note_off", "time": 51, "note": 51, "velocity": 111, "channel": 0}, {"type": "note_on", "time": 100, "note": 53, "velocity": 118, "channel": 0}, {"type": "note_off", "time": 47, "note": 53, "velocity": 118, "channel": 0}, {"type": "note_on", "time": 31, "note": 58, "velocity": 115, "channel": 0}, {"type": "note_off", "time": 90, "note": 58, "velocity": 115, "channel": 0}, {"type": "note_on", "time": 128, "note": 51, "velocity": 111, "channel": 0}, {"type": "note_off", "time": 98, "note": 51, "velocity": 111, "channel": 0}, {"type": "note_on", "time": 1, "note": 55, "velocity": 120, "channel": 0}, {"type": "note_off", "time": 37, "note": 55, "velocity": 120, "channel": 0}, {"type": "note_on", "time": 23, "note": 58, "velocity": 120, "channel": 0}, {"type": "note_off", "time": 110, "note": 58, "velocity": 120, "channel": 0}, {"type": "note_on", "time": 13, "note": 56, "velocity": 105, "channel": 0}, {"type": "note_off", "time": 41, "note": 56, "velocity": 105, "channel": 0}, {"type": "note_on", "time": 161, "note": 55, "velocity": 117, "channel": 0}, {"type": "note_off", "time": 47, "note": 55, "velocity": 117, "channel": 0}, {"type": "note_on", "time": 1, "note": 58, "velocity": 113, "channel": 0}, {"type": "note_off", "time": 307, "note": 58, "velocity": 113, "channel": 0}, {"type": "note_on", "time": 197, "note": 60, "velocity": 117, "channel": 0}, {"type": "note_off", "time": 29, "note": 60, "velocity": 117, "channel": 0}, {"type": "note_on", "time": 7, "note": 58, "velocity": 116, "channel": 0}, {"type": "note_off", "time": 31, "note": 58, "velocity": 116, "channel": 0}, {"type": "note_on", "time": 9, "note": 57, "velocity": 112, "channel": 0}, {"type": "note_on", "time": 92, "note": 58, "velocity": 102, "channel": 0}, {"type": "note_off", "time": 0, "note": 57, "velocity": 112, "channel": 0}, {"type": "note_off", "time": 59, "note": 58, "velocity": 102, "channel": 0}, {"type": "note_on", "time": 23, "note": 62, "velocity": 121, "channel": 0}, {"type": "note_off", "time": 110, "note": 62, "velocity": 121, "channel": 0}, {"type": "note_on", "time": 3, "note": 65, "velocity": 106, "channel": 0}, {"type": "note_off", "time": 59, "note": 65, "velocity": 106, "channel": 0}, {"type": "note_on", "time": 23, "note": 70, "velocity": 115, "channel": 0}, {"type": "note_off", "time": 134, "note": 70, "velocity": 115, "channel": 0}, {"type": "note_on", "time": 17, "note": 70, "velocity": 101, "channel": 0}, {"type": "note_off", "time": 260, "note": 70, "velocity": 101, "channel": 0}, {"type": "note_on", "time": 504, "note": 67, "velocity": 120, "channel": 0}, {"type": "note_off", "time": 88, "note": 67, "velocity": 120, "channel": 0}, {"type": "note_on", "time": 3, "note": 70, "velocity": 94, "channel": 0}, {"type": "note_off", "time": 98, "note": 70, "velocity": 94, "channel": 0}, {"type": "note_on", "time": 1, "note": 67, "velocity": 116, "channel": 0}, {"type": "note_off", "time": 74, "note": 67, "velocity": 116, "channel": 0}, {"type": "note_on", "time": 9, "note": 68, "velocity": 104, "channel": 0}, {"type": "note_off", "time": 96, "note": 68, "velocity": 104, "channel": 0}, {"type": "note_on", "time": 0, "note": 65, "velocity": 120, "channel": 0}, {"type": "note_off", "time": 92, "note": 65, "velocity": 120, "channel": 0}, {"type": "note_on", "time": 1, "note": 67, "velocity": 117, "channel": 0}, {"type": "note_on", "time": 57, "note": 65, "velocity": 117, "channel": 0}, {"type": "note_off", "time": 0, "note": 67, "velocity": 117, "channel": 0}, {"type": "note_off", "time": 43, "note": 65, "velocity": 117, "channel": 0}, {"type": "note_on", "time": 6, "note": 64, "velocity": 121, "channel": 0}, {"type": "note_off", "time": 43, "note": 64, "velocity": 121, "channel": 0}, {"type": "note_on", "time": 13, "note": 61, "velocity": 120, "channel": 0}, {"type": "note_off", "time": 80, "note": 61, "velocity": 120, "channel": 0}, {"type": "note_on", "time": 0, "note": 58, "velocity": 102, "channel": 0}, {"type": "note_off", "time": 242, "note": 58, "velocity": 102, "channel": 0}, {"type": "note_on", "time": 7, "note": 63, "velocity": 116, "channel": 0}, {"type": "note_off", "time": 35, "note": 63, "velocity": 116, "channel": 0}, {"type": "note_on", "time": 12, "note": 64, "velocity": 116, "channel": 0}, {"type": "note_off", "time": 317, "note": 64, "velocity": 116, "channel": 0}, {"type": "note_on", "time": 5, "note": 62, "velocity": 111, "channel": 0}, {"type": "note_off", "time": 33, "note": 62, "velocity": 111, "channel": 0}, {"type": "note_on", "time": 5, "note": 63, "velocity": 116, "channel": 0}, {"type": "note_off", "time": 35, "note": 63, "velocity": 116, "channel": 0}, {"type": "note_on", "time": 5, "note": 58, "velocity": 110, "channel": 0}, {"type": "note_off", "time": 96, "note": 58, "velocity": 110, "channel": 0}, {"type": "note_on", "time": 78, "note": 63, "velocity": 115, "channel": 0}, {"type": "note_off", "time": 175, "note": 63, "velocity": 115, "channel": 0}, {"type": "note_on", "time": 528, "note": 63, "velocity": 126, "channel": 0}, {"type": "note_off", "time": 108, "note": 63, "velocity": 126, "channel": 0}, {"type": "note_on", "time": 1, "note": 67, "velocity": 117, "channel": 0}, {"type": "note_off", "time": 92, "note": 67, "velocity": 117, "channel": 0}, {"type": "note_on", "time": 3, "note": 69, "velocity": 117, "channel": 0}, {"type": "note_off", "time": 88, "note": 69, "velocity": 117, "channel": 0}, {"type": "note_on", "time": 5, "note": 73, "velocity": 114, "channel": 0}, {"type": "note_off", "time": 90, "note": 73, "velocity": 114, "channel": 0}, {"type": "note_on", "time": 3, "note": 69, "velocity": 117, "channel": 0}, {"type": "note_off", "time": 90, "note": 69, "velocity": 117, "channel": 0}, {"type": "note_on", "time": 1, "note": 65, "velocity": 115, "channel": 0}, {"type": "note_off", "time": 118, "note": 65, "velocity": 115, "channel": 0}, {"type": "note_on", "time": 3, "note": 61, "velocity": 111, "channel": 0}, {"type": "note_off", "time": 49, "note": 61, "velocity": 111, "channel": 0}, {"type": "note_on", "time": 1, "note": 62, "velocity": 122, "channel": 0}, {"type": "note_off", "time": 132, "note": 62, "velocity": 122, "channel": 0}, {"type": "note_on", "time": 1, "note": 70, "velocity": 104, "channel": 0}, {"type": "note_off", "time": 284, "note": 70, "velocity": 104, "channel": 0}, {"type": "note_on", "time": 617, "note": 70, "velocity": 114, "channel": 0}, {"type": "note_off", "time": 39, "note": 70, "velocity": 114, "channel": 0}, {"type": "note_on", "time": 3, "note": 68, "velocity": 115, "channel": 0}, {"type": "note_off", "time": 35, "note": 68, "velocity": 115, "channel": 0}, {"type": "note_on", "time": 3, "note": 67, "velocity": 115, "channel": 0}, {"type": "note_off", "time": 35, "note": 67, "velocity": 115, "channel": 0}, {"type": "note_on", "time": 3, "note": 65, "velocity": 108, "channel": 0}, {"type": "note_off", "time": 282, "note": 65, "velocity": 108, "channel": 0}, {"type": "note_on", "time": 5, "note": 67, "velocity": 114, "channel": 0}, {"type": "note_off", "time": 78, "note": 67, "velocity": 114, "channel": 0}, {"type": "note_on", "time": 3, "note": 63, "velocity": 127, "channel": 0}, {"type": "note_off", "time": 116, "note": 63, "velocity": 127, "channel": 0}, {"type": "note_on", "time": 1, "note": 55, "velocity": 103, "channel": 0}, {"type": "note_off", "time": 232, "note": 55, "velocity": 103, "channel": 0}, {"type": "note_on", "time": 333, "note": 56, "velocity": 121, "channel": 0}, {"type": "note_off", "time": 59, "note": 56, "velocity": 121, "channel": 0}, {"type": "note_on", "time": 3, "note": 54, "velocity": 111, "channel": 0}, {"type": "note_off", "time": 98, "note": 54, "velocity": 111, "channel": 0}, {"type": "note_on", "time": 3, "note": 55, "velocity": 111, "channel": 0}, {"type": "note_off", "time": 92, "note": 55, "velocity": 111, "channel": 0}, {"type": "note_on", "time": 3, "note": 58, "velocity": 110, "channel": 0}, {"type": "note_off", "time": 94, "note": 58, "velocity": 110, "channel": 0}, {"type": "note_on", "time": 11, "note": 62, "velocity": 122, "channel": 0}, {"type": "note_off", "time": 76, "note": 62, "velocity": 122, "channel": 0}, {"type": "note_on", "time": 5, "note": 61, "velocity": 119, "channel": 0}, {"type": "note_off", "time": 108, "note": 61, "velocity": 119, "channel": 0}, {"type": "note_on", "time": 5, "note": 56, "velocity": 118, "channel": 0}, {"type": "note_off", "time": 65, "note": 56, "velocity": 118, "channel": 0}, {"type": "note_on", "time": 37, "note": 53, "velocity": 107, "channel": 0}, {"type": "note_off", "time": 86, "note": 53, "velocity": 107, "channel": 0}, {"type": "note_on", "time": 7, "note": 48, "velocity": 116, "channel": 0}, {"type": "note_off", "time": 94, "note": 48, "velocity": 116, "channel": 0}, {"type": "note_on", "time": 3, "note": 50, "velocity": 104, "channel": 0}, {"type": "note_off", "time": 106, "note": 50, "velocity": 104, "channel": 0}, {"type": "note_on", "time": 5, "note": 58, "velocity": 114, "channel": 0}, {"type": "note_off", "time": 195, "note": 58, "velocity": 114, "channel": 0}, {"type": "note_on", "time": 566, "note": 51, "velocity": 105, "channel": 0}, {"type": "note_off", "time": 43, "note": 51, "velocity": 105, "channel": 0}, {"type": "note_on", "time": 1, "note": 55, "velocity": 111, "channel": 0}, {"type": "note_off", "time": 45, "note": 55, "velocity": 111, "channel": 0}, {"type": "note_on", "time": 7, "note": 58, "velocity": 110, "channel": 0}, {"type": "note_off", "time": 37, "note": 58, "velocity": 110, "channel": 0}, {"type": "note_on", "time": 0, "note": 62, "velocity": 124, "channel": 0}, {"type": "note_off", "time": 61, "note": 62, "velocity": 124, "channel": 0}, {"type": "note_on", "time": 5, "note": 61, "velocity": 115, "channel": 0}, {"type": "note_off", "time": 45, "note": 61, "velocity": 115, "channel": 0}, {"type": "note_on", "time": 3, "note": 57, "velocity": 113, "channel": 0}, {"type": "note_off", "time": 264, "note": 57, "velocity": 113, "channel": 0}, {"type": "note_on", "time": 25, "note": 53, "velocity": 105, "channel": 0}, {"type": "note_off", "time": 63, "note": 53, "velocity": 105, "channel": 0}, {"type": "note_on", "time": 5, "note": 58, "velocity": 103, "channel": 0}, {"type": "note_off", "time": 173, "note": 58, "velocity": 103, "channel": 0}, {"type": "end_of_track", "time": 0}]]}